G04 #@! TF.GenerationSoftware,KiCad,Pcbnew,7.0.7*
G04 #@! TF.CreationDate,2023-11-26T11:09:42-07:00*
G04 #@! TF.ProjectId,TypeStationX,54797065-5374-4617-9469-6f6e582e6b69,rev?*
G04 #@! TF.SameCoordinates,Original*
G04 #@! TF.FileFunction,Legend,Top*
G04 #@! TF.FilePolarity,Positive*
%FSLAX46Y46*%
G04 Gerber Fmt 4.6, Leading zero omitted, Abs format (unit mm)*
G04 Created by KiCad (PCBNEW 7.0.7) date 2023-11-26 11:09:42*
%MOMM*%
%LPD*%
G01*
G04 APERTURE LIST*
G04 Aperture macros list*
%AMHorizOval*
0 Thick line with rounded ends*
0 $1 width*
0 $2 $3 position (X,Y) of the first rounded end (center of the circle)*
0 $4 $5 position (X,Y) of the second rounded end (center of the circle)*
0 Add line between two ends*
20,1,$1,$2,$3,$4,$5,0*
0 Add two circle primitives to create the rounded ends*
1,1,$1,$2,$3*
1,1,$1,$4,$5*%
%AMRotRect*
0 Rectangle, with rotation*
0 The origin of the aperture is its center*
0 $1 length*
0 $2 width*
0 $3 Rotation angle, in degrees counterclockwise*
0 Add horizontal line*
21,1,$1,$2,0,0,$3*%
G04 Aperture macros list end*
%ADD10C,0.300000*%
%ADD11C,0.120000*%
%ADD12C,1.750000*%
%ADD13C,1.550000*%
%ADD14C,4.000000*%
%ADD15R,1.300000X1.778000*%
%ADD16O,1.300000X1.778000*%
%ADD17RotRect,1.778000X1.300000X96.000000*%
%ADD18HorizOval,1.300000X-0.024982X0.237691X0.024982X-0.237691X0*%
%ADD19RotRect,1.778000X1.300000X85.000000*%
%ADD20HorizOval,1.300000X0.020830X0.238091X-0.020830X-0.238091X0*%
%ADD21RotRect,1.778000X1.300000X109.000000*%
%ADD22HorizOval,1.300000X-0.077811X0.225979X0.077811X-0.225979X0*%
%ADD23R,1.700000X1.700000*%
%ADD24O,1.700000X1.700000*%
%ADD25RotRect,1.778000X1.300000X122.000000*%
%ADD26HorizOval,1.300000X-0.126651X0.202683X0.126651X-0.202683X0*%
G04 APERTURE END LIST*
D10*
X178087398Y-97503589D02*
X179587398Y-97503589D01*
X179587398Y-97503589D02*
X179587398Y-98075018D01*
X179587398Y-98075018D02*
X179515969Y-98217875D01*
X179515969Y-98217875D02*
X179444541Y-98289304D01*
X179444541Y-98289304D02*
X179301684Y-98360732D01*
X179301684Y-98360732D02*
X179087398Y-98360732D01*
X179087398Y-98360732D02*
X178944541Y-98289304D01*
X178944541Y-98289304D02*
X178873112Y-98217875D01*
X178873112Y-98217875D02*
X178801684Y-98075018D01*
X178801684Y-98075018D02*
X178801684Y-97503589D01*
X178158827Y-98932161D02*
X178087398Y-99146447D01*
X178087398Y-99146447D02*
X178087398Y-99503589D01*
X178087398Y-99503589D02*
X178158827Y-99646447D01*
X178158827Y-99646447D02*
X178230255Y-99717875D01*
X178230255Y-99717875D02*
X178373112Y-99789304D01*
X178373112Y-99789304D02*
X178515969Y-99789304D01*
X178515969Y-99789304D02*
X178658827Y-99717875D01*
X178658827Y-99717875D02*
X178730255Y-99646447D01*
X178730255Y-99646447D02*
X178801684Y-99503589D01*
X178801684Y-99503589D02*
X178873112Y-99217875D01*
X178873112Y-99217875D02*
X178944541Y-99075018D01*
X178944541Y-99075018D02*
X179015969Y-99003589D01*
X179015969Y-99003589D02*
X179158827Y-98932161D01*
X179158827Y-98932161D02*
X179301684Y-98932161D01*
X179301684Y-98932161D02*
X179444541Y-99003589D01*
X179444541Y-99003589D02*
X179515969Y-99075018D01*
X179515969Y-99075018D02*
X179587398Y-99217875D01*
X179587398Y-99217875D02*
X179587398Y-99575018D01*
X179587398Y-99575018D02*
X179515969Y-99789304D01*
X179444541Y-100360732D02*
X179515969Y-100432160D01*
X179515969Y-100432160D02*
X179587398Y-100575018D01*
X179587398Y-100575018D02*
X179587398Y-100932160D01*
X179587398Y-100932160D02*
X179515969Y-101075018D01*
X179515969Y-101075018D02*
X179444541Y-101146446D01*
X179444541Y-101146446D02*
X179301684Y-101217875D01*
X179301684Y-101217875D02*
X179158827Y-101217875D01*
X179158827Y-101217875D02*
X178944541Y-101146446D01*
X178944541Y-101146446D02*
X178087398Y-100289303D01*
X178087398Y-100289303D02*
X178087398Y-101217875D01*
X178873112Y-103503588D02*
X178873112Y-103003588D01*
X178087398Y-103003588D02*
X179587398Y-103003588D01*
X179587398Y-103003588D02*
X179587398Y-103717874D01*
X178158827Y-104860731D02*
X178087398Y-104717874D01*
X178087398Y-104717874D02*
X178087398Y-104432160D01*
X178087398Y-104432160D02*
X178158827Y-104289302D01*
X178158827Y-104289302D02*
X178301684Y-104217874D01*
X178301684Y-104217874D02*
X178873112Y-104217874D01*
X178873112Y-104217874D02*
X179015969Y-104289302D01*
X179015969Y-104289302D02*
X179087398Y-104432160D01*
X179087398Y-104432160D02*
X179087398Y-104717874D01*
X179087398Y-104717874D02*
X179015969Y-104860731D01*
X179015969Y-104860731D02*
X178873112Y-104932160D01*
X178873112Y-104932160D02*
X178730255Y-104932160D01*
X178730255Y-104932160D02*
X178587398Y-104217874D01*
X178087398Y-105575016D02*
X179087398Y-105575016D01*
X178944541Y-105575016D02*
X179015969Y-105646445D01*
X179015969Y-105646445D02*
X179087398Y-105789302D01*
X179087398Y-105789302D02*
X179087398Y-106003588D01*
X179087398Y-106003588D02*
X179015969Y-106146445D01*
X179015969Y-106146445D02*
X178873112Y-106217874D01*
X178873112Y-106217874D02*
X178087398Y-106217874D01*
X178873112Y-106217874D02*
X179015969Y-106289302D01*
X179015969Y-106289302D02*
X179087398Y-106432159D01*
X179087398Y-106432159D02*
X179087398Y-106646445D01*
X179087398Y-106646445D02*
X179015969Y-106789302D01*
X179015969Y-106789302D02*
X178873112Y-106860731D01*
X178873112Y-106860731D02*
X178087398Y-106860731D01*
X178087398Y-108217874D02*
X178873112Y-108217874D01*
X178873112Y-108217874D02*
X179015969Y-108146445D01*
X179015969Y-108146445D02*
X179087398Y-108003588D01*
X179087398Y-108003588D02*
X179087398Y-107717874D01*
X179087398Y-107717874D02*
X179015969Y-107575016D01*
X178158827Y-108217874D02*
X178087398Y-108075016D01*
X178087398Y-108075016D02*
X178087398Y-107717874D01*
X178087398Y-107717874D02*
X178158827Y-107575016D01*
X178158827Y-107575016D02*
X178301684Y-107503588D01*
X178301684Y-107503588D02*
X178444541Y-107503588D01*
X178444541Y-107503588D02*
X178587398Y-107575016D01*
X178587398Y-107575016D02*
X178658827Y-107717874D01*
X178658827Y-107717874D02*
X178658827Y-108075016D01*
X178658827Y-108075016D02*
X178730255Y-108217874D01*
X178087398Y-109146445D02*
X178158827Y-109003588D01*
X178158827Y-109003588D02*
X178301684Y-108932159D01*
X178301684Y-108932159D02*
X179587398Y-108932159D01*
X178158827Y-110289302D02*
X178087398Y-110146445D01*
X178087398Y-110146445D02*
X178087398Y-109860731D01*
X178087398Y-109860731D02*
X178158827Y-109717873D01*
X178158827Y-109717873D02*
X178301684Y-109646445D01*
X178301684Y-109646445D02*
X178873112Y-109646445D01*
X178873112Y-109646445D02*
X179015969Y-109717873D01*
X179015969Y-109717873D02*
X179087398Y-109860731D01*
X179087398Y-109860731D02*
X179087398Y-110146445D01*
X179087398Y-110146445D02*
X179015969Y-110289302D01*
X179015969Y-110289302D02*
X178873112Y-110360731D01*
X178873112Y-110360731D02*
X178730255Y-110360731D01*
X178730255Y-110360731D02*
X178587398Y-109646445D01*
X178158827Y-112789302D02*
X178087398Y-112646444D01*
X178087398Y-112646444D02*
X178087398Y-112360730D01*
X178087398Y-112360730D02*
X178158827Y-112217873D01*
X178158827Y-112217873D02*
X178230255Y-112146444D01*
X178230255Y-112146444D02*
X178373112Y-112075016D01*
X178373112Y-112075016D02*
X178801684Y-112075016D01*
X178801684Y-112075016D02*
X178944541Y-112146444D01*
X178944541Y-112146444D02*
X179015969Y-112217873D01*
X179015969Y-112217873D02*
X179087398Y-112360730D01*
X179087398Y-112360730D02*
X179087398Y-112646444D01*
X179087398Y-112646444D02*
X179015969Y-112789302D01*
X178087398Y-113646444D02*
X178158827Y-113503587D01*
X178158827Y-113503587D02*
X178230255Y-113432158D01*
X178230255Y-113432158D02*
X178373112Y-113360730D01*
X178373112Y-113360730D02*
X178801684Y-113360730D01*
X178801684Y-113360730D02*
X178944541Y-113432158D01*
X178944541Y-113432158D02*
X179015969Y-113503587D01*
X179015969Y-113503587D02*
X179087398Y-113646444D01*
X179087398Y-113646444D02*
X179087398Y-113860730D01*
X179087398Y-113860730D02*
X179015969Y-114003587D01*
X179015969Y-114003587D02*
X178944541Y-114075016D01*
X178944541Y-114075016D02*
X178801684Y-114146444D01*
X178801684Y-114146444D02*
X178373112Y-114146444D01*
X178373112Y-114146444D02*
X178230255Y-114075016D01*
X178230255Y-114075016D02*
X178158827Y-114003587D01*
X178158827Y-114003587D02*
X178087398Y-113860730D01*
X178087398Y-113860730D02*
X178087398Y-113646444D01*
X179087398Y-114789301D02*
X178087398Y-114789301D01*
X178944541Y-114789301D02*
X179015969Y-114860730D01*
X179015969Y-114860730D02*
X179087398Y-115003587D01*
X179087398Y-115003587D02*
X179087398Y-115217873D01*
X179087398Y-115217873D02*
X179015969Y-115360730D01*
X179015969Y-115360730D02*
X178873112Y-115432159D01*
X178873112Y-115432159D02*
X178087398Y-115432159D01*
X179087398Y-116146444D02*
X178087398Y-116146444D01*
X178944541Y-116146444D02*
X179015969Y-116217873D01*
X179015969Y-116217873D02*
X179087398Y-116360730D01*
X179087398Y-116360730D02*
X179087398Y-116575016D01*
X179087398Y-116575016D02*
X179015969Y-116717873D01*
X179015969Y-116717873D02*
X178873112Y-116789302D01*
X178873112Y-116789302D02*
X178087398Y-116789302D01*
X178158827Y-118075016D02*
X178087398Y-117932159D01*
X178087398Y-117932159D02*
X178087398Y-117646445D01*
X178087398Y-117646445D02*
X178158827Y-117503587D01*
X178158827Y-117503587D02*
X178301684Y-117432159D01*
X178301684Y-117432159D02*
X178873112Y-117432159D01*
X178873112Y-117432159D02*
X179015969Y-117503587D01*
X179015969Y-117503587D02*
X179087398Y-117646445D01*
X179087398Y-117646445D02*
X179087398Y-117932159D01*
X179087398Y-117932159D02*
X179015969Y-118075016D01*
X179015969Y-118075016D02*
X178873112Y-118146445D01*
X178873112Y-118146445D02*
X178730255Y-118146445D01*
X178730255Y-118146445D02*
X178587398Y-117432159D01*
X178158827Y-119432159D02*
X178087398Y-119289301D01*
X178087398Y-119289301D02*
X178087398Y-119003587D01*
X178087398Y-119003587D02*
X178158827Y-118860730D01*
X178158827Y-118860730D02*
X178230255Y-118789301D01*
X178230255Y-118789301D02*
X178373112Y-118717873D01*
X178373112Y-118717873D02*
X178801684Y-118717873D01*
X178801684Y-118717873D02*
X178944541Y-118789301D01*
X178944541Y-118789301D02*
X179015969Y-118860730D01*
X179015969Y-118860730D02*
X179087398Y-119003587D01*
X179087398Y-119003587D02*
X179087398Y-119289301D01*
X179087398Y-119289301D02*
X179015969Y-119432159D01*
X179087398Y-119860730D02*
X179087398Y-120432158D01*
X179587398Y-120075015D02*
X178301684Y-120075015D01*
X178301684Y-120075015D02*
X178158827Y-120146444D01*
X178158827Y-120146444D02*
X178087398Y-120289301D01*
X178087398Y-120289301D02*
X178087398Y-120432158D01*
X178087398Y-121146444D02*
X178158827Y-121003587D01*
X178158827Y-121003587D02*
X178230255Y-120932158D01*
X178230255Y-120932158D02*
X178373112Y-120860730D01*
X178373112Y-120860730D02*
X178801684Y-120860730D01*
X178801684Y-120860730D02*
X178944541Y-120932158D01*
X178944541Y-120932158D02*
X179015969Y-121003587D01*
X179015969Y-121003587D02*
X179087398Y-121146444D01*
X179087398Y-121146444D02*
X179087398Y-121360730D01*
X179087398Y-121360730D02*
X179015969Y-121503587D01*
X179015969Y-121503587D02*
X178944541Y-121575016D01*
X178944541Y-121575016D02*
X178801684Y-121646444D01*
X178801684Y-121646444D02*
X178373112Y-121646444D01*
X178373112Y-121646444D02*
X178230255Y-121575016D01*
X178230255Y-121575016D02*
X178158827Y-121503587D01*
X178158827Y-121503587D02*
X178087398Y-121360730D01*
X178087398Y-121360730D02*
X178087398Y-121146444D01*
X178087398Y-122289301D02*
X179087398Y-122289301D01*
X178801684Y-122289301D02*
X178944541Y-122360730D01*
X178944541Y-122360730D02*
X179015969Y-122432159D01*
X179015969Y-122432159D02*
X179087398Y-122575016D01*
X179087398Y-122575016D02*
X179087398Y-122717873D01*
X177172398Y-97789304D02*
X177172398Y-98075018D01*
X177172398Y-98075018D02*
X177100969Y-98217875D01*
X177100969Y-98217875D02*
X176958112Y-98360732D01*
X176958112Y-98360732D02*
X176672398Y-98432161D01*
X176672398Y-98432161D02*
X176172398Y-98432161D01*
X176172398Y-98432161D02*
X175886684Y-98360732D01*
X175886684Y-98360732D02*
X175743827Y-98217875D01*
X175743827Y-98217875D02*
X175672398Y-98075018D01*
X175672398Y-98075018D02*
X175672398Y-97789304D01*
X175672398Y-97789304D02*
X175743827Y-97646447D01*
X175743827Y-97646447D02*
X175886684Y-97503589D01*
X175886684Y-97503589D02*
X176172398Y-97432161D01*
X176172398Y-97432161D02*
X176672398Y-97432161D01*
X176672398Y-97432161D02*
X176958112Y-97503589D01*
X176958112Y-97503589D02*
X177100969Y-97646447D01*
X177100969Y-97646447D02*
X177172398Y-97789304D01*
X176672398Y-99075018D02*
X175672398Y-99075018D01*
X176529541Y-99075018D02*
X176600969Y-99146447D01*
X176600969Y-99146447D02*
X176672398Y-99289304D01*
X176672398Y-99289304D02*
X176672398Y-99503590D01*
X176672398Y-99503590D02*
X176600969Y-99646447D01*
X176600969Y-99646447D02*
X176458112Y-99717876D01*
X176458112Y-99717876D02*
X175672398Y-99717876D01*
X175672398Y-101575018D02*
X177172398Y-101575018D01*
X176600969Y-101575018D02*
X176672398Y-101717876D01*
X176672398Y-101717876D02*
X176672398Y-102003590D01*
X176672398Y-102003590D02*
X176600969Y-102146447D01*
X176600969Y-102146447D02*
X176529541Y-102217876D01*
X176529541Y-102217876D02*
X176386684Y-102289304D01*
X176386684Y-102289304D02*
X175958112Y-102289304D01*
X175958112Y-102289304D02*
X175815255Y-102217876D01*
X175815255Y-102217876D02*
X175743827Y-102146447D01*
X175743827Y-102146447D02*
X175672398Y-102003590D01*
X175672398Y-102003590D02*
X175672398Y-101717876D01*
X175672398Y-101717876D02*
X175743827Y-101575018D01*
X175672398Y-103575019D02*
X176458112Y-103575019D01*
X176458112Y-103575019D02*
X176600969Y-103503590D01*
X176600969Y-103503590D02*
X176672398Y-103360733D01*
X176672398Y-103360733D02*
X176672398Y-103075019D01*
X176672398Y-103075019D02*
X176600969Y-102932161D01*
X175743827Y-103575019D02*
X175672398Y-103432161D01*
X175672398Y-103432161D02*
X175672398Y-103075019D01*
X175672398Y-103075019D02*
X175743827Y-102932161D01*
X175743827Y-102932161D02*
X175886684Y-102860733D01*
X175886684Y-102860733D02*
X176029541Y-102860733D01*
X176029541Y-102860733D02*
X176172398Y-102932161D01*
X176172398Y-102932161D02*
X176243827Y-103075019D01*
X176243827Y-103075019D02*
X176243827Y-103432161D01*
X176243827Y-103432161D02*
X176315255Y-103575019D01*
X175743827Y-104932162D02*
X175672398Y-104789304D01*
X175672398Y-104789304D02*
X175672398Y-104503590D01*
X175672398Y-104503590D02*
X175743827Y-104360733D01*
X175743827Y-104360733D02*
X175815255Y-104289304D01*
X175815255Y-104289304D02*
X175958112Y-104217876D01*
X175958112Y-104217876D02*
X176386684Y-104217876D01*
X176386684Y-104217876D02*
X176529541Y-104289304D01*
X176529541Y-104289304D02*
X176600969Y-104360733D01*
X176600969Y-104360733D02*
X176672398Y-104503590D01*
X176672398Y-104503590D02*
X176672398Y-104789304D01*
X176672398Y-104789304D02*
X176600969Y-104932162D01*
X175672398Y-105575018D02*
X177172398Y-105575018D01*
X176243827Y-105717876D02*
X175672398Y-106146447D01*
X176672398Y-106146447D02*
X176100969Y-105575018D01*
X175743827Y-107860733D02*
X175672398Y-108003590D01*
X175672398Y-108003590D02*
X175672398Y-108289304D01*
X175672398Y-108289304D02*
X175743827Y-108432161D01*
X175743827Y-108432161D02*
X175886684Y-108503590D01*
X175886684Y-108503590D02*
X175958112Y-108503590D01*
X175958112Y-108503590D02*
X176100969Y-108432161D01*
X176100969Y-108432161D02*
X176172398Y-108289304D01*
X176172398Y-108289304D02*
X176172398Y-108075019D01*
X176172398Y-108075019D02*
X176243827Y-107932161D01*
X176243827Y-107932161D02*
X176386684Y-107860733D01*
X176386684Y-107860733D02*
X176458112Y-107860733D01*
X176458112Y-107860733D02*
X176600969Y-107932161D01*
X176600969Y-107932161D02*
X176672398Y-108075019D01*
X176672398Y-108075019D02*
X176672398Y-108289304D01*
X176672398Y-108289304D02*
X176600969Y-108432161D01*
X175672398Y-109146447D02*
X176672398Y-109146447D01*
X177172398Y-109146447D02*
X177100969Y-109075019D01*
X177100969Y-109075019D02*
X177029541Y-109146447D01*
X177029541Y-109146447D02*
X177100969Y-109217876D01*
X177100969Y-109217876D02*
X177172398Y-109146447D01*
X177172398Y-109146447D02*
X177029541Y-109146447D01*
X175672398Y-110503591D02*
X177172398Y-110503591D01*
X175743827Y-110503591D02*
X175672398Y-110360733D01*
X175672398Y-110360733D02*
X175672398Y-110075019D01*
X175672398Y-110075019D02*
X175743827Y-109932162D01*
X175743827Y-109932162D02*
X175815255Y-109860733D01*
X175815255Y-109860733D02*
X175958112Y-109789305D01*
X175958112Y-109789305D02*
X176386684Y-109789305D01*
X176386684Y-109789305D02*
X176529541Y-109860733D01*
X176529541Y-109860733D02*
X176600969Y-109932162D01*
X176600969Y-109932162D02*
X176672398Y-110075019D01*
X176672398Y-110075019D02*
X176672398Y-110360733D01*
X176672398Y-110360733D02*
X176600969Y-110503591D01*
X175743827Y-111789305D02*
X175672398Y-111646448D01*
X175672398Y-111646448D02*
X175672398Y-111360734D01*
X175672398Y-111360734D02*
X175743827Y-111217876D01*
X175743827Y-111217876D02*
X175886684Y-111146448D01*
X175886684Y-111146448D02*
X176458112Y-111146448D01*
X176458112Y-111146448D02*
X176600969Y-111217876D01*
X176600969Y-111217876D02*
X176672398Y-111360734D01*
X176672398Y-111360734D02*
X176672398Y-111646448D01*
X176672398Y-111646448D02*
X176600969Y-111789305D01*
X176600969Y-111789305D02*
X176458112Y-111860734D01*
X176458112Y-111860734D02*
X176315255Y-111860734D01*
X176315255Y-111860734D02*
X176172398Y-111146448D01*
D11*
X243355964Y-87599079D02*
X243355964Y-101799079D01*
X243355964Y-101799079D02*
X257555964Y-101799079D01*
X257555964Y-87599079D02*
X243355964Y-87599079D01*
X257555964Y-101799079D02*
X257555964Y-87599079D01*
X205355964Y-50599079D02*
X205355964Y-64799079D01*
X205355964Y-64799079D02*
X219555964Y-64799079D01*
X219555964Y-50599079D02*
X205355964Y-50599079D01*
X219555964Y-64799079D02*
X219555964Y-50599079D01*
X224355964Y-44599079D02*
X224355964Y-58799079D01*
X224355964Y-58799079D02*
X238555964Y-58799079D01*
X238555964Y-44599079D02*
X224355964Y-44599079D01*
X238555964Y-58799079D02*
X238555964Y-44599079D01*
X156096287Y-143582889D02*
X163621140Y-155625172D01*
X163621140Y-155625172D02*
X175663423Y-148100319D01*
X168138570Y-136058036D02*
X156096287Y-143582889D01*
X175663423Y-148100319D02*
X168138570Y-136058036D01*
X265445945Y-78622285D02*
X264208334Y-92768250D01*
X264208334Y-92768250D02*
X278354299Y-94005861D01*
X279591910Y-79859896D02*
X265445945Y-78622285D01*
X278354299Y-94005861D02*
X279591910Y-79859896D01*
X205355964Y-69599079D02*
X205355964Y-83799079D01*
X205355964Y-83799079D02*
X219555964Y-83799079D01*
X219555964Y-69599079D02*
X205355964Y-69599079D01*
X219555964Y-83799079D02*
X219555964Y-69599079D01*
X243355964Y-68599079D02*
X243355964Y-82799079D01*
X243355964Y-82799079D02*
X257555964Y-82799079D01*
X257555964Y-68599079D02*
X243355964Y-68599079D01*
X257555964Y-82799079D02*
X257555964Y-68599079D01*
X186355962Y-56599079D02*
X186355962Y-70799079D01*
X186355962Y-70799079D02*
X200555962Y-70799079D01*
X200555962Y-56599079D02*
X186355962Y-56599079D01*
X200555962Y-70799079D02*
X200555962Y-56599079D01*
X224355964Y-63599079D02*
X224355964Y-77799079D01*
X224355964Y-77799079D02*
X238555964Y-77799079D01*
X238555964Y-63599079D02*
X224355964Y-63599079D01*
X238555964Y-77799079D02*
X238555964Y-63599079D01*
X186355962Y-94599079D02*
X186355962Y-108799079D01*
X186355962Y-108799079D02*
X200555962Y-108799079D01*
X200555962Y-94599079D02*
X186355962Y-94599079D01*
X200555962Y-108799079D02*
X200555962Y-94599079D01*
X178038627Y-131502346D02*
X182661695Y-144928710D01*
X182661695Y-144928710D02*
X196088059Y-140305642D01*
X191464991Y-126879278D02*
X178038627Y-131502346D01*
X196088059Y-140305642D02*
X191464991Y-126879278D01*
X224355964Y-82599079D02*
X224355964Y-96799079D01*
X224355964Y-96799079D02*
X238555964Y-96799079D01*
X238555964Y-82599079D02*
X224355964Y-82599079D01*
X238555964Y-96799079D02*
X238555964Y-82599079D01*
X263797929Y-97619704D02*
X262560318Y-111765669D01*
X262560318Y-111765669D02*
X276706283Y-113003280D01*
X277943894Y-98857315D02*
X263797929Y-97619704D01*
X276706283Y-113003280D02*
X277943894Y-98857315D01*
X186355962Y-75599079D02*
X186355962Y-89799079D01*
X186355962Y-89799079D02*
X200555962Y-89799079D01*
X200555962Y-75599079D02*
X186355962Y-75599079D01*
X200555962Y-89799079D02*
X200555962Y-75599079D01*
X243355964Y-49599079D02*
X243355964Y-63799079D01*
X243355964Y-63799079D02*
X257555964Y-63799079D01*
X257555964Y-49599079D02*
X243355964Y-49599079D01*
X257555964Y-63799079D02*
X257555964Y-49599079D01*
X267055170Y-59716184D02*
X265817559Y-73862149D01*
X265817559Y-73862149D02*
X279963524Y-75099760D01*
X281201135Y-60953795D02*
X267055170Y-59716184D01*
X279963524Y-75099760D02*
X281201135Y-60953795D01*
X201657773Y-124429648D02*
X203142078Y-138551859D01*
X203142078Y-138551859D02*
X217264289Y-137067554D01*
X215779984Y-122945343D02*
X201657773Y-124429648D01*
X217264289Y-137067554D02*
X215779984Y-122945343D01*
X205355964Y-88599079D02*
X205355964Y-102799079D01*
X205355964Y-102799079D02*
X219555964Y-102799079D01*
X219555964Y-88599079D02*
X205355964Y-88599079D01*
X219555964Y-102799079D02*
X219555964Y-88599079D01*
%LPC*%
D12*
X245375964Y-94699079D03*
D13*
X246645964Y-92159079D03*
D14*
X250455964Y-94699079D03*
D13*
X252995964Y-89619079D03*
D12*
X255535964Y-94699079D03*
X207375964Y-57699079D03*
D13*
X208645964Y-55159079D03*
D14*
X212455964Y-57699079D03*
D13*
X214995964Y-52619079D03*
D12*
X217535964Y-57699079D03*
X226375964Y-51699079D03*
D13*
X227645964Y-49159079D03*
D14*
X231455964Y-51699079D03*
D13*
X233995964Y-46619079D03*
D12*
X236535964Y-51699079D03*
X161571771Y-148533594D03*
D13*
X161302797Y-145706554D03*
D14*
X165879855Y-145841604D03*
D13*
X165341907Y-140187525D03*
D12*
X170187939Y-143149614D03*
X266839453Y-85871322D03*
D13*
X268325996Y-83451675D03*
D14*
X271900122Y-86314073D03*
D13*
X274873208Y-81474780D03*
D12*
X276960791Y-86756824D03*
X207375964Y-76699079D03*
D13*
X208645964Y-74159079D03*
D14*
X212455964Y-76699079D03*
D13*
X214995964Y-71619079D03*
D12*
X217535964Y-76699079D03*
X245375964Y-75699079D03*
D13*
X246645964Y-73159079D03*
D14*
X250455964Y-75699079D03*
D13*
X252995964Y-70619079D03*
D12*
X255535964Y-75699079D03*
X188375962Y-63699079D03*
D13*
X189645962Y-61159079D03*
D14*
X193455962Y-63699079D03*
D13*
X195995962Y-58619079D03*
D12*
X198535962Y-63699079D03*
X226375964Y-70699079D03*
D13*
X227645964Y-68159079D03*
D14*
X231455964Y-70699079D03*
D13*
X233995964Y-65619079D03*
D12*
X236535964Y-70699079D03*
X188375962Y-101699079D03*
D13*
X189645962Y-99159079D03*
D14*
X193455962Y-101699079D03*
D13*
X195995962Y-96619079D03*
D12*
X198535962Y-101699079D03*
X182260109Y-137557880D03*
D13*
X182633974Y-134742791D03*
D14*
X187063343Y-135903994D03*
D13*
X187811074Y-130273817D03*
D12*
X191866577Y-134250108D03*
X226375964Y-89699079D03*
D13*
X227645964Y-87159079D03*
D14*
X231455964Y-89699079D03*
D13*
X233995964Y-84619079D03*
D12*
X236535964Y-89699079D03*
X265191437Y-104868741D03*
D13*
X266677980Y-102449094D03*
D14*
X270252106Y-105311492D03*
D13*
X273225192Y-100472199D03*
D12*
X275312775Y-105754243D03*
X188375962Y-82699079D03*
D13*
X189645962Y-80159079D03*
D14*
X193455962Y-82699079D03*
D13*
X195995962Y-77619079D03*
D12*
X198535962Y-82699079D03*
X245375964Y-56699079D03*
D13*
X246645964Y-54159079D03*
D14*
X250455964Y-56699079D03*
D13*
X252995964Y-51619079D03*
D12*
X255535964Y-56699079D03*
X268448678Y-66965221D03*
D13*
X269935221Y-64545574D03*
D14*
X273509347Y-67407972D03*
D13*
X276482433Y-62568679D03*
D12*
X278570016Y-67850723D03*
X204408860Y-131279606D03*
D13*
X205406400Y-128620769D03*
D14*
X209461031Y-130748601D03*
D13*
X211456112Y-125430927D03*
D12*
X214513202Y-130217596D03*
X207375964Y-95699079D03*
D13*
X208645964Y-93159079D03*
D14*
X212455964Y-95699079D03*
D13*
X214995964Y-90619079D03*
D12*
X217535964Y-95699079D03*
D15*
X201723227Y-66699079D03*
D16*
X201723227Y-60699079D03*
D15*
X220723227Y-98699079D03*
D16*
X220723227Y-92699079D03*
D15*
X258723227Y-59695448D03*
D16*
X258723227Y-53695448D03*
D15*
X201523227Y-85699079D03*
D16*
X201523227Y-79699079D03*
D15*
X258723227Y-78695448D03*
D16*
X258723227Y-72695448D03*
D15*
X201123227Y-104699079D03*
D16*
X201123227Y-98699079D03*
D17*
X217992546Y-132868428D03*
D18*
X217365376Y-126901296D03*
D19*
X278189688Y-109017399D03*
D20*
X278712622Y-103040231D03*
D19*
X281431367Y-71112518D03*
D20*
X281954301Y-65135350D03*
D21*
X195784455Y-136073937D03*
D22*
X193831047Y-130400825D03*
D15*
X220723227Y-79695448D03*
D16*
X220723227Y-73695448D03*
D19*
X279938688Y-90028816D03*
D20*
X280461622Y-84051648D03*
D15*
X220723227Y-60699079D03*
D16*
X220723227Y-54699079D03*
D23*
X181275976Y-124000000D03*
D24*
X181275976Y-120000000D03*
X181275976Y-116000000D03*
X181275976Y-112000000D03*
X181275976Y-108000000D03*
X181275976Y-104000000D03*
X181275976Y-100000000D03*
X181275976Y-96000000D03*
X181275976Y-92000000D03*
D15*
X239723227Y-73699079D03*
D16*
X239723227Y-67699079D03*
D25*
X174612914Y-143922118D03*
D26*
X171433398Y-138833830D03*
D15*
X239723227Y-54699079D03*
D16*
X239723227Y-48699079D03*
D15*
X239723227Y-92699079D03*
D16*
X239723227Y-86699079D03*
D15*
X258723227Y-97699079D03*
D16*
X258723227Y-91699079D03*
%LPD*%
M02*
