M48
; DRILL file {KiCad 7.0.7} date Thu Nov 23 18:27:26 2023
; FORMAT={-:-/ absolute / metric / decimal}
; #@! TF.CreationDate,2023-11-23T18:27:26-07:00
; #@! TF.GenerationSoftware,Kicad,Pcbnew,7.0.7
; #@! TF.FileFunction,NonPlated,1,2,NPTH
FMAT,2
METRIC
; #@! TA.AperFunction,NonPlated,NPTH,ComponentDrill
T1C1.750
; #@! TA.AperFunction,NonPlated,NPTH,ComponentDrill
T2C4.000
%
G90
G05
T1
X161.572Y-148.534
X170.188Y-143.15
X182.26Y-137.558
X188.376Y-63.699
X188.376Y-82.699
X188.376Y-101.699
X191.867Y-134.25
X198.536Y-63.699
X198.536Y-82.699
X198.536Y-101.699
X204.409Y-131.28
X207.376Y-57.699
X207.376Y-76.699
X207.376Y-95.699
X214.513Y-130.218
X217.536Y-57.699
X217.536Y-76.699
X217.536Y-95.699
X226.376Y-51.699
X226.376Y-70.699
X226.376Y-89.699
X236.536Y-51.699
X236.536Y-70.699
X236.536Y-89.699
X245.376Y-56.699
X245.376Y-75.699
X245.376Y-94.699
X255.536Y-56.699
X255.536Y-75.699
X255.536Y-94.699
X265.191Y-104.869
X266.839Y-85.871
X268.449Y-66.965
X275.313Y-105.754
X276.961Y-86.757
X278.57Y-67.851
T2
X165.88Y-145.842
X187.063Y-135.904
X193.456Y-63.699
X193.456Y-82.699
X193.456Y-101.699
X209.461Y-130.749
X212.456Y-57.699
X212.456Y-76.699
X212.456Y-95.699
X231.456Y-51.699
X231.456Y-70.699
X231.456Y-89.699
X250.456Y-56.699
X250.456Y-75.699
X250.456Y-94.699
X270.252Y-105.311
X271.9Y-86.314
X273.509Y-67.408
T0
M30
