%TF.GenerationSoftware,KiCad,Pcbnew,7.0.7*%
%TF.CreationDate,2023-11-23T18:27:24-07:00*%
%TF.ProjectId,TypeStationX - Right,54797065-5374-4617-9469-6f6e58202d20,rev?*%
%TF.SameCoordinates,Original*%
%TF.FileFunction,Legend,Top*%
%TF.FilePolarity,Positive*%
%FSLAX46Y46*%
G04 Gerber Fmt 4.6, Leading zero omitted, Abs format (unit mm)*
G04 Created by KiCad (PCBNEW 7.0.7) date 2023-11-23 18:27:24*
%MOMM*%
%LPD*%
G01*
G04 APERTURE LIST*
%ADD10C,0.300000*%
%ADD11C,0.120000*%
G04 APERTURE END LIST*
D10*
X178087398Y-97503589D02*
X179587398Y-97503589D01*
X179587398Y-97503589D02*
X179587398Y-98075018D01*
X179587398Y-98075018D02*
X179515969Y-98217875D01*
X179515969Y-98217875D02*
X179444541Y-98289304D01*
X179444541Y-98289304D02*
X179301684Y-98360732D01*
X179301684Y-98360732D02*
X179087398Y-98360732D01*
X179087398Y-98360732D02*
X178944541Y-98289304D01*
X178944541Y-98289304D02*
X178873112Y-98217875D01*
X178873112Y-98217875D02*
X178801684Y-98075018D01*
X178801684Y-98075018D02*
X178801684Y-97503589D01*
X178158827Y-98932161D02*
X178087398Y-99146447D01*
X178087398Y-99146447D02*
X178087398Y-99503589D01*
X178087398Y-99503589D02*
X178158827Y-99646447D01*
X178158827Y-99646447D02*
X178230255Y-99717875D01*
X178230255Y-99717875D02*
X178373112Y-99789304D01*
X178373112Y-99789304D02*
X178515969Y-99789304D01*
X178515969Y-99789304D02*
X178658827Y-99717875D01*
X178658827Y-99717875D02*
X178730255Y-99646447D01*
X178730255Y-99646447D02*
X178801684Y-99503589D01*
X178801684Y-99503589D02*
X178873112Y-99217875D01*
X178873112Y-99217875D02*
X178944541Y-99075018D01*
X178944541Y-99075018D02*
X179015969Y-99003589D01*
X179015969Y-99003589D02*
X179158827Y-98932161D01*
X179158827Y-98932161D02*
X179301684Y-98932161D01*
X179301684Y-98932161D02*
X179444541Y-99003589D01*
X179444541Y-99003589D02*
X179515969Y-99075018D01*
X179515969Y-99075018D02*
X179587398Y-99217875D01*
X179587398Y-99217875D02*
X179587398Y-99575018D01*
X179587398Y-99575018D02*
X179515969Y-99789304D01*
X179444541Y-100360732D02*
X179515969Y-100432160D01*
X179515969Y-100432160D02*
X179587398Y-100575018D01*
X179587398Y-100575018D02*
X179587398Y-100932160D01*
X179587398Y-100932160D02*
X179515969Y-101075018D01*
X179515969Y-101075018D02*
X179444541Y-101146446D01*
X179444541Y-101146446D02*
X179301684Y-101217875D01*
X179301684Y-101217875D02*
X179158827Y-101217875D01*
X179158827Y-101217875D02*
X178944541Y-101146446D01*
X178944541Y-101146446D02*
X178087398Y-100289303D01*
X178087398Y-100289303D02*
X178087398Y-101217875D01*
X178873112Y-103503588D02*
X178873112Y-103003588D01*
X178087398Y-103003588D02*
X179587398Y-103003588D01*
X179587398Y-103003588D02*
X179587398Y-103717874D01*
X178158827Y-104860731D02*
X178087398Y-104717874D01*
X178087398Y-104717874D02*
X178087398Y-104432160D01*
X178087398Y-104432160D02*
X178158827Y-104289302D01*
X178158827Y-104289302D02*
X178301684Y-104217874D01*
X178301684Y-104217874D02*
X178873112Y-104217874D01*
X178873112Y-104217874D02*
X179015969Y-104289302D01*
X179015969Y-104289302D02*
X179087398Y-104432160D01*
X179087398Y-104432160D02*
X179087398Y-104717874D01*
X179087398Y-104717874D02*
X179015969Y-104860731D01*
X179015969Y-104860731D02*
X178873112Y-104932160D01*
X178873112Y-104932160D02*
X178730255Y-104932160D01*
X178730255Y-104932160D02*
X178587398Y-104217874D01*
X178087398Y-105575016D02*
X179087398Y-105575016D01*
X178944541Y-105575016D02*
X179015969Y-105646445D01*
X179015969Y-105646445D02*
X179087398Y-105789302D01*
X179087398Y-105789302D02*
X179087398Y-106003588D01*
X179087398Y-106003588D02*
X179015969Y-106146445D01*
X179015969Y-106146445D02*
X178873112Y-106217874D01*
X178873112Y-106217874D02*
X178087398Y-106217874D01*
X178873112Y-106217874D02*
X179015969Y-106289302D01*
X179015969Y-106289302D02*
X179087398Y-106432159D01*
X179087398Y-106432159D02*
X179087398Y-106646445D01*
X179087398Y-106646445D02*
X179015969Y-106789302D01*
X179015969Y-106789302D02*
X178873112Y-106860731D01*
X178873112Y-106860731D02*
X178087398Y-106860731D01*
X178087398Y-108217874D02*
X178873112Y-108217874D01*
X178873112Y-108217874D02*
X179015969Y-108146445D01*
X179015969Y-108146445D02*
X179087398Y-108003588D01*
X179087398Y-108003588D02*
X179087398Y-107717874D01*
X179087398Y-107717874D02*
X179015969Y-107575016D01*
X178158827Y-108217874D02*
X178087398Y-108075016D01*
X178087398Y-108075016D02*
X178087398Y-107717874D01*
X178087398Y-107717874D02*
X178158827Y-107575016D01*
X178158827Y-107575016D02*
X178301684Y-107503588D01*
X178301684Y-107503588D02*
X178444541Y-107503588D01*
X178444541Y-107503588D02*
X178587398Y-107575016D01*
X178587398Y-107575016D02*
X178658827Y-107717874D01*
X178658827Y-107717874D02*
X178658827Y-108075016D01*
X178658827Y-108075016D02*
X178730255Y-108217874D01*
X178087398Y-109146445D02*
X178158827Y-109003588D01*
X178158827Y-109003588D02*
X178301684Y-108932159D01*
X178301684Y-108932159D02*
X179587398Y-108932159D01*
X178158827Y-110289302D02*
X178087398Y-110146445D01*
X178087398Y-110146445D02*
X178087398Y-109860731D01*
X178087398Y-109860731D02*
X178158827Y-109717873D01*
X178158827Y-109717873D02*
X178301684Y-109646445D01*
X178301684Y-109646445D02*
X178873112Y-109646445D01*
X178873112Y-109646445D02*
X179015969Y-109717873D01*
X179015969Y-109717873D02*
X179087398Y-109860731D01*
X179087398Y-109860731D02*
X179087398Y-110146445D01*
X179087398Y-110146445D02*
X179015969Y-110289302D01*
X179015969Y-110289302D02*
X178873112Y-110360731D01*
X178873112Y-110360731D02*
X178730255Y-110360731D01*
X178730255Y-110360731D02*
X178587398Y-109646445D01*
X178158827Y-112789302D02*
X178087398Y-112646444D01*
X178087398Y-112646444D02*
X178087398Y-112360730D01*
X178087398Y-112360730D02*
X178158827Y-112217873D01*
X178158827Y-112217873D02*
X178230255Y-112146444D01*
X178230255Y-112146444D02*
X178373112Y-112075016D01*
X178373112Y-112075016D02*
X178801684Y-112075016D01*
X178801684Y-112075016D02*
X178944541Y-112146444D01*
X178944541Y-112146444D02*
X179015969Y-112217873D01*
X179015969Y-112217873D02*
X179087398Y-112360730D01*
X179087398Y-112360730D02*
X179087398Y-112646444D01*
X179087398Y-112646444D02*
X179015969Y-112789302D01*
X178087398Y-113646444D02*
X178158827Y-113503587D01*
X178158827Y-113503587D02*
X178230255Y-113432158D01*
X178230255Y-113432158D02*
X178373112Y-113360730D01*
X178373112Y-113360730D02*
X178801684Y-113360730D01*
X178801684Y-113360730D02*
X178944541Y-113432158D01*
X178944541Y-113432158D02*
X179015969Y-113503587D01*
X179015969Y-113503587D02*
X179087398Y-113646444D01*
X179087398Y-113646444D02*
X179087398Y-113860730D01*
X179087398Y-113860730D02*
X179015969Y-114003587D01*
X179015969Y-114003587D02*
X178944541Y-114075016D01*
X178944541Y-114075016D02*
X178801684Y-114146444D01*
X178801684Y-114146444D02*
X178373112Y-114146444D01*
X178373112Y-114146444D02*
X178230255Y-114075016D01*
X178230255Y-114075016D02*
X178158827Y-114003587D01*
X178158827Y-114003587D02*
X178087398Y-113860730D01*
X178087398Y-113860730D02*
X178087398Y-113646444D01*
X179087398Y-114789301D02*
X178087398Y-114789301D01*
X178944541Y-114789301D02*
X179015969Y-114860730D01*
X179015969Y-114860730D02*
X179087398Y-115003587D01*
X179087398Y-115003587D02*
X179087398Y-115217873D01*
X179087398Y-115217873D02*
X179015969Y-115360730D01*
X179015969Y-115360730D02*
X178873112Y-115432159D01*
X178873112Y-115432159D02*
X178087398Y-115432159D01*
X179087398Y-116146444D02*
X178087398Y-116146444D01*
X178944541Y-116146444D02*
X179015969Y-116217873D01*
X179015969Y-116217873D02*
X179087398Y-116360730D01*
X179087398Y-116360730D02*
X179087398Y-116575016D01*
X179087398Y-116575016D02*
X179015969Y-116717873D01*
X179015969Y-116717873D02*
X178873112Y-116789302D01*
X178873112Y-116789302D02*
X178087398Y-116789302D01*
X178158827Y-118075016D02*
X178087398Y-117932159D01*
X178087398Y-117932159D02*
X178087398Y-117646445D01*
X178087398Y-117646445D02*
X178158827Y-117503587D01*
X178158827Y-117503587D02*
X178301684Y-117432159D01*
X178301684Y-117432159D02*
X178873112Y-117432159D01*
X178873112Y-117432159D02*
X179015969Y-117503587D01*
X179015969Y-117503587D02*
X179087398Y-117646445D01*
X179087398Y-117646445D02*
X179087398Y-117932159D01*
X179087398Y-117932159D02*
X179015969Y-118075016D01*
X179015969Y-118075016D02*
X178873112Y-118146445D01*
X178873112Y-118146445D02*
X178730255Y-118146445D01*
X178730255Y-118146445D02*
X178587398Y-117432159D01*
X178158827Y-119432159D02*
X178087398Y-119289301D01*
X178087398Y-119289301D02*
X178087398Y-119003587D01*
X178087398Y-119003587D02*
X178158827Y-118860730D01*
X178158827Y-118860730D02*
X178230255Y-118789301D01*
X178230255Y-118789301D02*
X178373112Y-118717873D01*
X178373112Y-118717873D02*
X178801684Y-118717873D01*
X178801684Y-118717873D02*
X178944541Y-118789301D01*
X178944541Y-118789301D02*
X179015969Y-118860730D01*
X179015969Y-118860730D02*
X179087398Y-119003587D01*
X179087398Y-119003587D02*
X179087398Y-119289301D01*
X179087398Y-119289301D02*
X179015969Y-119432159D01*
X179087398Y-119860730D02*
X179087398Y-120432158D01*
X179587398Y-120075015D02*
X178301684Y-120075015D01*
X178301684Y-120075015D02*
X178158827Y-120146444D01*
X178158827Y-120146444D02*
X178087398Y-120289301D01*
X178087398Y-120289301D02*
X178087398Y-120432158D01*
X178087398Y-121146444D02*
X178158827Y-121003587D01*
X178158827Y-121003587D02*
X178230255Y-120932158D01*
X178230255Y-120932158D02*
X178373112Y-120860730D01*
X178373112Y-120860730D02*
X178801684Y-120860730D01*
X178801684Y-120860730D02*
X178944541Y-120932158D01*
X178944541Y-120932158D02*
X179015969Y-121003587D01*
X179015969Y-121003587D02*
X179087398Y-121146444D01*
X179087398Y-121146444D02*
X179087398Y-121360730D01*
X179087398Y-121360730D02*
X179015969Y-121503587D01*
X179015969Y-121503587D02*
X178944541Y-121575016D01*
X178944541Y-121575016D02*
X178801684Y-121646444D01*
X178801684Y-121646444D02*
X178373112Y-121646444D01*
X178373112Y-121646444D02*
X178230255Y-121575016D01*
X178230255Y-121575016D02*
X178158827Y-121503587D01*
X178158827Y-121503587D02*
X178087398Y-121360730D01*
X178087398Y-121360730D02*
X178087398Y-121146444D01*
X178087398Y-122289301D02*
X179087398Y-122289301D01*
X178801684Y-122289301D02*
X178944541Y-122360730D01*
X178944541Y-122360730D02*
X179015969Y-122432159D01*
X179015969Y-122432159D02*
X179087398Y-122575016D01*
X179087398Y-122575016D02*
X179087398Y-122717873D01*
X177172398Y-97789304D02*
X177172398Y-98075018D01*
X177172398Y-98075018D02*
X177100969Y-98217875D01*
X177100969Y-98217875D02*
X176958112Y-98360732D01*
X176958112Y-98360732D02*
X176672398Y-98432161D01*
X176672398Y-98432161D02*
X176172398Y-98432161D01*
X176172398Y-98432161D02*
X175886684Y-98360732D01*
X175886684Y-98360732D02*
X175743827Y-98217875D01*
X175743827Y-98217875D02*
X175672398Y-98075018D01*
X175672398Y-98075018D02*
X175672398Y-97789304D01*
X175672398Y-97789304D02*
X175743827Y-97646447D01*
X175743827Y-97646447D02*
X175886684Y-97503589D01*
X175886684Y-97503589D02*
X176172398Y-97432161D01*
X176172398Y-97432161D02*
X176672398Y-97432161D01*
X176672398Y-97432161D02*
X176958112Y-97503589D01*
X176958112Y-97503589D02*
X177100969Y-97646447D01*
X177100969Y-97646447D02*
X177172398Y-97789304D01*
X176672398Y-99075018D02*
X175672398Y-99075018D01*
X176529541Y-99075018D02*
X176600969Y-99146447D01*
X176600969Y-99146447D02*
X176672398Y-99289304D01*
X176672398Y-99289304D02*
X176672398Y-99503590D01*
X176672398Y-99503590D02*
X176600969Y-99646447D01*
X176600969Y-99646447D02*
X176458112Y-99717876D01*
X176458112Y-99717876D02*
X175672398Y-99717876D01*
X175672398Y-101575018D02*
X177172398Y-101575018D01*
X176600969Y-101575018D02*
X176672398Y-101717876D01*
X176672398Y-101717876D02*
X176672398Y-102003590D01*
X176672398Y-102003590D02*
X176600969Y-102146447D01*
X176600969Y-102146447D02*
X176529541Y-102217876D01*
X176529541Y-102217876D02*
X176386684Y-102289304D01*
X176386684Y-102289304D02*
X175958112Y-102289304D01*
X175958112Y-102289304D02*
X175815255Y-102217876D01*
X175815255Y-102217876D02*
X175743827Y-102146447D01*
X175743827Y-102146447D02*
X175672398Y-102003590D01*
X175672398Y-102003590D02*
X175672398Y-101717876D01*
X175672398Y-101717876D02*
X175743827Y-101575018D01*
X175672398Y-103575019D02*
X176458112Y-103575019D01*
X176458112Y-103575019D02*
X176600969Y-103503590D01*
X176600969Y-103503590D02*
X176672398Y-103360733D01*
X176672398Y-103360733D02*
X176672398Y-103075019D01*
X176672398Y-103075019D02*
X176600969Y-102932161D01*
X175743827Y-103575019D02*
X175672398Y-103432161D01*
X175672398Y-103432161D02*
X175672398Y-103075019D01*
X175672398Y-103075019D02*
X175743827Y-102932161D01*
X175743827Y-102932161D02*
X175886684Y-102860733D01*
X175886684Y-102860733D02*
X176029541Y-102860733D01*
X176029541Y-102860733D02*
X176172398Y-102932161D01*
X176172398Y-102932161D02*
X176243827Y-103075019D01*
X176243827Y-103075019D02*
X176243827Y-103432161D01*
X176243827Y-103432161D02*
X176315255Y-103575019D01*
X175743827Y-104932162D02*
X175672398Y-104789304D01*
X175672398Y-104789304D02*
X175672398Y-104503590D01*
X175672398Y-104503590D02*
X175743827Y-104360733D01*
X175743827Y-104360733D02*
X175815255Y-104289304D01*
X175815255Y-104289304D02*
X175958112Y-104217876D01*
X175958112Y-104217876D02*
X176386684Y-104217876D01*
X176386684Y-104217876D02*
X176529541Y-104289304D01*
X176529541Y-104289304D02*
X176600969Y-104360733D01*
X176600969Y-104360733D02*
X176672398Y-104503590D01*
X176672398Y-104503590D02*
X176672398Y-104789304D01*
X176672398Y-104789304D02*
X176600969Y-104932162D01*
X175672398Y-105575018D02*
X177172398Y-105575018D01*
X176243827Y-105717876D02*
X175672398Y-106146447D01*
X176672398Y-106146447D02*
X176100969Y-105575018D01*
X175743827Y-107860733D02*
X175672398Y-108003590D01*
X175672398Y-108003590D02*
X175672398Y-108289304D01*
X175672398Y-108289304D02*
X175743827Y-108432161D01*
X175743827Y-108432161D02*
X175886684Y-108503590D01*
X175886684Y-108503590D02*
X175958112Y-108503590D01*
X175958112Y-108503590D02*
X176100969Y-108432161D01*
X176100969Y-108432161D02*
X176172398Y-108289304D01*
X176172398Y-108289304D02*
X176172398Y-108075019D01*
X176172398Y-108075019D02*
X176243827Y-107932161D01*
X176243827Y-107932161D02*
X176386684Y-107860733D01*
X176386684Y-107860733D02*
X176458112Y-107860733D01*
X176458112Y-107860733D02*
X176600969Y-107932161D01*
X176600969Y-107932161D02*
X176672398Y-108075019D01*
X176672398Y-108075019D02*
X176672398Y-108289304D01*
X176672398Y-108289304D02*
X176600969Y-108432161D01*
X175672398Y-109146447D02*
X176672398Y-109146447D01*
X177172398Y-109146447D02*
X177100969Y-109075019D01*
X177100969Y-109075019D02*
X177029541Y-109146447D01*
X177029541Y-109146447D02*
X177100969Y-109217876D01*
X177100969Y-109217876D02*
X177172398Y-109146447D01*
X177172398Y-109146447D02*
X177029541Y-109146447D01*
X175672398Y-110503591D02*
X177172398Y-110503591D01*
X175743827Y-110503591D02*
X175672398Y-110360733D01*
X175672398Y-110360733D02*
X175672398Y-110075019D01*
X175672398Y-110075019D02*
X175743827Y-109932162D01*
X175743827Y-109932162D02*
X175815255Y-109860733D01*
X175815255Y-109860733D02*
X175958112Y-109789305D01*
X175958112Y-109789305D02*
X176386684Y-109789305D01*
X176386684Y-109789305D02*
X176529541Y-109860733D01*
X176529541Y-109860733D02*
X176600969Y-109932162D01*
X176600969Y-109932162D02*
X176672398Y-110075019D01*
X176672398Y-110075019D02*
X176672398Y-110360733D01*
X176672398Y-110360733D02*
X176600969Y-110503591D01*
X175743827Y-111789305D02*
X175672398Y-111646448D01*
X175672398Y-111646448D02*
X175672398Y-111360734D01*
X175672398Y-111360734D02*
X175743827Y-111217876D01*
X175743827Y-111217876D02*
X175886684Y-111146448D01*
X175886684Y-111146448D02*
X176458112Y-111146448D01*
X176458112Y-111146448D02*
X176600969Y-111217876D01*
X176600969Y-111217876D02*
X176672398Y-111360734D01*
X176672398Y-111360734D02*
X176672398Y-111646448D01*
X176672398Y-111646448D02*
X176600969Y-111789305D01*
X176600969Y-111789305D02*
X176458112Y-111860734D01*
X176458112Y-111860734D02*
X176315255Y-111860734D01*
X176315255Y-111860734D02*
X176172398Y-111146448D01*
D11*
%TO.C,S31*%
X243355964Y-87599079D02*
X243355964Y-101799079D01*
X243355964Y-101799079D02*
X257555964Y-101799079D01*
X257555964Y-87599079D02*
X243355964Y-87599079D01*
X257555964Y-101799079D02*
X257555964Y-87599079D01*
%TO.C,S22*%
X205355964Y-50599079D02*
X205355964Y-64799079D01*
X205355964Y-64799079D02*
X219555964Y-64799079D01*
X219555964Y-50599079D02*
X205355964Y-50599079D01*
X219555964Y-64799079D02*
X219555964Y-50599079D01*
%TO.C,S25*%
X224355964Y-44599079D02*
X224355964Y-58799079D01*
X224355964Y-58799079D02*
X238555964Y-58799079D01*
X238555964Y-44599079D02*
X224355964Y-44599079D01*
X238555964Y-58799079D02*
X238555964Y-44599079D01*
%TO.C,S28*%
X156096287Y-143582889D02*
X163621140Y-155625172D01*
X163621140Y-155625172D02*
X175663423Y-148100319D01*
X168138570Y-136058036D02*
X156096287Y-143582889D01*
X175663423Y-148100319D02*
X168138570Y-136058036D01*
%TO.C,S34*%
X265445945Y-78622285D02*
X264208334Y-92768250D01*
X264208334Y-92768250D02*
X278354299Y-94005861D01*
X279591910Y-79859896D02*
X265445945Y-78622285D01*
X278354299Y-94005861D02*
X279591910Y-79859896D01*
%TO.C,S23*%
X205355964Y-69599079D02*
X205355964Y-83799079D01*
X205355964Y-83799079D02*
X219555964Y-83799079D01*
X219555964Y-69599079D02*
X205355964Y-69599079D01*
X219555964Y-83799079D02*
X219555964Y-69599079D01*
%TO.C,S30*%
X243355964Y-68599079D02*
X243355964Y-82799079D01*
X243355964Y-82799079D02*
X257555964Y-82799079D01*
X257555964Y-68599079D02*
X243355964Y-68599079D01*
X257555964Y-82799079D02*
X257555964Y-68599079D01*
%TO.C,S19*%
X186355962Y-56599079D02*
X186355962Y-70799079D01*
X186355962Y-70799079D02*
X200555962Y-70799079D01*
X200555962Y-56599079D02*
X186355962Y-56599079D01*
X200555962Y-70799079D02*
X200555962Y-56599079D01*
%TO.C,S26*%
X224355964Y-63599079D02*
X224355964Y-77799079D01*
X224355964Y-77799079D02*
X238555964Y-77799079D01*
X238555964Y-63599079D02*
X224355964Y-63599079D01*
X238555964Y-77799079D02*
X238555964Y-63599079D01*
%TO.C,S21*%
X186355962Y-94599079D02*
X186355962Y-108799079D01*
X186355962Y-108799079D02*
X200555962Y-108799079D01*
X200555962Y-94599079D02*
X186355962Y-94599079D01*
X200555962Y-108799079D02*
X200555962Y-94599079D01*
%TO.C,S32*%
X178038627Y-131502346D02*
X182661695Y-144928710D01*
X182661695Y-144928710D02*
X196088059Y-140305642D01*
X191464991Y-126879278D02*
X178038627Y-131502346D01*
X196088059Y-140305642D02*
X191464991Y-126879278D01*
%TO.C,S27*%
X224355964Y-82599079D02*
X224355964Y-96799079D01*
X224355964Y-96799079D02*
X238555964Y-96799079D01*
X238555964Y-82599079D02*
X224355964Y-82599079D01*
X238555964Y-96799079D02*
X238555964Y-82599079D01*
%TO.C,S35*%
X263797929Y-97619704D02*
X262560318Y-111765669D01*
X262560318Y-111765669D02*
X276706283Y-113003280D01*
X277943894Y-98857315D02*
X263797929Y-97619704D01*
X276706283Y-113003280D02*
X277943894Y-98857315D01*
%TO.C,S20*%
X186355962Y-75599079D02*
X186355962Y-89799079D01*
X186355962Y-89799079D02*
X200555962Y-89799079D01*
X200555962Y-75599079D02*
X186355962Y-75599079D01*
X200555962Y-89799079D02*
X200555962Y-75599079D01*
%TO.C,S29*%
X243355964Y-49599079D02*
X243355964Y-63799079D01*
X243355964Y-63799079D02*
X257555964Y-63799079D01*
X257555964Y-49599079D02*
X243355964Y-49599079D01*
X257555964Y-63799079D02*
X257555964Y-49599079D01*
%TO.C,S33*%
X267055170Y-59716184D02*
X265817559Y-73862149D01*
X265817559Y-73862149D02*
X279963524Y-75099760D01*
X281201135Y-60953795D02*
X267055170Y-59716184D01*
X279963524Y-75099760D02*
X281201135Y-60953795D01*
%TO.C,S36*%
X201657773Y-124429648D02*
X203142078Y-138551859D01*
X203142078Y-138551859D02*
X217264289Y-137067554D01*
X215779984Y-122945343D02*
X201657773Y-124429648D01*
X217264289Y-137067554D02*
X215779984Y-122945343D01*
%TO.C,S24*%
X205355964Y-88599079D02*
X205355964Y-102799079D01*
X205355964Y-102799079D02*
X219555964Y-102799079D01*
X219555964Y-88599079D02*
X205355964Y-88599079D01*
X219555964Y-102799079D02*
X219555964Y-88599079D01*
%TD*%
M02*
