G04 #@! TF.GenerationSoftware,KiCad,Pcbnew,7.0.7*
G04 #@! TF.CreationDate,2023-11-26T11:09:42-07:00*
G04 #@! TF.ProjectId,TypeStationX,54797065-5374-4617-9469-6f6e582e6b69,rev?*
G04 #@! TF.SameCoordinates,Original*
G04 #@! TF.FileFunction,Copper,L2,Bot*
G04 #@! TF.FilePolarity,Positive*
%FSLAX46Y46*%
G04 Gerber Fmt 4.6, Leading zero omitted, Abs format (unit mm)*
G04 Created by KiCad (PCBNEW 7.0.7) date 2023-11-26 11:09:42*
%MOMM*%
%LPD*%
G01*
G04 APERTURE LIST*
G04 Aperture macros list*
%AMHorizOval*
0 Thick line with rounded ends*
0 $1 width*
0 $2 $3 position (X,Y) of the first rounded end (center of the circle)*
0 $4 $5 position (X,Y) of the second rounded end (center of the circle)*
0 Add line between two ends*
20,1,$1,$2,$3,$4,$5,0*
0 Add two circle primitives to create the rounded ends*
1,1,$1,$2,$3*
1,1,$1,$4,$5*%
%AMRotRect*
0 Rectangle, with rotation*
0 The origin of the aperture is its center*
0 $1 length*
0 $2 width*
0 $3 Rotation angle, in degrees counterclockwise*
0 Add horizontal line*
21,1,$1,$2,0,0,$3*%
G04 Aperture macros list end*
G04 #@! TA.AperFunction,ComponentPad*
%ADD10C,2.500000*%
G04 #@! TD*
G04 #@! TA.AperFunction,ComponentPad*
%ADD11R,1.300000X1.778000*%
G04 #@! TD*
G04 #@! TA.AperFunction,SMDPad,CuDef*
%ADD12R,1.300000X1.400000*%
G04 #@! TD*
G04 #@! TA.AperFunction,ComponentPad*
%ADD13O,1.300000X1.778000*%
G04 #@! TD*
G04 #@! TA.AperFunction,ComponentPad*
%ADD14RotRect,1.778000X1.300000X96.000000*%
G04 #@! TD*
G04 #@! TA.AperFunction,SMDPad,CuDef*
%ADD15RotRect,1.400000X1.300000X276.000000*%
G04 #@! TD*
G04 #@! TA.AperFunction,ComponentPad*
%ADD16HorizOval,1.300000X-0.024982X0.237691X0.024982X-0.237691X0*%
G04 #@! TD*
G04 #@! TA.AperFunction,ComponentPad*
%ADD17RotRect,1.778000X1.300000X85.000000*%
G04 #@! TD*
G04 #@! TA.AperFunction,SMDPad,CuDef*
%ADD18RotRect,1.400000X1.300000X265.000000*%
G04 #@! TD*
G04 #@! TA.AperFunction,ComponentPad*
%ADD19HorizOval,1.300000X0.020830X0.238091X-0.020830X-0.238091X0*%
G04 #@! TD*
G04 #@! TA.AperFunction,ComponentPad*
%ADD20RotRect,1.778000X1.300000X109.000000*%
G04 #@! TD*
G04 #@! TA.AperFunction,SMDPad,CuDef*
%ADD21RotRect,1.400000X1.300000X289.000000*%
G04 #@! TD*
G04 #@! TA.AperFunction,ComponentPad*
%ADD22HorizOval,1.300000X-0.077811X0.225979X0.077811X-0.225979X0*%
G04 #@! TD*
G04 #@! TA.AperFunction,ComponentPad*
%ADD23R,1.700000X1.700000*%
G04 #@! TD*
G04 #@! TA.AperFunction,ComponentPad*
%ADD24O,1.700000X1.700000*%
G04 #@! TD*
G04 #@! TA.AperFunction,ComponentPad*
%ADD25RotRect,1.778000X1.300000X122.000000*%
G04 #@! TD*
G04 #@! TA.AperFunction,SMDPad,CuDef*
%ADD26RotRect,1.400000X1.300000X302.000000*%
G04 #@! TD*
G04 #@! TA.AperFunction,ComponentPad*
%ADD27HorizOval,1.300000X-0.126651X0.202683X0.126651X-0.202683X0*%
G04 #@! TD*
G04 #@! TA.AperFunction,ViaPad*
%ADD28C,0.800000*%
G04 #@! TD*
G04 #@! TA.AperFunction,Conductor*
%ADD29C,0.250000*%
G04 #@! TD*
G04 APERTURE END LIST*
D10*
X246645964Y-92159079D03*
X252995964Y-89619079D03*
X208645964Y-55159079D03*
X214995964Y-52619079D03*
X227645964Y-49159079D03*
X233995964Y-46619079D03*
X161302797Y-145706554D03*
X165341907Y-140187525D03*
X268325996Y-83451675D03*
X274873208Y-81474780D03*
X208645964Y-74159079D03*
X214995964Y-71619079D03*
X246645964Y-73159079D03*
X252995964Y-70619079D03*
X189645962Y-61159079D03*
X195995962Y-58619079D03*
X227645964Y-68159079D03*
X233995964Y-65619079D03*
X189645962Y-99159079D03*
X195995962Y-96619079D03*
X182633974Y-134742791D03*
X187811074Y-130273817D03*
X227645964Y-87159079D03*
X233995964Y-84619079D03*
X266677980Y-102449094D03*
X273225192Y-100472199D03*
X189645962Y-80159079D03*
X195995962Y-77619079D03*
X246645964Y-54159079D03*
X252995964Y-51619079D03*
X269935221Y-64545574D03*
X276482433Y-62568679D03*
X205406400Y-128620769D03*
X211456112Y-125430927D03*
X208645964Y-93159079D03*
X214995964Y-90619079D03*
D11*
X201723227Y-66699079D03*
D12*
X201723227Y-65474079D03*
X201723227Y-61924079D03*
D13*
X201723227Y-60699079D03*
D11*
X220723227Y-98699079D03*
D12*
X220723227Y-97474079D03*
X220723227Y-93924079D03*
D13*
X220723227Y-92699079D03*
D11*
X258723227Y-59695448D03*
D12*
X258723227Y-58470448D03*
X258723227Y-54920448D03*
D13*
X258723227Y-53695448D03*
D11*
X201523227Y-85699079D03*
D12*
X201523227Y-84474079D03*
X201523227Y-80924079D03*
D13*
X201523227Y-79699079D03*
D11*
X258723227Y-78695448D03*
D12*
X258723227Y-77470448D03*
X258723227Y-73920448D03*
D13*
X258723227Y-72695448D03*
D11*
X201123227Y-104699079D03*
D12*
X201123227Y-103474079D03*
X201123227Y-99924079D03*
D13*
X201123227Y-98699079D03*
D14*
X217992546Y-132868428D03*
D15*
X217864499Y-131650138D03*
X217493423Y-128119586D03*
D16*
X217365376Y-126901296D03*
D17*
X278189688Y-109017399D03*
D18*
X278296454Y-107797061D03*
X278605856Y-104260569D03*
D19*
X278712622Y-103040231D03*
D17*
X281431367Y-71112518D03*
D18*
X281538133Y-69892180D03*
X281847535Y-66355688D03*
D19*
X281954301Y-65135350D03*
D20*
X195784455Y-136073937D03*
D21*
X195385634Y-134915676D03*
X194229868Y-131559086D03*
D22*
X193831047Y-130400825D03*
D11*
X220723227Y-79695448D03*
D12*
X220723227Y-78470448D03*
X220723227Y-74920448D03*
D13*
X220723227Y-73695448D03*
D17*
X279938688Y-90028816D03*
D18*
X280045454Y-88808478D03*
X280354856Y-85271986D03*
D19*
X280461622Y-84051648D03*
D11*
X220723227Y-60699079D03*
D12*
X220723227Y-59474079D03*
X220723227Y-55924079D03*
D13*
X220723227Y-54699079D03*
D23*
X181275976Y-124000000D03*
D24*
X181275976Y-120000000D03*
X181275976Y-116000000D03*
X181275976Y-112000000D03*
X181275976Y-108000000D03*
X181275976Y-104000000D03*
X181275976Y-100000000D03*
X181275976Y-96000000D03*
X181275976Y-92000000D03*
D11*
X239723227Y-73699079D03*
D12*
X239723227Y-72474079D03*
X239723227Y-68924079D03*
D13*
X239723227Y-67699079D03*
D25*
X174612914Y-143922118D03*
D26*
X173963763Y-142883259D03*
X172082549Y-139872689D03*
D27*
X171433398Y-138833830D03*
D11*
X239723227Y-54699079D03*
D12*
X239723227Y-53474079D03*
X239723227Y-49924079D03*
D13*
X239723227Y-48699079D03*
D11*
X239723227Y-92699079D03*
D12*
X239723227Y-91474079D03*
X239723227Y-87924079D03*
D13*
X239723227Y-86699079D03*
D11*
X258723227Y-97699079D03*
D12*
X258723227Y-96474079D03*
X258723227Y-92924079D03*
D13*
X258723227Y-91699079D03*
D28*
X262423227Y-104899079D03*
X247323227Y-98423579D03*
X184623227Y-124799079D03*
D29*
X199643227Y-58619079D02*
X201723227Y-60699079D01*
X195995962Y-58619079D02*
X199643227Y-58619079D01*
X195995962Y-77619079D02*
X199643227Y-77619079D01*
X201223227Y-79199079D02*
X201223227Y-79699079D01*
X201523227Y-79499079D02*
X201523227Y-79699079D01*
X199643227Y-77619079D02*
X201523227Y-79499079D01*
X218643227Y-52619079D02*
X220723227Y-54699079D01*
X214995964Y-52619079D02*
X218643227Y-52619079D01*
X218646858Y-71619079D02*
X220723227Y-73695448D01*
X214995964Y-71619079D02*
X218646858Y-71619079D01*
X214995964Y-90619079D02*
X218643227Y-90619079D01*
X218643227Y-90619079D02*
X220723227Y-92699079D01*
X233995964Y-46619079D02*
X237643227Y-46619079D01*
X237643227Y-46619079D02*
X239723227Y-48699079D01*
X237643227Y-65619079D02*
X239723227Y-67699079D01*
X233995964Y-65619079D02*
X237643227Y-65619079D01*
X233995964Y-84619079D02*
X237643227Y-84619079D01*
X237643227Y-84619079D02*
X239723227Y-86699079D01*
X170079703Y-140187525D02*
X171433398Y-138833830D01*
X165341907Y-140187525D02*
X170079703Y-140187525D01*
X252995964Y-51619079D02*
X256646858Y-51619079D01*
X256646858Y-51619079D02*
X258723227Y-53695448D01*
X256646858Y-70619079D02*
X258723227Y-72695448D01*
X252995964Y-70619079D02*
X256646858Y-70619079D01*
X256643227Y-89619079D02*
X258723227Y-91699079D01*
X252995964Y-89619079D02*
X256643227Y-89619079D01*
X193704039Y-130273817D02*
X193831047Y-130400825D01*
X187811074Y-130273817D02*
X193704039Y-130273817D01*
X279387630Y-62568679D02*
X281954301Y-65135350D01*
X276482433Y-62568679D02*
X279387630Y-62568679D01*
X274873208Y-81474780D02*
X277884754Y-81474780D01*
X277884754Y-81474780D02*
X280461622Y-84051648D01*
X273225192Y-100472199D02*
X276144590Y-100472199D01*
X276144590Y-100472199D02*
X278712622Y-103040231D01*
X211456112Y-125430927D02*
X215895007Y-125430927D01*
X215895007Y-125430927D02*
X217365376Y-126901296D01*
X195995962Y-96619079D02*
X199646858Y-96619079D01*
X201123227Y-98699079D02*
X201123227Y-98095448D01*
X201123227Y-98095448D02*
X199646858Y-96619079D01*
X270140297Y-71112518D02*
X258723227Y-59695448D01*
X179650976Y-102375000D02*
X179650976Y-95326903D01*
X233723227Y-60699079D02*
X239723227Y-54699079D01*
X187125962Y-87851917D02*
X187125962Y-80451692D01*
X201723227Y-66699079D02*
X214723227Y-66699079D01*
X220723227Y-60699079D02*
X233723227Y-60699079D01*
X187125962Y-80451692D02*
X200878575Y-66699079D01*
X179650976Y-95326903D02*
X187125962Y-87851917D01*
X200878575Y-66699079D02*
X201723227Y-66699079D01*
X214723227Y-66699079D02*
X220723227Y-60699079D01*
X281431367Y-71112518D02*
X270140297Y-71112518D01*
X181275976Y-104000000D02*
X179650976Y-102375000D01*
X258723227Y-59695448D02*
X244719596Y-59695448D01*
X244719596Y-59695448D02*
X239723227Y-54699079D01*
X244719596Y-78695448D02*
X239723227Y-73699079D01*
X268917595Y-90028816D02*
X258723227Y-79834448D01*
X220723227Y-79695448D02*
X233726858Y-79695448D01*
X180100976Y-95513299D02*
X180789275Y-94825000D01*
X233726858Y-79695448D02*
X239723227Y-73699079D01*
X181275976Y-100000000D02*
X180100976Y-98825000D01*
X258723227Y-79834448D02*
X258723227Y-78695448D01*
X258723227Y-78695448D02*
X244719596Y-78695448D01*
X180789275Y-94825000D02*
X182797306Y-94825000D01*
X220723227Y-79695448D02*
X214771411Y-85647263D01*
X279938688Y-90028816D02*
X268917595Y-90028816D01*
X180100976Y-98825000D02*
X180100976Y-95513299D01*
X214771411Y-85647263D02*
X214719596Y-85699079D01*
X191923227Y-85699079D02*
X201523227Y-85699079D01*
X201523227Y-85699079D02*
X214719595Y-85699079D01*
X214719595Y-85699079D02*
X214771411Y-85647263D01*
X182797306Y-94825000D02*
X191923227Y-85699079D01*
X191586883Y-96000000D02*
X196223227Y-100636344D01*
X196223227Y-101699079D02*
X197998227Y-103474079D01*
X233723227Y-98699079D02*
X239723227Y-92699079D01*
X258723227Y-100168298D02*
X258723227Y-97699079D01*
X196223227Y-100636344D02*
X196223227Y-101699079D01*
X278189688Y-109017399D02*
X267572328Y-109017399D01*
X258723227Y-97699079D02*
X244723227Y-97699079D01*
X201123227Y-104699079D02*
X214723227Y-104699079D01*
X214723227Y-104699079D02*
X220723227Y-98699079D01*
X267572328Y-109017399D02*
X258723227Y-100168298D01*
X181275976Y-96000000D02*
X191586883Y-96000000D01*
X220723227Y-98699079D02*
X233723227Y-98699079D01*
X197998227Y-103474079D02*
X201123227Y-103474079D01*
X244723227Y-97699079D02*
X239723227Y-92699079D01*
X174612914Y-143922118D02*
X187936274Y-143922118D01*
X175023227Y-98252749D02*
X175023227Y-143511805D01*
X175023227Y-143511805D02*
X174612914Y-143922118D01*
X181275976Y-92000000D02*
X175023227Y-98252749D01*
X214787037Y-136073937D02*
X217992546Y-132868428D01*
X195784455Y-136073937D02*
X214787037Y-136073937D01*
X187936274Y-143922118D02*
X195784455Y-136073937D01*
X261723227Y-105599079D02*
X262423227Y-104899079D01*
X198122306Y-124000000D02*
X215523227Y-106599079D01*
X215523227Y-106599079D02*
X216523227Y-105599079D01*
X216523227Y-105599079D02*
X261723227Y-105599079D01*
X181275976Y-124000000D02*
X198122306Y-124000000D01*
X244723227Y-105149079D02*
X247323227Y-102549079D01*
X181275976Y-120000000D02*
X201022306Y-120000000D01*
X247323227Y-102549079D02*
X247323227Y-98423579D01*
X212023227Y-108999079D02*
X215873227Y-105149079D01*
X201022306Y-120000000D02*
X212023227Y-108999079D01*
X215873227Y-105149079D02*
X244723227Y-105149079D01*
X205406400Y-128620769D02*
X188444917Y-128620769D01*
X188444917Y-128620769D02*
X184623227Y-124799079D01*
X180100976Y-132209793D02*
X182633974Y-134742791D01*
X181275976Y-112000000D02*
X180100976Y-113175000D01*
X180100976Y-113175000D02*
X180100976Y-132209793D01*
X181275976Y-108000000D02*
X183842808Y-108000000D01*
X183842808Y-108000000D02*
X189645962Y-102196846D01*
X189645962Y-102196846D02*
X189645962Y-99159079D01*
M02*
