G04 #@! TF.GenerationSoftware,KiCad,Pcbnew,7.0.7*
G04 #@! TF.CreationDate,2023-11-26T11:09:42-07:00*
G04 #@! TF.ProjectId,TypeStationX,54797065-5374-4617-9469-6f6e582e6b69,rev?*
G04 #@! TF.SameCoordinates,Original*
G04 #@! TF.FileFunction,Legend,Bot*
G04 #@! TF.FilePolarity,Positive*
%FSLAX46Y46*%
G04 Gerber Fmt 4.6, Leading zero omitted, Abs format (unit mm)*
G04 Created by KiCad (PCBNEW 7.0.7) date 2023-11-26 11:09:42*
%MOMM*%
%LPD*%
G01*
G04 APERTURE LIST*
G04 Aperture macros list*
%AMRotRect*
0 Rectangle, with rotation*
0 The origin of the aperture is its center*
0 $1 length*
0 $2 width*
0 $3 Rotation angle, in degrees counterclockwise*
0 Add horizontal line*
21,1,$1,$2,0,0,$3*%
G04 Aperture macros list end*
%ADD10C,0.150000*%
%ADD11C,0.120000*%
%ADD12C,1.750000*%
%ADD13C,4.000000*%
%ADD14C,2.500000*%
%ADD15R,1.300000X1.400000*%
%ADD16RotRect,1.400000X1.300000X276.000000*%
%ADD17RotRect,1.400000X1.300000X265.000000*%
%ADD18RotRect,1.400000X1.300000X289.000000*%
%ADD19R,1.700000X1.700000*%
%ADD20O,1.700000X1.700000*%
%ADD21RotRect,1.400000X1.300000X302.000000*%
G04 APERTURE END LIST*
D10*
X251694058Y-87106279D02*
X251551201Y-87153898D01*
X251551201Y-87153898D02*
X251313106Y-87153898D01*
X251313106Y-87153898D02*
X251217868Y-87106279D01*
X251217868Y-87106279D02*
X251170249Y-87058659D01*
X251170249Y-87058659D02*
X251122630Y-86963421D01*
X251122630Y-86963421D02*
X251122630Y-86868183D01*
X251122630Y-86868183D02*
X251170249Y-86772945D01*
X251170249Y-86772945D02*
X251217868Y-86725326D01*
X251217868Y-86725326D02*
X251313106Y-86677707D01*
X251313106Y-86677707D02*
X251503582Y-86630088D01*
X251503582Y-86630088D02*
X251598820Y-86582469D01*
X251598820Y-86582469D02*
X251646439Y-86534850D01*
X251646439Y-86534850D02*
X251694058Y-86439612D01*
X251694058Y-86439612D02*
X251694058Y-86344374D01*
X251694058Y-86344374D02*
X251646439Y-86249136D01*
X251646439Y-86249136D02*
X251598820Y-86201517D01*
X251598820Y-86201517D02*
X251503582Y-86153898D01*
X251503582Y-86153898D02*
X251265487Y-86153898D01*
X251265487Y-86153898D02*
X251122630Y-86201517D01*
X250789296Y-86153898D02*
X250170249Y-86153898D01*
X250170249Y-86153898D02*
X250503582Y-86534850D01*
X250503582Y-86534850D02*
X250360725Y-86534850D01*
X250360725Y-86534850D02*
X250265487Y-86582469D01*
X250265487Y-86582469D02*
X250217868Y-86630088D01*
X250217868Y-86630088D02*
X250170249Y-86725326D01*
X250170249Y-86725326D02*
X250170249Y-86963421D01*
X250170249Y-86963421D02*
X250217868Y-87058659D01*
X250217868Y-87058659D02*
X250265487Y-87106279D01*
X250265487Y-87106279D02*
X250360725Y-87153898D01*
X250360725Y-87153898D02*
X250646439Y-87153898D01*
X250646439Y-87153898D02*
X250741677Y-87106279D01*
X250741677Y-87106279D02*
X250789296Y-87058659D01*
X249217868Y-87153898D02*
X249789296Y-87153898D01*
X249503582Y-87153898D02*
X249503582Y-86153898D01*
X249503582Y-86153898D02*
X249598820Y-86296755D01*
X249598820Y-86296755D02*
X249694058Y-86391993D01*
X249694058Y-86391993D02*
X249789296Y-86439612D01*
X213694058Y-50106279D02*
X213551201Y-50153898D01*
X213551201Y-50153898D02*
X213313106Y-50153898D01*
X213313106Y-50153898D02*
X213217868Y-50106279D01*
X213217868Y-50106279D02*
X213170249Y-50058659D01*
X213170249Y-50058659D02*
X213122630Y-49963421D01*
X213122630Y-49963421D02*
X213122630Y-49868183D01*
X213122630Y-49868183D02*
X213170249Y-49772945D01*
X213170249Y-49772945D02*
X213217868Y-49725326D01*
X213217868Y-49725326D02*
X213313106Y-49677707D01*
X213313106Y-49677707D02*
X213503582Y-49630088D01*
X213503582Y-49630088D02*
X213598820Y-49582469D01*
X213598820Y-49582469D02*
X213646439Y-49534850D01*
X213646439Y-49534850D02*
X213694058Y-49439612D01*
X213694058Y-49439612D02*
X213694058Y-49344374D01*
X213694058Y-49344374D02*
X213646439Y-49249136D01*
X213646439Y-49249136D02*
X213598820Y-49201517D01*
X213598820Y-49201517D02*
X213503582Y-49153898D01*
X213503582Y-49153898D02*
X213265487Y-49153898D01*
X213265487Y-49153898D02*
X213122630Y-49201517D01*
X212741677Y-49249136D02*
X212694058Y-49201517D01*
X212694058Y-49201517D02*
X212598820Y-49153898D01*
X212598820Y-49153898D02*
X212360725Y-49153898D01*
X212360725Y-49153898D02*
X212265487Y-49201517D01*
X212265487Y-49201517D02*
X212217868Y-49249136D01*
X212217868Y-49249136D02*
X212170249Y-49344374D01*
X212170249Y-49344374D02*
X212170249Y-49439612D01*
X212170249Y-49439612D02*
X212217868Y-49582469D01*
X212217868Y-49582469D02*
X212789296Y-50153898D01*
X212789296Y-50153898D02*
X212170249Y-50153898D01*
X211789296Y-49249136D02*
X211741677Y-49201517D01*
X211741677Y-49201517D02*
X211646439Y-49153898D01*
X211646439Y-49153898D02*
X211408344Y-49153898D01*
X211408344Y-49153898D02*
X211313106Y-49201517D01*
X211313106Y-49201517D02*
X211265487Y-49249136D01*
X211265487Y-49249136D02*
X211217868Y-49344374D01*
X211217868Y-49344374D02*
X211217868Y-49439612D01*
X211217868Y-49439612D02*
X211265487Y-49582469D01*
X211265487Y-49582469D02*
X211836915Y-50153898D01*
X211836915Y-50153898D02*
X211217868Y-50153898D01*
X232694058Y-44106279D02*
X232551201Y-44153898D01*
X232551201Y-44153898D02*
X232313106Y-44153898D01*
X232313106Y-44153898D02*
X232217868Y-44106279D01*
X232217868Y-44106279D02*
X232170249Y-44058659D01*
X232170249Y-44058659D02*
X232122630Y-43963421D01*
X232122630Y-43963421D02*
X232122630Y-43868183D01*
X232122630Y-43868183D02*
X232170249Y-43772945D01*
X232170249Y-43772945D02*
X232217868Y-43725326D01*
X232217868Y-43725326D02*
X232313106Y-43677707D01*
X232313106Y-43677707D02*
X232503582Y-43630088D01*
X232503582Y-43630088D02*
X232598820Y-43582469D01*
X232598820Y-43582469D02*
X232646439Y-43534850D01*
X232646439Y-43534850D02*
X232694058Y-43439612D01*
X232694058Y-43439612D02*
X232694058Y-43344374D01*
X232694058Y-43344374D02*
X232646439Y-43249136D01*
X232646439Y-43249136D02*
X232598820Y-43201517D01*
X232598820Y-43201517D02*
X232503582Y-43153898D01*
X232503582Y-43153898D02*
X232265487Y-43153898D01*
X232265487Y-43153898D02*
X232122630Y-43201517D01*
X231741677Y-43249136D02*
X231694058Y-43201517D01*
X231694058Y-43201517D02*
X231598820Y-43153898D01*
X231598820Y-43153898D02*
X231360725Y-43153898D01*
X231360725Y-43153898D02*
X231265487Y-43201517D01*
X231265487Y-43201517D02*
X231217868Y-43249136D01*
X231217868Y-43249136D02*
X231170249Y-43344374D01*
X231170249Y-43344374D02*
X231170249Y-43439612D01*
X231170249Y-43439612D02*
X231217868Y-43582469D01*
X231217868Y-43582469D02*
X231789296Y-44153898D01*
X231789296Y-44153898D02*
X231170249Y-44153898D01*
X230265487Y-43153898D02*
X230741677Y-43153898D01*
X230741677Y-43153898D02*
X230789296Y-43630088D01*
X230789296Y-43630088D02*
X230741677Y-43582469D01*
X230741677Y-43582469D02*
X230646439Y-43534850D01*
X230646439Y-43534850D02*
X230408344Y-43534850D01*
X230408344Y-43534850D02*
X230313106Y-43582469D01*
X230313106Y-43582469D02*
X230265487Y-43630088D01*
X230265487Y-43630088D02*
X230217868Y-43725326D01*
X230217868Y-43725326D02*
X230217868Y-43963421D01*
X230217868Y-43963421D02*
X230265487Y-44058659D01*
X230265487Y-44058659D02*
X230313106Y-44106279D01*
X230313106Y-44106279D02*
X230408344Y-44153898D01*
X230408344Y-44153898D02*
X230646439Y-44153898D01*
X230646439Y-44153898D02*
X230741677Y-44106279D01*
X230741677Y-44106279D02*
X230789296Y-44058659D01*
X162906248Y-138746453D02*
X162810332Y-138862539D01*
X162810332Y-138862539D02*
X162608416Y-138988711D01*
X162608416Y-138988711D02*
X162502415Y-138998796D01*
X162502415Y-138998796D02*
X162436798Y-138983647D01*
X162436798Y-138983647D02*
X162345946Y-138928115D01*
X162345946Y-138928115D02*
X162295477Y-138847348D01*
X162295477Y-138847348D02*
X162285392Y-138741347D01*
X162285392Y-138741347D02*
X162300541Y-138675730D01*
X162300541Y-138675730D02*
X162356073Y-138584878D01*
X162356073Y-138584878D02*
X162492372Y-138443558D01*
X162492372Y-138443558D02*
X162547904Y-138352706D01*
X162547904Y-138352706D02*
X162563053Y-138287089D01*
X162563053Y-138287089D02*
X162552968Y-138181088D01*
X162552968Y-138181088D02*
X162502500Y-138100322D01*
X162502500Y-138100322D02*
X162411648Y-138044789D01*
X162411648Y-138044789D02*
X162346030Y-138029640D01*
X162346030Y-138029640D02*
X162240030Y-138039726D01*
X162240030Y-138039726D02*
X162038113Y-138165897D01*
X162038113Y-138165897D02*
X161942198Y-138281983D01*
X161644366Y-138524240D02*
X161578749Y-138509091D01*
X161578749Y-138509091D02*
X161472748Y-138519176D01*
X161472748Y-138519176D02*
X161270832Y-138645348D01*
X161270832Y-138645348D02*
X161215299Y-138736199D01*
X161215299Y-138736199D02*
X161200150Y-138801817D01*
X161200150Y-138801817D02*
X161210236Y-138907818D01*
X161210236Y-138907818D02*
X161260704Y-138988584D01*
X161260704Y-138988584D02*
X161376790Y-139084500D01*
X161376790Y-139084500D02*
X162164200Y-139266287D01*
X162164200Y-139266287D02*
X161639218Y-139594333D01*
X160851808Y-139412545D02*
X160907340Y-139321693D01*
X160907340Y-139321693D02*
X160922489Y-139256076D01*
X160922489Y-139256076D02*
X160912404Y-139150075D01*
X160912404Y-139150075D02*
X160887170Y-139109692D01*
X160887170Y-139109692D02*
X160796318Y-139054159D01*
X160796318Y-139054159D02*
X160730701Y-139039010D01*
X160730701Y-139039010D02*
X160624700Y-139049096D01*
X160624700Y-139049096D02*
X160463167Y-139150033D01*
X160463167Y-139150033D02*
X160407635Y-139240884D01*
X160407635Y-139240884D02*
X160392486Y-139306502D01*
X160392486Y-139306502D02*
X160402571Y-139412503D01*
X160402571Y-139412503D02*
X160427805Y-139452886D01*
X160427805Y-139452886D02*
X160518657Y-139508418D01*
X160518657Y-139508418D02*
X160584274Y-139523567D01*
X160584274Y-139523567D02*
X160690275Y-139513482D01*
X160690275Y-139513482D02*
X160851808Y-139412545D01*
X160851808Y-139412545D02*
X160957809Y-139402460D01*
X160957809Y-139402460D02*
X161023426Y-139417609D01*
X161023426Y-139417609D02*
X161114278Y-139473141D01*
X161114278Y-139473141D02*
X161215215Y-139634674D01*
X161215215Y-139634674D02*
X161225300Y-139740674D01*
X161225300Y-139740674D02*
X161210151Y-139806292D01*
X161210151Y-139806292D02*
X161154619Y-139897144D01*
X161154619Y-139897144D02*
X160993086Y-139998081D01*
X160993086Y-139998081D02*
X160887085Y-140008166D01*
X160887085Y-140008166D02*
X160821468Y-139993017D01*
X160821468Y-139993017D02*
X160730616Y-139937485D01*
X160730616Y-139937485D02*
X160629679Y-139775952D01*
X160629679Y-139775952D02*
X160619594Y-139669951D01*
X160619594Y-139669951D02*
X160634743Y-139604334D01*
X160634743Y-139604334D02*
X160690275Y-139513482D01*
X273795261Y-78858072D02*
X273648797Y-78893059D01*
X273648797Y-78893059D02*
X273411608Y-78872308D01*
X273411608Y-78872308D02*
X273320883Y-78816569D01*
X273320883Y-78816569D02*
X273277595Y-78764981D01*
X273277595Y-78764981D02*
X273238458Y-78665955D01*
X273238458Y-78665955D02*
X273246758Y-78571080D01*
X273246758Y-78571080D02*
X273302497Y-78480354D01*
X273302497Y-78480354D02*
X273354085Y-78437067D01*
X273354085Y-78437067D02*
X273453111Y-78397929D01*
X273453111Y-78397929D02*
X273647013Y-78367093D01*
X273647013Y-78367093D02*
X273746038Y-78327955D01*
X273746038Y-78327955D02*
X273797627Y-78284668D01*
X273797627Y-78284668D02*
X273853365Y-78193942D01*
X273853365Y-78193942D02*
X273861666Y-78099067D01*
X273861666Y-78099067D02*
X273822528Y-78000041D01*
X273822528Y-78000041D02*
X273779241Y-77948452D01*
X273779241Y-77948452D02*
X273688515Y-77892714D01*
X273688515Y-77892714D02*
X273451326Y-77871963D01*
X273451326Y-77871963D02*
X273304862Y-77906950D01*
X272976948Y-77830460D02*
X272360256Y-77776506D01*
X272360256Y-77776506D02*
X272659118Y-78185061D01*
X272659118Y-78185061D02*
X272516805Y-78172610D01*
X272516805Y-78172610D02*
X272417779Y-78211748D01*
X272417779Y-78211748D02*
X272366191Y-78255035D01*
X272366191Y-78255035D02*
X272310452Y-78345761D01*
X272310452Y-78345761D02*
X272289701Y-78582950D01*
X272289701Y-78582950D02*
X272328838Y-78681976D01*
X272328838Y-78681976D02*
X272372126Y-78733564D01*
X272372126Y-78733564D02*
X272462851Y-78789302D01*
X272462851Y-78789302D02*
X272747478Y-78814204D01*
X272747478Y-78814204D02*
X272846504Y-78775067D01*
X272846504Y-78775067D02*
X272898092Y-78731779D01*
X271477322Y-78033866D02*
X271419219Y-78697996D01*
X271747714Y-77675115D02*
X271922649Y-78407434D01*
X271922649Y-78407434D02*
X271305957Y-78353480D01*
X213694058Y-69106279D02*
X213551201Y-69153898D01*
X213551201Y-69153898D02*
X213313106Y-69153898D01*
X213313106Y-69153898D02*
X213217868Y-69106279D01*
X213217868Y-69106279D02*
X213170249Y-69058659D01*
X213170249Y-69058659D02*
X213122630Y-68963421D01*
X213122630Y-68963421D02*
X213122630Y-68868183D01*
X213122630Y-68868183D02*
X213170249Y-68772945D01*
X213170249Y-68772945D02*
X213217868Y-68725326D01*
X213217868Y-68725326D02*
X213313106Y-68677707D01*
X213313106Y-68677707D02*
X213503582Y-68630088D01*
X213503582Y-68630088D02*
X213598820Y-68582469D01*
X213598820Y-68582469D02*
X213646439Y-68534850D01*
X213646439Y-68534850D02*
X213694058Y-68439612D01*
X213694058Y-68439612D02*
X213694058Y-68344374D01*
X213694058Y-68344374D02*
X213646439Y-68249136D01*
X213646439Y-68249136D02*
X213598820Y-68201517D01*
X213598820Y-68201517D02*
X213503582Y-68153898D01*
X213503582Y-68153898D02*
X213265487Y-68153898D01*
X213265487Y-68153898D02*
X213122630Y-68201517D01*
X212741677Y-68249136D02*
X212694058Y-68201517D01*
X212694058Y-68201517D02*
X212598820Y-68153898D01*
X212598820Y-68153898D02*
X212360725Y-68153898D01*
X212360725Y-68153898D02*
X212265487Y-68201517D01*
X212265487Y-68201517D02*
X212217868Y-68249136D01*
X212217868Y-68249136D02*
X212170249Y-68344374D01*
X212170249Y-68344374D02*
X212170249Y-68439612D01*
X212170249Y-68439612D02*
X212217868Y-68582469D01*
X212217868Y-68582469D02*
X212789296Y-69153898D01*
X212789296Y-69153898D02*
X212170249Y-69153898D01*
X211836915Y-68153898D02*
X211217868Y-68153898D01*
X211217868Y-68153898D02*
X211551201Y-68534850D01*
X211551201Y-68534850D02*
X211408344Y-68534850D01*
X211408344Y-68534850D02*
X211313106Y-68582469D01*
X211313106Y-68582469D02*
X211265487Y-68630088D01*
X211265487Y-68630088D02*
X211217868Y-68725326D01*
X211217868Y-68725326D02*
X211217868Y-68963421D01*
X211217868Y-68963421D02*
X211265487Y-69058659D01*
X211265487Y-69058659D02*
X211313106Y-69106279D01*
X211313106Y-69106279D02*
X211408344Y-69153898D01*
X211408344Y-69153898D02*
X211694058Y-69153898D01*
X211694058Y-69153898D02*
X211789296Y-69106279D01*
X211789296Y-69106279D02*
X211836915Y-69058659D01*
X251694058Y-68106279D02*
X251551201Y-68153898D01*
X251551201Y-68153898D02*
X251313106Y-68153898D01*
X251313106Y-68153898D02*
X251217868Y-68106279D01*
X251217868Y-68106279D02*
X251170249Y-68058659D01*
X251170249Y-68058659D02*
X251122630Y-67963421D01*
X251122630Y-67963421D02*
X251122630Y-67868183D01*
X251122630Y-67868183D02*
X251170249Y-67772945D01*
X251170249Y-67772945D02*
X251217868Y-67725326D01*
X251217868Y-67725326D02*
X251313106Y-67677707D01*
X251313106Y-67677707D02*
X251503582Y-67630088D01*
X251503582Y-67630088D02*
X251598820Y-67582469D01*
X251598820Y-67582469D02*
X251646439Y-67534850D01*
X251646439Y-67534850D02*
X251694058Y-67439612D01*
X251694058Y-67439612D02*
X251694058Y-67344374D01*
X251694058Y-67344374D02*
X251646439Y-67249136D01*
X251646439Y-67249136D02*
X251598820Y-67201517D01*
X251598820Y-67201517D02*
X251503582Y-67153898D01*
X251503582Y-67153898D02*
X251265487Y-67153898D01*
X251265487Y-67153898D02*
X251122630Y-67201517D01*
X250789296Y-67153898D02*
X250170249Y-67153898D01*
X250170249Y-67153898D02*
X250503582Y-67534850D01*
X250503582Y-67534850D02*
X250360725Y-67534850D01*
X250360725Y-67534850D02*
X250265487Y-67582469D01*
X250265487Y-67582469D02*
X250217868Y-67630088D01*
X250217868Y-67630088D02*
X250170249Y-67725326D01*
X250170249Y-67725326D02*
X250170249Y-67963421D01*
X250170249Y-67963421D02*
X250217868Y-68058659D01*
X250217868Y-68058659D02*
X250265487Y-68106279D01*
X250265487Y-68106279D02*
X250360725Y-68153898D01*
X250360725Y-68153898D02*
X250646439Y-68153898D01*
X250646439Y-68153898D02*
X250741677Y-68106279D01*
X250741677Y-68106279D02*
X250789296Y-68058659D01*
X249551201Y-67153898D02*
X249455963Y-67153898D01*
X249455963Y-67153898D02*
X249360725Y-67201517D01*
X249360725Y-67201517D02*
X249313106Y-67249136D01*
X249313106Y-67249136D02*
X249265487Y-67344374D01*
X249265487Y-67344374D02*
X249217868Y-67534850D01*
X249217868Y-67534850D02*
X249217868Y-67772945D01*
X249217868Y-67772945D02*
X249265487Y-67963421D01*
X249265487Y-67963421D02*
X249313106Y-68058659D01*
X249313106Y-68058659D02*
X249360725Y-68106279D01*
X249360725Y-68106279D02*
X249455963Y-68153898D01*
X249455963Y-68153898D02*
X249551201Y-68153898D01*
X249551201Y-68153898D02*
X249646439Y-68106279D01*
X249646439Y-68106279D02*
X249694058Y-68058659D01*
X249694058Y-68058659D02*
X249741677Y-67963421D01*
X249741677Y-67963421D02*
X249789296Y-67772945D01*
X249789296Y-67772945D02*
X249789296Y-67534850D01*
X249789296Y-67534850D02*
X249741677Y-67344374D01*
X249741677Y-67344374D02*
X249694058Y-67249136D01*
X249694058Y-67249136D02*
X249646439Y-67201517D01*
X249646439Y-67201517D02*
X249551201Y-67153898D01*
X194694056Y-56106279D02*
X194551199Y-56153898D01*
X194551199Y-56153898D02*
X194313104Y-56153898D01*
X194313104Y-56153898D02*
X194217866Y-56106279D01*
X194217866Y-56106279D02*
X194170247Y-56058659D01*
X194170247Y-56058659D02*
X194122628Y-55963421D01*
X194122628Y-55963421D02*
X194122628Y-55868183D01*
X194122628Y-55868183D02*
X194170247Y-55772945D01*
X194170247Y-55772945D02*
X194217866Y-55725326D01*
X194217866Y-55725326D02*
X194313104Y-55677707D01*
X194313104Y-55677707D02*
X194503580Y-55630088D01*
X194503580Y-55630088D02*
X194598818Y-55582469D01*
X194598818Y-55582469D02*
X194646437Y-55534850D01*
X194646437Y-55534850D02*
X194694056Y-55439612D01*
X194694056Y-55439612D02*
X194694056Y-55344374D01*
X194694056Y-55344374D02*
X194646437Y-55249136D01*
X194646437Y-55249136D02*
X194598818Y-55201517D01*
X194598818Y-55201517D02*
X194503580Y-55153898D01*
X194503580Y-55153898D02*
X194265485Y-55153898D01*
X194265485Y-55153898D02*
X194122628Y-55201517D01*
X193170247Y-56153898D02*
X193741675Y-56153898D01*
X193455961Y-56153898D02*
X193455961Y-55153898D01*
X193455961Y-55153898D02*
X193551199Y-55296755D01*
X193551199Y-55296755D02*
X193646437Y-55391993D01*
X193646437Y-55391993D02*
X193741675Y-55439612D01*
X192694056Y-56153898D02*
X192503580Y-56153898D01*
X192503580Y-56153898D02*
X192408342Y-56106279D01*
X192408342Y-56106279D02*
X192360723Y-56058659D01*
X192360723Y-56058659D02*
X192265485Y-55915802D01*
X192265485Y-55915802D02*
X192217866Y-55725326D01*
X192217866Y-55725326D02*
X192217866Y-55344374D01*
X192217866Y-55344374D02*
X192265485Y-55249136D01*
X192265485Y-55249136D02*
X192313104Y-55201517D01*
X192313104Y-55201517D02*
X192408342Y-55153898D01*
X192408342Y-55153898D02*
X192598818Y-55153898D01*
X192598818Y-55153898D02*
X192694056Y-55201517D01*
X192694056Y-55201517D02*
X192741675Y-55249136D01*
X192741675Y-55249136D02*
X192789294Y-55344374D01*
X192789294Y-55344374D02*
X192789294Y-55582469D01*
X192789294Y-55582469D02*
X192741675Y-55677707D01*
X192741675Y-55677707D02*
X192694056Y-55725326D01*
X192694056Y-55725326D02*
X192598818Y-55772945D01*
X192598818Y-55772945D02*
X192408342Y-55772945D01*
X192408342Y-55772945D02*
X192313104Y-55725326D01*
X192313104Y-55725326D02*
X192265485Y-55677707D01*
X192265485Y-55677707D02*
X192217866Y-55582469D01*
X232694058Y-63106279D02*
X232551201Y-63153898D01*
X232551201Y-63153898D02*
X232313106Y-63153898D01*
X232313106Y-63153898D02*
X232217868Y-63106279D01*
X232217868Y-63106279D02*
X232170249Y-63058659D01*
X232170249Y-63058659D02*
X232122630Y-62963421D01*
X232122630Y-62963421D02*
X232122630Y-62868183D01*
X232122630Y-62868183D02*
X232170249Y-62772945D01*
X232170249Y-62772945D02*
X232217868Y-62725326D01*
X232217868Y-62725326D02*
X232313106Y-62677707D01*
X232313106Y-62677707D02*
X232503582Y-62630088D01*
X232503582Y-62630088D02*
X232598820Y-62582469D01*
X232598820Y-62582469D02*
X232646439Y-62534850D01*
X232646439Y-62534850D02*
X232694058Y-62439612D01*
X232694058Y-62439612D02*
X232694058Y-62344374D01*
X232694058Y-62344374D02*
X232646439Y-62249136D01*
X232646439Y-62249136D02*
X232598820Y-62201517D01*
X232598820Y-62201517D02*
X232503582Y-62153898D01*
X232503582Y-62153898D02*
X232265487Y-62153898D01*
X232265487Y-62153898D02*
X232122630Y-62201517D01*
X231741677Y-62249136D02*
X231694058Y-62201517D01*
X231694058Y-62201517D02*
X231598820Y-62153898D01*
X231598820Y-62153898D02*
X231360725Y-62153898D01*
X231360725Y-62153898D02*
X231265487Y-62201517D01*
X231265487Y-62201517D02*
X231217868Y-62249136D01*
X231217868Y-62249136D02*
X231170249Y-62344374D01*
X231170249Y-62344374D02*
X231170249Y-62439612D01*
X231170249Y-62439612D02*
X231217868Y-62582469D01*
X231217868Y-62582469D02*
X231789296Y-63153898D01*
X231789296Y-63153898D02*
X231170249Y-63153898D01*
X230313106Y-62153898D02*
X230503582Y-62153898D01*
X230503582Y-62153898D02*
X230598820Y-62201517D01*
X230598820Y-62201517D02*
X230646439Y-62249136D01*
X230646439Y-62249136D02*
X230741677Y-62391993D01*
X230741677Y-62391993D02*
X230789296Y-62582469D01*
X230789296Y-62582469D02*
X230789296Y-62963421D01*
X230789296Y-62963421D02*
X230741677Y-63058659D01*
X230741677Y-63058659D02*
X230694058Y-63106279D01*
X230694058Y-63106279D02*
X230598820Y-63153898D01*
X230598820Y-63153898D02*
X230408344Y-63153898D01*
X230408344Y-63153898D02*
X230313106Y-63106279D01*
X230313106Y-63106279D02*
X230265487Y-63058659D01*
X230265487Y-63058659D02*
X230217868Y-62963421D01*
X230217868Y-62963421D02*
X230217868Y-62725326D01*
X230217868Y-62725326D02*
X230265487Y-62630088D01*
X230265487Y-62630088D02*
X230313106Y-62582469D01*
X230313106Y-62582469D02*
X230408344Y-62534850D01*
X230408344Y-62534850D02*
X230598820Y-62534850D01*
X230598820Y-62534850D02*
X230694058Y-62582469D01*
X230694058Y-62582469D02*
X230741677Y-62630088D01*
X230741677Y-62630088D02*
X230789296Y-62725326D01*
X194694056Y-94106279D02*
X194551199Y-94153898D01*
X194551199Y-94153898D02*
X194313104Y-94153898D01*
X194313104Y-94153898D02*
X194217866Y-94106279D01*
X194217866Y-94106279D02*
X194170247Y-94058659D01*
X194170247Y-94058659D02*
X194122628Y-93963421D01*
X194122628Y-93963421D02*
X194122628Y-93868183D01*
X194122628Y-93868183D02*
X194170247Y-93772945D01*
X194170247Y-93772945D02*
X194217866Y-93725326D01*
X194217866Y-93725326D02*
X194313104Y-93677707D01*
X194313104Y-93677707D02*
X194503580Y-93630088D01*
X194503580Y-93630088D02*
X194598818Y-93582469D01*
X194598818Y-93582469D02*
X194646437Y-93534850D01*
X194646437Y-93534850D02*
X194694056Y-93439612D01*
X194694056Y-93439612D02*
X194694056Y-93344374D01*
X194694056Y-93344374D02*
X194646437Y-93249136D01*
X194646437Y-93249136D02*
X194598818Y-93201517D01*
X194598818Y-93201517D02*
X194503580Y-93153898D01*
X194503580Y-93153898D02*
X194265485Y-93153898D01*
X194265485Y-93153898D02*
X194122628Y-93201517D01*
X193741675Y-93249136D02*
X193694056Y-93201517D01*
X193694056Y-93201517D02*
X193598818Y-93153898D01*
X193598818Y-93153898D02*
X193360723Y-93153898D01*
X193360723Y-93153898D02*
X193265485Y-93201517D01*
X193265485Y-93201517D02*
X193217866Y-93249136D01*
X193217866Y-93249136D02*
X193170247Y-93344374D01*
X193170247Y-93344374D02*
X193170247Y-93439612D01*
X193170247Y-93439612D02*
X193217866Y-93582469D01*
X193217866Y-93582469D02*
X193789294Y-94153898D01*
X193789294Y-94153898D02*
X193170247Y-94153898D01*
X192217866Y-94153898D02*
X192789294Y-94153898D01*
X192503580Y-94153898D02*
X192503580Y-93153898D01*
X192503580Y-93153898D02*
X192598818Y-93296755D01*
X192598818Y-93296755D02*
X192694056Y-93391993D01*
X192694056Y-93391993D02*
X192789294Y-93439612D01*
X185762010Y-128321775D02*
X185642440Y-128413310D01*
X185642440Y-128413310D02*
X185417316Y-128490826D01*
X185417316Y-128490826D02*
X185311764Y-128476808D01*
X185311764Y-128476808D02*
X185251236Y-128447286D01*
X185251236Y-128447286D02*
X185175204Y-128372740D01*
X185175204Y-128372740D02*
X185144198Y-128282691D01*
X185144198Y-128282691D02*
X185158216Y-128177138D01*
X185158216Y-128177138D02*
X185187738Y-128116610D01*
X185187738Y-128116610D02*
X185262284Y-128040579D01*
X185262284Y-128040579D02*
X185426879Y-127933541D01*
X185426879Y-127933541D02*
X185501425Y-127857510D01*
X185501425Y-127857510D02*
X185530947Y-127796982D01*
X185530947Y-127796982D02*
X185544965Y-127691430D01*
X185544965Y-127691430D02*
X185513959Y-127601380D01*
X185513959Y-127601380D02*
X185437927Y-127526834D01*
X185437927Y-127526834D02*
X185377399Y-127497313D01*
X185377399Y-127497313D02*
X185271847Y-127483295D01*
X185271847Y-127483295D02*
X185046723Y-127560811D01*
X185046723Y-127560811D02*
X184927153Y-127652345D01*
X184596476Y-127715843D02*
X184011155Y-127917385D01*
X184011155Y-127917385D02*
X184450354Y-128169060D01*
X184450354Y-128169060D02*
X184315280Y-128215570D01*
X184315280Y-128215570D02*
X184240734Y-128291601D01*
X184240734Y-128291601D02*
X184211212Y-128352129D01*
X184211212Y-128352129D02*
X184197194Y-128457682D01*
X184197194Y-128457682D02*
X184274711Y-128682805D01*
X184274711Y-128682805D02*
X184350742Y-128757351D01*
X184350742Y-128757351D02*
X184411270Y-128786873D01*
X184411270Y-128786873D02*
X184516822Y-128800891D01*
X184516822Y-128800891D02*
X184786970Y-128707872D01*
X184786970Y-128707872D02*
X184861517Y-128631840D01*
X184861517Y-128631840D02*
X184891038Y-128571312D01*
X183681964Y-128131461D02*
X183621436Y-128101939D01*
X183621436Y-128101939D02*
X183515884Y-128087921D01*
X183515884Y-128087921D02*
X183290760Y-128165437D01*
X183290760Y-128165437D02*
X183216214Y-128241469D01*
X183216214Y-128241469D02*
X183186693Y-128301996D01*
X183186693Y-128301996D02*
X183172674Y-128407549D01*
X183172674Y-128407549D02*
X183203681Y-128497598D01*
X183203681Y-128497598D02*
X183295215Y-128617169D01*
X183295215Y-128617169D02*
X184021551Y-128971427D01*
X184021551Y-128971427D02*
X183436230Y-129172969D01*
X232694058Y-82106279D02*
X232551201Y-82153898D01*
X232551201Y-82153898D02*
X232313106Y-82153898D01*
X232313106Y-82153898D02*
X232217868Y-82106279D01*
X232217868Y-82106279D02*
X232170249Y-82058659D01*
X232170249Y-82058659D02*
X232122630Y-81963421D01*
X232122630Y-81963421D02*
X232122630Y-81868183D01*
X232122630Y-81868183D02*
X232170249Y-81772945D01*
X232170249Y-81772945D02*
X232217868Y-81725326D01*
X232217868Y-81725326D02*
X232313106Y-81677707D01*
X232313106Y-81677707D02*
X232503582Y-81630088D01*
X232503582Y-81630088D02*
X232598820Y-81582469D01*
X232598820Y-81582469D02*
X232646439Y-81534850D01*
X232646439Y-81534850D02*
X232694058Y-81439612D01*
X232694058Y-81439612D02*
X232694058Y-81344374D01*
X232694058Y-81344374D02*
X232646439Y-81249136D01*
X232646439Y-81249136D02*
X232598820Y-81201517D01*
X232598820Y-81201517D02*
X232503582Y-81153898D01*
X232503582Y-81153898D02*
X232265487Y-81153898D01*
X232265487Y-81153898D02*
X232122630Y-81201517D01*
X231741677Y-81249136D02*
X231694058Y-81201517D01*
X231694058Y-81201517D02*
X231598820Y-81153898D01*
X231598820Y-81153898D02*
X231360725Y-81153898D01*
X231360725Y-81153898D02*
X231265487Y-81201517D01*
X231265487Y-81201517D02*
X231217868Y-81249136D01*
X231217868Y-81249136D02*
X231170249Y-81344374D01*
X231170249Y-81344374D02*
X231170249Y-81439612D01*
X231170249Y-81439612D02*
X231217868Y-81582469D01*
X231217868Y-81582469D02*
X231789296Y-82153898D01*
X231789296Y-82153898D02*
X231170249Y-82153898D01*
X230836915Y-81153898D02*
X230170249Y-81153898D01*
X230170249Y-81153898D02*
X230598820Y-82153898D01*
X272147245Y-97855491D02*
X272000781Y-97890478D01*
X272000781Y-97890478D02*
X271763592Y-97869727D01*
X271763592Y-97869727D02*
X271672867Y-97813988D01*
X271672867Y-97813988D02*
X271629579Y-97762400D01*
X271629579Y-97762400D02*
X271590442Y-97663374D01*
X271590442Y-97663374D02*
X271598742Y-97568499D01*
X271598742Y-97568499D02*
X271654481Y-97477773D01*
X271654481Y-97477773D02*
X271706069Y-97434486D01*
X271706069Y-97434486D02*
X271805095Y-97395348D01*
X271805095Y-97395348D02*
X271998997Y-97364512D01*
X271998997Y-97364512D02*
X272098022Y-97325374D01*
X272098022Y-97325374D02*
X272149611Y-97282087D01*
X272149611Y-97282087D02*
X272205349Y-97191361D01*
X272205349Y-97191361D02*
X272213650Y-97096486D01*
X272213650Y-97096486D02*
X272174512Y-96997460D01*
X272174512Y-96997460D02*
X272131225Y-96945871D01*
X272131225Y-96945871D02*
X272040499Y-96890133D01*
X272040499Y-96890133D02*
X271803310Y-96869382D01*
X271803310Y-96869382D02*
X271656846Y-96904369D01*
X271328932Y-96827879D02*
X270712240Y-96773925D01*
X270712240Y-96773925D02*
X271011102Y-97182480D01*
X271011102Y-97182480D02*
X270868789Y-97170029D01*
X270868789Y-97170029D02*
X270769763Y-97209167D01*
X270769763Y-97209167D02*
X270718175Y-97252454D01*
X270718175Y-97252454D02*
X270662436Y-97343180D01*
X270662436Y-97343180D02*
X270641685Y-97580369D01*
X270641685Y-97580369D02*
X270680822Y-97679395D01*
X270680822Y-97679395D02*
X270724110Y-97730983D01*
X270724110Y-97730983D02*
X270814835Y-97786721D01*
X270814835Y-97786721D02*
X271099462Y-97811623D01*
X271099462Y-97811623D02*
X271198488Y-97772486D01*
X271198488Y-97772486D02*
X271250076Y-97729198D01*
X269810921Y-96695070D02*
X270285299Y-96736573D01*
X270285299Y-96736573D02*
X270291234Y-97215102D01*
X270291234Y-97215102D02*
X270247947Y-97163514D01*
X270247947Y-97163514D02*
X270157221Y-97107775D01*
X270157221Y-97107775D02*
X269920032Y-97087024D01*
X269920032Y-97087024D02*
X269821006Y-97126161D01*
X269821006Y-97126161D02*
X269769418Y-97169449D01*
X269769418Y-97169449D02*
X269713679Y-97260174D01*
X269713679Y-97260174D02*
X269692928Y-97497363D01*
X269692928Y-97497363D02*
X269732065Y-97596389D01*
X269732065Y-97596389D02*
X269775353Y-97647977D01*
X269775353Y-97647977D02*
X269866078Y-97703716D01*
X269866078Y-97703716D02*
X270103268Y-97724467D01*
X270103268Y-97724467D02*
X270202294Y-97685330D01*
X270202294Y-97685330D02*
X270253882Y-97642042D01*
X194694056Y-75106279D02*
X194551199Y-75153898D01*
X194551199Y-75153898D02*
X194313104Y-75153898D01*
X194313104Y-75153898D02*
X194217866Y-75106279D01*
X194217866Y-75106279D02*
X194170247Y-75058659D01*
X194170247Y-75058659D02*
X194122628Y-74963421D01*
X194122628Y-74963421D02*
X194122628Y-74868183D01*
X194122628Y-74868183D02*
X194170247Y-74772945D01*
X194170247Y-74772945D02*
X194217866Y-74725326D01*
X194217866Y-74725326D02*
X194313104Y-74677707D01*
X194313104Y-74677707D02*
X194503580Y-74630088D01*
X194503580Y-74630088D02*
X194598818Y-74582469D01*
X194598818Y-74582469D02*
X194646437Y-74534850D01*
X194646437Y-74534850D02*
X194694056Y-74439612D01*
X194694056Y-74439612D02*
X194694056Y-74344374D01*
X194694056Y-74344374D02*
X194646437Y-74249136D01*
X194646437Y-74249136D02*
X194598818Y-74201517D01*
X194598818Y-74201517D02*
X194503580Y-74153898D01*
X194503580Y-74153898D02*
X194265485Y-74153898D01*
X194265485Y-74153898D02*
X194122628Y-74201517D01*
X193741675Y-74249136D02*
X193694056Y-74201517D01*
X193694056Y-74201517D02*
X193598818Y-74153898D01*
X193598818Y-74153898D02*
X193360723Y-74153898D01*
X193360723Y-74153898D02*
X193265485Y-74201517D01*
X193265485Y-74201517D02*
X193217866Y-74249136D01*
X193217866Y-74249136D02*
X193170247Y-74344374D01*
X193170247Y-74344374D02*
X193170247Y-74439612D01*
X193170247Y-74439612D02*
X193217866Y-74582469D01*
X193217866Y-74582469D02*
X193789294Y-75153898D01*
X193789294Y-75153898D02*
X193170247Y-75153898D01*
X192551199Y-74153898D02*
X192455961Y-74153898D01*
X192455961Y-74153898D02*
X192360723Y-74201517D01*
X192360723Y-74201517D02*
X192313104Y-74249136D01*
X192313104Y-74249136D02*
X192265485Y-74344374D01*
X192265485Y-74344374D02*
X192217866Y-74534850D01*
X192217866Y-74534850D02*
X192217866Y-74772945D01*
X192217866Y-74772945D02*
X192265485Y-74963421D01*
X192265485Y-74963421D02*
X192313104Y-75058659D01*
X192313104Y-75058659D02*
X192360723Y-75106279D01*
X192360723Y-75106279D02*
X192455961Y-75153898D01*
X192455961Y-75153898D02*
X192551199Y-75153898D01*
X192551199Y-75153898D02*
X192646437Y-75106279D01*
X192646437Y-75106279D02*
X192694056Y-75058659D01*
X192694056Y-75058659D02*
X192741675Y-74963421D01*
X192741675Y-74963421D02*
X192789294Y-74772945D01*
X192789294Y-74772945D02*
X192789294Y-74534850D01*
X192789294Y-74534850D02*
X192741675Y-74344374D01*
X192741675Y-74344374D02*
X192694056Y-74249136D01*
X192694056Y-74249136D02*
X192646437Y-74201517D01*
X192646437Y-74201517D02*
X192551199Y-74153898D01*
X251694058Y-49106279D02*
X251551201Y-49153898D01*
X251551201Y-49153898D02*
X251313106Y-49153898D01*
X251313106Y-49153898D02*
X251217868Y-49106279D01*
X251217868Y-49106279D02*
X251170249Y-49058659D01*
X251170249Y-49058659D02*
X251122630Y-48963421D01*
X251122630Y-48963421D02*
X251122630Y-48868183D01*
X251122630Y-48868183D02*
X251170249Y-48772945D01*
X251170249Y-48772945D02*
X251217868Y-48725326D01*
X251217868Y-48725326D02*
X251313106Y-48677707D01*
X251313106Y-48677707D02*
X251503582Y-48630088D01*
X251503582Y-48630088D02*
X251598820Y-48582469D01*
X251598820Y-48582469D02*
X251646439Y-48534850D01*
X251646439Y-48534850D02*
X251694058Y-48439612D01*
X251694058Y-48439612D02*
X251694058Y-48344374D01*
X251694058Y-48344374D02*
X251646439Y-48249136D01*
X251646439Y-48249136D02*
X251598820Y-48201517D01*
X251598820Y-48201517D02*
X251503582Y-48153898D01*
X251503582Y-48153898D02*
X251265487Y-48153898D01*
X251265487Y-48153898D02*
X251122630Y-48201517D01*
X250741677Y-48249136D02*
X250694058Y-48201517D01*
X250694058Y-48201517D02*
X250598820Y-48153898D01*
X250598820Y-48153898D02*
X250360725Y-48153898D01*
X250360725Y-48153898D02*
X250265487Y-48201517D01*
X250265487Y-48201517D02*
X250217868Y-48249136D01*
X250217868Y-48249136D02*
X250170249Y-48344374D01*
X250170249Y-48344374D02*
X250170249Y-48439612D01*
X250170249Y-48439612D02*
X250217868Y-48582469D01*
X250217868Y-48582469D02*
X250789296Y-49153898D01*
X250789296Y-49153898D02*
X250170249Y-49153898D01*
X249694058Y-49153898D02*
X249503582Y-49153898D01*
X249503582Y-49153898D02*
X249408344Y-49106279D01*
X249408344Y-49106279D02*
X249360725Y-49058659D01*
X249360725Y-49058659D02*
X249265487Y-48915802D01*
X249265487Y-48915802D02*
X249217868Y-48725326D01*
X249217868Y-48725326D02*
X249217868Y-48344374D01*
X249217868Y-48344374D02*
X249265487Y-48249136D01*
X249265487Y-48249136D02*
X249313106Y-48201517D01*
X249313106Y-48201517D02*
X249408344Y-48153898D01*
X249408344Y-48153898D02*
X249598820Y-48153898D01*
X249598820Y-48153898D02*
X249694058Y-48201517D01*
X249694058Y-48201517D02*
X249741677Y-48249136D01*
X249741677Y-48249136D02*
X249789296Y-48344374D01*
X249789296Y-48344374D02*
X249789296Y-48582469D01*
X249789296Y-48582469D02*
X249741677Y-48677707D01*
X249741677Y-48677707D02*
X249694058Y-48725326D01*
X249694058Y-48725326D02*
X249598820Y-48772945D01*
X249598820Y-48772945D02*
X249408344Y-48772945D01*
X249408344Y-48772945D02*
X249313106Y-48725326D01*
X249313106Y-48725326D02*
X249265487Y-48677707D01*
X249265487Y-48677707D02*
X249217868Y-48582469D01*
X275404486Y-59951971D02*
X275258022Y-59986958D01*
X275258022Y-59986958D02*
X275020833Y-59966207D01*
X275020833Y-59966207D02*
X274930108Y-59910468D01*
X274930108Y-59910468D02*
X274886820Y-59858880D01*
X274886820Y-59858880D02*
X274847683Y-59759854D01*
X274847683Y-59759854D02*
X274855983Y-59664979D01*
X274855983Y-59664979D02*
X274911722Y-59574253D01*
X274911722Y-59574253D02*
X274963310Y-59530966D01*
X274963310Y-59530966D02*
X275062336Y-59491828D01*
X275062336Y-59491828D02*
X275256238Y-59460992D01*
X275256238Y-59460992D02*
X275355263Y-59421854D01*
X275355263Y-59421854D02*
X275406852Y-59378567D01*
X275406852Y-59378567D02*
X275462590Y-59287841D01*
X275462590Y-59287841D02*
X275470891Y-59192966D01*
X275470891Y-59192966D02*
X275431753Y-59093940D01*
X275431753Y-59093940D02*
X275388466Y-59042351D01*
X275388466Y-59042351D02*
X275297740Y-58986613D01*
X275297740Y-58986613D02*
X275060551Y-58965862D01*
X275060551Y-58965862D02*
X274914087Y-59000849D01*
X274586173Y-58924359D02*
X273969481Y-58870405D01*
X273969481Y-58870405D02*
X274268343Y-59278960D01*
X274268343Y-59278960D02*
X274126030Y-59266509D01*
X274126030Y-59266509D02*
X274027004Y-59305647D01*
X274027004Y-59305647D02*
X273975416Y-59348934D01*
X273975416Y-59348934D02*
X273919677Y-59439660D01*
X273919677Y-59439660D02*
X273898926Y-59676849D01*
X273898926Y-59676849D02*
X273938063Y-59775875D01*
X273938063Y-59775875D02*
X273981351Y-59827463D01*
X273981351Y-59827463D02*
X274072076Y-59883201D01*
X274072076Y-59883201D02*
X274356703Y-59908103D01*
X274356703Y-59908103D02*
X274455729Y-59868966D01*
X274455729Y-59868966D02*
X274507317Y-59825678D01*
X273637416Y-58841354D02*
X273020724Y-58787400D01*
X273020724Y-58787400D02*
X273319586Y-59195955D01*
X273319586Y-59195955D02*
X273177273Y-59183504D01*
X273177273Y-59183504D02*
X273078247Y-59222641D01*
X273078247Y-59222641D02*
X273026659Y-59265929D01*
X273026659Y-59265929D02*
X272970920Y-59356654D01*
X272970920Y-59356654D02*
X272950169Y-59593843D01*
X272950169Y-59593843D02*
X272989306Y-59692869D01*
X272989306Y-59692869D02*
X273032594Y-59744457D01*
X273032594Y-59744457D02*
X273123319Y-59800196D01*
X273123319Y-59800196D02*
X273407946Y-59825097D01*
X273407946Y-59825097D02*
X273506972Y-59785960D01*
X273506972Y-59785960D02*
X273558560Y-59742673D01*
X209898679Y-123067979D02*
X209761582Y-123130269D01*
X209761582Y-123130269D02*
X209524791Y-123155157D01*
X209524791Y-123155157D02*
X209425097Y-123117754D01*
X209425097Y-123117754D02*
X209372761Y-123075373D01*
X209372761Y-123075373D02*
X209315448Y-122985635D01*
X209315448Y-122985635D02*
X209305493Y-122890918D01*
X209305493Y-122890918D02*
X209342896Y-122791224D01*
X209342896Y-122791224D02*
X209385277Y-122738889D01*
X209385277Y-122738889D02*
X209475015Y-122681575D01*
X209475015Y-122681575D02*
X209659471Y-122614307D01*
X209659471Y-122614307D02*
X209749210Y-122556994D01*
X209749210Y-122556994D02*
X209791590Y-122504658D01*
X209791590Y-122504658D02*
X209828993Y-122404964D01*
X209828993Y-122404964D02*
X209819038Y-122310248D01*
X209819038Y-122310248D02*
X209761725Y-122220509D01*
X209761725Y-122220509D02*
X209709389Y-122178128D01*
X209709389Y-122178128D02*
X209609695Y-122140725D01*
X209609695Y-122140725D02*
X209372904Y-122165613D01*
X209372904Y-122165613D02*
X209235807Y-122227904D01*
X208899322Y-122215388D02*
X208283666Y-122280096D01*
X208283666Y-122280096D02*
X208654994Y-122624119D01*
X208654994Y-122624119D02*
X208512919Y-122639052D01*
X208512919Y-122639052D02*
X208423180Y-122696365D01*
X208423180Y-122696365D02*
X208380800Y-122748701D01*
X208380800Y-122748701D02*
X208343397Y-122848395D01*
X208343397Y-122848395D02*
X208368284Y-123085186D01*
X208368284Y-123085186D02*
X208425598Y-123174924D01*
X208425598Y-123174924D02*
X208477933Y-123217305D01*
X208477933Y-123217305D02*
X208577627Y-123254708D01*
X208577627Y-123254708D02*
X208861776Y-123224843D01*
X208861776Y-123224843D02*
X208951515Y-123167530D01*
X208951515Y-123167530D02*
X208993896Y-123115194D01*
X207431219Y-122369692D02*
X207620651Y-122349782D01*
X207620651Y-122349782D02*
X207720345Y-122387185D01*
X207720345Y-122387185D02*
X207772681Y-122429566D01*
X207772681Y-122429566D02*
X207882330Y-122561685D01*
X207882330Y-122561685D02*
X207949598Y-122746140D01*
X207949598Y-122746140D02*
X207989419Y-123125006D01*
X207989419Y-123125006D02*
X207952016Y-123224700D01*
X207952016Y-123224700D02*
X207909635Y-123277036D01*
X207909635Y-123277036D02*
X207819896Y-123334349D01*
X207819896Y-123334349D02*
X207630463Y-123354259D01*
X207630463Y-123354259D02*
X207530770Y-123316856D01*
X207530770Y-123316856D02*
X207478434Y-123274475D01*
X207478434Y-123274475D02*
X207421121Y-123184737D01*
X207421121Y-123184737D02*
X207396233Y-122947946D01*
X207396233Y-122947946D02*
X207433636Y-122848252D01*
X207433636Y-122848252D02*
X207476017Y-122795916D01*
X207476017Y-122795916D02*
X207565755Y-122738603D01*
X207565755Y-122738603D02*
X207755188Y-122718692D01*
X207755188Y-122718692D02*
X207854882Y-122756096D01*
X207854882Y-122756096D02*
X207907218Y-122798476D01*
X207907218Y-122798476D02*
X207964531Y-122888215D01*
X213694058Y-88106279D02*
X213551201Y-88153898D01*
X213551201Y-88153898D02*
X213313106Y-88153898D01*
X213313106Y-88153898D02*
X213217868Y-88106279D01*
X213217868Y-88106279D02*
X213170249Y-88058659D01*
X213170249Y-88058659D02*
X213122630Y-87963421D01*
X213122630Y-87963421D02*
X213122630Y-87868183D01*
X213122630Y-87868183D02*
X213170249Y-87772945D01*
X213170249Y-87772945D02*
X213217868Y-87725326D01*
X213217868Y-87725326D02*
X213313106Y-87677707D01*
X213313106Y-87677707D02*
X213503582Y-87630088D01*
X213503582Y-87630088D02*
X213598820Y-87582469D01*
X213598820Y-87582469D02*
X213646439Y-87534850D01*
X213646439Y-87534850D02*
X213694058Y-87439612D01*
X213694058Y-87439612D02*
X213694058Y-87344374D01*
X213694058Y-87344374D02*
X213646439Y-87249136D01*
X213646439Y-87249136D02*
X213598820Y-87201517D01*
X213598820Y-87201517D02*
X213503582Y-87153898D01*
X213503582Y-87153898D02*
X213265487Y-87153898D01*
X213265487Y-87153898D02*
X213122630Y-87201517D01*
X212741677Y-87249136D02*
X212694058Y-87201517D01*
X212694058Y-87201517D02*
X212598820Y-87153898D01*
X212598820Y-87153898D02*
X212360725Y-87153898D01*
X212360725Y-87153898D02*
X212265487Y-87201517D01*
X212265487Y-87201517D02*
X212217868Y-87249136D01*
X212217868Y-87249136D02*
X212170249Y-87344374D01*
X212170249Y-87344374D02*
X212170249Y-87439612D01*
X212170249Y-87439612D02*
X212217868Y-87582469D01*
X212217868Y-87582469D02*
X212789296Y-88153898D01*
X212789296Y-88153898D02*
X212170249Y-88153898D01*
X211313106Y-87487231D02*
X211313106Y-88153898D01*
X211551201Y-87106279D02*
X211789296Y-87820564D01*
X211789296Y-87820564D02*
X211170249Y-87820564D01*
X181609309Y-125784819D02*
X181609309Y-126499104D01*
X181609309Y-126499104D02*
X181656928Y-126641961D01*
X181656928Y-126641961D02*
X181752166Y-126737200D01*
X181752166Y-126737200D02*
X181895023Y-126784819D01*
X181895023Y-126784819D02*
X181990261Y-126784819D01*
X181180737Y-125880057D02*
X181133118Y-125832438D01*
X181133118Y-125832438D02*
X181037880Y-125784819D01*
X181037880Y-125784819D02*
X180799785Y-125784819D01*
X180799785Y-125784819D02*
X180704547Y-125832438D01*
X180704547Y-125832438D02*
X180656928Y-125880057D01*
X180656928Y-125880057D02*
X180609309Y-125975295D01*
X180609309Y-125975295D02*
X180609309Y-126070533D01*
X180609309Y-126070533D02*
X180656928Y-126213390D01*
X180656928Y-126213390D02*
X181228356Y-126784819D01*
X181228356Y-126784819D02*
X180609309Y-126784819D01*
X202223227Y-64199079D02*
X201223227Y-64199079D01*
X201723227Y-64099079D02*
X202223227Y-63199079D01*
X201223227Y-63199079D02*
X201723227Y-64099079D01*
X202223227Y-63199079D02*
X201223227Y-63199079D01*
X221223227Y-96199079D02*
X220223227Y-96199079D01*
X220723227Y-96099079D02*
X221223227Y-95199079D01*
X220223227Y-95199079D02*
X220723227Y-96099079D01*
X221223227Y-95199079D02*
X220223227Y-95199079D01*
X259223227Y-57195448D02*
X258223227Y-57195448D01*
X258723227Y-57095448D02*
X259223227Y-56195448D01*
X258223227Y-56195448D02*
X258723227Y-57095448D01*
X259223227Y-56195448D02*
X258223227Y-56195448D01*
X202023227Y-83199079D02*
X201023227Y-83199079D01*
X201523227Y-83099079D02*
X202023227Y-82199079D01*
X201023227Y-82199079D02*
X201523227Y-83099079D01*
X202023227Y-82199079D02*
X201023227Y-82199079D01*
X259223227Y-76195448D02*
X258223227Y-76195448D01*
X258723227Y-76095448D02*
X259223227Y-75195448D01*
X258223227Y-75195448D02*
X258723227Y-76095448D01*
X259223227Y-75195448D02*
X258223227Y-75195448D01*
X201623227Y-102199079D02*
X200623227Y-102199079D01*
X201123227Y-102099079D02*
X201623227Y-101199079D01*
X200623227Y-101199079D02*
X201123227Y-102099079D01*
X201623227Y-101199079D02*
X200623227Y-101199079D01*
X218228486Y-130329859D02*
X217233964Y-130434387D01*
X217720772Y-130282671D02*
X218123958Y-129335337D01*
X217129436Y-129439865D02*
X217720772Y-130282671D01*
X218123958Y-129335337D02*
X217129436Y-129439865D01*
X278905674Y-106570490D02*
X277909480Y-106483334D01*
X278416293Y-106427293D02*
X278992830Y-105574296D01*
X277996636Y-105487140D02*
X278416293Y-106427293D01*
X278992830Y-105574296D02*
X277996636Y-105487140D01*
X282147353Y-68665609D02*
X281151159Y-68578453D01*
X281657972Y-68522412D02*
X282234509Y-67669415D01*
X281238315Y-67582259D02*
X281657972Y-68522412D01*
X282234509Y-67669415D02*
X281238315Y-67582259D01*
X195443294Y-133547356D02*
X194497776Y-133872924D01*
X194937978Y-133615588D02*
X195117726Y-132601838D01*
X194172208Y-132927406D02*
X194937978Y-133615588D01*
X195117726Y-132601838D02*
X194172208Y-132927406D01*
X221223227Y-77195448D02*
X220223227Y-77195448D01*
X220723227Y-77095448D02*
X221223227Y-76195448D01*
X220223227Y-76195448D02*
X220723227Y-77095448D01*
X221223227Y-76195448D02*
X220223227Y-76195448D01*
X280654674Y-87581907D02*
X279658480Y-87494751D01*
X280165293Y-87438710D02*
X280741830Y-86585713D01*
X279745636Y-86498557D02*
X280165293Y-87438710D01*
X280741830Y-86585713D02*
X279745636Y-86498557D01*
X221223227Y-58199079D02*
X220223227Y-58199079D01*
X220723227Y-58099079D02*
X221223227Y-57199079D01*
X220223227Y-57199079D02*
X220723227Y-58099079D01*
X221223227Y-57199079D02*
X220223227Y-57199079D01*
D11*
X179945976Y-91000000D02*
X182605976Y-91000000D01*
X179945976Y-124000000D02*
X179945976Y-91000000D01*
X179945976Y-124000000D02*
X179945976Y-125330000D01*
X179945976Y-124000000D02*
X182605976Y-124000000D01*
X179945976Y-125330000D02*
X181275976Y-125330000D01*
X182605976Y-124000000D02*
X182605976Y-91000000D01*
D10*
X240223227Y-71199079D02*
X239223227Y-71199079D01*
X239723227Y-71099079D02*
X240223227Y-70199079D01*
X239223227Y-70199079D02*
X239723227Y-71099079D01*
X240223227Y-70199079D02*
X239223227Y-70199079D01*
X173712140Y-141537038D02*
X172864092Y-142066958D01*
X173235124Y-141717193D02*
X173182220Y-140688990D01*
X172334172Y-141218910D02*
X173235124Y-141717193D01*
X173182220Y-140688990D02*
X172334172Y-141218910D01*
X240223227Y-52199079D02*
X239223227Y-52199079D01*
X239723227Y-52099079D02*
X240223227Y-51199079D01*
X239223227Y-51199079D02*
X239723227Y-52099079D01*
X240223227Y-51199079D02*
X239223227Y-51199079D01*
X240223227Y-90199079D02*
X239223227Y-90199079D01*
X239723227Y-90099079D02*
X240223227Y-89199079D01*
X239223227Y-89199079D02*
X239723227Y-90099079D01*
X240223227Y-89199079D02*
X239223227Y-89199079D01*
X259223227Y-95199079D02*
X258223227Y-95199079D01*
X258723227Y-95099079D02*
X259223227Y-94199079D01*
X258223227Y-94199079D02*
X258723227Y-95099079D01*
X259223227Y-94199079D02*
X258223227Y-94199079D01*
%LPC*%
D12*
X245375964Y-94699079D03*
D13*
X250455964Y-94699079D03*
D12*
X255535964Y-94699079D03*
D14*
X246645964Y-92159079D03*
X252995964Y-89619079D03*
D12*
X207375964Y-57699079D03*
D13*
X212455964Y-57699079D03*
D12*
X217535964Y-57699079D03*
D14*
X208645964Y-55159079D03*
X214995964Y-52619079D03*
D12*
X226375964Y-51699079D03*
D13*
X231455964Y-51699079D03*
D12*
X236535964Y-51699079D03*
D14*
X227645964Y-49159079D03*
X233995964Y-46619079D03*
D12*
X161571771Y-148533594D03*
D13*
X165879855Y-145841604D03*
D12*
X170187939Y-143149614D03*
D14*
X161302797Y-145706554D03*
X165341907Y-140187525D03*
D12*
X266839453Y-85871322D03*
D13*
X271900122Y-86314073D03*
D12*
X276960791Y-86756824D03*
D14*
X268325996Y-83451675D03*
X274873208Y-81474780D03*
D12*
X207375964Y-76699079D03*
D13*
X212455964Y-76699079D03*
D12*
X217535964Y-76699079D03*
D14*
X208645964Y-74159079D03*
X214995964Y-71619079D03*
D12*
X245375964Y-75699079D03*
D13*
X250455964Y-75699079D03*
D12*
X255535964Y-75699079D03*
D14*
X246645964Y-73159079D03*
X252995964Y-70619079D03*
D12*
X188375962Y-63699079D03*
D13*
X193455962Y-63699079D03*
D12*
X198535962Y-63699079D03*
D14*
X189645962Y-61159079D03*
X195995962Y-58619079D03*
D12*
X226375964Y-70699079D03*
D13*
X231455964Y-70699079D03*
D12*
X236535964Y-70699079D03*
D14*
X227645964Y-68159079D03*
X233995964Y-65619079D03*
D12*
X188375962Y-101699079D03*
D13*
X193455962Y-101699079D03*
D12*
X198535962Y-101699079D03*
D14*
X189645962Y-99159079D03*
X195995962Y-96619079D03*
D12*
X182260109Y-137557880D03*
D13*
X187063343Y-135903994D03*
D12*
X191866577Y-134250108D03*
D14*
X182633974Y-134742791D03*
X187811074Y-130273817D03*
D12*
X226375964Y-89699079D03*
D13*
X231455964Y-89699079D03*
D12*
X236535964Y-89699079D03*
D14*
X227645964Y-87159079D03*
X233995964Y-84619079D03*
D12*
X265191437Y-104868741D03*
D13*
X270252106Y-105311492D03*
D12*
X275312775Y-105754243D03*
D14*
X266677980Y-102449094D03*
X273225192Y-100472199D03*
D12*
X188375962Y-82699079D03*
D13*
X193455962Y-82699079D03*
D12*
X198535962Y-82699079D03*
D14*
X189645962Y-80159079D03*
X195995962Y-77619079D03*
D12*
X245375964Y-56699079D03*
D13*
X250455964Y-56699079D03*
D12*
X255535964Y-56699079D03*
D14*
X246645964Y-54159079D03*
X252995964Y-51619079D03*
D12*
X268448678Y-66965221D03*
D13*
X273509347Y-67407972D03*
D12*
X278570016Y-67850723D03*
D14*
X269935221Y-64545574D03*
X276482433Y-62568679D03*
D12*
X204408860Y-131279606D03*
D13*
X209461031Y-130748601D03*
D12*
X214513202Y-130217596D03*
D14*
X205406400Y-128620769D03*
X211456112Y-125430927D03*
D12*
X207375964Y-95699079D03*
D13*
X212455964Y-95699079D03*
D12*
X217535964Y-95699079D03*
D14*
X208645964Y-93159079D03*
X214995964Y-90619079D03*
D15*
X201723227Y-65474079D03*
X201723227Y-61924079D03*
X220723227Y-97474079D03*
X220723227Y-93924079D03*
X258723227Y-58470448D03*
X258723227Y-54920448D03*
X201523227Y-84474079D03*
X201523227Y-80924079D03*
X258723227Y-77470448D03*
X258723227Y-73920448D03*
X201123227Y-103474079D03*
X201123227Y-99924079D03*
D16*
X217864499Y-131650138D03*
X217493423Y-128119586D03*
D17*
X278296454Y-107797061D03*
X278605856Y-104260569D03*
X281538133Y-69892180D03*
X281847535Y-66355688D03*
D18*
X195385634Y-134915676D03*
X194229868Y-131559086D03*
D15*
X220723227Y-78470448D03*
X220723227Y-74920448D03*
D17*
X280045454Y-88808478D03*
X280354856Y-85271986D03*
D15*
X220723227Y-59474079D03*
X220723227Y-55924079D03*
D19*
X181275976Y-124000000D03*
D20*
X181275976Y-120000000D03*
X181275976Y-116000000D03*
X181275976Y-112000000D03*
X181275976Y-108000000D03*
X181275976Y-104000000D03*
X181275976Y-100000000D03*
X181275976Y-96000000D03*
X181275976Y-92000000D03*
D15*
X239723227Y-72474079D03*
X239723227Y-68924079D03*
D21*
X173963763Y-142883259D03*
X172082549Y-139872689D03*
D15*
X239723227Y-53474079D03*
X239723227Y-49924079D03*
X239723227Y-91474079D03*
X239723227Y-87924079D03*
X258723227Y-96474079D03*
X258723227Y-92924079D03*
%LPD*%
M02*
