%TF.GenerationSoftware,KiCad,Pcbnew,7.0.7*%
%TF.CreationDate,2023-11-26T11:10:45-07:00*%
%TF.ProjectId,TypeStationX,54797065-5374-4617-9469-6f6e582e6b69,rev?*%
%TF.SameCoordinates,Original*%
%TF.FileFunction,Drillmap*%
%TF.FilePolarity,Positive*%
%FSLAX45Y45*%
G04 Gerber Fmt 4.5, Leading zero omitted, Abs format (unit mm)*
G04 Created by KiCad (PCBNEW 7.0.7) date 2023-11-26 11:10:45*
%MOMM*%
%LPD*%
G01*
G04 APERTURE LIST*
%ADD10C,0.100000*%
%ADD11C,0.200000*%
%ADD12C,0.175000*%
%ADD13C,0.400000*%
G04 APERTURE END LIST*
D10*
X24107598Y-4690000D02*
X26007598Y-4690000D01*
X26007598Y-5620000D01*
X28447598Y-5840000D01*
X27927598Y-11610000D01*
X25967598Y-11410000D01*
X26037598Y-10670000D01*
X21667598Y-10670000D01*
X22007598Y-13920000D01*
X20027598Y-14140000D01*
X18057598Y-14850000D01*
X16297598Y-15890000D01*
X15247598Y-14230000D01*
X16902598Y-13200000D01*
X17427598Y-13200000D01*
X17427598Y-8860000D01*
X16517598Y-8860000D01*
X16522598Y-5510000D01*
X17232598Y-5510000D01*
X17232598Y-5900000D01*
X17997598Y-5900000D01*
X17997598Y-5510000D01*
X18382598Y-5510000D01*
X18382598Y-5400000D01*
X20282598Y-5400000D01*
X20282598Y-4800000D01*
X22182598Y-4800000D01*
X22182598Y-4195000D01*
X24107598Y-4195000D01*
X24107598Y-4690000D01*
D11*
D12*
X16069677Y-14765859D02*
X16244677Y-14940859D01*
X16244677Y-14765859D02*
X16069677Y-14940859D01*
X16931294Y-14227461D02*
X17106294Y-14402461D01*
X17106294Y-14227461D02*
X16931294Y-14402461D01*
X18138511Y-13668288D02*
X18313511Y-13843288D01*
X18313511Y-13668288D02*
X18138511Y-13843288D01*
X18750096Y-6282408D02*
X18925096Y-6457408D01*
X18925096Y-6282408D02*
X18750096Y-6457408D01*
X18750096Y-8182408D02*
X18925096Y-8357408D01*
X18925096Y-8182408D02*
X18750096Y-8357408D01*
X18750096Y-10082408D02*
X18925096Y-10257408D01*
X18925096Y-10082408D02*
X18750096Y-10257408D01*
X19099158Y-13337511D02*
X19274158Y-13512511D01*
X19274158Y-13337511D02*
X19099158Y-13512511D01*
X19766096Y-6282408D02*
X19941096Y-6457408D01*
X19941096Y-6282408D02*
X19766096Y-6457408D01*
X19766096Y-8182408D02*
X19941096Y-8357408D01*
X19941096Y-8182408D02*
X19766096Y-8357408D01*
X19766096Y-10082408D02*
X19941096Y-10257408D01*
X19941096Y-10082408D02*
X19766096Y-10257408D01*
X20353386Y-13040461D02*
X20528386Y-13215461D01*
X20528386Y-13040461D02*
X20353386Y-13215461D01*
X20650096Y-5682408D02*
X20825096Y-5857408D01*
X20825096Y-5682408D02*
X20650096Y-5857408D01*
X20650096Y-7582408D02*
X20825096Y-7757408D01*
X20825096Y-7582408D02*
X20650096Y-7757408D01*
X20650096Y-9482408D02*
X20825096Y-9657408D01*
X20825096Y-9482408D02*
X20650096Y-9657408D01*
X21363820Y-12934260D02*
X21538820Y-13109260D01*
X21538820Y-12934260D02*
X21363820Y-13109260D01*
X21666096Y-5682408D02*
X21841096Y-5857408D01*
X21841096Y-5682408D02*
X21666096Y-5857408D01*
X21666096Y-7582408D02*
X21841096Y-7757408D01*
X21841096Y-7582408D02*
X21666096Y-7757408D01*
X21666096Y-9482408D02*
X21841096Y-9657408D01*
X21841096Y-9482408D02*
X21666096Y-9657408D01*
X22550096Y-5082408D02*
X22725096Y-5257408D01*
X22725096Y-5082408D02*
X22550096Y-5257408D01*
X22550096Y-6982408D02*
X22725096Y-7157408D01*
X22725096Y-6982408D02*
X22550096Y-7157408D01*
X22550096Y-8882408D02*
X22725096Y-9057408D01*
X22725096Y-8882408D02*
X22550096Y-9057408D01*
X23566096Y-5082408D02*
X23741096Y-5257408D01*
X23741096Y-5082408D02*
X23566096Y-5257408D01*
X23566096Y-6982408D02*
X23741096Y-7157408D01*
X23741096Y-6982408D02*
X23566096Y-7157408D01*
X23566096Y-8882408D02*
X23741096Y-9057408D01*
X23741096Y-8882408D02*
X23566096Y-9057408D01*
X24450096Y-5582408D02*
X24625096Y-5757408D01*
X24625096Y-5582408D02*
X24450096Y-5757408D01*
X24450096Y-7482408D02*
X24625096Y-7657408D01*
X24625096Y-7482408D02*
X24450096Y-7657408D01*
X24450096Y-9382408D02*
X24625096Y-9557408D01*
X24625096Y-9382408D02*
X24450096Y-9557408D01*
X25466096Y-5582408D02*
X25641096Y-5757408D01*
X25641096Y-5582408D02*
X25466096Y-5757408D01*
X25466096Y-7482408D02*
X25641096Y-7657408D01*
X25641096Y-7482408D02*
X25466096Y-7657408D01*
X25466096Y-9382408D02*
X25641096Y-9557408D01*
X25641096Y-9382408D02*
X25466096Y-9557408D01*
X26431644Y-10399374D02*
X26606644Y-10574374D01*
X26606644Y-10399374D02*
X26431644Y-10574374D01*
X26596445Y-8499632D02*
X26771445Y-8674632D01*
X26771445Y-8499632D02*
X26596445Y-8674632D01*
X26757368Y-6609022D02*
X26932368Y-6784022D01*
X26932368Y-6609022D02*
X26757368Y-6784022D01*
X27443777Y-10487924D02*
X27618777Y-10662924D01*
X27618777Y-10487924D02*
X27443777Y-10662924D01*
X27608579Y-8588182D02*
X27783579Y-8763182D01*
X27783579Y-8588182D02*
X27608579Y-8763182D01*
X27769502Y-6697572D02*
X27944502Y-6872572D01*
X27944502Y-6697572D02*
X27769502Y-6872572D01*
D13*
X16787986Y-14584160D02*
G75*
G03*
X16787986Y-14584160I-200000J0D01*
G01*
X18906334Y-13590399D02*
G75*
G03*
X18906334Y-13590399I-200000J0D01*
G01*
X19545596Y-6369908D02*
G75*
G03*
X19545596Y-6369908I-200000J0D01*
G01*
X19545596Y-8269908D02*
G75*
G03*
X19545596Y-8269908I-200000J0D01*
G01*
X19545596Y-10169908D02*
G75*
G03*
X19545596Y-10169908I-200000J0D01*
G01*
X21146103Y-13074860D02*
G75*
G03*
X21146103Y-13074860I-200000J0D01*
G01*
X21445596Y-5769908D02*
G75*
G03*
X21445596Y-5769908I-200000J0D01*
G01*
X21445596Y-7669908D02*
G75*
G03*
X21445596Y-7669908I-200000J0D01*
G01*
X21445596Y-9569908D02*
G75*
G03*
X21445596Y-9569908I-200000J0D01*
G01*
X23345596Y-5169908D02*
G75*
G03*
X23345596Y-5169908I-200000J0D01*
G01*
X23345596Y-7069908D02*
G75*
G03*
X23345596Y-7069908I-200000J0D01*
G01*
X23345596Y-8969908D02*
G75*
G03*
X23345596Y-8969908I-200000J0D01*
G01*
X25245596Y-5669908D02*
G75*
G03*
X25245596Y-5669908I-200000J0D01*
G01*
X25245596Y-7569908D02*
G75*
G03*
X25245596Y-7569908I-200000J0D01*
G01*
X25245596Y-9469908D02*
G75*
G03*
X25245596Y-9469908I-200000J0D01*
G01*
X27225211Y-10531149D02*
G75*
G03*
X27225211Y-10531149I-200000J0D01*
G01*
X27390012Y-8631407D02*
G75*
G03*
X27390012Y-8631407I-200000J0D01*
G01*
X27550935Y-6740797D02*
G75*
G03*
X27550935Y-6740797I-200000J0D01*
G01*
D11*
X15503374Y-16206484D02*
X15503374Y-16006484D01*
X15503374Y-16006484D02*
X15550993Y-16006484D01*
X15550993Y-16006484D02*
X15579565Y-16016008D01*
X15579565Y-16016008D02*
X15598612Y-16035055D01*
X15598612Y-16035055D02*
X15608136Y-16054103D01*
X15608136Y-16054103D02*
X15617660Y-16092198D01*
X15617660Y-16092198D02*
X15617660Y-16120769D01*
X15617660Y-16120769D02*
X15608136Y-16158865D01*
X15608136Y-16158865D02*
X15598612Y-16177912D01*
X15598612Y-16177912D02*
X15579565Y-16196960D01*
X15579565Y-16196960D02*
X15550993Y-16206484D01*
X15550993Y-16206484D02*
X15503374Y-16206484D01*
X15703374Y-16206484D02*
X15703374Y-16073150D01*
X15703374Y-16111246D02*
X15712898Y-16092198D01*
X15712898Y-16092198D02*
X15722422Y-16082674D01*
X15722422Y-16082674D02*
X15741470Y-16073150D01*
X15741470Y-16073150D02*
X15760517Y-16073150D01*
X15827184Y-16206484D02*
X15827184Y-16073150D01*
X15827184Y-16006484D02*
X15817660Y-16016008D01*
X15817660Y-16016008D02*
X15827184Y-16025531D01*
X15827184Y-16025531D02*
X15836708Y-16016008D01*
X15836708Y-16016008D02*
X15827184Y-16006484D01*
X15827184Y-16006484D02*
X15827184Y-16025531D01*
X15950993Y-16206484D02*
X15931946Y-16196960D01*
X15931946Y-16196960D02*
X15922422Y-16177912D01*
X15922422Y-16177912D02*
X15922422Y-16006484D01*
X16055755Y-16206484D02*
X16036708Y-16196960D01*
X16036708Y-16196960D02*
X16027184Y-16177912D01*
X16027184Y-16177912D02*
X16027184Y-16006484D01*
X16284327Y-16206484D02*
X16284327Y-16006484D01*
X16284327Y-16006484D02*
X16350993Y-16149341D01*
X16350993Y-16149341D02*
X16417660Y-16006484D01*
X16417660Y-16006484D02*
X16417660Y-16206484D01*
X16598612Y-16206484D02*
X16598612Y-16101722D01*
X16598612Y-16101722D02*
X16589089Y-16082674D01*
X16589089Y-16082674D02*
X16570041Y-16073150D01*
X16570041Y-16073150D02*
X16531946Y-16073150D01*
X16531946Y-16073150D02*
X16512898Y-16082674D01*
X16598612Y-16196960D02*
X16579565Y-16206484D01*
X16579565Y-16206484D02*
X16531946Y-16206484D01*
X16531946Y-16206484D02*
X16512898Y-16196960D01*
X16512898Y-16196960D02*
X16503374Y-16177912D01*
X16503374Y-16177912D02*
X16503374Y-16158865D01*
X16503374Y-16158865D02*
X16512898Y-16139817D01*
X16512898Y-16139817D02*
X16531946Y-16130293D01*
X16531946Y-16130293D02*
X16579565Y-16130293D01*
X16579565Y-16130293D02*
X16598612Y-16120769D01*
X16693851Y-16073150D02*
X16693851Y-16273150D01*
X16693851Y-16082674D02*
X16712898Y-16073150D01*
X16712898Y-16073150D02*
X16750993Y-16073150D01*
X16750993Y-16073150D02*
X16770041Y-16082674D01*
X16770041Y-16082674D02*
X16779565Y-16092198D01*
X16779565Y-16092198D02*
X16789089Y-16111246D01*
X16789089Y-16111246D02*
X16789089Y-16168388D01*
X16789089Y-16168388D02*
X16779565Y-16187436D01*
X16779565Y-16187436D02*
X16770041Y-16196960D01*
X16770041Y-16196960D02*
X16750993Y-16206484D01*
X16750993Y-16206484D02*
X16712898Y-16206484D01*
X16712898Y-16206484D02*
X16693851Y-16196960D01*
X16874803Y-16187436D02*
X16884327Y-16196960D01*
X16884327Y-16196960D02*
X16874803Y-16206484D01*
X16874803Y-16206484D02*
X16865279Y-16196960D01*
X16865279Y-16196960D02*
X16874803Y-16187436D01*
X16874803Y-16187436D02*
X16874803Y-16206484D01*
X16874803Y-16082674D02*
X16884327Y-16092198D01*
X16884327Y-16092198D02*
X16874803Y-16101722D01*
X16874803Y-16101722D02*
X16865279Y-16092198D01*
X16865279Y-16092198D02*
X16874803Y-16082674D01*
X16874803Y-16082674D02*
X16874803Y-16101722D01*
D12*
X15067598Y-16447500D02*
X15242598Y-16622500D01*
X15242598Y-16447500D02*
X15067598Y-16622500D01*
D11*
X15608136Y-16626484D02*
X15493851Y-16626484D01*
X15550993Y-16626484D02*
X15550993Y-16426484D01*
X15550993Y-16426484D02*
X15531946Y-16455055D01*
X15531946Y-16455055D02*
X15512898Y-16474103D01*
X15512898Y-16474103D02*
X15493851Y-16483627D01*
X15693851Y-16607436D02*
X15703374Y-16616960D01*
X15703374Y-16616960D02*
X15693851Y-16626484D01*
X15693851Y-16626484D02*
X15684327Y-16616960D01*
X15684327Y-16616960D02*
X15693851Y-16607436D01*
X15693851Y-16607436D02*
X15693851Y-16626484D01*
X15770041Y-16426484D02*
X15903374Y-16426484D01*
X15903374Y-16426484D02*
X15817660Y-16626484D01*
X16074803Y-16426484D02*
X15979565Y-16426484D01*
X15979565Y-16426484D02*
X15970041Y-16521722D01*
X15970041Y-16521722D02*
X15979565Y-16512198D01*
X15979565Y-16512198D02*
X15998612Y-16502674D01*
X15998612Y-16502674D02*
X16046232Y-16502674D01*
X16046232Y-16502674D02*
X16065279Y-16512198D01*
X16065279Y-16512198D02*
X16074803Y-16521722D01*
X16074803Y-16521722D02*
X16084327Y-16540769D01*
X16084327Y-16540769D02*
X16084327Y-16588388D01*
X16084327Y-16588388D02*
X16074803Y-16607436D01*
X16074803Y-16607436D02*
X16065279Y-16616960D01*
X16065279Y-16616960D02*
X16046232Y-16626484D01*
X16046232Y-16626484D02*
X15998612Y-16626484D01*
X15998612Y-16626484D02*
X15979565Y-16616960D01*
X15979565Y-16616960D02*
X15970041Y-16607436D01*
X16208136Y-16426484D02*
X16227184Y-16426484D01*
X16227184Y-16426484D02*
X16246232Y-16436008D01*
X16246232Y-16436008D02*
X16255755Y-16445531D01*
X16255755Y-16445531D02*
X16265279Y-16464579D01*
X16265279Y-16464579D02*
X16274803Y-16502674D01*
X16274803Y-16502674D02*
X16274803Y-16550293D01*
X16274803Y-16550293D02*
X16265279Y-16588388D01*
X16265279Y-16588388D02*
X16255755Y-16607436D01*
X16255755Y-16607436D02*
X16246232Y-16616960D01*
X16246232Y-16616960D02*
X16227184Y-16626484D01*
X16227184Y-16626484D02*
X16208136Y-16626484D01*
X16208136Y-16626484D02*
X16189089Y-16616960D01*
X16189089Y-16616960D02*
X16179565Y-16607436D01*
X16179565Y-16607436D02*
X16170041Y-16588388D01*
X16170041Y-16588388D02*
X16160517Y-16550293D01*
X16160517Y-16550293D02*
X16160517Y-16502674D01*
X16160517Y-16502674D02*
X16170041Y-16464579D01*
X16170041Y-16464579D02*
X16179565Y-16445531D01*
X16179565Y-16445531D02*
X16189089Y-16436008D01*
X16189089Y-16436008D02*
X16208136Y-16426484D01*
X16360517Y-16626484D02*
X16360517Y-16493150D01*
X16360517Y-16512198D02*
X16370041Y-16502674D01*
X16370041Y-16502674D02*
X16389089Y-16493150D01*
X16389089Y-16493150D02*
X16417660Y-16493150D01*
X16417660Y-16493150D02*
X16436708Y-16502674D01*
X16436708Y-16502674D02*
X16446232Y-16521722D01*
X16446232Y-16521722D02*
X16446232Y-16626484D01*
X16446232Y-16521722D02*
X16455755Y-16502674D01*
X16455755Y-16502674D02*
X16474803Y-16493150D01*
X16474803Y-16493150D02*
X16503374Y-16493150D01*
X16503374Y-16493150D02*
X16522422Y-16502674D01*
X16522422Y-16502674D02*
X16531946Y-16521722D01*
X16531946Y-16521722D02*
X16531946Y-16626484D01*
X16627184Y-16626484D02*
X16627184Y-16493150D01*
X16627184Y-16512198D02*
X16636708Y-16502674D01*
X16636708Y-16502674D02*
X16655755Y-16493150D01*
X16655755Y-16493150D02*
X16684327Y-16493150D01*
X16684327Y-16493150D02*
X16703374Y-16502674D01*
X16703374Y-16502674D02*
X16712898Y-16521722D01*
X16712898Y-16521722D02*
X16712898Y-16626484D01*
X16712898Y-16521722D02*
X16722422Y-16502674D01*
X16722422Y-16502674D02*
X16741470Y-16493150D01*
X16741470Y-16493150D02*
X16770041Y-16493150D01*
X16770041Y-16493150D02*
X16789089Y-16502674D01*
X16789089Y-16502674D02*
X16798613Y-16521722D01*
X16798613Y-16521722D02*
X16798613Y-16626484D01*
X17189089Y-16416960D02*
X17017660Y-16674103D01*
X17446232Y-16426484D02*
X17465279Y-16426484D01*
X17465279Y-16426484D02*
X17484327Y-16436008D01*
X17484327Y-16436008D02*
X17493851Y-16445531D01*
X17493851Y-16445531D02*
X17503375Y-16464579D01*
X17503375Y-16464579D02*
X17512898Y-16502674D01*
X17512898Y-16502674D02*
X17512898Y-16550293D01*
X17512898Y-16550293D02*
X17503375Y-16588388D01*
X17503375Y-16588388D02*
X17493851Y-16607436D01*
X17493851Y-16607436D02*
X17484327Y-16616960D01*
X17484327Y-16616960D02*
X17465279Y-16626484D01*
X17465279Y-16626484D02*
X17446232Y-16626484D01*
X17446232Y-16626484D02*
X17427184Y-16616960D01*
X17427184Y-16616960D02*
X17417660Y-16607436D01*
X17417660Y-16607436D02*
X17408137Y-16588388D01*
X17408137Y-16588388D02*
X17398613Y-16550293D01*
X17398613Y-16550293D02*
X17398613Y-16502674D01*
X17398613Y-16502674D02*
X17408137Y-16464579D01*
X17408137Y-16464579D02*
X17417660Y-16445531D01*
X17417660Y-16445531D02*
X17427184Y-16436008D01*
X17427184Y-16436008D02*
X17446232Y-16426484D01*
X17598613Y-16607436D02*
X17608137Y-16616960D01*
X17608137Y-16616960D02*
X17598613Y-16626484D01*
X17598613Y-16626484D02*
X17589089Y-16616960D01*
X17589089Y-16616960D02*
X17598613Y-16607436D01*
X17598613Y-16607436D02*
X17598613Y-16626484D01*
X17731946Y-16426484D02*
X17750994Y-16426484D01*
X17750994Y-16426484D02*
X17770041Y-16436008D01*
X17770041Y-16436008D02*
X17779565Y-16445531D01*
X17779565Y-16445531D02*
X17789089Y-16464579D01*
X17789089Y-16464579D02*
X17798613Y-16502674D01*
X17798613Y-16502674D02*
X17798613Y-16550293D01*
X17798613Y-16550293D02*
X17789089Y-16588388D01*
X17789089Y-16588388D02*
X17779565Y-16607436D01*
X17779565Y-16607436D02*
X17770041Y-16616960D01*
X17770041Y-16616960D02*
X17750994Y-16626484D01*
X17750994Y-16626484D02*
X17731946Y-16626484D01*
X17731946Y-16626484D02*
X17712898Y-16616960D01*
X17712898Y-16616960D02*
X17703375Y-16607436D01*
X17703375Y-16607436D02*
X17693851Y-16588388D01*
X17693851Y-16588388D02*
X17684327Y-16550293D01*
X17684327Y-16550293D02*
X17684327Y-16502674D01*
X17684327Y-16502674D02*
X17693851Y-16464579D01*
X17693851Y-16464579D02*
X17703375Y-16445531D01*
X17703375Y-16445531D02*
X17712898Y-16436008D01*
X17712898Y-16436008D02*
X17731946Y-16426484D01*
X17970041Y-16426484D02*
X17931946Y-16426484D01*
X17931946Y-16426484D02*
X17912898Y-16436008D01*
X17912898Y-16436008D02*
X17903375Y-16445531D01*
X17903375Y-16445531D02*
X17884327Y-16474103D01*
X17884327Y-16474103D02*
X17874803Y-16512198D01*
X17874803Y-16512198D02*
X17874803Y-16588388D01*
X17874803Y-16588388D02*
X17884327Y-16607436D01*
X17884327Y-16607436D02*
X17893851Y-16616960D01*
X17893851Y-16616960D02*
X17912898Y-16626484D01*
X17912898Y-16626484D02*
X17950994Y-16626484D01*
X17950994Y-16626484D02*
X17970041Y-16616960D01*
X17970041Y-16616960D02*
X17979565Y-16607436D01*
X17979565Y-16607436D02*
X17989089Y-16588388D01*
X17989089Y-16588388D02*
X17989089Y-16540769D01*
X17989089Y-16540769D02*
X17979565Y-16521722D01*
X17979565Y-16521722D02*
X17970041Y-16512198D01*
X17970041Y-16512198D02*
X17950994Y-16502674D01*
X17950994Y-16502674D02*
X17912898Y-16502674D01*
X17912898Y-16502674D02*
X17893851Y-16512198D01*
X17893851Y-16512198D02*
X17884327Y-16521722D01*
X17884327Y-16521722D02*
X17874803Y-16540769D01*
X18103375Y-16512198D02*
X18084327Y-16502674D01*
X18084327Y-16502674D02*
X18074803Y-16493150D01*
X18074803Y-16493150D02*
X18065279Y-16474103D01*
X18065279Y-16474103D02*
X18065279Y-16464579D01*
X18065279Y-16464579D02*
X18074803Y-16445531D01*
X18074803Y-16445531D02*
X18084327Y-16436008D01*
X18084327Y-16436008D02*
X18103375Y-16426484D01*
X18103375Y-16426484D02*
X18141470Y-16426484D01*
X18141470Y-16426484D02*
X18160518Y-16436008D01*
X18160518Y-16436008D02*
X18170041Y-16445531D01*
X18170041Y-16445531D02*
X18179565Y-16464579D01*
X18179565Y-16464579D02*
X18179565Y-16474103D01*
X18179565Y-16474103D02*
X18170041Y-16493150D01*
X18170041Y-16493150D02*
X18160518Y-16502674D01*
X18160518Y-16502674D02*
X18141470Y-16512198D01*
X18141470Y-16512198D02*
X18103375Y-16512198D01*
X18103375Y-16512198D02*
X18084327Y-16521722D01*
X18084327Y-16521722D02*
X18074803Y-16531246D01*
X18074803Y-16531246D02*
X18065279Y-16550293D01*
X18065279Y-16550293D02*
X18065279Y-16588388D01*
X18065279Y-16588388D02*
X18074803Y-16607436D01*
X18074803Y-16607436D02*
X18084327Y-16616960D01*
X18084327Y-16616960D02*
X18103375Y-16626484D01*
X18103375Y-16626484D02*
X18141470Y-16626484D01*
X18141470Y-16626484D02*
X18160518Y-16616960D01*
X18160518Y-16616960D02*
X18170041Y-16607436D01*
X18170041Y-16607436D02*
X18179565Y-16588388D01*
X18179565Y-16588388D02*
X18179565Y-16550293D01*
X18179565Y-16550293D02*
X18170041Y-16531246D01*
X18170041Y-16531246D02*
X18160518Y-16521722D01*
X18160518Y-16521722D02*
X18141470Y-16512198D01*
X18274803Y-16626484D02*
X18312898Y-16626484D01*
X18312898Y-16626484D02*
X18331946Y-16616960D01*
X18331946Y-16616960D02*
X18341470Y-16607436D01*
X18341470Y-16607436D02*
X18360518Y-16578865D01*
X18360518Y-16578865D02*
X18370041Y-16540769D01*
X18370041Y-16540769D02*
X18370041Y-16464579D01*
X18370041Y-16464579D02*
X18360518Y-16445531D01*
X18360518Y-16445531D02*
X18350994Y-16436008D01*
X18350994Y-16436008D02*
X18331946Y-16426484D01*
X18331946Y-16426484D02*
X18293851Y-16426484D01*
X18293851Y-16426484D02*
X18274803Y-16436008D01*
X18274803Y-16436008D02*
X18265279Y-16445531D01*
X18265279Y-16445531D02*
X18255756Y-16464579D01*
X18255756Y-16464579D02*
X18255756Y-16512198D01*
X18255756Y-16512198D02*
X18265279Y-16531246D01*
X18265279Y-16531246D02*
X18274803Y-16540769D01*
X18274803Y-16540769D02*
X18293851Y-16550293D01*
X18293851Y-16550293D02*
X18331946Y-16550293D01*
X18331946Y-16550293D02*
X18350994Y-16540769D01*
X18350994Y-16540769D02*
X18360518Y-16531246D01*
X18360518Y-16531246D02*
X18370041Y-16512198D01*
X18446232Y-16426484D02*
X18446232Y-16464579D01*
X18522422Y-16426484D02*
X18522422Y-16464579D01*
X18817661Y-16702674D02*
X18808137Y-16693150D01*
X18808137Y-16693150D02*
X18789089Y-16664579D01*
X18789089Y-16664579D02*
X18779565Y-16645531D01*
X18779565Y-16645531D02*
X18770041Y-16616960D01*
X18770041Y-16616960D02*
X18760518Y-16569341D01*
X18760518Y-16569341D02*
X18760518Y-16531246D01*
X18760518Y-16531246D02*
X18770041Y-16483627D01*
X18770041Y-16483627D02*
X18779565Y-16455055D01*
X18779565Y-16455055D02*
X18789089Y-16436008D01*
X18789089Y-16436008D02*
X18808137Y-16407436D01*
X18808137Y-16407436D02*
X18817661Y-16397912D01*
X18874803Y-16426484D02*
X18998613Y-16426484D01*
X18998613Y-16426484D02*
X18931946Y-16502674D01*
X18931946Y-16502674D02*
X18960518Y-16502674D01*
X18960518Y-16502674D02*
X18979565Y-16512198D01*
X18979565Y-16512198D02*
X18989089Y-16521722D01*
X18989089Y-16521722D02*
X18998613Y-16540769D01*
X18998613Y-16540769D02*
X18998613Y-16588388D01*
X18998613Y-16588388D02*
X18989089Y-16607436D01*
X18989089Y-16607436D02*
X18979565Y-16616960D01*
X18979565Y-16616960D02*
X18960518Y-16626484D01*
X18960518Y-16626484D02*
X18903375Y-16626484D01*
X18903375Y-16626484D02*
X18884327Y-16616960D01*
X18884327Y-16616960D02*
X18874803Y-16607436D01*
X19170041Y-16426484D02*
X19131946Y-16426484D01*
X19131946Y-16426484D02*
X19112899Y-16436008D01*
X19112899Y-16436008D02*
X19103375Y-16445531D01*
X19103375Y-16445531D02*
X19084327Y-16474103D01*
X19084327Y-16474103D02*
X19074803Y-16512198D01*
X19074803Y-16512198D02*
X19074803Y-16588388D01*
X19074803Y-16588388D02*
X19084327Y-16607436D01*
X19084327Y-16607436D02*
X19093851Y-16616960D01*
X19093851Y-16616960D02*
X19112899Y-16626484D01*
X19112899Y-16626484D02*
X19150994Y-16626484D01*
X19150994Y-16626484D02*
X19170041Y-16616960D01*
X19170041Y-16616960D02*
X19179565Y-16607436D01*
X19179565Y-16607436D02*
X19189089Y-16588388D01*
X19189089Y-16588388D02*
X19189089Y-16540769D01*
X19189089Y-16540769D02*
X19179565Y-16521722D01*
X19179565Y-16521722D02*
X19170041Y-16512198D01*
X19170041Y-16512198D02*
X19150994Y-16502674D01*
X19150994Y-16502674D02*
X19112899Y-16502674D01*
X19112899Y-16502674D02*
X19093851Y-16512198D01*
X19093851Y-16512198D02*
X19084327Y-16521722D01*
X19084327Y-16521722D02*
X19074803Y-16540769D01*
X19427184Y-16626484D02*
X19427184Y-16426484D01*
X19512899Y-16626484D02*
X19512899Y-16521722D01*
X19512899Y-16521722D02*
X19503375Y-16502674D01*
X19503375Y-16502674D02*
X19484327Y-16493150D01*
X19484327Y-16493150D02*
X19455756Y-16493150D01*
X19455756Y-16493150D02*
X19436708Y-16502674D01*
X19436708Y-16502674D02*
X19427184Y-16512198D01*
X19636708Y-16626484D02*
X19617661Y-16616960D01*
X19617661Y-16616960D02*
X19608137Y-16607436D01*
X19608137Y-16607436D02*
X19598613Y-16588388D01*
X19598613Y-16588388D02*
X19598613Y-16531246D01*
X19598613Y-16531246D02*
X19608137Y-16512198D01*
X19608137Y-16512198D02*
X19617661Y-16502674D01*
X19617661Y-16502674D02*
X19636708Y-16493150D01*
X19636708Y-16493150D02*
X19665280Y-16493150D01*
X19665280Y-16493150D02*
X19684327Y-16502674D01*
X19684327Y-16502674D02*
X19693851Y-16512198D01*
X19693851Y-16512198D02*
X19703375Y-16531246D01*
X19703375Y-16531246D02*
X19703375Y-16588388D01*
X19703375Y-16588388D02*
X19693851Y-16607436D01*
X19693851Y-16607436D02*
X19684327Y-16616960D01*
X19684327Y-16616960D02*
X19665280Y-16626484D01*
X19665280Y-16626484D02*
X19636708Y-16626484D01*
X19817661Y-16626484D02*
X19798613Y-16616960D01*
X19798613Y-16616960D02*
X19789089Y-16597912D01*
X19789089Y-16597912D02*
X19789089Y-16426484D01*
X19970042Y-16616960D02*
X19950994Y-16626484D01*
X19950994Y-16626484D02*
X19912899Y-16626484D01*
X19912899Y-16626484D02*
X19893851Y-16616960D01*
X19893851Y-16616960D02*
X19884327Y-16597912D01*
X19884327Y-16597912D02*
X19884327Y-16521722D01*
X19884327Y-16521722D02*
X19893851Y-16502674D01*
X19893851Y-16502674D02*
X19912899Y-16493150D01*
X19912899Y-16493150D02*
X19950994Y-16493150D01*
X19950994Y-16493150D02*
X19970042Y-16502674D01*
X19970042Y-16502674D02*
X19979565Y-16521722D01*
X19979565Y-16521722D02*
X19979565Y-16540769D01*
X19979565Y-16540769D02*
X19884327Y-16559817D01*
X20055756Y-16616960D02*
X20074803Y-16626484D01*
X20074803Y-16626484D02*
X20112899Y-16626484D01*
X20112899Y-16626484D02*
X20131946Y-16616960D01*
X20131946Y-16616960D02*
X20141470Y-16597912D01*
X20141470Y-16597912D02*
X20141470Y-16588388D01*
X20141470Y-16588388D02*
X20131946Y-16569341D01*
X20131946Y-16569341D02*
X20112899Y-16559817D01*
X20112899Y-16559817D02*
X20084327Y-16559817D01*
X20084327Y-16559817D02*
X20065280Y-16550293D01*
X20065280Y-16550293D02*
X20055756Y-16531246D01*
X20055756Y-16531246D02*
X20055756Y-16521722D01*
X20055756Y-16521722D02*
X20065280Y-16502674D01*
X20065280Y-16502674D02*
X20084327Y-16493150D01*
X20084327Y-16493150D02*
X20112899Y-16493150D01*
X20112899Y-16493150D02*
X20131946Y-16502674D01*
X20208137Y-16702674D02*
X20217661Y-16693150D01*
X20217661Y-16693150D02*
X20236708Y-16664579D01*
X20236708Y-16664579D02*
X20246232Y-16645531D01*
X20246232Y-16645531D02*
X20255756Y-16616960D01*
X20255756Y-16616960D02*
X20265280Y-16569341D01*
X20265280Y-16569341D02*
X20265280Y-16531246D01*
X20265280Y-16531246D02*
X20255756Y-16483627D01*
X20255756Y-16483627D02*
X20246232Y-16455055D01*
X20246232Y-16455055D02*
X20236708Y-16436008D01*
X20236708Y-16436008D02*
X20217661Y-16407436D01*
X20217661Y-16407436D02*
X20208137Y-16397912D01*
X20570042Y-16702674D02*
X20560518Y-16693150D01*
X20560518Y-16693150D02*
X20541470Y-16664579D01*
X20541470Y-16664579D02*
X20531946Y-16645531D01*
X20531946Y-16645531D02*
X20522423Y-16616960D01*
X20522423Y-16616960D02*
X20512899Y-16569341D01*
X20512899Y-16569341D02*
X20512899Y-16531246D01*
X20512899Y-16531246D02*
X20522423Y-16483627D01*
X20522423Y-16483627D02*
X20531946Y-16455055D01*
X20531946Y-16455055D02*
X20541470Y-16436008D01*
X20541470Y-16436008D02*
X20560518Y-16407436D01*
X20560518Y-16407436D02*
X20570042Y-16397912D01*
X20646232Y-16493150D02*
X20646232Y-16626484D01*
X20646232Y-16512198D02*
X20655756Y-16502674D01*
X20655756Y-16502674D02*
X20674803Y-16493150D01*
X20674803Y-16493150D02*
X20703375Y-16493150D01*
X20703375Y-16493150D02*
X20722423Y-16502674D01*
X20722423Y-16502674D02*
X20731946Y-16521722D01*
X20731946Y-16521722D02*
X20731946Y-16626484D01*
X20855756Y-16626484D02*
X20836708Y-16616960D01*
X20836708Y-16616960D02*
X20827184Y-16607436D01*
X20827184Y-16607436D02*
X20817661Y-16588388D01*
X20817661Y-16588388D02*
X20817661Y-16531246D01*
X20817661Y-16531246D02*
X20827184Y-16512198D01*
X20827184Y-16512198D02*
X20836708Y-16502674D01*
X20836708Y-16502674D02*
X20855756Y-16493150D01*
X20855756Y-16493150D02*
X20884327Y-16493150D01*
X20884327Y-16493150D02*
X20903375Y-16502674D01*
X20903375Y-16502674D02*
X20912899Y-16512198D01*
X20912899Y-16512198D02*
X20922423Y-16531246D01*
X20922423Y-16531246D02*
X20922423Y-16588388D01*
X20922423Y-16588388D02*
X20912899Y-16607436D01*
X20912899Y-16607436D02*
X20903375Y-16616960D01*
X20903375Y-16616960D02*
X20884327Y-16626484D01*
X20884327Y-16626484D02*
X20855756Y-16626484D01*
X20979565Y-16493150D02*
X21055756Y-16493150D01*
X21008137Y-16426484D02*
X21008137Y-16597912D01*
X21008137Y-16597912D02*
X21017661Y-16616960D01*
X21017661Y-16616960D02*
X21036708Y-16626484D01*
X21036708Y-16626484D02*
X21055756Y-16626484D01*
X21274804Y-16493150D02*
X21274804Y-16693150D01*
X21274804Y-16502674D02*
X21293851Y-16493150D01*
X21293851Y-16493150D02*
X21331946Y-16493150D01*
X21331946Y-16493150D02*
X21350994Y-16502674D01*
X21350994Y-16502674D02*
X21360518Y-16512198D01*
X21360518Y-16512198D02*
X21370042Y-16531246D01*
X21370042Y-16531246D02*
X21370042Y-16588388D01*
X21370042Y-16588388D02*
X21360518Y-16607436D01*
X21360518Y-16607436D02*
X21350994Y-16616960D01*
X21350994Y-16616960D02*
X21331946Y-16626484D01*
X21331946Y-16626484D02*
X21293851Y-16626484D01*
X21293851Y-16626484D02*
X21274804Y-16616960D01*
X21484327Y-16626484D02*
X21465280Y-16616960D01*
X21465280Y-16616960D02*
X21455756Y-16597912D01*
X21455756Y-16597912D02*
X21455756Y-16426484D01*
X21646232Y-16626484D02*
X21646232Y-16521722D01*
X21646232Y-16521722D02*
X21636708Y-16502674D01*
X21636708Y-16502674D02*
X21617661Y-16493150D01*
X21617661Y-16493150D02*
X21579565Y-16493150D01*
X21579565Y-16493150D02*
X21560518Y-16502674D01*
X21646232Y-16616960D02*
X21627185Y-16626484D01*
X21627185Y-16626484D02*
X21579565Y-16626484D01*
X21579565Y-16626484D02*
X21560518Y-16616960D01*
X21560518Y-16616960D02*
X21550994Y-16597912D01*
X21550994Y-16597912D02*
X21550994Y-16578865D01*
X21550994Y-16578865D02*
X21560518Y-16559817D01*
X21560518Y-16559817D02*
X21579565Y-16550293D01*
X21579565Y-16550293D02*
X21627185Y-16550293D01*
X21627185Y-16550293D02*
X21646232Y-16540769D01*
X21712899Y-16493150D02*
X21789089Y-16493150D01*
X21741470Y-16426484D02*
X21741470Y-16597912D01*
X21741470Y-16597912D02*
X21750994Y-16616960D01*
X21750994Y-16616960D02*
X21770042Y-16626484D01*
X21770042Y-16626484D02*
X21789089Y-16626484D01*
X21931946Y-16616960D02*
X21912899Y-16626484D01*
X21912899Y-16626484D02*
X21874804Y-16626484D01*
X21874804Y-16626484D02*
X21855756Y-16616960D01*
X21855756Y-16616960D02*
X21846232Y-16597912D01*
X21846232Y-16597912D02*
X21846232Y-16521722D01*
X21846232Y-16521722D02*
X21855756Y-16502674D01*
X21855756Y-16502674D02*
X21874804Y-16493150D01*
X21874804Y-16493150D02*
X21912899Y-16493150D01*
X21912899Y-16493150D02*
X21931946Y-16502674D01*
X21931946Y-16502674D02*
X21941470Y-16521722D01*
X21941470Y-16521722D02*
X21941470Y-16540769D01*
X21941470Y-16540769D02*
X21846232Y-16559817D01*
X22112899Y-16626484D02*
X22112899Y-16426484D01*
X22112899Y-16616960D02*
X22093851Y-16626484D01*
X22093851Y-16626484D02*
X22055756Y-16626484D01*
X22055756Y-16626484D02*
X22036708Y-16616960D01*
X22036708Y-16616960D02*
X22027185Y-16607436D01*
X22027185Y-16607436D02*
X22017661Y-16588388D01*
X22017661Y-16588388D02*
X22017661Y-16531246D01*
X22017661Y-16531246D02*
X22027185Y-16512198D01*
X22027185Y-16512198D02*
X22036708Y-16502674D01*
X22036708Y-16502674D02*
X22055756Y-16493150D01*
X22055756Y-16493150D02*
X22093851Y-16493150D01*
X22093851Y-16493150D02*
X22112899Y-16502674D01*
X22189089Y-16702674D02*
X22198613Y-16693150D01*
X22198613Y-16693150D02*
X22217661Y-16664579D01*
X22217661Y-16664579D02*
X22227185Y-16645531D01*
X22227185Y-16645531D02*
X22236708Y-16616960D01*
X22236708Y-16616960D02*
X22246232Y-16569341D01*
X22246232Y-16569341D02*
X22246232Y-16531246D01*
X22246232Y-16531246D02*
X22236708Y-16483627D01*
X22236708Y-16483627D02*
X22227185Y-16455055D01*
X22227185Y-16455055D02*
X22217661Y-16436008D01*
X22217661Y-16436008D02*
X22198613Y-16407436D01*
X22198613Y-16407436D02*
X22189089Y-16397912D01*
X15242598Y-16830000D02*
G75*
G03*
X15242598Y-16830000I-100000J0D01*
G01*
X15589089Y-16788150D02*
X15589089Y-16921484D01*
X15541470Y-16711960D02*
X15493851Y-16854817D01*
X15493851Y-16854817D02*
X15617660Y-16854817D01*
X15693851Y-16902436D02*
X15703374Y-16911960D01*
X15703374Y-16911960D02*
X15693851Y-16921484D01*
X15693851Y-16921484D02*
X15684327Y-16911960D01*
X15684327Y-16911960D02*
X15693851Y-16902436D01*
X15693851Y-16902436D02*
X15693851Y-16921484D01*
X15827184Y-16721484D02*
X15846232Y-16721484D01*
X15846232Y-16721484D02*
X15865279Y-16731008D01*
X15865279Y-16731008D02*
X15874803Y-16740531D01*
X15874803Y-16740531D02*
X15884327Y-16759579D01*
X15884327Y-16759579D02*
X15893851Y-16797674D01*
X15893851Y-16797674D02*
X15893851Y-16845293D01*
X15893851Y-16845293D02*
X15884327Y-16883389D01*
X15884327Y-16883389D02*
X15874803Y-16902436D01*
X15874803Y-16902436D02*
X15865279Y-16911960D01*
X15865279Y-16911960D02*
X15846232Y-16921484D01*
X15846232Y-16921484D02*
X15827184Y-16921484D01*
X15827184Y-16921484D02*
X15808136Y-16911960D01*
X15808136Y-16911960D02*
X15798612Y-16902436D01*
X15798612Y-16902436D02*
X15789089Y-16883389D01*
X15789089Y-16883389D02*
X15779565Y-16845293D01*
X15779565Y-16845293D02*
X15779565Y-16797674D01*
X15779565Y-16797674D02*
X15789089Y-16759579D01*
X15789089Y-16759579D02*
X15798612Y-16740531D01*
X15798612Y-16740531D02*
X15808136Y-16731008D01*
X15808136Y-16731008D02*
X15827184Y-16721484D01*
X16017660Y-16721484D02*
X16036708Y-16721484D01*
X16036708Y-16721484D02*
X16055755Y-16731008D01*
X16055755Y-16731008D02*
X16065279Y-16740531D01*
X16065279Y-16740531D02*
X16074803Y-16759579D01*
X16074803Y-16759579D02*
X16084327Y-16797674D01*
X16084327Y-16797674D02*
X16084327Y-16845293D01*
X16084327Y-16845293D02*
X16074803Y-16883389D01*
X16074803Y-16883389D02*
X16065279Y-16902436D01*
X16065279Y-16902436D02*
X16055755Y-16911960D01*
X16055755Y-16911960D02*
X16036708Y-16921484D01*
X16036708Y-16921484D02*
X16017660Y-16921484D01*
X16017660Y-16921484D02*
X15998612Y-16911960D01*
X15998612Y-16911960D02*
X15989089Y-16902436D01*
X15989089Y-16902436D02*
X15979565Y-16883389D01*
X15979565Y-16883389D02*
X15970041Y-16845293D01*
X15970041Y-16845293D02*
X15970041Y-16797674D01*
X15970041Y-16797674D02*
X15979565Y-16759579D01*
X15979565Y-16759579D02*
X15989089Y-16740531D01*
X15989089Y-16740531D02*
X15998612Y-16731008D01*
X15998612Y-16731008D02*
X16017660Y-16721484D01*
X16208136Y-16721484D02*
X16227184Y-16721484D01*
X16227184Y-16721484D02*
X16246232Y-16731008D01*
X16246232Y-16731008D02*
X16255755Y-16740531D01*
X16255755Y-16740531D02*
X16265279Y-16759579D01*
X16265279Y-16759579D02*
X16274803Y-16797674D01*
X16274803Y-16797674D02*
X16274803Y-16845293D01*
X16274803Y-16845293D02*
X16265279Y-16883389D01*
X16265279Y-16883389D02*
X16255755Y-16902436D01*
X16255755Y-16902436D02*
X16246232Y-16911960D01*
X16246232Y-16911960D02*
X16227184Y-16921484D01*
X16227184Y-16921484D02*
X16208136Y-16921484D01*
X16208136Y-16921484D02*
X16189089Y-16911960D01*
X16189089Y-16911960D02*
X16179565Y-16902436D01*
X16179565Y-16902436D02*
X16170041Y-16883389D01*
X16170041Y-16883389D02*
X16160517Y-16845293D01*
X16160517Y-16845293D02*
X16160517Y-16797674D01*
X16160517Y-16797674D02*
X16170041Y-16759579D01*
X16170041Y-16759579D02*
X16179565Y-16740531D01*
X16179565Y-16740531D02*
X16189089Y-16731008D01*
X16189089Y-16731008D02*
X16208136Y-16721484D01*
X16360517Y-16921484D02*
X16360517Y-16788150D01*
X16360517Y-16807198D02*
X16370041Y-16797674D01*
X16370041Y-16797674D02*
X16389089Y-16788150D01*
X16389089Y-16788150D02*
X16417660Y-16788150D01*
X16417660Y-16788150D02*
X16436708Y-16797674D01*
X16436708Y-16797674D02*
X16446232Y-16816722D01*
X16446232Y-16816722D02*
X16446232Y-16921484D01*
X16446232Y-16816722D02*
X16455755Y-16797674D01*
X16455755Y-16797674D02*
X16474803Y-16788150D01*
X16474803Y-16788150D02*
X16503374Y-16788150D01*
X16503374Y-16788150D02*
X16522422Y-16797674D01*
X16522422Y-16797674D02*
X16531946Y-16816722D01*
X16531946Y-16816722D02*
X16531946Y-16921484D01*
X16627184Y-16921484D02*
X16627184Y-16788150D01*
X16627184Y-16807198D02*
X16636708Y-16797674D01*
X16636708Y-16797674D02*
X16655755Y-16788150D01*
X16655755Y-16788150D02*
X16684327Y-16788150D01*
X16684327Y-16788150D02*
X16703374Y-16797674D01*
X16703374Y-16797674D02*
X16712898Y-16816722D01*
X16712898Y-16816722D02*
X16712898Y-16921484D01*
X16712898Y-16816722D02*
X16722422Y-16797674D01*
X16722422Y-16797674D02*
X16741470Y-16788150D01*
X16741470Y-16788150D02*
X16770041Y-16788150D01*
X16770041Y-16788150D02*
X16789089Y-16797674D01*
X16789089Y-16797674D02*
X16798613Y-16816722D01*
X16798613Y-16816722D02*
X16798613Y-16921484D01*
X17189089Y-16711960D02*
X17017660Y-16969103D01*
X17446232Y-16721484D02*
X17465279Y-16721484D01*
X17465279Y-16721484D02*
X17484327Y-16731008D01*
X17484327Y-16731008D02*
X17493851Y-16740531D01*
X17493851Y-16740531D02*
X17503375Y-16759579D01*
X17503375Y-16759579D02*
X17512898Y-16797674D01*
X17512898Y-16797674D02*
X17512898Y-16845293D01*
X17512898Y-16845293D02*
X17503375Y-16883389D01*
X17503375Y-16883389D02*
X17493851Y-16902436D01*
X17493851Y-16902436D02*
X17484327Y-16911960D01*
X17484327Y-16911960D02*
X17465279Y-16921484D01*
X17465279Y-16921484D02*
X17446232Y-16921484D01*
X17446232Y-16921484D02*
X17427184Y-16911960D01*
X17427184Y-16911960D02*
X17417660Y-16902436D01*
X17417660Y-16902436D02*
X17408137Y-16883389D01*
X17408137Y-16883389D02*
X17398613Y-16845293D01*
X17398613Y-16845293D02*
X17398613Y-16797674D01*
X17398613Y-16797674D02*
X17408137Y-16759579D01*
X17408137Y-16759579D02*
X17417660Y-16740531D01*
X17417660Y-16740531D02*
X17427184Y-16731008D01*
X17427184Y-16731008D02*
X17446232Y-16721484D01*
X17598613Y-16902436D02*
X17608137Y-16911960D01*
X17608137Y-16911960D02*
X17598613Y-16921484D01*
X17598613Y-16921484D02*
X17589089Y-16911960D01*
X17589089Y-16911960D02*
X17598613Y-16902436D01*
X17598613Y-16902436D02*
X17598613Y-16921484D01*
X17798613Y-16921484D02*
X17684327Y-16921484D01*
X17741470Y-16921484D02*
X17741470Y-16721484D01*
X17741470Y-16721484D02*
X17722422Y-16750055D01*
X17722422Y-16750055D02*
X17703375Y-16769103D01*
X17703375Y-16769103D02*
X17684327Y-16778627D01*
X17979565Y-16721484D02*
X17884327Y-16721484D01*
X17884327Y-16721484D02*
X17874803Y-16816722D01*
X17874803Y-16816722D02*
X17884327Y-16807198D01*
X17884327Y-16807198D02*
X17903375Y-16797674D01*
X17903375Y-16797674D02*
X17950994Y-16797674D01*
X17950994Y-16797674D02*
X17970041Y-16807198D01*
X17970041Y-16807198D02*
X17979565Y-16816722D01*
X17979565Y-16816722D02*
X17989089Y-16835770D01*
X17989089Y-16835770D02*
X17989089Y-16883389D01*
X17989089Y-16883389D02*
X17979565Y-16902436D01*
X17979565Y-16902436D02*
X17970041Y-16911960D01*
X17970041Y-16911960D02*
X17950994Y-16921484D01*
X17950994Y-16921484D02*
X17903375Y-16921484D01*
X17903375Y-16921484D02*
X17884327Y-16911960D01*
X17884327Y-16911960D02*
X17874803Y-16902436D01*
X18055756Y-16721484D02*
X18189089Y-16721484D01*
X18189089Y-16721484D02*
X18103375Y-16921484D01*
X18360518Y-16721484D02*
X18265279Y-16721484D01*
X18265279Y-16721484D02*
X18255756Y-16816722D01*
X18255756Y-16816722D02*
X18265279Y-16807198D01*
X18265279Y-16807198D02*
X18284327Y-16797674D01*
X18284327Y-16797674D02*
X18331946Y-16797674D01*
X18331946Y-16797674D02*
X18350994Y-16807198D01*
X18350994Y-16807198D02*
X18360518Y-16816722D01*
X18360518Y-16816722D02*
X18370041Y-16835770D01*
X18370041Y-16835770D02*
X18370041Y-16883389D01*
X18370041Y-16883389D02*
X18360518Y-16902436D01*
X18360518Y-16902436D02*
X18350994Y-16911960D01*
X18350994Y-16911960D02*
X18331946Y-16921484D01*
X18331946Y-16921484D02*
X18284327Y-16921484D01*
X18284327Y-16921484D02*
X18265279Y-16911960D01*
X18265279Y-16911960D02*
X18255756Y-16902436D01*
X18446232Y-16721484D02*
X18446232Y-16759579D01*
X18522422Y-16721484D02*
X18522422Y-16759579D01*
X18817661Y-16997674D02*
X18808137Y-16988150D01*
X18808137Y-16988150D02*
X18789089Y-16959579D01*
X18789089Y-16959579D02*
X18779565Y-16940531D01*
X18779565Y-16940531D02*
X18770041Y-16911960D01*
X18770041Y-16911960D02*
X18760518Y-16864341D01*
X18760518Y-16864341D02*
X18760518Y-16826246D01*
X18760518Y-16826246D02*
X18770041Y-16778627D01*
X18770041Y-16778627D02*
X18779565Y-16750055D01*
X18779565Y-16750055D02*
X18789089Y-16731008D01*
X18789089Y-16731008D02*
X18808137Y-16702436D01*
X18808137Y-16702436D02*
X18817661Y-16692912D01*
X18998613Y-16921484D02*
X18884327Y-16921484D01*
X18941470Y-16921484D02*
X18941470Y-16721484D01*
X18941470Y-16721484D02*
X18922422Y-16750055D01*
X18922422Y-16750055D02*
X18903375Y-16769103D01*
X18903375Y-16769103D02*
X18884327Y-16778627D01*
X19112899Y-16807198D02*
X19093851Y-16797674D01*
X19093851Y-16797674D02*
X19084327Y-16788150D01*
X19084327Y-16788150D02*
X19074803Y-16769103D01*
X19074803Y-16769103D02*
X19074803Y-16759579D01*
X19074803Y-16759579D02*
X19084327Y-16740531D01*
X19084327Y-16740531D02*
X19093851Y-16731008D01*
X19093851Y-16731008D02*
X19112899Y-16721484D01*
X19112899Y-16721484D02*
X19150994Y-16721484D01*
X19150994Y-16721484D02*
X19170041Y-16731008D01*
X19170041Y-16731008D02*
X19179565Y-16740531D01*
X19179565Y-16740531D02*
X19189089Y-16759579D01*
X19189089Y-16759579D02*
X19189089Y-16769103D01*
X19189089Y-16769103D02*
X19179565Y-16788150D01*
X19179565Y-16788150D02*
X19170041Y-16797674D01*
X19170041Y-16797674D02*
X19150994Y-16807198D01*
X19150994Y-16807198D02*
X19112899Y-16807198D01*
X19112899Y-16807198D02*
X19093851Y-16816722D01*
X19093851Y-16816722D02*
X19084327Y-16826246D01*
X19084327Y-16826246D02*
X19074803Y-16845293D01*
X19074803Y-16845293D02*
X19074803Y-16883389D01*
X19074803Y-16883389D02*
X19084327Y-16902436D01*
X19084327Y-16902436D02*
X19093851Y-16911960D01*
X19093851Y-16911960D02*
X19112899Y-16921484D01*
X19112899Y-16921484D02*
X19150994Y-16921484D01*
X19150994Y-16921484D02*
X19170041Y-16911960D01*
X19170041Y-16911960D02*
X19179565Y-16902436D01*
X19179565Y-16902436D02*
X19189089Y-16883389D01*
X19189089Y-16883389D02*
X19189089Y-16845293D01*
X19189089Y-16845293D02*
X19179565Y-16826246D01*
X19179565Y-16826246D02*
X19170041Y-16816722D01*
X19170041Y-16816722D02*
X19150994Y-16807198D01*
X19427184Y-16921484D02*
X19427184Y-16721484D01*
X19512899Y-16921484D02*
X19512899Y-16816722D01*
X19512899Y-16816722D02*
X19503375Y-16797674D01*
X19503375Y-16797674D02*
X19484327Y-16788150D01*
X19484327Y-16788150D02*
X19455756Y-16788150D01*
X19455756Y-16788150D02*
X19436708Y-16797674D01*
X19436708Y-16797674D02*
X19427184Y-16807198D01*
X19636708Y-16921484D02*
X19617661Y-16911960D01*
X19617661Y-16911960D02*
X19608137Y-16902436D01*
X19608137Y-16902436D02*
X19598613Y-16883389D01*
X19598613Y-16883389D02*
X19598613Y-16826246D01*
X19598613Y-16826246D02*
X19608137Y-16807198D01*
X19608137Y-16807198D02*
X19617661Y-16797674D01*
X19617661Y-16797674D02*
X19636708Y-16788150D01*
X19636708Y-16788150D02*
X19665280Y-16788150D01*
X19665280Y-16788150D02*
X19684327Y-16797674D01*
X19684327Y-16797674D02*
X19693851Y-16807198D01*
X19693851Y-16807198D02*
X19703375Y-16826246D01*
X19703375Y-16826246D02*
X19703375Y-16883389D01*
X19703375Y-16883389D02*
X19693851Y-16902436D01*
X19693851Y-16902436D02*
X19684327Y-16911960D01*
X19684327Y-16911960D02*
X19665280Y-16921484D01*
X19665280Y-16921484D02*
X19636708Y-16921484D01*
X19817661Y-16921484D02*
X19798613Y-16911960D01*
X19798613Y-16911960D02*
X19789089Y-16892912D01*
X19789089Y-16892912D02*
X19789089Y-16721484D01*
X19970042Y-16911960D02*
X19950994Y-16921484D01*
X19950994Y-16921484D02*
X19912899Y-16921484D01*
X19912899Y-16921484D02*
X19893851Y-16911960D01*
X19893851Y-16911960D02*
X19884327Y-16892912D01*
X19884327Y-16892912D02*
X19884327Y-16816722D01*
X19884327Y-16816722D02*
X19893851Y-16797674D01*
X19893851Y-16797674D02*
X19912899Y-16788150D01*
X19912899Y-16788150D02*
X19950994Y-16788150D01*
X19950994Y-16788150D02*
X19970042Y-16797674D01*
X19970042Y-16797674D02*
X19979565Y-16816722D01*
X19979565Y-16816722D02*
X19979565Y-16835770D01*
X19979565Y-16835770D02*
X19884327Y-16854817D01*
X20055756Y-16911960D02*
X20074803Y-16921484D01*
X20074803Y-16921484D02*
X20112899Y-16921484D01*
X20112899Y-16921484D02*
X20131946Y-16911960D01*
X20131946Y-16911960D02*
X20141470Y-16892912D01*
X20141470Y-16892912D02*
X20141470Y-16883389D01*
X20141470Y-16883389D02*
X20131946Y-16864341D01*
X20131946Y-16864341D02*
X20112899Y-16854817D01*
X20112899Y-16854817D02*
X20084327Y-16854817D01*
X20084327Y-16854817D02*
X20065280Y-16845293D01*
X20065280Y-16845293D02*
X20055756Y-16826246D01*
X20055756Y-16826246D02*
X20055756Y-16816722D01*
X20055756Y-16816722D02*
X20065280Y-16797674D01*
X20065280Y-16797674D02*
X20084327Y-16788150D01*
X20084327Y-16788150D02*
X20112899Y-16788150D01*
X20112899Y-16788150D02*
X20131946Y-16797674D01*
X20208137Y-16997674D02*
X20217661Y-16988150D01*
X20217661Y-16988150D02*
X20236708Y-16959579D01*
X20236708Y-16959579D02*
X20246232Y-16940531D01*
X20246232Y-16940531D02*
X20255756Y-16911960D01*
X20255756Y-16911960D02*
X20265280Y-16864341D01*
X20265280Y-16864341D02*
X20265280Y-16826246D01*
X20265280Y-16826246D02*
X20255756Y-16778627D01*
X20255756Y-16778627D02*
X20246232Y-16750055D01*
X20246232Y-16750055D02*
X20236708Y-16731008D01*
X20236708Y-16731008D02*
X20217661Y-16702436D01*
X20217661Y-16702436D02*
X20208137Y-16692912D01*
X20570042Y-16997674D02*
X20560518Y-16988150D01*
X20560518Y-16988150D02*
X20541470Y-16959579D01*
X20541470Y-16959579D02*
X20531946Y-16940531D01*
X20531946Y-16940531D02*
X20522423Y-16911960D01*
X20522423Y-16911960D02*
X20512899Y-16864341D01*
X20512899Y-16864341D02*
X20512899Y-16826246D01*
X20512899Y-16826246D02*
X20522423Y-16778627D01*
X20522423Y-16778627D02*
X20531946Y-16750055D01*
X20531946Y-16750055D02*
X20541470Y-16731008D01*
X20541470Y-16731008D02*
X20560518Y-16702436D01*
X20560518Y-16702436D02*
X20570042Y-16692912D01*
X20646232Y-16788150D02*
X20646232Y-16921484D01*
X20646232Y-16807198D02*
X20655756Y-16797674D01*
X20655756Y-16797674D02*
X20674803Y-16788150D01*
X20674803Y-16788150D02*
X20703375Y-16788150D01*
X20703375Y-16788150D02*
X20722423Y-16797674D01*
X20722423Y-16797674D02*
X20731946Y-16816722D01*
X20731946Y-16816722D02*
X20731946Y-16921484D01*
X20855756Y-16921484D02*
X20836708Y-16911960D01*
X20836708Y-16911960D02*
X20827184Y-16902436D01*
X20827184Y-16902436D02*
X20817661Y-16883389D01*
X20817661Y-16883389D02*
X20817661Y-16826246D01*
X20817661Y-16826246D02*
X20827184Y-16807198D01*
X20827184Y-16807198D02*
X20836708Y-16797674D01*
X20836708Y-16797674D02*
X20855756Y-16788150D01*
X20855756Y-16788150D02*
X20884327Y-16788150D01*
X20884327Y-16788150D02*
X20903375Y-16797674D01*
X20903375Y-16797674D02*
X20912899Y-16807198D01*
X20912899Y-16807198D02*
X20922423Y-16826246D01*
X20922423Y-16826246D02*
X20922423Y-16883389D01*
X20922423Y-16883389D02*
X20912899Y-16902436D01*
X20912899Y-16902436D02*
X20903375Y-16911960D01*
X20903375Y-16911960D02*
X20884327Y-16921484D01*
X20884327Y-16921484D02*
X20855756Y-16921484D01*
X20979565Y-16788150D02*
X21055756Y-16788150D01*
X21008137Y-16721484D02*
X21008137Y-16892912D01*
X21008137Y-16892912D02*
X21017661Y-16911960D01*
X21017661Y-16911960D02*
X21036708Y-16921484D01*
X21036708Y-16921484D02*
X21055756Y-16921484D01*
X21274804Y-16788150D02*
X21274804Y-16988150D01*
X21274804Y-16797674D02*
X21293851Y-16788150D01*
X21293851Y-16788150D02*
X21331946Y-16788150D01*
X21331946Y-16788150D02*
X21350994Y-16797674D01*
X21350994Y-16797674D02*
X21360518Y-16807198D01*
X21360518Y-16807198D02*
X21370042Y-16826246D01*
X21370042Y-16826246D02*
X21370042Y-16883389D01*
X21370042Y-16883389D02*
X21360518Y-16902436D01*
X21360518Y-16902436D02*
X21350994Y-16911960D01*
X21350994Y-16911960D02*
X21331946Y-16921484D01*
X21331946Y-16921484D02*
X21293851Y-16921484D01*
X21293851Y-16921484D02*
X21274804Y-16911960D01*
X21484327Y-16921484D02*
X21465280Y-16911960D01*
X21465280Y-16911960D02*
X21455756Y-16892912D01*
X21455756Y-16892912D02*
X21455756Y-16721484D01*
X21646232Y-16921484D02*
X21646232Y-16816722D01*
X21646232Y-16816722D02*
X21636708Y-16797674D01*
X21636708Y-16797674D02*
X21617661Y-16788150D01*
X21617661Y-16788150D02*
X21579565Y-16788150D01*
X21579565Y-16788150D02*
X21560518Y-16797674D01*
X21646232Y-16911960D02*
X21627185Y-16921484D01*
X21627185Y-16921484D02*
X21579565Y-16921484D01*
X21579565Y-16921484D02*
X21560518Y-16911960D01*
X21560518Y-16911960D02*
X21550994Y-16892912D01*
X21550994Y-16892912D02*
X21550994Y-16873865D01*
X21550994Y-16873865D02*
X21560518Y-16854817D01*
X21560518Y-16854817D02*
X21579565Y-16845293D01*
X21579565Y-16845293D02*
X21627185Y-16845293D01*
X21627185Y-16845293D02*
X21646232Y-16835770D01*
X21712899Y-16788150D02*
X21789089Y-16788150D01*
X21741470Y-16721484D02*
X21741470Y-16892912D01*
X21741470Y-16892912D02*
X21750994Y-16911960D01*
X21750994Y-16911960D02*
X21770042Y-16921484D01*
X21770042Y-16921484D02*
X21789089Y-16921484D01*
X21931946Y-16911960D02*
X21912899Y-16921484D01*
X21912899Y-16921484D02*
X21874804Y-16921484D01*
X21874804Y-16921484D02*
X21855756Y-16911960D01*
X21855756Y-16911960D02*
X21846232Y-16892912D01*
X21846232Y-16892912D02*
X21846232Y-16816722D01*
X21846232Y-16816722D02*
X21855756Y-16797674D01*
X21855756Y-16797674D02*
X21874804Y-16788150D01*
X21874804Y-16788150D02*
X21912899Y-16788150D01*
X21912899Y-16788150D02*
X21931946Y-16797674D01*
X21931946Y-16797674D02*
X21941470Y-16816722D01*
X21941470Y-16816722D02*
X21941470Y-16835770D01*
X21941470Y-16835770D02*
X21846232Y-16854817D01*
X22112899Y-16921484D02*
X22112899Y-16721484D01*
X22112899Y-16911960D02*
X22093851Y-16921484D01*
X22093851Y-16921484D02*
X22055756Y-16921484D01*
X22055756Y-16921484D02*
X22036708Y-16911960D01*
X22036708Y-16911960D02*
X22027185Y-16902436D01*
X22027185Y-16902436D02*
X22017661Y-16883389D01*
X22017661Y-16883389D02*
X22017661Y-16826246D01*
X22017661Y-16826246D02*
X22027185Y-16807198D01*
X22027185Y-16807198D02*
X22036708Y-16797674D01*
X22036708Y-16797674D02*
X22055756Y-16788150D01*
X22055756Y-16788150D02*
X22093851Y-16788150D01*
X22093851Y-16788150D02*
X22112899Y-16797674D01*
X22189089Y-16997674D02*
X22198613Y-16988150D01*
X22198613Y-16988150D02*
X22217661Y-16959579D01*
X22217661Y-16959579D02*
X22227185Y-16940531D01*
X22227185Y-16940531D02*
X22236708Y-16911960D01*
X22236708Y-16911960D02*
X22246232Y-16864341D01*
X22246232Y-16864341D02*
X22246232Y-16826246D01*
X22246232Y-16826246D02*
X22236708Y-16778627D01*
X22236708Y-16778627D02*
X22227185Y-16750055D01*
X22227185Y-16750055D02*
X22217661Y-16731008D01*
X22217661Y-16731008D02*
X22198613Y-16702436D01*
X22198613Y-16702436D02*
X22189089Y-16692912D01*
M02*
