%TF.GenerationSoftware,KiCad,Pcbnew,7.0.7*%
%TF.CreationDate,2023-11-23T18:27:24-07:00*%
%TF.ProjectId,TypeStationX - Right,54797065-5374-4617-9469-6f6e58202d20,rev?*%
%TF.SameCoordinates,Original*%
%TF.FileFunction,Copper,L1,Top*%
%TF.FilePolarity,Positive*%
%FSLAX46Y46*%
G04 Gerber Fmt 4.6, Leading zero omitted, Abs format (unit mm)*
G04 Created by KiCad (PCBNEW 7.0.7) date 2023-11-23 18:27:24*
%MOMM*%
%LPD*%
G01*
G04 APERTURE LIST*
G04 Aperture macros list*
%AMHorizOval*
0 Thick line with rounded ends*
0 $1 width*
0 $2 $3 position (X,Y) of the first rounded end (center of the circle)*
0 $4 $5 position (X,Y) of the second rounded end (center of the circle)*
0 Add line between two ends*
20,1,$1,$2,$3,$4,$5,0*
0 Add two circle primitives to create the rounded ends*
1,1,$1,$2,$3*
1,1,$1,$4,$5*%
%AMRotRect*
0 Rectangle, with rotation*
0 The origin of the aperture is its center*
0 $1 length*
0 $2 width*
0 $3 Rotation angle, in degrees counterclockwise*
0 Add horizontal line*
21,1,$1,$2,0,0,$3*%
G04 Aperture macros list end*
%TA.AperFunction,ComponentPad*%
%ADD10C,2.500000*%
%TD*%
%TA.AperFunction,ComponentPad*%
%ADD11R,1.300000X1.778000*%
%TD*%
%TA.AperFunction,ComponentPad*%
%ADD12O,1.300000X1.778000*%
%TD*%
%TA.AperFunction,ComponentPad*%
%ADD13RotRect,1.778000X1.300000X96.000000*%
%TD*%
%TA.AperFunction,ComponentPad*%
%ADD14HorizOval,1.300000X-0.024982X0.237691X0.024982X-0.237691X0*%
%TD*%
%TA.AperFunction,ComponentPad*%
%ADD15RotRect,1.778000X1.300000X85.000000*%
%TD*%
%TA.AperFunction,ComponentPad*%
%ADD16HorizOval,1.300000X0.020830X0.238091X-0.020830X-0.238091X0*%
%TD*%
%TA.AperFunction,ComponentPad*%
%ADD17RotRect,1.778000X1.300000X109.000000*%
%TD*%
%TA.AperFunction,ComponentPad*%
%ADD18HorizOval,1.300000X-0.077811X0.225979X0.077811X-0.225979X0*%
%TD*%
%TA.AperFunction,ComponentPad*%
%ADD19R,1.700000X1.700000*%
%TD*%
%TA.AperFunction,ComponentPad*%
%ADD20O,1.700000X1.700000*%
%TD*%
%TA.AperFunction,ComponentPad*%
%ADD21RotRect,1.778000X1.300000X122.000000*%
%TD*%
%TA.AperFunction,ComponentPad*%
%ADD22HorizOval,1.300000X-0.126651X0.202683X0.126651X-0.202683X0*%
%TD*%
%TA.AperFunction,ViaPad*%
%ADD23C,0.800000*%
%TD*%
%TA.AperFunction,Conductor*%
%ADD24C,0.250000*%
%TD*%
G04 APERTURE END LIST*
D10*
%TO.P,S31,1,1*%
%TO.N,C9R*%
X246645964Y-92159079D03*
%TO.P,S31,2,2*%
%TO.N,Net-(D30-A)*%
X252995964Y-89619079D03*
%TD*%
%TO.P,S22,1,1*%
%TO.N,C7R*%
X208645964Y-55159079D03*
%TO.P,S22,2,2*%
%TO.N,Net-(D21-A)*%
X214995964Y-52619079D03*
%TD*%
%TO.P,S25,1,1*%
%TO.N,C8R*%
X227645964Y-49159079D03*
%TO.P,S25,2,2*%
%TO.N,Net-(D24-A)*%
X233995964Y-46619079D03*
%TD*%
%TO.P,S28,1,1*%
%TO.N,C6R*%
X161302797Y-145706554D03*
%TO.P,S28,2,2*%
%TO.N,Net-(D27-A)*%
X165341907Y-140187525D03*
%TD*%
%TO.P,S34,1,1*%
%TO.N,C10R*%
X268325996Y-83451675D03*
%TO.P,S34,2,2*%
%TO.N,Net-(D33-A)*%
X274873208Y-81474780D03*
%TD*%
%TO.P,S23,1,1*%
%TO.N,C7R*%
X208645964Y-74159079D03*
%TO.P,S23,2,2*%
%TO.N,Net-(D22-A)*%
X214995964Y-71619079D03*
%TD*%
%TO.P,S30,1,1*%
%TO.N,C9R*%
X246645964Y-73159079D03*
%TO.P,S30,2,2*%
%TO.N,Net-(D29-A)*%
X252995964Y-70619079D03*
%TD*%
%TO.P,S19,1,1*%
%TO.N,C6R*%
X189645962Y-61159079D03*
%TO.P,S19,2,2*%
%TO.N,Net-(D19-A)*%
X195995962Y-58619079D03*
%TD*%
%TO.P,S26,1,1*%
%TO.N,C8R*%
X227645964Y-68159079D03*
%TO.P,S26,2,2*%
%TO.N,Net-(D25-A)*%
X233995964Y-65619079D03*
%TD*%
%TO.P,S21,1,1*%
%TO.N,C6R*%
X189645962Y-99159079D03*
%TO.P,S21,2,2*%
%TO.N,Net-(D36-A)*%
X195995962Y-96619079D03*
%TD*%
%TO.P,S32,1,1*%
%TO.N,C7R*%
X182633974Y-134742791D03*
%TO.P,S32,2,2*%
%TO.N,Net-(D31-A)*%
X187811074Y-130273817D03*
%TD*%
%TO.P,S27,1,1*%
%TO.N,C8R*%
X227645964Y-87159079D03*
%TO.P,S27,2,2*%
%TO.N,Net-(D26-A)*%
X233995964Y-84619079D03*
%TD*%
%TO.P,S35,1,1*%
%TO.N,C10R*%
X266677980Y-102449094D03*
%TO.P,S35,2,2*%
%TO.N,Net-(D34-A)*%
X273225192Y-100472199D03*
%TD*%
%TO.P,S20,1,1*%
%TO.N,C6R*%
X189645962Y-80159079D03*
%TO.P,S20,2,2*%
%TO.N,Net-(D20-A)*%
X195995962Y-77619079D03*
%TD*%
%TO.P,S29,1,1*%
%TO.N,C9R*%
X246645964Y-54159079D03*
%TO.P,S29,2,2*%
%TO.N,Net-(D28-A)*%
X252995964Y-51619079D03*
%TD*%
%TO.P,S33,1,1*%
%TO.N,C10R*%
X269935221Y-64545574D03*
%TO.P,S33,2,2*%
%TO.N,Net-(D32-A)*%
X276482433Y-62568679D03*
%TD*%
%TO.P,S36,1,1*%
%TO.N,C8R*%
X205406400Y-128620769D03*
%TO.P,S36,2,2*%
%TO.N,Net-(D35-A)*%
X211456112Y-125430927D03*
%TD*%
%TO.P,S24,1,1*%
%TO.N,C7R*%
X208645964Y-93159079D03*
%TO.P,S24,2,2*%
%TO.N,Net-(D23-A)*%
X214995964Y-90619079D03*
%TD*%
D11*
%TO.P,D19,1,K*%
%TO.N,R4R*%
X201723227Y-66699079D03*
D12*
%TO.P,D19,2,A*%
%TO.N,Net-(D19-A)*%
X201723227Y-60699079D03*
%TD*%
D11*
%TO.P,D23,1,K*%
%TO.N,R2R*%
X220723227Y-98699079D03*
D12*
%TO.P,D23,2,A*%
%TO.N,Net-(D23-A)*%
X220723227Y-92699079D03*
%TD*%
D11*
%TO.P,D28,1,K*%
%TO.N,R4R*%
X258723227Y-59695448D03*
D12*
%TO.P,D28,2,A*%
%TO.N,Net-(D28-A)*%
X258723227Y-53695448D03*
%TD*%
D11*
%TO.P,D20,1,K*%
%TO.N,R3R*%
X201523227Y-85699079D03*
D12*
%TO.P,D20,2,A*%
%TO.N,Net-(D20-A)*%
X201523227Y-79699079D03*
%TD*%
D11*
%TO.P,D29,1,K*%
%TO.N,R3R*%
X258723227Y-78695448D03*
D12*
%TO.P,D29,2,A*%
%TO.N,Net-(D29-A)*%
X258723227Y-72695448D03*
%TD*%
D11*
%TO.P,D36,1,K*%
%TO.N,R2R*%
X201123227Y-104699079D03*
D12*
%TO.P,D36,2,A*%
%TO.N,Net-(D36-A)*%
X201123227Y-98699079D03*
%TD*%
D13*
%TO.P,D35,1,K*%
%TO.N,R1R*%
X217992546Y-132868428D03*
D14*
%TO.P,D35,2,A*%
%TO.N,Net-(D35-A)*%
X217365376Y-126901296D03*
%TD*%
D15*
%TO.P,D34,1,K*%
%TO.N,R2R*%
X278189688Y-109017399D03*
D16*
%TO.P,D34,2,A*%
%TO.N,Net-(D34-A)*%
X278712622Y-103040231D03*
%TD*%
D15*
%TO.P,D32,1,K*%
%TO.N,R4R*%
X281431367Y-71112518D03*
D16*
%TO.P,D32,2,A*%
%TO.N,Net-(D32-A)*%
X281954301Y-65135350D03*
%TD*%
D17*
%TO.P,D31,1,K*%
%TO.N,R1R*%
X195784455Y-136073937D03*
D18*
%TO.P,D31,2,A*%
%TO.N,Net-(D31-A)*%
X193831047Y-130400825D03*
%TD*%
D11*
%TO.P,D22,1,K*%
%TO.N,R3R*%
X220723227Y-79695448D03*
D12*
%TO.P,D22,2,A*%
%TO.N,Net-(D22-A)*%
X220723227Y-73695448D03*
%TD*%
D15*
%TO.P,D33,1,K*%
%TO.N,R3R*%
X279938688Y-90028816D03*
D16*
%TO.P,D33,2,A*%
%TO.N,Net-(D33-A)*%
X280461622Y-84051648D03*
%TD*%
D11*
%TO.P,D21,1,K*%
%TO.N,R4R*%
X220723227Y-60699079D03*
D12*
%TO.P,D21,2,A*%
%TO.N,Net-(D21-A)*%
X220723227Y-54699079D03*
%TD*%
D19*
%TO.P,J2,1,Pin_1*%
%TO.N,C10R*%
X181275976Y-124000000D03*
D20*
%TO.P,J2,2,Pin_2*%
%TO.N,C9R*%
X181275976Y-120000000D03*
%TO.P,J2,3,Pin_3*%
%TO.N,C8R*%
X181275976Y-116000000D03*
%TO.P,J2,4,Pin_4*%
%TO.N,C7R*%
X181275976Y-112000000D03*
%TO.P,J2,5,Pin_5*%
%TO.N,C6R*%
X181275976Y-108000000D03*
%TO.P,J2,6,Pin_6*%
%TO.N,R4R*%
X181275976Y-104000000D03*
%TO.P,J2,7,Pin_7*%
%TO.N,R3R*%
X181275976Y-100000000D03*
%TO.P,J2,8,Pin_8*%
%TO.N,R2R*%
X181275976Y-96000000D03*
%TO.P,J2,9,Pin_9*%
%TO.N,R1R*%
X181275976Y-92000000D03*
%TD*%
D11*
%TO.P,D25,1,K*%
%TO.N,R3R*%
X239723227Y-73699079D03*
D12*
%TO.P,D25,2,A*%
%TO.N,Net-(D25-A)*%
X239723227Y-67699079D03*
%TD*%
D21*
%TO.P,D27,1,K*%
%TO.N,R1R*%
X174612914Y-143922118D03*
D22*
%TO.P,D27,2,A*%
%TO.N,Net-(D27-A)*%
X171433398Y-138833830D03*
%TD*%
D11*
%TO.P,D24,1,K*%
%TO.N,R4R*%
X239723227Y-54699079D03*
D12*
%TO.P,D24,2,A*%
%TO.N,Net-(D24-A)*%
X239723227Y-48699079D03*
%TD*%
D11*
%TO.P,D26,1,K*%
%TO.N,R2R*%
X239723227Y-92699079D03*
D12*
%TO.P,D26,2,A*%
%TO.N,Net-(D26-A)*%
X239723227Y-86699079D03*
%TD*%
D11*
%TO.P,D30,1,K*%
%TO.N,R2R*%
X258723227Y-97699079D03*
D12*
%TO.P,D30,2,A*%
%TO.N,Net-(D30-A)*%
X258723227Y-91699079D03*
%TD*%
D23*
%TO.N,C10R*%
X262423227Y-104899079D03*
%TO.N,C9R*%
X247323227Y-98423579D03*
%TO.N,C8R*%
X184623227Y-124799079D03*
%TD*%
D24*
%TO.N,C10R*%
X262423227Y-104899079D02*
X264873212Y-102449094D01*
X268325996Y-100801078D02*
X268325996Y-83451675D01*
X269935221Y-81842450D02*
X268325996Y-83451675D01*
X269935221Y-64545574D02*
X269935221Y-81842450D01*
X264873212Y-102449094D02*
X266677980Y-102449094D01*
X266677980Y-102449094D02*
X268325996Y-100801078D01*
%TO.N,C9R*%
X247323227Y-98423579D02*
X247323227Y-92836342D01*
X246645964Y-54159079D02*
X246645964Y-92159079D01*
X247323227Y-92836342D02*
X246645964Y-92159079D01*
%TO.N,C8R*%
X184623227Y-119347251D02*
X181275976Y-116000000D01*
X225123227Y-105699079D02*
X227645964Y-103176342D01*
X205406400Y-128620769D02*
X205406400Y-117792799D01*
X227645964Y-103176342D02*
X227645964Y-87159079D01*
X205406400Y-117792799D02*
X217500120Y-105699079D01*
X184623227Y-124799079D02*
X184623227Y-119347251D01*
X217500120Y-105699079D02*
X225123227Y-105699079D01*
X227645964Y-49159079D02*
X227645964Y-87159079D01*
%TO.N,C7R*%
X208645964Y-113676342D02*
X208645964Y-93159079D01*
X188793312Y-133528994D02*
X208645964Y-113676342D01*
X183847771Y-133528994D02*
X188793312Y-133528994D01*
X208645964Y-55159079D02*
X208645964Y-93159079D01*
X182633974Y-134742791D02*
X183847771Y-133528994D01*
%TO.N,C6R*%
X189645962Y-124676344D02*
X189645962Y-99159079D01*
X168023227Y-149099079D02*
X172123227Y-144999079D01*
X165023227Y-149099079D02*
X168023227Y-149099079D01*
X163223227Y-147299079D02*
X165023227Y-149099079D01*
X172123227Y-142199079D02*
X189645962Y-124676344D01*
X161302797Y-145706554D02*
X163223227Y-145706554D01*
X172123227Y-144999079D02*
X172123227Y-142199079D01*
X189645962Y-99159079D02*
X189645962Y-61159079D01*
X163223227Y-145706554D02*
X163223227Y-147299079D01*
%TD*%
M02*
