M48
; DRILL file {KiCad 7.0.7} date Thu Nov 23 18:27:26 2023
; FORMAT={-:-/ absolute / metric / decimal}
; #@! TF.CreationDate,2023-11-23T18:27:26-07:00
; #@! TF.GenerationSoftware,Kicad,Pcbnew,7.0.7
; #@! TF.FileFunction,Plated,1,2,PTH
FMAT,2
METRIC
; #@! TA.AperFunction,Plated,PTH,ViaDrill
T1C0.400
; #@! TA.AperFunction,Plated,PTH,ComponentDrill
T2C0.813
; #@! TA.AperFunction,Plated,PTH,ComponentDrill
T3C1.000
; #@! TA.AperFunction,Plated,PTH,ComponentDrill
T4C1.500
%
G90
G05
T1
X184.623Y-124.799
X247.323Y-98.424
X262.423Y-104.899
T2
X171.433Y-138.834
X174.613Y-143.922
X193.831Y-130.401
X195.784Y-136.074
X201.123Y-98.699
X201.123Y-104.699
X201.523Y-79.699
X201.523Y-85.699
X201.723Y-60.699
X201.723Y-66.699
X217.365Y-126.901
X217.993Y-132.868
X220.723Y-54.699
X220.723Y-60.699
X220.723Y-73.695
X220.723Y-79.695
X220.723Y-92.699
X220.723Y-98.699
X239.723Y-48.699
X239.723Y-54.699
X239.723Y-67.699
X239.723Y-73.699
X239.723Y-86.699
X239.723Y-92.699
X258.723Y-53.695
X258.723Y-59.695
X258.723Y-72.695
X258.723Y-78.695
X258.723Y-91.699
X258.723Y-97.699
X278.19Y-109.017
X278.713Y-103.04
X279.939Y-90.029
X280.462Y-84.052
X281.431Y-71.113
X281.954Y-65.135
T3
X181.276Y-92.0
X181.276Y-96.0
X181.276Y-100.0
X181.276Y-104.0
X181.276Y-108.0
X181.276Y-112.0
X181.276Y-116.0
X181.276Y-120.0
X181.276Y-124.0
T4
X161.303Y-145.707
X165.342Y-140.188
X182.634Y-134.743
X187.811Y-130.274
X189.646Y-61.159
X189.646Y-80.159
X189.646Y-99.159
X195.996Y-58.619
X195.996Y-77.619
X195.996Y-96.619
X205.406Y-128.621
X208.646Y-55.159
X208.646Y-74.159
X208.646Y-93.159
X211.456Y-125.431
X214.996Y-52.619
X214.996Y-71.619
X214.996Y-90.619
X227.646Y-49.159
X227.646Y-68.159
X227.646Y-87.159
X233.996Y-46.619
X233.996Y-65.619
X233.996Y-84.619
X246.646Y-54.159
X246.646Y-73.159
X246.646Y-92.159
X252.996Y-51.619
X252.996Y-70.619
X252.996Y-89.619
X266.678Y-102.449
X268.326Y-83.452
X269.935Y-64.546
X273.225Y-100.472
X274.873Y-81.475
X276.482Y-62.569
T0
M30
