%TF.GenerationSoftware,KiCad,Pcbnew,7.0.7*%
%TF.CreationDate,2023-09-27T07:48:00-06:00*%
%TF.ProjectId,keyboard - right,6b657962-6f61-4726-9420-2d2072696768,rev?*%
%TF.SameCoordinates,Original*%
%TF.FileFunction,Copper,L2,Bot*%
%TF.FilePolarity,Positive*%
%FSLAX46Y46*%
G04 Gerber Fmt 4.6, Leading zero omitted, Abs format (unit mm)*
G04 Created by KiCad (PCBNEW 7.0.7) date 2023-09-27 07:48:00*
%MOMM*%
%LPD*%
G01*
G04 APERTURE LIST*
%TA.AperFunction,ComponentPad*%
%ADD10C,2.500000*%
%TD*%
%TA.AperFunction,ComponentPad*%
%ADD11R,1.700000X1.700000*%
%TD*%
%TA.AperFunction,ComponentPad*%
%ADD12O,1.700000X1.700000*%
%TD*%
%TA.AperFunction,ViaPad*%
%ADD13C,0.800000*%
%TD*%
%TA.AperFunction,Conductor*%
%ADD14C,0.250000*%
%TD*%
G04 APERTURE END LIST*
D10*
%TO.P,S31,1,1*%
%TO.N,C9*%
X246645964Y-92159079D03*
%TO.P,S31,2,2*%
%TO.N,Net-(D30-A)*%
X252995964Y-89619079D03*
%TD*%
%TO.P,S22,1,1*%
%TO.N,C7*%
X208645964Y-55159079D03*
%TO.P,S22,2,2*%
%TO.N,Net-(D21-A)*%
X214995964Y-52619079D03*
%TD*%
%TO.P,S25,1,1*%
%TO.N,C8*%
X227645964Y-49159079D03*
%TO.P,S25,2,2*%
%TO.N,Net-(D24-A)*%
X233995964Y-46619079D03*
%TD*%
%TO.P,S28,1,1*%
%TO.N,C6*%
X161302797Y-145706554D03*
%TO.P,S28,2,2*%
%TO.N,Net-(D27-A)*%
X165341907Y-140187525D03*
%TD*%
%TO.P,S34,1,1*%
%TO.N,C10*%
X268325996Y-83451675D03*
%TO.P,S34,2,2*%
%TO.N,Net-(D33-A)*%
X274873208Y-81474780D03*
%TD*%
%TO.P,S23,1,1*%
%TO.N,C7*%
X208645964Y-74159079D03*
%TO.P,S23,2,2*%
%TO.N,Net-(D22-A)*%
X214995964Y-71619079D03*
%TD*%
%TO.P,S30,1,1*%
%TO.N,C9*%
X246645964Y-73159079D03*
%TO.P,S30,2,2*%
%TO.N,Net-(D29-A)*%
X252995964Y-70619079D03*
%TD*%
%TO.P,S19,1,1*%
%TO.N,C6*%
X189645962Y-61159079D03*
%TO.P,S19,2,2*%
%TO.N,Net-(D19-A)*%
X195995962Y-58619079D03*
%TD*%
%TO.P,S26,1,1*%
%TO.N,C8*%
X227645964Y-68159079D03*
%TO.P,S26,2,2*%
%TO.N,Net-(D25-A)*%
X233995964Y-65619079D03*
%TD*%
%TO.P,S21,1,1*%
%TO.N,C6*%
X189645962Y-99159079D03*
%TO.P,S21,2,2*%
%TO.N,Net-(D36-A)*%
X195995962Y-96619079D03*
%TD*%
%TO.P,S32,1,1*%
%TO.N,C7*%
X182633974Y-134742791D03*
%TO.P,S32,2,2*%
%TO.N,Net-(D31-A)*%
X187811074Y-130273817D03*
%TD*%
%TO.P,S27,1,1*%
%TO.N,C8*%
X227645964Y-87159079D03*
%TO.P,S27,2,2*%
%TO.N,Net-(D26-A)*%
X233995964Y-84619079D03*
%TD*%
%TO.P,S35,1,1*%
%TO.N,C10*%
X266677980Y-102449094D03*
%TO.P,S35,2,2*%
%TO.N,Net-(D34-A)*%
X273225192Y-100472199D03*
%TD*%
%TO.P,S20,1,1*%
%TO.N,C6*%
X189645962Y-80159079D03*
%TO.P,S20,2,2*%
%TO.N,Net-(D20-A)*%
X195995962Y-77619079D03*
%TD*%
%TO.P,S29,1,1*%
%TO.N,C9*%
X246645964Y-54159079D03*
%TO.P,S29,2,2*%
%TO.N,Net-(D28-A)*%
X252995964Y-51619079D03*
%TD*%
%TO.P,S33,1,1*%
%TO.N,C10*%
X269935221Y-64545574D03*
%TO.P,S33,2,2*%
%TO.N,Net-(D32-A)*%
X276482433Y-62568679D03*
%TD*%
%TO.P,S36,1,1*%
%TO.N,C8*%
X205406400Y-128620769D03*
%TO.P,S36,2,2*%
%TO.N,Net-(D35-A)*%
X211456112Y-125430927D03*
%TD*%
%TO.P,S24,1,1*%
%TO.N,C7*%
X208645964Y-93159079D03*
%TO.P,S24,2,2*%
%TO.N,Net-(D23-A)*%
X214995964Y-90619079D03*
%TD*%
D11*
%TO.P,J2,1,Pin_1*%
%TO.N,C10*%
X181275976Y-124000000D03*
D12*
%TO.P,J2,2,Pin_2*%
%TO.N,C9*%
X181275976Y-120000000D03*
%TO.P,J2,3,Pin_3*%
%TO.N,C8*%
X181275976Y-116000000D03*
%TO.P,J2,4,Pin_4*%
%TO.N,C7*%
X181275976Y-112000000D03*
%TO.P,J2,5,Pin_5*%
%TO.N,C6*%
X181275976Y-108000000D03*
%TO.P,J2,6,Pin_6*%
%TO.N,R4*%
X181275976Y-104000000D03*
%TO.P,J2,7,Pin_7*%
%TO.N,R3*%
X181275976Y-100000000D03*
%TO.P,J2,8,Pin_8*%
%TO.N,R2*%
X181275976Y-96000000D03*
%TO.P,J2,9,Pin_9*%
%TO.N,R1*%
X181275976Y-92000000D03*
%TD*%
D13*
%TO.N,R3*%
X203223227Y-84699079D03*
X207921464Y-83699079D03*
%TO.N,R2*%
X201723227Y-94319579D03*
X201723227Y-101949079D03*
X187473227Y-92699079D03*
X188921462Y-93449079D03*
%TO.N,R1*%
X177710928Y-128686780D03*
X174973227Y-141699079D03*
%TO.N,C8*%
X201723227Y-116000000D03*
%TD*%
D14*
%TO.N,R3*%
X206921464Y-84699079D02*
X207921464Y-83699079D01*
X203223227Y-84699079D02*
X206921464Y-84699079D01*
%TO.N,R2*%
X187473227Y-92699079D02*
X188171462Y-92699079D01*
X201723227Y-94319579D02*
X201723227Y-101949079D01*
X188171462Y-92699079D02*
X188921462Y-93449079D01*
%TO.N,R1*%
X177710928Y-128686780D02*
X174973227Y-131424481D01*
X174973227Y-131424481D02*
X174973227Y-141699079D01*
%TO.N,C6*%
X189973227Y-99486344D02*
X189973227Y-102199079D01*
X189645962Y-61159079D02*
X189645962Y-99159079D01*
X189973227Y-102199079D02*
X184172306Y-108000000D01*
X189645962Y-99159079D02*
X189973227Y-99486344D01*
X184172306Y-108000000D02*
X181275976Y-108000000D01*
%TO.N,C7*%
X208645964Y-55159079D02*
X208645964Y-93159079D01*
X208973227Y-96699079D02*
X208973227Y-93486342D01*
X193672306Y-112000000D02*
X208973227Y-96699079D01*
X181275976Y-112000000D02*
X193672306Y-112000000D01*
X208973227Y-93486342D02*
X208645964Y-93159079D01*
%TO.N,C8*%
X227645964Y-87871816D02*
X228223227Y-88449079D01*
X202422306Y-116000000D02*
X201723227Y-116000000D01*
X227645964Y-49159079D02*
X227645964Y-87159079D01*
X201723227Y-116000000D02*
X181275976Y-116000000D01*
X228223227Y-90199079D02*
X202422306Y-116000000D01*
X227645964Y-87159079D02*
X227645964Y-87871816D01*
X228223227Y-88449079D02*
X228223227Y-90199079D01*
%TO.N,C9*%
X199058702Y-120000000D02*
X181275976Y-120000000D01*
X246645964Y-54159079D02*
X246645964Y-92159079D01*
X246645964Y-92159079D02*
X226899623Y-92159079D01*
X226899623Y-92159079D02*
X199058702Y-120000000D01*
%TO.N,C10*%
X195695098Y-124000000D02*
X181275976Y-124000000D01*
X268325996Y-83451675D02*
X268325996Y-100801078D01*
X269698678Y-64782117D02*
X269698678Y-82078993D01*
X266677980Y-102449094D02*
X217246004Y-102449094D01*
X269935221Y-64545574D02*
X269698678Y-64782117D01*
X269698678Y-82078993D02*
X268325996Y-83451675D01*
X268325996Y-100801078D02*
X266677980Y-102449094D01*
X217246004Y-102449094D02*
X195695098Y-124000000D01*
%TD*%
M02*
