M48
; DRILL file {KiCad 7.0.7} date Wed Sep 27 07:48:01 2023
; FORMAT={-:-/ absolute / metric / decimal}
; #@! TF.CreationDate,2023-09-27T07:48:01-06:00
; #@! TF.GenerationSoftware,Kicad,Pcbnew,7.0.7
; #@! TF.FileFunction,Plated,1,2,PTH
FMAT,2
METRIC
; #@! TA.AperFunction,Plated,PTH,ViaDrill
T1C0.400
; #@! TA.AperFunction,Plated,PTH,ComponentDrill
T2C1.000
; #@! TA.AperFunction,Plated,PTH,ComponentDrill
T3C1.500
%
G90
G05
T1
X174.973Y-141.699
X177.711Y-128.687
X187.473Y-92.699
X188.921Y-93.449
X201.723Y-94.32
X201.723Y-101.949
X201.723Y-116.0
X203.223Y-84.699
X207.921Y-83.699
T2
X181.276Y-92.0
X181.276Y-96.0
X181.276Y-100.0
X181.276Y-104.0
X181.276Y-108.0
X181.276Y-112.0
X181.276Y-116.0
X181.276Y-120.0
X181.276Y-124.0
T3
X161.303Y-145.707
X165.342Y-140.188
X182.634Y-134.743
X187.811Y-130.274
X189.646Y-61.159
X189.646Y-80.159
X189.646Y-99.159
X195.996Y-58.619
X195.996Y-77.619
X195.996Y-96.619
X205.406Y-128.621
X208.646Y-55.159
X208.646Y-74.159
X208.646Y-93.159
X211.456Y-125.431
X214.996Y-52.619
X214.996Y-71.619
X214.996Y-90.619
X227.646Y-49.159
X227.646Y-68.159
X227.646Y-87.159
X233.996Y-46.619
X233.996Y-65.619
X233.996Y-84.619
X246.646Y-54.159
X246.646Y-73.159
X246.646Y-92.159
X252.996Y-51.619
X252.996Y-70.619
X252.996Y-89.619
X266.678Y-102.449
X268.326Y-83.452
X269.935Y-64.546
X273.225Y-100.472
X274.873Y-81.475
X276.482Y-62.569
T0
M30
