%TF.GenerationSoftware,KiCad,Pcbnew,7.0.7*%
%TF.CreationDate,2023-09-27T07:48:00-06:00*%
%TF.ProjectId,keyboard - right,6b657962-6f61-4726-9420-2d2072696768,rev?*%
%TF.SameCoordinates,Original*%
%TF.FileFunction,Soldermask,Bot*%
%TF.FilePolarity,Negative*%
%FSLAX46Y46*%
G04 Gerber Fmt 4.6, Leading zero omitted, Abs format (unit mm)*
G04 Created by KiCad (PCBNEW 7.0.7) date 2023-09-27 07:48:00*
%MOMM*%
%LPD*%
G01*
G04 APERTURE LIST*
%ADD10C,1.750000*%
%ADD11C,4.000000*%
%ADD12C,2.500000*%
%ADD13R,1.700000X1.700000*%
%ADD14O,1.700000X1.700000*%
G04 APERTURE END LIST*
D10*
%TO.C,S31*%
X245375964Y-94699079D03*
D11*
X250455964Y-94699079D03*
D10*
X255535964Y-94699079D03*
D12*
X246645964Y-92159079D03*
X252995964Y-89619079D03*
%TD*%
D10*
%TO.C,S22*%
X207375964Y-57699079D03*
D11*
X212455964Y-57699079D03*
D10*
X217535964Y-57699079D03*
D12*
X208645964Y-55159079D03*
X214995964Y-52619079D03*
%TD*%
D10*
%TO.C,S25*%
X226375964Y-51699079D03*
D11*
X231455964Y-51699079D03*
D10*
X236535964Y-51699079D03*
D12*
X227645964Y-49159079D03*
X233995964Y-46619079D03*
%TD*%
D10*
%TO.C,S28*%
X161571771Y-148533594D03*
D11*
X165879855Y-145841604D03*
D10*
X170187939Y-143149614D03*
D12*
X161302797Y-145706554D03*
X165341907Y-140187525D03*
%TD*%
D10*
%TO.C,S34*%
X266839453Y-85871322D03*
D11*
X271900122Y-86314073D03*
D10*
X276960791Y-86756824D03*
D12*
X268325996Y-83451675D03*
X274873208Y-81474780D03*
%TD*%
D10*
%TO.C,S23*%
X207375964Y-76699079D03*
D11*
X212455964Y-76699079D03*
D10*
X217535964Y-76699079D03*
D12*
X208645964Y-74159079D03*
X214995964Y-71619079D03*
%TD*%
D10*
%TO.C,S30*%
X245375964Y-75699079D03*
D11*
X250455964Y-75699079D03*
D10*
X255535964Y-75699079D03*
D12*
X246645964Y-73159079D03*
X252995964Y-70619079D03*
%TD*%
D10*
%TO.C,S19*%
X188375962Y-63699079D03*
D11*
X193455962Y-63699079D03*
D10*
X198535962Y-63699079D03*
D12*
X189645962Y-61159079D03*
X195995962Y-58619079D03*
%TD*%
D10*
%TO.C,S26*%
X226375964Y-70699079D03*
D11*
X231455964Y-70699079D03*
D10*
X236535964Y-70699079D03*
D12*
X227645964Y-68159079D03*
X233995964Y-65619079D03*
%TD*%
D10*
%TO.C,S21*%
X188375962Y-101699079D03*
D11*
X193455962Y-101699079D03*
D10*
X198535962Y-101699079D03*
D12*
X189645962Y-99159079D03*
X195995962Y-96619079D03*
%TD*%
D10*
%TO.C,S32*%
X182260109Y-137557880D03*
D11*
X187063343Y-135903994D03*
D10*
X191866577Y-134250108D03*
D12*
X182633974Y-134742791D03*
X187811074Y-130273817D03*
%TD*%
D10*
%TO.C,S27*%
X226375964Y-89699079D03*
D11*
X231455964Y-89699079D03*
D10*
X236535964Y-89699079D03*
D12*
X227645964Y-87159079D03*
X233995964Y-84619079D03*
%TD*%
D10*
%TO.C,S35*%
X265191437Y-104868741D03*
D11*
X270252106Y-105311492D03*
D10*
X275312775Y-105754243D03*
D12*
X266677980Y-102449094D03*
X273225192Y-100472199D03*
%TD*%
D10*
%TO.C,S20*%
X188375962Y-82699079D03*
D11*
X193455962Y-82699079D03*
D10*
X198535962Y-82699079D03*
D12*
X189645962Y-80159079D03*
X195995962Y-77619079D03*
%TD*%
D10*
%TO.C,S29*%
X245375964Y-56699079D03*
D11*
X250455964Y-56699079D03*
D10*
X255535964Y-56699079D03*
D12*
X246645964Y-54159079D03*
X252995964Y-51619079D03*
%TD*%
D10*
%TO.C,S33*%
X268448678Y-66965221D03*
D11*
X273509347Y-67407972D03*
D10*
X278570016Y-67850723D03*
D12*
X269935221Y-64545574D03*
X276482433Y-62568679D03*
%TD*%
D10*
%TO.C,S36*%
X204408860Y-131279606D03*
D11*
X209461031Y-130748601D03*
D10*
X214513202Y-130217596D03*
D12*
X205406400Y-128620769D03*
X211456112Y-125430927D03*
%TD*%
D10*
%TO.C,S24*%
X207375964Y-95699079D03*
D11*
X212455964Y-95699079D03*
D10*
X217535964Y-95699079D03*
D12*
X208645964Y-93159079D03*
X214995964Y-90619079D03*
%TD*%
D13*
%TO.C,J2*%
X181275976Y-124000000D03*
D14*
X181275976Y-120000000D03*
X181275976Y-116000000D03*
X181275976Y-112000000D03*
X181275976Y-108000000D03*
X181275976Y-104000000D03*
X181275976Y-100000000D03*
X181275976Y-96000000D03*
X181275976Y-92000000D03*
%TD*%
M02*
