%TF.GenerationSoftware,KiCad,Pcbnew,7.0.7*%
%TF.CreationDate,2023-09-27T07:47:07-06:00*%
%TF.ProjectId,keyboard - left,6b657962-6f61-4726-9420-2d206c656674,rev?*%
%TF.SameCoordinates,Original*%
%TF.FileFunction,Soldermask,Bot*%
%TF.FilePolarity,Negative*%
%FSLAX46Y46*%
G04 Gerber Fmt 4.6, Leading zero omitted, Abs format (unit mm)*
G04 Created by KiCad (PCBNEW 7.0.7) date 2023-09-27 07:47:07*
%MOMM*%
%LPD*%
G01*
G04 APERTURE LIST*
%ADD10C,1.750000*%
%ADD11C,4.000000*%
%ADD12C,2.500000*%
%ADD13R,1.700000X1.700000*%
%ADD14O,1.700000X1.700000*%
%ADD15R,1.752600X1.752600*%
%ADD16C,1.752600*%
G04 APERTURE END LIST*
D10*
%TO.C,S8*%
X56767381Y-70603631D03*
D11*
X61847381Y-70603631D03*
D10*
X66927381Y-70603631D03*
D12*
X58037381Y-68063631D03*
X64387381Y-65523631D03*
%TD*%
D10*
%TO.C,S11*%
X75767381Y-76603631D03*
D11*
X80847381Y-76603631D03*
D10*
X85927381Y-76603631D03*
D12*
X77037381Y-74063631D03*
X83387381Y-71523631D03*
%TD*%
D10*
%TO.C,S2*%
X16350501Y-86717930D03*
D11*
X21411170Y-86275179D03*
D10*
X26471839Y-85832428D03*
D12*
X17394293Y-84076908D03*
X23498753Y-80993134D03*
%TD*%
D10*
%TO.C,S5*%
X37767381Y-75603631D03*
D11*
X42847381Y-75603631D03*
D10*
X47927381Y-75603631D03*
D12*
X39037381Y-73063631D03*
X45387381Y-70523631D03*
%TD*%
D10*
%TO.C,S6*%
X37767381Y-94603631D03*
D11*
X42847381Y-94603631D03*
D10*
X47927381Y-94603631D03*
D12*
X39037381Y-92063631D03*
X45387381Y-89523631D03*
%TD*%
D10*
%TO.C,S1*%
X14713224Y-67748165D03*
D11*
X19773893Y-67305414D03*
D10*
X24834562Y-66862663D03*
D12*
X15757016Y-65107143D03*
X21861476Y-62023369D03*
%TD*%
D10*
%TO.C,S7*%
X56767381Y-51603631D03*
D11*
X61847381Y-51603631D03*
D10*
X66927381Y-51603631D03*
D12*
X58037381Y-49063631D03*
X64387381Y-46523631D03*
%TD*%
D10*
%TO.C,S16*%
X78790157Y-130061034D03*
D11*
X83842328Y-130592039D03*
D10*
X88894499Y-131123044D03*
D12*
X80318702Y-127667700D03*
X86899418Y-125805370D03*
%TD*%
D10*
%TO.C,S10*%
X75767381Y-57603631D03*
D11*
X80847381Y-57603631D03*
D10*
X85927381Y-57603631D03*
D12*
X77037381Y-55063631D03*
X83387381Y-52523631D03*
%TD*%
D10*
%TO.C,S18*%
X123167892Y-142643050D03*
D11*
X127475976Y-145335040D03*
D10*
X131784060Y-148027030D03*
D12*
X125590908Y-141162005D03*
X132322008Y-142372951D03*
%TD*%
D10*
%TO.C,S4*%
X37767381Y-56603631D03*
D11*
X42847381Y-56603631D03*
D10*
X47927381Y-56603631D03*
D12*
X39037381Y-54063631D03*
X45387381Y-51523631D03*
%TD*%
D10*
%TO.C,S17*%
X101457718Y-133987299D03*
D11*
X106260952Y-135641185D03*
D10*
X111064186Y-137295071D03*
D12*
X103485469Y-131999153D03*
X110316455Y-131664894D03*
%TD*%
D13*
%TO.C,J1*%
X112000000Y-92000000D03*
D14*
X112000000Y-96000000D03*
X112000000Y-100000000D03*
X112000000Y-104000000D03*
X112000000Y-108000000D03*
X112000000Y-112000000D03*
X112000000Y-116000000D03*
X112000000Y-120000000D03*
X112000000Y-124000000D03*
%TD*%
D10*
%TO.C,S3*%
X17999132Y-105706470D03*
D11*
X23059801Y-105263719D03*
D10*
X28120470Y-104820968D03*
D12*
X19042924Y-103065448D03*
X25147384Y-99981674D03*
%TD*%
D10*
%TO.C,S14*%
X94767381Y-82603631D03*
D11*
X99847381Y-82603631D03*
D10*
X104927381Y-82603631D03*
D12*
X96037381Y-80063631D03*
X102387381Y-77523631D03*
%TD*%
D15*
%TO.C,U2*%
X111180000Y-59030000D03*
D16*
X111180000Y-61570000D03*
X111180000Y-64110000D03*
X111180000Y-66650000D03*
X111180000Y-69190000D03*
X111180000Y-71730000D03*
X111180000Y-74270000D03*
X111180000Y-76810000D03*
X111180000Y-79350000D03*
X111180000Y-81890000D03*
X111180000Y-84430000D03*
X111180000Y-86970000D03*
X126420000Y-86970000D03*
X126420000Y-84430000D03*
X126420000Y-81890000D03*
X126420000Y-79350000D03*
X126420000Y-76810000D03*
X126420000Y-74270000D03*
X126420000Y-71730000D03*
X126420000Y-69190000D03*
X126420000Y-66650000D03*
X126420000Y-64110000D03*
X126420000Y-61570000D03*
X126420000Y-59030000D03*
%TD*%
D10*
%TO.C,S13*%
X94767381Y-63603631D03*
D11*
X99847381Y-63603631D03*
D10*
X104927381Y-63603631D03*
D12*
X96037381Y-61063631D03*
X102387381Y-58523631D03*
%TD*%
D10*
%TO.C,S12*%
X75767381Y-95603631D03*
D11*
X80847381Y-95603631D03*
D10*
X85927381Y-95603631D03*
D12*
X77037381Y-93063631D03*
X83387381Y-90523631D03*
%TD*%
D10*
%TO.C,S9*%
X56767381Y-89603631D03*
D11*
X61847381Y-89603631D03*
D10*
X66927381Y-89603631D03*
D12*
X58037381Y-87063631D03*
X64387381Y-84523631D03*
%TD*%
D10*
%TO.C,S15*%
X94767381Y-101603631D03*
D11*
X99847381Y-101603631D03*
D10*
X104927381Y-101603631D03*
D12*
X96037381Y-99063631D03*
X102387381Y-96523631D03*
%TD*%
M02*
