M48
; DRILL file {KiCad 7.0.7} date Wed Sep 27 07:47:21 2023
; FORMAT={-:-/ absolute / metric / decimal}
; #@! TF.CreationDate,2023-09-27T07:47:21-06:00
; #@! TF.GenerationSoftware,Kicad,Pcbnew,7.0.7
; #@! TF.FileFunction,Plated,1,2,PTH
FMAT,2
METRIC
; #@! TA.AperFunction,Plated,PTH,ViaDrill
T1C0.400
; #@! TA.AperFunction,Plated,PTH,ComponentDrill
T2C1.000
; #@! TA.AperFunction,Plated,PTH,ComponentDrill
T3C1.092
; #@! TA.AperFunction,Plated,PTH,ComponentDrill
T4C1.500
%
G90
G05
T1
X66.973Y-64.374
X89.874Y-61.798
X90.723Y-60.449
X107.9Y-65.25
X109.226Y-102.952
X109.973Y-99.199
X113.723Y-83.816
X114.794Y-83.816
X114.876Y-79.481
X115.798Y-92.024
X116.473Y-82.199
X116.523Y-88.199
X116.973Y-83.816
X117.223Y-81.449
X117.473Y-90.449
X118.649Y-87.125
T2
X112.0Y-92.0
X112.0Y-96.0
X112.0Y-100.0
X112.0Y-104.0
X112.0Y-108.0
X112.0Y-112.0
X112.0Y-116.0
X112.0Y-120.0
X112.0Y-124.0
T3
X111.18Y-59.03
X111.18Y-61.57
X111.18Y-64.11
X111.18Y-66.65
X111.18Y-69.19
X111.18Y-71.73
X111.18Y-74.27
X111.18Y-76.81
X111.18Y-79.35
X111.18Y-81.89
X111.18Y-84.43
X111.18Y-86.97
X126.42Y-59.03
X126.42Y-61.57
X126.42Y-64.11
X126.42Y-66.65
X126.42Y-69.19
X126.42Y-71.73
X126.42Y-74.27
X126.42Y-76.81
X126.42Y-79.35
X126.42Y-81.89
X126.42Y-84.43
X126.42Y-86.97
T4
X15.757Y-65.107
X17.394Y-84.077
X19.043Y-103.065
X21.861Y-62.023
X23.499Y-80.993
X25.147Y-99.982
X39.037Y-54.064
X39.037Y-73.064
X39.037Y-92.064
X45.387Y-51.524
X45.387Y-70.524
X45.387Y-89.524
X58.037Y-49.064
X58.037Y-68.064
X58.037Y-87.064
X64.387Y-46.524
X64.387Y-65.524
X64.387Y-84.524
X77.037Y-55.064
X77.037Y-74.064
X77.037Y-93.064
X80.319Y-127.668
X83.387Y-52.524
X83.387Y-71.524
X83.387Y-90.524
X86.899Y-125.805
X96.037Y-61.064
X96.037Y-80.064
X96.037Y-99.064
X102.387Y-58.524
X102.387Y-77.524
X102.387Y-96.524
X103.485Y-131.999
X110.316Y-131.665
X125.591Y-141.162
X132.322Y-142.373
T0
M30
