%TF.GenerationSoftware,KiCad,Pcbnew,7.0.7*%
%TF.CreationDate,2023-09-27T07:47:07-06:00*%
%TF.ProjectId,keyboard - left,6b657962-6f61-4726-9420-2d206c656674,rev?*%
%TF.SameCoordinates,Original*%
%TF.FileFunction,Copper,L2,Bot*%
%TF.FilePolarity,Positive*%
%FSLAX46Y46*%
G04 Gerber Fmt 4.6, Leading zero omitted, Abs format (unit mm)*
G04 Created by KiCad (PCBNEW 7.0.7) date 2023-09-27 07:47:07*
%MOMM*%
%LPD*%
G01*
G04 APERTURE LIST*
%TA.AperFunction,ComponentPad*%
%ADD10C,2.500000*%
%TD*%
%TA.AperFunction,ComponentPad*%
%ADD11R,1.700000X1.700000*%
%TD*%
%TA.AperFunction,ComponentPad*%
%ADD12O,1.700000X1.700000*%
%TD*%
%TA.AperFunction,ComponentPad*%
%ADD13R,1.752600X1.752600*%
%TD*%
%TA.AperFunction,ComponentPad*%
%ADD14C,1.752600*%
%TD*%
%TA.AperFunction,ViaPad*%
%ADD15C,0.800000*%
%TD*%
%TA.AperFunction,Conductor*%
%ADD16C,0.250000*%
%TD*%
G04 APERTURE END LIST*
D10*
%TO.P,S8,1,1*%
%TO.N,C3*%
X58037381Y-68063631D03*
%TO.P,S8,2,2*%
%TO.N,Net-(D8-A)*%
X64387381Y-65523631D03*
%TD*%
%TO.P,S11,1,1*%
%TO.N,C4*%
X77037381Y-74063631D03*
%TO.P,S11,2,2*%
%TO.N,Net-(D9-A)*%
X83387381Y-71523631D03*
%TD*%
%TO.P,S2,1,1*%
%TO.N,C1*%
X17394293Y-84076908D03*
%TO.P,S2,2,2*%
%TO.N,Net-(D6-A)*%
X23498753Y-80993134D03*
%TD*%
%TO.P,S5,1,1*%
%TO.N,C2*%
X39037381Y-73063631D03*
%TO.P,S5,2,2*%
%TO.N,Net-(D7-A)*%
X45387381Y-70523631D03*
%TD*%
%TO.P,S6,1,1*%
%TO.N,C2*%
X39037381Y-92063631D03*
%TO.P,S6,2,2*%
%TO.N,Net-(D12-A)*%
X45387381Y-89523631D03*
%TD*%
%TO.P,S1,1,1*%
%TO.N,C1*%
X15757016Y-65107143D03*
%TO.P,S1,2,2*%
%TO.N,Net-(D1-A)*%
X21861476Y-62023369D03*
%TD*%
%TO.P,S7,1,1*%
%TO.N,C3*%
X58037381Y-49063631D03*
%TO.P,S7,2,2*%
%TO.N,Net-(D3-A)*%
X64387381Y-46523631D03*
%TD*%
%TO.P,S16,1,1*%
%TO.N,C3*%
X80318702Y-127667700D03*
%TO.P,S16,2,2*%
%TO.N,Net-(D16-A)*%
X86899418Y-125805370D03*
%TD*%
%TO.P,S10,1,1*%
%TO.N,C4*%
X77037381Y-55063631D03*
%TO.P,S10,2,2*%
%TO.N,Net-(D4-A)*%
X83387381Y-52523631D03*
%TD*%
%TO.P,S18,1,1*%
%TO.N,C5*%
X125590908Y-141162005D03*
%TO.P,S18,2,2*%
%TO.N,Net-(D18-A)*%
X132322008Y-142372951D03*
%TD*%
%TO.P,S4,1,1*%
%TO.N,C2*%
X39037381Y-54063631D03*
%TO.P,S4,2,2*%
%TO.N,Net-(D2-A)*%
X45387381Y-51523631D03*
%TD*%
%TO.P,S17,1,1*%
%TO.N,C4*%
X103485469Y-131999153D03*
%TO.P,S17,2,2*%
%TO.N,Net-(D17-A)*%
X110316455Y-131664894D03*
%TD*%
D11*
%TO.P,J1,1,Pin_1*%
%TO.N,R1*%
X112000000Y-92000000D03*
D12*
%TO.P,J1,2,Pin_2*%
%TO.N,R2*%
X112000000Y-96000000D03*
%TO.P,J1,3,Pin_3*%
%TO.N,R3*%
X112000000Y-100000000D03*
%TO.P,J1,4,Pin_4*%
%TO.N,R4*%
X112000000Y-104000000D03*
%TO.P,J1,5,Pin_5*%
%TO.N,C6*%
X112000000Y-108000000D03*
%TO.P,J1,6,Pin_6*%
%TO.N,C7*%
X112000000Y-112000000D03*
%TO.P,J1,7,Pin_7*%
%TO.N,C8*%
X112000000Y-116000000D03*
%TO.P,J1,8,Pin_8*%
%TO.N,C9*%
X112000000Y-120000000D03*
%TO.P,J1,9,Pin_9*%
%TO.N,C10*%
X112000000Y-124000000D03*
%TD*%
D10*
%TO.P,S3,1,1*%
%TO.N,C1*%
X19042924Y-103065448D03*
%TO.P,S3,2,2*%
%TO.N,Net-(D11-A)*%
X25147384Y-99981674D03*
%TD*%
%TO.P,S14,1,1*%
%TO.N,C5*%
X96037381Y-80063631D03*
%TO.P,S14,2,2*%
%TO.N,Net-(D10-A)*%
X102387381Y-77523631D03*
%TD*%
D13*
%TO.P,U2,1,TX0/PD3*%
%TO.N,C1*%
X111180000Y-59030000D03*
D14*
%TO.P,U2,2,RX1/PD2*%
%TO.N,C2*%
X111180000Y-61570000D03*
%TO.P,U2,3,GND*%
%TO.N,N/C*%
X111180000Y-64110000D03*
%TO.P,U2,4,GND*%
X111180000Y-66650000D03*
%TO.P,U2,5,2/PD1*%
%TO.N,C3*%
X111180000Y-69190000D03*
%TO.P,U2,6,3/PD0*%
%TO.N,C4*%
X111180000Y-71730000D03*
%TO.P,U2,7,4/PD4*%
%TO.N,C5*%
X111180000Y-74270000D03*
%TO.P,U2,8,5/PC6*%
%TO.N,C6*%
X111180000Y-76810000D03*
%TO.P,U2,9,6/PD7*%
%TO.N,C7*%
X111180000Y-79350000D03*
%TO.P,U2,10,7/PE6*%
%TO.N,C8*%
X111180000Y-81890000D03*
%TO.P,U2,11,8/PB4*%
%TO.N,C9*%
X111180000Y-84430000D03*
%TO.P,U2,12,9/PB5*%
%TO.N,C10*%
X111180000Y-86970000D03*
%TO.P,U2,13,10/PB6*%
%TO.N,R1*%
X126420000Y-86970000D03*
%TO.P,U2,14,16/PB2*%
%TO.N,R2*%
X126420000Y-84430000D03*
%TO.P,U2,15,14/PB3*%
%TO.N,R3*%
X126420000Y-81890000D03*
%TO.P,U2,16,15/PB1*%
%TO.N,R4*%
X126420000Y-79350000D03*
%TO.P,U2,17,A0/PF7*%
%TO.N,N/C*%
X126420000Y-76810000D03*
%TO.P,U2,18,A1/PF6*%
X126420000Y-74270000D03*
%TO.P,U2,19,A2/PF5*%
X126420000Y-71730000D03*
%TO.P,U2,20,A3/PF4*%
X126420000Y-69190000D03*
%TO.P,U2,21,VCC*%
X126420000Y-66650000D03*
%TO.P,U2,22,RST*%
%TO.N,unconnected-(U2-RST-Pad22)*%
X126420000Y-64110000D03*
%TO.P,U2,23,GND*%
%TO.N,N/C*%
X126420000Y-61570000D03*
%TO.P,U2,24,B0*%
X126420000Y-59030000D03*
%TD*%
D10*
%TO.P,S13,1,1*%
%TO.N,C5*%
X96037381Y-61063631D03*
%TO.P,S13,2,2*%
%TO.N,Net-(D5-A)*%
X102387381Y-58523631D03*
%TD*%
%TO.P,S12,1,1*%
%TO.N,C4*%
X77037381Y-93063631D03*
%TO.P,S12,2,2*%
%TO.N,Net-(D14-A)*%
X83387381Y-90523631D03*
%TD*%
%TO.P,S9,1,1*%
%TO.N,C3*%
X58037381Y-87063631D03*
%TO.P,S9,2,2*%
%TO.N,Net-(D13-A)*%
X64387381Y-84523631D03*
%TD*%
%TO.P,S15,1,1*%
%TO.N,C5*%
X96037381Y-99063631D03*
%TO.P,S15,2,2*%
%TO.N,Net-(D15-A)*%
X102387381Y-96523631D03*
%TD*%
D15*
%TO.N,R4*%
X113723227Y-83815800D03*
X107900000Y-65250000D03*
%TO.N,R2*%
X109973227Y-99199079D03*
%TO.N,R1*%
X109226189Y-102952041D03*
X118648734Y-87124586D03*
%TO.N,C6*%
X114793887Y-83815800D03*
X116473227Y-82199079D03*
%TO.N,C7*%
X114876065Y-79481467D03*
X115798333Y-92024185D03*
X117223227Y-81449079D03*
X116973227Y-83815800D03*
%TO.N,C10*%
X116522833Y-88199079D03*
X117473227Y-90449079D03*
%TO.N,C1*%
X89873854Y-61798452D03*
X90723227Y-60449079D03*
%TO.N,C3*%
X66973227Y-64373579D03*
%TD*%
D16*
%TO.N,R4*%
X112381300Y-65311300D02*
X126420000Y-79350000D01*
X107900000Y-65250000D02*
X107961300Y-65311300D01*
X118189027Y-79350000D02*
X126420000Y-79350000D01*
X107961300Y-65311300D02*
X112381300Y-65311300D01*
X113723227Y-83815800D02*
X118189027Y-79350000D01*
%TO.N,R2*%
X109973227Y-99199079D02*
X109973227Y-98026773D01*
X112000000Y-96000000D02*
X112000000Y-94797919D01*
X112000000Y-94797919D02*
X122367919Y-84430000D01*
X122367919Y-84430000D02*
X126420000Y-84430000D01*
X109973227Y-98026773D02*
X112000000Y-96000000D01*
%TO.N,R1*%
X109226189Y-94773811D02*
X112000000Y-92000000D01*
X118648734Y-87124586D02*
X113773321Y-92000000D01*
X109226189Y-102952041D02*
X109226189Y-94773811D01*
X113773321Y-92000000D02*
X112000000Y-92000000D01*
%TO.N,C6*%
X114856506Y-83815800D02*
X116473227Y-82199079D01*
X114793887Y-83815800D02*
X114856506Y-83815800D01*
%TO.N,C7*%
X112000000Y-112000000D02*
X115798333Y-108201667D01*
X115798333Y-108201667D02*
X115798333Y-92024185D01*
X117223227Y-83565800D02*
X117223227Y-81449079D01*
X114876065Y-79481467D02*
X114744598Y-79350000D01*
X116973227Y-83815800D02*
X117223227Y-83565800D01*
X114744598Y-79350000D02*
X111180000Y-79350000D01*
%TO.N,C8*%
X108274148Y-116000000D02*
X112000000Y-116000000D01*
X111180000Y-81890000D02*
X107973227Y-85096773D01*
X107973227Y-115699079D02*
X108274148Y-116000000D01*
X107973227Y-85096773D02*
X107973227Y-115699079D01*
%TO.N,C9*%
X108423227Y-110084928D02*
X108423227Y-87186773D01*
X113175000Y-118825000D02*
X113472306Y-118825000D01*
X112287378Y-113949079D02*
X108423227Y-110084928D01*
X113472306Y-118825000D02*
X113848227Y-118449079D01*
X112000000Y-120000000D02*
X113175000Y-118825000D01*
X113848227Y-118449079D02*
X113848227Y-114824079D01*
X112973227Y-113949079D02*
X112287378Y-113949079D01*
X108423227Y-87186773D02*
X111180000Y-84430000D01*
X113848227Y-114824079D02*
X112973227Y-113949079D01*
%TO.N,C10*%
X116522833Y-88199079D02*
X115293754Y-86970000D01*
X117473227Y-118526773D02*
X117473227Y-90449079D01*
X112000000Y-124000000D02*
X117473227Y-118526773D01*
X115293754Y-86970000D02*
X111180000Y-86970000D01*
%TO.N,C1*%
X17394293Y-84076908D02*
X17600501Y-84283116D01*
X15757016Y-65107143D02*
X17394293Y-66744420D01*
X89873854Y-61798452D02*
X89873854Y-61298452D01*
X17600501Y-101623025D02*
X19042924Y-103065448D01*
X17394293Y-66744420D02*
X17394293Y-84076908D01*
X89873854Y-61298452D02*
X90723227Y-60449079D01*
X17600501Y-84283116D02*
X17600501Y-101623025D01*
%TO.N,C2*%
X39037381Y-54063631D02*
X39037381Y-92063631D01*
%TO.N,C3*%
X80318702Y-107818702D02*
X76800000Y-104300000D01*
X66298727Y-63699079D02*
X66973227Y-64373579D01*
X63973227Y-63699079D02*
X66298727Y-63699079D01*
X80318702Y-127667700D02*
X80318702Y-107818702D01*
X62401933Y-63699079D02*
X63973227Y-63699079D01*
X58037381Y-68063631D02*
X62401933Y-63699079D01*
X72600000Y-104300000D02*
X76800000Y-104300000D01*
X58037381Y-87063631D02*
X58037381Y-49063631D01*
X58037381Y-87063631D02*
X58037381Y-89737381D01*
X58037381Y-89737381D02*
X72600000Y-104300000D01*
%TO.N,C4*%
X77037381Y-103900985D02*
X103485469Y-130349073D01*
X77037381Y-55063631D02*
X77037381Y-93063631D01*
X103485469Y-130349073D02*
X103485469Y-131999153D01*
X77037381Y-93063631D02*
X77037381Y-103900985D01*
%TO.N,C5*%
X96100000Y-99126250D02*
X96037381Y-99063631D01*
X96037381Y-99063631D02*
X96037381Y-61063631D01*
X125590908Y-141162005D02*
X96100000Y-111671097D01*
X96100000Y-111671097D02*
X96100000Y-99126250D01*
%TD*%
M02*
