  0
SECTION
  2
HEADER
  9
$ACADVER
  1
AC1014
  9
$HANDSEED
  5
FFFF
  9
$INSUNITS
 70
     4
  9
$MEASUREMENT
 70
     1
  0
ENDSEC
  0
SECTION
  2
TABLES
  0
TABLE
  2
VPORT
  5
8
330
0
100
AcDbSymbolTable
 70
     4
  0
VPORT
  5
2E
330
8
100
AcDbSymbolTableRecord
100
AcDbViewportTableRecord
  2
*ACTIVE
 70
     0
 10
0.0
 20
0.0
 11
1.0
 21
1.0
 12
210.0
 22
148.5
 13
0.0
 23
0.0
 14
10.0
 24
10.0
 15
10.0
 25
10.0
 16
0.0
 26
0.0
 36
1.0
 17
0.0
 27
0.0
 37
0.0
 40
341.0
 41
1.24
 42
50.0
 43
0.0
 44
0.0
 50
0.0
 51
0.0
 71
     0
 72
   100
 73
     1
 74
     3
 75
     0
 76
     0
 77
     0
 78
     0
  0
ENDTAB
  0
TABLE
  2
LTYPE
  5
5
330
0
100
AcDbSymbolTable
 70
     1
  0
LTYPE
  5
14
330
5
100
AcDbSymbolTableRecord
100
AcDbLinetypeTableRecord
  2
BYBLOCK
 70
     0
  3

 72
    65
 73
     0
 40
0.0
  0
LTYPE
  5
15
330
5
100
AcDbSymbolTableRecord
100
AcDbLinetypeTableRecord
  2
BYLAYER
 70
     0
  3

 72
    65
 73
     0
 40
0.0
  0
LTYPE
  5
16
330
5
100
AcDbSymbolTableRecord
100
AcDbLinetypeTableRecord
  2
CONTINUOUS
 70
     0
  3
Solid line
 72
    65
 73
     0
 40
0.0
  0
ENDTAB
  0
TABLE
  2
LAYER
  5
2
100
AcDbSymbolTable
 70
1
  0
LAYER
  5
50
100
AcDbSymbolTableRecord
100
AcDbLayerTableRecord
  2
0
 70
0
  6
CONTINUOUS
  0
ENDTAB
  0
TABLE
  2
STYLE
  5
3
330
0
100
AcDbSymbolTable
 70
     1
  0
STYLE
  5
11
330
3
100
AcDbSymbolTableRecord
100
AcDbTextStyleTableRecord
  2
STANDARD
 70
     0
 40
0.0
 41
1.0
 50
0.0
 71
     0
 42
2.5
  3
txt
  4

  0
ENDTAB
  0
TABLE
  2
VIEW
  5
6
330
0
100
AcDbSymbolTable
 70
     0
  0
ENDTAB
  0
TABLE
  2
UCS
  5
7
330
0
100
AcDbSymbolTable
 70
     0
  0
ENDTAB
  0
TABLE
  2
APPID
  5
9
330
0
100
AcDbSymbolTable
 70
     2
  0
APPID
  5
12
330
9
100
AcDbSymbolTableRecord
100
AcDbRegAppTableRecord
  2
ACAD
 70
     0
  0
ENDTAB
  0
TABLE
  2
DIMSTYLE
  5
A
330
0
100
AcDbSymbolTable
 70
     1
  0
DIMSTYLE
105
27
330
A
100
AcDbSymbolTableRecord
100
AcDbDimStyleTableRecord
  2
ISO-25
 70
     0
  3

  4

  5

  6

  7

 40
1.0
 41
2.5
 42
0.625
 43
3.75
 44
1.25
 45
0.0
 46
0.0
 47
0.0
 48
0.0
140
2.5
141
2.5
142
0.0
143
0.03937007874016
144
1.0
145
0.0
146
1.0
147
0.625
 71
     0
 72
     0
 73
     0
 74
     0
 75
     0
 76
     0
 77
     1
 78
     8
170
     0
171
     3
172
     1
173
     0
174
     0
175
     0
176
     0
177
     0
178
     0
270
     2
271
     2
272
     2
273
     2
274
     3
340
11
275
     0
280
     0
281
     0
282
     0
283
     0
284
     8
285
     0
286
     0
287
     3
288
     0
  0
ENDTAB
  0
TABLE
  2
BLOCK_RECORD
  5
1
330
0
100
AcDbSymbolTable
 70
     1
  0
BLOCK_RECORD
  5
1F
330
1
100
AcDbSymbolTableRecord
100
AcDbBlockTableRecord
  2
*MODEL_SPACE
  0
BLOCK_RECORD
  5
1B
330
1
100
AcDbSymbolTableRecord
100
AcDbBlockTableRecord
  2
*PAPER_SPACE
  0
ENDTAB
  0
ENDSEC
  0
SECTION
  2
BLOCKS
  0
BLOCK
  5
20
330
1F
100
AcDbEntity
  8
0
100
AcDbBlockBegin
  2
*MODEL_SPACE
 70
     0
 10
0.0
 20
0.0
 30
0.0
  3
*MODEL_SPACE
  1

  0
ENDBLK
  5
21
330
1F
100
AcDbEntity
  8
0
100
AcDbBlockEnd
  0
BLOCK
  5
1C
330
1B
100
AcDbEntity
 67
     1
  8
0
100
AcDbBlockBegin
  2
*PAPER_SPACE
  1

  0
ENDBLK
  5
1D
330
1B
100
AcDbEntity
 67
     1
  8
0
100
AcDbBlockEnd
  0
ENDSEC
  0
SECTION
  2
ENTITIES
  0
LWPOLYLINE
  5
100
100
AcDbEntity
  8
0
 62
7
100
AcDbPolyline
 90
2
 70
0
 10
261.804000
 20
57.324300
 30
0.0
 10
247.304000
 20
57.324300
 30
0.0
  0
LWPOLYLINE
  5
101
100
AcDbEntity
  8
0
 62
7
100
AcDbPolyline
 90
2
 70
0
 10
261.804000
 20
71.824300
 30
0.0
 10
261.804000
 20
57.324300
 30
0.0
  0
LWPOLYLINE
  5
102
100
AcDbEntity
  8
0
 62
7
100
AcDbPolyline
 90
3
 70
0
 10
247.304000
 20
57.324300
 30
0.0
 10
247.304000
 20
71.824300
 30
0.0
 10
261.804000
 20
71.824300
 30
0.0
  0
LWPOLYLINE
  5
103
100
AcDbEntity
  8
0
 62
7
100
AcDbPolyline
 90
2
 70
0
 10
223.804000
 20
94.324300
 30
0.0
 10
209.304000
 20
94.324300
 30
0.0
  0
LWPOLYLINE
  5
104
100
AcDbEntity
  8
0
 62
7
100
AcDbPolyline
 90
2
 70
0
 10
223.804000
 20
108.824300
 30
0.0
 10
223.804000
 20
94.324300
 30
0.0
  0
LWPOLYLINE
  5
105
100
AcDbEntity
  8
0
 62
7
100
AcDbPolyline
 90
3
 70
0
 10
209.304000
 20
94.324300
 30
0.0
 10
209.304000
 20
108.824300
 30
0.0
 10
223.804000
 20
108.824300
 30
0.0
  0
LWPOLYLINE
  5
106
100
AcDbEntity
  8
0
 62
7
100
AcDbPolyline
 90
2
 70
0
 10
242.804000
 20
100.324300
 30
0.0
 10
228.304000
 20
100.324300
 30
0.0
  0
LWPOLYLINE
  5
107
100
AcDbEntity
  8
0
 62
7
100
AcDbPolyline
 90
2
 70
0
 10
242.804000
 20
114.824300
 30
0.0
 10
242.804000
 20
100.324300
 30
0.0
  0
LWPOLYLINE
  5
108
100
AcDbEntity
  8
0
 62
7
100
AcDbPolyline
 90
3
 70
0
 10
228.304000
 20
100.324300
 30
0.0
 10
228.304000
 20
114.824300
 30
0.0
 10
242.804000
 20
114.824300
 30
0.0
  0
LWPOLYLINE
  5
109
100
AcDbEntity
  8
0
 62
7
100
AcDbPolyline
 90
2
 70
0
 10
179.888300
 20
11.631900
 30
0.0
 10
167.591600
 20
3.948100
 30
0.0
  0
LWPOLYLINE
  5
10a
100
AcDbEntity
  8
0
 62
7
100
AcDbPolyline
 90
2
 70
0
 10
172.204500
 20
23.928600
 30
0.0
 10
179.888300
 20
11.631900
 30
0.0
  0
LWPOLYLINE
  5
10b
100
AcDbEntity
  8
0
 62
7
100
AcDbPolyline
 90
3
 70
0
 10
167.591600
 20
3.948100
 30
0.0
 10
159.907800
 20
16.244800
 30
0.0
 10
172.204500
 20
23.928600
 30
0.0
  0
LWPOLYLINE
  5
10c
100
AcDbEntity
  8
0
 62
7
100
AcDbPolyline
 90
2
 70
0
 10
282.580100
 20
65.032800
 30
0.0
 10
268.135200
 20
66.296500
 30
0.0
  0
LWPOLYLINE
  5
10d
100
AcDbEntity
  8
0
 62
7
100
AcDbPolyline
 90
2
 70
0
 10
283.843800
 20
79.477600
 30
0.0
 10
282.580100
 20
65.032800
 30
0.0
  0
LWPOLYLINE
  5
10e
100
AcDbEntity
  8
0
 62
7
100
AcDbPolyline
 90
3
 70
0
 10
268.135200
 20
66.296500
 30
0.0
 10
269.399000
 20
80.741400
 30
0.0
 10
283.843800
 20
79.477600
 30
0.0
  0
LWPOLYLINE
  5
10f
100
AcDbEntity
  8
0
 62
7
100
AcDbPolyline
 90
2
 70
0
 10
223.804000
 20
75.324300
 30
0.0
 10
209.304000
 20
75.324300
 30
0.0
  0
LWPOLYLINE
  5
110
100
AcDbEntity
  8
0
 62
7
100
AcDbPolyline
 90
2
 70
0
 10
223.804000
 20
89.824300
 30
0.0
 10
223.804000
 20
75.324300
 30
0.0
  0
LWPOLYLINE
  5
111
100
AcDbEntity
  8
0
 62
7
100
AcDbPolyline
 90
3
 70
0
 10
209.304000
 20
75.324300
 30
0.0
 10
209.304000
 20
89.824300
 30
0.0
 10
223.804000
 20
89.824300
 30
0.0
  0
LWPOLYLINE
  5
112
100
AcDbEntity
  8
0
 62
7
100
AcDbPolyline
 90
2
 70
0
 10
261.804000
 20
76.324300
 30
0.0
 10
247.304000
 20
76.324300
 30
0.0
  0
LWPOLYLINE
  5
113
100
AcDbEntity
  8
0
 62
7
100
AcDbPolyline
 90
2
 70
0
 10
261.804000
 20
90.824300
 30
0.0
 10
261.804000
 20
76.324300
 30
0.0
  0
LWPOLYLINE
  5
114
100
AcDbEntity
  8
0
 62
7
100
AcDbPolyline
 90
3
 70
0
 10
247.304000
 20
76.324300
 30
0.0
 10
247.304000
 20
90.824300
 30
0.0
 10
261.804000
 20
90.824300
 30
0.0
  0
LWPOLYLINE
  5
115
100
AcDbEntity
  8
0
 62
7
100
AcDbPolyline
 90
2
 70
0
 10
204.804000
 20
88.324300
 30
0.0
 10
190.304000
 20
88.324300
 30
0.0
  0
LWPOLYLINE
  5
116
100
AcDbEntity
  8
0
 62
7
100
AcDbPolyline
 90
2
 70
0
 10
204.804000
 20
102.824300
 30
0.0
 10
204.804000
 20
88.324300
 30
0.0
  0
LWPOLYLINE
  5
117
100
AcDbEntity
  8
0
 62
7
100
AcDbPolyline
 90
3
 70
0
 10
190.304000
 20
88.324300
 30
0.0
 10
190.304000
 20
102.824300
 30
0.0
 10
204.804000
 20
102.824300
 30
0.0
  0
LWPOLYLINE
  5
118
100
AcDbEntity
  8
0
 62
7
100
AcDbPolyline
 90
2
 70
0
 10
242.804000
 20
81.324300
 30
0.0
 10
228.304000
 20
81.324300
 30
0.0
  0
LWPOLYLINE
  5
119
100
AcDbEntity
  8
0
 62
7
100
AcDbPolyline
 90
2
 70
0
 10
242.804000
 20
95.824300
 30
0.0
 10
242.804000
 20
81.324300
 30
0.0
  0
LWPOLYLINE
  5
11a
100
AcDbEntity
  8
0
 62
7
100
AcDbPolyline
 90
3
 70
0
 10
228.304000
 20
81.324300
 30
0.0
 10
228.304000
 20
95.824300
 30
0.0
 10
242.804000
 20
95.824300
 30
0.0
  0
LWPOLYLINE
  5
11b
100
AcDbEntity
  8
0
 62
7
100
AcDbPolyline
 90
2
 70
0
 10
204.804000
 20
50.324300
 30
0.0
 10
190.304000
 20
50.324300
 30
0.0
  0
LWPOLYLINE
  5
11c
100
AcDbEntity
  8
0
 62
7
100
AcDbPolyline
 90
2
 70
0
 10
204.804000
 20
64.824300
 30
0.0
 10
204.804000
 20
50.324300
 30
0.0
  0
LWPOLYLINE
  5
11d
100
AcDbEntity
  8
0
 62
7
100
AcDbPolyline
 90
3
 70
0
 10
190.304000
 20
50.324300
 30
0.0
 10
190.304000
 20
64.824300
 30
0.0
 10
204.804000
 20
64.824300
 30
0.0
  0
LWPOLYLINE
  5
11e
100
AcDbEntity
  8
0
 62
7
100
AcDbPolyline
 90
2
 70
0
 10
200.346000
 20
19.100800
 30
0.0
 10
186.636000
 20
14.380000
 30
0.0
  0
LWPOLYLINE
  5
11f
100
AcDbEntity
  8
0
 62
7
100
AcDbPolyline
 90
2
 70
0
 10
195.625300
 20
32.810800
 30
0.0
 10
200.346000
 20
19.100800
 30
0.0
  0
LWPOLYLINE
  5
120
100
AcDbEntity
  8
0
 62
7
100
AcDbPolyline
 90
3
 70
0
 10
186.636000
 20
14.380000
 30
0.0
 10
181.915200
 20
28.090000
 30
0.0
 10
195.625300
 20
32.810800
 30
0.0
  0
LWPOLYLINE
  5
121
100
AcDbEntity
  8
0
 62
7
100
AcDbPolyline
 90
2
 70
0
 10
183.574000
 20
69.273400
 30
0.0
 10
187.174000
 20
69.273400
 30
0.0
  0
LWPOLYLINE
  5
122
100
AcDbEntity
  8
0
 62
7
100
AcDbPolyline
 90
2
 70
0
 10
183.574000
 20
32.473400
 30
0.0
 10
183.574000
 20
69.273400
 30
0.0
  0
LWPOLYLINE
  5
123
100
AcDbEntity
  8
0
 62
7
100
AcDbPolyline
 90
3
 70
0
 10
187.174000
 20
69.273400
 30
0.0
 10
187.174000
 20
33.473400
 30
0.0
 10
183.574000
 20
33.473400
 30
0.0
  0
LWPOLYLINE
  5
124
100
AcDbEntity
  8
0
 62
7
100
AcDbPolyline
 90
2
 70
0
 10
242.804000
 20
62.324300
 30
0.0
 10
228.304000
 20
62.324300
 30
0.0
  0
LWPOLYLINE
  5
125
100
AcDbEntity
  8
0
 62
7
100
AcDbPolyline
 90
2
 70
0
 10
242.804000
 20
76.824300
 30
0.0
 10
242.804000
 20
62.324300
 30
0.0
  0
LWPOLYLINE
  5
126
100
AcDbEntity
  8
0
 62
7
100
AcDbPolyline
 90
3
 70
0
 10
228.304000
 20
62.324300
 30
0.0
 10
228.304000
 20
76.824300
 30
0.0
 10
242.804000
 20
76.824300
 30
0.0
  0
LWPOLYLINE
  5
127
100
AcDbEntity
  8
0
 62
7
100
AcDbPolyline
 90
2
 70
0
 10
280.931400
 20
46.044200
 30
0.0
 10
266.486600
 20
47.308000
 30
0.0
  0
LWPOLYLINE
  5
128
100
AcDbEntity
  8
0
 62
7
100
AcDbPolyline
 90
2
 70
0
 10
282.195200
 20
60.489100
 30
0.0
 10
280.931400
 20
46.044200
 30
0.0
  0
LWPOLYLINE
  5
129
100
AcDbEntity
  8
0
 62
7
100
AcDbPolyline
 90
3
 70
0
 10
266.486600
 20
47.308000
 30
0.0
 10
267.750400
 20
61.752800
 30
0.0
 10
282.195200
 20
60.489100
 30
0.0
  0
LWPOLYLINE
  5
12a
100
AcDbEntity
  8
0
 62
7
100
AcDbPolyline
 90
2
 70
0
 10
204.804000
 20
69.324300
 30
0.0
 10
190.304000
 20
69.324300
 30
0.0
  0
LWPOLYLINE
  5
12b
100
AcDbEntity
  8
0
 62
7
100
AcDbPolyline
 90
2
 70
0
 10
204.804000
 20
83.824300
 30
0.0
 10
204.804000
 20
69.324300
 30
0.0
  0
LWPOLYLINE
  5
12c
100
AcDbEntity
  8
0
 62
7
100
AcDbPolyline
 90
3
 70
0
 10
190.304000
 20
69.324300
 30
0.0
 10
190.304000
 20
83.824300
 30
0.0
 10
204.804000
 20
83.824300
 30
0.0
  0
LWPOLYLINE
  5
12d
100
AcDbEntity
  8
0
 62
7
100
AcDbPolyline
 90
2
 70
0
 10
261.804000
 20
95.324300
 30
0.0
 10
247.304000
 20
95.324300
 30
0.0
  0
LWPOLYLINE
  5
12e
100
AcDbEntity
  8
0
 62
7
100
AcDbPolyline
 90
2
 70
0
 10
261.804000
 20
109.824300
 30
0.0
 10
261.804000
 20
95.324300
 30
0.0
  0
LWPOLYLINE
  5
12f
100
AcDbEntity
  8
0
 62
7
100
AcDbPolyline
 90
3
 70
0
 10
247.304000
 20
95.324300
 30
0.0
 10
247.304000
 20
109.824300
 30
0.0
 10
261.804000
 20
109.824300
 30
0.0
  0
LWPOLYLINE
  5
130
100
AcDbEntity
  8
0
 62
7
100
AcDbPolyline
 90
2
 70
0
 10
284.197100
 20
83.948800
 30
0.0
 10
269.752200
 20
85.212500
 30
0.0
  0
LWPOLYLINE
  5
131
100
AcDbEntity
  8
0
 62
7
100
AcDbPolyline
 90
2
 70
0
 10
285.460800
 20
98.393600
 30
0.0
 10
284.197100
 20
83.948800
 30
0.0
  0
LWPOLYLINE
  5
132
100
AcDbEntity
  8
0
 62
7
100
AcDbPolyline
 90
3
 70
0
 10
269.752200
 20
85.212500
 30
0.0
 10
271.016000
 20
99.657300
 30
0.0
 10
285.460800
 20
98.393600
 30
0.0
  0
LWPOLYLINE
  5
133
100
AcDbEntity
  8
0
 62
7
100
AcDbPolyline
 90
2
 70
0
 10
221.526200
 20
22.152300
 30
0.0
 10
207.105600
 20
20.636600
 30
0.0
  0
LWPOLYLINE
  5
134
100
AcDbEntity
  8
0
 62
7
100
AcDbPolyline
 90
2
 70
0
 10
220.010500
 20
36.572900
 30
0.0
 10
221.526200
 20
22.152300
 30
0.0
  0
LWPOLYLINE
  5
135
100
AcDbEntity
  8
0
 62
7
100
AcDbPolyline
 90
3
 70
0
 10
207.105600
 20
20.636600
 30
0.0
 10
205.590000
 20
35.057200
 30
0.0
 10
220.010500
 20
36.572900
 30
0.0
  0
LWPOLYLINE
  5
136
100
AcDbEntity
  8
0
 62
7
100
AcDbPolyline
 90
2
 70
0
 10
223.804000
 20
56.324300
 30
0.0
 10
209.304000
 20
56.324300
 30
0.0
  0
LWPOLYLINE
  5
137
100
AcDbEntity
  8
0
 62
7
100
AcDbPolyline
 90
2
 70
0
 10
223.804000
 20
70.824300
 30
0.0
 10
223.804000
 20
56.324300
 30
0.0
  0
LWPOLYLINE
  5
138
100
AcDbEntity
  8
0
 62
7
100
AcDbPolyline
 90
3
 70
0
 10
209.304000
 20
56.324300
 30
0.0
 10
209.304000
 20
70.824300
 30
0.0
 10
223.804000
 20
70.824300
 30
0.0
  0
LWPOLYLINE
  5
139
100
AcDbEntity
  8
0
 62
7
100
AcDbPolyline
 90
3
 70
0
 10
45.847400
 20
95.584700
 30
0.0
 10
45.847400
 20
81.084700
 30
0.0
 10
60.347400
 20
81.084700
 30
0.0
  0
LWPOLYLINE
  5
13a
100
AcDbEntity
  8
0
 62
7
100
AcDbPolyline
 90
2
 70
0
 10
60.347400
 20
95.584700
 30
0.0
 10
45.847400
 20
95.584700
 30
0.0
  0
LWPOLYLINE
  5
13b
100
AcDbEntity
  8
0
 62
7
100
AcDbPolyline
 90
2
 70
0
 10
60.347400
 20
81.084700
 30
0.0
 10
60.347400
 20
95.584700
 30
0.0
  0
LWPOLYLINE
  5
13c
100
AcDbEntity
  8
0
 62
7
100
AcDbPolyline
 90
3
 70
0
 10
64.847400
 20
89.584700
 30
0.0
 10
64.847400
 20
75.084700
 30
0.0
 10
79.347400
 20
75.084700
 30
0.0
  0
LWPOLYLINE
  5
13d
100
AcDbEntity
  8
0
 62
7
100
AcDbPolyline
 90
2
 70
0
 10
79.347400
 20
89.584700
 30
0.0
 10
64.847400
 20
89.584700
 30
0.0
  0
LWPOLYLINE
  5
13e
100
AcDbEntity
  8
0
 62
7
100
AcDbPolyline
 90
2
 70
0
 10
79.347400
 20
75.084700
 30
0.0
 10
79.347400
 20
89.584700
 30
0.0
  0
LWPOLYLINE
  5
13f
100
AcDbEntity
  8
0
 62
7
100
AcDbPolyline
 90
3
 70
0
 10
4.806900
 20
79.253700
 30
0.0
 10
6.070600
 20
64.808900
 30
0.0
 10
20.515500
 20
66.072600
 30
0.0
  0
LWPOLYLINE
  5
140
100
AcDbEntity
  8
0
 62
7
100
AcDbPolyline
 90
2
 70
0
 10
19.251700
 20
80.517500
 30
0.0
 10
4.806900
 20
79.253700
 30
0.0
  0
LWPOLYLINE
  5
141
100
AcDbEntity
  8
0
 62
7
100
AcDbPolyline
 90
2
 70
0
 10
20.515500
 20
66.072600
 30
0.0
 10
19.251700
 20
80.517500
 30
0.0
  0
LWPOLYLINE
  5
142
100
AcDbEntity
  8
0
 62
7
100
AcDbPolyline
 90
3
 70
0
 10
26.847400
 20
90.584700
 30
0.0
 10
26.847400
 20
76.084700
 30
0.0
 10
41.347400
 20
76.084700
 30
0.0
  0
LWPOLYLINE
  5
143
100
AcDbEntity
  8
0
 62
7
100
AcDbPolyline
 90
2
 70
0
 10
41.347400
 20
90.584700
 30
0.0
 10
26.847400
 20
90.584700
 30
0.0
  0
LWPOLYLINE
  5
144
100
AcDbEntity
  8
0
 62
7
100
AcDbPolyline
 90
2
 70
0
 10
41.347400
 20
76.084700
 30
0.0
 10
41.347400
 20
90.584700
 30
0.0
  0
LWPOLYLINE
  5
145
100
AcDbEntity
  8
0
 62
7
100
AcDbPolyline
 90
3
 70
0
 10
26.847400
 20
71.584700
 30
0.0
 10
26.847400
 20
57.084700
 30
0.0
 10
41.347400
 20
57.084700
 30
0.0
  0
LWPOLYLINE
  5
146
100
AcDbEntity
  8
0
 62
7
100
AcDbPolyline
 90
2
 70
0
 10
41.347400
 20
71.584700
 30
0.0
 10
26.847400
 20
71.584700
 30
0.0
  0
LWPOLYLINE
  5
147
100
AcDbEntity
  8
0
 62
7
100
AcDbPolyline
 90
2
 70
0
 10
41.347400
 20
57.084700
 30
0.0
 10
41.347400
 20
71.584700
 30
0.0
  0
LWPOLYLINE
  5
148
100
AcDbEntity
  8
0
 62
7
100
AcDbPolyline
 90
3
 70
0
 10
3.169600
 20
98.223500
 30
0.0
 10
4.433400
 20
83.778700
 30
0.0
 10
18.878200
 20
85.042400
 30
0.0
  0
LWPOLYLINE
  5
149
100
AcDbEntity
  8
0
 62
7
100
AcDbPolyline
 90
2
 70
0
 10
17.614400
 20
99.487200
 30
0.0
 10
3.169600
 20
98.223500
 30
0.0
  0
LWPOLYLINE
  5
14a
100
AcDbEntity
  8
0
 62
7
100
AcDbPolyline
 90
2
 70
0
 10
18.878200
 20
85.042400
 30
0.0
 10
17.614400
 20
99.487200
 30
0.0
  0
LWPOLYLINE
  5
14b
100
AcDbEntity
  8
0
 62
7
100
AcDbPolyline
 90
3
 70
0
 10
45.847400
 20
114.584700
 30
0.0
 10
45.847400
 20
100.084700
 30
0.0
 10
60.347400
 20
100.084700
 30
0.0
  0
LWPOLYLINE
  5
14c
100
AcDbEntity
  8
0
 62
7
100
AcDbPolyline
 90
2
 70
0
 10
60.347400
 20
114.584700
 30
0.0
 10
45.847400
 20
114.584700
 30
0.0
  0
LWPOLYLINE
  5
14d
100
AcDbEntity
  8
0
 62
7
100
AcDbPolyline
 90
2
 70
0
 10
60.347400
 20
100.084700
 30
0.0
 10
60.347400
 20
114.584700
 30
0.0
  0
LWPOLYLINE
  5
14e
100
AcDbEntity
  8
0
 62
7
100
AcDbPolyline
 90
3
 70
0
 10
68.639900
 20
36.314400
 30
0.0
 10
67.124200
 20
21.893900
 30
0.0
 10
81.544800
 20
20.378200
 30
0.0
  0
LWPOLYLINE
  5
14f
100
AcDbEntity
  8
0
 62
7
100
AcDbPolyline
 90
2
 70
0
 10
83.060400
 20
34.798800
 30
0.0
 10
68.639900
 20
36.314400
 30
0.0
  0
LWPOLYLINE
  5
150
100
AcDbEntity
  8
0
 62
7
100
AcDbPolyline
 90
2
 70
0
 10
81.544800
 20
20.378200
 30
0.0
 10
83.060400
 20
34.798800
 30
0.0
  0
LWPOLYLINE
  5
151
100
AcDbEntity
  8
0
 62
7
100
AcDbPolyline
 90
3
 70
0
 10
64.847400
 20
108.584700
 30
0.0
 10
64.847400
 20
94.084700
 30
0.0
 10
79.347400
 20
94.084700
 30
0.0
  0
LWPOLYLINE
  5
152
100
AcDbEntity
  8
0
 62
7
100
AcDbPolyline
 90
2
 70
0
 10
79.347400
 20
108.584700
 30
0.0
 10
64.847400
 20
108.584700
 30
0.0
  0
LWPOLYLINE
  5
153
100
AcDbEntity
  8
0
 62
7
100
AcDbPolyline
 90
2
 70
0
 10
79.347400
 20
94.084700
 30
0.0
 10
79.347400
 20
108.584700
 30
0.0
  0
LWPOLYLINE
  5
154
100
AcDbEntity
  8
0
 62
7
100
AcDbPolyline
 90
3
 70
0
 10
116.419500
 20
23.593600
 30
0.0
 10
108.735700
 20
11.296900
 30
0.0
 10
121.032400
 20
3.613100
 30
0.0
  0
LWPOLYLINE
  5
155
100
AcDbEntity
  8
0
 62
7
100
AcDbPolyline
 90
2
 70
0
 10
128.716200
 20
15.909800
 30
0.0
 10
116.419500
 20
23.593600
 30
0.0
  0
LWPOLYLINE
  5
156
100
AcDbEntity
  8
0
 62
7
100
AcDbPolyline
 90
2
 70
0
 10
121.032400
 20
3.613100
 30
0.0
 10
128.716200
 20
15.909800
 30
0.0
  0
LWPOLYLINE
  5
157
100
AcDbEntity
  8
0
 62
7
100
AcDbPolyline
 90
3
 70
0
 10
26.847400
 20
109.584700
 30
0.0
 10
26.847400
 20
95.084700
 30
0.0
 10
41.347400
 20
95.084700
 30
0.0
  0
LWPOLYLINE
  5
158
100
AcDbEntity
  8
0
 62
7
100
AcDbPolyline
 90
2
 70
0
 10
41.347400
 20
109.584700
 30
0.0
 10
26.847400
 20
109.584700
 30
0.0
  0
LWPOLYLINE
  5
159
100
AcDbEntity
  8
0
 62
7
100
AcDbPolyline
 90
2
 70
0
 10
41.347400
 20
95.084700
 30
0.0
 10
41.347400
 20
109.584700
 30
0.0
  0
LWPOLYLINE
  5
15a
100
AcDbEntity
  8
0
 62
7
100
AcDbPolyline
 90
3
 70
0
 10
93.016300
 20
32.512600
 30
0.0
 10
88.295600
 20
18.802500
 30
0.0
 10
102.005600
 20
14.081800
 30
0.0
  0
LWPOLYLINE
  5
15b
100
AcDbEntity
  8
0
 62
7
100
AcDbPolyline
 90
2
 70
0
 10
106.726300
 20
27.791800
 30
0.0
 10
93.016300
 20
32.512600
 30
0.0
  0
LWPOLYLINE
  5
15c
100
AcDbEntity
  8
0
 62
7
100
AcDbPolyline
 90
2
 70
0
 10
102.005600
 20
14.081800
 30
0.0
 10
106.726300
 20
27.791800
 30
0.0
  0
LWPOLYLINE
  5
15d
100
AcDbEntity
  8
0
 62
7
100
AcDbPolyline
 90
3
 70
0
 10
101.450000
 20
69.738400
 30
0.0
 10
101.450000
 20
32.938400
 30
0.0
 10
105.050000
 20
32.938400
 30
0.0
  0
LWPOLYLINE
  5
15e
100
AcDbEntity
  8
0
 62
7
100
AcDbPolyline
 90
2
 70
0
 10
105.050000
 20
68.738400
 30
0.0
 10
101.450000
 20
68.738400
 30
0.0
  0
LWPOLYLINE
  5
15f
100
AcDbEntity
  8
0
 62
7
100
AcDbPolyline
 90
2
 70
0
 10
105.050000
 20
32.938400
 30
0.0
 10
105.050000
 20
68.738400
 30
0.0
  0
LWPOLYLINE
  5
160
100
AcDbEntity
  8
0
 62
7
100
AcDbPolyline
 90
3
 70
0
 10
6.455500
 20
60.265200
 30
0.0
 10
7.719300
 20
45.820400
 30
0.0
 10
22.164100
 20
47.084100
 30
0.0
  0
LWPOLYLINE
  5
161
100
AcDbEntity
  8
0
 62
7
100
AcDbPolyline
 90
2
 70
0
 10
20.900300
 20
61.528900
 30
0.0
 10
6.455500
 20
60.265200
 30
0.0
  0
LWPOLYLINE
  5
162
100
AcDbEntity
  8
0
 62
7
100
AcDbPolyline
 90
2
 70
0
 10
22.164100
 20
47.084100
 30
0.0
 10
20.900300
 20
61.528900
 30
0.0
  0
LWPOLYLINE
  5
163
100
AcDbEntity
  8
0
 62
7
100
AcDbPolyline
 90
3
 70
0
 10
83.847400
 20
83.584700
 30
0.0
 10
83.847400
 20
69.084700
 30
0.0
 10
98.347400
 20
69.084700
 30
0.0
  0
LWPOLYLINE
  5
164
100
AcDbEntity
  8
0
 62
7
100
AcDbPolyline
 90
2
 70
0
 10
98.347400
 20
83.584700
 30
0.0
 10
83.847400
 20
83.584700
 30
0.0
  0
LWPOLYLINE
  5
165
100
AcDbEntity
  8
0
 62
7
100
AcDbPolyline
 90
2
 70
0
 10
98.347400
 20
69.084700
 30
0.0
 10
98.347400
 20
83.584700
 30
0.0
  0
LWPOLYLINE
  5
166
100
AcDbEntity
  8
0
 62
7
100
AcDbPolyline
 90
3
 70
0
 10
83.847400
 20
102.584700
 30
0.0
 10
83.847400
 20
88.084700
 30
0.0
 10
98.347400
 20
88.084700
 30
0.0
  0
LWPOLYLINE
  5
167
100
AcDbEntity
  8
0
 62
7
100
AcDbPolyline
 90
2
 70
0
 10
98.347400
 20
102.584700
 30
0.0
 10
83.847400
 20
102.584700
 30
0.0
  0
LWPOLYLINE
  5
168
100
AcDbEntity
  8
0
 62
7
100
AcDbPolyline
 90
2
 70
0
 10
98.347400
 20
88.084700
 30
0.0
 10
98.347400
 20
102.584700
 30
0.0
  0
LWPOLYLINE
  5
169
100
AcDbEntity
  8
0
 62
7
100
AcDbPolyline
 90
3
 70
0
 10
64.847400
 20
70.584700
 30
0.0
 10
64.847400
 20
56.084700
 30
0.0
 10
79.347400
 20
56.084700
 30
0.0
  0
LWPOLYLINE
  5
16a
100
AcDbEntity
  8
0
 62
7
100
AcDbPolyline
 90
2
 70
0
 10
79.347400
 20
70.584700
 30
0.0
 10
64.847400
 20
70.584700
 30
0.0
  0
LWPOLYLINE
  5
16b
100
AcDbEntity
  8
0
 62
7
100
AcDbPolyline
 90
2
 70
0
 10
79.347400
 20
56.084700
 30
0.0
 10
79.347400
 20
70.584700
 30
0.0
  0
LWPOLYLINE
  5
16c
100
AcDbEntity
  8
0
 62
7
100
AcDbPolyline
 90
3
 70
0
 10
45.847400
 20
76.584700
 30
0.0
 10
45.847400
 20
62.084700
 30
0.0
 10
60.347400
 20
62.084700
 30
0.0
  0
LWPOLYLINE
  5
16d
100
AcDbEntity
  8
0
 62
7
100
AcDbPolyline
 90
2
 70
0
 10
60.347400
 20
76.584700
 30
0.0
 10
45.847400
 20
76.584700
 30
0.0
  0
LWPOLYLINE
  5
16e
100
AcDbEntity
  8
0
 62
7
100
AcDbPolyline
 90
2
 70
0
 10
60.347400
 20
62.084700
 30
0.0
 10
60.347400
 20
76.584700
 30
0.0
  0
LWPOLYLINE
  5
16f
100
AcDbEntity
  8
0
 62
7
100
AcDbPolyline
 90
3
 70
0
 10
83.847400
 20
64.584700
 30
0.0
 10
83.847400
 20
50.084700
 30
0.0
 10
98.347400
 20
50.084700
 30
0.0
  0
LWPOLYLINE
  5
170
100
AcDbEntity
  8
0
 62
7
100
AcDbPolyline
 90
2
 70
0
 10
98.347400
 20
64.584700
 30
0.0
 10
83.847400
 20
64.584700
 30
0.0
  0
LWPOLYLINE
  5
171
100
AcDbEntity
  8
0
 62
7
100
AcDbPolyline
 90
2
 70
0
 10
98.347400
 20
50.084700
 30
0.0
 10
98.347400
 20
64.584700
 30
0.0
  0
LWPOLYLINE
  5
172
100
AcDbEntity
  8
0
 62
7
100
AcDbPolyline
 90
3
 70
0
 10
46.097400
 20
95.334700
 30
0.0
 10
46.097400
 20
81.334700
 30
0.0
 10
60.097400
 20
81.334700
 30
0.0
  0
LWPOLYLINE
  5
173
100
AcDbEntity
  8
0
 62
7
100
AcDbPolyline
 90
2
 70
0
 10
60.097400
 20
95.334700
 30
0.0
 10
46.097400
 20
95.334700
 30
0.0
  0
LWPOLYLINE
  5
174
100
AcDbEntity
  8
0
 62
7
100
AcDbPolyline
 90
2
 70
0
 10
60.097400
 20
81.334700
 30
0.0
 10
60.097400
 20
95.334700
 30
0.0
  0
LWPOLYLINE
  5
175
100
AcDbEntity
  8
0
 62
7
100
AcDbPolyline
 90
3
 70
0
 10
65.097400
 20
89.334700
 30
0.0
 10
65.097400
 20
75.334700
 30
0.0
 10
79.097400
 20
75.334700
 30
0.0
  0
LWPOLYLINE
  5
176
100
AcDbEntity
  8
0
 62
7
100
AcDbPolyline
 90
2
 70
0
 10
79.097400
 20
89.334700
 30
0.0
 10
65.097400
 20
89.334700
 30
0.0
  0
LWPOLYLINE
  5
177
100
AcDbEntity
  8
0
 62
7
100
AcDbPolyline
 90
2
 70
0
 10
79.097400
 20
75.334700
 30
0.0
 10
79.097400
 20
89.334700
 30
0.0
  0
LWPOLYLINE
  5
178
100
AcDbEntity
  8
0
 62
7
100
AcDbPolyline
 90
3
 70
0
 10
5.077700
 20
79.026500
 30
0.0
 10
6.297900
 20
65.079700
 30
0.0
 10
20.244600
 20
66.299900
 30
0.0
  0
LWPOLYLINE
  5
179
100
AcDbEntity
  8
0
 62
7
100
AcDbPolyline
 90
2
 70
0
 10
19.024400
 20
80.246600
 30
0.0
 10
5.077700
 20
79.026500
 30
0.0
  0
LWPOLYLINE
  5
17a
100
AcDbEntity
  8
0
 62
7
100
AcDbPolyline
 90
2
 70
0
 10
20.244600
 20
66.299900
 30
0.0
 10
19.024400
 20
80.246600
 30
0.0
  0
LWPOLYLINE
  5
17b
100
AcDbEntity
  8
0
 62
7
100
AcDbPolyline
 90
3
 70
0
 10
27.097400
 20
90.334700
 30
0.0
 10
27.097400
 20
76.334700
 30
0.0
 10
41.097400
 20
76.334700
 30
0.0
  0
LWPOLYLINE
  5
17c
100
AcDbEntity
  8
0
 62
7
100
AcDbPolyline
 90
2
 70
0
 10
41.097400
 20
90.334700
 30
0.0
 10
27.097400
 20
90.334700
 30
0.0
  0
LWPOLYLINE
  5
17d
100
AcDbEntity
  8
0
 62
7
100
AcDbPolyline
 90
2
 70
0
 10
41.097400
 20
76.334700
 30
0.0
 10
41.097400
 20
90.334700
 30
0.0
  0
LWPOLYLINE
  5
17e
100
AcDbEntity
  8
0
 62
7
100
AcDbPolyline
 90
3
 70
0
 10
27.097400
 20
71.334700
 30
0.0
 10
27.097400
 20
57.334700
 30
0.0
 10
41.097400
 20
57.334700
 30
0.0
  0
LWPOLYLINE
  5
17f
100
AcDbEntity
  8
0
 62
7
100
AcDbPolyline
 90
2
 70
0
 10
41.097400
 20
71.334700
 30
0.0
 10
27.097400
 20
71.334700
 30
0.0
  0
LWPOLYLINE
  5
180
100
AcDbEntity
  8
0
 62
7
100
AcDbPolyline
 90
2
 70
0
 10
41.097400
 20
57.334700
 30
0.0
 10
41.097400
 20
71.334700
 30
0.0
  0
LWPOLYLINE
  5
181
100
AcDbEntity
  8
0
 62
7
100
AcDbPolyline
 90
3
 70
0
 10
3.440400
 20
97.996200
 30
0.0
 10
4.660600
 20
84.049500
 30
0.0
 10
18.607300
 20
85.269700
 30
0.0
  0
LWPOLYLINE
  5
182
100
AcDbEntity
  8
0
 62
7
100
AcDbPolyline
 90
2
 70
0
 10
17.387200
 20
99.216400
 30
0.0
 10
3.440400
 20
97.996200
 30
0.0
  0
LWPOLYLINE
  5
183
100
AcDbEntity
  8
0
 62
7
100
AcDbPolyline
 90
2
 70
0
 10
18.607300
 20
85.269700
 30
0.0
 10
17.387200
 20
99.216400
 30
0.0
  0
LWPOLYLINE
  5
184
100
AcDbEntity
  8
0
 62
7
100
AcDbPolyline
 90
3
 70
0
 10
46.097400
 20
114.334700
 30
0.0
 10
46.097400
 20
100.334700
 30
0.0
 10
60.097400
 20
100.334700
 30
0.0
  0
LWPOLYLINE
  5
185
100
AcDbEntity
  8
0
 62
7
100
AcDbPolyline
 90
2
 70
0
 10
60.097400
 20
114.334700
 30
0.0
 10
46.097400
 20
114.334700
 30
0.0
  0
LWPOLYLINE
  5
186
100
AcDbEntity
  8
0
 62
7
100
AcDbPolyline
 90
2
 70
0
 10
60.097400
 20
100.334700
 30
0.0
 10
60.097400
 20
114.334700
 30
0.0
  0
LWPOLYLINE
  5
187
100
AcDbEntity
  8
0
 62
7
100
AcDbPolyline
 90
3
 70
0
 10
68.862400
 20
36.039700
 30
0.0
 10
67.399000
 20
22.116400
 30
0.0
 10
81.322300
 20
20.653000
 30
0.0
  0
LWPOLYLINE
  5
188
100
AcDbEntity
  8
0
 62
7
100
AcDbPolyline
 90
2
 70
0
 10
82.785700
 20
34.576300
 30
0.0
 10
68.862400
 20
36.039700
 30
0.0
  0
LWPOLYLINE
  5
189
100
AcDbEntity
  8
0
 62
7
100
AcDbPolyline
 90
2
 70
0
 10
81.322300
 20
20.653000
 30
0.0
 10
82.785700
 20
34.576300
 30
0.0
  0
LWPOLYLINE
  5
18a
100
AcDbEntity
  8
0
 62
7
100
AcDbPolyline
 90
3
 70
0
 10
65.097400
 20
108.334700
 30
0.0
 10
65.097400
 20
94.334700
 30
0.0
 10
79.097400
 20
94.334700
 30
0.0
  0
LWPOLYLINE
  5
18b
100
AcDbEntity
  8
0
 62
7
100
AcDbPolyline
 90
2
 70
0
 10
79.097400
 20
108.334700
 30
0.0
 10
65.097400
 20
108.334700
 30
0.0
  0
LWPOLYLINE
  5
18c
100
AcDbEntity
  8
0
 62
7
100
AcDbPolyline
 90
2
 70
0
 10
79.097400
 20
94.334700
 30
0.0
 10
79.097400
 20
108.334700
 30
0.0
  0
LWPOLYLINE
  5
18d
100
AcDbEntity
  8
0
 62
7
100
AcDbPolyline
 90
3
 70
0
 10
116.499100
 20
23.249100
 30
0.0
 10
109.080200
 20
11.376400
 30
0.0
 10
120.952900
 20
3.957500
 30
0.0
  0
LWPOLYLINE
  5
18e
100
AcDbEntity
  8
0
 62
7
100
AcDbPolyline
 90
2
 70
0
 10
128.371700
 20
15.830200
 30
0.0
 10
116.499100
 20
23.249100
 30
0.0
  0
LWPOLYLINE
  5
18f
100
AcDbEntity
  8
0
 62
7
100
AcDbPolyline
 90
2
 70
0
 10
120.952900
 20
3.957500
 30
0.0
 10
128.371700
 20
15.830200
 30
0.0
  0
LWPOLYLINE
  5
190
100
AcDbEntity
  8
0
 62
7
100
AcDbPolyline
 90
3
 70
0
 10
27.097400
 20
109.334700
 30
0.0
 10
27.097400
 20
95.334700
 30
0.0
 10
41.097400
 20
95.334700
 30
0.0
  0
LWPOLYLINE
  5
191
100
AcDbEntity
  8
0
 62
7
100
AcDbPolyline
 90
2
 70
0
 10
41.097400
 20
109.334700
 30
0.0
 10
27.097400
 20
109.334700
 30
0.0
  0
LWPOLYLINE
  5
192
100
AcDbEntity
  8
0
 62
7
100
AcDbPolyline
 90
2
 70
0
 10
41.097400
 20
95.334700
 30
0.0
 10
41.097400
 20
109.334700
 30
0.0
  0
LWPOLYLINE
  5
193
100
AcDbEntity
  8
0
 62
7
100
AcDbPolyline
 90
3
 70
0
 10
93.171300
 20
32.194800
 30
0.0
 10
88.613300
 20
18.957500
 30
0.0
 10
101.850600
 20
14.399600
 30
0.0
  0
LWPOLYLINE
  5
194
100
AcDbEntity
  8
0
 62
7
100
AcDbPolyline
 90
2
 70
0
 10
106.408600
 20
27.636800
 30
0.0
 10
93.171300
 20
32.194800
 30
0.0
  0
LWPOLYLINE
  5
195
100
AcDbEntity
  8
0
 62
7
100
AcDbPolyline
 90
2
 70
0
 10
101.850600
 20
14.399600
 30
0.0
 10
106.408600
 20
27.636800
 30
0.0
  0
LWPOLYLINE
  5
196
100
AcDbEntity
  8
0
 62
7
100
AcDbPolyline
 90
3
 70
0
 10
6.726300
 20
60.037900
 30
0.0
 10
7.946500
 20
46.091200
 30
0.0
 10
21.893300
 20
47.311400
 30
0.0
  0
LWPOLYLINE
  5
197
100
AcDbEntity
  8
0
 62
7
100
AcDbPolyline
 90
2
 70
0
 10
20.673100
 20
61.258100
 30
0.0
 10
6.726300
 20
60.037900
 30
0.0
  0
LWPOLYLINE
  5
198
100
AcDbEntity
  8
0
 62
7
100
AcDbPolyline
 90
2
 70
0
 10
21.893300
 20
47.311400
 30
0.0
 10
20.673100
 20
61.258100
 30
0.0
  0
LWPOLYLINE
  5
199
100
AcDbEntity
  8
0
 62
7
100
AcDbPolyline
 90
3
 70
0
 10
84.097400
 20
83.334700
 30
0.0
 10
84.097400
 20
69.334700
 30
0.0
 10
98.097400
 20
69.334700
 30
0.0
  0
LWPOLYLINE
  5
19a
100
AcDbEntity
  8
0
 62
7
100
AcDbPolyline
 90
2
 70
0
 10
98.097400
 20
83.334700
 30
0.0
 10
84.097400
 20
83.334700
 30
0.0
  0
LWPOLYLINE
  5
19b
100
AcDbEntity
  8
0
 62
7
100
AcDbPolyline
 90
2
 70
0
 10
98.097400
 20
69.334700
 30
0.0
 10
98.097400
 20
83.334700
 30
0.0
  0
LWPOLYLINE
  5
19c
100
AcDbEntity
  8
0
 62
7
100
AcDbPolyline
 90
3
 70
0
 10
84.097400
 20
102.334700
 30
0.0
 10
84.097400
 20
88.334700
 30
0.0
 10
98.097400
 20
88.334700
 30
0.0
  0
LWPOLYLINE
  5
19d
100
AcDbEntity
  8
0
 62
7
100
AcDbPolyline
 90
2
 70
0
 10
98.097400
 20
102.334700
 30
0.0
 10
84.097400
 20
102.334700
 30
0.0
  0
LWPOLYLINE
  5
19e
100
AcDbEntity
  8
0
 62
7
100
AcDbPolyline
 90
2
 70
0
 10
98.097400
 20
88.334700
 30
0.0
 10
98.097400
 20
102.334700
 30
0.0
  0
LWPOLYLINE
  5
19f
100
AcDbEntity
  8
0
 62
7
100
AcDbPolyline
 90
3
 70
0
 10
65.097400
 20
70.334700
 30
0.0
 10
65.097400
 20
56.334700
 30
0.0
 10
79.097400
 20
56.334700
 30
0.0
  0
LWPOLYLINE
  5
1a0
100
AcDbEntity
  8
0
 62
7
100
AcDbPolyline
 90
2
 70
0
 10
79.097400
 20
70.334700
 30
0.0
 10
65.097400
 20
70.334700
 30
0.0
  0
LWPOLYLINE
  5
1a1
100
AcDbEntity
  8
0
 62
7
100
AcDbPolyline
 90
2
 70
0
 10
79.097400
 20
56.334700
 30
0.0
 10
79.097400
 20
70.334700
 30
0.0
  0
LWPOLYLINE
  5
1a2
100
AcDbEntity
  8
0
 62
7
100
AcDbPolyline
 90
3
 70
0
 10
46.097400
 20
76.334700
 30
0.0
 10
46.097400
 20
62.334700
 30
0.0
 10
60.097400
 20
62.334700
 30
0.0
  0
LWPOLYLINE
  5
1a3
100
AcDbEntity
  8
0
 62
7
100
AcDbPolyline
 90
2
 70
0
 10
60.097400
 20
76.334700
 30
0.0
 10
46.097400
 20
76.334700
 30
0.0
  0
LWPOLYLINE
  5
1a4
100
AcDbEntity
  8
0
 62
7
100
AcDbPolyline
 90
2
 70
0
 10
60.097400
 20
62.334700
 30
0.0
 10
60.097400
 20
76.334700
 30
0.0
  0
LWPOLYLINE
  5
1a5
100
AcDbEntity
  8
0
 62
7
100
AcDbPolyline
 90
3
 70
0
 10
84.097400
 20
64.334700
 30
0.0
 10
84.097400
 20
50.334700
 30
0.0
 10
98.097400
 20
50.334700
 30
0.0
  0
LWPOLYLINE
  5
1a6
100
AcDbEntity
  8
0
 62
7
100
AcDbPolyline
 90
2
 70
0
 10
98.097400
 20
64.334700
 30
0.0
 10
84.097400
 20
64.334700
 30
0.0
  0
LWPOLYLINE
  5
1a7
100
AcDbEntity
  8
0
 62
7
100
AcDbPolyline
 90
2
 70
0
 10
98.097400
 20
50.334700
 30
0.0
 10
98.097400
 20
64.334700
 30
0.0
  0
LWPOLYLINE
  5
1a8
100
AcDbEntity
  8
0
 62
7
100
AcDbPolyline
 90
2
 70
0
 10
261.554000
 20
57.574300
 30
0.0
 10
247.554000
 20
57.574300
 30
0.0
  0
LWPOLYLINE
  5
1a9
100
AcDbEntity
  8
0
 62
7
100
AcDbPolyline
 90
2
 70
0
 10
261.554000
 20
71.574300
 30
0.0
 10
261.554000
 20
57.574300
 30
0.0
  0
LWPOLYLINE
  5
1aa
100
AcDbEntity
  8
0
 62
7
100
AcDbPolyline
 90
3
 70
0
 10
247.554000
 20
57.574300
 30
0.0
 10
247.554000
 20
71.574300
 30
0.0
 10
261.554000
 20
71.574300
 30
0.0
  0
LWPOLYLINE
  5
1ab
100
AcDbEntity
  8
0
 62
7
100
AcDbPolyline
 90
2
 70
0
 10
223.554000
 20
94.574300
 30
0.0
 10
209.554000
 20
94.574300
 30
0.0
  0
LWPOLYLINE
  5
1ac
100
AcDbEntity
  8
0
 62
7
100
AcDbPolyline
 90
2
 70
0
 10
223.554000
 20
108.574300
 30
0.0
 10
223.554000
 20
94.574300
 30
0.0
  0
LWPOLYLINE
  5
1ad
100
AcDbEntity
  8
0
 62
7
100
AcDbPolyline
 90
3
 70
0
 10
209.554000
 20
94.574300
 30
0.0
 10
209.554000
 20
108.574300
 30
0.0
 10
223.554000
 20
108.574300
 30
0.0
  0
LWPOLYLINE
  5
1ae
100
AcDbEntity
  8
0
 62
7
100
AcDbPolyline
 90
2
 70
0
 10
242.554000
 20
100.574300
 30
0.0
 10
228.554000
 20
100.574300
 30
0.0
  0
LWPOLYLINE
  5
1af
100
AcDbEntity
  8
0
 62
7
100
AcDbPolyline
 90
2
 70
0
 10
242.554000
 20
114.574300
 30
0.0
 10
242.554000
 20
100.574300
 30
0.0
  0
LWPOLYLINE
  5
1b0
100
AcDbEntity
  8
0
 62
7
100
AcDbPolyline
 90
3
 70
0
 10
228.554000
 20
100.574300
 30
0.0
 10
228.554000
 20
114.574300
 30
0.0
 10
242.554000
 20
114.574300
 30
0.0
  0
LWPOLYLINE
  5
1b1
100
AcDbEntity
  8
0
 62
7
100
AcDbPolyline
 90
2
 70
0
 10
179.543800
 20
11.711500
 30
0.0
 10
167.671100
 20
4.292600
 30
0.0
  0
LWPOLYLINE
  5
1b2
100
AcDbEntity
  8
0
 62
7
100
AcDbPolyline
 90
2
 70
0
 10
172.124900
 20
23.584100
 30
0.0
 10
179.543800
 20
11.711500
 30
0.0
  0
LWPOLYLINE
  5
1b3
100
AcDbEntity
  8
0
 62
7
100
AcDbPolyline
 90
3
 70
0
 10
167.671100
 20
4.292600
 30
0.0
 10
160.252300
 20
16.165300
 30
0.0
 10
172.124900
 20
23.584100
 30
0.0
  0
LWPOLYLINE
  5
1b4
100
AcDbEntity
  8
0
 62
7
100
AcDbPolyline
 90
2
 70
0
 10
282.352800
 20
65.303600
 30
0.0
 10
268.406100
 20
66.523800
 30
0.0
  0
LWPOLYLINE
  5
1b5
100
AcDbEntity
  8
0
 62
7
100
AcDbPolyline
 90
2
 70
0
 10
283.573000
 20
79.250300
 30
0.0
 10
282.352800
 20
65.303600
 30
0.0
  0
LWPOLYLINE
  5
1b6
100
AcDbEntity
  8
0
 62
7
100
AcDbPolyline
 90
3
 70
0
 10
268.406100
 20
66.523800
 30
0.0
 10
269.626300
 20
80.470500
 30
0.0
 10
283.573000
 20
79.250300
 30
0.0
  0
LWPOLYLINE
  5
1b7
100
AcDbEntity
  8
0
 62
7
100
AcDbPolyline
 90
2
 70
0
 10
223.554000
 20
75.574300
 30
0.0
 10
209.554000
 20
75.574300
 30
0.0
  0
LWPOLYLINE
  5
1b8
100
AcDbEntity
  8
0
 62
7
100
AcDbPolyline
 90
2
 70
0
 10
223.554000
 20
89.574300
 30
0.0
 10
223.554000
 20
75.574300
 30
0.0
  0
LWPOLYLINE
  5
1b9
100
AcDbEntity
  8
0
 62
7
100
AcDbPolyline
 90
3
 70
0
 10
209.554000
 20
75.574300
 30
0.0
 10
209.554000
 20
89.574300
 30
0.0
 10
223.554000
 20
89.574300
 30
0.0
  0
LWPOLYLINE
  5
1ba
100
AcDbEntity
  8
0
 62
7
100
AcDbPolyline
 90
2
 70
0
 10
261.554000
 20
76.574300
 30
0.0
 10
247.554000
 20
76.574300
 30
0.0
  0
LWPOLYLINE
  5
1bb
100
AcDbEntity
  8
0
 62
7
100
AcDbPolyline
 90
2
 70
0
 10
261.554000
 20
90.574300
 30
0.0
 10
261.554000
 20
76.574300
 30
0.0
  0
LWPOLYLINE
  5
1bc
100
AcDbEntity
  8
0
 62
7
100
AcDbPolyline
 90
3
 70
0
 10
247.554000
 20
76.574300
 30
0.0
 10
247.554000
 20
90.574300
 30
0.0
 10
261.554000
 20
90.574300
 30
0.0
  0
LWPOLYLINE
  5
1bd
100
AcDbEntity
  8
0
 62
7
100
AcDbPolyline
 90
2
 70
0
 10
204.554000
 20
88.574300
 30
0.0
 10
190.554000
 20
88.574300
 30
0.0
  0
LWPOLYLINE
  5
1be
100
AcDbEntity
  8
0
 62
7
100
AcDbPolyline
 90
2
 70
0
 10
204.554000
 20
102.574300
 30
0.0
 10
204.554000
 20
88.574300
 30
0.0
  0
LWPOLYLINE
  5
1bf
100
AcDbEntity
  8
0
 62
7
100
AcDbPolyline
 90
3
 70
0
 10
190.554000
 20
88.574300
 30
0.0
 10
190.554000
 20
102.574300
 30
0.0
 10
204.554000
 20
102.574300
 30
0.0
  0
LWPOLYLINE
  5
1c0
100
AcDbEntity
  8
0
 62
7
100
AcDbPolyline
 90
2
 70
0
 10
242.554000
 20
81.574300
 30
0.0
 10
228.554000
 20
81.574300
 30
0.0
  0
LWPOLYLINE
  5
1c1
100
AcDbEntity
  8
0
 62
7
100
AcDbPolyline
 90
2
 70
0
 10
242.554000
 20
95.574300
 30
0.0
 10
242.554000
 20
81.574300
 30
0.0
  0
LWPOLYLINE
  5
1c2
100
AcDbEntity
  8
0
 62
7
100
AcDbPolyline
 90
3
 70
0
 10
228.554000
 20
81.574300
 30
0.0
 10
228.554000
 20
95.574300
 30
0.0
 10
242.554000
 20
95.574300
 30
0.0
  0
LWPOLYLINE
  5
1c3
100
AcDbEntity
  8
0
 62
7
100
AcDbPolyline
 90
2
 70
0
 10
204.554000
 20
50.574300
 30
0.0
 10
190.554000
 20
50.574300
 30
0.0
  0
LWPOLYLINE
  5
1c4
100
AcDbEntity
  8
0
 62
7
100
AcDbPolyline
 90
2
 70
0
 10
204.554000
 20
64.574300
 30
0.0
 10
204.554000
 20
50.574300
 30
0.0
  0
LWPOLYLINE
  5
1c5
100
AcDbEntity
  8
0
 62
7
100
AcDbPolyline
 90
3
 70
0
 10
190.554000
 20
50.574300
 30
0.0
 10
190.554000
 20
64.574300
 30
0.0
 10
204.554000
 20
64.574300
 30
0.0
  0
LWPOLYLINE
  5
1c6
100
AcDbEntity
  8
0
 62
7
100
AcDbPolyline
 90
2
 70
0
 10
200.028200
 20
19.255800
 30
0.0
 10
186.791000
 20
14.697800
 30
0.0
  0
LWPOLYLINE
  5
1c7
100
AcDbEntity
  8
0
 62
7
100
AcDbPolyline
 90
2
 70
0
 10
195.470300
 20
32.493000
 30
0.0
 10
200.028200
 20
19.255800
 30
0.0
  0
LWPOLYLINE
  5
1c8
100
AcDbEntity
  8
0
 62
7
100
AcDbPolyline
 90
3
 70
0
 10
186.791000
 20
14.697800
 30
0.0
 10
182.233000
 20
27.935100
 30
0.0
 10
195.470300
 20
32.493000
 30
0.0
  0
LWPOLYLINE
  5
1c9
100
AcDbEntity
  8
0
 62
7
100
AcDbPolyline
 90
2
 70
0
 10
242.554000
 20
62.574300
 30
0.0
 10
228.554000
 20
62.574300
 30
0.0
  0
LWPOLYLINE
  5
1ca
100
AcDbEntity
  8
0
 62
7
100
AcDbPolyline
 90
2
 70
0
 10
242.554000
 20
76.574300
 30
0.0
 10
242.554000
 20
62.574300
 30
0.0
  0
LWPOLYLINE
  5
1cb
100
AcDbEntity
  8
0
 62
7
100
AcDbPolyline
 90
3
 70
0
 10
228.554000
 20
62.574300
 30
0.0
 10
228.554000
 20
76.574300
 30
0.0
 10
242.554000
 20
76.574300
 30
0.0
  0
LWPOLYLINE
  5
1cc
100
AcDbEntity
  8
0
 62
7
100
AcDbPolyline
 90
2
 70
0
 10
280.704200
 20
46.315100
 30
0.0
 10
266.757500
 20
47.535300
 30
0.0
  0
LWPOLYLINE
  5
1cd
100
AcDbEntity
  8
0
 62
7
100
AcDbPolyline
 90
2
 70
0
 10
281.924400
 20
60.261800
 30
0.0
 10
280.704200
 20
46.315100
 30
0.0
  0
LWPOLYLINE
  5
1ce
100
AcDbEntity
  8
0
 62
7
100
AcDbPolyline
 90
3
 70
0
 10
266.757500
 20
47.535300
 30
0.0
 10
267.977600
 20
61.482000
 30
0.0
 10
281.924400
 20
60.261800
 30
0.0
  0
LWPOLYLINE
  5
1cf
100
AcDbEntity
  8
0
 62
7
100
AcDbPolyline
 90
2
 70
0
 10
204.554000
 20
69.574300
 30
0.0
 10
190.554000
 20
69.574300
 30
0.0
  0
LWPOLYLINE
  5
1d0
100
AcDbEntity
  8
0
 62
7
100
AcDbPolyline
 90
2
 70
0
 10
204.554000
 20
83.574300
 30
0.0
 10
204.554000
 20
69.574300
 30
0.0
  0
LWPOLYLINE
  5
1d1
100
AcDbEntity
  8
0
 62
7
100
AcDbPolyline
 90
3
 70
0
 10
190.554000
 20
69.574300
 30
0.0
 10
190.554000
 20
83.574300
 30
0.0
 10
204.554000
 20
83.574300
 30
0.0
  0
LWPOLYLINE
  5
1d2
100
AcDbEntity
  8
0
 62
7
100
AcDbPolyline
 90
2
 70
0
 10
261.554000
 20
95.574300
 30
0.0
 10
247.554000
 20
95.574300
 30
0.0
  0
LWPOLYLINE
  5
1d3
100
AcDbEntity
  8
0
 62
7
100
AcDbPolyline
 90
2
 70
0
 10
261.554000
 20
109.574300
 30
0.0
 10
261.554000
 20
95.574300
 30
0.0
  0
LWPOLYLINE
  5
1d4
100
AcDbEntity
  8
0
 62
7
100
AcDbPolyline
 90
3
 70
0
 10
247.554000
 20
95.574300
 30
0.0
 10
247.554000
 20
109.574300
 30
0.0
 10
261.554000
 20
109.574300
 30
0.0
  0
LWPOLYLINE
  5
1d5
100
AcDbEntity
  8
0
 62
7
100
AcDbPolyline
 90
2
 70
0
 10
283.969800
 20
84.219600
 30
0.0
 10
270.023100
 20
85.439800
 30
0.0
  0
LWPOLYLINE
  5
1d6
100
AcDbEntity
  8
0
 62
7
100
AcDbPolyline
 90
2
 70
0
 10
285.190000
 20
98.166300
 30
0.0
 10
283.969800
 20
84.219600
 30
0.0
  0
LWPOLYLINE
  5
1d7
100
AcDbEntity
  8
0
 62
7
100
AcDbPolyline
 90
3
 70
0
 10
270.023100
 20
85.439800
 30
0.0
 10
271.243300
 20
99.386500
 30
0.0
 10
285.190000
 20
98.166300
 30
0.0
  0
LWPOLYLINE
  5
1d8
100
AcDbEntity
  8
0
 62
7
100
AcDbPolyline
 90
2
 70
0
 10
221.251400
 20
22.374800
 30
0.0
 10
207.328100
 20
20.911400
 30
0.0
  0
LWPOLYLINE
  5
1d9
100
AcDbEntity
  8
0
 62
7
100
AcDbPolyline
 90
2
 70
0
 10
219.788000
 20
36.298100
 30
0.0
 10
221.251400
 20
22.374800
 30
0.0
  0
LWPOLYLINE
  5
1da
100
AcDbEntity
  8
0
 62
7
100
AcDbPolyline
 90
3
 70
0
 10
207.328100
 20
20.911400
 30
0.0
 10
205.864700
 20
34.834700
 30
0.0
 10
219.788000
 20
36.298100
 30
0.0
  0
LWPOLYLINE
  5
1db
100
AcDbEntity
  8
0
 62
7
100
AcDbPolyline
 90
2
 70
0
 10
223.554000
 20
56.574300
 30
0.0
 10
209.554000
 20
56.574300
 30
0.0
  0
LWPOLYLINE
  5
1dc
100
AcDbEntity
  8
0
 62
7
100
AcDbPolyline
 90
2
 70
0
 10
223.554000
 20
70.574300
 30
0.0
 10
223.554000
 20
56.574300
 30
0.0
  0
LWPOLYLINE
  5
1dd
100
AcDbEntity
  8
0
 62
7
100
AcDbPolyline
 90
3
 70
0
 10
209.554000
 20
56.574300
 30
0.0
 10
209.554000
 20
70.574300
 30
0.0
 10
223.554000
 20
70.574300
 30
0.0
  0
LWPOLYLINE
  5
1de
100
AcDbEntity
  8
0
 62
7
100
AcDbPolyline
 90
2
 70
0
 10
72.750000
 20
110.938400
 30
0.0
 10
81.700000
 20
110.938400
 30
0.0
  0
LWPOLYLINE
  5
1df
100
AcDbEntity
  8
0
 62
7
100
AcDbPolyline
 90
2
 70
0
 10
110.250000
 20
26.938400
 30
0.0
 10
115.500000
 20
26.938400
 30
0.0
  0
LWPOLYLINE
  5
1e0
100
AcDbEntity
  8
0
 62
7
100
AcDbPolyline
 90
2
 70
0
 10
103.950000
 20
10.438400
 30
0.0
 10
84.250000
 20
17.538400
 30
0.0
  0
LWPOLYLINE
  5
1e1
100
AcDbEntity
  8
0
 62
7
100
AcDbPolyline
 90
2
 70
0
 10
5.250000
 20
42.838400
 30
0.0
 10
0.050000
 20
100.538400
 30
0.0
  0
LWPOLYLINE
  5
1e2
100
AcDbEntity
  8
0
 62
7
100
AcDbPolyline
 90
2
 70
0
 10
110.250000
 20
68.538400
 30
0.0
 10
110.250000
 20
26.938400
 30
0.0
  0
LWPOLYLINE
  5
1e3
100
AcDbEntity
  8
0
 62
7
100
AcDbPolyline
 90
2
 70
0
 10
115.500000
 20
26.938400
 30
0.0
 10
132.050000
 20
16.638400
 30
0.0
  0
LWPOLYLINE
  5
1e4
100
AcDbEntity
  8
0
 62
7
100
AcDbPolyline
 90
2
 70
0
 10
62.700000
 20
116.988400
 30
0.0
 10
62.700000
 20
110.938400
 30
0.0
  0
LWPOLYLINE
  5
1e5
100
AcDbEntity
  8
0
 62
7
100
AcDbPolyline
 90
2
 70
0
 10
24.150000
 20
52.238400
 30
0.0
 10
48.050000
 20
52.238400
 30
0.0
  0
LWPOLYLINE
  5
1e6
100
AcDbEntity
  8
0
 62
7
100
AcDbPolyline
 90
2
 70
0
 10
113.850000
 20
99.938400
 30
0.0
 10
113.850000
 20
103.838400
 30
0.0
  0
LWPOLYLINE
  5
1e7
100
AcDbEntity
  8
0
 62
7
100
AcDbPolyline
 90
2
 70
0
 10
106.200000
 20
99.938400
 30
0.0
 10
113.850000
 20
99.938400
 30
0.0
  0
LWPOLYLINE
  5
1e8
100
AcDbEntity
  8
0
 62
7
100
AcDbPolyline
 90
2
 70
0
 10
24.850000
 20
44.838400
 30
0.0
 10
24.150000
 20
52.238400
 30
0.0
  0
LWPOLYLINE
  5
1e9
100
AcDbEntity
  8
0
 62
7
100
AcDbPolyline
 90
2
 70
0
 10
100.700000
 20
104.938400
 30
0.0
 10
100.700000
 20
103.838400
 30
0.0
  0
LWPOLYLINE
  5
1ea
100
AcDbEntity
  8
0
 62
2
100
AcDbPolyline
 90
29
 70
1
 10
245.174000
 20
112.373400
 30
0.0
 10
264.174000
 20
112.373400
 30
0.0
 10
264.174000
 20
103.073400
 30
0.0
 10
288.574000
 20
100.873400
 30
0.0
 10
283.374000
 20
43.173400
 30
0.0
 10
263.774000
 20
45.173400
 30
0.0
 10
264.474000
 20
52.573400
 30
0.0
 10
220.774000
 20
52.573400
 30
0.0
 10
224.174000
 20
20.073400
 30
0.0
 10
204.374000
 20
17.873400
 30
0.0
 10
184.674000
 20
10.773400
 30
0.0
 10
167.074000
 20
0.373400
 30
0.0
 10
156.574000
 20
16.973400
 30
0.0
 10
173.124000
 20
27.273400
 30
0.0
 10
178.374000
 20
27.273400
 30
0.0
 10
178.374000
 20
70.673400
 30
0.0
 10
169.274000
 20
70.673400
 30
0.0
 10
169.324000
 20
104.173400
 30
0.0
 10
176.424000
 20
104.173400
 30
0.0
 10
176.424000
 20
100.273400
 30
0.0
 10
184.074000
 20
100.273400
 30
0.0
 10
184.074000
 20
104.173400
 30
0.0
 10
187.924000
 20
104.173400
 30
0.0
 10
187.924000
 20
105.273400
 30
0.0
 10
206.924000
 20
105.273400
 30
0.0
 10
206.924000
 20
111.273400
 30
0.0
 10
225.924000
 20
111.273400
 30
0.0
 10
225.924000
 20
117.323400
 30
0.0
 10
245.174000
 20
117.323400
 30
0.0
  0
LWPOLYLINE
  5
1eb
100
AcDbEntity
  8
0
 62
7
100
AcDbPolyline
 90
2
 70
0
 10
24.450000
 20
102.738400
 30
0.0
 10
24.450000
 20
112.038400
 30
0.0
  0
LWPOLYLINE
  5
1ec
100
AcDbEntity
  8
0
 62
7
100
AcDbPolyline
 90
2
 70
0
 10
81.700000
 20
110.938400
 30
0.0
 10
81.700000
 20
104.938400
 30
0.0
  0
LWPOLYLINE
  5
1ed
100
AcDbEntity
  8
0
 62
7
100
AcDbPolyline
 90
2
 70
0
 10
119.300000
 20
70.338400
 30
0.0
 10
110.250000
 20
70.338400
 30
0.0
  0
LWPOLYLINE
  5
1ee
100
AcDbEntity
  8
0
 62
7
100
AcDbPolyline
 90
2
 70
0
 10
48.050000
 20
52.238400
 30
0.0
 10
67.850000
 20
52.238400
 30
0.0
  0
LWPOLYLINE
  5
1ef
100
AcDbEntity
  8
0
 62
7
100
AcDbPolyline
 90
2
 70
0
 10
5.250000
 20
42.838400
 30
0.0
 10
24.850000
 20
44.838400
 30
0.0
  0
LWPOLYLINE
  5
1f0
100
AcDbEntity
  8
0
 62
7
100
AcDbPolyline
 90
2
 70
0
 10
100.700000
 20
103.838400
 30
0.0
 10
106.200000
 20
103.838400
 30
0.0
  0
LWPOLYLINE
  5
1f1
100
AcDbEntity
  8
0
 62
7
100
AcDbPolyline
 90
2
 70
0
 10
121.550000
 20
0.038400
 30
0.0
 10
132.050000
 20
16.638400
 30
0.0
  0
LWPOLYLINE
  5
1f2
100
AcDbEntity
  8
0
 62
7
100
AcDbPolyline
 90
2
 70
0
 10
43.450000
 20
116.988400
 30
0.0
 10
62.700000
 20
116.988400
 30
0.0
  0
LWPOLYLINE
  5
1f3
100
AcDbEntity
  8
0
 62
7
100
AcDbPolyline
 90
2
 70
0
 10
24.450000
 20
112.038400
 30
0.0
 10
43.450000
 20
112.038400
 30
0.0
  0
LWPOLYLINE
  5
1f4
100
AcDbEntity
  8
0
 62
7
100
AcDbPolyline
 90
2
 70
0
 10
84.250000
 20
17.538400
 30
0.0
 10
64.450000
 20
19.738400
 30
0.0
  0
LWPOLYLINE
  5
1f5
100
AcDbEntity
  8
0
 62
7
100
AcDbPolyline
 90
2
 70
0
 10
119.300000
 20
103.838400
 30
0.0
 10
119.300000
 20
70.338400
 30
0.0
  0
LWPOLYLINE
  5
1f6
100
AcDbEntity
  8
0
 62
7
100
AcDbPolyline
 90
2
 70
0
 10
121.550000
 20
0.038400
 30
0.0
 10
103.950000
 20
10.438400
 30
0.0
  0
LWPOLYLINE
  5
1f7
100
AcDbEntity
  8
0
 62
7
100
AcDbPolyline
 90
2
 70
0
 10
110.250000
 20
70.338400
 30
0.0
 10
110.250000
 20
68.538400
 30
0.0
  0
LWPOLYLINE
  5
1f8
100
AcDbEntity
  8
0
 62
7
100
AcDbPolyline
 90
2
 70
0
 10
0.050000
 20
100.538400
 30
0.0
 10
24.450000
 20
102.738400
 30
0.0
  0
LWPOLYLINE
  5
1f9
100
AcDbEntity
  8
0
 62
7
100
AcDbPolyline
 90
2
 70
0
 10
62.700000
 20
110.938400
 30
0.0
 10
72.750000
 20
110.938400
 30
0.0
  0
LWPOLYLINE
  5
1fa
100
AcDbEntity
  8
0
 62
7
100
AcDbPolyline
 90
2
 70
0
 10
64.450000
 20
19.738400
 30
0.0
 10
67.850000
 20
52.238400
 30
0.0
  0
LWPOLYLINE
  5
1fb
100
AcDbEntity
  8
0
 62
7
100
AcDbPolyline
 90
2
 70
0
 10
43.450000
 20
112.038400
 30
0.0
 10
43.450000
 20
116.988400
 30
0.0
  0
LWPOLYLINE
  5
1fc
100
AcDbEntity
  8
0
 62
7
100
AcDbPolyline
 90
2
 70
0
 10
113.850000
 20
103.838400
 30
0.0
 10
119.300000
 20
103.838400
 30
0.0
  0
LWPOLYLINE
  5
1fd
100
AcDbEntity
  8
0
 62
7
100
AcDbPolyline
 90
2
 70
0
 10
106.200000
 20
103.838400
 30
0.0
 10
106.200000
 20
99.938400
 30
0.0
  0
LWPOLYLINE
  5
1fe
100
AcDbEntity
  8
0
 62
7
100
AcDbPolyline
 90
2
 70
0
 10
81.700000
 20
104.938400
 30
0.0
 10
100.700000
 20
104.938400
 30
0.0
  0
ENDSEC
  0
SECTION
  2
OBJECTS
  0
DICTIONARY
  5
C
330
0
100
AcDbDictionary
  3
ACAD_GROUP
350
D
  3
ACAD_MLINESTYLE
350
17
  0
DICTIONARY
  5
D
330
C
100
AcDbDictionary
  0
DICTIONARY
  5
1A
330
C
100
AcDbDictionary
  0
DICTIONARY
  5
17
330
C
100
AcDbDictionary
  3
STANDARD
350
18
  0
DICTIONARY
  5
19
330
C
100
AcDbDictionary
  0
ENDSEC
  0
EOF
