%TF.GenerationSoftware,KiCad,Pcbnew,7.0.7*%
%TF.CreationDate,2023-11-23T18:26:16-07:00*%
%TF.ProjectId,TypestationX - Left,54797065-7374-4617-9469-6f6e58202d20,rev?*%
%TF.SameCoordinates,Original*%
%TF.FileFunction,Copper,L1,Top*%
%TF.FilePolarity,Positive*%
%FSLAX46Y46*%
G04 Gerber Fmt 4.6, Leading zero omitted, Abs format (unit mm)*
G04 Created by KiCad (PCBNEW 7.0.7) date 2023-11-23 18:26:16*
%MOMM*%
%LPD*%
G01*
G04 APERTURE LIST*
G04 Aperture macros list*
%AMHorizOval*
0 Thick line with rounded ends*
0 $1 width*
0 $2 $3 position (X,Y) of the first rounded end (center of the circle)*
0 $4 $5 position (X,Y) of the second rounded end (center of the circle)*
0 Add line between two ends*
20,1,$1,$2,$3,$4,$5,0*
0 Add two circle primitives to create the rounded ends*
1,1,$1,$2,$3*
1,1,$1,$4,$5*%
%AMRotRect*
0 Rectangle, with rotation*
0 The origin of the aperture is its center*
0 $1 length*
0 $2 width*
0 $3 Rotation angle, in degrees counterclockwise*
0 Add horizontal line*
21,1,$1,$2,0,0,$3*%
G04 Aperture macros list end*
%TA.AperFunction,ComponentPad*%
%ADD10R,1.300000X1.778000*%
%TD*%
%TA.AperFunction,SMDPad,CuDef*%
%ADD11R,1.300000X1.400000*%
%TD*%
%TA.AperFunction,ComponentPad*%
%ADD12O,1.300000X1.778000*%
%TD*%
%TA.AperFunction,ComponentPad*%
%ADD13C,2.500000*%
%TD*%
%TA.AperFunction,ComponentPad*%
%ADD14RotRect,1.778000X1.300000X95.000000*%
%TD*%
%TA.AperFunction,SMDPad,CuDef*%
%ADD15RotRect,1.400000X1.300000X275.000000*%
%TD*%
%TA.AperFunction,ComponentPad*%
%ADD16HorizOval,1.300000X-0.020830X0.238091X0.020830X-0.238091X0*%
%TD*%
%TA.AperFunction,ComponentPad*%
%ADD17RotRect,1.778000X1.300000X84.000000*%
%TD*%
%TA.AperFunction,SMDPad,CuDef*%
%ADD18RotRect,1.400000X1.300000X264.000000*%
%TD*%
%TA.AperFunction,ComponentPad*%
%ADD19HorizOval,1.300000X0.024982X0.237691X-0.024982X-0.237691X0*%
%TD*%
%TA.AperFunction,ComponentPad*%
%ADD20RotRect,1.778000X1.300000X71.000000*%
%TD*%
%TA.AperFunction,SMDPad,CuDef*%
%ADD21RotRect,1.400000X1.300000X251.000000*%
%TD*%
%TA.AperFunction,ComponentPad*%
%ADD22HorizOval,1.300000X0.077811X0.225979X-0.077811X-0.225979X0*%
%TD*%
%TA.AperFunction,ComponentPad*%
%ADD23R,1.700000X1.700000*%
%TD*%
%TA.AperFunction,ComponentPad*%
%ADD24O,1.700000X1.700000*%
%TD*%
%TA.AperFunction,ComponentPad*%
%ADD25RotRect,1.778000X1.300000X58.000000*%
%TD*%
%TA.AperFunction,SMDPad,CuDef*%
%ADD26RotRect,1.400000X1.300000X238.000000*%
%TD*%
%TA.AperFunction,ComponentPad*%
%ADD27HorizOval,1.300000X0.126651X0.202683X-0.126651X-0.202683X0*%
%TD*%
%TA.AperFunction,ComponentPad*%
%ADD28R,1.752600X1.752600*%
%TD*%
%TA.AperFunction,ComponentPad*%
%ADD29C,1.752600*%
%TD*%
%TA.AperFunction,ViaPad*%
%ADD30C,0.800000*%
%TD*%
%TA.AperFunction,Conductor*%
%ADD31C,0.250000*%
%TD*%
G04 APERTURE END LIST*
D10*
%TO.P,D14,1,K*%
%TO.N,R2*%
X88900000Y-98603631D03*
D11*
X88900000Y-97378631D03*
%TO.P,D14,2,A*%
%TO.N,Net-(D14-A)*%
X88900000Y-93828631D03*
D12*
X88900000Y-92603631D03*
%TD*%
D10*
%TO.P,D4,1,K*%
%TO.N,R4*%
X88900000Y-60603631D03*
D11*
X88900000Y-59378631D03*
%TO.P,D4,2,A*%
%TO.N,Net-(D4-A)*%
X88900000Y-55828631D03*
D12*
X88900000Y-54603631D03*
%TD*%
D13*
%TO.P,S8,1,1*%
%TO.N,C3*%
X58037381Y-68063631D03*
%TO.P,S8,2,2*%
%TO.N,Net-(D8-A)*%
X64387381Y-65523631D03*
%TD*%
%TO.P,S11,1,1*%
%TO.N,C4*%
X77037381Y-74063631D03*
%TO.P,S11,2,2*%
%TO.N,Net-(D9-A)*%
X83387381Y-71523631D03*
%TD*%
D14*
%TO.P,D6,1,K*%
%TO.N,R3*%
X29644424Y-88566322D03*
D15*
X29537658Y-87345984D03*
%TO.P,D6,2,A*%
%TO.N,Net-(D6-A)*%
X29228256Y-83809492D03*
D16*
X29121490Y-82589154D03*
%TD*%
D17*
%TO.P,D16,1,K*%
%TO.N,R1*%
X91540064Y-134417629D03*
D18*
X91668111Y-133199339D03*
%TO.P,D16,2,A*%
%TO.N,Net-(D16-A)*%
X92039187Y-129668787D03*
D19*
X92167234Y-128450497D03*
%TD*%
D13*
%TO.P,S2,1,1*%
%TO.N,C1*%
X17394293Y-84076908D03*
%TO.P,S2,2,2*%
%TO.N,Net-(D6-A)*%
X23498753Y-80993134D03*
%TD*%
D10*
%TO.P,D7,1,K*%
%TO.N,R3*%
X50900000Y-78603631D03*
D11*
X50900000Y-77378631D03*
%TO.P,D7,2,A*%
%TO.N,Net-(D7-A)*%
X50900000Y-73828631D03*
D12*
X50900000Y-72603631D03*
%TD*%
D13*
%TO.P,S5,1,1*%
%TO.N,C2*%
X39037381Y-73063631D03*
%TO.P,S5,2,2*%
%TO.N,Net-(D7-A)*%
X45387381Y-70523631D03*
%TD*%
D10*
%TO.P,D13,1,K*%
%TO.N,R2*%
X69900000Y-92603631D03*
D11*
X69900000Y-91378631D03*
%TO.P,D13,2,A*%
%TO.N,Net-(D13-A)*%
X69900000Y-87828631D03*
D12*
X69900000Y-86603631D03*
%TD*%
D14*
%TO.P,D1,1,K*%
%TO.N,R4*%
X28161467Y-69588584D03*
D15*
X28054701Y-68368246D03*
%TO.P,D1,2,A*%
%TO.N,Net-(D1-A)*%
X27745299Y-64831754D03*
D16*
X27638533Y-63611416D03*
%TD*%
D13*
%TO.P,S6,1,1*%
%TO.N,C2*%
X39037381Y-92063631D03*
%TO.P,S6,2,2*%
%TO.N,Net-(D12-A)*%
X45387381Y-89523631D03*
%TD*%
D20*
%TO.P,D17,1,K*%
%TO.N,R1*%
X112934272Y-141111856D03*
D21*
X113333093Y-139953595D03*
%TO.P,D17,2,A*%
%TO.N,Net-(D17-A)*%
X114488859Y-136597005D03*
D22*
X114887680Y-135438744D03*
%TD*%
D10*
%TO.P,D10,1,K*%
%TO.N,R3*%
X107823227Y-85999079D03*
D11*
X107823227Y-84774079D03*
%TO.P,D10,2,A*%
%TO.N,Net-(D10-A)*%
X107823227Y-81224079D03*
D12*
X107823227Y-79999079D03*
%TD*%
D10*
%TO.P,D5,1,K*%
%TO.N,R4*%
X107900000Y-66600000D03*
D11*
X107900000Y-65375000D03*
%TO.P,D5,2,A*%
%TO.N,Net-(D5-A)*%
X107900000Y-61825000D03*
D12*
X107900000Y-60600000D03*
%TD*%
D13*
%TO.P,S1,1,1*%
%TO.N,C1*%
X15757016Y-65107143D03*
%TO.P,S1,2,2*%
%TO.N,Net-(D1-A)*%
X21861476Y-62023369D03*
%TD*%
%TO.P,S7,1,1*%
%TO.N,C3*%
X58037381Y-49063631D03*
%TO.P,S7,2,2*%
%TO.N,Net-(D3-A)*%
X64387381Y-46523631D03*
%TD*%
%TO.P,S16,1,1*%
%TO.N,C3*%
X80318702Y-127667700D03*
%TO.P,S16,2,2*%
%TO.N,Net-(D16-A)*%
X86899418Y-125805370D03*
%TD*%
%TO.P,S10,1,1*%
%TO.N,C4*%
X77037381Y-55063631D03*
%TO.P,S10,2,2*%
%TO.N,Net-(D4-A)*%
X83387381Y-52523631D03*
%TD*%
%TO.P,S18,1,1*%
%TO.N,C5*%
X125590908Y-141162005D03*
%TO.P,S18,2,2*%
%TO.N,Net-(D18-A)*%
X132322008Y-142372951D03*
%TD*%
%TO.P,S4,1,1*%
%TO.N,C2*%
X39037381Y-54063631D03*
%TO.P,S4,2,2*%
%TO.N,Net-(D2-A)*%
X45387381Y-51523631D03*
%TD*%
D10*
%TO.P,D15,1,K*%
%TO.N,R2*%
X107900000Y-104603631D03*
D11*
X107900000Y-103378631D03*
%TO.P,D15,2,A*%
%TO.N,Net-(D15-A)*%
X107900000Y-99828631D03*
D12*
X107900000Y-98603631D03*
%TD*%
D13*
%TO.P,S17,1,1*%
%TO.N,C4*%
X103485469Y-131999153D03*
%TO.P,S17,2,2*%
%TO.N,Net-(D17-A)*%
X110316455Y-131664894D03*
%TD*%
D23*
%TO.P,J1,1,Pin_1*%
%TO.N,R1*%
X112000000Y-92000000D03*
D24*
%TO.P,J1,2,Pin_2*%
%TO.N,R2*%
X112000000Y-96000000D03*
%TO.P,J1,3,Pin_3*%
%TO.N,R3*%
X112000000Y-100000000D03*
%TO.P,J1,4,Pin_4*%
%TO.N,R4*%
X112000000Y-104000000D03*
%TO.P,J1,5,Pin_5*%
%TO.N,C6*%
X112000000Y-108000000D03*
%TO.P,J1,6,Pin_6*%
%TO.N,C7*%
X112000000Y-112000000D03*
%TO.P,J1,7,Pin_7*%
%TO.N,C8*%
X112000000Y-116000000D03*
%TO.P,J1,8,Pin_8*%
%TO.N,C9*%
X112000000Y-120000000D03*
%TO.P,J1,9,Pin_9*%
%TO.N,C10*%
X112000000Y-124000000D03*
%TD*%
D10*
%TO.P,D12,1,K*%
%TO.N,R2*%
X50900000Y-97600000D03*
D11*
X50900000Y-96375000D03*
%TO.P,D12,2,A*%
%TO.N,Net-(D12-A)*%
X50900000Y-92825000D03*
D12*
X50900000Y-91600000D03*
%TD*%
D10*
%TO.P,D8,1,K*%
%TO.N,R3*%
X69900000Y-73603631D03*
D11*
X69900000Y-72378631D03*
%TO.P,D8,2,A*%
%TO.N,Net-(D8-A)*%
X69900000Y-68828631D03*
D12*
X69900000Y-67603631D03*
%TD*%
D13*
%TO.P,S3,1,1*%
%TO.N,C1*%
X19042924Y-103065448D03*
%TO.P,S3,2,2*%
%TO.N,Net-(D11-A)*%
X25147384Y-99981674D03*
%TD*%
%TO.P,S14,1,1*%
%TO.N,C5*%
X96037381Y-80063631D03*
%TO.P,S14,2,2*%
%TO.N,Net-(D10-A)*%
X102387381Y-77523631D03*
%TD*%
D10*
%TO.P,D2,1,K*%
%TO.N,R4*%
X50900000Y-59600000D03*
D11*
X50900000Y-58375000D03*
%TO.P,D2,2,A*%
%TO.N,Net-(D2-A)*%
X50900000Y-54825000D03*
D12*
X50900000Y-53600000D03*
%TD*%
D10*
%TO.P,D9,1,K*%
%TO.N,R3*%
X88900000Y-79603631D03*
D11*
X88900000Y-78378631D03*
%TO.P,D9,2,A*%
%TO.N,Net-(D9-A)*%
X88900000Y-74828631D03*
D12*
X88900000Y-73603631D03*
%TD*%
D13*
%TO.P,S13,1,1*%
%TO.N,C5*%
X96037381Y-61063631D03*
%TO.P,S13,2,2*%
%TO.N,Net-(D5-A)*%
X102387381Y-58523631D03*
%TD*%
D25*
%TO.P,D18,1,K*%
%TO.N,R1*%
X132670603Y-152118538D03*
D26*
X133319754Y-151079679D03*
%TO.P,D18,2,A*%
%TO.N,Net-(D18-A)*%
X135200968Y-148069109D03*
D27*
X135850119Y-147030250D03*
%TD*%
D14*
%TO.P,D11,1,K*%
%TO.N,R2*%
X31640760Y-107524442D03*
D15*
X31533994Y-106304104D03*
%TO.P,D11,2,A*%
%TO.N,Net-(D11-A)*%
X31224592Y-102767612D03*
D16*
X31117826Y-101547274D03*
%TD*%
D10*
%TO.P,D3,1,K*%
%TO.N,R4*%
X69900000Y-54603631D03*
D11*
X69900000Y-53378631D03*
%TO.P,D3,2,A*%
%TO.N,Net-(D3-A)*%
X69900000Y-49828631D03*
D12*
X69900000Y-48603631D03*
%TD*%
D13*
%TO.P,S12,1,1*%
%TO.N,C4*%
X77037381Y-93063631D03*
%TO.P,S12,2,2*%
%TO.N,Net-(D14-A)*%
X83387381Y-90523631D03*
%TD*%
%TO.P,S9,1,1*%
%TO.N,C3*%
X58037381Y-87063631D03*
%TO.P,S9,2,2*%
%TO.N,Net-(D13-A)*%
X64387381Y-84523631D03*
%TD*%
%TO.P,S15,1,1*%
%TO.N,C5*%
X96037381Y-99063631D03*
%TO.P,S15,2,2*%
%TO.N,Net-(D15-A)*%
X102387381Y-96523631D03*
%TD*%
D28*
%TO.P,U2,1,TX0/PD3*%
%TO.N,C1*%
X111180000Y-59030000D03*
D29*
%TO.P,U2,2,RX1/PD2*%
%TO.N,C2*%
X111180000Y-61570000D03*
%TO.P,U2,3,GND*%
%TO.N,unconnected-(U2-GND-Pad3)*%
X111180000Y-64110000D03*
%TO.P,U2,4,GND*%
%TO.N,unconnected-(U2-GND-Pad4)*%
X111180000Y-66650000D03*
%TO.P,U2,5,2/PD1*%
%TO.N,C3*%
X111180000Y-69190000D03*
%TO.P,U2,6,3/PD0*%
%TO.N,C4*%
X111180000Y-71730000D03*
%TO.P,U2,7,4/PD4*%
%TO.N,C5*%
X111180000Y-74270000D03*
%TO.P,U2,8,5/PC6*%
%TO.N,C6*%
X111180000Y-76810000D03*
%TO.P,U2,9,6/PD7*%
%TO.N,C7*%
X111180000Y-79350000D03*
%TO.P,U2,10,7/PE6*%
%TO.N,C8*%
X111180000Y-81890000D03*
%TO.P,U2,11,8/PB4*%
%TO.N,C9*%
X111180000Y-84430000D03*
%TO.P,U2,12,9/PB5*%
%TO.N,C10*%
X111180000Y-86970000D03*
%TO.P,U2,13,10/PB6*%
%TO.N,R1*%
X126420000Y-86970000D03*
%TO.P,U2,14,16/PB2*%
%TO.N,R2*%
X126420000Y-84430000D03*
%TO.P,U2,15,14/PB3*%
%TO.N,R3*%
X126420000Y-81890000D03*
%TO.P,U2,16,15/PB1*%
%TO.N,R4*%
X126420000Y-79350000D03*
%TO.P,U2,17,A0/PF7*%
%TO.N,unconnected-(U2-A0{slash}PF7-Pad17)*%
X126420000Y-76810000D03*
%TO.P,U2,18,A1/PF6*%
%TO.N,unconnected-(U2-A1{slash}PF6-Pad18)*%
X126420000Y-74270000D03*
%TO.P,U2,19,A2/PF5*%
%TO.N,unconnected-(U2-A2{slash}PF5-Pad19)*%
X126420000Y-71730000D03*
%TO.P,U2,20,A3/PF4*%
%TO.N,unconnected-(U2-A3{slash}PF4-Pad20)*%
X126420000Y-69190000D03*
%TO.P,U2,21,VCC*%
%TO.N,unconnected-(U2-VCC-Pad21)*%
X126420000Y-66650000D03*
%TO.P,U2,22,RST*%
%TO.N,unconnected-(U2-RST-Pad22)*%
X126420000Y-64110000D03*
%TO.P,U2,23,GND*%
%TO.N,unconnected-(U2-GND-Pad23)*%
X126420000Y-61570000D03*
%TO.P,U2,24,RAW*%
%TO.N,unconnected-(U2-RAW-Pad24)*%
X126420000Y-59030000D03*
%TD*%
D30*
%TO.N,R3*%
X114341425Y-86517277D03*
X113023227Y-85599079D03*
%TO.N,R1*%
X115223227Y-93299079D03*
%TO.N,C1*%
X76312881Y-66899079D03*
X77823227Y-66899079D03*
X96823227Y-67499079D03*
X57312881Y-62899079D03*
X58823227Y-62899079D03*
X38312881Y-67199079D03*
X95312881Y-67499079D03*
X39761881Y-66499079D03*
%TO.N,C2*%
X77823227Y-68099079D03*
X95312881Y-68699079D03*
X57312881Y-63999079D03*
X76223227Y-68099079D03*
X96823227Y-68699079D03*
X58761881Y-63899079D03*
%TO.N,C3*%
X95312881Y-70399079D03*
X76223227Y-69199079D03*
X96761881Y-70399079D03*
X77823227Y-69199079D03*
%TO.N,C4*%
X96761881Y-71799079D03*
X95312881Y-76499079D03*
%TD*%
D31*
%TO.N,R4*%
X110173227Y-88299079D02*
X111923227Y-88299079D01*
X112623227Y-87599079D02*
X112623227Y-87199079D01*
X50900000Y-59600000D02*
X64903631Y-59600000D01*
X125218700Y-77307595D02*
X125922405Y-78011300D01*
X112623227Y-87199079D02*
X120472306Y-79350000D01*
X64903631Y-59600000D02*
X69900000Y-54603631D01*
X38150051Y-59600000D02*
X50900000Y-59600000D01*
X94896369Y-66600000D02*
X88900000Y-60603631D01*
X125922405Y-78011300D02*
X126420000Y-78011300D01*
X109051300Y-65448700D02*
X124672848Y-65448700D01*
X112000000Y-104000000D02*
X110173227Y-102173227D01*
X107900000Y-66600000D02*
X109051300Y-65448700D01*
X110173227Y-102173227D02*
X110173227Y-88299079D01*
X28161467Y-69588584D02*
X38150051Y-59600000D01*
X88900000Y-60603631D02*
X75900000Y-60603631D01*
X124672848Y-65448700D02*
X125218700Y-65994552D01*
X111923227Y-88299079D02*
X112623227Y-87599079D01*
X107900000Y-66600000D02*
X94896369Y-66600000D01*
X120472306Y-79350000D02*
X126420000Y-79350000D01*
X126420000Y-78011300D02*
X126420000Y-79350000D01*
X75900000Y-60603631D02*
X69900000Y-54603631D01*
X125218700Y-65994552D02*
X125218700Y-77307595D01*
%TO.N,Net-(D1-A)*%
X26050486Y-62023369D02*
X27638533Y-63611416D01*
X21861476Y-62023369D02*
X26050486Y-62023369D01*
%TO.N,Net-(D2-A)*%
X45387381Y-51523631D02*
X48823631Y-51523631D01*
X48823631Y-51523631D02*
X50900000Y-53600000D01*
%TO.N,Net-(D3-A)*%
X64387381Y-46523631D02*
X67820000Y-46523631D01*
X67820000Y-46523631D02*
X69900000Y-48603631D01*
%TO.N,Net-(D4-A)*%
X86820000Y-52523631D02*
X88900000Y-54603631D01*
X83387381Y-52523631D02*
X86820000Y-52523631D01*
%TO.N,Net-(D5-A)*%
X102387381Y-58523631D02*
X105823631Y-58523631D01*
X105823631Y-58523631D02*
X107900000Y-60600000D01*
%TO.N,R3*%
X107823227Y-85999079D02*
X95019596Y-85999079D01*
X113023227Y-76954332D02*
X113023227Y-85599079D01*
X95019596Y-85999079D02*
X89023227Y-80002710D01*
X110673227Y-88749079D02*
X110623227Y-88799079D01*
X110623227Y-88799079D02*
X110623227Y-98623227D01*
X110623227Y-98623227D02*
X112000000Y-100000000D01*
X118568702Y-81890000D02*
X115541425Y-84917277D01*
X109978700Y-76312405D02*
X110682405Y-75608700D01*
X112109623Y-88749079D02*
X110673227Y-88749079D01*
X76023227Y-80002710D02*
X70023227Y-74002710D01*
X109978700Y-83843606D02*
X109978700Y-76312405D01*
X110682405Y-75608700D02*
X111677595Y-75608700D01*
X115541425Y-84917277D02*
X115541425Y-85317277D01*
X39607115Y-78603631D02*
X29644424Y-88566322D01*
X111677595Y-75608700D02*
X113023227Y-76954332D01*
X107823227Y-85999079D02*
X109978700Y-83843606D01*
X89023227Y-80002710D02*
X76023227Y-80002710D01*
X65026858Y-78999079D02*
X51023227Y-78999079D01*
X126420000Y-81890000D02*
X118568702Y-81890000D01*
X114341425Y-86517277D02*
X112109623Y-88749079D01*
X70023227Y-74002710D02*
X65026858Y-78999079D01*
X50900000Y-78603631D02*
X39607115Y-78603631D01*
X115541425Y-85317277D02*
X114341425Y-86517277D01*
%TO.N,Net-(D6-A)*%
X27525470Y-80993134D02*
X29121490Y-82589154D01*
X23498753Y-80993134D02*
X27525470Y-80993134D01*
%TO.N,Net-(D7-A)*%
X48820000Y-70523631D02*
X50900000Y-72603631D01*
X45387381Y-70523631D02*
X48820000Y-70523631D01*
%TO.N,Net-(D8-A)*%
X67820000Y-65523631D02*
X69900000Y-67603631D01*
X64387381Y-65523631D02*
X67820000Y-65523631D01*
%TO.N,Net-(D9-A)*%
X86820000Y-71523631D02*
X88900000Y-73603631D01*
X83387381Y-71523631D02*
X86820000Y-71523631D01*
%TO.N,Net-(D10-A)*%
X105347779Y-77523631D02*
X102387381Y-77523631D01*
X107823227Y-79999079D02*
X105347779Y-77523631D01*
%TO.N,R2*%
X122993223Y-84430000D02*
X126420000Y-84430000D01*
X112000000Y-95423223D02*
X122993223Y-84430000D01*
X107900000Y-105742631D02*
X111332369Y-109175000D01*
X107900000Y-104603631D02*
X107900000Y-105742631D01*
X50923227Y-97599079D02*
X64926858Y-97599079D01*
X64926858Y-97599079D02*
X69923227Y-92602710D01*
X75923227Y-98602710D02*
X69923227Y-92602710D01*
X88923227Y-98602710D02*
X75923227Y-98602710D01*
X94919596Y-104599079D02*
X88923227Y-98602710D01*
X111332369Y-109175000D02*
X112486701Y-109175000D01*
X107923227Y-104599079D02*
X94919596Y-104599079D01*
X113175000Y-97175000D02*
X112000000Y-96000000D01*
X112486701Y-109175000D02*
X113175000Y-108486701D01*
X113175000Y-108486701D02*
X113175000Y-97175000D01*
X31640760Y-107524442D02*
X41565202Y-97600000D01*
X41565202Y-97600000D02*
X50900000Y-97600000D01*
X112000000Y-96000000D02*
X112000000Y-95423223D01*
%TO.N,Net-(D11-A)*%
X29552226Y-99981674D02*
X31117826Y-101547274D01*
X25147384Y-99981674D02*
X29552226Y-99981674D01*
%TO.N,Net-(D12-A)*%
X48823631Y-89523631D02*
X50900000Y-91600000D01*
X45387381Y-89523631D02*
X48823631Y-89523631D01*
%TO.N,Net-(D13-A)*%
X64387381Y-84523631D02*
X67820000Y-84523631D01*
X67820000Y-84523631D02*
X69900000Y-86603631D01*
%TO.N,Net-(D14-A)*%
X86820000Y-90523631D02*
X88900000Y-92603631D01*
X83387381Y-90523631D02*
X86820000Y-90523631D01*
%TO.N,Net-(D15-A)*%
X102387381Y-96523631D02*
X105820000Y-96523631D01*
X105820000Y-96523631D02*
X107900000Y-98603631D01*
%TO.N,R1*%
X116123227Y-137922901D02*
X116123227Y-94199079D01*
X123940954Y-152118538D02*
X132670603Y-152118538D01*
X91540064Y-134417629D02*
X98234291Y-141111856D01*
X112934272Y-141111856D02*
X123940954Y-152118538D01*
X116123227Y-94199079D02*
X115223227Y-93299079D01*
X98234291Y-141111856D02*
X112934272Y-141111856D01*
X112934272Y-141111856D02*
X116123227Y-137922901D01*
%TO.N,Net-(D16-A)*%
X86899418Y-125805370D02*
X89522107Y-125805370D01*
X89522107Y-125805370D02*
X92167234Y-128450497D01*
%TO.N,Net-(D17-A)*%
X112089042Y-131664894D02*
X110316455Y-131664894D01*
X114887680Y-135438744D02*
X114887680Y-134463532D01*
X114887680Y-134463532D02*
X112089042Y-131664894D01*
%TO.N,Net-(D18-A)*%
X135850119Y-145901062D02*
X135850119Y-147030250D01*
X132322008Y-142372951D02*
X135850119Y-145901062D01*
%TO.N,C6*%
X112423227Y-78053227D02*
X111180000Y-76810000D01*
X112423227Y-84885668D02*
X112423227Y-78053227D01*
X109723227Y-105723227D02*
X109723227Y-86699079D01*
X111677595Y-85631300D02*
X112423227Y-84885668D01*
X110791006Y-85631300D02*
X111677595Y-85631300D01*
X112000000Y-108000000D02*
X109723227Y-105723227D01*
X109723227Y-86699079D02*
X110791006Y-85631300D01*
%TO.N,C1*%
X77823227Y-66899079D02*
X76312881Y-66899079D01*
X57312881Y-62899079D02*
X58823227Y-62899079D01*
X39061881Y-67199079D02*
X39761881Y-66499079D01*
X38312881Y-67199079D02*
X39061881Y-67199079D01*
X96823227Y-67499079D02*
X95312881Y-67499079D01*
%TO.N,C2*%
X77823227Y-68099079D02*
X76223227Y-68099079D01*
X58761881Y-63899079D02*
X57412881Y-63899079D01*
X57412881Y-63899079D02*
X57312881Y-63999079D01*
X96823227Y-68699079D02*
X95312881Y-68699079D01*
%TO.N,C3*%
X96761881Y-70399079D02*
X95312881Y-70399079D01*
X77823227Y-69199079D02*
X76223227Y-69199079D01*
%TO.N,C4*%
X96761881Y-71799079D02*
X95312881Y-73248079D01*
X95312881Y-73248079D02*
X95312881Y-76499079D01*
%TD*%
M02*
