%TF.GenerationSoftware,KiCad,Pcbnew,7.0.7*%
%TF.CreationDate,2023-11-23T18:26:16-07:00*%
%TF.ProjectId,TypestationX - Left,54797065-7374-4617-9469-6f6e58202d20,rev?*%
%TF.SameCoordinates,Original*%
%TF.FileFunction,Legend,Bot*%
%TF.FilePolarity,Positive*%
%FSLAX46Y46*%
G04 Gerber Fmt 4.6, Leading zero omitted, Abs format (unit mm)*
G04 Created by KiCad (PCBNEW 7.0.7) date 2023-11-23 18:26:16*
%MOMM*%
%LPD*%
G01*
G04 APERTURE LIST*
%ADD10C,0.150000*%
%ADD11C,0.381000*%
%ADD12R,1.752600X1.752600*%
%ADD13C,1.752600*%
G04 APERTURE END LIST*
D10*
X113929475Y-69552295D02*
X113929475Y-68752295D01*
X113929475Y-68752295D02*
X113738999Y-68752295D01*
X113738999Y-68752295D02*
X113624713Y-68790390D01*
X113624713Y-68790390D02*
X113548523Y-68866580D01*
X113548523Y-68866580D02*
X113510428Y-68942771D01*
X113510428Y-68942771D02*
X113472332Y-69095152D01*
X113472332Y-69095152D02*
X113472332Y-69209438D01*
X113472332Y-69209438D02*
X113510428Y-69361819D01*
X113510428Y-69361819D02*
X113548523Y-69438009D01*
X113548523Y-69438009D02*
X113624713Y-69514200D01*
X113624713Y-69514200D02*
X113738999Y-69552295D01*
X113738999Y-69552295D02*
X113929475Y-69552295D01*
X112710428Y-69552295D02*
X113167571Y-69552295D01*
X112938999Y-69552295D02*
X112938999Y-68752295D01*
X112938999Y-68752295D02*
X113015190Y-68866580D01*
X113015190Y-68866580D02*
X113091380Y-68942771D01*
X113091380Y-68942771D02*
X113167571Y-68980866D01*
X124527666Y-74213247D02*
X124794332Y-74213247D01*
X124794332Y-74632295D02*
X124794332Y-73832295D01*
X124794332Y-73832295D02*
X124413380Y-73832295D01*
X123765761Y-73832295D02*
X123918142Y-73832295D01*
X123918142Y-73832295D02*
X123994333Y-73870390D01*
X123994333Y-73870390D02*
X124032428Y-73908485D01*
X124032428Y-73908485D02*
X124108618Y-74022771D01*
X124108618Y-74022771D02*
X124146714Y-74175152D01*
X124146714Y-74175152D02*
X124146714Y-74479914D01*
X124146714Y-74479914D02*
X124108618Y-74556104D01*
X124108618Y-74556104D02*
X124070523Y-74594200D01*
X124070523Y-74594200D02*
X123994333Y-74632295D01*
X123994333Y-74632295D02*
X123841952Y-74632295D01*
X123841952Y-74632295D02*
X123765761Y-74594200D01*
X123765761Y-74594200D02*
X123727666Y-74556104D01*
X123727666Y-74556104D02*
X123689571Y-74479914D01*
X123689571Y-74479914D02*
X123689571Y-74289438D01*
X123689571Y-74289438D02*
X123727666Y-74213247D01*
X123727666Y-74213247D02*
X123765761Y-74175152D01*
X123765761Y-74175152D02*
X123841952Y-74137057D01*
X123841952Y-74137057D02*
X123994333Y-74137057D01*
X123994333Y-74137057D02*
X124070523Y-74175152D01*
X124070523Y-74175152D02*
X124108618Y-74213247D01*
X124108618Y-74213247D02*
X124146714Y-74289438D01*
X124527666Y-69133247D02*
X124794332Y-69133247D01*
X124794332Y-69552295D02*
X124794332Y-68752295D01*
X124794332Y-68752295D02*
X124413380Y-68752295D01*
X123765761Y-69018961D02*
X123765761Y-69552295D01*
X123956237Y-68714200D02*
X124146714Y-69285628D01*
X124146714Y-69285628D02*
X123651475Y-69285628D01*
X124373333Y-64414200D02*
X124259047Y-64452295D01*
X124259047Y-64452295D02*
X124068571Y-64452295D01*
X124068571Y-64452295D02*
X123992380Y-64414200D01*
X123992380Y-64414200D02*
X123954285Y-64376104D01*
X123954285Y-64376104D02*
X123916190Y-64299914D01*
X123916190Y-64299914D02*
X123916190Y-64223723D01*
X123916190Y-64223723D02*
X123954285Y-64147533D01*
X123954285Y-64147533D02*
X123992380Y-64109438D01*
X123992380Y-64109438D02*
X124068571Y-64071342D01*
X124068571Y-64071342D02*
X124220952Y-64033247D01*
X124220952Y-64033247D02*
X124297142Y-63995152D01*
X124297142Y-63995152D02*
X124335237Y-63957057D01*
X124335237Y-63957057D02*
X124373333Y-63880866D01*
X124373333Y-63880866D02*
X124373333Y-63804676D01*
X124373333Y-63804676D02*
X124335237Y-63728485D01*
X124335237Y-63728485D02*
X124297142Y-63690390D01*
X124297142Y-63690390D02*
X124220952Y-63652295D01*
X124220952Y-63652295D02*
X124030475Y-63652295D01*
X124030475Y-63652295D02*
X123916190Y-63690390D01*
X123687618Y-63652295D02*
X123230475Y-63652295D01*
X123459047Y-64452295D02*
X123459047Y-63652295D01*
X113929475Y-79712295D02*
X113929475Y-78912295D01*
X113929475Y-78912295D02*
X113738999Y-78912295D01*
X113738999Y-78912295D02*
X113624713Y-78950390D01*
X113624713Y-78950390D02*
X113548523Y-79026580D01*
X113548523Y-79026580D02*
X113510428Y-79102771D01*
X113510428Y-79102771D02*
X113472332Y-79255152D01*
X113472332Y-79255152D02*
X113472332Y-79369438D01*
X113472332Y-79369438D02*
X113510428Y-79521819D01*
X113510428Y-79521819D02*
X113548523Y-79598009D01*
X113548523Y-79598009D02*
X113624713Y-79674200D01*
X113624713Y-79674200D02*
X113738999Y-79712295D01*
X113738999Y-79712295D02*
X113929475Y-79712295D01*
X113205666Y-78912295D02*
X112672332Y-78912295D01*
X112672332Y-78912295D02*
X113015190Y-79712295D01*
X124584809Y-81833247D02*
X124470523Y-81871342D01*
X124470523Y-81871342D02*
X124432428Y-81909438D01*
X124432428Y-81909438D02*
X124394332Y-81985628D01*
X124394332Y-81985628D02*
X124394332Y-82099914D01*
X124394332Y-82099914D02*
X124432428Y-82176104D01*
X124432428Y-82176104D02*
X124470523Y-82214200D01*
X124470523Y-82214200D02*
X124546713Y-82252295D01*
X124546713Y-82252295D02*
X124851475Y-82252295D01*
X124851475Y-82252295D02*
X124851475Y-81452295D01*
X124851475Y-81452295D02*
X124584809Y-81452295D01*
X124584809Y-81452295D02*
X124508618Y-81490390D01*
X124508618Y-81490390D02*
X124470523Y-81528485D01*
X124470523Y-81528485D02*
X124432428Y-81604676D01*
X124432428Y-81604676D02*
X124432428Y-81680866D01*
X124432428Y-81680866D02*
X124470523Y-81757057D01*
X124470523Y-81757057D02*
X124508618Y-81795152D01*
X124508618Y-81795152D02*
X124584809Y-81833247D01*
X124584809Y-81833247D02*
X124851475Y-81833247D01*
X124127666Y-81452295D02*
X123632428Y-81452295D01*
X123632428Y-81452295D02*
X123899094Y-81757057D01*
X123899094Y-81757057D02*
X123784809Y-81757057D01*
X123784809Y-81757057D02*
X123708618Y-81795152D01*
X123708618Y-81795152D02*
X123670523Y-81833247D01*
X123670523Y-81833247D02*
X123632428Y-81909438D01*
X123632428Y-81909438D02*
X123632428Y-82099914D01*
X123632428Y-82099914D02*
X123670523Y-82176104D01*
X123670523Y-82176104D02*
X123708618Y-82214200D01*
X123708618Y-82214200D02*
X123784809Y-82252295D01*
X123784809Y-82252295D02*
X124013380Y-82252295D01*
X124013380Y-82252295D02*
X124089571Y-82214200D01*
X124089571Y-82214200D02*
X124127666Y-82176104D01*
X124584809Y-86913247D02*
X124470523Y-86951342D01*
X124470523Y-86951342D02*
X124432428Y-86989438D01*
X124432428Y-86989438D02*
X124394332Y-87065628D01*
X124394332Y-87065628D02*
X124394332Y-87179914D01*
X124394332Y-87179914D02*
X124432428Y-87256104D01*
X124432428Y-87256104D02*
X124470523Y-87294200D01*
X124470523Y-87294200D02*
X124546713Y-87332295D01*
X124546713Y-87332295D02*
X124851475Y-87332295D01*
X124851475Y-87332295D02*
X124851475Y-86532295D01*
X124851475Y-86532295D02*
X124584809Y-86532295D01*
X124584809Y-86532295D02*
X124508618Y-86570390D01*
X124508618Y-86570390D02*
X124470523Y-86608485D01*
X124470523Y-86608485D02*
X124432428Y-86684676D01*
X124432428Y-86684676D02*
X124432428Y-86760866D01*
X124432428Y-86760866D02*
X124470523Y-86837057D01*
X124470523Y-86837057D02*
X124508618Y-86875152D01*
X124508618Y-86875152D02*
X124584809Y-86913247D01*
X124584809Y-86913247D02*
X124851475Y-86913247D01*
X123708618Y-86532295D02*
X123860999Y-86532295D01*
X123860999Y-86532295D02*
X123937190Y-86570390D01*
X123937190Y-86570390D02*
X123975285Y-86608485D01*
X123975285Y-86608485D02*
X124051475Y-86722771D01*
X124051475Y-86722771D02*
X124089571Y-86875152D01*
X124089571Y-86875152D02*
X124089571Y-87179914D01*
X124089571Y-87179914D02*
X124051475Y-87256104D01*
X124051475Y-87256104D02*
X124013380Y-87294200D01*
X124013380Y-87294200D02*
X123937190Y-87332295D01*
X123937190Y-87332295D02*
X123784809Y-87332295D01*
X123784809Y-87332295D02*
X123708618Y-87294200D01*
X123708618Y-87294200D02*
X123670523Y-87256104D01*
X123670523Y-87256104D02*
X123632428Y-87179914D01*
X123632428Y-87179914D02*
X123632428Y-86989438D01*
X123632428Y-86989438D02*
X123670523Y-86913247D01*
X123670523Y-86913247D02*
X123708618Y-86875152D01*
X123708618Y-86875152D02*
X123784809Y-86837057D01*
X123784809Y-86837057D02*
X123937190Y-86837057D01*
X123937190Y-86837057D02*
X124013380Y-86875152D01*
X124013380Y-86875152D02*
X124051475Y-86913247D01*
X124051475Y-86913247D02*
X124089571Y-86989438D01*
X124527666Y-76753247D02*
X124794332Y-76753247D01*
X124794332Y-77172295D02*
X124794332Y-76372295D01*
X124794332Y-76372295D02*
X124413380Y-76372295D01*
X124184809Y-76372295D02*
X123651475Y-76372295D01*
X123651475Y-76372295D02*
X123994333Y-77172295D01*
X113948523Y-66250390D02*
X114024713Y-66212295D01*
X114024713Y-66212295D02*
X114138999Y-66212295D01*
X114138999Y-66212295D02*
X114253285Y-66250390D01*
X114253285Y-66250390D02*
X114329475Y-66326580D01*
X114329475Y-66326580D02*
X114367570Y-66402771D01*
X114367570Y-66402771D02*
X114405666Y-66555152D01*
X114405666Y-66555152D02*
X114405666Y-66669438D01*
X114405666Y-66669438D02*
X114367570Y-66821819D01*
X114367570Y-66821819D02*
X114329475Y-66898009D01*
X114329475Y-66898009D02*
X114253285Y-66974200D01*
X114253285Y-66974200D02*
X114138999Y-67012295D01*
X114138999Y-67012295D02*
X114062808Y-67012295D01*
X114062808Y-67012295D02*
X113948523Y-66974200D01*
X113948523Y-66974200D02*
X113910427Y-66936104D01*
X113910427Y-66936104D02*
X113910427Y-66669438D01*
X113910427Y-66669438D02*
X114062808Y-66669438D01*
X113567570Y-67012295D02*
X113567570Y-66212295D01*
X113567570Y-66212295D02*
X113110427Y-67012295D01*
X113110427Y-67012295D02*
X113110427Y-66212295D01*
X112729475Y-67012295D02*
X112729475Y-66212295D01*
X112729475Y-66212295D02*
X112538999Y-66212295D01*
X112538999Y-66212295D02*
X112424713Y-66250390D01*
X112424713Y-66250390D02*
X112348523Y-66326580D01*
X112348523Y-66326580D02*
X112310428Y-66402771D01*
X112310428Y-66402771D02*
X112272332Y-66555152D01*
X112272332Y-66555152D02*
X112272332Y-66669438D01*
X112272332Y-66669438D02*
X112310428Y-66821819D01*
X112310428Y-66821819D02*
X112348523Y-66898009D01*
X112348523Y-66898009D02*
X112424713Y-66974200D01*
X112424713Y-66974200D02*
X112538999Y-67012295D01*
X112538999Y-67012295D02*
X112729475Y-67012295D01*
X113990475Y-59862295D02*
X113990475Y-59062295D01*
X113990475Y-59062295D02*
X113799999Y-59062295D01*
X113799999Y-59062295D02*
X113685713Y-59100390D01*
X113685713Y-59100390D02*
X113609523Y-59176580D01*
X113609523Y-59176580D02*
X113571428Y-59252771D01*
X113571428Y-59252771D02*
X113533332Y-59405152D01*
X113533332Y-59405152D02*
X113533332Y-59519438D01*
X113533332Y-59519438D02*
X113571428Y-59671819D01*
X113571428Y-59671819D02*
X113609523Y-59748009D01*
X113609523Y-59748009D02*
X113685713Y-59824200D01*
X113685713Y-59824200D02*
X113799999Y-59862295D01*
X113799999Y-59862295D02*
X113990475Y-59862295D01*
X113266666Y-59062295D02*
X112771428Y-59062295D01*
X112771428Y-59062295D02*
X113038094Y-59367057D01*
X113038094Y-59367057D02*
X112923809Y-59367057D01*
X112923809Y-59367057D02*
X112847618Y-59405152D01*
X112847618Y-59405152D02*
X112809523Y-59443247D01*
X112809523Y-59443247D02*
X112771428Y-59519438D01*
X112771428Y-59519438D02*
X112771428Y-59709914D01*
X112771428Y-59709914D02*
X112809523Y-59786104D01*
X112809523Y-59786104D02*
X112847618Y-59824200D01*
X112847618Y-59824200D02*
X112923809Y-59862295D01*
X112923809Y-59862295D02*
X113152380Y-59862295D01*
X113152380Y-59862295D02*
X113228571Y-59824200D01*
X113228571Y-59824200D02*
X113266666Y-59786104D01*
X113929475Y-74632295D02*
X113929475Y-73832295D01*
X113929475Y-73832295D02*
X113738999Y-73832295D01*
X113738999Y-73832295D02*
X113624713Y-73870390D01*
X113624713Y-73870390D02*
X113548523Y-73946580D01*
X113548523Y-73946580D02*
X113510428Y-74022771D01*
X113510428Y-74022771D02*
X113472332Y-74175152D01*
X113472332Y-74175152D02*
X113472332Y-74289438D01*
X113472332Y-74289438D02*
X113510428Y-74441819D01*
X113510428Y-74441819D02*
X113548523Y-74518009D01*
X113548523Y-74518009D02*
X113624713Y-74594200D01*
X113624713Y-74594200D02*
X113738999Y-74632295D01*
X113738999Y-74632295D02*
X113929475Y-74632295D01*
X112786618Y-74098961D02*
X112786618Y-74632295D01*
X112977094Y-73794200D02*
X113167571Y-74365628D01*
X113167571Y-74365628D02*
X112672332Y-74365628D01*
X124813380Y-59392295D02*
X125080047Y-59011342D01*
X125270523Y-59392295D02*
X125270523Y-58592295D01*
X125270523Y-58592295D02*
X124965761Y-58592295D01*
X124965761Y-58592295D02*
X124889571Y-58630390D01*
X124889571Y-58630390D02*
X124851476Y-58668485D01*
X124851476Y-58668485D02*
X124813380Y-58744676D01*
X124813380Y-58744676D02*
X124813380Y-58858961D01*
X124813380Y-58858961D02*
X124851476Y-58935152D01*
X124851476Y-58935152D02*
X124889571Y-58973247D01*
X124889571Y-58973247D02*
X124965761Y-59011342D01*
X124965761Y-59011342D02*
X125270523Y-59011342D01*
X124508619Y-59163723D02*
X124127666Y-59163723D01*
X124584809Y-59392295D02*
X124318142Y-58592295D01*
X124318142Y-58592295D02*
X124051476Y-59392295D01*
X123861000Y-58592295D02*
X123670524Y-59392295D01*
X123670524Y-59392295D02*
X123518143Y-58820866D01*
X123518143Y-58820866D02*
X123365762Y-59392295D01*
X123365762Y-59392295D02*
X123175286Y-58592295D01*
X124584809Y-79293247D02*
X124470523Y-79331342D01*
X124470523Y-79331342D02*
X124432428Y-79369438D01*
X124432428Y-79369438D02*
X124394332Y-79445628D01*
X124394332Y-79445628D02*
X124394332Y-79559914D01*
X124394332Y-79559914D02*
X124432428Y-79636104D01*
X124432428Y-79636104D02*
X124470523Y-79674200D01*
X124470523Y-79674200D02*
X124546713Y-79712295D01*
X124546713Y-79712295D02*
X124851475Y-79712295D01*
X124851475Y-79712295D02*
X124851475Y-78912295D01*
X124851475Y-78912295D02*
X124584809Y-78912295D01*
X124584809Y-78912295D02*
X124508618Y-78950390D01*
X124508618Y-78950390D02*
X124470523Y-78988485D01*
X124470523Y-78988485D02*
X124432428Y-79064676D01*
X124432428Y-79064676D02*
X124432428Y-79140866D01*
X124432428Y-79140866D02*
X124470523Y-79217057D01*
X124470523Y-79217057D02*
X124508618Y-79255152D01*
X124508618Y-79255152D02*
X124584809Y-79293247D01*
X124584809Y-79293247D02*
X124851475Y-79293247D01*
X123632428Y-79712295D02*
X124089571Y-79712295D01*
X123860999Y-79712295D02*
X123860999Y-78912295D01*
X123860999Y-78912295D02*
X123937190Y-79026580D01*
X123937190Y-79026580D02*
X124013380Y-79102771D01*
X124013380Y-79102771D02*
X124089571Y-79140866D01*
X114690476Y-58062295D02*
X114233333Y-58062295D01*
X114461905Y-58862295D02*
X114461905Y-58062295D01*
X114042857Y-58062295D02*
X113509523Y-58862295D01*
X113509523Y-58062295D02*
X114042857Y-58862295D01*
X113052380Y-58062295D02*
X112976190Y-58062295D01*
X112976190Y-58062295D02*
X112899999Y-58100390D01*
X112899999Y-58100390D02*
X112861904Y-58138485D01*
X112861904Y-58138485D02*
X112823809Y-58214676D01*
X112823809Y-58214676D02*
X112785714Y-58367057D01*
X112785714Y-58367057D02*
X112785714Y-58557533D01*
X112785714Y-58557533D02*
X112823809Y-58709914D01*
X112823809Y-58709914D02*
X112861904Y-58786104D01*
X112861904Y-58786104D02*
X112899999Y-58824200D01*
X112899999Y-58824200D02*
X112976190Y-58862295D01*
X112976190Y-58862295D02*
X113052380Y-58862295D01*
X113052380Y-58862295D02*
X113128571Y-58824200D01*
X113128571Y-58824200D02*
X113166666Y-58786104D01*
X113166666Y-58786104D02*
X113204761Y-58709914D01*
X113204761Y-58709914D02*
X113242857Y-58557533D01*
X113242857Y-58557533D02*
X113242857Y-58367057D01*
X113242857Y-58367057D02*
X113204761Y-58214676D01*
X113204761Y-58214676D02*
X113166666Y-58138485D01*
X113166666Y-58138485D02*
X113128571Y-58100390D01*
X113128571Y-58100390D02*
X113052380Y-58062295D01*
X113891380Y-81833247D02*
X113624714Y-81833247D01*
X113510428Y-82252295D02*
X113891380Y-82252295D01*
X113891380Y-82252295D02*
X113891380Y-81452295D01*
X113891380Y-81452295D02*
X113510428Y-81452295D01*
X112824713Y-81452295D02*
X112977094Y-81452295D01*
X112977094Y-81452295D02*
X113053285Y-81490390D01*
X113053285Y-81490390D02*
X113091380Y-81528485D01*
X113091380Y-81528485D02*
X113167570Y-81642771D01*
X113167570Y-81642771D02*
X113205666Y-81795152D01*
X113205666Y-81795152D02*
X113205666Y-82099914D01*
X113205666Y-82099914D02*
X113167570Y-82176104D01*
X113167570Y-82176104D02*
X113129475Y-82214200D01*
X113129475Y-82214200D02*
X113053285Y-82252295D01*
X113053285Y-82252295D02*
X112900904Y-82252295D01*
X112900904Y-82252295D02*
X112824713Y-82214200D01*
X112824713Y-82214200D02*
X112786618Y-82176104D01*
X112786618Y-82176104D02*
X112748523Y-82099914D01*
X112748523Y-82099914D02*
X112748523Y-81909438D01*
X112748523Y-81909438D02*
X112786618Y-81833247D01*
X112786618Y-81833247D02*
X112824713Y-81795152D01*
X112824713Y-81795152D02*
X112900904Y-81757057D01*
X112900904Y-81757057D02*
X113053285Y-81757057D01*
X113053285Y-81757057D02*
X113129475Y-81795152D01*
X113129475Y-81795152D02*
X113167570Y-81833247D01*
X113167570Y-81833247D02*
X113205666Y-81909438D01*
X113948523Y-63710390D02*
X114024713Y-63672295D01*
X114024713Y-63672295D02*
X114138999Y-63672295D01*
X114138999Y-63672295D02*
X114253285Y-63710390D01*
X114253285Y-63710390D02*
X114329475Y-63786580D01*
X114329475Y-63786580D02*
X114367570Y-63862771D01*
X114367570Y-63862771D02*
X114405666Y-64015152D01*
X114405666Y-64015152D02*
X114405666Y-64129438D01*
X114405666Y-64129438D02*
X114367570Y-64281819D01*
X114367570Y-64281819D02*
X114329475Y-64358009D01*
X114329475Y-64358009D02*
X114253285Y-64434200D01*
X114253285Y-64434200D02*
X114138999Y-64472295D01*
X114138999Y-64472295D02*
X114062808Y-64472295D01*
X114062808Y-64472295D02*
X113948523Y-64434200D01*
X113948523Y-64434200D02*
X113910427Y-64396104D01*
X113910427Y-64396104D02*
X113910427Y-64129438D01*
X113910427Y-64129438D02*
X114062808Y-64129438D01*
X113567570Y-64472295D02*
X113567570Y-63672295D01*
X113567570Y-63672295D02*
X113110427Y-64472295D01*
X113110427Y-64472295D02*
X113110427Y-63672295D01*
X112729475Y-64472295D02*
X112729475Y-63672295D01*
X112729475Y-63672295D02*
X112538999Y-63672295D01*
X112538999Y-63672295D02*
X112424713Y-63710390D01*
X112424713Y-63710390D02*
X112348523Y-63786580D01*
X112348523Y-63786580D02*
X112310428Y-63862771D01*
X112310428Y-63862771D02*
X112272332Y-64015152D01*
X112272332Y-64015152D02*
X112272332Y-64129438D01*
X112272332Y-64129438D02*
X112310428Y-64281819D01*
X112310428Y-64281819D02*
X112348523Y-64358009D01*
X112348523Y-64358009D02*
X112424713Y-64434200D01*
X112424713Y-64434200D02*
X112538999Y-64472295D01*
X112538999Y-64472295D02*
X112729475Y-64472295D01*
X113929475Y-61932295D02*
X113929475Y-61132295D01*
X113929475Y-61132295D02*
X113738999Y-61132295D01*
X113738999Y-61132295D02*
X113624713Y-61170390D01*
X113624713Y-61170390D02*
X113548523Y-61246580D01*
X113548523Y-61246580D02*
X113510428Y-61322771D01*
X113510428Y-61322771D02*
X113472332Y-61475152D01*
X113472332Y-61475152D02*
X113472332Y-61589438D01*
X113472332Y-61589438D02*
X113510428Y-61741819D01*
X113510428Y-61741819D02*
X113548523Y-61818009D01*
X113548523Y-61818009D02*
X113624713Y-61894200D01*
X113624713Y-61894200D02*
X113738999Y-61932295D01*
X113738999Y-61932295D02*
X113929475Y-61932295D01*
X113167571Y-61208485D02*
X113129475Y-61170390D01*
X113129475Y-61170390D02*
X113053285Y-61132295D01*
X113053285Y-61132295D02*
X112862809Y-61132295D01*
X112862809Y-61132295D02*
X112786618Y-61170390D01*
X112786618Y-61170390D02*
X112748523Y-61208485D01*
X112748523Y-61208485D02*
X112710428Y-61284676D01*
X112710428Y-61284676D02*
X112710428Y-61360866D01*
X112710428Y-61360866D02*
X112748523Y-61475152D01*
X112748523Y-61475152D02*
X113205666Y-61932295D01*
X113205666Y-61932295D02*
X112710428Y-61932295D01*
X113472332Y-77096104D02*
X113510428Y-77134200D01*
X113510428Y-77134200D02*
X113624713Y-77172295D01*
X113624713Y-77172295D02*
X113700904Y-77172295D01*
X113700904Y-77172295D02*
X113815190Y-77134200D01*
X113815190Y-77134200D02*
X113891380Y-77058009D01*
X113891380Y-77058009D02*
X113929475Y-76981819D01*
X113929475Y-76981819D02*
X113967571Y-76829438D01*
X113967571Y-76829438D02*
X113967571Y-76715152D01*
X113967571Y-76715152D02*
X113929475Y-76562771D01*
X113929475Y-76562771D02*
X113891380Y-76486580D01*
X113891380Y-76486580D02*
X113815190Y-76410390D01*
X113815190Y-76410390D02*
X113700904Y-76372295D01*
X113700904Y-76372295D02*
X113624713Y-76372295D01*
X113624713Y-76372295D02*
X113510428Y-76410390D01*
X113510428Y-76410390D02*
X113472332Y-76448485D01*
X112786618Y-76372295D02*
X112938999Y-76372295D01*
X112938999Y-76372295D02*
X113015190Y-76410390D01*
X113015190Y-76410390D02*
X113053285Y-76448485D01*
X113053285Y-76448485D02*
X113129475Y-76562771D01*
X113129475Y-76562771D02*
X113167571Y-76715152D01*
X113167571Y-76715152D02*
X113167571Y-77019914D01*
X113167571Y-77019914D02*
X113129475Y-77096104D01*
X113129475Y-77096104D02*
X113091380Y-77134200D01*
X113091380Y-77134200D02*
X113015190Y-77172295D01*
X113015190Y-77172295D02*
X112862809Y-77172295D01*
X112862809Y-77172295D02*
X112786618Y-77134200D01*
X112786618Y-77134200D02*
X112748523Y-77096104D01*
X112748523Y-77096104D02*
X112710428Y-77019914D01*
X112710428Y-77019914D02*
X112710428Y-76829438D01*
X112710428Y-76829438D02*
X112748523Y-76753247D01*
X112748523Y-76753247D02*
X112786618Y-76715152D01*
X112786618Y-76715152D02*
X112862809Y-76677057D01*
X112862809Y-76677057D02*
X113015190Y-76677057D01*
X113015190Y-76677057D02*
X113091380Y-76715152D01*
X113091380Y-76715152D02*
X113129475Y-76753247D01*
X113129475Y-76753247D02*
X113167571Y-76829438D01*
X113662809Y-86913247D02*
X113548523Y-86951342D01*
X113548523Y-86951342D02*
X113510428Y-86989438D01*
X113510428Y-86989438D02*
X113472332Y-87065628D01*
X113472332Y-87065628D02*
X113472332Y-87179914D01*
X113472332Y-87179914D02*
X113510428Y-87256104D01*
X113510428Y-87256104D02*
X113548523Y-87294200D01*
X113548523Y-87294200D02*
X113624713Y-87332295D01*
X113624713Y-87332295D02*
X113929475Y-87332295D01*
X113929475Y-87332295D02*
X113929475Y-86532295D01*
X113929475Y-86532295D02*
X113662809Y-86532295D01*
X113662809Y-86532295D02*
X113586618Y-86570390D01*
X113586618Y-86570390D02*
X113548523Y-86608485D01*
X113548523Y-86608485D02*
X113510428Y-86684676D01*
X113510428Y-86684676D02*
X113510428Y-86760866D01*
X113510428Y-86760866D02*
X113548523Y-86837057D01*
X113548523Y-86837057D02*
X113586618Y-86875152D01*
X113586618Y-86875152D02*
X113662809Y-86913247D01*
X113662809Y-86913247D02*
X113929475Y-86913247D01*
X112748523Y-86532295D02*
X113129475Y-86532295D01*
X113129475Y-86532295D02*
X113167571Y-86913247D01*
X113167571Y-86913247D02*
X113129475Y-86875152D01*
X113129475Y-86875152D02*
X113053285Y-86837057D01*
X113053285Y-86837057D02*
X112862809Y-86837057D01*
X112862809Y-86837057D02*
X112786618Y-86875152D01*
X112786618Y-86875152D02*
X112748523Y-86913247D01*
X112748523Y-86913247D02*
X112710428Y-86989438D01*
X112710428Y-86989438D02*
X112710428Y-87179914D01*
X112710428Y-87179914D02*
X112748523Y-87256104D01*
X112748523Y-87256104D02*
X112786618Y-87294200D01*
X112786618Y-87294200D02*
X112862809Y-87332295D01*
X112862809Y-87332295D02*
X113053285Y-87332295D01*
X113053285Y-87332295D02*
X113129475Y-87294200D01*
X113129475Y-87294200D02*
X113167571Y-87256104D01*
X124527666Y-71673247D02*
X124794332Y-71673247D01*
X124794332Y-72092295D02*
X124794332Y-71292295D01*
X124794332Y-71292295D02*
X124413380Y-71292295D01*
X123727666Y-71292295D02*
X124108618Y-71292295D01*
X124108618Y-71292295D02*
X124146714Y-71673247D01*
X124146714Y-71673247D02*
X124108618Y-71635152D01*
X124108618Y-71635152D02*
X124032428Y-71597057D01*
X124032428Y-71597057D02*
X123841952Y-71597057D01*
X123841952Y-71597057D02*
X123765761Y-71635152D01*
X123765761Y-71635152D02*
X123727666Y-71673247D01*
X123727666Y-71673247D02*
X123689571Y-71749438D01*
X123689571Y-71749438D02*
X123689571Y-71939914D01*
X123689571Y-71939914D02*
X123727666Y-72016104D01*
X123727666Y-72016104D02*
X123765761Y-72054200D01*
X123765761Y-72054200D02*
X123841952Y-72092295D01*
X123841952Y-72092295D02*
X124032428Y-72092295D01*
X124032428Y-72092295D02*
X124108618Y-72054200D01*
X124108618Y-72054200D02*
X124146714Y-72016104D01*
X125327666Y-66212295D02*
X125060999Y-67012295D01*
X125060999Y-67012295D02*
X124794333Y-66212295D01*
X124070523Y-66936104D02*
X124108619Y-66974200D01*
X124108619Y-66974200D02*
X124222904Y-67012295D01*
X124222904Y-67012295D02*
X124299095Y-67012295D01*
X124299095Y-67012295D02*
X124413381Y-66974200D01*
X124413381Y-66974200D02*
X124489571Y-66898009D01*
X124489571Y-66898009D02*
X124527666Y-66821819D01*
X124527666Y-66821819D02*
X124565762Y-66669438D01*
X124565762Y-66669438D02*
X124565762Y-66555152D01*
X124565762Y-66555152D02*
X124527666Y-66402771D01*
X124527666Y-66402771D02*
X124489571Y-66326580D01*
X124489571Y-66326580D02*
X124413381Y-66250390D01*
X124413381Y-66250390D02*
X124299095Y-66212295D01*
X124299095Y-66212295D02*
X124222904Y-66212295D01*
X124222904Y-66212295D02*
X124108619Y-66250390D01*
X124108619Y-66250390D02*
X124070523Y-66288485D01*
X123270523Y-66936104D02*
X123308619Y-66974200D01*
X123308619Y-66974200D02*
X123422904Y-67012295D01*
X123422904Y-67012295D02*
X123499095Y-67012295D01*
X123499095Y-67012295D02*
X123613381Y-66974200D01*
X123613381Y-66974200D02*
X123689571Y-66898009D01*
X123689571Y-66898009D02*
X123727666Y-66821819D01*
X123727666Y-66821819D02*
X123765762Y-66669438D01*
X123765762Y-66669438D02*
X123765762Y-66555152D01*
X123765762Y-66555152D02*
X123727666Y-66402771D01*
X123727666Y-66402771D02*
X123689571Y-66326580D01*
X123689571Y-66326580D02*
X123613381Y-66250390D01*
X123613381Y-66250390D02*
X123499095Y-66212295D01*
X123499095Y-66212295D02*
X123422904Y-66212295D01*
X123422904Y-66212295D02*
X123308619Y-66250390D01*
X123308619Y-66250390D02*
X123270523Y-66288485D01*
X113662809Y-84373247D02*
X113548523Y-84411342D01*
X113548523Y-84411342D02*
X113510428Y-84449438D01*
X113510428Y-84449438D02*
X113472332Y-84525628D01*
X113472332Y-84525628D02*
X113472332Y-84639914D01*
X113472332Y-84639914D02*
X113510428Y-84716104D01*
X113510428Y-84716104D02*
X113548523Y-84754200D01*
X113548523Y-84754200D02*
X113624713Y-84792295D01*
X113624713Y-84792295D02*
X113929475Y-84792295D01*
X113929475Y-84792295D02*
X113929475Y-83992295D01*
X113929475Y-83992295D02*
X113662809Y-83992295D01*
X113662809Y-83992295D02*
X113586618Y-84030390D01*
X113586618Y-84030390D02*
X113548523Y-84068485D01*
X113548523Y-84068485D02*
X113510428Y-84144676D01*
X113510428Y-84144676D02*
X113510428Y-84220866D01*
X113510428Y-84220866D02*
X113548523Y-84297057D01*
X113548523Y-84297057D02*
X113586618Y-84335152D01*
X113586618Y-84335152D02*
X113662809Y-84373247D01*
X113662809Y-84373247D02*
X113929475Y-84373247D01*
X112786618Y-84258961D02*
X112786618Y-84792295D01*
X112977094Y-83954200D02*
X113167571Y-84525628D01*
X113167571Y-84525628D02*
X112672332Y-84525628D01*
X113929475Y-72092295D02*
X113929475Y-71292295D01*
X113929475Y-71292295D02*
X113738999Y-71292295D01*
X113738999Y-71292295D02*
X113624713Y-71330390D01*
X113624713Y-71330390D02*
X113548523Y-71406580D01*
X113548523Y-71406580D02*
X113510428Y-71482771D01*
X113510428Y-71482771D02*
X113472332Y-71635152D01*
X113472332Y-71635152D02*
X113472332Y-71749438D01*
X113472332Y-71749438D02*
X113510428Y-71901819D01*
X113510428Y-71901819D02*
X113548523Y-71978009D01*
X113548523Y-71978009D02*
X113624713Y-72054200D01*
X113624713Y-72054200D02*
X113738999Y-72092295D01*
X113738999Y-72092295D02*
X113929475Y-72092295D01*
X112977094Y-71292295D02*
X112900904Y-71292295D01*
X112900904Y-71292295D02*
X112824713Y-71330390D01*
X112824713Y-71330390D02*
X112786618Y-71368485D01*
X112786618Y-71368485D02*
X112748523Y-71444676D01*
X112748523Y-71444676D02*
X112710428Y-71597057D01*
X112710428Y-71597057D02*
X112710428Y-71787533D01*
X112710428Y-71787533D02*
X112748523Y-71939914D01*
X112748523Y-71939914D02*
X112786618Y-72016104D01*
X112786618Y-72016104D02*
X112824713Y-72054200D01*
X112824713Y-72054200D02*
X112900904Y-72092295D01*
X112900904Y-72092295D02*
X112977094Y-72092295D01*
X112977094Y-72092295D02*
X113053285Y-72054200D01*
X113053285Y-72054200D02*
X113091380Y-72016104D01*
X113091380Y-72016104D02*
X113129475Y-71939914D01*
X113129475Y-71939914D02*
X113167571Y-71787533D01*
X113167571Y-71787533D02*
X113167571Y-71597057D01*
X113167571Y-71597057D02*
X113129475Y-71444676D01*
X113129475Y-71444676D02*
X113091380Y-71368485D01*
X113091380Y-71368485D02*
X113053285Y-71330390D01*
X113053285Y-71330390D02*
X112977094Y-71292295D01*
X124584809Y-84373247D02*
X124470523Y-84411342D01*
X124470523Y-84411342D02*
X124432428Y-84449438D01*
X124432428Y-84449438D02*
X124394332Y-84525628D01*
X124394332Y-84525628D02*
X124394332Y-84639914D01*
X124394332Y-84639914D02*
X124432428Y-84716104D01*
X124432428Y-84716104D02*
X124470523Y-84754200D01*
X124470523Y-84754200D02*
X124546713Y-84792295D01*
X124546713Y-84792295D02*
X124851475Y-84792295D01*
X124851475Y-84792295D02*
X124851475Y-83992295D01*
X124851475Y-83992295D02*
X124584809Y-83992295D01*
X124584809Y-83992295D02*
X124508618Y-84030390D01*
X124508618Y-84030390D02*
X124470523Y-84068485D01*
X124470523Y-84068485D02*
X124432428Y-84144676D01*
X124432428Y-84144676D02*
X124432428Y-84220866D01*
X124432428Y-84220866D02*
X124470523Y-84297057D01*
X124470523Y-84297057D02*
X124508618Y-84335152D01*
X124508618Y-84335152D02*
X124584809Y-84373247D01*
X124584809Y-84373247D02*
X124851475Y-84373247D01*
X124089571Y-84068485D02*
X124051475Y-84030390D01*
X124051475Y-84030390D02*
X123975285Y-83992295D01*
X123975285Y-83992295D02*
X123784809Y-83992295D01*
X123784809Y-83992295D02*
X123708618Y-84030390D01*
X123708618Y-84030390D02*
X123670523Y-84068485D01*
X123670523Y-84068485D02*
X123632428Y-84144676D01*
X123632428Y-84144676D02*
X123632428Y-84220866D01*
X123632428Y-84220866D02*
X123670523Y-84335152D01*
X123670523Y-84335152D02*
X124127666Y-84792295D01*
X124127666Y-84792295D02*
X123632428Y-84792295D01*
X124870523Y-61170390D02*
X124946713Y-61132295D01*
X124946713Y-61132295D02*
X125060999Y-61132295D01*
X125060999Y-61132295D02*
X125175285Y-61170390D01*
X125175285Y-61170390D02*
X125251475Y-61246580D01*
X125251475Y-61246580D02*
X125289570Y-61322771D01*
X125289570Y-61322771D02*
X125327666Y-61475152D01*
X125327666Y-61475152D02*
X125327666Y-61589438D01*
X125327666Y-61589438D02*
X125289570Y-61741819D01*
X125289570Y-61741819D02*
X125251475Y-61818009D01*
X125251475Y-61818009D02*
X125175285Y-61894200D01*
X125175285Y-61894200D02*
X125060999Y-61932295D01*
X125060999Y-61932295D02*
X124984808Y-61932295D01*
X124984808Y-61932295D02*
X124870523Y-61894200D01*
X124870523Y-61894200D02*
X124832427Y-61856104D01*
X124832427Y-61856104D02*
X124832427Y-61589438D01*
X124832427Y-61589438D02*
X124984808Y-61589438D01*
X124489570Y-61932295D02*
X124489570Y-61132295D01*
X124489570Y-61132295D02*
X124032427Y-61932295D01*
X124032427Y-61932295D02*
X124032427Y-61132295D01*
X123651475Y-61932295D02*
X123651475Y-61132295D01*
X123651475Y-61132295D02*
X123460999Y-61132295D01*
X123460999Y-61132295D02*
X123346713Y-61170390D01*
X123346713Y-61170390D02*
X123270523Y-61246580D01*
X123270523Y-61246580D02*
X123232428Y-61322771D01*
X123232428Y-61322771D02*
X123194332Y-61475152D01*
X123194332Y-61475152D02*
X123194332Y-61589438D01*
X123194332Y-61589438D02*
X123232428Y-61741819D01*
X123232428Y-61741819D02*
X123270523Y-61818009D01*
X123270523Y-61818009D02*
X123346713Y-61894200D01*
X123346713Y-61894200D02*
X123460999Y-61932295D01*
X123460999Y-61932295D02*
X123651475Y-61932295D01*
D11*
%TO.C,U2*%
X112450000Y-57760000D02*
X109910000Y-57760000D01*
X112450000Y-57760000D02*
X112450000Y-60300000D01*
X112450000Y-60300000D02*
X109910000Y-60300000D01*
D10*
X125144635Y-64449030D02*
X125044635Y-64449030D01*
X125044635Y-63649030D01*
X125144635Y-63649030D01*
X125144635Y-64449030D01*
G36*
X125144635Y-64449030D02*
G01*
X125044635Y-64449030D01*
X125044635Y-63649030D01*
X125144635Y-63649030D01*
X125144635Y-64449030D01*
G37*
X125144635Y-63749030D02*
X124644635Y-63749030D01*
X124644635Y-63649030D01*
X125144635Y-63649030D01*
X125144635Y-63749030D01*
G36*
X125144635Y-63749030D02*
G01*
X124644635Y-63749030D01*
X124644635Y-63649030D01*
X125144635Y-63649030D01*
X125144635Y-63749030D01*
G37*
X124744635Y-63949030D02*
X124644635Y-63949030D01*
X124644635Y-63649030D01*
X124744635Y-63649030D01*
X124744635Y-63949030D01*
G36*
X124744635Y-63949030D02*
G01*
X124644635Y-63949030D01*
X124644635Y-63649030D01*
X124744635Y-63649030D01*
X124744635Y-63949030D01*
G37*
X124944635Y-64149030D02*
X124844635Y-64149030D01*
X124844635Y-64049030D01*
X124944635Y-64049030D01*
X124944635Y-64149030D01*
G36*
X124944635Y-64149030D02*
G01*
X124844635Y-64149030D01*
X124844635Y-64049030D01*
X124944635Y-64049030D01*
X124944635Y-64149030D01*
G37*
X124744635Y-64449030D02*
X124644635Y-64449030D01*
X124644635Y-64249030D01*
X124744635Y-64249030D01*
X124744635Y-64449030D01*
G36*
X124744635Y-64449030D02*
G01*
X124644635Y-64449030D01*
X124644635Y-64249030D01*
X124744635Y-64249030D01*
X124744635Y-64449030D01*
G37*
%TD*%
D12*
%TO.C,U2*%
X111180000Y-59030000D03*
D13*
X111180000Y-61570000D03*
X111180000Y-64110000D03*
X111180000Y-66650000D03*
X111180000Y-69190000D03*
X111180000Y-71730000D03*
X111180000Y-74270000D03*
X111180000Y-76810000D03*
X111180000Y-79350000D03*
X111180000Y-81890000D03*
X111180000Y-84430000D03*
X111180000Y-86970000D03*
X126420000Y-86970000D03*
X126420000Y-84430000D03*
X126420000Y-81890000D03*
X126420000Y-79350000D03*
X126420000Y-76810000D03*
X126420000Y-74270000D03*
X126420000Y-71730000D03*
X126420000Y-69190000D03*
X126420000Y-66650000D03*
X126420000Y-64110000D03*
X126420000Y-61570000D03*
X126420000Y-59030000D03*
%TD*%
M02*
