M48
; DRILL file {KiCad 7.0.7} date Sun Nov 26 11:13:58 2023
; FORMAT={-:-/ absolute / metric / decimal}
; #@! TF.CreationDate,2023-11-26T11:13:58-07:00
; #@! TF.GenerationSoftware,Kicad,Pcbnew,7.0.7
; #@! TF.FileFunction,NonPlated,1,2,NPTH
FMAT,2
METRIC
; #@! TA.AperFunction,NonPlated,NPTH,ComponentDrill
T1C1.750
; #@! TA.AperFunction,NonPlated,NPTH,ComponentDrill
T2C4.000
%
G90
G05
T1
X14.713Y-67.748
X16.351Y-86.718
X17.999Y-105.706
X24.835Y-66.863
X26.472Y-85.832
X28.12Y-104.821
X37.767Y-56.604
X37.767Y-75.604
X37.767Y-94.604
X47.927Y-56.604
X47.927Y-75.604
X47.927Y-94.604
X56.767Y-51.604
X56.767Y-70.604
X56.767Y-89.604
X66.927Y-51.604
X66.927Y-70.604
X66.927Y-89.604
X75.767Y-57.604
X75.767Y-76.604
X75.767Y-95.604
X78.79Y-130.061
X85.927Y-57.604
X85.927Y-76.604
X85.927Y-95.604
X88.894Y-131.123
X94.767Y-63.604
X94.767Y-82.604
X94.767Y-101.604
X101.458Y-133.987
X104.927Y-63.604
X104.927Y-82.604
X104.927Y-101.604
X111.064Y-137.295
X123.168Y-142.643
X131.784Y-148.027
T2
X19.774Y-67.305
X21.411Y-86.275
X23.06Y-105.264
X42.847Y-56.604
X42.847Y-75.604
X42.847Y-94.604
X61.847Y-51.604
X61.847Y-70.604
X61.847Y-89.604
X80.847Y-57.604
X80.847Y-76.604
X80.847Y-95.604
X83.842Y-130.592
X99.847Y-63.604
X99.847Y-82.604
X99.847Y-101.604
X106.261Y-135.641
X127.476Y-145.335
T0
M30
