G04 #@! TF.GenerationSoftware,KiCad,Pcbnew,7.0.7*
G04 #@! TF.CreationDate,2023-11-26T11:13:30-07:00*
G04 #@! TF.ProjectId,TypeStationX,54797065-5374-4617-9469-6f6e582e6b69,rev?*
G04 #@! TF.SameCoordinates,Original*
G04 #@! TF.FileFunction,Soldermask,Bot*
G04 #@! TF.FilePolarity,Negative*
%FSLAX46Y46*%
G04 Gerber Fmt 4.6, Leading zero omitted, Abs format (unit mm)*
G04 Created by KiCad (PCBNEW 7.0.7) date 2023-11-26 11:13:30*
%MOMM*%
%LPD*%
G01*
G04 APERTURE LIST*
G04 Aperture macros list*
%AMRotRect*
0 Rectangle, with rotation*
0 The origin of the aperture is its center*
0 $1 length*
0 $2 width*
0 $3 Rotation angle, in degrees counterclockwise*
0 Add horizontal line*
21,1,$1,$2,0,0,$3*%
G04 Aperture macros list end*
%ADD10C,1.750000*%
%ADD11C,4.000000*%
%ADD12C,2.500000*%
%ADD13R,1.700000X1.700000*%
%ADD14O,1.700000X1.700000*%
%ADD15R,1.752600X1.752600*%
%ADD16C,1.752600*%
%ADD17R,1.300000X1.400000*%
%ADD18RotRect,1.400000X1.300000X275.000000*%
%ADD19RotRect,1.400000X1.300000X264.000000*%
%ADD20RotRect,1.400000X1.300000X251.000000*%
%ADD21RotRect,1.400000X1.300000X238.000000*%
G04 APERTURE END LIST*
D10*
X56767381Y-70603631D03*
D11*
X61847381Y-70603631D03*
D10*
X66927381Y-70603631D03*
D12*
X58037381Y-68063631D03*
X64387381Y-65523631D03*
D10*
X75767381Y-76603631D03*
D11*
X80847381Y-76603631D03*
D10*
X85927381Y-76603631D03*
D12*
X77037381Y-74063631D03*
X83387381Y-71523631D03*
D10*
X16350501Y-86717930D03*
D11*
X21411170Y-86275179D03*
D10*
X26471839Y-85832428D03*
D12*
X17394293Y-84076908D03*
X23498753Y-80993134D03*
D10*
X37767381Y-75603631D03*
D11*
X42847381Y-75603631D03*
D10*
X47927381Y-75603631D03*
D12*
X39037381Y-73063631D03*
X45387381Y-70523631D03*
D10*
X37767381Y-94603631D03*
D11*
X42847381Y-94603631D03*
D10*
X47927381Y-94603631D03*
D12*
X39037381Y-92063631D03*
X45387381Y-89523631D03*
D10*
X14713224Y-67748165D03*
D11*
X19773893Y-67305414D03*
D10*
X24834562Y-66862663D03*
D12*
X15757016Y-65107143D03*
X21861476Y-62023369D03*
D10*
X56767381Y-51603631D03*
D11*
X61847381Y-51603631D03*
D10*
X66927381Y-51603631D03*
D12*
X58037381Y-49063631D03*
X64387381Y-46523631D03*
D10*
X78790157Y-130061034D03*
D11*
X83842328Y-130592039D03*
D10*
X88894499Y-131123044D03*
D12*
X80318702Y-127667700D03*
X86899418Y-125805370D03*
D10*
X75767381Y-57603631D03*
D11*
X80847381Y-57603631D03*
D10*
X85927381Y-57603631D03*
D12*
X77037381Y-55063631D03*
X83387381Y-52523631D03*
D10*
X123167892Y-142643050D03*
D11*
X127475976Y-145335040D03*
D10*
X131784060Y-148027030D03*
D12*
X125590908Y-141162005D03*
X132322008Y-142372951D03*
D10*
X37767381Y-56603631D03*
D11*
X42847381Y-56603631D03*
D10*
X47927381Y-56603631D03*
D12*
X39037381Y-54063631D03*
X45387381Y-51523631D03*
D10*
X101457718Y-133987299D03*
D11*
X106260952Y-135641185D03*
D10*
X111064186Y-137295071D03*
D12*
X103485469Y-131999153D03*
X110316455Y-131664894D03*
D13*
X112000000Y-92000000D03*
D14*
X112000000Y-96000000D03*
X112000000Y-100000000D03*
X112000000Y-104000000D03*
X112000000Y-108000000D03*
X112000000Y-112000000D03*
X112000000Y-116000000D03*
X112000000Y-120000000D03*
X112000000Y-124000000D03*
D10*
X17999132Y-105706470D03*
D11*
X23059801Y-105263719D03*
D10*
X28120470Y-104820968D03*
D12*
X19042924Y-103065448D03*
X25147384Y-99981674D03*
D10*
X94767381Y-82603631D03*
D11*
X99847381Y-82603631D03*
D10*
X104927381Y-82603631D03*
D12*
X96037381Y-80063631D03*
X102387381Y-77523631D03*
D10*
X94767381Y-63603631D03*
D11*
X99847381Y-63603631D03*
D10*
X104927381Y-63603631D03*
D12*
X96037381Y-61063631D03*
X102387381Y-58523631D03*
D10*
X75767381Y-95603631D03*
D11*
X80847381Y-95603631D03*
D10*
X85927381Y-95603631D03*
D12*
X77037381Y-93063631D03*
X83387381Y-90523631D03*
D10*
X56767381Y-89603631D03*
D11*
X61847381Y-89603631D03*
D10*
X66927381Y-89603631D03*
D12*
X58037381Y-87063631D03*
X64387381Y-84523631D03*
D10*
X94767381Y-101603631D03*
D11*
X99847381Y-101603631D03*
D10*
X104927381Y-101603631D03*
D12*
X96037381Y-99063631D03*
X102387381Y-96523631D03*
D15*
X111180000Y-59030000D03*
D16*
X111180000Y-61570000D03*
X111180000Y-64110000D03*
X111180000Y-66650000D03*
X111180000Y-69190000D03*
X111180000Y-71730000D03*
X111180000Y-74270000D03*
X111180000Y-76810000D03*
X111180000Y-79350000D03*
X111180000Y-81890000D03*
X111180000Y-84430000D03*
X111180000Y-86970000D03*
X126420000Y-86970000D03*
X126420000Y-84430000D03*
X126420000Y-81890000D03*
X126420000Y-79350000D03*
X126420000Y-76810000D03*
X126420000Y-74270000D03*
X126420000Y-71730000D03*
X126420000Y-69190000D03*
X126420000Y-66650000D03*
X126420000Y-64110000D03*
X126420000Y-61570000D03*
X126420000Y-59030000D03*
D17*
X88900000Y-97378631D03*
X88900000Y-93828631D03*
X88900000Y-59378631D03*
X88900000Y-55828631D03*
D18*
X29537658Y-87345984D03*
X29228256Y-83809492D03*
D19*
X91668111Y-133199339D03*
X92039187Y-129668787D03*
D17*
X50900000Y-77378631D03*
X50900000Y-73828631D03*
X69900000Y-91378631D03*
X69900000Y-87828631D03*
D18*
X28054701Y-68368246D03*
X27745299Y-64831754D03*
D20*
X113333093Y-139953595D03*
X114488859Y-136597005D03*
D17*
X107823227Y-84774079D03*
X107823227Y-81224079D03*
X107900000Y-65375000D03*
X107900000Y-61825000D03*
X107900000Y-103378631D03*
X107900000Y-99828631D03*
X50900000Y-96375000D03*
X50900000Y-92825000D03*
X69900000Y-72378631D03*
X69900000Y-68828631D03*
X50900000Y-58375000D03*
X50900000Y-54825000D03*
X88900000Y-78378631D03*
X88900000Y-74828631D03*
D21*
X133319754Y-151079679D03*
X135200968Y-148069109D03*
D18*
X31533994Y-106304104D03*
X31224592Y-102767612D03*
D17*
X69900000Y-53378631D03*
X69900000Y-49828631D03*
M02*
