%TF.GenerationSoftware,KiCad,Pcbnew,7.0.7*%
%TF.CreationDate,2023-11-23T18:26:16-07:00*%
%TF.ProjectId,TypestationX - Left,54797065-7374-4617-9469-6f6e58202d20,rev?*%
%TF.SameCoordinates,Original*%
%TF.FileFunction,Profile,NP*%
%FSLAX46Y46*%
G04 Gerber Fmt 4.6, Leading zero omitted, Abs format (unit mm)*
G04 Created by KiCad (PCBNEW 7.0.7) date 2023-11-23 18:26:16*
%MOMM*%
%LPD*%
G01*
G04 APERTURE LIST*
%TA.AperFunction,Profile*%
%ADD10C,0.100000*%
%TD*%
G04 APERTURE END LIST*
D10*
X81500000Y-48000000D02*
X90450000Y-48000000D01*
X119000000Y-132000000D02*
X124250000Y-132000000D01*
X112700000Y-148500000D02*
X93000000Y-141400000D01*
X14000000Y-116100000D02*
X8800000Y-58400000D01*
X119000000Y-90400000D02*
X119000000Y-132000000D01*
X124250000Y-132000000D02*
X140800000Y-142300000D01*
X71450000Y-41950000D02*
X71450000Y-48000000D01*
X32900000Y-106700000D02*
X56800000Y-106700000D01*
X122600000Y-59000000D02*
X122600000Y-55100000D01*
X114950000Y-59000000D02*
X122600000Y-59000000D01*
X33600000Y-114100000D02*
X32900000Y-106700000D01*
X109450000Y-54000000D02*
X109450000Y-55100000D01*
X33200000Y-56200000D02*
X33200000Y-46900000D01*
X90450000Y-48000000D02*
X90450000Y-54000000D01*
X128050000Y-88600000D02*
X119000000Y-88600000D01*
X56800000Y-106700000D02*
X76600000Y-106700000D01*
X14000000Y-116100000D02*
X33600000Y-114100000D01*
X109450000Y-55100000D02*
X114950000Y-55100000D01*
X130300000Y-158900000D02*
X140800000Y-142300000D01*
X52200000Y-41950000D02*
X71450000Y-41950000D01*
X33200000Y-46900000D02*
X52200000Y-46900000D01*
X93000000Y-141400000D02*
X73200000Y-139200000D01*
X128050000Y-55100000D02*
X128050000Y-88600000D01*
X130300000Y-158900000D02*
X112700000Y-148500000D01*
X119000000Y-88600000D02*
X119000000Y-90400000D01*
X8800000Y-58400000D02*
X33200000Y-56200000D01*
X71450000Y-48000000D02*
X81500000Y-48000000D01*
X73200000Y-139200000D02*
X76600000Y-106700000D01*
X52200000Y-46900000D02*
X52200000Y-41950000D01*
X122600000Y-55100000D02*
X128050000Y-55100000D01*
X114950000Y-55100000D02*
X114950000Y-59000000D01*
X90450000Y-54000000D02*
X109450000Y-54000000D01*
M02*
