%TF.GenerationSoftware,KiCad,Pcbnew,7.0.7*%
%TF.CreationDate,2023-11-26T11:13:58-07:00*%
%TF.ProjectId,TypeStationX,54797065-5374-4617-9469-6f6e582e6b69,rev?*%
%TF.SameCoordinates,Original*%
%TF.FileFunction,Drillmap*%
%TF.FilePolarity,Positive*%
%FSLAX45Y45*%
G04 Gerber Fmt 4.5, Leading zero omitted, Abs format (unit mm)*
G04 Created by KiCad (PCBNEW 7.0.7) date 2023-11-26 11:13:58*
%MOMM*%
%LPD*%
G01*
G04 APERTURE LIST*
%ADD10C,0.100000*%
%ADD11C,0.200000*%
%ADD12C,0.040000*%
%ADD13C,0.081280*%
%ADD14C,0.109220*%
%ADD15C,0.150000*%
G04 APERTURE END LIST*
D10*
X8150000Y-4800000D02*
X9045000Y-4800000D01*
X11900000Y-13200000D02*
X12425000Y-13200000D01*
X11270000Y-14850000D02*
X9300000Y-14140000D01*
X1400000Y-11610000D02*
X880000Y-5840000D01*
X11900000Y-9040000D02*
X11900000Y-13200000D01*
X12425000Y-13200000D02*
X14080000Y-14230000D01*
X7145000Y-4195000D02*
X7145000Y-4800000D01*
X3290000Y-10670000D02*
X5680000Y-10670000D01*
X12260000Y-5900000D02*
X12260000Y-5510000D01*
X11495000Y-5900000D02*
X12260000Y-5900000D01*
X3360000Y-11410000D02*
X3290000Y-10670000D01*
X10945000Y-5400000D02*
X10945000Y-5510000D01*
X3320000Y-5620000D02*
X3320000Y-4690000D01*
X9045000Y-4800000D02*
X9045000Y-5400000D01*
X12805000Y-8860000D02*
X11900000Y-8860000D01*
X5680000Y-10670000D02*
X7660000Y-10670000D01*
X1400000Y-11610000D02*
X3360000Y-11410000D01*
X10945000Y-5510000D02*
X11495000Y-5510000D01*
X13030000Y-15890000D02*
X14080000Y-14230000D01*
X5220000Y-4195000D02*
X7145000Y-4195000D01*
X3320000Y-4690000D02*
X5220000Y-4690000D01*
X9300000Y-14140000D02*
X7320000Y-13920000D01*
X12805000Y-5510000D02*
X12805000Y-8860000D01*
X13030000Y-15890000D02*
X11270000Y-14850000D01*
X11900000Y-8860000D02*
X11900000Y-9040000D01*
X880000Y-5840000D02*
X3320000Y-5620000D01*
X7145000Y-4800000D02*
X8150000Y-4800000D01*
X7320000Y-13920000D02*
X7660000Y-10670000D01*
X5220000Y-4690000D02*
X5220000Y-4195000D01*
X12260000Y-5510000D02*
X12805000Y-5510000D01*
X11495000Y-5510000D02*
X11495000Y-5900000D01*
X9045000Y-5400000D02*
X10945000Y-5400000D01*
D11*
D12*
X3811288Y-6699908D02*
X3851288Y-6739908D01*
X3851288Y-6699908D02*
X3811288Y-6739908D01*
X3956188Y-6629908D02*
X3996188Y-6669908D01*
X3996188Y-6629908D02*
X3956188Y-6669908D01*
X5711288Y-6269908D02*
X5751288Y-6309908D01*
X5751288Y-6269908D02*
X5711288Y-6309908D01*
X5711288Y-6379908D02*
X5751288Y-6419908D01*
X5751288Y-6379908D02*
X5711288Y-6419908D01*
X5856188Y-6369908D02*
X5896188Y-6409908D01*
X5896188Y-6369908D02*
X5856188Y-6409908D01*
X5862323Y-6269908D02*
X5902323Y-6309908D01*
X5902323Y-6269908D02*
X5862323Y-6309908D01*
X7602323Y-6789908D02*
X7642323Y-6829908D01*
X7642323Y-6789908D02*
X7602323Y-6829908D01*
X7602323Y-6899908D02*
X7642323Y-6939908D01*
X7642323Y-6899908D02*
X7602323Y-6939908D01*
X7611288Y-6669908D02*
X7651288Y-6709908D01*
X7651288Y-6669908D02*
X7611288Y-6709908D01*
X7762323Y-6669908D02*
X7802323Y-6709908D01*
X7802323Y-6669908D02*
X7762323Y-6709908D01*
X7762323Y-6789908D02*
X7802323Y-6829908D01*
X7802323Y-6789908D02*
X7762323Y-6829908D01*
X7762323Y-6899908D02*
X7802323Y-6939908D01*
X7802323Y-6899908D02*
X7762323Y-6939908D01*
X9511288Y-6729908D02*
X9551288Y-6769908D01*
X9551288Y-6729908D02*
X9511288Y-6769908D01*
X9511288Y-6849908D02*
X9551288Y-6889908D01*
X9551288Y-6849908D02*
X9511288Y-6889908D01*
X9511288Y-7019908D02*
X9551288Y-7059908D01*
X9551288Y-7019908D02*
X9511288Y-7059908D01*
X9511288Y-7629908D02*
X9551288Y-7669908D01*
X9551288Y-7629908D02*
X9511288Y-7669908D01*
X9656188Y-7019908D02*
X9696188Y-7059908D01*
X9696188Y-7019908D02*
X9656188Y-7059908D01*
X9656188Y-7159908D02*
X9696188Y-7199908D01*
X9696188Y-7159908D02*
X9656188Y-7199908D01*
X9662323Y-6729908D02*
X9702323Y-6769908D01*
X9702323Y-6729908D02*
X9662323Y-6769908D01*
X9662323Y-6849908D02*
X9702323Y-6889908D01*
X9702323Y-6849908D02*
X9662323Y-6889908D01*
X11282323Y-8539908D02*
X11322323Y-8579908D01*
X11322323Y-8539908D02*
X11282323Y-8579908D01*
X11414142Y-8631728D02*
X11454142Y-8671728D01*
X11454142Y-8631728D02*
X11414142Y-8671728D01*
X11502323Y-9309908D02*
X11542323Y-9349908D01*
X11542323Y-9309908D02*
X11502323Y-9349908D01*
D13*
X2804493Y-6361142D02*
G75*
G03*
X2804493Y-6361142I-40640J0D01*
G01*
X2856787Y-6958858D02*
G75*
G03*
X2856787Y-6958858I-40640J0D01*
G01*
X2952789Y-8258915D02*
G75*
G03*
X2952789Y-8258915I-40640J0D01*
G01*
X3005082Y-8856632D02*
G75*
G03*
X3005082Y-8856632I-40640J0D01*
G01*
X3152423Y-10154727D02*
G75*
G03*
X3152423Y-10154727I-40640J0D01*
G01*
X3204716Y-10752444D02*
G75*
G03*
X3204716Y-10752444I-40640J0D01*
G01*
X5130640Y-5360000D02*
G75*
G03*
X5130640Y-5360000I-40640J0D01*
G01*
X5130640Y-5960000D02*
G75*
G03*
X5130640Y-5960000I-40640J0D01*
G01*
X5130640Y-7260363D02*
G75*
G03*
X5130640Y-7260363I-40640J0D01*
G01*
X5130640Y-7860363D02*
G75*
G03*
X5130640Y-7860363I-40640J0D01*
G01*
X5130640Y-9160000D02*
G75*
G03*
X5130640Y-9160000I-40640J0D01*
G01*
X5130640Y-9760000D02*
G75*
G03*
X5130640Y-9760000I-40640J0D01*
G01*
X7030640Y-4860363D02*
G75*
G03*
X7030640Y-4860363I-40640J0D01*
G01*
X7030640Y-5460363D02*
G75*
G03*
X7030640Y-5460363I-40640J0D01*
G01*
X7030640Y-6760363D02*
G75*
G03*
X7030640Y-6760363I-40640J0D01*
G01*
X7030640Y-7360363D02*
G75*
G03*
X7030640Y-7360363I-40640J0D01*
G01*
X7030640Y-8660363D02*
G75*
G03*
X7030640Y-8660363I-40640J0D01*
G01*
X7030640Y-9260363D02*
G75*
G03*
X7030640Y-9260363I-40640J0D01*
G01*
X8930640Y-5460363D02*
G75*
G03*
X8930640Y-5460363I-40640J0D01*
G01*
X8930640Y-6060363D02*
G75*
G03*
X8930640Y-6060363I-40640J0D01*
G01*
X8930640Y-7360363D02*
G75*
G03*
X8930640Y-7360363I-40640J0D01*
G01*
X8930640Y-7960363D02*
G75*
G03*
X8930640Y-7960363I-40640J0D01*
G01*
X8930640Y-9260363D02*
G75*
G03*
X8930640Y-9260363I-40640J0D01*
G01*
X8930640Y-9860363D02*
G75*
G03*
X8930640Y-9860363I-40640J0D01*
G01*
X9194646Y-13441763D02*
G75*
G03*
X9194646Y-13441763I-40640J0D01*
G01*
X9257363Y-12845050D02*
G75*
G03*
X9257363Y-12845050I-40640J0D01*
G01*
X10822963Y-7999908D02*
G75*
G03*
X10822963Y-7999908I-40640J0D01*
G01*
X10822963Y-8599908D02*
G75*
G03*
X10822963Y-8599908I-40640J0D01*
G01*
X10830640Y-6060000D02*
G75*
G03*
X10830640Y-6060000I-40640J0D01*
G01*
X10830640Y-6660000D02*
G75*
G03*
X10830640Y-6660000I-40640J0D01*
G01*
X10830640Y-9860363D02*
G75*
G03*
X10830640Y-9860363I-40640J0D01*
G01*
X10830640Y-10460363D02*
G75*
G03*
X10830640Y-10460363I-40640J0D01*
G01*
X11334067Y-14111186D02*
G75*
G03*
X11334067Y-14111186I-40640J0D01*
G01*
X11529408Y-13543874D02*
G75*
G03*
X11529408Y-13543874I-40640J0D01*
G01*
X13307700Y-15211854D02*
G75*
G03*
X13307700Y-15211854I-40640J0D01*
G01*
X13625652Y-14703025D02*
G75*
G03*
X13625652Y-14703025I-40640J0D01*
G01*
D10*
X11200000Y-9150000D02*
X11200000Y-9250000D01*
X11150000Y-9200000D02*
X11250000Y-9200000D01*
X11200000Y-9550000D02*
X11200000Y-9650000D01*
X11150000Y-9600000D02*
X11250000Y-9600000D01*
X11200000Y-9950000D02*
X11200000Y-10050000D01*
X11150000Y-10000000D02*
X11250000Y-10000000D01*
X11200000Y-10350000D02*
X11200000Y-10450000D01*
X11150000Y-10400000D02*
X11250000Y-10400000D01*
X11200000Y-10750000D02*
X11200000Y-10850000D01*
X11150000Y-10800000D02*
X11250000Y-10800000D01*
X11200000Y-11150000D02*
X11200000Y-11250000D01*
X11150000Y-11200000D02*
X11250000Y-11200000D01*
X11200000Y-11550000D02*
X11200000Y-11650000D01*
X11150000Y-11600000D02*
X11250000Y-11600000D01*
X11200000Y-11950000D02*
X11200000Y-12050000D01*
X11150000Y-12000000D02*
X11250000Y-12000000D01*
X11200000Y-12350000D02*
X11200000Y-12450000D01*
X11150000Y-12400000D02*
X11250000Y-12400000D01*
D14*
X11156616Y-5941615D02*
X11156616Y-5864384D01*
X11079385Y-5864384D01*
X11079385Y-5941615D01*
X11156616Y-5941615D01*
X11156616Y-6195615D02*
X11156616Y-6118384D01*
X11079385Y-6118384D01*
X11079385Y-6195615D01*
X11156616Y-6195615D01*
X11156616Y-6449615D02*
X11156616Y-6372384D01*
X11079385Y-6372384D01*
X11079385Y-6449615D01*
X11156616Y-6449615D01*
X11156616Y-6703615D02*
X11156616Y-6626384D01*
X11079385Y-6626384D01*
X11079385Y-6703615D01*
X11156616Y-6703615D01*
X11156616Y-6957615D02*
X11156616Y-6880384D01*
X11079385Y-6880384D01*
X11079385Y-6957615D01*
X11156616Y-6957615D01*
X11156616Y-7211615D02*
X11156616Y-7134384D01*
X11079385Y-7134384D01*
X11079385Y-7211615D01*
X11156616Y-7211615D01*
X11156616Y-7465615D02*
X11156616Y-7388384D01*
X11079385Y-7388384D01*
X11079385Y-7465615D01*
X11156616Y-7465615D01*
X11156616Y-7719615D02*
X11156616Y-7642384D01*
X11079385Y-7642384D01*
X11079385Y-7719615D01*
X11156616Y-7719615D01*
X11156616Y-7973615D02*
X11156616Y-7896384D01*
X11079385Y-7896384D01*
X11079385Y-7973615D01*
X11156616Y-7973615D01*
X11156616Y-8227615D02*
X11156616Y-8150384D01*
X11079385Y-8150384D01*
X11079385Y-8227615D01*
X11156616Y-8227615D01*
X11156616Y-8481616D02*
X11156616Y-8404385D01*
X11079385Y-8404385D01*
X11079385Y-8481616D01*
X11156616Y-8481616D01*
X11156616Y-8735616D02*
X11156616Y-8658385D01*
X11079385Y-8658385D01*
X11079385Y-8735616D01*
X11156616Y-8735616D01*
X12680615Y-5941615D02*
X12680615Y-5864384D01*
X12603384Y-5864384D01*
X12603384Y-5941615D01*
X12680615Y-5941615D01*
X12680615Y-6195615D02*
X12680615Y-6118384D01*
X12603384Y-6118384D01*
X12603384Y-6195615D01*
X12680615Y-6195615D01*
X12680615Y-6449615D02*
X12680615Y-6372384D01*
X12603384Y-6372384D01*
X12603384Y-6449615D01*
X12680615Y-6449615D01*
X12680615Y-6703615D02*
X12680615Y-6626384D01*
X12603384Y-6626384D01*
X12603384Y-6703615D01*
X12680615Y-6703615D01*
X12680615Y-6957615D02*
X12680615Y-6880384D01*
X12603384Y-6880384D01*
X12603384Y-6957615D01*
X12680615Y-6957615D01*
X12680615Y-7211615D02*
X12680615Y-7134384D01*
X12603384Y-7134384D01*
X12603384Y-7211615D01*
X12680615Y-7211615D01*
X12680615Y-7465615D02*
X12680615Y-7388384D01*
X12603384Y-7388384D01*
X12603384Y-7465615D01*
X12680615Y-7465615D01*
X12680615Y-7719615D02*
X12680615Y-7642384D01*
X12603384Y-7642384D01*
X12603384Y-7719615D01*
X12680615Y-7719615D01*
X12680615Y-7973615D02*
X12680615Y-7896384D01*
X12603384Y-7896384D01*
X12603384Y-7973615D01*
X12680615Y-7973615D01*
X12680615Y-8227615D02*
X12680615Y-8150384D01*
X12603384Y-8150384D01*
X12603384Y-8227615D01*
X12680615Y-8227615D01*
X12680615Y-8481616D02*
X12680615Y-8404385D01*
X12603384Y-8404385D01*
X12603384Y-8481616D01*
X12680615Y-8481616D01*
X12680615Y-8735616D02*
X12680615Y-8658385D01*
X12603384Y-8658385D01*
X12603384Y-8735616D01*
X12680615Y-8735616D01*
D15*
X1575702Y-6585714D02*
X1650702Y-6510714D01*
X1575702Y-6435714D01*
X1500702Y-6510714D01*
X1575702Y-6585714D01*
X1739429Y-8482691D02*
X1814429Y-8407691D01*
X1739429Y-8332691D01*
X1664429Y-8407691D01*
X1739429Y-8482691D01*
X1904292Y-10381545D02*
X1979292Y-10306545D01*
X1904292Y-10231545D01*
X1829292Y-10306545D01*
X1904292Y-10381545D01*
X2186148Y-6277337D02*
X2261148Y-6202337D01*
X2186148Y-6127337D01*
X2111148Y-6202337D01*
X2186148Y-6277337D01*
X2349875Y-8174313D02*
X2424875Y-8099313D01*
X2349875Y-8024313D01*
X2274875Y-8099313D01*
X2349875Y-8174313D01*
X2514738Y-10073167D02*
X2589738Y-9998167D01*
X2514738Y-9923167D01*
X2439738Y-9998167D01*
X2514738Y-10073167D01*
X3903738Y-5481363D02*
X3978738Y-5406363D01*
X3903738Y-5331363D01*
X3828738Y-5406363D01*
X3903738Y-5481363D01*
X3903738Y-7381363D02*
X3978738Y-7306363D01*
X3903738Y-7231363D01*
X3828738Y-7306363D01*
X3903738Y-7381363D01*
X3903738Y-9281363D02*
X3978738Y-9206363D01*
X3903738Y-9131363D01*
X3828738Y-9206363D01*
X3903738Y-9281363D01*
X4538738Y-5227363D02*
X4613738Y-5152363D01*
X4538738Y-5077363D01*
X4463738Y-5152363D01*
X4538738Y-5227363D01*
X4538738Y-7127363D02*
X4613738Y-7052363D01*
X4538738Y-6977363D01*
X4463738Y-7052363D01*
X4538738Y-7127363D01*
X4538738Y-9027363D02*
X4613738Y-8952363D01*
X4538738Y-8877363D01*
X4463738Y-8952363D01*
X4538738Y-9027363D01*
X5803738Y-4981363D02*
X5878738Y-4906363D01*
X5803738Y-4831363D01*
X5728738Y-4906363D01*
X5803738Y-4981363D01*
X5803738Y-6881363D02*
X5878738Y-6806363D01*
X5803738Y-6731363D01*
X5728738Y-6806363D01*
X5803738Y-6881363D01*
X5803738Y-8781363D02*
X5878738Y-8706363D01*
X5803738Y-8631363D01*
X5728738Y-8706363D01*
X5803738Y-8781363D01*
X6438738Y-4727363D02*
X6513738Y-4652363D01*
X6438738Y-4577363D01*
X6363738Y-4652363D01*
X6438738Y-4727363D01*
X6438738Y-6627363D02*
X6513738Y-6552363D01*
X6438738Y-6477363D01*
X6363738Y-6552363D01*
X6438738Y-6627363D01*
X6438738Y-8527363D02*
X6513738Y-8452363D01*
X6438738Y-8377363D01*
X6363738Y-8452363D01*
X6438738Y-8527363D01*
X7703738Y-5581363D02*
X7778738Y-5506363D01*
X7703738Y-5431363D01*
X7628738Y-5506363D01*
X7703738Y-5581363D01*
X7703738Y-7481363D02*
X7778738Y-7406363D01*
X7703738Y-7331363D01*
X7628738Y-7406363D01*
X7703738Y-7481363D01*
X7703738Y-9381363D02*
X7778738Y-9306363D01*
X7703738Y-9231363D01*
X7628738Y-9306363D01*
X7703738Y-9381363D01*
X8031870Y-12841770D02*
X8106870Y-12766770D01*
X8031870Y-12691770D01*
X7956870Y-12766770D01*
X8031870Y-12841770D01*
X8338738Y-5327363D02*
X8413738Y-5252363D01*
X8338738Y-5177363D01*
X8263738Y-5252363D01*
X8338738Y-5327363D01*
X8338738Y-7227363D02*
X8413738Y-7152363D01*
X8338738Y-7077363D01*
X8263738Y-7152363D01*
X8338738Y-7227363D01*
X8338738Y-9127363D02*
X8413738Y-9052363D01*
X8338738Y-8977363D01*
X8263738Y-9052363D01*
X8338738Y-9127363D01*
X8689942Y-12655537D02*
X8764942Y-12580537D01*
X8689942Y-12505537D01*
X8614942Y-12580537D01*
X8689942Y-12655537D01*
X9603738Y-6181363D02*
X9678738Y-6106363D01*
X9603738Y-6031363D01*
X9528738Y-6106363D01*
X9603738Y-6181363D01*
X9603738Y-8081363D02*
X9678738Y-8006363D01*
X9603738Y-7931363D01*
X9528738Y-8006363D01*
X9603738Y-8081363D01*
X9603738Y-9981363D02*
X9678738Y-9906363D01*
X9603738Y-9831363D01*
X9528738Y-9906363D01*
X9603738Y-9981363D01*
X10238738Y-5927363D02*
X10313738Y-5852363D01*
X10238738Y-5777363D01*
X10163738Y-5852363D01*
X10238738Y-5927363D01*
X10238738Y-7827363D02*
X10313738Y-7752363D01*
X10238738Y-7677363D01*
X10163738Y-7752363D01*
X10238738Y-7827363D01*
X10238738Y-9727363D02*
X10313738Y-9652363D01*
X10238738Y-9577363D01*
X10163738Y-9652363D01*
X10238738Y-9727363D01*
X10348547Y-13274915D02*
X10423547Y-13199915D01*
X10348547Y-13124915D01*
X10273547Y-13199915D01*
X10348547Y-13274915D01*
X11031646Y-13241489D02*
X11106646Y-13166489D01*
X11031646Y-13091489D01*
X10956646Y-13166489D01*
X11031646Y-13241489D01*
X12559091Y-14191200D02*
X12634091Y-14116200D01*
X12559091Y-14041200D01*
X12484091Y-14116200D01*
X12559091Y-14191200D01*
X13232201Y-14312295D02*
X13307201Y-14237295D01*
X13232201Y-14162295D01*
X13157201Y-14237295D01*
X13232201Y-14312295D01*
D11*
X1135777Y-16206484D02*
X1135777Y-16006484D01*
X1135777Y-16006484D02*
X1183396Y-16006484D01*
X1183396Y-16006484D02*
X1211967Y-16016008D01*
X1211967Y-16016008D02*
X1231015Y-16035055D01*
X1231015Y-16035055D02*
X1240539Y-16054103D01*
X1240539Y-16054103D02*
X1250063Y-16092198D01*
X1250063Y-16092198D02*
X1250063Y-16120769D01*
X1250063Y-16120769D02*
X1240539Y-16158865D01*
X1240539Y-16158865D02*
X1231015Y-16177912D01*
X1231015Y-16177912D02*
X1211967Y-16196960D01*
X1211967Y-16196960D02*
X1183396Y-16206484D01*
X1183396Y-16206484D02*
X1135777Y-16206484D01*
X1335777Y-16206484D02*
X1335777Y-16073150D01*
X1335777Y-16111246D02*
X1345301Y-16092198D01*
X1345301Y-16092198D02*
X1354824Y-16082674D01*
X1354824Y-16082674D02*
X1373872Y-16073150D01*
X1373872Y-16073150D02*
X1392920Y-16073150D01*
X1459586Y-16206484D02*
X1459586Y-16073150D01*
X1459586Y-16006484D02*
X1450062Y-16016008D01*
X1450062Y-16016008D02*
X1459586Y-16025531D01*
X1459586Y-16025531D02*
X1469110Y-16016008D01*
X1469110Y-16016008D02*
X1459586Y-16006484D01*
X1459586Y-16006484D02*
X1459586Y-16025531D01*
X1583396Y-16206484D02*
X1564348Y-16196960D01*
X1564348Y-16196960D02*
X1554824Y-16177912D01*
X1554824Y-16177912D02*
X1554824Y-16006484D01*
X1688158Y-16206484D02*
X1669110Y-16196960D01*
X1669110Y-16196960D02*
X1659586Y-16177912D01*
X1659586Y-16177912D02*
X1659586Y-16006484D01*
X1916729Y-16206484D02*
X1916729Y-16006484D01*
X1916729Y-16006484D02*
X1983396Y-16149341D01*
X1983396Y-16149341D02*
X2050062Y-16006484D01*
X2050062Y-16006484D02*
X2050062Y-16206484D01*
X2231015Y-16206484D02*
X2231015Y-16101722D01*
X2231015Y-16101722D02*
X2221491Y-16082674D01*
X2221491Y-16082674D02*
X2202444Y-16073150D01*
X2202444Y-16073150D02*
X2164348Y-16073150D01*
X2164348Y-16073150D02*
X2145301Y-16082674D01*
X2231015Y-16196960D02*
X2211967Y-16206484D01*
X2211967Y-16206484D02*
X2164348Y-16206484D01*
X2164348Y-16206484D02*
X2145301Y-16196960D01*
X2145301Y-16196960D02*
X2135777Y-16177912D01*
X2135777Y-16177912D02*
X2135777Y-16158865D01*
X2135777Y-16158865D02*
X2145301Y-16139817D01*
X2145301Y-16139817D02*
X2164348Y-16130293D01*
X2164348Y-16130293D02*
X2211967Y-16130293D01*
X2211967Y-16130293D02*
X2231015Y-16120769D01*
X2326253Y-16073150D02*
X2326253Y-16273150D01*
X2326253Y-16082674D02*
X2345301Y-16073150D01*
X2345301Y-16073150D02*
X2383396Y-16073150D01*
X2383396Y-16073150D02*
X2402444Y-16082674D01*
X2402444Y-16082674D02*
X2411967Y-16092198D01*
X2411967Y-16092198D02*
X2421491Y-16111246D01*
X2421491Y-16111246D02*
X2421491Y-16168388D01*
X2421491Y-16168388D02*
X2411967Y-16187436D01*
X2411967Y-16187436D02*
X2402444Y-16196960D01*
X2402444Y-16196960D02*
X2383396Y-16206484D01*
X2383396Y-16206484D02*
X2345301Y-16206484D01*
X2345301Y-16206484D02*
X2326253Y-16196960D01*
X2507205Y-16187436D02*
X2516729Y-16196960D01*
X2516729Y-16196960D02*
X2507205Y-16206484D01*
X2507205Y-16206484D02*
X2497682Y-16196960D01*
X2497682Y-16196960D02*
X2507205Y-16187436D01*
X2507205Y-16187436D02*
X2507205Y-16206484D01*
X2507205Y-16082674D02*
X2516729Y-16092198D01*
X2516729Y-16092198D02*
X2507205Y-16101722D01*
X2507205Y-16101722D02*
X2497682Y-16092198D01*
X2497682Y-16092198D02*
X2507205Y-16082674D01*
X2507205Y-16082674D02*
X2507205Y-16101722D01*
D12*
X835000Y-16515000D02*
X875000Y-16555000D01*
X875000Y-16515000D02*
X835000Y-16555000D01*
D11*
X1173872Y-16426484D02*
X1192920Y-16426484D01*
X1192920Y-16426484D02*
X1211967Y-16436008D01*
X1211967Y-16436008D02*
X1221491Y-16445531D01*
X1221491Y-16445531D02*
X1231015Y-16464579D01*
X1231015Y-16464579D02*
X1240539Y-16502674D01*
X1240539Y-16502674D02*
X1240539Y-16550293D01*
X1240539Y-16550293D02*
X1231015Y-16588388D01*
X1231015Y-16588388D02*
X1221491Y-16607436D01*
X1221491Y-16607436D02*
X1211967Y-16616960D01*
X1211967Y-16616960D02*
X1192920Y-16626484D01*
X1192920Y-16626484D02*
X1173872Y-16626484D01*
X1173872Y-16626484D02*
X1154824Y-16616960D01*
X1154824Y-16616960D02*
X1145301Y-16607436D01*
X1145301Y-16607436D02*
X1135777Y-16588388D01*
X1135777Y-16588388D02*
X1126253Y-16550293D01*
X1126253Y-16550293D02*
X1126253Y-16502674D01*
X1126253Y-16502674D02*
X1135777Y-16464579D01*
X1135777Y-16464579D02*
X1145301Y-16445531D01*
X1145301Y-16445531D02*
X1154824Y-16436008D01*
X1154824Y-16436008D02*
X1173872Y-16426484D01*
X1326253Y-16607436D02*
X1335777Y-16616960D01*
X1335777Y-16616960D02*
X1326253Y-16626484D01*
X1326253Y-16626484D02*
X1316729Y-16616960D01*
X1316729Y-16616960D02*
X1326253Y-16607436D01*
X1326253Y-16607436D02*
X1326253Y-16626484D01*
X1507205Y-16493150D02*
X1507205Y-16626484D01*
X1459586Y-16416960D02*
X1411967Y-16559817D01*
X1411967Y-16559817D02*
X1535777Y-16559817D01*
X1650062Y-16426484D02*
X1669110Y-16426484D01*
X1669110Y-16426484D02*
X1688158Y-16436008D01*
X1688158Y-16436008D02*
X1697682Y-16445531D01*
X1697682Y-16445531D02*
X1707205Y-16464579D01*
X1707205Y-16464579D02*
X1716729Y-16502674D01*
X1716729Y-16502674D02*
X1716729Y-16550293D01*
X1716729Y-16550293D02*
X1707205Y-16588388D01*
X1707205Y-16588388D02*
X1697682Y-16607436D01*
X1697682Y-16607436D02*
X1688158Y-16616960D01*
X1688158Y-16616960D02*
X1669110Y-16626484D01*
X1669110Y-16626484D02*
X1650062Y-16626484D01*
X1650062Y-16626484D02*
X1631015Y-16616960D01*
X1631015Y-16616960D02*
X1621491Y-16607436D01*
X1621491Y-16607436D02*
X1611967Y-16588388D01*
X1611967Y-16588388D02*
X1602443Y-16550293D01*
X1602443Y-16550293D02*
X1602443Y-16502674D01*
X1602443Y-16502674D02*
X1611967Y-16464579D01*
X1611967Y-16464579D02*
X1621491Y-16445531D01*
X1621491Y-16445531D02*
X1631015Y-16436008D01*
X1631015Y-16436008D02*
X1650062Y-16426484D01*
X1840539Y-16426484D02*
X1859586Y-16426484D01*
X1859586Y-16426484D02*
X1878634Y-16436008D01*
X1878634Y-16436008D02*
X1888158Y-16445531D01*
X1888158Y-16445531D02*
X1897682Y-16464579D01*
X1897682Y-16464579D02*
X1907205Y-16502674D01*
X1907205Y-16502674D02*
X1907205Y-16550293D01*
X1907205Y-16550293D02*
X1897682Y-16588388D01*
X1897682Y-16588388D02*
X1888158Y-16607436D01*
X1888158Y-16607436D02*
X1878634Y-16616960D01*
X1878634Y-16616960D02*
X1859586Y-16626484D01*
X1859586Y-16626484D02*
X1840539Y-16626484D01*
X1840539Y-16626484D02*
X1821491Y-16616960D01*
X1821491Y-16616960D02*
X1811967Y-16607436D01*
X1811967Y-16607436D02*
X1802443Y-16588388D01*
X1802443Y-16588388D02*
X1792920Y-16550293D01*
X1792920Y-16550293D02*
X1792920Y-16502674D01*
X1792920Y-16502674D02*
X1802443Y-16464579D01*
X1802443Y-16464579D02*
X1811967Y-16445531D01*
X1811967Y-16445531D02*
X1821491Y-16436008D01*
X1821491Y-16436008D02*
X1840539Y-16426484D01*
X1992920Y-16626484D02*
X1992920Y-16493150D01*
X1992920Y-16512198D02*
X2002443Y-16502674D01*
X2002443Y-16502674D02*
X2021491Y-16493150D01*
X2021491Y-16493150D02*
X2050063Y-16493150D01*
X2050063Y-16493150D02*
X2069110Y-16502674D01*
X2069110Y-16502674D02*
X2078634Y-16521722D01*
X2078634Y-16521722D02*
X2078634Y-16626484D01*
X2078634Y-16521722D02*
X2088158Y-16502674D01*
X2088158Y-16502674D02*
X2107205Y-16493150D01*
X2107205Y-16493150D02*
X2135777Y-16493150D01*
X2135777Y-16493150D02*
X2154825Y-16502674D01*
X2154825Y-16502674D02*
X2164348Y-16521722D01*
X2164348Y-16521722D02*
X2164348Y-16626484D01*
X2259586Y-16626484D02*
X2259586Y-16493150D01*
X2259586Y-16512198D02*
X2269110Y-16502674D01*
X2269110Y-16502674D02*
X2288158Y-16493150D01*
X2288158Y-16493150D02*
X2316729Y-16493150D01*
X2316729Y-16493150D02*
X2335777Y-16502674D01*
X2335777Y-16502674D02*
X2345301Y-16521722D01*
X2345301Y-16521722D02*
X2345301Y-16626484D01*
X2345301Y-16521722D02*
X2354825Y-16502674D01*
X2354825Y-16502674D02*
X2373872Y-16493150D01*
X2373872Y-16493150D02*
X2402444Y-16493150D01*
X2402444Y-16493150D02*
X2421491Y-16502674D01*
X2421491Y-16502674D02*
X2431015Y-16521722D01*
X2431015Y-16521722D02*
X2431015Y-16626484D01*
X2821491Y-16416960D02*
X2650063Y-16674103D01*
X3078634Y-16426484D02*
X3097682Y-16426484D01*
X3097682Y-16426484D02*
X3116729Y-16436008D01*
X3116729Y-16436008D02*
X3126253Y-16445531D01*
X3126253Y-16445531D02*
X3135777Y-16464579D01*
X3135777Y-16464579D02*
X3145301Y-16502674D01*
X3145301Y-16502674D02*
X3145301Y-16550293D01*
X3145301Y-16550293D02*
X3135777Y-16588388D01*
X3135777Y-16588388D02*
X3126253Y-16607436D01*
X3126253Y-16607436D02*
X3116729Y-16616960D01*
X3116729Y-16616960D02*
X3097682Y-16626484D01*
X3097682Y-16626484D02*
X3078634Y-16626484D01*
X3078634Y-16626484D02*
X3059586Y-16616960D01*
X3059586Y-16616960D02*
X3050063Y-16607436D01*
X3050063Y-16607436D02*
X3040539Y-16588388D01*
X3040539Y-16588388D02*
X3031015Y-16550293D01*
X3031015Y-16550293D02*
X3031015Y-16502674D01*
X3031015Y-16502674D02*
X3040539Y-16464579D01*
X3040539Y-16464579D02*
X3050063Y-16445531D01*
X3050063Y-16445531D02*
X3059586Y-16436008D01*
X3059586Y-16436008D02*
X3078634Y-16426484D01*
X3231015Y-16607436D02*
X3240539Y-16616960D01*
X3240539Y-16616960D02*
X3231015Y-16626484D01*
X3231015Y-16626484D02*
X3221491Y-16616960D01*
X3221491Y-16616960D02*
X3231015Y-16607436D01*
X3231015Y-16607436D02*
X3231015Y-16626484D01*
X3364348Y-16426484D02*
X3383396Y-16426484D01*
X3383396Y-16426484D02*
X3402444Y-16436008D01*
X3402444Y-16436008D02*
X3411967Y-16445531D01*
X3411967Y-16445531D02*
X3421491Y-16464579D01*
X3421491Y-16464579D02*
X3431015Y-16502674D01*
X3431015Y-16502674D02*
X3431015Y-16550293D01*
X3431015Y-16550293D02*
X3421491Y-16588388D01*
X3421491Y-16588388D02*
X3411967Y-16607436D01*
X3411967Y-16607436D02*
X3402444Y-16616960D01*
X3402444Y-16616960D02*
X3383396Y-16626484D01*
X3383396Y-16626484D02*
X3364348Y-16626484D01*
X3364348Y-16626484D02*
X3345301Y-16616960D01*
X3345301Y-16616960D02*
X3335777Y-16607436D01*
X3335777Y-16607436D02*
X3326253Y-16588388D01*
X3326253Y-16588388D02*
X3316729Y-16550293D01*
X3316729Y-16550293D02*
X3316729Y-16502674D01*
X3316729Y-16502674D02*
X3326253Y-16464579D01*
X3326253Y-16464579D02*
X3335777Y-16445531D01*
X3335777Y-16445531D02*
X3345301Y-16436008D01*
X3345301Y-16436008D02*
X3364348Y-16426484D01*
X3621491Y-16626484D02*
X3507206Y-16626484D01*
X3564348Y-16626484D02*
X3564348Y-16426484D01*
X3564348Y-16426484D02*
X3545301Y-16455055D01*
X3545301Y-16455055D02*
X3526253Y-16474103D01*
X3526253Y-16474103D02*
X3507206Y-16483627D01*
X3802444Y-16426484D02*
X3707206Y-16426484D01*
X3707206Y-16426484D02*
X3697682Y-16521722D01*
X3697682Y-16521722D02*
X3707206Y-16512198D01*
X3707206Y-16512198D02*
X3726253Y-16502674D01*
X3726253Y-16502674D02*
X3773872Y-16502674D01*
X3773872Y-16502674D02*
X3792920Y-16512198D01*
X3792920Y-16512198D02*
X3802444Y-16521722D01*
X3802444Y-16521722D02*
X3811967Y-16540769D01*
X3811967Y-16540769D02*
X3811967Y-16588388D01*
X3811967Y-16588388D02*
X3802444Y-16607436D01*
X3802444Y-16607436D02*
X3792920Y-16616960D01*
X3792920Y-16616960D02*
X3773872Y-16626484D01*
X3773872Y-16626484D02*
X3726253Y-16626484D01*
X3726253Y-16626484D02*
X3707206Y-16616960D01*
X3707206Y-16616960D02*
X3697682Y-16607436D01*
X3878634Y-16426484D02*
X4011967Y-16426484D01*
X4011967Y-16426484D02*
X3926253Y-16626484D01*
X4078634Y-16426484D02*
X4078634Y-16464579D01*
X4154825Y-16426484D02*
X4154825Y-16464579D01*
X4450063Y-16702674D02*
X4440539Y-16693150D01*
X4440539Y-16693150D02*
X4421491Y-16664579D01*
X4421491Y-16664579D02*
X4411968Y-16645531D01*
X4411968Y-16645531D02*
X4402444Y-16616960D01*
X4402444Y-16616960D02*
X4392920Y-16569341D01*
X4392920Y-16569341D02*
X4392920Y-16531246D01*
X4392920Y-16531246D02*
X4402444Y-16483627D01*
X4402444Y-16483627D02*
X4411968Y-16455055D01*
X4411968Y-16455055D02*
X4421491Y-16436008D01*
X4421491Y-16436008D02*
X4440539Y-16407436D01*
X4440539Y-16407436D02*
X4450063Y-16397912D01*
X4516730Y-16445531D02*
X4526253Y-16436008D01*
X4526253Y-16436008D02*
X4545301Y-16426484D01*
X4545301Y-16426484D02*
X4592920Y-16426484D01*
X4592920Y-16426484D02*
X4611968Y-16436008D01*
X4611968Y-16436008D02*
X4621491Y-16445531D01*
X4621491Y-16445531D02*
X4631015Y-16464579D01*
X4631015Y-16464579D02*
X4631015Y-16483627D01*
X4631015Y-16483627D02*
X4621491Y-16512198D01*
X4621491Y-16512198D02*
X4507206Y-16626484D01*
X4507206Y-16626484D02*
X4631015Y-16626484D01*
X4697682Y-16426484D02*
X4821491Y-16426484D01*
X4821491Y-16426484D02*
X4754825Y-16502674D01*
X4754825Y-16502674D02*
X4783396Y-16502674D01*
X4783396Y-16502674D02*
X4802444Y-16512198D01*
X4802444Y-16512198D02*
X4811968Y-16521722D01*
X4811968Y-16521722D02*
X4821491Y-16540769D01*
X4821491Y-16540769D02*
X4821491Y-16588388D01*
X4821491Y-16588388D02*
X4811968Y-16607436D01*
X4811968Y-16607436D02*
X4802444Y-16616960D01*
X4802444Y-16616960D02*
X4783396Y-16626484D01*
X4783396Y-16626484D02*
X4726253Y-16626484D01*
X4726253Y-16626484D02*
X4707206Y-16616960D01*
X4707206Y-16616960D02*
X4697682Y-16607436D01*
X5059587Y-16626484D02*
X5059587Y-16426484D01*
X5145301Y-16626484D02*
X5145301Y-16521722D01*
X5145301Y-16521722D02*
X5135777Y-16502674D01*
X5135777Y-16502674D02*
X5116730Y-16493150D01*
X5116730Y-16493150D02*
X5088158Y-16493150D01*
X5088158Y-16493150D02*
X5069111Y-16502674D01*
X5069111Y-16502674D02*
X5059587Y-16512198D01*
X5269111Y-16626484D02*
X5250063Y-16616960D01*
X5250063Y-16616960D02*
X5240539Y-16607436D01*
X5240539Y-16607436D02*
X5231015Y-16588388D01*
X5231015Y-16588388D02*
X5231015Y-16531246D01*
X5231015Y-16531246D02*
X5240539Y-16512198D01*
X5240539Y-16512198D02*
X5250063Y-16502674D01*
X5250063Y-16502674D02*
X5269111Y-16493150D01*
X5269111Y-16493150D02*
X5297682Y-16493150D01*
X5297682Y-16493150D02*
X5316730Y-16502674D01*
X5316730Y-16502674D02*
X5326253Y-16512198D01*
X5326253Y-16512198D02*
X5335777Y-16531246D01*
X5335777Y-16531246D02*
X5335777Y-16588388D01*
X5335777Y-16588388D02*
X5326253Y-16607436D01*
X5326253Y-16607436D02*
X5316730Y-16616960D01*
X5316730Y-16616960D02*
X5297682Y-16626484D01*
X5297682Y-16626484D02*
X5269111Y-16626484D01*
X5450063Y-16626484D02*
X5431015Y-16616960D01*
X5431015Y-16616960D02*
X5421492Y-16597912D01*
X5421492Y-16597912D02*
X5421492Y-16426484D01*
X5602444Y-16616960D02*
X5583396Y-16626484D01*
X5583396Y-16626484D02*
X5545301Y-16626484D01*
X5545301Y-16626484D02*
X5526253Y-16616960D01*
X5526253Y-16616960D02*
X5516730Y-16597912D01*
X5516730Y-16597912D02*
X5516730Y-16521722D01*
X5516730Y-16521722D02*
X5526253Y-16502674D01*
X5526253Y-16502674D02*
X5545301Y-16493150D01*
X5545301Y-16493150D02*
X5583396Y-16493150D01*
X5583396Y-16493150D02*
X5602444Y-16502674D01*
X5602444Y-16502674D02*
X5611968Y-16521722D01*
X5611968Y-16521722D02*
X5611968Y-16540769D01*
X5611968Y-16540769D02*
X5516730Y-16559817D01*
X5688158Y-16616960D02*
X5707206Y-16626484D01*
X5707206Y-16626484D02*
X5745301Y-16626484D01*
X5745301Y-16626484D02*
X5764349Y-16616960D01*
X5764349Y-16616960D02*
X5773872Y-16597912D01*
X5773872Y-16597912D02*
X5773872Y-16588388D01*
X5773872Y-16588388D02*
X5764349Y-16569341D01*
X5764349Y-16569341D02*
X5745301Y-16559817D01*
X5745301Y-16559817D02*
X5716730Y-16559817D01*
X5716730Y-16559817D02*
X5697682Y-16550293D01*
X5697682Y-16550293D02*
X5688158Y-16531246D01*
X5688158Y-16531246D02*
X5688158Y-16521722D01*
X5688158Y-16521722D02*
X5697682Y-16502674D01*
X5697682Y-16502674D02*
X5716730Y-16493150D01*
X5716730Y-16493150D02*
X5745301Y-16493150D01*
X5745301Y-16493150D02*
X5764349Y-16502674D01*
X5840539Y-16702674D02*
X5850063Y-16693150D01*
X5850063Y-16693150D02*
X5869111Y-16664579D01*
X5869111Y-16664579D02*
X5878634Y-16645531D01*
X5878634Y-16645531D02*
X5888158Y-16616960D01*
X5888158Y-16616960D02*
X5897682Y-16569341D01*
X5897682Y-16569341D02*
X5897682Y-16531246D01*
X5897682Y-16531246D02*
X5888158Y-16483627D01*
X5888158Y-16483627D02*
X5878634Y-16455055D01*
X5878634Y-16455055D02*
X5869111Y-16436008D01*
X5869111Y-16436008D02*
X5850063Y-16407436D01*
X5850063Y-16407436D02*
X5840539Y-16397912D01*
D13*
X875000Y-16799000D02*
G75*
G03*
X875000Y-16799000I-40640J0D01*
G01*
D11*
X1173872Y-16690484D02*
X1192920Y-16690484D01*
X1192920Y-16690484D02*
X1211967Y-16700008D01*
X1211967Y-16700008D02*
X1221491Y-16709531D01*
X1221491Y-16709531D02*
X1231015Y-16728579D01*
X1231015Y-16728579D02*
X1240539Y-16766674D01*
X1240539Y-16766674D02*
X1240539Y-16814293D01*
X1240539Y-16814293D02*
X1231015Y-16852389D01*
X1231015Y-16852389D02*
X1221491Y-16871436D01*
X1221491Y-16871436D02*
X1211967Y-16880960D01*
X1211967Y-16880960D02*
X1192920Y-16890484D01*
X1192920Y-16890484D02*
X1173872Y-16890484D01*
X1173872Y-16890484D02*
X1154824Y-16880960D01*
X1154824Y-16880960D02*
X1145301Y-16871436D01*
X1145301Y-16871436D02*
X1135777Y-16852389D01*
X1135777Y-16852389D02*
X1126253Y-16814293D01*
X1126253Y-16814293D02*
X1126253Y-16766674D01*
X1126253Y-16766674D02*
X1135777Y-16728579D01*
X1135777Y-16728579D02*
X1145301Y-16709531D01*
X1145301Y-16709531D02*
X1154824Y-16700008D01*
X1154824Y-16700008D02*
X1173872Y-16690484D01*
X1326253Y-16871436D02*
X1335777Y-16880960D01*
X1335777Y-16880960D02*
X1326253Y-16890484D01*
X1326253Y-16890484D02*
X1316729Y-16880960D01*
X1316729Y-16880960D02*
X1326253Y-16871436D01*
X1326253Y-16871436D02*
X1326253Y-16890484D01*
X1450062Y-16776198D02*
X1431015Y-16766674D01*
X1431015Y-16766674D02*
X1421491Y-16757150D01*
X1421491Y-16757150D02*
X1411967Y-16738103D01*
X1411967Y-16738103D02*
X1411967Y-16728579D01*
X1411967Y-16728579D02*
X1421491Y-16709531D01*
X1421491Y-16709531D02*
X1431015Y-16700008D01*
X1431015Y-16700008D02*
X1450062Y-16690484D01*
X1450062Y-16690484D02*
X1488158Y-16690484D01*
X1488158Y-16690484D02*
X1507205Y-16700008D01*
X1507205Y-16700008D02*
X1516729Y-16709531D01*
X1516729Y-16709531D02*
X1526253Y-16728579D01*
X1526253Y-16728579D02*
X1526253Y-16738103D01*
X1526253Y-16738103D02*
X1516729Y-16757150D01*
X1516729Y-16757150D02*
X1507205Y-16766674D01*
X1507205Y-16766674D02*
X1488158Y-16776198D01*
X1488158Y-16776198D02*
X1450062Y-16776198D01*
X1450062Y-16776198D02*
X1431015Y-16785722D01*
X1431015Y-16785722D02*
X1421491Y-16795246D01*
X1421491Y-16795246D02*
X1411967Y-16814293D01*
X1411967Y-16814293D02*
X1411967Y-16852389D01*
X1411967Y-16852389D02*
X1421491Y-16871436D01*
X1421491Y-16871436D02*
X1431015Y-16880960D01*
X1431015Y-16880960D02*
X1450062Y-16890484D01*
X1450062Y-16890484D02*
X1488158Y-16890484D01*
X1488158Y-16890484D02*
X1507205Y-16880960D01*
X1507205Y-16880960D02*
X1516729Y-16871436D01*
X1516729Y-16871436D02*
X1526253Y-16852389D01*
X1526253Y-16852389D02*
X1526253Y-16814293D01*
X1526253Y-16814293D02*
X1516729Y-16795246D01*
X1516729Y-16795246D02*
X1507205Y-16785722D01*
X1507205Y-16785722D02*
X1488158Y-16776198D01*
X1716729Y-16890484D02*
X1602443Y-16890484D01*
X1659586Y-16890484D02*
X1659586Y-16690484D01*
X1659586Y-16690484D02*
X1640539Y-16719055D01*
X1640539Y-16719055D02*
X1621491Y-16738103D01*
X1621491Y-16738103D02*
X1602443Y-16747627D01*
X1783396Y-16690484D02*
X1907205Y-16690484D01*
X1907205Y-16690484D02*
X1840539Y-16766674D01*
X1840539Y-16766674D02*
X1869110Y-16766674D01*
X1869110Y-16766674D02*
X1888158Y-16776198D01*
X1888158Y-16776198D02*
X1897682Y-16785722D01*
X1897682Y-16785722D02*
X1907205Y-16804770D01*
X1907205Y-16804770D02*
X1907205Y-16852389D01*
X1907205Y-16852389D02*
X1897682Y-16871436D01*
X1897682Y-16871436D02*
X1888158Y-16880960D01*
X1888158Y-16880960D02*
X1869110Y-16890484D01*
X1869110Y-16890484D02*
X1811967Y-16890484D01*
X1811967Y-16890484D02*
X1792920Y-16880960D01*
X1792920Y-16880960D02*
X1783396Y-16871436D01*
X1992920Y-16890484D02*
X1992920Y-16757150D01*
X1992920Y-16776198D02*
X2002443Y-16766674D01*
X2002443Y-16766674D02*
X2021491Y-16757150D01*
X2021491Y-16757150D02*
X2050063Y-16757150D01*
X2050063Y-16757150D02*
X2069110Y-16766674D01*
X2069110Y-16766674D02*
X2078634Y-16785722D01*
X2078634Y-16785722D02*
X2078634Y-16890484D01*
X2078634Y-16785722D02*
X2088158Y-16766674D01*
X2088158Y-16766674D02*
X2107205Y-16757150D01*
X2107205Y-16757150D02*
X2135777Y-16757150D01*
X2135777Y-16757150D02*
X2154825Y-16766674D01*
X2154825Y-16766674D02*
X2164348Y-16785722D01*
X2164348Y-16785722D02*
X2164348Y-16890484D01*
X2259586Y-16890484D02*
X2259586Y-16757150D01*
X2259586Y-16776198D02*
X2269110Y-16766674D01*
X2269110Y-16766674D02*
X2288158Y-16757150D01*
X2288158Y-16757150D02*
X2316729Y-16757150D01*
X2316729Y-16757150D02*
X2335777Y-16766674D01*
X2335777Y-16766674D02*
X2345301Y-16785722D01*
X2345301Y-16785722D02*
X2345301Y-16890484D01*
X2345301Y-16785722D02*
X2354825Y-16766674D01*
X2354825Y-16766674D02*
X2373872Y-16757150D01*
X2373872Y-16757150D02*
X2402444Y-16757150D01*
X2402444Y-16757150D02*
X2421491Y-16766674D01*
X2421491Y-16766674D02*
X2431015Y-16785722D01*
X2431015Y-16785722D02*
X2431015Y-16890484D01*
X2821491Y-16680960D02*
X2650063Y-16938103D01*
X3078634Y-16690484D02*
X3097682Y-16690484D01*
X3097682Y-16690484D02*
X3116729Y-16700008D01*
X3116729Y-16700008D02*
X3126253Y-16709531D01*
X3126253Y-16709531D02*
X3135777Y-16728579D01*
X3135777Y-16728579D02*
X3145301Y-16766674D01*
X3145301Y-16766674D02*
X3145301Y-16814293D01*
X3145301Y-16814293D02*
X3135777Y-16852389D01*
X3135777Y-16852389D02*
X3126253Y-16871436D01*
X3126253Y-16871436D02*
X3116729Y-16880960D01*
X3116729Y-16880960D02*
X3097682Y-16890484D01*
X3097682Y-16890484D02*
X3078634Y-16890484D01*
X3078634Y-16890484D02*
X3059586Y-16880960D01*
X3059586Y-16880960D02*
X3050063Y-16871436D01*
X3050063Y-16871436D02*
X3040539Y-16852389D01*
X3040539Y-16852389D02*
X3031015Y-16814293D01*
X3031015Y-16814293D02*
X3031015Y-16766674D01*
X3031015Y-16766674D02*
X3040539Y-16728579D01*
X3040539Y-16728579D02*
X3050063Y-16709531D01*
X3050063Y-16709531D02*
X3059586Y-16700008D01*
X3059586Y-16700008D02*
X3078634Y-16690484D01*
X3231015Y-16871436D02*
X3240539Y-16880960D01*
X3240539Y-16880960D02*
X3231015Y-16890484D01*
X3231015Y-16890484D02*
X3221491Y-16880960D01*
X3221491Y-16880960D02*
X3231015Y-16871436D01*
X3231015Y-16871436D02*
X3231015Y-16890484D01*
X3364348Y-16690484D02*
X3383396Y-16690484D01*
X3383396Y-16690484D02*
X3402444Y-16700008D01*
X3402444Y-16700008D02*
X3411967Y-16709531D01*
X3411967Y-16709531D02*
X3421491Y-16728579D01*
X3421491Y-16728579D02*
X3431015Y-16766674D01*
X3431015Y-16766674D02*
X3431015Y-16814293D01*
X3431015Y-16814293D02*
X3421491Y-16852389D01*
X3421491Y-16852389D02*
X3411967Y-16871436D01*
X3411967Y-16871436D02*
X3402444Y-16880960D01*
X3402444Y-16880960D02*
X3383396Y-16890484D01*
X3383396Y-16890484D02*
X3364348Y-16890484D01*
X3364348Y-16890484D02*
X3345301Y-16880960D01*
X3345301Y-16880960D02*
X3335777Y-16871436D01*
X3335777Y-16871436D02*
X3326253Y-16852389D01*
X3326253Y-16852389D02*
X3316729Y-16814293D01*
X3316729Y-16814293D02*
X3316729Y-16766674D01*
X3316729Y-16766674D02*
X3326253Y-16728579D01*
X3326253Y-16728579D02*
X3335777Y-16709531D01*
X3335777Y-16709531D02*
X3345301Y-16700008D01*
X3345301Y-16700008D02*
X3364348Y-16690484D01*
X3497682Y-16690484D02*
X3621491Y-16690484D01*
X3621491Y-16690484D02*
X3554825Y-16766674D01*
X3554825Y-16766674D02*
X3583396Y-16766674D01*
X3583396Y-16766674D02*
X3602444Y-16776198D01*
X3602444Y-16776198D02*
X3611967Y-16785722D01*
X3611967Y-16785722D02*
X3621491Y-16804770D01*
X3621491Y-16804770D02*
X3621491Y-16852389D01*
X3621491Y-16852389D02*
X3611967Y-16871436D01*
X3611967Y-16871436D02*
X3602444Y-16880960D01*
X3602444Y-16880960D02*
X3583396Y-16890484D01*
X3583396Y-16890484D02*
X3526253Y-16890484D01*
X3526253Y-16890484D02*
X3507206Y-16880960D01*
X3507206Y-16880960D02*
X3497682Y-16871436D01*
X3697682Y-16709531D02*
X3707206Y-16700008D01*
X3707206Y-16700008D02*
X3726253Y-16690484D01*
X3726253Y-16690484D02*
X3773872Y-16690484D01*
X3773872Y-16690484D02*
X3792920Y-16700008D01*
X3792920Y-16700008D02*
X3802444Y-16709531D01*
X3802444Y-16709531D02*
X3811967Y-16728579D01*
X3811967Y-16728579D02*
X3811967Y-16747627D01*
X3811967Y-16747627D02*
X3802444Y-16776198D01*
X3802444Y-16776198D02*
X3688158Y-16890484D01*
X3688158Y-16890484D02*
X3811967Y-16890484D01*
X3935777Y-16690484D02*
X3954825Y-16690484D01*
X3954825Y-16690484D02*
X3973872Y-16700008D01*
X3973872Y-16700008D02*
X3983396Y-16709531D01*
X3983396Y-16709531D02*
X3992920Y-16728579D01*
X3992920Y-16728579D02*
X4002444Y-16766674D01*
X4002444Y-16766674D02*
X4002444Y-16814293D01*
X4002444Y-16814293D02*
X3992920Y-16852389D01*
X3992920Y-16852389D02*
X3983396Y-16871436D01*
X3983396Y-16871436D02*
X3973872Y-16880960D01*
X3973872Y-16880960D02*
X3954825Y-16890484D01*
X3954825Y-16890484D02*
X3935777Y-16890484D01*
X3935777Y-16890484D02*
X3916729Y-16880960D01*
X3916729Y-16880960D02*
X3907206Y-16871436D01*
X3907206Y-16871436D02*
X3897682Y-16852389D01*
X3897682Y-16852389D02*
X3888158Y-16814293D01*
X3888158Y-16814293D02*
X3888158Y-16766674D01*
X3888158Y-16766674D02*
X3897682Y-16728579D01*
X3897682Y-16728579D02*
X3907206Y-16709531D01*
X3907206Y-16709531D02*
X3916729Y-16700008D01*
X3916729Y-16700008D02*
X3935777Y-16690484D01*
X4078634Y-16690484D02*
X4078634Y-16728579D01*
X4154825Y-16690484D02*
X4154825Y-16728579D01*
X4450063Y-16966674D02*
X4440539Y-16957150D01*
X4440539Y-16957150D02*
X4421491Y-16928579D01*
X4421491Y-16928579D02*
X4411968Y-16909531D01*
X4411968Y-16909531D02*
X4402444Y-16880960D01*
X4402444Y-16880960D02*
X4392920Y-16833341D01*
X4392920Y-16833341D02*
X4392920Y-16795246D01*
X4392920Y-16795246D02*
X4402444Y-16747627D01*
X4402444Y-16747627D02*
X4411968Y-16719055D01*
X4411968Y-16719055D02*
X4421491Y-16700008D01*
X4421491Y-16700008D02*
X4440539Y-16671436D01*
X4440539Y-16671436D02*
X4450063Y-16661912D01*
X4507206Y-16690484D02*
X4631015Y-16690484D01*
X4631015Y-16690484D02*
X4564349Y-16766674D01*
X4564349Y-16766674D02*
X4592920Y-16766674D01*
X4592920Y-16766674D02*
X4611968Y-16776198D01*
X4611968Y-16776198D02*
X4621491Y-16785722D01*
X4621491Y-16785722D02*
X4631015Y-16804770D01*
X4631015Y-16804770D02*
X4631015Y-16852389D01*
X4631015Y-16852389D02*
X4621491Y-16871436D01*
X4621491Y-16871436D02*
X4611968Y-16880960D01*
X4611968Y-16880960D02*
X4592920Y-16890484D01*
X4592920Y-16890484D02*
X4535777Y-16890484D01*
X4535777Y-16890484D02*
X4516730Y-16880960D01*
X4516730Y-16880960D02*
X4507206Y-16871436D01*
X4802444Y-16690484D02*
X4764349Y-16690484D01*
X4764349Y-16690484D02*
X4745301Y-16700008D01*
X4745301Y-16700008D02*
X4735777Y-16709531D01*
X4735777Y-16709531D02*
X4716730Y-16738103D01*
X4716730Y-16738103D02*
X4707206Y-16776198D01*
X4707206Y-16776198D02*
X4707206Y-16852389D01*
X4707206Y-16852389D02*
X4716730Y-16871436D01*
X4716730Y-16871436D02*
X4726253Y-16880960D01*
X4726253Y-16880960D02*
X4745301Y-16890484D01*
X4745301Y-16890484D02*
X4783396Y-16890484D01*
X4783396Y-16890484D02*
X4802444Y-16880960D01*
X4802444Y-16880960D02*
X4811968Y-16871436D01*
X4811968Y-16871436D02*
X4821491Y-16852389D01*
X4821491Y-16852389D02*
X4821491Y-16804770D01*
X4821491Y-16804770D02*
X4811968Y-16785722D01*
X4811968Y-16785722D02*
X4802444Y-16776198D01*
X4802444Y-16776198D02*
X4783396Y-16766674D01*
X4783396Y-16766674D02*
X4745301Y-16766674D01*
X4745301Y-16766674D02*
X4726253Y-16776198D01*
X4726253Y-16776198D02*
X4716730Y-16785722D01*
X4716730Y-16785722D02*
X4707206Y-16804770D01*
X5059587Y-16890484D02*
X5059587Y-16690484D01*
X5145301Y-16890484D02*
X5145301Y-16785722D01*
X5145301Y-16785722D02*
X5135777Y-16766674D01*
X5135777Y-16766674D02*
X5116730Y-16757150D01*
X5116730Y-16757150D02*
X5088158Y-16757150D01*
X5088158Y-16757150D02*
X5069111Y-16766674D01*
X5069111Y-16766674D02*
X5059587Y-16776198D01*
X5269111Y-16890484D02*
X5250063Y-16880960D01*
X5250063Y-16880960D02*
X5240539Y-16871436D01*
X5240539Y-16871436D02*
X5231015Y-16852389D01*
X5231015Y-16852389D02*
X5231015Y-16795246D01*
X5231015Y-16795246D02*
X5240539Y-16776198D01*
X5240539Y-16776198D02*
X5250063Y-16766674D01*
X5250063Y-16766674D02*
X5269111Y-16757150D01*
X5269111Y-16757150D02*
X5297682Y-16757150D01*
X5297682Y-16757150D02*
X5316730Y-16766674D01*
X5316730Y-16766674D02*
X5326253Y-16776198D01*
X5326253Y-16776198D02*
X5335777Y-16795246D01*
X5335777Y-16795246D02*
X5335777Y-16852389D01*
X5335777Y-16852389D02*
X5326253Y-16871436D01*
X5326253Y-16871436D02*
X5316730Y-16880960D01*
X5316730Y-16880960D02*
X5297682Y-16890484D01*
X5297682Y-16890484D02*
X5269111Y-16890484D01*
X5450063Y-16890484D02*
X5431015Y-16880960D01*
X5431015Y-16880960D02*
X5421492Y-16861912D01*
X5421492Y-16861912D02*
X5421492Y-16690484D01*
X5602444Y-16880960D02*
X5583396Y-16890484D01*
X5583396Y-16890484D02*
X5545301Y-16890484D01*
X5545301Y-16890484D02*
X5526253Y-16880960D01*
X5526253Y-16880960D02*
X5516730Y-16861912D01*
X5516730Y-16861912D02*
X5516730Y-16785722D01*
X5516730Y-16785722D02*
X5526253Y-16766674D01*
X5526253Y-16766674D02*
X5545301Y-16757150D01*
X5545301Y-16757150D02*
X5583396Y-16757150D01*
X5583396Y-16757150D02*
X5602444Y-16766674D01*
X5602444Y-16766674D02*
X5611968Y-16785722D01*
X5611968Y-16785722D02*
X5611968Y-16804770D01*
X5611968Y-16804770D02*
X5516730Y-16823817D01*
X5688158Y-16880960D02*
X5707206Y-16890484D01*
X5707206Y-16890484D02*
X5745301Y-16890484D01*
X5745301Y-16890484D02*
X5764349Y-16880960D01*
X5764349Y-16880960D02*
X5773872Y-16861912D01*
X5773872Y-16861912D02*
X5773872Y-16852389D01*
X5773872Y-16852389D02*
X5764349Y-16833341D01*
X5764349Y-16833341D02*
X5745301Y-16823817D01*
X5745301Y-16823817D02*
X5716730Y-16823817D01*
X5716730Y-16823817D02*
X5697682Y-16814293D01*
X5697682Y-16814293D02*
X5688158Y-16795246D01*
X5688158Y-16795246D02*
X5688158Y-16785722D01*
X5688158Y-16785722D02*
X5697682Y-16766674D01*
X5697682Y-16766674D02*
X5716730Y-16757150D01*
X5716730Y-16757150D02*
X5745301Y-16757150D01*
X5745301Y-16757150D02*
X5764349Y-16766674D01*
X5840539Y-16966674D02*
X5850063Y-16957150D01*
X5850063Y-16957150D02*
X5869111Y-16928579D01*
X5869111Y-16928579D02*
X5878634Y-16909531D01*
X5878634Y-16909531D02*
X5888158Y-16880960D01*
X5888158Y-16880960D02*
X5897682Y-16833341D01*
X5897682Y-16833341D02*
X5897682Y-16795246D01*
X5897682Y-16795246D02*
X5888158Y-16747627D01*
X5888158Y-16747627D02*
X5878634Y-16719055D01*
X5878634Y-16719055D02*
X5869111Y-16700008D01*
X5869111Y-16700008D02*
X5850063Y-16671436D01*
X5850063Y-16671436D02*
X5840539Y-16661912D01*
D10*
X825000Y-17013000D02*
X825000Y-17113000D01*
X775000Y-17063000D02*
X875000Y-17063000D01*
D11*
X1240539Y-17154484D02*
X1126253Y-17154484D01*
X1183396Y-17154484D02*
X1183396Y-16954484D01*
X1183396Y-16954484D02*
X1164348Y-16983055D01*
X1164348Y-16983055D02*
X1145301Y-17002103D01*
X1145301Y-17002103D02*
X1126253Y-17011627D01*
X1326253Y-17135436D02*
X1335777Y-17144960D01*
X1335777Y-17144960D02*
X1326253Y-17154484D01*
X1326253Y-17154484D02*
X1316729Y-17144960D01*
X1316729Y-17144960D02*
X1326253Y-17135436D01*
X1326253Y-17135436D02*
X1326253Y-17154484D01*
X1459586Y-16954484D02*
X1478634Y-16954484D01*
X1478634Y-16954484D02*
X1497682Y-16964008D01*
X1497682Y-16964008D02*
X1507205Y-16973531D01*
X1507205Y-16973531D02*
X1516729Y-16992579D01*
X1516729Y-16992579D02*
X1526253Y-17030674D01*
X1526253Y-17030674D02*
X1526253Y-17078293D01*
X1526253Y-17078293D02*
X1516729Y-17116389D01*
X1516729Y-17116389D02*
X1507205Y-17135436D01*
X1507205Y-17135436D02*
X1497682Y-17144960D01*
X1497682Y-17144960D02*
X1478634Y-17154484D01*
X1478634Y-17154484D02*
X1459586Y-17154484D01*
X1459586Y-17154484D02*
X1440539Y-17144960D01*
X1440539Y-17144960D02*
X1431015Y-17135436D01*
X1431015Y-17135436D02*
X1421491Y-17116389D01*
X1421491Y-17116389D02*
X1411967Y-17078293D01*
X1411967Y-17078293D02*
X1411967Y-17030674D01*
X1411967Y-17030674D02*
X1421491Y-16992579D01*
X1421491Y-16992579D02*
X1431015Y-16973531D01*
X1431015Y-16973531D02*
X1440539Y-16964008D01*
X1440539Y-16964008D02*
X1459586Y-16954484D01*
X1650062Y-16954484D02*
X1669110Y-16954484D01*
X1669110Y-16954484D02*
X1688158Y-16964008D01*
X1688158Y-16964008D02*
X1697682Y-16973531D01*
X1697682Y-16973531D02*
X1707205Y-16992579D01*
X1707205Y-16992579D02*
X1716729Y-17030674D01*
X1716729Y-17030674D02*
X1716729Y-17078293D01*
X1716729Y-17078293D02*
X1707205Y-17116389D01*
X1707205Y-17116389D02*
X1697682Y-17135436D01*
X1697682Y-17135436D02*
X1688158Y-17144960D01*
X1688158Y-17144960D02*
X1669110Y-17154484D01*
X1669110Y-17154484D02*
X1650062Y-17154484D01*
X1650062Y-17154484D02*
X1631015Y-17144960D01*
X1631015Y-17144960D02*
X1621491Y-17135436D01*
X1621491Y-17135436D02*
X1611967Y-17116389D01*
X1611967Y-17116389D02*
X1602443Y-17078293D01*
X1602443Y-17078293D02*
X1602443Y-17030674D01*
X1602443Y-17030674D02*
X1611967Y-16992579D01*
X1611967Y-16992579D02*
X1621491Y-16973531D01*
X1621491Y-16973531D02*
X1631015Y-16964008D01*
X1631015Y-16964008D02*
X1650062Y-16954484D01*
X1840539Y-16954484D02*
X1859586Y-16954484D01*
X1859586Y-16954484D02*
X1878634Y-16964008D01*
X1878634Y-16964008D02*
X1888158Y-16973531D01*
X1888158Y-16973531D02*
X1897682Y-16992579D01*
X1897682Y-16992579D02*
X1907205Y-17030674D01*
X1907205Y-17030674D02*
X1907205Y-17078293D01*
X1907205Y-17078293D02*
X1897682Y-17116389D01*
X1897682Y-17116389D02*
X1888158Y-17135436D01*
X1888158Y-17135436D02*
X1878634Y-17144960D01*
X1878634Y-17144960D02*
X1859586Y-17154484D01*
X1859586Y-17154484D02*
X1840539Y-17154484D01*
X1840539Y-17154484D02*
X1821491Y-17144960D01*
X1821491Y-17144960D02*
X1811967Y-17135436D01*
X1811967Y-17135436D02*
X1802443Y-17116389D01*
X1802443Y-17116389D02*
X1792920Y-17078293D01*
X1792920Y-17078293D02*
X1792920Y-17030674D01*
X1792920Y-17030674D02*
X1802443Y-16992579D01*
X1802443Y-16992579D02*
X1811967Y-16973531D01*
X1811967Y-16973531D02*
X1821491Y-16964008D01*
X1821491Y-16964008D02*
X1840539Y-16954484D01*
X1992920Y-17154484D02*
X1992920Y-17021150D01*
X1992920Y-17040198D02*
X2002443Y-17030674D01*
X2002443Y-17030674D02*
X2021491Y-17021150D01*
X2021491Y-17021150D02*
X2050063Y-17021150D01*
X2050063Y-17021150D02*
X2069110Y-17030674D01*
X2069110Y-17030674D02*
X2078634Y-17049722D01*
X2078634Y-17049722D02*
X2078634Y-17154484D01*
X2078634Y-17049722D02*
X2088158Y-17030674D01*
X2088158Y-17030674D02*
X2107205Y-17021150D01*
X2107205Y-17021150D02*
X2135777Y-17021150D01*
X2135777Y-17021150D02*
X2154825Y-17030674D01*
X2154825Y-17030674D02*
X2164348Y-17049722D01*
X2164348Y-17049722D02*
X2164348Y-17154484D01*
X2259586Y-17154484D02*
X2259586Y-17021150D01*
X2259586Y-17040198D02*
X2269110Y-17030674D01*
X2269110Y-17030674D02*
X2288158Y-17021150D01*
X2288158Y-17021150D02*
X2316729Y-17021150D01*
X2316729Y-17021150D02*
X2335777Y-17030674D01*
X2335777Y-17030674D02*
X2345301Y-17049722D01*
X2345301Y-17049722D02*
X2345301Y-17154484D01*
X2345301Y-17049722D02*
X2354825Y-17030674D01*
X2354825Y-17030674D02*
X2373872Y-17021150D01*
X2373872Y-17021150D02*
X2402444Y-17021150D01*
X2402444Y-17021150D02*
X2421491Y-17030674D01*
X2421491Y-17030674D02*
X2431015Y-17049722D01*
X2431015Y-17049722D02*
X2431015Y-17154484D01*
X2821491Y-16944960D02*
X2650063Y-17202103D01*
X3078634Y-16954484D02*
X3097682Y-16954484D01*
X3097682Y-16954484D02*
X3116729Y-16964008D01*
X3116729Y-16964008D02*
X3126253Y-16973531D01*
X3126253Y-16973531D02*
X3135777Y-16992579D01*
X3135777Y-16992579D02*
X3145301Y-17030674D01*
X3145301Y-17030674D02*
X3145301Y-17078293D01*
X3145301Y-17078293D02*
X3135777Y-17116389D01*
X3135777Y-17116389D02*
X3126253Y-17135436D01*
X3126253Y-17135436D02*
X3116729Y-17144960D01*
X3116729Y-17144960D02*
X3097682Y-17154484D01*
X3097682Y-17154484D02*
X3078634Y-17154484D01*
X3078634Y-17154484D02*
X3059586Y-17144960D01*
X3059586Y-17144960D02*
X3050063Y-17135436D01*
X3050063Y-17135436D02*
X3040539Y-17116389D01*
X3040539Y-17116389D02*
X3031015Y-17078293D01*
X3031015Y-17078293D02*
X3031015Y-17030674D01*
X3031015Y-17030674D02*
X3040539Y-16992579D01*
X3040539Y-16992579D02*
X3050063Y-16973531D01*
X3050063Y-16973531D02*
X3059586Y-16964008D01*
X3059586Y-16964008D02*
X3078634Y-16954484D01*
X3231015Y-17135436D02*
X3240539Y-17144960D01*
X3240539Y-17144960D02*
X3231015Y-17154484D01*
X3231015Y-17154484D02*
X3221491Y-17144960D01*
X3221491Y-17144960D02*
X3231015Y-17135436D01*
X3231015Y-17135436D02*
X3231015Y-17154484D01*
X3364348Y-16954484D02*
X3383396Y-16954484D01*
X3383396Y-16954484D02*
X3402444Y-16964008D01*
X3402444Y-16964008D02*
X3411967Y-16973531D01*
X3411967Y-16973531D02*
X3421491Y-16992579D01*
X3421491Y-16992579D02*
X3431015Y-17030674D01*
X3431015Y-17030674D02*
X3431015Y-17078293D01*
X3431015Y-17078293D02*
X3421491Y-17116389D01*
X3421491Y-17116389D02*
X3411967Y-17135436D01*
X3411967Y-17135436D02*
X3402444Y-17144960D01*
X3402444Y-17144960D02*
X3383396Y-17154484D01*
X3383396Y-17154484D02*
X3364348Y-17154484D01*
X3364348Y-17154484D02*
X3345301Y-17144960D01*
X3345301Y-17144960D02*
X3335777Y-17135436D01*
X3335777Y-17135436D02*
X3326253Y-17116389D01*
X3326253Y-17116389D02*
X3316729Y-17078293D01*
X3316729Y-17078293D02*
X3316729Y-17030674D01*
X3316729Y-17030674D02*
X3326253Y-16992579D01*
X3326253Y-16992579D02*
X3335777Y-16973531D01*
X3335777Y-16973531D02*
X3345301Y-16964008D01*
X3345301Y-16964008D02*
X3364348Y-16954484D01*
X3497682Y-16954484D02*
X3621491Y-16954484D01*
X3621491Y-16954484D02*
X3554825Y-17030674D01*
X3554825Y-17030674D02*
X3583396Y-17030674D01*
X3583396Y-17030674D02*
X3602444Y-17040198D01*
X3602444Y-17040198D02*
X3611967Y-17049722D01*
X3611967Y-17049722D02*
X3621491Y-17068770D01*
X3621491Y-17068770D02*
X3621491Y-17116389D01*
X3621491Y-17116389D02*
X3611967Y-17135436D01*
X3611967Y-17135436D02*
X3602444Y-17144960D01*
X3602444Y-17144960D02*
X3583396Y-17154484D01*
X3583396Y-17154484D02*
X3526253Y-17154484D01*
X3526253Y-17154484D02*
X3507206Y-17144960D01*
X3507206Y-17144960D02*
X3497682Y-17135436D01*
X3716729Y-17154484D02*
X3754825Y-17154484D01*
X3754825Y-17154484D02*
X3773872Y-17144960D01*
X3773872Y-17144960D02*
X3783396Y-17135436D01*
X3783396Y-17135436D02*
X3802444Y-17106865D01*
X3802444Y-17106865D02*
X3811967Y-17068770D01*
X3811967Y-17068770D02*
X3811967Y-16992579D01*
X3811967Y-16992579D02*
X3802444Y-16973531D01*
X3802444Y-16973531D02*
X3792920Y-16964008D01*
X3792920Y-16964008D02*
X3773872Y-16954484D01*
X3773872Y-16954484D02*
X3735777Y-16954484D01*
X3735777Y-16954484D02*
X3716729Y-16964008D01*
X3716729Y-16964008D02*
X3707206Y-16973531D01*
X3707206Y-16973531D02*
X3697682Y-16992579D01*
X3697682Y-16992579D02*
X3697682Y-17040198D01*
X3697682Y-17040198D02*
X3707206Y-17059246D01*
X3707206Y-17059246D02*
X3716729Y-17068770D01*
X3716729Y-17068770D02*
X3735777Y-17078293D01*
X3735777Y-17078293D02*
X3773872Y-17078293D01*
X3773872Y-17078293D02*
X3792920Y-17068770D01*
X3792920Y-17068770D02*
X3802444Y-17059246D01*
X3802444Y-17059246D02*
X3811967Y-17040198D01*
X3983396Y-17021150D02*
X3983396Y-17154484D01*
X3935777Y-16944960D02*
X3888158Y-17087817D01*
X3888158Y-17087817D02*
X4011967Y-17087817D01*
X4078634Y-16954484D02*
X4078634Y-16992579D01*
X4154825Y-16954484D02*
X4154825Y-16992579D01*
X4450063Y-17230674D02*
X4440539Y-17221150D01*
X4440539Y-17221150D02*
X4421491Y-17192579D01*
X4421491Y-17192579D02*
X4411968Y-17173531D01*
X4411968Y-17173531D02*
X4402444Y-17144960D01*
X4402444Y-17144960D02*
X4392920Y-17097341D01*
X4392920Y-17097341D02*
X4392920Y-17059246D01*
X4392920Y-17059246D02*
X4402444Y-17011627D01*
X4402444Y-17011627D02*
X4411968Y-16983055D01*
X4411968Y-16983055D02*
X4421491Y-16964008D01*
X4421491Y-16964008D02*
X4440539Y-16935436D01*
X4440539Y-16935436D02*
X4450063Y-16925912D01*
X4535777Y-17154484D02*
X4573872Y-17154484D01*
X4573872Y-17154484D02*
X4592920Y-17144960D01*
X4592920Y-17144960D02*
X4602444Y-17135436D01*
X4602444Y-17135436D02*
X4621491Y-17106865D01*
X4621491Y-17106865D02*
X4631015Y-17068770D01*
X4631015Y-17068770D02*
X4631015Y-16992579D01*
X4631015Y-16992579D02*
X4621491Y-16973531D01*
X4621491Y-16973531D02*
X4611968Y-16964008D01*
X4611968Y-16964008D02*
X4592920Y-16954484D01*
X4592920Y-16954484D02*
X4554825Y-16954484D01*
X4554825Y-16954484D02*
X4535777Y-16964008D01*
X4535777Y-16964008D02*
X4526253Y-16973531D01*
X4526253Y-16973531D02*
X4516730Y-16992579D01*
X4516730Y-16992579D02*
X4516730Y-17040198D01*
X4516730Y-17040198D02*
X4526253Y-17059246D01*
X4526253Y-17059246D02*
X4535777Y-17068770D01*
X4535777Y-17068770D02*
X4554825Y-17078293D01*
X4554825Y-17078293D02*
X4592920Y-17078293D01*
X4592920Y-17078293D02*
X4611968Y-17068770D01*
X4611968Y-17068770D02*
X4621491Y-17059246D01*
X4621491Y-17059246D02*
X4631015Y-17040198D01*
X4869111Y-17154484D02*
X4869111Y-16954484D01*
X4954825Y-17154484D02*
X4954825Y-17049722D01*
X4954825Y-17049722D02*
X4945301Y-17030674D01*
X4945301Y-17030674D02*
X4926253Y-17021150D01*
X4926253Y-17021150D02*
X4897682Y-17021150D01*
X4897682Y-17021150D02*
X4878634Y-17030674D01*
X4878634Y-17030674D02*
X4869111Y-17040198D01*
X5078634Y-17154484D02*
X5059587Y-17144960D01*
X5059587Y-17144960D02*
X5050063Y-17135436D01*
X5050063Y-17135436D02*
X5040539Y-17116389D01*
X5040539Y-17116389D02*
X5040539Y-17059246D01*
X5040539Y-17059246D02*
X5050063Y-17040198D01*
X5050063Y-17040198D02*
X5059587Y-17030674D01*
X5059587Y-17030674D02*
X5078634Y-17021150D01*
X5078634Y-17021150D02*
X5107206Y-17021150D01*
X5107206Y-17021150D02*
X5126253Y-17030674D01*
X5126253Y-17030674D02*
X5135777Y-17040198D01*
X5135777Y-17040198D02*
X5145301Y-17059246D01*
X5145301Y-17059246D02*
X5145301Y-17116389D01*
X5145301Y-17116389D02*
X5135777Y-17135436D01*
X5135777Y-17135436D02*
X5126253Y-17144960D01*
X5126253Y-17144960D02*
X5107206Y-17154484D01*
X5107206Y-17154484D02*
X5078634Y-17154484D01*
X5259587Y-17154484D02*
X5240539Y-17144960D01*
X5240539Y-17144960D02*
X5231015Y-17125912D01*
X5231015Y-17125912D02*
X5231015Y-16954484D01*
X5411968Y-17144960D02*
X5392920Y-17154484D01*
X5392920Y-17154484D02*
X5354825Y-17154484D01*
X5354825Y-17154484D02*
X5335777Y-17144960D01*
X5335777Y-17144960D02*
X5326253Y-17125912D01*
X5326253Y-17125912D02*
X5326253Y-17049722D01*
X5326253Y-17049722D02*
X5335777Y-17030674D01*
X5335777Y-17030674D02*
X5354825Y-17021150D01*
X5354825Y-17021150D02*
X5392920Y-17021150D01*
X5392920Y-17021150D02*
X5411968Y-17030674D01*
X5411968Y-17030674D02*
X5421492Y-17049722D01*
X5421492Y-17049722D02*
X5421492Y-17068770D01*
X5421492Y-17068770D02*
X5326253Y-17087817D01*
X5497682Y-17144960D02*
X5516730Y-17154484D01*
X5516730Y-17154484D02*
X5554825Y-17154484D01*
X5554825Y-17154484D02*
X5573873Y-17144960D01*
X5573873Y-17144960D02*
X5583396Y-17125912D01*
X5583396Y-17125912D02*
X5583396Y-17116389D01*
X5583396Y-17116389D02*
X5573873Y-17097341D01*
X5573873Y-17097341D02*
X5554825Y-17087817D01*
X5554825Y-17087817D02*
X5526253Y-17087817D01*
X5526253Y-17087817D02*
X5507206Y-17078293D01*
X5507206Y-17078293D02*
X5497682Y-17059246D01*
X5497682Y-17059246D02*
X5497682Y-17049722D01*
X5497682Y-17049722D02*
X5507206Y-17030674D01*
X5507206Y-17030674D02*
X5526253Y-17021150D01*
X5526253Y-17021150D02*
X5554825Y-17021150D01*
X5554825Y-17021150D02*
X5573873Y-17030674D01*
X5650063Y-17230674D02*
X5659587Y-17221150D01*
X5659587Y-17221150D02*
X5678634Y-17192579D01*
X5678634Y-17192579D02*
X5688158Y-17173531D01*
X5688158Y-17173531D02*
X5697682Y-17144960D01*
X5697682Y-17144960D02*
X5707206Y-17097341D01*
X5707206Y-17097341D02*
X5707206Y-17059246D01*
X5707206Y-17059246D02*
X5697682Y-17011627D01*
X5697682Y-17011627D02*
X5688158Y-16983055D01*
X5688158Y-16983055D02*
X5678634Y-16964008D01*
X5678634Y-16964008D02*
X5659587Y-16935436D01*
X5659587Y-16935436D02*
X5650063Y-16925912D01*
D14*
X859005Y-17365616D02*
X859005Y-17288385D01*
X781774Y-17288385D01*
X781774Y-17365616D01*
X859005Y-17365616D01*
D11*
X1240539Y-17418484D02*
X1126253Y-17418484D01*
X1183396Y-17418484D02*
X1183396Y-17218484D01*
X1183396Y-17218484D02*
X1164348Y-17247055D01*
X1164348Y-17247055D02*
X1145301Y-17266103D01*
X1145301Y-17266103D02*
X1126253Y-17275627D01*
X1326253Y-17399436D02*
X1335777Y-17408960D01*
X1335777Y-17408960D02*
X1326253Y-17418484D01*
X1326253Y-17418484D02*
X1316729Y-17408960D01*
X1316729Y-17408960D02*
X1326253Y-17399436D01*
X1326253Y-17399436D02*
X1326253Y-17418484D01*
X1459586Y-17218484D02*
X1478634Y-17218484D01*
X1478634Y-17218484D02*
X1497682Y-17228008D01*
X1497682Y-17228008D02*
X1507205Y-17237531D01*
X1507205Y-17237531D02*
X1516729Y-17256579D01*
X1516729Y-17256579D02*
X1526253Y-17294674D01*
X1526253Y-17294674D02*
X1526253Y-17342293D01*
X1526253Y-17342293D02*
X1516729Y-17380389D01*
X1516729Y-17380389D02*
X1507205Y-17399436D01*
X1507205Y-17399436D02*
X1497682Y-17408960D01*
X1497682Y-17408960D02*
X1478634Y-17418484D01*
X1478634Y-17418484D02*
X1459586Y-17418484D01*
X1459586Y-17418484D02*
X1440539Y-17408960D01*
X1440539Y-17408960D02*
X1431015Y-17399436D01*
X1431015Y-17399436D02*
X1421491Y-17380389D01*
X1421491Y-17380389D02*
X1411967Y-17342293D01*
X1411967Y-17342293D02*
X1411967Y-17294674D01*
X1411967Y-17294674D02*
X1421491Y-17256579D01*
X1421491Y-17256579D02*
X1431015Y-17237531D01*
X1431015Y-17237531D02*
X1440539Y-17228008D01*
X1440539Y-17228008D02*
X1459586Y-17218484D01*
X1621491Y-17418484D02*
X1659586Y-17418484D01*
X1659586Y-17418484D02*
X1678634Y-17408960D01*
X1678634Y-17408960D02*
X1688158Y-17399436D01*
X1688158Y-17399436D02*
X1707205Y-17370865D01*
X1707205Y-17370865D02*
X1716729Y-17332770D01*
X1716729Y-17332770D02*
X1716729Y-17256579D01*
X1716729Y-17256579D02*
X1707205Y-17237531D01*
X1707205Y-17237531D02*
X1697682Y-17228008D01*
X1697682Y-17228008D02*
X1678634Y-17218484D01*
X1678634Y-17218484D02*
X1640539Y-17218484D01*
X1640539Y-17218484D02*
X1621491Y-17228008D01*
X1621491Y-17228008D02*
X1611967Y-17237531D01*
X1611967Y-17237531D02*
X1602443Y-17256579D01*
X1602443Y-17256579D02*
X1602443Y-17304198D01*
X1602443Y-17304198D02*
X1611967Y-17323246D01*
X1611967Y-17323246D02*
X1621491Y-17332770D01*
X1621491Y-17332770D02*
X1640539Y-17342293D01*
X1640539Y-17342293D02*
X1678634Y-17342293D01*
X1678634Y-17342293D02*
X1697682Y-17332770D01*
X1697682Y-17332770D02*
X1707205Y-17323246D01*
X1707205Y-17323246D02*
X1716729Y-17304198D01*
X1792920Y-17237531D02*
X1802443Y-17228008D01*
X1802443Y-17228008D02*
X1821491Y-17218484D01*
X1821491Y-17218484D02*
X1869110Y-17218484D01*
X1869110Y-17218484D02*
X1888158Y-17228008D01*
X1888158Y-17228008D02*
X1897682Y-17237531D01*
X1897682Y-17237531D02*
X1907205Y-17256579D01*
X1907205Y-17256579D02*
X1907205Y-17275627D01*
X1907205Y-17275627D02*
X1897682Y-17304198D01*
X1897682Y-17304198D02*
X1783396Y-17418484D01*
X1783396Y-17418484D02*
X1907205Y-17418484D01*
X1992920Y-17418484D02*
X1992920Y-17285150D01*
X1992920Y-17304198D02*
X2002443Y-17294674D01*
X2002443Y-17294674D02*
X2021491Y-17285150D01*
X2021491Y-17285150D02*
X2050063Y-17285150D01*
X2050063Y-17285150D02*
X2069110Y-17294674D01*
X2069110Y-17294674D02*
X2078634Y-17313722D01*
X2078634Y-17313722D02*
X2078634Y-17418484D01*
X2078634Y-17313722D02*
X2088158Y-17294674D01*
X2088158Y-17294674D02*
X2107205Y-17285150D01*
X2107205Y-17285150D02*
X2135777Y-17285150D01*
X2135777Y-17285150D02*
X2154825Y-17294674D01*
X2154825Y-17294674D02*
X2164348Y-17313722D01*
X2164348Y-17313722D02*
X2164348Y-17418484D01*
X2259586Y-17418484D02*
X2259586Y-17285150D01*
X2259586Y-17304198D02*
X2269110Y-17294674D01*
X2269110Y-17294674D02*
X2288158Y-17285150D01*
X2288158Y-17285150D02*
X2316729Y-17285150D01*
X2316729Y-17285150D02*
X2335777Y-17294674D01*
X2335777Y-17294674D02*
X2345301Y-17313722D01*
X2345301Y-17313722D02*
X2345301Y-17418484D01*
X2345301Y-17313722D02*
X2354825Y-17294674D01*
X2354825Y-17294674D02*
X2373872Y-17285150D01*
X2373872Y-17285150D02*
X2402444Y-17285150D01*
X2402444Y-17285150D02*
X2421491Y-17294674D01*
X2421491Y-17294674D02*
X2431015Y-17313722D01*
X2431015Y-17313722D02*
X2431015Y-17418484D01*
X2821491Y-17208960D02*
X2650063Y-17466103D01*
X3078634Y-17218484D02*
X3097682Y-17218484D01*
X3097682Y-17218484D02*
X3116729Y-17228008D01*
X3116729Y-17228008D02*
X3126253Y-17237531D01*
X3126253Y-17237531D02*
X3135777Y-17256579D01*
X3135777Y-17256579D02*
X3145301Y-17294674D01*
X3145301Y-17294674D02*
X3145301Y-17342293D01*
X3145301Y-17342293D02*
X3135777Y-17380389D01*
X3135777Y-17380389D02*
X3126253Y-17399436D01*
X3126253Y-17399436D02*
X3116729Y-17408960D01*
X3116729Y-17408960D02*
X3097682Y-17418484D01*
X3097682Y-17418484D02*
X3078634Y-17418484D01*
X3078634Y-17418484D02*
X3059586Y-17408960D01*
X3059586Y-17408960D02*
X3050063Y-17399436D01*
X3050063Y-17399436D02*
X3040539Y-17380389D01*
X3040539Y-17380389D02*
X3031015Y-17342293D01*
X3031015Y-17342293D02*
X3031015Y-17294674D01*
X3031015Y-17294674D02*
X3040539Y-17256579D01*
X3040539Y-17256579D02*
X3050063Y-17237531D01*
X3050063Y-17237531D02*
X3059586Y-17228008D01*
X3059586Y-17228008D02*
X3078634Y-17218484D01*
X3231015Y-17399436D02*
X3240539Y-17408960D01*
X3240539Y-17408960D02*
X3231015Y-17418484D01*
X3231015Y-17418484D02*
X3221491Y-17408960D01*
X3221491Y-17408960D02*
X3231015Y-17399436D01*
X3231015Y-17399436D02*
X3231015Y-17418484D01*
X3364348Y-17218484D02*
X3383396Y-17218484D01*
X3383396Y-17218484D02*
X3402444Y-17228008D01*
X3402444Y-17228008D02*
X3411967Y-17237531D01*
X3411967Y-17237531D02*
X3421491Y-17256579D01*
X3421491Y-17256579D02*
X3431015Y-17294674D01*
X3431015Y-17294674D02*
X3431015Y-17342293D01*
X3431015Y-17342293D02*
X3421491Y-17380389D01*
X3421491Y-17380389D02*
X3411967Y-17399436D01*
X3411967Y-17399436D02*
X3402444Y-17408960D01*
X3402444Y-17408960D02*
X3383396Y-17418484D01*
X3383396Y-17418484D02*
X3364348Y-17418484D01*
X3364348Y-17418484D02*
X3345301Y-17408960D01*
X3345301Y-17408960D02*
X3335777Y-17399436D01*
X3335777Y-17399436D02*
X3326253Y-17380389D01*
X3326253Y-17380389D02*
X3316729Y-17342293D01*
X3316729Y-17342293D02*
X3316729Y-17294674D01*
X3316729Y-17294674D02*
X3326253Y-17256579D01*
X3326253Y-17256579D02*
X3335777Y-17237531D01*
X3335777Y-17237531D02*
X3345301Y-17228008D01*
X3345301Y-17228008D02*
X3364348Y-17218484D01*
X3602444Y-17285150D02*
X3602444Y-17418484D01*
X3554825Y-17208960D02*
X3507206Y-17351817D01*
X3507206Y-17351817D02*
X3631015Y-17351817D01*
X3688158Y-17218484D02*
X3811967Y-17218484D01*
X3811967Y-17218484D02*
X3745301Y-17294674D01*
X3745301Y-17294674D02*
X3773872Y-17294674D01*
X3773872Y-17294674D02*
X3792920Y-17304198D01*
X3792920Y-17304198D02*
X3802444Y-17313722D01*
X3802444Y-17313722D02*
X3811967Y-17332770D01*
X3811967Y-17332770D02*
X3811967Y-17380389D01*
X3811967Y-17380389D02*
X3802444Y-17399436D01*
X3802444Y-17399436D02*
X3792920Y-17408960D01*
X3792920Y-17408960D02*
X3773872Y-17418484D01*
X3773872Y-17418484D02*
X3716729Y-17418484D01*
X3716729Y-17418484D02*
X3697682Y-17408960D01*
X3697682Y-17408960D02*
X3688158Y-17399436D01*
X3935777Y-17218484D02*
X3954825Y-17218484D01*
X3954825Y-17218484D02*
X3973872Y-17228008D01*
X3973872Y-17228008D02*
X3983396Y-17237531D01*
X3983396Y-17237531D02*
X3992920Y-17256579D01*
X3992920Y-17256579D02*
X4002444Y-17294674D01*
X4002444Y-17294674D02*
X4002444Y-17342293D01*
X4002444Y-17342293D02*
X3992920Y-17380389D01*
X3992920Y-17380389D02*
X3983396Y-17399436D01*
X3983396Y-17399436D02*
X3973872Y-17408960D01*
X3973872Y-17408960D02*
X3954825Y-17418484D01*
X3954825Y-17418484D02*
X3935777Y-17418484D01*
X3935777Y-17418484D02*
X3916729Y-17408960D01*
X3916729Y-17408960D02*
X3907206Y-17399436D01*
X3907206Y-17399436D02*
X3897682Y-17380389D01*
X3897682Y-17380389D02*
X3888158Y-17342293D01*
X3888158Y-17342293D02*
X3888158Y-17294674D01*
X3888158Y-17294674D02*
X3897682Y-17256579D01*
X3897682Y-17256579D02*
X3907206Y-17237531D01*
X3907206Y-17237531D02*
X3916729Y-17228008D01*
X3916729Y-17228008D02*
X3935777Y-17218484D01*
X4078634Y-17218484D02*
X4078634Y-17256579D01*
X4154825Y-17218484D02*
X4154825Y-17256579D01*
X4450063Y-17494674D02*
X4440539Y-17485150D01*
X4440539Y-17485150D02*
X4421491Y-17456579D01*
X4421491Y-17456579D02*
X4411968Y-17437531D01*
X4411968Y-17437531D02*
X4402444Y-17408960D01*
X4402444Y-17408960D02*
X4392920Y-17361341D01*
X4392920Y-17361341D02*
X4392920Y-17323246D01*
X4392920Y-17323246D02*
X4402444Y-17275627D01*
X4402444Y-17275627D02*
X4411968Y-17247055D01*
X4411968Y-17247055D02*
X4421491Y-17228008D01*
X4421491Y-17228008D02*
X4440539Y-17199436D01*
X4440539Y-17199436D02*
X4450063Y-17189912D01*
X4516730Y-17237531D02*
X4526253Y-17228008D01*
X4526253Y-17228008D02*
X4545301Y-17218484D01*
X4545301Y-17218484D02*
X4592920Y-17218484D01*
X4592920Y-17218484D02*
X4611968Y-17228008D01*
X4611968Y-17228008D02*
X4621491Y-17237531D01*
X4621491Y-17237531D02*
X4631015Y-17256579D01*
X4631015Y-17256579D02*
X4631015Y-17275627D01*
X4631015Y-17275627D02*
X4621491Y-17304198D01*
X4621491Y-17304198D02*
X4507206Y-17418484D01*
X4507206Y-17418484D02*
X4631015Y-17418484D01*
X4802444Y-17285150D02*
X4802444Y-17418484D01*
X4754825Y-17208960D02*
X4707206Y-17351817D01*
X4707206Y-17351817D02*
X4831015Y-17351817D01*
X5059587Y-17418484D02*
X5059587Y-17218484D01*
X5145301Y-17418484D02*
X5145301Y-17313722D01*
X5145301Y-17313722D02*
X5135777Y-17294674D01*
X5135777Y-17294674D02*
X5116730Y-17285150D01*
X5116730Y-17285150D02*
X5088158Y-17285150D01*
X5088158Y-17285150D02*
X5069111Y-17294674D01*
X5069111Y-17294674D02*
X5059587Y-17304198D01*
X5269111Y-17418484D02*
X5250063Y-17408960D01*
X5250063Y-17408960D02*
X5240539Y-17399436D01*
X5240539Y-17399436D02*
X5231015Y-17380389D01*
X5231015Y-17380389D02*
X5231015Y-17323246D01*
X5231015Y-17323246D02*
X5240539Y-17304198D01*
X5240539Y-17304198D02*
X5250063Y-17294674D01*
X5250063Y-17294674D02*
X5269111Y-17285150D01*
X5269111Y-17285150D02*
X5297682Y-17285150D01*
X5297682Y-17285150D02*
X5316730Y-17294674D01*
X5316730Y-17294674D02*
X5326253Y-17304198D01*
X5326253Y-17304198D02*
X5335777Y-17323246D01*
X5335777Y-17323246D02*
X5335777Y-17380389D01*
X5335777Y-17380389D02*
X5326253Y-17399436D01*
X5326253Y-17399436D02*
X5316730Y-17408960D01*
X5316730Y-17408960D02*
X5297682Y-17418484D01*
X5297682Y-17418484D02*
X5269111Y-17418484D01*
X5450063Y-17418484D02*
X5431015Y-17408960D01*
X5431015Y-17408960D02*
X5421492Y-17389912D01*
X5421492Y-17389912D02*
X5421492Y-17218484D01*
X5602444Y-17408960D02*
X5583396Y-17418484D01*
X5583396Y-17418484D02*
X5545301Y-17418484D01*
X5545301Y-17418484D02*
X5526253Y-17408960D01*
X5526253Y-17408960D02*
X5516730Y-17389912D01*
X5516730Y-17389912D02*
X5516730Y-17313722D01*
X5516730Y-17313722D02*
X5526253Y-17294674D01*
X5526253Y-17294674D02*
X5545301Y-17285150D01*
X5545301Y-17285150D02*
X5583396Y-17285150D01*
X5583396Y-17285150D02*
X5602444Y-17294674D01*
X5602444Y-17294674D02*
X5611968Y-17313722D01*
X5611968Y-17313722D02*
X5611968Y-17332770D01*
X5611968Y-17332770D02*
X5516730Y-17351817D01*
X5688158Y-17408960D02*
X5707206Y-17418484D01*
X5707206Y-17418484D02*
X5745301Y-17418484D01*
X5745301Y-17418484D02*
X5764349Y-17408960D01*
X5764349Y-17408960D02*
X5773872Y-17389912D01*
X5773872Y-17389912D02*
X5773872Y-17380389D01*
X5773872Y-17380389D02*
X5764349Y-17361341D01*
X5764349Y-17361341D02*
X5745301Y-17351817D01*
X5745301Y-17351817D02*
X5716730Y-17351817D01*
X5716730Y-17351817D02*
X5697682Y-17342293D01*
X5697682Y-17342293D02*
X5688158Y-17323246D01*
X5688158Y-17323246D02*
X5688158Y-17313722D01*
X5688158Y-17313722D02*
X5697682Y-17294674D01*
X5697682Y-17294674D02*
X5716730Y-17285150D01*
X5716730Y-17285150D02*
X5745301Y-17285150D01*
X5745301Y-17285150D02*
X5764349Y-17294674D01*
X5840539Y-17494674D02*
X5850063Y-17485150D01*
X5850063Y-17485150D02*
X5869111Y-17456579D01*
X5869111Y-17456579D02*
X5878634Y-17437531D01*
X5878634Y-17437531D02*
X5888158Y-17408960D01*
X5888158Y-17408960D02*
X5897682Y-17361341D01*
X5897682Y-17361341D02*
X5897682Y-17323246D01*
X5897682Y-17323246D02*
X5888158Y-17275627D01*
X5888158Y-17275627D02*
X5878634Y-17247055D01*
X5878634Y-17247055D02*
X5869111Y-17228008D01*
X5869111Y-17228008D02*
X5850063Y-17199436D01*
X5850063Y-17199436D02*
X5840539Y-17189912D01*
D15*
X800000Y-17666000D02*
X875000Y-17591000D01*
X800000Y-17516000D01*
X725000Y-17591000D01*
X800000Y-17666000D01*
D11*
X1240539Y-17682484D02*
X1126253Y-17682484D01*
X1183396Y-17682484D02*
X1183396Y-17482484D01*
X1183396Y-17482484D02*
X1164348Y-17511055D01*
X1164348Y-17511055D02*
X1145301Y-17530103D01*
X1145301Y-17530103D02*
X1126253Y-17539627D01*
X1326253Y-17663436D02*
X1335777Y-17672960D01*
X1335777Y-17672960D02*
X1326253Y-17682484D01*
X1326253Y-17682484D02*
X1316729Y-17672960D01*
X1316729Y-17672960D02*
X1326253Y-17663436D01*
X1326253Y-17663436D02*
X1326253Y-17682484D01*
X1516729Y-17482484D02*
X1421491Y-17482484D01*
X1421491Y-17482484D02*
X1411967Y-17577722D01*
X1411967Y-17577722D02*
X1421491Y-17568198D01*
X1421491Y-17568198D02*
X1440539Y-17558674D01*
X1440539Y-17558674D02*
X1488158Y-17558674D01*
X1488158Y-17558674D02*
X1507205Y-17568198D01*
X1507205Y-17568198D02*
X1516729Y-17577722D01*
X1516729Y-17577722D02*
X1526253Y-17596770D01*
X1526253Y-17596770D02*
X1526253Y-17644389D01*
X1526253Y-17644389D02*
X1516729Y-17663436D01*
X1516729Y-17663436D02*
X1507205Y-17672960D01*
X1507205Y-17672960D02*
X1488158Y-17682484D01*
X1488158Y-17682484D02*
X1440539Y-17682484D01*
X1440539Y-17682484D02*
X1421491Y-17672960D01*
X1421491Y-17672960D02*
X1411967Y-17663436D01*
X1650062Y-17482484D02*
X1669110Y-17482484D01*
X1669110Y-17482484D02*
X1688158Y-17492008D01*
X1688158Y-17492008D02*
X1697682Y-17501531D01*
X1697682Y-17501531D02*
X1707205Y-17520579D01*
X1707205Y-17520579D02*
X1716729Y-17558674D01*
X1716729Y-17558674D02*
X1716729Y-17606293D01*
X1716729Y-17606293D02*
X1707205Y-17644389D01*
X1707205Y-17644389D02*
X1697682Y-17663436D01*
X1697682Y-17663436D02*
X1688158Y-17672960D01*
X1688158Y-17672960D02*
X1669110Y-17682484D01*
X1669110Y-17682484D02*
X1650062Y-17682484D01*
X1650062Y-17682484D02*
X1631015Y-17672960D01*
X1631015Y-17672960D02*
X1621491Y-17663436D01*
X1621491Y-17663436D02*
X1611967Y-17644389D01*
X1611967Y-17644389D02*
X1602443Y-17606293D01*
X1602443Y-17606293D02*
X1602443Y-17558674D01*
X1602443Y-17558674D02*
X1611967Y-17520579D01*
X1611967Y-17520579D02*
X1621491Y-17501531D01*
X1621491Y-17501531D02*
X1631015Y-17492008D01*
X1631015Y-17492008D02*
X1650062Y-17482484D01*
X1840539Y-17482484D02*
X1859586Y-17482484D01*
X1859586Y-17482484D02*
X1878634Y-17492008D01*
X1878634Y-17492008D02*
X1888158Y-17501531D01*
X1888158Y-17501531D02*
X1897682Y-17520579D01*
X1897682Y-17520579D02*
X1907205Y-17558674D01*
X1907205Y-17558674D02*
X1907205Y-17606293D01*
X1907205Y-17606293D02*
X1897682Y-17644389D01*
X1897682Y-17644389D02*
X1888158Y-17663436D01*
X1888158Y-17663436D02*
X1878634Y-17672960D01*
X1878634Y-17672960D02*
X1859586Y-17682484D01*
X1859586Y-17682484D02*
X1840539Y-17682484D01*
X1840539Y-17682484D02*
X1821491Y-17672960D01*
X1821491Y-17672960D02*
X1811967Y-17663436D01*
X1811967Y-17663436D02*
X1802443Y-17644389D01*
X1802443Y-17644389D02*
X1792920Y-17606293D01*
X1792920Y-17606293D02*
X1792920Y-17558674D01*
X1792920Y-17558674D02*
X1802443Y-17520579D01*
X1802443Y-17520579D02*
X1811967Y-17501531D01*
X1811967Y-17501531D02*
X1821491Y-17492008D01*
X1821491Y-17492008D02*
X1840539Y-17482484D01*
X1992920Y-17682484D02*
X1992920Y-17549150D01*
X1992920Y-17568198D02*
X2002443Y-17558674D01*
X2002443Y-17558674D02*
X2021491Y-17549150D01*
X2021491Y-17549150D02*
X2050063Y-17549150D01*
X2050063Y-17549150D02*
X2069110Y-17558674D01*
X2069110Y-17558674D02*
X2078634Y-17577722D01*
X2078634Y-17577722D02*
X2078634Y-17682484D01*
X2078634Y-17577722D02*
X2088158Y-17558674D01*
X2088158Y-17558674D02*
X2107205Y-17549150D01*
X2107205Y-17549150D02*
X2135777Y-17549150D01*
X2135777Y-17549150D02*
X2154825Y-17558674D01*
X2154825Y-17558674D02*
X2164348Y-17577722D01*
X2164348Y-17577722D02*
X2164348Y-17682484D01*
X2259586Y-17682484D02*
X2259586Y-17549150D01*
X2259586Y-17568198D02*
X2269110Y-17558674D01*
X2269110Y-17558674D02*
X2288158Y-17549150D01*
X2288158Y-17549150D02*
X2316729Y-17549150D01*
X2316729Y-17549150D02*
X2335777Y-17558674D01*
X2335777Y-17558674D02*
X2345301Y-17577722D01*
X2345301Y-17577722D02*
X2345301Y-17682484D01*
X2345301Y-17577722D02*
X2354825Y-17558674D01*
X2354825Y-17558674D02*
X2373872Y-17549150D01*
X2373872Y-17549150D02*
X2402444Y-17549150D01*
X2402444Y-17549150D02*
X2421491Y-17558674D01*
X2421491Y-17558674D02*
X2431015Y-17577722D01*
X2431015Y-17577722D02*
X2431015Y-17682484D01*
X2821491Y-17472960D02*
X2650063Y-17730103D01*
X3078634Y-17482484D02*
X3097682Y-17482484D01*
X3097682Y-17482484D02*
X3116729Y-17492008D01*
X3116729Y-17492008D02*
X3126253Y-17501531D01*
X3126253Y-17501531D02*
X3135777Y-17520579D01*
X3135777Y-17520579D02*
X3145301Y-17558674D01*
X3145301Y-17558674D02*
X3145301Y-17606293D01*
X3145301Y-17606293D02*
X3135777Y-17644389D01*
X3135777Y-17644389D02*
X3126253Y-17663436D01*
X3126253Y-17663436D02*
X3116729Y-17672960D01*
X3116729Y-17672960D02*
X3097682Y-17682484D01*
X3097682Y-17682484D02*
X3078634Y-17682484D01*
X3078634Y-17682484D02*
X3059586Y-17672960D01*
X3059586Y-17672960D02*
X3050063Y-17663436D01*
X3050063Y-17663436D02*
X3040539Y-17644389D01*
X3040539Y-17644389D02*
X3031015Y-17606293D01*
X3031015Y-17606293D02*
X3031015Y-17558674D01*
X3031015Y-17558674D02*
X3040539Y-17520579D01*
X3040539Y-17520579D02*
X3050063Y-17501531D01*
X3050063Y-17501531D02*
X3059586Y-17492008D01*
X3059586Y-17492008D02*
X3078634Y-17482484D01*
X3231015Y-17663436D02*
X3240539Y-17672960D01*
X3240539Y-17672960D02*
X3231015Y-17682484D01*
X3231015Y-17682484D02*
X3221491Y-17672960D01*
X3221491Y-17672960D02*
X3231015Y-17663436D01*
X3231015Y-17663436D02*
X3231015Y-17682484D01*
X3364348Y-17482484D02*
X3383396Y-17482484D01*
X3383396Y-17482484D02*
X3402444Y-17492008D01*
X3402444Y-17492008D02*
X3411967Y-17501531D01*
X3411967Y-17501531D02*
X3421491Y-17520579D01*
X3421491Y-17520579D02*
X3431015Y-17558674D01*
X3431015Y-17558674D02*
X3431015Y-17606293D01*
X3431015Y-17606293D02*
X3421491Y-17644389D01*
X3421491Y-17644389D02*
X3411967Y-17663436D01*
X3411967Y-17663436D02*
X3402444Y-17672960D01*
X3402444Y-17672960D02*
X3383396Y-17682484D01*
X3383396Y-17682484D02*
X3364348Y-17682484D01*
X3364348Y-17682484D02*
X3345301Y-17672960D01*
X3345301Y-17672960D02*
X3335777Y-17663436D01*
X3335777Y-17663436D02*
X3326253Y-17644389D01*
X3326253Y-17644389D02*
X3316729Y-17606293D01*
X3316729Y-17606293D02*
X3316729Y-17558674D01*
X3316729Y-17558674D02*
X3326253Y-17520579D01*
X3326253Y-17520579D02*
X3335777Y-17501531D01*
X3335777Y-17501531D02*
X3345301Y-17492008D01*
X3345301Y-17492008D02*
X3364348Y-17482484D01*
X3611967Y-17482484D02*
X3516729Y-17482484D01*
X3516729Y-17482484D02*
X3507206Y-17577722D01*
X3507206Y-17577722D02*
X3516729Y-17568198D01*
X3516729Y-17568198D02*
X3535777Y-17558674D01*
X3535777Y-17558674D02*
X3583396Y-17558674D01*
X3583396Y-17558674D02*
X3602444Y-17568198D01*
X3602444Y-17568198D02*
X3611967Y-17577722D01*
X3611967Y-17577722D02*
X3621491Y-17596770D01*
X3621491Y-17596770D02*
X3621491Y-17644389D01*
X3621491Y-17644389D02*
X3611967Y-17663436D01*
X3611967Y-17663436D02*
X3602444Y-17672960D01*
X3602444Y-17672960D02*
X3583396Y-17682484D01*
X3583396Y-17682484D02*
X3535777Y-17682484D01*
X3535777Y-17682484D02*
X3516729Y-17672960D01*
X3516729Y-17672960D02*
X3507206Y-17663436D01*
X3716729Y-17682484D02*
X3754825Y-17682484D01*
X3754825Y-17682484D02*
X3773872Y-17672960D01*
X3773872Y-17672960D02*
X3783396Y-17663436D01*
X3783396Y-17663436D02*
X3802444Y-17634865D01*
X3802444Y-17634865D02*
X3811967Y-17596770D01*
X3811967Y-17596770D02*
X3811967Y-17520579D01*
X3811967Y-17520579D02*
X3802444Y-17501531D01*
X3802444Y-17501531D02*
X3792920Y-17492008D01*
X3792920Y-17492008D02*
X3773872Y-17482484D01*
X3773872Y-17482484D02*
X3735777Y-17482484D01*
X3735777Y-17482484D02*
X3716729Y-17492008D01*
X3716729Y-17492008D02*
X3707206Y-17501531D01*
X3707206Y-17501531D02*
X3697682Y-17520579D01*
X3697682Y-17520579D02*
X3697682Y-17568198D01*
X3697682Y-17568198D02*
X3707206Y-17587246D01*
X3707206Y-17587246D02*
X3716729Y-17596770D01*
X3716729Y-17596770D02*
X3735777Y-17606293D01*
X3735777Y-17606293D02*
X3773872Y-17606293D01*
X3773872Y-17606293D02*
X3792920Y-17596770D01*
X3792920Y-17596770D02*
X3802444Y-17587246D01*
X3802444Y-17587246D02*
X3811967Y-17568198D01*
X4002444Y-17682484D02*
X3888158Y-17682484D01*
X3945301Y-17682484D02*
X3945301Y-17482484D01*
X3945301Y-17482484D02*
X3926253Y-17511055D01*
X3926253Y-17511055D02*
X3907206Y-17530103D01*
X3907206Y-17530103D02*
X3888158Y-17539627D01*
X4078634Y-17482484D02*
X4078634Y-17520579D01*
X4154825Y-17482484D02*
X4154825Y-17520579D01*
X4450063Y-17758674D02*
X4440539Y-17749150D01*
X4440539Y-17749150D02*
X4421491Y-17720579D01*
X4421491Y-17720579D02*
X4411968Y-17701531D01*
X4411968Y-17701531D02*
X4402444Y-17672960D01*
X4402444Y-17672960D02*
X4392920Y-17625341D01*
X4392920Y-17625341D02*
X4392920Y-17587246D01*
X4392920Y-17587246D02*
X4402444Y-17539627D01*
X4402444Y-17539627D02*
X4411968Y-17511055D01*
X4411968Y-17511055D02*
X4421491Y-17492008D01*
X4421491Y-17492008D02*
X4440539Y-17463436D01*
X4440539Y-17463436D02*
X4450063Y-17453912D01*
X4507206Y-17482484D02*
X4631015Y-17482484D01*
X4631015Y-17482484D02*
X4564349Y-17558674D01*
X4564349Y-17558674D02*
X4592920Y-17558674D01*
X4592920Y-17558674D02*
X4611968Y-17568198D01*
X4611968Y-17568198D02*
X4621491Y-17577722D01*
X4621491Y-17577722D02*
X4631015Y-17596770D01*
X4631015Y-17596770D02*
X4631015Y-17644389D01*
X4631015Y-17644389D02*
X4621491Y-17663436D01*
X4621491Y-17663436D02*
X4611968Y-17672960D01*
X4611968Y-17672960D02*
X4592920Y-17682484D01*
X4592920Y-17682484D02*
X4535777Y-17682484D01*
X4535777Y-17682484D02*
X4516730Y-17672960D01*
X4516730Y-17672960D02*
X4507206Y-17663436D01*
X4802444Y-17482484D02*
X4764349Y-17482484D01*
X4764349Y-17482484D02*
X4745301Y-17492008D01*
X4745301Y-17492008D02*
X4735777Y-17501531D01*
X4735777Y-17501531D02*
X4716730Y-17530103D01*
X4716730Y-17530103D02*
X4707206Y-17568198D01*
X4707206Y-17568198D02*
X4707206Y-17644389D01*
X4707206Y-17644389D02*
X4716730Y-17663436D01*
X4716730Y-17663436D02*
X4726253Y-17672960D01*
X4726253Y-17672960D02*
X4745301Y-17682484D01*
X4745301Y-17682484D02*
X4783396Y-17682484D01*
X4783396Y-17682484D02*
X4802444Y-17672960D01*
X4802444Y-17672960D02*
X4811968Y-17663436D01*
X4811968Y-17663436D02*
X4821491Y-17644389D01*
X4821491Y-17644389D02*
X4821491Y-17596770D01*
X4821491Y-17596770D02*
X4811968Y-17577722D01*
X4811968Y-17577722D02*
X4802444Y-17568198D01*
X4802444Y-17568198D02*
X4783396Y-17558674D01*
X4783396Y-17558674D02*
X4745301Y-17558674D01*
X4745301Y-17558674D02*
X4726253Y-17568198D01*
X4726253Y-17568198D02*
X4716730Y-17577722D01*
X4716730Y-17577722D02*
X4707206Y-17596770D01*
X5059587Y-17682484D02*
X5059587Y-17482484D01*
X5145301Y-17682484D02*
X5145301Y-17577722D01*
X5145301Y-17577722D02*
X5135777Y-17558674D01*
X5135777Y-17558674D02*
X5116730Y-17549150D01*
X5116730Y-17549150D02*
X5088158Y-17549150D01*
X5088158Y-17549150D02*
X5069111Y-17558674D01*
X5069111Y-17558674D02*
X5059587Y-17568198D01*
X5269111Y-17682484D02*
X5250063Y-17672960D01*
X5250063Y-17672960D02*
X5240539Y-17663436D01*
X5240539Y-17663436D02*
X5231015Y-17644389D01*
X5231015Y-17644389D02*
X5231015Y-17587246D01*
X5231015Y-17587246D02*
X5240539Y-17568198D01*
X5240539Y-17568198D02*
X5250063Y-17558674D01*
X5250063Y-17558674D02*
X5269111Y-17549150D01*
X5269111Y-17549150D02*
X5297682Y-17549150D01*
X5297682Y-17549150D02*
X5316730Y-17558674D01*
X5316730Y-17558674D02*
X5326253Y-17568198D01*
X5326253Y-17568198D02*
X5335777Y-17587246D01*
X5335777Y-17587246D02*
X5335777Y-17644389D01*
X5335777Y-17644389D02*
X5326253Y-17663436D01*
X5326253Y-17663436D02*
X5316730Y-17672960D01*
X5316730Y-17672960D02*
X5297682Y-17682484D01*
X5297682Y-17682484D02*
X5269111Y-17682484D01*
X5450063Y-17682484D02*
X5431015Y-17672960D01*
X5431015Y-17672960D02*
X5421492Y-17653912D01*
X5421492Y-17653912D02*
X5421492Y-17482484D01*
X5602444Y-17672960D02*
X5583396Y-17682484D01*
X5583396Y-17682484D02*
X5545301Y-17682484D01*
X5545301Y-17682484D02*
X5526253Y-17672960D01*
X5526253Y-17672960D02*
X5516730Y-17653912D01*
X5516730Y-17653912D02*
X5516730Y-17577722D01*
X5516730Y-17577722D02*
X5526253Y-17558674D01*
X5526253Y-17558674D02*
X5545301Y-17549150D01*
X5545301Y-17549150D02*
X5583396Y-17549150D01*
X5583396Y-17549150D02*
X5602444Y-17558674D01*
X5602444Y-17558674D02*
X5611968Y-17577722D01*
X5611968Y-17577722D02*
X5611968Y-17596770D01*
X5611968Y-17596770D02*
X5516730Y-17615817D01*
X5688158Y-17672960D02*
X5707206Y-17682484D01*
X5707206Y-17682484D02*
X5745301Y-17682484D01*
X5745301Y-17682484D02*
X5764349Y-17672960D01*
X5764349Y-17672960D02*
X5773872Y-17653912D01*
X5773872Y-17653912D02*
X5773872Y-17644389D01*
X5773872Y-17644389D02*
X5764349Y-17625341D01*
X5764349Y-17625341D02*
X5745301Y-17615817D01*
X5745301Y-17615817D02*
X5716730Y-17615817D01*
X5716730Y-17615817D02*
X5697682Y-17606293D01*
X5697682Y-17606293D02*
X5688158Y-17587246D01*
X5688158Y-17587246D02*
X5688158Y-17577722D01*
X5688158Y-17577722D02*
X5697682Y-17558674D01*
X5697682Y-17558674D02*
X5716730Y-17549150D01*
X5716730Y-17549150D02*
X5745301Y-17549150D01*
X5745301Y-17549150D02*
X5764349Y-17558674D01*
X5840539Y-17758674D02*
X5850063Y-17749150D01*
X5850063Y-17749150D02*
X5869111Y-17720579D01*
X5869111Y-17720579D02*
X5878634Y-17701531D01*
X5878634Y-17701531D02*
X5888158Y-17672960D01*
X5888158Y-17672960D02*
X5897682Y-17625341D01*
X5897682Y-17625341D02*
X5897682Y-17587246D01*
X5897682Y-17587246D02*
X5888158Y-17539627D01*
X5888158Y-17539627D02*
X5878634Y-17511055D01*
X5878634Y-17511055D02*
X5869111Y-17492008D01*
X5869111Y-17492008D02*
X5850063Y-17463436D01*
X5850063Y-17463436D02*
X5840539Y-17453912D01*
M02*
