%TF.GenerationSoftware,KiCad,Pcbnew,7.0.7*%
%TF.CreationDate,2023-11-23T18:26:16-07:00*%
%TF.ProjectId,TypestationX - Left,54797065-7374-4617-9469-6f6e58202d20,rev?*%
%TF.SameCoordinates,Original*%
%TF.FileFunction,Legend,Top*%
%TF.FilePolarity,Positive*%
%FSLAX46Y46*%
G04 Gerber Fmt 4.6, Leading zero omitted, Abs format (unit mm)*
G04 Created by KiCad (PCBNEW 7.0.7) date 2023-11-23 18:26:16*
%MOMM*%
%LPD*%
G01*
G04 APERTURE LIST*
%ADD10C,0.300000*%
%ADD11C,0.150000*%
%ADD12C,0.120000*%
%ADD13C,0.381000*%
%ADD14R,1.752600X1.752600*%
%ADD15C,1.752600*%
G04 APERTURE END LIST*
D10*
X115109055Y-118144568D02*
X113609055Y-118144568D01*
X113609055Y-118144568D02*
X113609055Y-117573139D01*
X113609055Y-117573139D02*
X113680484Y-117430282D01*
X113680484Y-117430282D02*
X113751912Y-117358853D01*
X113751912Y-117358853D02*
X113894769Y-117287425D01*
X113894769Y-117287425D02*
X114109055Y-117287425D01*
X114109055Y-117287425D02*
X114251912Y-117358853D01*
X114251912Y-117358853D02*
X114323341Y-117430282D01*
X114323341Y-117430282D02*
X114394769Y-117573139D01*
X114394769Y-117573139D02*
X114394769Y-118144568D01*
X115037627Y-116715996D02*
X115109055Y-116501711D01*
X115109055Y-116501711D02*
X115109055Y-116144568D01*
X115109055Y-116144568D02*
X115037627Y-116001711D01*
X115037627Y-116001711D02*
X114966198Y-115930282D01*
X114966198Y-115930282D02*
X114823341Y-115858853D01*
X114823341Y-115858853D02*
X114680484Y-115858853D01*
X114680484Y-115858853D02*
X114537627Y-115930282D01*
X114537627Y-115930282D02*
X114466198Y-116001711D01*
X114466198Y-116001711D02*
X114394769Y-116144568D01*
X114394769Y-116144568D02*
X114323341Y-116430282D01*
X114323341Y-116430282D02*
X114251912Y-116573139D01*
X114251912Y-116573139D02*
X114180484Y-116644568D01*
X114180484Y-116644568D02*
X114037627Y-116715996D01*
X114037627Y-116715996D02*
X113894769Y-116715996D01*
X113894769Y-116715996D02*
X113751912Y-116644568D01*
X113751912Y-116644568D02*
X113680484Y-116573139D01*
X113680484Y-116573139D02*
X113609055Y-116430282D01*
X113609055Y-116430282D02*
X113609055Y-116073139D01*
X113609055Y-116073139D02*
X113680484Y-115858853D01*
X113751912Y-115287425D02*
X113680484Y-115215997D01*
X113680484Y-115215997D02*
X113609055Y-115073140D01*
X113609055Y-115073140D02*
X113609055Y-114715997D01*
X113609055Y-114715997D02*
X113680484Y-114573140D01*
X113680484Y-114573140D02*
X113751912Y-114501711D01*
X113751912Y-114501711D02*
X113894769Y-114430282D01*
X113894769Y-114430282D02*
X114037627Y-114430282D01*
X114037627Y-114430282D02*
X114251912Y-114501711D01*
X114251912Y-114501711D02*
X115109055Y-115358854D01*
X115109055Y-115358854D02*
X115109055Y-114430282D01*
X114323341Y-112144569D02*
X114323341Y-112644569D01*
X115109055Y-112644569D02*
X113609055Y-112644569D01*
X113609055Y-112644569D02*
X113609055Y-111930283D01*
X115037627Y-110787426D02*
X115109055Y-110930283D01*
X115109055Y-110930283D02*
X115109055Y-111215998D01*
X115109055Y-111215998D02*
X115037627Y-111358855D01*
X115037627Y-111358855D02*
X114894769Y-111430283D01*
X114894769Y-111430283D02*
X114323341Y-111430283D01*
X114323341Y-111430283D02*
X114180484Y-111358855D01*
X114180484Y-111358855D02*
X114109055Y-111215998D01*
X114109055Y-111215998D02*
X114109055Y-110930283D01*
X114109055Y-110930283D02*
X114180484Y-110787426D01*
X114180484Y-110787426D02*
X114323341Y-110715998D01*
X114323341Y-110715998D02*
X114466198Y-110715998D01*
X114466198Y-110715998D02*
X114609055Y-111430283D01*
X115109055Y-110073141D02*
X114109055Y-110073141D01*
X114251912Y-110073141D02*
X114180484Y-110001712D01*
X114180484Y-110001712D02*
X114109055Y-109858855D01*
X114109055Y-109858855D02*
X114109055Y-109644569D01*
X114109055Y-109644569D02*
X114180484Y-109501712D01*
X114180484Y-109501712D02*
X114323341Y-109430284D01*
X114323341Y-109430284D02*
X115109055Y-109430284D01*
X114323341Y-109430284D02*
X114180484Y-109358855D01*
X114180484Y-109358855D02*
X114109055Y-109215998D01*
X114109055Y-109215998D02*
X114109055Y-109001712D01*
X114109055Y-109001712D02*
X114180484Y-108858855D01*
X114180484Y-108858855D02*
X114323341Y-108787426D01*
X114323341Y-108787426D02*
X115109055Y-108787426D01*
X115109055Y-107430284D02*
X114323341Y-107430284D01*
X114323341Y-107430284D02*
X114180484Y-107501712D01*
X114180484Y-107501712D02*
X114109055Y-107644569D01*
X114109055Y-107644569D02*
X114109055Y-107930284D01*
X114109055Y-107930284D02*
X114180484Y-108073141D01*
X115037627Y-107430284D02*
X115109055Y-107573141D01*
X115109055Y-107573141D02*
X115109055Y-107930284D01*
X115109055Y-107930284D02*
X115037627Y-108073141D01*
X115037627Y-108073141D02*
X114894769Y-108144569D01*
X114894769Y-108144569D02*
X114751912Y-108144569D01*
X114751912Y-108144569D02*
X114609055Y-108073141D01*
X114609055Y-108073141D02*
X114537627Y-107930284D01*
X114537627Y-107930284D02*
X114537627Y-107573141D01*
X114537627Y-107573141D02*
X114466198Y-107430284D01*
X115109055Y-106501712D02*
X115037627Y-106644569D01*
X115037627Y-106644569D02*
X114894769Y-106715998D01*
X114894769Y-106715998D02*
X113609055Y-106715998D01*
X115037627Y-105358855D02*
X115109055Y-105501712D01*
X115109055Y-105501712D02*
X115109055Y-105787427D01*
X115109055Y-105787427D02*
X115037627Y-105930284D01*
X115037627Y-105930284D02*
X114894769Y-106001712D01*
X114894769Y-106001712D02*
X114323341Y-106001712D01*
X114323341Y-106001712D02*
X114180484Y-105930284D01*
X114180484Y-105930284D02*
X114109055Y-105787427D01*
X114109055Y-105787427D02*
X114109055Y-105501712D01*
X114109055Y-105501712D02*
X114180484Y-105358855D01*
X114180484Y-105358855D02*
X114323341Y-105287427D01*
X114323341Y-105287427D02*
X114466198Y-105287427D01*
X114466198Y-105287427D02*
X114609055Y-106001712D01*
X115037627Y-102858856D02*
X115109055Y-103001713D01*
X115109055Y-103001713D02*
X115109055Y-103287427D01*
X115109055Y-103287427D02*
X115037627Y-103430284D01*
X115037627Y-103430284D02*
X114966198Y-103501713D01*
X114966198Y-103501713D02*
X114823341Y-103573141D01*
X114823341Y-103573141D02*
X114394769Y-103573141D01*
X114394769Y-103573141D02*
X114251912Y-103501713D01*
X114251912Y-103501713D02*
X114180484Y-103430284D01*
X114180484Y-103430284D02*
X114109055Y-103287427D01*
X114109055Y-103287427D02*
X114109055Y-103001713D01*
X114109055Y-103001713D02*
X114180484Y-102858856D01*
X115109055Y-102001713D02*
X115037627Y-102144570D01*
X115037627Y-102144570D02*
X114966198Y-102215999D01*
X114966198Y-102215999D02*
X114823341Y-102287427D01*
X114823341Y-102287427D02*
X114394769Y-102287427D01*
X114394769Y-102287427D02*
X114251912Y-102215999D01*
X114251912Y-102215999D02*
X114180484Y-102144570D01*
X114180484Y-102144570D02*
X114109055Y-102001713D01*
X114109055Y-102001713D02*
X114109055Y-101787427D01*
X114109055Y-101787427D02*
X114180484Y-101644570D01*
X114180484Y-101644570D02*
X114251912Y-101573142D01*
X114251912Y-101573142D02*
X114394769Y-101501713D01*
X114394769Y-101501713D02*
X114823341Y-101501713D01*
X114823341Y-101501713D02*
X114966198Y-101573142D01*
X114966198Y-101573142D02*
X115037627Y-101644570D01*
X115037627Y-101644570D02*
X115109055Y-101787427D01*
X115109055Y-101787427D02*
X115109055Y-102001713D01*
X114109055Y-100858856D02*
X115109055Y-100858856D01*
X114251912Y-100858856D02*
X114180484Y-100787427D01*
X114180484Y-100787427D02*
X114109055Y-100644570D01*
X114109055Y-100644570D02*
X114109055Y-100430284D01*
X114109055Y-100430284D02*
X114180484Y-100287427D01*
X114180484Y-100287427D02*
X114323341Y-100215999D01*
X114323341Y-100215999D02*
X115109055Y-100215999D01*
X114109055Y-99501713D02*
X115109055Y-99501713D01*
X114251912Y-99501713D02*
X114180484Y-99430284D01*
X114180484Y-99430284D02*
X114109055Y-99287427D01*
X114109055Y-99287427D02*
X114109055Y-99073141D01*
X114109055Y-99073141D02*
X114180484Y-98930284D01*
X114180484Y-98930284D02*
X114323341Y-98858856D01*
X114323341Y-98858856D02*
X115109055Y-98858856D01*
X115037627Y-97573141D02*
X115109055Y-97715998D01*
X115109055Y-97715998D02*
X115109055Y-98001713D01*
X115109055Y-98001713D02*
X115037627Y-98144570D01*
X115037627Y-98144570D02*
X114894769Y-98215998D01*
X114894769Y-98215998D02*
X114323341Y-98215998D01*
X114323341Y-98215998D02*
X114180484Y-98144570D01*
X114180484Y-98144570D02*
X114109055Y-98001713D01*
X114109055Y-98001713D02*
X114109055Y-97715998D01*
X114109055Y-97715998D02*
X114180484Y-97573141D01*
X114180484Y-97573141D02*
X114323341Y-97501713D01*
X114323341Y-97501713D02*
X114466198Y-97501713D01*
X114466198Y-97501713D02*
X114609055Y-98215998D01*
X115037627Y-96215999D02*
X115109055Y-96358856D01*
X115109055Y-96358856D02*
X115109055Y-96644570D01*
X115109055Y-96644570D02*
X115037627Y-96787427D01*
X115037627Y-96787427D02*
X114966198Y-96858856D01*
X114966198Y-96858856D02*
X114823341Y-96930284D01*
X114823341Y-96930284D02*
X114394769Y-96930284D01*
X114394769Y-96930284D02*
X114251912Y-96858856D01*
X114251912Y-96858856D02*
X114180484Y-96787427D01*
X114180484Y-96787427D02*
X114109055Y-96644570D01*
X114109055Y-96644570D02*
X114109055Y-96358856D01*
X114109055Y-96358856D02*
X114180484Y-96215999D01*
X114109055Y-95787427D02*
X114109055Y-95215999D01*
X113609055Y-95573142D02*
X114894769Y-95573142D01*
X114894769Y-95573142D02*
X115037627Y-95501713D01*
X115037627Y-95501713D02*
X115109055Y-95358856D01*
X115109055Y-95358856D02*
X115109055Y-95215999D01*
X115109055Y-94501713D02*
X115037627Y-94644570D01*
X115037627Y-94644570D02*
X114966198Y-94715999D01*
X114966198Y-94715999D02*
X114823341Y-94787427D01*
X114823341Y-94787427D02*
X114394769Y-94787427D01*
X114394769Y-94787427D02*
X114251912Y-94715999D01*
X114251912Y-94715999D02*
X114180484Y-94644570D01*
X114180484Y-94644570D02*
X114109055Y-94501713D01*
X114109055Y-94501713D02*
X114109055Y-94287427D01*
X114109055Y-94287427D02*
X114180484Y-94144570D01*
X114180484Y-94144570D02*
X114251912Y-94073142D01*
X114251912Y-94073142D02*
X114394769Y-94001713D01*
X114394769Y-94001713D02*
X114823341Y-94001713D01*
X114823341Y-94001713D02*
X114966198Y-94073142D01*
X114966198Y-94073142D02*
X115037627Y-94144570D01*
X115037627Y-94144570D02*
X115109055Y-94287427D01*
X115109055Y-94287427D02*
X115109055Y-94501713D01*
X115109055Y-93358856D02*
X114109055Y-93358856D01*
X114394769Y-93358856D02*
X114251912Y-93287427D01*
X114251912Y-93287427D02*
X114180484Y-93215999D01*
X114180484Y-93215999D02*
X114109055Y-93073141D01*
X114109055Y-93073141D02*
X114109055Y-92930284D01*
X116024055Y-117858853D02*
X116024055Y-117573139D01*
X116024055Y-117573139D02*
X116095484Y-117430282D01*
X116095484Y-117430282D02*
X116238341Y-117287425D01*
X116238341Y-117287425D02*
X116524055Y-117215996D01*
X116524055Y-117215996D02*
X117024055Y-117215996D01*
X117024055Y-117215996D02*
X117309769Y-117287425D01*
X117309769Y-117287425D02*
X117452627Y-117430282D01*
X117452627Y-117430282D02*
X117524055Y-117573139D01*
X117524055Y-117573139D02*
X117524055Y-117858853D01*
X117524055Y-117858853D02*
X117452627Y-118001711D01*
X117452627Y-118001711D02*
X117309769Y-118144568D01*
X117309769Y-118144568D02*
X117024055Y-118215996D01*
X117024055Y-118215996D02*
X116524055Y-118215996D01*
X116524055Y-118215996D02*
X116238341Y-118144568D01*
X116238341Y-118144568D02*
X116095484Y-118001711D01*
X116095484Y-118001711D02*
X116024055Y-117858853D01*
X116524055Y-116573139D02*
X117524055Y-116573139D01*
X116666912Y-116573139D02*
X116595484Y-116501710D01*
X116595484Y-116501710D02*
X116524055Y-116358853D01*
X116524055Y-116358853D02*
X116524055Y-116144567D01*
X116524055Y-116144567D02*
X116595484Y-116001710D01*
X116595484Y-116001710D02*
X116738341Y-115930282D01*
X116738341Y-115930282D02*
X117524055Y-115930282D01*
X117524055Y-114073139D02*
X116024055Y-114073139D01*
X116595484Y-114073139D02*
X116524055Y-113930282D01*
X116524055Y-113930282D02*
X116524055Y-113644567D01*
X116524055Y-113644567D02*
X116595484Y-113501710D01*
X116595484Y-113501710D02*
X116666912Y-113430282D01*
X116666912Y-113430282D02*
X116809769Y-113358853D01*
X116809769Y-113358853D02*
X117238341Y-113358853D01*
X117238341Y-113358853D02*
X117381198Y-113430282D01*
X117381198Y-113430282D02*
X117452627Y-113501710D01*
X117452627Y-113501710D02*
X117524055Y-113644567D01*
X117524055Y-113644567D02*
X117524055Y-113930282D01*
X117524055Y-113930282D02*
X117452627Y-114073139D01*
X117524055Y-112073139D02*
X116738341Y-112073139D01*
X116738341Y-112073139D02*
X116595484Y-112144567D01*
X116595484Y-112144567D02*
X116524055Y-112287424D01*
X116524055Y-112287424D02*
X116524055Y-112573139D01*
X116524055Y-112573139D02*
X116595484Y-112715996D01*
X117452627Y-112073139D02*
X117524055Y-112215996D01*
X117524055Y-112215996D02*
X117524055Y-112573139D01*
X117524055Y-112573139D02*
X117452627Y-112715996D01*
X117452627Y-112715996D02*
X117309769Y-112787424D01*
X117309769Y-112787424D02*
X117166912Y-112787424D01*
X117166912Y-112787424D02*
X117024055Y-112715996D01*
X117024055Y-112715996D02*
X116952627Y-112573139D01*
X116952627Y-112573139D02*
X116952627Y-112215996D01*
X116952627Y-112215996D02*
X116881198Y-112073139D01*
X117452627Y-110715996D02*
X117524055Y-110858853D01*
X117524055Y-110858853D02*
X117524055Y-111144567D01*
X117524055Y-111144567D02*
X117452627Y-111287424D01*
X117452627Y-111287424D02*
X117381198Y-111358853D01*
X117381198Y-111358853D02*
X117238341Y-111430281D01*
X117238341Y-111430281D02*
X116809769Y-111430281D01*
X116809769Y-111430281D02*
X116666912Y-111358853D01*
X116666912Y-111358853D02*
X116595484Y-111287424D01*
X116595484Y-111287424D02*
X116524055Y-111144567D01*
X116524055Y-111144567D02*
X116524055Y-110858853D01*
X116524055Y-110858853D02*
X116595484Y-110715996D01*
X117524055Y-110073139D02*
X116024055Y-110073139D01*
X116952627Y-109930282D02*
X117524055Y-109501710D01*
X116524055Y-109501710D02*
X117095484Y-110073139D01*
X117452627Y-107787424D02*
X117524055Y-107644567D01*
X117524055Y-107644567D02*
X117524055Y-107358853D01*
X117524055Y-107358853D02*
X117452627Y-107215996D01*
X117452627Y-107215996D02*
X117309769Y-107144567D01*
X117309769Y-107144567D02*
X117238341Y-107144567D01*
X117238341Y-107144567D02*
X117095484Y-107215996D01*
X117095484Y-107215996D02*
X117024055Y-107358853D01*
X117024055Y-107358853D02*
X117024055Y-107573139D01*
X117024055Y-107573139D02*
X116952627Y-107715996D01*
X116952627Y-107715996D02*
X116809769Y-107787424D01*
X116809769Y-107787424D02*
X116738341Y-107787424D01*
X116738341Y-107787424D02*
X116595484Y-107715996D01*
X116595484Y-107715996D02*
X116524055Y-107573139D01*
X116524055Y-107573139D02*
X116524055Y-107358853D01*
X116524055Y-107358853D02*
X116595484Y-107215996D01*
X117524055Y-106501710D02*
X116524055Y-106501710D01*
X116024055Y-106501710D02*
X116095484Y-106573138D01*
X116095484Y-106573138D02*
X116166912Y-106501710D01*
X116166912Y-106501710D02*
X116095484Y-106430281D01*
X116095484Y-106430281D02*
X116024055Y-106501710D01*
X116024055Y-106501710D02*
X116166912Y-106501710D01*
X117524055Y-105144567D02*
X116024055Y-105144567D01*
X117452627Y-105144567D02*
X117524055Y-105287424D01*
X117524055Y-105287424D02*
X117524055Y-105573138D01*
X117524055Y-105573138D02*
X117452627Y-105715995D01*
X117452627Y-105715995D02*
X117381198Y-105787424D01*
X117381198Y-105787424D02*
X117238341Y-105858852D01*
X117238341Y-105858852D02*
X116809769Y-105858852D01*
X116809769Y-105858852D02*
X116666912Y-105787424D01*
X116666912Y-105787424D02*
X116595484Y-105715995D01*
X116595484Y-105715995D02*
X116524055Y-105573138D01*
X116524055Y-105573138D02*
X116524055Y-105287424D01*
X116524055Y-105287424D02*
X116595484Y-105144567D01*
X117452627Y-103858852D02*
X117524055Y-104001709D01*
X117524055Y-104001709D02*
X117524055Y-104287424D01*
X117524055Y-104287424D02*
X117452627Y-104430281D01*
X117452627Y-104430281D02*
X117309769Y-104501709D01*
X117309769Y-104501709D02*
X116738341Y-104501709D01*
X116738341Y-104501709D02*
X116595484Y-104430281D01*
X116595484Y-104430281D02*
X116524055Y-104287424D01*
X116524055Y-104287424D02*
X116524055Y-104001709D01*
X116524055Y-104001709D02*
X116595484Y-103858852D01*
X116595484Y-103858852D02*
X116738341Y-103787424D01*
X116738341Y-103787424D02*
X116881198Y-103787424D01*
X116881198Y-103787424D02*
X117024055Y-104501709D01*
X119774055Y-82894568D02*
X118274055Y-82894568D01*
X118274055Y-82894568D02*
X119345484Y-82394568D01*
X119345484Y-82394568D02*
X118274055Y-81894568D01*
X118274055Y-81894568D02*
X119774055Y-81894568D01*
X119631198Y-80323139D02*
X119702627Y-80394567D01*
X119702627Y-80394567D02*
X119774055Y-80608853D01*
X119774055Y-80608853D02*
X119774055Y-80751710D01*
X119774055Y-80751710D02*
X119702627Y-80965996D01*
X119702627Y-80965996D02*
X119559769Y-81108853D01*
X119559769Y-81108853D02*
X119416912Y-81180282D01*
X119416912Y-81180282D02*
X119131198Y-81251710D01*
X119131198Y-81251710D02*
X118916912Y-81251710D01*
X118916912Y-81251710D02*
X118631198Y-81180282D01*
X118631198Y-81180282D02*
X118488341Y-81108853D01*
X118488341Y-81108853D02*
X118345484Y-80965996D01*
X118345484Y-80965996D02*
X118274055Y-80751710D01*
X118274055Y-80751710D02*
X118274055Y-80608853D01*
X118274055Y-80608853D02*
X118345484Y-80394567D01*
X118345484Y-80394567D02*
X118416912Y-80323139D01*
X118274055Y-79680282D02*
X119488341Y-79680282D01*
X119488341Y-79680282D02*
X119631198Y-79608853D01*
X119631198Y-79608853D02*
X119702627Y-79537425D01*
X119702627Y-79537425D02*
X119774055Y-79394567D01*
X119774055Y-79394567D02*
X119774055Y-79108853D01*
X119774055Y-79108853D02*
X119702627Y-78965996D01*
X119702627Y-78965996D02*
X119631198Y-78894567D01*
X119631198Y-78894567D02*
X119488341Y-78823139D01*
X119488341Y-78823139D02*
X118274055Y-78823139D01*
X118274055Y-77180281D02*
X118274055Y-76323139D01*
X119774055Y-76751710D02*
X118274055Y-76751710D01*
X119774055Y-75823139D02*
X118274055Y-75823139D01*
X118988341Y-75823139D02*
X118988341Y-74965996D01*
X119774055Y-74965996D02*
X118274055Y-74965996D01*
X119774055Y-74251710D02*
X118274055Y-74251710D01*
X119702627Y-73608852D02*
X119774055Y-73394567D01*
X119774055Y-73394567D02*
X119774055Y-73037424D01*
X119774055Y-73037424D02*
X119702627Y-72894567D01*
X119702627Y-72894567D02*
X119631198Y-72823138D01*
X119631198Y-72823138D02*
X119488341Y-72751709D01*
X119488341Y-72751709D02*
X119345484Y-72751709D01*
X119345484Y-72751709D02*
X119202627Y-72823138D01*
X119202627Y-72823138D02*
X119131198Y-72894567D01*
X119131198Y-72894567D02*
X119059769Y-73037424D01*
X119059769Y-73037424D02*
X118988341Y-73323138D01*
X118988341Y-73323138D02*
X118916912Y-73465995D01*
X118916912Y-73465995D02*
X118845484Y-73537424D01*
X118845484Y-73537424D02*
X118702627Y-73608852D01*
X118702627Y-73608852D02*
X118559769Y-73608852D01*
X118559769Y-73608852D02*
X118416912Y-73537424D01*
X118416912Y-73537424D02*
X118345484Y-73465995D01*
X118345484Y-73465995D02*
X118274055Y-73323138D01*
X118274055Y-73323138D02*
X118274055Y-72965995D01*
X118274055Y-72965995D02*
X118345484Y-72751709D01*
X119702627Y-71037424D02*
X119774055Y-70823139D01*
X119774055Y-70823139D02*
X119774055Y-70465996D01*
X119774055Y-70465996D02*
X119702627Y-70323139D01*
X119702627Y-70323139D02*
X119631198Y-70251710D01*
X119631198Y-70251710D02*
X119488341Y-70180281D01*
X119488341Y-70180281D02*
X119345484Y-70180281D01*
X119345484Y-70180281D02*
X119202627Y-70251710D01*
X119202627Y-70251710D02*
X119131198Y-70323139D01*
X119131198Y-70323139D02*
X119059769Y-70465996D01*
X119059769Y-70465996D02*
X118988341Y-70751710D01*
X118988341Y-70751710D02*
X118916912Y-70894567D01*
X118916912Y-70894567D02*
X118845484Y-70965996D01*
X118845484Y-70965996D02*
X118702627Y-71037424D01*
X118702627Y-71037424D02*
X118559769Y-71037424D01*
X118559769Y-71037424D02*
X118416912Y-70965996D01*
X118416912Y-70965996D02*
X118345484Y-70894567D01*
X118345484Y-70894567D02*
X118274055Y-70751710D01*
X118274055Y-70751710D02*
X118274055Y-70394567D01*
X118274055Y-70394567D02*
X118345484Y-70180281D01*
X119774055Y-69537425D02*
X118274055Y-69537425D01*
X119774055Y-68823139D02*
X118274055Y-68823139D01*
X118274055Y-68823139D02*
X118274055Y-68465996D01*
X118274055Y-68465996D02*
X118345484Y-68251710D01*
X118345484Y-68251710D02*
X118488341Y-68108853D01*
X118488341Y-68108853D02*
X118631198Y-68037424D01*
X118631198Y-68037424D02*
X118916912Y-67965996D01*
X118916912Y-67965996D02*
X119131198Y-67965996D01*
X119131198Y-67965996D02*
X119416912Y-68037424D01*
X119416912Y-68037424D02*
X119559769Y-68108853D01*
X119559769Y-68108853D02*
X119702627Y-68251710D01*
X119702627Y-68251710D02*
X119774055Y-68465996D01*
X119774055Y-68465996D02*
X119774055Y-68823139D01*
X118988341Y-67323139D02*
X118988341Y-66823139D01*
X119774055Y-66608853D02*
X119774055Y-67323139D01*
X119774055Y-67323139D02*
X118274055Y-67323139D01*
X118274055Y-67323139D02*
X118274055Y-66608853D01*
X118274055Y-64823139D02*
X119488341Y-64823139D01*
X119488341Y-64823139D02*
X119631198Y-64751710D01*
X119631198Y-64751710D02*
X119702627Y-64680282D01*
X119702627Y-64680282D02*
X119774055Y-64537424D01*
X119774055Y-64537424D02*
X119774055Y-64251710D01*
X119774055Y-64251710D02*
X119702627Y-64108853D01*
X119702627Y-64108853D02*
X119631198Y-64037424D01*
X119631198Y-64037424D02*
X119488341Y-63965996D01*
X119488341Y-63965996D02*
X118274055Y-63965996D01*
X119774055Y-63251710D02*
X118274055Y-63251710D01*
X118274055Y-63251710D02*
X118274055Y-62680281D01*
X118274055Y-62680281D02*
X118345484Y-62537424D01*
X118345484Y-62537424D02*
X118416912Y-62465995D01*
X118416912Y-62465995D02*
X118559769Y-62394567D01*
X118559769Y-62394567D02*
X118774055Y-62394567D01*
X118774055Y-62394567D02*
X118916912Y-62465995D01*
X118916912Y-62465995D02*
X118988341Y-62537424D01*
X118988341Y-62537424D02*
X119059769Y-62680281D01*
X119059769Y-62680281D02*
X119059769Y-63251710D01*
D11*
X61085476Y-63010831D02*
X61228333Y-63058450D01*
X61228333Y-63058450D02*
X61466428Y-63058450D01*
X61466428Y-63058450D02*
X61561666Y-63010831D01*
X61561666Y-63010831D02*
X61609285Y-62963211D01*
X61609285Y-62963211D02*
X61656904Y-62867973D01*
X61656904Y-62867973D02*
X61656904Y-62772735D01*
X61656904Y-62772735D02*
X61609285Y-62677497D01*
X61609285Y-62677497D02*
X61561666Y-62629878D01*
X61561666Y-62629878D02*
X61466428Y-62582259D01*
X61466428Y-62582259D02*
X61275952Y-62534640D01*
X61275952Y-62534640D02*
X61180714Y-62487021D01*
X61180714Y-62487021D02*
X61133095Y-62439402D01*
X61133095Y-62439402D02*
X61085476Y-62344164D01*
X61085476Y-62344164D02*
X61085476Y-62248926D01*
X61085476Y-62248926D02*
X61133095Y-62153688D01*
X61133095Y-62153688D02*
X61180714Y-62106069D01*
X61180714Y-62106069D02*
X61275952Y-62058450D01*
X61275952Y-62058450D02*
X61514047Y-62058450D01*
X61514047Y-62058450D02*
X61656904Y-62106069D01*
X62228333Y-62487021D02*
X62133095Y-62439402D01*
X62133095Y-62439402D02*
X62085476Y-62391783D01*
X62085476Y-62391783D02*
X62037857Y-62296545D01*
X62037857Y-62296545D02*
X62037857Y-62248926D01*
X62037857Y-62248926D02*
X62085476Y-62153688D01*
X62085476Y-62153688D02*
X62133095Y-62106069D01*
X62133095Y-62106069D02*
X62228333Y-62058450D01*
X62228333Y-62058450D02*
X62418809Y-62058450D01*
X62418809Y-62058450D02*
X62514047Y-62106069D01*
X62514047Y-62106069D02*
X62561666Y-62153688D01*
X62561666Y-62153688D02*
X62609285Y-62248926D01*
X62609285Y-62248926D02*
X62609285Y-62296545D01*
X62609285Y-62296545D02*
X62561666Y-62391783D01*
X62561666Y-62391783D02*
X62514047Y-62439402D01*
X62514047Y-62439402D02*
X62418809Y-62487021D01*
X62418809Y-62487021D02*
X62228333Y-62487021D01*
X62228333Y-62487021D02*
X62133095Y-62534640D01*
X62133095Y-62534640D02*
X62085476Y-62582259D01*
X62085476Y-62582259D02*
X62037857Y-62677497D01*
X62037857Y-62677497D02*
X62037857Y-62867973D01*
X62037857Y-62867973D02*
X62085476Y-62963211D01*
X62085476Y-62963211D02*
X62133095Y-63010831D01*
X62133095Y-63010831D02*
X62228333Y-63058450D01*
X62228333Y-63058450D02*
X62418809Y-63058450D01*
X62418809Y-63058450D02*
X62514047Y-63010831D01*
X62514047Y-63010831D02*
X62561666Y-62963211D01*
X62561666Y-62963211D02*
X62609285Y-62867973D01*
X62609285Y-62867973D02*
X62609285Y-62677497D01*
X62609285Y-62677497D02*
X62561666Y-62582259D01*
X62561666Y-62582259D02*
X62514047Y-62534640D01*
X62514047Y-62534640D02*
X62418809Y-62487021D01*
X79609286Y-69010831D02*
X79752143Y-69058450D01*
X79752143Y-69058450D02*
X79990238Y-69058450D01*
X79990238Y-69058450D02*
X80085476Y-69010831D01*
X80085476Y-69010831D02*
X80133095Y-68963211D01*
X80133095Y-68963211D02*
X80180714Y-68867973D01*
X80180714Y-68867973D02*
X80180714Y-68772735D01*
X80180714Y-68772735D02*
X80133095Y-68677497D01*
X80133095Y-68677497D02*
X80085476Y-68629878D01*
X80085476Y-68629878D02*
X79990238Y-68582259D01*
X79990238Y-68582259D02*
X79799762Y-68534640D01*
X79799762Y-68534640D02*
X79704524Y-68487021D01*
X79704524Y-68487021D02*
X79656905Y-68439402D01*
X79656905Y-68439402D02*
X79609286Y-68344164D01*
X79609286Y-68344164D02*
X79609286Y-68248926D01*
X79609286Y-68248926D02*
X79656905Y-68153688D01*
X79656905Y-68153688D02*
X79704524Y-68106069D01*
X79704524Y-68106069D02*
X79799762Y-68058450D01*
X79799762Y-68058450D02*
X80037857Y-68058450D01*
X80037857Y-68058450D02*
X80180714Y-68106069D01*
X81133095Y-69058450D02*
X80561667Y-69058450D01*
X80847381Y-69058450D02*
X80847381Y-68058450D01*
X80847381Y-68058450D02*
X80752143Y-68201307D01*
X80752143Y-68201307D02*
X80656905Y-68296545D01*
X80656905Y-68296545D02*
X80561667Y-68344164D01*
X82085476Y-69058450D02*
X81514048Y-69058450D01*
X81799762Y-69058450D02*
X81799762Y-68058450D01*
X81799762Y-68058450D02*
X81704524Y-68201307D01*
X81704524Y-68201307D02*
X81609286Y-68296545D01*
X81609286Y-68296545D02*
X81514048Y-68344164D01*
X19990408Y-78777675D02*
X20136872Y-78812662D01*
X20136872Y-78812662D02*
X20374061Y-78791911D01*
X20374061Y-78791911D02*
X20464786Y-78736173D01*
X20464786Y-78736173D02*
X20508074Y-78684585D01*
X20508074Y-78684585D02*
X20547211Y-78585559D01*
X20547211Y-78585559D02*
X20538911Y-78490683D01*
X20538911Y-78490683D02*
X20483172Y-78399957D01*
X20483172Y-78399957D02*
X20431584Y-78356670D01*
X20431584Y-78356670D02*
X20332558Y-78317533D01*
X20332558Y-78317533D02*
X20138656Y-78286696D01*
X20138656Y-78286696D02*
X20039630Y-78247559D01*
X20039630Y-78247559D02*
X19988042Y-78204271D01*
X19988042Y-78204271D02*
X19932304Y-78113546D01*
X19932304Y-78113546D02*
X19924003Y-78018670D01*
X19924003Y-78018670D02*
X19963141Y-77919644D01*
X19963141Y-77919644D02*
X20006428Y-77868056D01*
X20006428Y-77868056D02*
X20097154Y-77812317D01*
X20097154Y-77812317D02*
X20334343Y-77791566D01*
X20334343Y-77791566D02*
X20480807Y-77826553D01*
X20864460Y-77840789D02*
X20907747Y-77789201D01*
X20907747Y-77789201D02*
X20998473Y-77733462D01*
X20998473Y-77733462D02*
X21235662Y-77712711D01*
X21235662Y-77712711D02*
X21334688Y-77751848D01*
X21334688Y-77751848D02*
X21386276Y-77795136D01*
X21386276Y-77795136D02*
X21442014Y-77885861D01*
X21442014Y-77885861D02*
X21450315Y-77980737D01*
X21450315Y-77980737D02*
X21415328Y-78127201D01*
X21415328Y-78127201D02*
X20895877Y-78746258D01*
X20895877Y-78746258D02*
X21512569Y-78692304D01*
X42085476Y-68010831D02*
X42228333Y-68058450D01*
X42228333Y-68058450D02*
X42466428Y-68058450D01*
X42466428Y-68058450D02*
X42561666Y-68010831D01*
X42561666Y-68010831D02*
X42609285Y-67963211D01*
X42609285Y-67963211D02*
X42656904Y-67867973D01*
X42656904Y-67867973D02*
X42656904Y-67772735D01*
X42656904Y-67772735D02*
X42609285Y-67677497D01*
X42609285Y-67677497D02*
X42561666Y-67629878D01*
X42561666Y-67629878D02*
X42466428Y-67582259D01*
X42466428Y-67582259D02*
X42275952Y-67534640D01*
X42275952Y-67534640D02*
X42180714Y-67487021D01*
X42180714Y-67487021D02*
X42133095Y-67439402D01*
X42133095Y-67439402D02*
X42085476Y-67344164D01*
X42085476Y-67344164D02*
X42085476Y-67248926D01*
X42085476Y-67248926D02*
X42133095Y-67153688D01*
X42133095Y-67153688D02*
X42180714Y-67106069D01*
X42180714Y-67106069D02*
X42275952Y-67058450D01*
X42275952Y-67058450D02*
X42514047Y-67058450D01*
X42514047Y-67058450D02*
X42656904Y-67106069D01*
X43561666Y-67058450D02*
X43085476Y-67058450D01*
X43085476Y-67058450D02*
X43037857Y-67534640D01*
X43037857Y-67534640D02*
X43085476Y-67487021D01*
X43085476Y-67487021D02*
X43180714Y-67439402D01*
X43180714Y-67439402D02*
X43418809Y-67439402D01*
X43418809Y-67439402D02*
X43514047Y-67487021D01*
X43514047Y-67487021D02*
X43561666Y-67534640D01*
X43561666Y-67534640D02*
X43609285Y-67629878D01*
X43609285Y-67629878D02*
X43609285Y-67867973D01*
X43609285Y-67867973D02*
X43561666Y-67963211D01*
X43561666Y-67963211D02*
X43514047Y-68010831D01*
X43514047Y-68010831D02*
X43418809Y-68058450D01*
X43418809Y-68058450D02*
X43180714Y-68058450D01*
X43180714Y-68058450D02*
X43085476Y-68010831D01*
X43085476Y-68010831D02*
X43037857Y-67963211D01*
X42085476Y-87010831D02*
X42228333Y-87058450D01*
X42228333Y-87058450D02*
X42466428Y-87058450D01*
X42466428Y-87058450D02*
X42561666Y-87010831D01*
X42561666Y-87010831D02*
X42609285Y-86963211D01*
X42609285Y-86963211D02*
X42656904Y-86867973D01*
X42656904Y-86867973D02*
X42656904Y-86772735D01*
X42656904Y-86772735D02*
X42609285Y-86677497D01*
X42609285Y-86677497D02*
X42561666Y-86629878D01*
X42561666Y-86629878D02*
X42466428Y-86582259D01*
X42466428Y-86582259D02*
X42275952Y-86534640D01*
X42275952Y-86534640D02*
X42180714Y-86487021D01*
X42180714Y-86487021D02*
X42133095Y-86439402D01*
X42133095Y-86439402D02*
X42085476Y-86344164D01*
X42085476Y-86344164D02*
X42085476Y-86248926D01*
X42085476Y-86248926D02*
X42133095Y-86153688D01*
X42133095Y-86153688D02*
X42180714Y-86106069D01*
X42180714Y-86106069D02*
X42275952Y-86058450D01*
X42275952Y-86058450D02*
X42514047Y-86058450D01*
X42514047Y-86058450D02*
X42656904Y-86106069D01*
X43514047Y-86058450D02*
X43323571Y-86058450D01*
X43323571Y-86058450D02*
X43228333Y-86106069D01*
X43228333Y-86106069D02*
X43180714Y-86153688D01*
X43180714Y-86153688D02*
X43085476Y-86296545D01*
X43085476Y-86296545D02*
X43037857Y-86487021D01*
X43037857Y-86487021D02*
X43037857Y-86867973D01*
X43037857Y-86867973D02*
X43085476Y-86963211D01*
X43085476Y-86963211D02*
X43133095Y-87010831D01*
X43133095Y-87010831D02*
X43228333Y-87058450D01*
X43228333Y-87058450D02*
X43418809Y-87058450D01*
X43418809Y-87058450D02*
X43514047Y-87010831D01*
X43514047Y-87010831D02*
X43561666Y-86963211D01*
X43561666Y-86963211D02*
X43609285Y-86867973D01*
X43609285Y-86867973D02*
X43609285Y-86629878D01*
X43609285Y-86629878D02*
X43561666Y-86534640D01*
X43561666Y-86534640D02*
X43514047Y-86487021D01*
X43514047Y-86487021D02*
X43418809Y-86439402D01*
X43418809Y-86439402D02*
X43228333Y-86439402D01*
X43228333Y-86439402D02*
X43133095Y-86487021D01*
X43133095Y-86487021D02*
X43085476Y-86534640D01*
X43085476Y-86534640D02*
X43037857Y-86629878D01*
X18353131Y-59807910D02*
X18499595Y-59842897D01*
X18499595Y-59842897D02*
X18736784Y-59822146D01*
X18736784Y-59822146D02*
X18827509Y-59766408D01*
X18827509Y-59766408D02*
X18870797Y-59714820D01*
X18870797Y-59714820D02*
X18909934Y-59615794D01*
X18909934Y-59615794D02*
X18901634Y-59520918D01*
X18901634Y-59520918D02*
X18845895Y-59430192D01*
X18845895Y-59430192D02*
X18794307Y-59386905D01*
X18794307Y-59386905D02*
X18695281Y-59347768D01*
X18695281Y-59347768D02*
X18501379Y-59316931D01*
X18501379Y-59316931D02*
X18402353Y-59277794D01*
X18402353Y-59277794D02*
X18350765Y-59234506D01*
X18350765Y-59234506D02*
X18295027Y-59143781D01*
X18295027Y-59143781D02*
X18286726Y-59048905D01*
X18286726Y-59048905D02*
X18325864Y-58949879D01*
X18325864Y-58949879D02*
X18369151Y-58898291D01*
X18369151Y-58898291D02*
X18459877Y-58842552D01*
X18459877Y-58842552D02*
X18697066Y-58821801D01*
X18697066Y-58821801D02*
X18843530Y-58856788D01*
X19875292Y-59722539D02*
X19306038Y-59772343D01*
X19590665Y-59747441D02*
X19503509Y-58751246D01*
X19503509Y-58751246D02*
X19421084Y-58901860D01*
X19421084Y-58901860D02*
X19334509Y-59005037D01*
X19334509Y-59005037D02*
X19243784Y-59060775D01*
X61085476Y-44010831D02*
X61228333Y-44058450D01*
X61228333Y-44058450D02*
X61466428Y-44058450D01*
X61466428Y-44058450D02*
X61561666Y-44010831D01*
X61561666Y-44010831D02*
X61609285Y-43963211D01*
X61609285Y-43963211D02*
X61656904Y-43867973D01*
X61656904Y-43867973D02*
X61656904Y-43772735D01*
X61656904Y-43772735D02*
X61609285Y-43677497D01*
X61609285Y-43677497D02*
X61561666Y-43629878D01*
X61561666Y-43629878D02*
X61466428Y-43582259D01*
X61466428Y-43582259D02*
X61275952Y-43534640D01*
X61275952Y-43534640D02*
X61180714Y-43487021D01*
X61180714Y-43487021D02*
X61133095Y-43439402D01*
X61133095Y-43439402D02*
X61085476Y-43344164D01*
X61085476Y-43344164D02*
X61085476Y-43248926D01*
X61085476Y-43248926D02*
X61133095Y-43153688D01*
X61133095Y-43153688D02*
X61180714Y-43106069D01*
X61180714Y-43106069D02*
X61275952Y-43058450D01*
X61275952Y-43058450D02*
X61514047Y-43058450D01*
X61514047Y-43058450D02*
X61656904Y-43106069D01*
X61990238Y-43058450D02*
X62656904Y-43058450D01*
X62656904Y-43058450D02*
X62228333Y-44058450D01*
X83404679Y-122911417D02*
X83541776Y-122973707D01*
X83541776Y-122973707D02*
X83778567Y-122998595D01*
X83778567Y-122998595D02*
X83878261Y-122961192D01*
X83878261Y-122961192D02*
X83930597Y-122918811D01*
X83930597Y-122918811D02*
X83987910Y-122829073D01*
X83987910Y-122829073D02*
X83997865Y-122734356D01*
X83997865Y-122734356D02*
X83960462Y-122634662D01*
X83960462Y-122634662D02*
X83918081Y-122582327D01*
X83918081Y-122582327D02*
X83828343Y-122525013D01*
X83828343Y-122525013D02*
X83643887Y-122457745D01*
X83643887Y-122457745D02*
X83554148Y-122400432D01*
X83554148Y-122400432D02*
X83511768Y-122348096D01*
X83511768Y-122348096D02*
X83474365Y-122248402D01*
X83474365Y-122248402D02*
X83484320Y-122153686D01*
X83484320Y-122153686D02*
X83541633Y-122063947D01*
X83541633Y-122063947D02*
X83593969Y-122021566D01*
X83593969Y-122021566D02*
X83693663Y-121984163D01*
X83693663Y-121984163D02*
X83930454Y-122009051D01*
X83930454Y-122009051D02*
X84067551Y-122071342D01*
X84915164Y-123118056D02*
X84346865Y-123058326D01*
X84631014Y-123088191D02*
X84735543Y-122093669D01*
X84735543Y-122093669D02*
X84625894Y-122225789D01*
X84625894Y-122225789D02*
X84521222Y-122310550D01*
X84521222Y-122310550D02*
X84421529Y-122347953D01*
X85872139Y-122213130D02*
X85682707Y-122193220D01*
X85682707Y-122193220D02*
X85583013Y-122230623D01*
X85583013Y-122230623D02*
X85530677Y-122273004D01*
X85530677Y-122273004D02*
X85421028Y-122405123D01*
X85421028Y-122405123D02*
X85353760Y-122589578D01*
X85353760Y-122589578D02*
X85313939Y-122968444D01*
X85313939Y-122968444D02*
X85351342Y-123068138D01*
X85351342Y-123068138D02*
X85393723Y-123120474D01*
X85393723Y-123120474D02*
X85483462Y-123177787D01*
X85483462Y-123177787D02*
X85672895Y-123197697D01*
X85672895Y-123197697D02*
X85772588Y-123160294D01*
X85772588Y-123160294D02*
X85824924Y-123117913D01*
X85824924Y-123117913D02*
X85882237Y-123028175D01*
X85882237Y-123028175D02*
X85907125Y-122791384D01*
X85907125Y-122791384D02*
X85869722Y-122691690D01*
X85869722Y-122691690D02*
X85827341Y-122639354D01*
X85827341Y-122639354D02*
X85737603Y-122582041D01*
X85737603Y-122582041D02*
X85548170Y-122562130D01*
X85548170Y-122562130D02*
X85448476Y-122599534D01*
X85448476Y-122599534D02*
X85396140Y-122641914D01*
X85396140Y-122641914D02*
X85338827Y-122731653D01*
X79609286Y-50010831D02*
X79752143Y-50058450D01*
X79752143Y-50058450D02*
X79990238Y-50058450D01*
X79990238Y-50058450D02*
X80085476Y-50010831D01*
X80085476Y-50010831D02*
X80133095Y-49963211D01*
X80133095Y-49963211D02*
X80180714Y-49867973D01*
X80180714Y-49867973D02*
X80180714Y-49772735D01*
X80180714Y-49772735D02*
X80133095Y-49677497D01*
X80133095Y-49677497D02*
X80085476Y-49629878D01*
X80085476Y-49629878D02*
X79990238Y-49582259D01*
X79990238Y-49582259D02*
X79799762Y-49534640D01*
X79799762Y-49534640D02*
X79704524Y-49487021D01*
X79704524Y-49487021D02*
X79656905Y-49439402D01*
X79656905Y-49439402D02*
X79609286Y-49344164D01*
X79609286Y-49344164D02*
X79609286Y-49248926D01*
X79609286Y-49248926D02*
X79656905Y-49153688D01*
X79656905Y-49153688D02*
X79704524Y-49106069D01*
X79704524Y-49106069D02*
X79799762Y-49058450D01*
X79799762Y-49058450D02*
X80037857Y-49058450D01*
X80037857Y-49058450D02*
X80180714Y-49106069D01*
X81133095Y-50058450D02*
X80561667Y-50058450D01*
X80847381Y-50058450D02*
X80847381Y-49058450D01*
X80847381Y-49058450D02*
X80752143Y-49201307D01*
X80752143Y-49201307D02*
X80656905Y-49296545D01*
X80656905Y-49296545D02*
X80561667Y-49344164D01*
X81752143Y-49058450D02*
X81847381Y-49058450D01*
X81847381Y-49058450D02*
X81942619Y-49106069D01*
X81942619Y-49106069D02*
X81990238Y-49153688D01*
X81990238Y-49153688D02*
X82037857Y-49248926D01*
X82037857Y-49248926D02*
X82085476Y-49439402D01*
X82085476Y-49439402D02*
X82085476Y-49677497D01*
X82085476Y-49677497D02*
X82037857Y-49867973D01*
X82037857Y-49867973D02*
X81990238Y-49963211D01*
X81990238Y-49963211D02*
X81942619Y-50010831D01*
X81942619Y-50010831D02*
X81847381Y-50058450D01*
X81847381Y-50058450D02*
X81752143Y-50058450D01*
X81752143Y-50058450D02*
X81656905Y-50010831D01*
X81656905Y-50010831D02*
X81609286Y-49963211D01*
X81609286Y-49963211D02*
X81561667Y-49867973D01*
X81561667Y-49867973D02*
X81514048Y-49677497D01*
X81514048Y-49677497D02*
X81514048Y-49439402D01*
X81514048Y-49439402D02*
X81561667Y-49248926D01*
X81561667Y-49248926D02*
X81609286Y-49153688D01*
X81609286Y-49153688D02*
X81656905Y-49106069D01*
X81656905Y-49106069D02*
X81752143Y-49058450D01*
X130449582Y-138239889D02*
X130545498Y-138355975D01*
X130545498Y-138355975D02*
X130747414Y-138482147D01*
X130747414Y-138482147D02*
X130853415Y-138492232D01*
X130853415Y-138492232D02*
X130919032Y-138477083D01*
X130919032Y-138477083D02*
X131009884Y-138421551D01*
X131009884Y-138421551D02*
X131060353Y-138340784D01*
X131060353Y-138340784D02*
X131070438Y-138234783D01*
X131070438Y-138234783D02*
X131055289Y-138169166D01*
X131055289Y-138169166D02*
X130999757Y-138078314D01*
X130999757Y-138078314D02*
X130863458Y-137936994D01*
X130863458Y-137936994D02*
X130807926Y-137846142D01*
X130807926Y-137846142D02*
X130792777Y-137780525D01*
X130792777Y-137780525D02*
X130802862Y-137674524D01*
X130802862Y-137674524D02*
X130853330Y-137593758D01*
X130853330Y-137593758D02*
X130944182Y-137538225D01*
X130944182Y-137538225D02*
X131009800Y-137523076D01*
X131009800Y-137523076D02*
X131115800Y-137533162D01*
X131115800Y-137533162D02*
X131317717Y-137659333D01*
X131317717Y-137659333D02*
X131413632Y-137775419D01*
X131716612Y-139087769D02*
X131232013Y-138784958D01*
X131474313Y-138936363D02*
X132004232Y-138088315D01*
X132004232Y-138088315D02*
X131847763Y-138158996D01*
X131847763Y-138158996D02*
X131716528Y-138189294D01*
X131716528Y-138189294D02*
X131610527Y-138179209D01*
X132504022Y-138905981D02*
X132448490Y-138815129D01*
X132448490Y-138815129D02*
X132433341Y-138749512D01*
X132433341Y-138749512D02*
X132443426Y-138643511D01*
X132443426Y-138643511D02*
X132468660Y-138603128D01*
X132468660Y-138603128D02*
X132559512Y-138547595D01*
X132559512Y-138547595D02*
X132625129Y-138532446D01*
X132625129Y-138532446D02*
X132731130Y-138542532D01*
X132731130Y-138542532D02*
X132892663Y-138643469D01*
X132892663Y-138643469D02*
X132948195Y-138734320D01*
X132948195Y-138734320D02*
X132963344Y-138799938D01*
X132963344Y-138799938D02*
X132953259Y-138905939D01*
X132953259Y-138905939D02*
X132928025Y-138946322D01*
X132928025Y-138946322D02*
X132837173Y-139001854D01*
X132837173Y-139001854D02*
X132771556Y-139017003D01*
X132771556Y-139017003D02*
X132665555Y-139006918D01*
X132665555Y-139006918D02*
X132504022Y-138905981D01*
X132504022Y-138905981D02*
X132398021Y-138895896D01*
X132398021Y-138895896D02*
X132332404Y-138911045D01*
X132332404Y-138911045D02*
X132241552Y-138966577D01*
X132241552Y-138966577D02*
X132140615Y-139128110D01*
X132140615Y-139128110D02*
X132130530Y-139234110D01*
X132130530Y-139234110D02*
X132145679Y-139299728D01*
X132145679Y-139299728D02*
X132201211Y-139390580D01*
X132201211Y-139390580D02*
X132362744Y-139491517D01*
X132362744Y-139491517D02*
X132468745Y-139501602D01*
X132468745Y-139501602D02*
X132534362Y-139486453D01*
X132534362Y-139486453D02*
X132625214Y-139430921D01*
X132625214Y-139430921D02*
X132726151Y-139269388D01*
X132726151Y-139269388D02*
X132736236Y-139163387D01*
X132736236Y-139163387D02*
X132721087Y-139097770D01*
X132721087Y-139097770D02*
X132665555Y-139006918D01*
X42085476Y-49010831D02*
X42228333Y-49058450D01*
X42228333Y-49058450D02*
X42466428Y-49058450D01*
X42466428Y-49058450D02*
X42561666Y-49010831D01*
X42561666Y-49010831D02*
X42609285Y-48963211D01*
X42609285Y-48963211D02*
X42656904Y-48867973D01*
X42656904Y-48867973D02*
X42656904Y-48772735D01*
X42656904Y-48772735D02*
X42609285Y-48677497D01*
X42609285Y-48677497D02*
X42561666Y-48629878D01*
X42561666Y-48629878D02*
X42466428Y-48582259D01*
X42466428Y-48582259D02*
X42275952Y-48534640D01*
X42275952Y-48534640D02*
X42180714Y-48487021D01*
X42180714Y-48487021D02*
X42133095Y-48439402D01*
X42133095Y-48439402D02*
X42085476Y-48344164D01*
X42085476Y-48344164D02*
X42085476Y-48248926D01*
X42085476Y-48248926D02*
X42133095Y-48153688D01*
X42133095Y-48153688D02*
X42180714Y-48106069D01*
X42180714Y-48106069D02*
X42275952Y-48058450D01*
X42275952Y-48058450D02*
X42514047Y-48058450D01*
X42514047Y-48058450D02*
X42656904Y-48106069D01*
X43514047Y-48391783D02*
X43514047Y-49058450D01*
X43275952Y-48010831D02*
X43037857Y-48725116D01*
X43037857Y-48725116D02*
X43656904Y-48725116D01*
X107562284Y-128058966D02*
X107681854Y-128150501D01*
X107681854Y-128150501D02*
X107906978Y-128228017D01*
X107906978Y-128228017D02*
X108012530Y-128213999D01*
X108012530Y-128213999D02*
X108073058Y-128184477D01*
X108073058Y-128184477D02*
X108149090Y-128109931D01*
X108149090Y-128109931D02*
X108180096Y-128019882D01*
X108180096Y-128019882D02*
X108166078Y-127914329D01*
X108166078Y-127914329D02*
X108136556Y-127853801D01*
X108136556Y-127853801D02*
X108062010Y-127777770D01*
X108062010Y-127777770D02*
X107897415Y-127670732D01*
X107897415Y-127670732D02*
X107822869Y-127594701D01*
X107822869Y-127594701D02*
X107793347Y-127534173D01*
X107793347Y-127534173D02*
X107779329Y-127428621D01*
X107779329Y-127428621D02*
X107810335Y-127338571D01*
X107810335Y-127338571D02*
X107886367Y-127264025D01*
X107886367Y-127264025D02*
X107946895Y-127234504D01*
X107946895Y-127234504D02*
X108052447Y-127220486D01*
X108052447Y-127220486D02*
X108277571Y-127298002D01*
X108277571Y-127298002D02*
X108397141Y-127389536D01*
X108987571Y-128600095D02*
X108447274Y-128414056D01*
X108717422Y-128507076D02*
X109042991Y-127561557D01*
X109042991Y-127561557D02*
X108906431Y-127665625D01*
X108906431Y-127665625D02*
X108785376Y-127724667D01*
X108785376Y-127724667D02*
X108679823Y-127738686D01*
X109628312Y-127763099D02*
X110258657Y-127980145D01*
X110258657Y-127980145D02*
X109527867Y-128786134D01*
X111666666Y-89124819D02*
X111666666Y-89839104D01*
X111666666Y-89839104D02*
X111619047Y-89981961D01*
X111619047Y-89981961D02*
X111523809Y-90077200D01*
X111523809Y-90077200D02*
X111380952Y-90124819D01*
X111380952Y-90124819D02*
X111285714Y-90124819D01*
X112666666Y-90124819D02*
X112095238Y-90124819D01*
X112380952Y-90124819D02*
X112380952Y-89124819D01*
X112380952Y-89124819D02*
X112285714Y-89267676D01*
X112285714Y-89267676D02*
X112190476Y-89362914D01*
X112190476Y-89362914D02*
X112095238Y-89410533D01*
X21639039Y-97766215D02*
X21785503Y-97801202D01*
X21785503Y-97801202D02*
X22022692Y-97780451D01*
X22022692Y-97780451D02*
X22113417Y-97724713D01*
X22113417Y-97724713D02*
X22156705Y-97673125D01*
X22156705Y-97673125D02*
X22195842Y-97574099D01*
X22195842Y-97574099D02*
X22187542Y-97479223D01*
X22187542Y-97479223D02*
X22131803Y-97388497D01*
X22131803Y-97388497D02*
X22080215Y-97345210D01*
X22080215Y-97345210D02*
X21981189Y-97306073D01*
X21981189Y-97306073D02*
X21787287Y-97275236D01*
X21787287Y-97275236D02*
X21688261Y-97236099D01*
X21688261Y-97236099D02*
X21636673Y-97192811D01*
X21636673Y-97192811D02*
X21580935Y-97102086D01*
X21580935Y-97102086D02*
X21572634Y-97007210D01*
X21572634Y-97007210D02*
X21611772Y-96908184D01*
X21611772Y-96908184D02*
X21655059Y-96856596D01*
X21655059Y-96856596D02*
X21745785Y-96800857D01*
X21745785Y-96800857D02*
X21982974Y-96780106D01*
X21982974Y-96780106D02*
X22129438Y-96815093D01*
X22457352Y-96738603D02*
X23074044Y-96684650D01*
X23074044Y-96684650D02*
X22775182Y-97093204D01*
X22775182Y-97093204D02*
X22917495Y-97080754D01*
X22917495Y-97080754D02*
X23016521Y-97119891D01*
X23016521Y-97119891D02*
X23068109Y-97163178D01*
X23068109Y-97163178D02*
X23123848Y-97253904D01*
X23123848Y-97253904D02*
X23144599Y-97491093D01*
X23144599Y-97491093D02*
X23105462Y-97590119D01*
X23105462Y-97590119D02*
X23062174Y-97641707D01*
X23062174Y-97641707D02*
X22971449Y-97697446D01*
X22971449Y-97697446D02*
X22686822Y-97722347D01*
X22686822Y-97722347D02*
X22587796Y-97683210D01*
X22587796Y-97683210D02*
X22536208Y-97639922D01*
X98609286Y-75010831D02*
X98752143Y-75058450D01*
X98752143Y-75058450D02*
X98990238Y-75058450D01*
X98990238Y-75058450D02*
X99085476Y-75010831D01*
X99085476Y-75010831D02*
X99133095Y-74963211D01*
X99133095Y-74963211D02*
X99180714Y-74867973D01*
X99180714Y-74867973D02*
X99180714Y-74772735D01*
X99180714Y-74772735D02*
X99133095Y-74677497D01*
X99133095Y-74677497D02*
X99085476Y-74629878D01*
X99085476Y-74629878D02*
X98990238Y-74582259D01*
X98990238Y-74582259D02*
X98799762Y-74534640D01*
X98799762Y-74534640D02*
X98704524Y-74487021D01*
X98704524Y-74487021D02*
X98656905Y-74439402D01*
X98656905Y-74439402D02*
X98609286Y-74344164D01*
X98609286Y-74344164D02*
X98609286Y-74248926D01*
X98609286Y-74248926D02*
X98656905Y-74153688D01*
X98656905Y-74153688D02*
X98704524Y-74106069D01*
X98704524Y-74106069D02*
X98799762Y-74058450D01*
X98799762Y-74058450D02*
X99037857Y-74058450D01*
X99037857Y-74058450D02*
X99180714Y-74106069D01*
X100133095Y-75058450D02*
X99561667Y-75058450D01*
X99847381Y-75058450D02*
X99847381Y-74058450D01*
X99847381Y-74058450D02*
X99752143Y-74201307D01*
X99752143Y-74201307D02*
X99656905Y-74296545D01*
X99656905Y-74296545D02*
X99561667Y-74344164D01*
X100990238Y-74391783D02*
X100990238Y-75058450D01*
X100752143Y-74010831D02*
X100514048Y-74725116D01*
X100514048Y-74725116D02*
X101133095Y-74725116D01*
X98609286Y-56010831D02*
X98752143Y-56058450D01*
X98752143Y-56058450D02*
X98990238Y-56058450D01*
X98990238Y-56058450D02*
X99085476Y-56010831D01*
X99085476Y-56010831D02*
X99133095Y-55963211D01*
X99133095Y-55963211D02*
X99180714Y-55867973D01*
X99180714Y-55867973D02*
X99180714Y-55772735D01*
X99180714Y-55772735D02*
X99133095Y-55677497D01*
X99133095Y-55677497D02*
X99085476Y-55629878D01*
X99085476Y-55629878D02*
X98990238Y-55582259D01*
X98990238Y-55582259D02*
X98799762Y-55534640D01*
X98799762Y-55534640D02*
X98704524Y-55487021D01*
X98704524Y-55487021D02*
X98656905Y-55439402D01*
X98656905Y-55439402D02*
X98609286Y-55344164D01*
X98609286Y-55344164D02*
X98609286Y-55248926D01*
X98609286Y-55248926D02*
X98656905Y-55153688D01*
X98656905Y-55153688D02*
X98704524Y-55106069D01*
X98704524Y-55106069D02*
X98799762Y-55058450D01*
X98799762Y-55058450D02*
X99037857Y-55058450D01*
X99037857Y-55058450D02*
X99180714Y-55106069D01*
X100133095Y-56058450D02*
X99561667Y-56058450D01*
X99847381Y-56058450D02*
X99847381Y-55058450D01*
X99847381Y-55058450D02*
X99752143Y-55201307D01*
X99752143Y-55201307D02*
X99656905Y-55296545D01*
X99656905Y-55296545D02*
X99561667Y-55344164D01*
X100466429Y-55058450D02*
X101085476Y-55058450D01*
X101085476Y-55058450D02*
X100752143Y-55439402D01*
X100752143Y-55439402D02*
X100895000Y-55439402D01*
X100895000Y-55439402D02*
X100990238Y-55487021D01*
X100990238Y-55487021D02*
X101037857Y-55534640D01*
X101037857Y-55534640D02*
X101085476Y-55629878D01*
X101085476Y-55629878D02*
X101085476Y-55867973D01*
X101085476Y-55867973D02*
X101037857Y-55963211D01*
X101037857Y-55963211D02*
X100990238Y-56010831D01*
X100990238Y-56010831D02*
X100895000Y-56058450D01*
X100895000Y-56058450D02*
X100609286Y-56058450D01*
X100609286Y-56058450D02*
X100514048Y-56010831D01*
X100514048Y-56010831D02*
X100466429Y-55963211D01*
X79609286Y-88010831D02*
X79752143Y-88058450D01*
X79752143Y-88058450D02*
X79990238Y-88058450D01*
X79990238Y-88058450D02*
X80085476Y-88010831D01*
X80085476Y-88010831D02*
X80133095Y-87963211D01*
X80133095Y-87963211D02*
X80180714Y-87867973D01*
X80180714Y-87867973D02*
X80180714Y-87772735D01*
X80180714Y-87772735D02*
X80133095Y-87677497D01*
X80133095Y-87677497D02*
X80085476Y-87629878D01*
X80085476Y-87629878D02*
X79990238Y-87582259D01*
X79990238Y-87582259D02*
X79799762Y-87534640D01*
X79799762Y-87534640D02*
X79704524Y-87487021D01*
X79704524Y-87487021D02*
X79656905Y-87439402D01*
X79656905Y-87439402D02*
X79609286Y-87344164D01*
X79609286Y-87344164D02*
X79609286Y-87248926D01*
X79609286Y-87248926D02*
X79656905Y-87153688D01*
X79656905Y-87153688D02*
X79704524Y-87106069D01*
X79704524Y-87106069D02*
X79799762Y-87058450D01*
X79799762Y-87058450D02*
X80037857Y-87058450D01*
X80037857Y-87058450D02*
X80180714Y-87106069D01*
X81133095Y-88058450D02*
X80561667Y-88058450D01*
X80847381Y-88058450D02*
X80847381Y-87058450D01*
X80847381Y-87058450D02*
X80752143Y-87201307D01*
X80752143Y-87201307D02*
X80656905Y-87296545D01*
X80656905Y-87296545D02*
X80561667Y-87344164D01*
X81514048Y-87153688D02*
X81561667Y-87106069D01*
X81561667Y-87106069D02*
X81656905Y-87058450D01*
X81656905Y-87058450D02*
X81895000Y-87058450D01*
X81895000Y-87058450D02*
X81990238Y-87106069D01*
X81990238Y-87106069D02*
X82037857Y-87153688D01*
X82037857Y-87153688D02*
X82085476Y-87248926D01*
X82085476Y-87248926D02*
X82085476Y-87344164D01*
X82085476Y-87344164D02*
X82037857Y-87487021D01*
X82037857Y-87487021D02*
X81466429Y-88058450D01*
X81466429Y-88058450D02*
X82085476Y-88058450D01*
X61085476Y-82010831D02*
X61228333Y-82058450D01*
X61228333Y-82058450D02*
X61466428Y-82058450D01*
X61466428Y-82058450D02*
X61561666Y-82010831D01*
X61561666Y-82010831D02*
X61609285Y-81963211D01*
X61609285Y-81963211D02*
X61656904Y-81867973D01*
X61656904Y-81867973D02*
X61656904Y-81772735D01*
X61656904Y-81772735D02*
X61609285Y-81677497D01*
X61609285Y-81677497D02*
X61561666Y-81629878D01*
X61561666Y-81629878D02*
X61466428Y-81582259D01*
X61466428Y-81582259D02*
X61275952Y-81534640D01*
X61275952Y-81534640D02*
X61180714Y-81487021D01*
X61180714Y-81487021D02*
X61133095Y-81439402D01*
X61133095Y-81439402D02*
X61085476Y-81344164D01*
X61085476Y-81344164D02*
X61085476Y-81248926D01*
X61085476Y-81248926D02*
X61133095Y-81153688D01*
X61133095Y-81153688D02*
X61180714Y-81106069D01*
X61180714Y-81106069D02*
X61275952Y-81058450D01*
X61275952Y-81058450D02*
X61514047Y-81058450D01*
X61514047Y-81058450D02*
X61656904Y-81106069D01*
X62133095Y-82058450D02*
X62323571Y-82058450D01*
X62323571Y-82058450D02*
X62418809Y-82010831D01*
X62418809Y-82010831D02*
X62466428Y-81963211D01*
X62466428Y-81963211D02*
X62561666Y-81820354D01*
X62561666Y-81820354D02*
X62609285Y-81629878D01*
X62609285Y-81629878D02*
X62609285Y-81248926D01*
X62609285Y-81248926D02*
X62561666Y-81153688D01*
X62561666Y-81153688D02*
X62514047Y-81106069D01*
X62514047Y-81106069D02*
X62418809Y-81058450D01*
X62418809Y-81058450D02*
X62228333Y-81058450D01*
X62228333Y-81058450D02*
X62133095Y-81106069D01*
X62133095Y-81106069D02*
X62085476Y-81153688D01*
X62085476Y-81153688D02*
X62037857Y-81248926D01*
X62037857Y-81248926D02*
X62037857Y-81487021D01*
X62037857Y-81487021D02*
X62085476Y-81582259D01*
X62085476Y-81582259D02*
X62133095Y-81629878D01*
X62133095Y-81629878D02*
X62228333Y-81677497D01*
X62228333Y-81677497D02*
X62418809Y-81677497D01*
X62418809Y-81677497D02*
X62514047Y-81629878D01*
X62514047Y-81629878D02*
X62561666Y-81582259D01*
X62561666Y-81582259D02*
X62609285Y-81487021D01*
X98609286Y-94010831D02*
X98752143Y-94058450D01*
X98752143Y-94058450D02*
X98990238Y-94058450D01*
X98990238Y-94058450D02*
X99085476Y-94010831D01*
X99085476Y-94010831D02*
X99133095Y-93963211D01*
X99133095Y-93963211D02*
X99180714Y-93867973D01*
X99180714Y-93867973D02*
X99180714Y-93772735D01*
X99180714Y-93772735D02*
X99133095Y-93677497D01*
X99133095Y-93677497D02*
X99085476Y-93629878D01*
X99085476Y-93629878D02*
X98990238Y-93582259D01*
X98990238Y-93582259D02*
X98799762Y-93534640D01*
X98799762Y-93534640D02*
X98704524Y-93487021D01*
X98704524Y-93487021D02*
X98656905Y-93439402D01*
X98656905Y-93439402D02*
X98609286Y-93344164D01*
X98609286Y-93344164D02*
X98609286Y-93248926D01*
X98609286Y-93248926D02*
X98656905Y-93153688D01*
X98656905Y-93153688D02*
X98704524Y-93106069D01*
X98704524Y-93106069D02*
X98799762Y-93058450D01*
X98799762Y-93058450D02*
X99037857Y-93058450D01*
X99037857Y-93058450D02*
X99180714Y-93106069D01*
X100133095Y-94058450D02*
X99561667Y-94058450D01*
X99847381Y-94058450D02*
X99847381Y-93058450D01*
X99847381Y-93058450D02*
X99752143Y-93201307D01*
X99752143Y-93201307D02*
X99656905Y-93296545D01*
X99656905Y-93296545D02*
X99561667Y-93344164D01*
X101037857Y-93058450D02*
X100561667Y-93058450D01*
X100561667Y-93058450D02*
X100514048Y-93534640D01*
X100514048Y-93534640D02*
X100561667Y-93487021D01*
X100561667Y-93487021D02*
X100656905Y-93439402D01*
X100656905Y-93439402D02*
X100895000Y-93439402D01*
X100895000Y-93439402D02*
X100990238Y-93487021D01*
X100990238Y-93487021D02*
X101037857Y-93534640D01*
X101037857Y-93534640D02*
X101085476Y-93629878D01*
X101085476Y-93629878D02*
X101085476Y-93867973D01*
X101085476Y-93867973D02*
X101037857Y-93963211D01*
X101037857Y-93963211D02*
X100990238Y-94010831D01*
X100990238Y-94010831D02*
X100895000Y-94058450D01*
X100895000Y-94058450D02*
X100656905Y-94058450D01*
X100656905Y-94058450D02*
X100561667Y-94010831D01*
X100561667Y-94010831D02*
X100514048Y-93963211D01*
X123994333Y-74213247D02*
X123727667Y-74213247D01*
X123727667Y-74632295D02*
X123727667Y-73832295D01*
X123727667Y-73832295D02*
X124108619Y-73832295D01*
X124756238Y-73832295D02*
X124603857Y-73832295D01*
X124603857Y-73832295D02*
X124527666Y-73870390D01*
X124527666Y-73870390D02*
X124489571Y-73908485D01*
X124489571Y-73908485D02*
X124413381Y-74022771D01*
X124413381Y-74022771D02*
X124375285Y-74175152D01*
X124375285Y-74175152D02*
X124375285Y-74479914D01*
X124375285Y-74479914D02*
X124413381Y-74556104D01*
X124413381Y-74556104D02*
X124451476Y-74594200D01*
X124451476Y-74594200D02*
X124527666Y-74632295D01*
X124527666Y-74632295D02*
X124680047Y-74632295D01*
X124680047Y-74632295D02*
X124756238Y-74594200D01*
X124756238Y-74594200D02*
X124794333Y-74556104D01*
X124794333Y-74556104D02*
X124832428Y-74479914D01*
X124832428Y-74479914D02*
X124832428Y-74289438D01*
X124832428Y-74289438D02*
X124794333Y-74213247D01*
X124794333Y-74213247D02*
X124756238Y-74175152D01*
X124756238Y-74175152D02*
X124680047Y-74137057D01*
X124680047Y-74137057D02*
X124527666Y-74137057D01*
X124527666Y-74137057D02*
X124451476Y-74175152D01*
X124451476Y-74175152D02*
X124413381Y-74213247D01*
X124413381Y-74213247D02*
X124375285Y-74289438D01*
X112809523Y-58062295D02*
X113266666Y-58062295D01*
X113038094Y-58862295D02*
X113038094Y-58062295D01*
X113457142Y-58062295D02*
X113990476Y-58862295D01*
X113990476Y-58062295D02*
X113457142Y-58862295D01*
X114447619Y-58062295D02*
X114523809Y-58062295D01*
X114523809Y-58062295D02*
X114600000Y-58100390D01*
X114600000Y-58100390D02*
X114638095Y-58138485D01*
X114638095Y-58138485D02*
X114676190Y-58214676D01*
X114676190Y-58214676D02*
X114714285Y-58367057D01*
X114714285Y-58367057D02*
X114714285Y-58557533D01*
X114714285Y-58557533D02*
X114676190Y-58709914D01*
X114676190Y-58709914D02*
X114638095Y-58786104D01*
X114638095Y-58786104D02*
X114600000Y-58824200D01*
X114600000Y-58824200D02*
X114523809Y-58862295D01*
X114523809Y-58862295D02*
X114447619Y-58862295D01*
X114447619Y-58862295D02*
X114371428Y-58824200D01*
X114371428Y-58824200D02*
X114333333Y-58786104D01*
X114333333Y-58786104D02*
X114295238Y-58709914D01*
X114295238Y-58709914D02*
X114257142Y-58557533D01*
X114257142Y-58557533D02*
X114257142Y-58367057D01*
X114257142Y-58367057D02*
X114295238Y-58214676D01*
X114295238Y-58214676D02*
X114333333Y-58138485D01*
X114333333Y-58138485D02*
X114371428Y-58100390D01*
X114371428Y-58100390D02*
X114447619Y-58062295D01*
X112748524Y-61932295D02*
X112748524Y-61132295D01*
X112748524Y-61132295D02*
X112939000Y-61132295D01*
X112939000Y-61132295D02*
X113053286Y-61170390D01*
X113053286Y-61170390D02*
X113129476Y-61246580D01*
X113129476Y-61246580D02*
X113167571Y-61322771D01*
X113167571Y-61322771D02*
X113205667Y-61475152D01*
X113205667Y-61475152D02*
X113205667Y-61589438D01*
X113205667Y-61589438D02*
X113167571Y-61741819D01*
X113167571Y-61741819D02*
X113129476Y-61818009D01*
X113129476Y-61818009D02*
X113053286Y-61894200D01*
X113053286Y-61894200D02*
X112939000Y-61932295D01*
X112939000Y-61932295D02*
X112748524Y-61932295D01*
X113510428Y-61208485D02*
X113548524Y-61170390D01*
X113548524Y-61170390D02*
X113624714Y-61132295D01*
X113624714Y-61132295D02*
X113815190Y-61132295D01*
X113815190Y-61132295D02*
X113891381Y-61170390D01*
X113891381Y-61170390D02*
X113929476Y-61208485D01*
X113929476Y-61208485D02*
X113967571Y-61284676D01*
X113967571Y-61284676D02*
X113967571Y-61360866D01*
X113967571Y-61360866D02*
X113929476Y-61475152D01*
X113929476Y-61475152D02*
X113472333Y-61932295D01*
X113472333Y-61932295D02*
X113967571Y-61932295D01*
X112748524Y-69552295D02*
X112748524Y-68752295D01*
X112748524Y-68752295D02*
X112939000Y-68752295D01*
X112939000Y-68752295D02*
X113053286Y-68790390D01*
X113053286Y-68790390D02*
X113129476Y-68866580D01*
X113129476Y-68866580D02*
X113167571Y-68942771D01*
X113167571Y-68942771D02*
X113205667Y-69095152D01*
X113205667Y-69095152D02*
X113205667Y-69209438D01*
X113205667Y-69209438D02*
X113167571Y-69361819D01*
X113167571Y-69361819D02*
X113129476Y-69438009D01*
X113129476Y-69438009D02*
X113053286Y-69514200D01*
X113053286Y-69514200D02*
X112939000Y-69552295D01*
X112939000Y-69552295D02*
X112748524Y-69552295D01*
X113967571Y-69552295D02*
X113510428Y-69552295D01*
X113739000Y-69552295D02*
X113739000Y-68752295D01*
X113739000Y-68752295D02*
X113662809Y-68866580D01*
X113662809Y-68866580D02*
X113586619Y-68942771D01*
X113586619Y-68942771D02*
X113510428Y-68980866D01*
X112729476Y-63710390D02*
X112653286Y-63672295D01*
X112653286Y-63672295D02*
X112539000Y-63672295D01*
X112539000Y-63672295D02*
X112424714Y-63710390D01*
X112424714Y-63710390D02*
X112348524Y-63786580D01*
X112348524Y-63786580D02*
X112310429Y-63862771D01*
X112310429Y-63862771D02*
X112272333Y-64015152D01*
X112272333Y-64015152D02*
X112272333Y-64129438D01*
X112272333Y-64129438D02*
X112310429Y-64281819D01*
X112310429Y-64281819D02*
X112348524Y-64358009D01*
X112348524Y-64358009D02*
X112424714Y-64434200D01*
X112424714Y-64434200D02*
X112539000Y-64472295D01*
X112539000Y-64472295D02*
X112615191Y-64472295D01*
X112615191Y-64472295D02*
X112729476Y-64434200D01*
X112729476Y-64434200D02*
X112767572Y-64396104D01*
X112767572Y-64396104D02*
X112767572Y-64129438D01*
X112767572Y-64129438D02*
X112615191Y-64129438D01*
X113110429Y-64472295D02*
X113110429Y-63672295D01*
X113110429Y-63672295D02*
X113567572Y-64472295D01*
X113567572Y-64472295D02*
X113567572Y-63672295D01*
X113948524Y-64472295D02*
X113948524Y-63672295D01*
X113948524Y-63672295D02*
X114139000Y-63672295D01*
X114139000Y-63672295D02*
X114253286Y-63710390D01*
X114253286Y-63710390D02*
X114329476Y-63786580D01*
X114329476Y-63786580D02*
X114367571Y-63862771D01*
X114367571Y-63862771D02*
X114405667Y-64015152D01*
X114405667Y-64015152D02*
X114405667Y-64129438D01*
X114405667Y-64129438D02*
X114367571Y-64281819D01*
X114367571Y-64281819D02*
X114329476Y-64358009D01*
X114329476Y-64358009D02*
X114253286Y-64434200D01*
X114253286Y-64434200D02*
X114139000Y-64472295D01*
X114139000Y-64472295D02*
X113948524Y-64472295D01*
X123999786Y-64404200D02*
X124114072Y-64442295D01*
X124114072Y-64442295D02*
X124304548Y-64442295D01*
X124304548Y-64442295D02*
X124380739Y-64404200D01*
X124380739Y-64404200D02*
X124418834Y-64366104D01*
X124418834Y-64366104D02*
X124456929Y-64289914D01*
X124456929Y-64289914D02*
X124456929Y-64213723D01*
X124456929Y-64213723D02*
X124418834Y-64137533D01*
X124418834Y-64137533D02*
X124380739Y-64099438D01*
X124380739Y-64099438D02*
X124304548Y-64061342D01*
X124304548Y-64061342D02*
X124152167Y-64023247D01*
X124152167Y-64023247D02*
X124075977Y-63985152D01*
X124075977Y-63985152D02*
X124037882Y-63947057D01*
X124037882Y-63947057D02*
X123999786Y-63870866D01*
X123999786Y-63870866D02*
X123999786Y-63794676D01*
X123999786Y-63794676D02*
X124037882Y-63718485D01*
X124037882Y-63718485D02*
X124075977Y-63680390D01*
X124075977Y-63680390D02*
X124152167Y-63642295D01*
X124152167Y-63642295D02*
X124342644Y-63642295D01*
X124342644Y-63642295D02*
X124456929Y-63680390D01*
X124685501Y-63642295D02*
X125142644Y-63642295D01*
X124914072Y-64442295D02*
X124914072Y-63642295D01*
X123937190Y-81833247D02*
X124051476Y-81871342D01*
X124051476Y-81871342D02*
X124089571Y-81909438D01*
X124089571Y-81909438D02*
X124127667Y-81985628D01*
X124127667Y-81985628D02*
X124127667Y-82099914D01*
X124127667Y-82099914D02*
X124089571Y-82176104D01*
X124089571Y-82176104D02*
X124051476Y-82214200D01*
X124051476Y-82214200D02*
X123975286Y-82252295D01*
X123975286Y-82252295D02*
X123670524Y-82252295D01*
X123670524Y-82252295D02*
X123670524Y-81452295D01*
X123670524Y-81452295D02*
X123937190Y-81452295D01*
X123937190Y-81452295D02*
X124013381Y-81490390D01*
X124013381Y-81490390D02*
X124051476Y-81528485D01*
X124051476Y-81528485D02*
X124089571Y-81604676D01*
X124089571Y-81604676D02*
X124089571Y-81680866D01*
X124089571Y-81680866D02*
X124051476Y-81757057D01*
X124051476Y-81757057D02*
X124013381Y-81795152D01*
X124013381Y-81795152D02*
X123937190Y-81833247D01*
X123937190Y-81833247D02*
X123670524Y-81833247D01*
X124394333Y-81452295D02*
X124889571Y-81452295D01*
X124889571Y-81452295D02*
X124622905Y-81757057D01*
X124622905Y-81757057D02*
X124737190Y-81757057D01*
X124737190Y-81757057D02*
X124813381Y-81795152D01*
X124813381Y-81795152D02*
X124851476Y-81833247D01*
X124851476Y-81833247D02*
X124889571Y-81909438D01*
X124889571Y-81909438D02*
X124889571Y-82099914D01*
X124889571Y-82099914D02*
X124851476Y-82176104D01*
X124851476Y-82176104D02*
X124813381Y-82214200D01*
X124813381Y-82214200D02*
X124737190Y-82252295D01*
X124737190Y-82252295D02*
X124508619Y-82252295D01*
X124508619Y-82252295D02*
X124432428Y-82214200D01*
X124432428Y-82214200D02*
X124394333Y-82176104D01*
X123994333Y-71673247D02*
X123727667Y-71673247D01*
X123727667Y-72092295D02*
X123727667Y-71292295D01*
X123727667Y-71292295D02*
X124108619Y-71292295D01*
X124794333Y-71292295D02*
X124413381Y-71292295D01*
X124413381Y-71292295D02*
X124375285Y-71673247D01*
X124375285Y-71673247D02*
X124413381Y-71635152D01*
X124413381Y-71635152D02*
X124489571Y-71597057D01*
X124489571Y-71597057D02*
X124680047Y-71597057D01*
X124680047Y-71597057D02*
X124756238Y-71635152D01*
X124756238Y-71635152D02*
X124794333Y-71673247D01*
X124794333Y-71673247D02*
X124832428Y-71749438D01*
X124832428Y-71749438D02*
X124832428Y-71939914D01*
X124832428Y-71939914D02*
X124794333Y-72016104D01*
X124794333Y-72016104D02*
X124756238Y-72054200D01*
X124756238Y-72054200D02*
X124680047Y-72092295D01*
X124680047Y-72092295D02*
X124489571Y-72092295D01*
X124489571Y-72092295D02*
X124413381Y-72054200D01*
X124413381Y-72054200D02*
X124375285Y-72016104D01*
X123194333Y-66212295D02*
X123461000Y-67012295D01*
X123461000Y-67012295D02*
X123727666Y-66212295D01*
X124451476Y-66936104D02*
X124413380Y-66974200D01*
X124413380Y-66974200D02*
X124299095Y-67012295D01*
X124299095Y-67012295D02*
X124222904Y-67012295D01*
X124222904Y-67012295D02*
X124108618Y-66974200D01*
X124108618Y-66974200D02*
X124032428Y-66898009D01*
X124032428Y-66898009D02*
X123994333Y-66821819D01*
X123994333Y-66821819D02*
X123956237Y-66669438D01*
X123956237Y-66669438D02*
X123956237Y-66555152D01*
X123956237Y-66555152D02*
X123994333Y-66402771D01*
X123994333Y-66402771D02*
X124032428Y-66326580D01*
X124032428Y-66326580D02*
X124108618Y-66250390D01*
X124108618Y-66250390D02*
X124222904Y-66212295D01*
X124222904Y-66212295D02*
X124299095Y-66212295D01*
X124299095Y-66212295D02*
X124413380Y-66250390D01*
X124413380Y-66250390D02*
X124451476Y-66288485D01*
X125251476Y-66936104D02*
X125213380Y-66974200D01*
X125213380Y-66974200D02*
X125099095Y-67012295D01*
X125099095Y-67012295D02*
X125022904Y-67012295D01*
X125022904Y-67012295D02*
X124908618Y-66974200D01*
X124908618Y-66974200D02*
X124832428Y-66898009D01*
X124832428Y-66898009D02*
X124794333Y-66821819D01*
X124794333Y-66821819D02*
X124756237Y-66669438D01*
X124756237Y-66669438D02*
X124756237Y-66555152D01*
X124756237Y-66555152D02*
X124794333Y-66402771D01*
X124794333Y-66402771D02*
X124832428Y-66326580D01*
X124832428Y-66326580D02*
X124908618Y-66250390D01*
X124908618Y-66250390D02*
X125022904Y-66212295D01*
X125022904Y-66212295D02*
X125099095Y-66212295D01*
X125099095Y-66212295D02*
X125213380Y-66250390D01*
X125213380Y-66250390D02*
X125251476Y-66288485D01*
X112748524Y-74632295D02*
X112748524Y-73832295D01*
X112748524Y-73832295D02*
X112939000Y-73832295D01*
X112939000Y-73832295D02*
X113053286Y-73870390D01*
X113053286Y-73870390D02*
X113129476Y-73946580D01*
X113129476Y-73946580D02*
X113167571Y-74022771D01*
X113167571Y-74022771D02*
X113205667Y-74175152D01*
X113205667Y-74175152D02*
X113205667Y-74289438D01*
X113205667Y-74289438D02*
X113167571Y-74441819D01*
X113167571Y-74441819D02*
X113129476Y-74518009D01*
X113129476Y-74518009D02*
X113053286Y-74594200D01*
X113053286Y-74594200D02*
X112939000Y-74632295D01*
X112939000Y-74632295D02*
X112748524Y-74632295D01*
X113891381Y-74098961D02*
X113891381Y-74632295D01*
X113700905Y-73794200D02*
X113510428Y-74365628D01*
X113510428Y-74365628D02*
X114005667Y-74365628D01*
X123708619Y-59392295D02*
X123441952Y-59011342D01*
X123251476Y-59392295D02*
X123251476Y-58592295D01*
X123251476Y-58592295D02*
X123556238Y-58592295D01*
X123556238Y-58592295D02*
X123632428Y-58630390D01*
X123632428Y-58630390D02*
X123670523Y-58668485D01*
X123670523Y-58668485D02*
X123708619Y-58744676D01*
X123708619Y-58744676D02*
X123708619Y-58858961D01*
X123708619Y-58858961D02*
X123670523Y-58935152D01*
X123670523Y-58935152D02*
X123632428Y-58973247D01*
X123632428Y-58973247D02*
X123556238Y-59011342D01*
X123556238Y-59011342D02*
X123251476Y-59011342D01*
X124013380Y-59163723D02*
X124394333Y-59163723D01*
X123937190Y-59392295D02*
X124203857Y-58592295D01*
X124203857Y-58592295D02*
X124470523Y-59392295D01*
X124660999Y-58592295D02*
X124851475Y-59392295D01*
X124851475Y-59392295D02*
X125003856Y-58820866D01*
X125003856Y-58820866D02*
X125156237Y-59392295D01*
X125156237Y-59392295D02*
X125346714Y-58592295D01*
X112786619Y-81833247D02*
X113053285Y-81833247D01*
X113167571Y-82252295D02*
X112786619Y-82252295D01*
X112786619Y-82252295D02*
X112786619Y-81452295D01*
X112786619Y-81452295D02*
X113167571Y-81452295D01*
X113853286Y-81452295D02*
X113700905Y-81452295D01*
X113700905Y-81452295D02*
X113624714Y-81490390D01*
X113624714Y-81490390D02*
X113586619Y-81528485D01*
X113586619Y-81528485D02*
X113510429Y-81642771D01*
X113510429Y-81642771D02*
X113472333Y-81795152D01*
X113472333Y-81795152D02*
X113472333Y-82099914D01*
X113472333Y-82099914D02*
X113510429Y-82176104D01*
X113510429Y-82176104D02*
X113548524Y-82214200D01*
X113548524Y-82214200D02*
X113624714Y-82252295D01*
X113624714Y-82252295D02*
X113777095Y-82252295D01*
X113777095Y-82252295D02*
X113853286Y-82214200D01*
X113853286Y-82214200D02*
X113891381Y-82176104D01*
X113891381Y-82176104D02*
X113929476Y-82099914D01*
X113929476Y-82099914D02*
X113929476Y-81909438D01*
X113929476Y-81909438D02*
X113891381Y-81833247D01*
X113891381Y-81833247D02*
X113853286Y-81795152D01*
X113853286Y-81795152D02*
X113777095Y-81757057D01*
X113777095Y-81757057D02*
X113624714Y-81757057D01*
X113624714Y-81757057D02*
X113548524Y-81795152D01*
X113548524Y-81795152D02*
X113510429Y-81833247D01*
X113510429Y-81833247D02*
X113472333Y-81909438D01*
X123937190Y-84373247D02*
X124051476Y-84411342D01*
X124051476Y-84411342D02*
X124089571Y-84449438D01*
X124089571Y-84449438D02*
X124127667Y-84525628D01*
X124127667Y-84525628D02*
X124127667Y-84639914D01*
X124127667Y-84639914D02*
X124089571Y-84716104D01*
X124089571Y-84716104D02*
X124051476Y-84754200D01*
X124051476Y-84754200D02*
X123975286Y-84792295D01*
X123975286Y-84792295D02*
X123670524Y-84792295D01*
X123670524Y-84792295D02*
X123670524Y-83992295D01*
X123670524Y-83992295D02*
X123937190Y-83992295D01*
X123937190Y-83992295D02*
X124013381Y-84030390D01*
X124013381Y-84030390D02*
X124051476Y-84068485D01*
X124051476Y-84068485D02*
X124089571Y-84144676D01*
X124089571Y-84144676D02*
X124089571Y-84220866D01*
X124089571Y-84220866D02*
X124051476Y-84297057D01*
X124051476Y-84297057D02*
X124013381Y-84335152D01*
X124013381Y-84335152D02*
X123937190Y-84373247D01*
X123937190Y-84373247D02*
X123670524Y-84373247D01*
X124432428Y-84068485D02*
X124470524Y-84030390D01*
X124470524Y-84030390D02*
X124546714Y-83992295D01*
X124546714Y-83992295D02*
X124737190Y-83992295D01*
X124737190Y-83992295D02*
X124813381Y-84030390D01*
X124813381Y-84030390D02*
X124851476Y-84068485D01*
X124851476Y-84068485D02*
X124889571Y-84144676D01*
X124889571Y-84144676D02*
X124889571Y-84220866D01*
X124889571Y-84220866D02*
X124851476Y-84335152D01*
X124851476Y-84335152D02*
X124394333Y-84792295D01*
X124394333Y-84792295D02*
X124889571Y-84792295D01*
X112729476Y-66250390D02*
X112653286Y-66212295D01*
X112653286Y-66212295D02*
X112539000Y-66212295D01*
X112539000Y-66212295D02*
X112424714Y-66250390D01*
X112424714Y-66250390D02*
X112348524Y-66326580D01*
X112348524Y-66326580D02*
X112310429Y-66402771D01*
X112310429Y-66402771D02*
X112272333Y-66555152D01*
X112272333Y-66555152D02*
X112272333Y-66669438D01*
X112272333Y-66669438D02*
X112310429Y-66821819D01*
X112310429Y-66821819D02*
X112348524Y-66898009D01*
X112348524Y-66898009D02*
X112424714Y-66974200D01*
X112424714Y-66974200D02*
X112539000Y-67012295D01*
X112539000Y-67012295D02*
X112615191Y-67012295D01*
X112615191Y-67012295D02*
X112729476Y-66974200D01*
X112729476Y-66974200D02*
X112767572Y-66936104D01*
X112767572Y-66936104D02*
X112767572Y-66669438D01*
X112767572Y-66669438D02*
X112615191Y-66669438D01*
X113110429Y-67012295D02*
X113110429Y-66212295D01*
X113110429Y-66212295D02*
X113567572Y-67012295D01*
X113567572Y-67012295D02*
X113567572Y-66212295D01*
X113948524Y-67012295D02*
X113948524Y-66212295D01*
X113948524Y-66212295D02*
X114139000Y-66212295D01*
X114139000Y-66212295D02*
X114253286Y-66250390D01*
X114253286Y-66250390D02*
X114329476Y-66326580D01*
X114329476Y-66326580D02*
X114367571Y-66402771D01*
X114367571Y-66402771D02*
X114405667Y-66555152D01*
X114405667Y-66555152D02*
X114405667Y-66669438D01*
X114405667Y-66669438D02*
X114367571Y-66821819D01*
X114367571Y-66821819D02*
X114329476Y-66898009D01*
X114329476Y-66898009D02*
X114253286Y-66974200D01*
X114253286Y-66974200D02*
X114139000Y-67012295D01*
X114139000Y-67012295D02*
X113948524Y-67012295D01*
X112748524Y-79712295D02*
X112748524Y-78912295D01*
X112748524Y-78912295D02*
X112939000Y-78912295D01*
X112939000Y-78912295D02*
X113053286Y-78950390D01*
X113053286Y-78950390D02*
X113129476Y-79026580D01*
X113129476Y-79026580D02*
X113167571Y-79102771D01*
X113167571Y-79102771D02*
X113205667Y-79255152D01*
X113205667Y-79255152D02*
X113205667Y-79369438D01*
X113205667Y-79369438D02*
X113167571Y-79521819D01*
X113167571Y-79521819D02*
X113129476Y-79598009D01*
X113129476Y-79598009D02*
X113053286Y-79674200D01*
X113053286Y-79674200D02*
X112939000Y-79712295D01*
X112939000Y-79712295D02*
X112748524Y-79712295D01*
X113472333Y-78912295D02*
X114005667Y-78912295D01*
X114005667Y-78912295D02*
X113662809Y-79712295D01*
X123994333Y-76753247D02*
X123727667Y-76753247D01*
X123727667Y-77172295D02*
X123727667Y-76372295D01*
X123727667Y-76372295D02*
X124108619Y-76372295D01*
X124337190Y-76372295D02*
X124870524Y-76372295D01*
X124870524Y-76372295D02*
X124527666Y-77172295D01*
X123651476Y-61170390D02*
X123575286Y-61132295D01*
X123575286Y-61132295D02*
X123461000Y-61132295D01*
X123461000Y-61132295D02*
X123346714Y-61170390D01*
X123346714Y-61170390D02*
X123270524Y-61246580D01*
X123270524Y-61246580D02*
X123232429Y-61322771D01*
X123232429Y-61322771D02*
X123194333Y-61475152D01*
X123194333Y-61475152D02*
X123194333Y-61589438D01*
X123194333Y-61589438D02*
X123232429Y-61741819D01*
X123232429Y-61741819D02*
X123270524Y-61818009D01*
X123270524Y-61818009D02*
X123346714Y-61894200D01*
X123346714Y-61894200D02*
X123461000Y-61932295D01*
X123461000Y-61932295D02*
X123537191Y-61932295D01*
X123537191Y-61932295D02*
X123651476Y-61894200D01*
X123651476Y-61894200D02*
X123689572Y-61856104D01*
X123689572Y-61856104D02*
X123689572Y-61589438D01*
X123689572Y-61589438D02*
X123537191Y-61589438D01*
X124032429Y-61932295D02*
X124032429Y-61132295D01*
X124032429Y-61132295D02*
X124489572Y-61932295D01*
X124489572Y-61932295D02*
X124489572Y-61132295D01*
X124870524Y-61932295D02*
X124870524Y-61132295D01*
X124870524Y-61132295D02*
X125061000Y-61132295D01*
X125061000Y-61132295D02*
X125175286Y-61170390D01*
X125175286Y-61170390D02*
X125251476Y-61246580D01*
X125251476Y-61246580D02*
X125289571Y-61322771D01*
X125289571Y-61322771D02*
X125327667Y-61475152D01*
X125327667Y-61475152D02*
X125327667Y-61589438D01*
X125327667Y-61589438D02*
X125289571Y-61741819D01*
X125289571Y-61741819D02*
X125251476Y-61818009D01*
X125251476Y-61818009D02*
X125175286Y-61894200D01*
X125175286Y-61894200D02*
X125061000Y-61932295D01*
X125061000Y-61932295D02*
X124870524Y-61932295D01*
X113205667Y-77096104D02*
X113167571Y-77134200D01*
X113167571Y-77134200D02*
X113053286Y-77172295D01*
X113053286Y-77172295D02*
X112977095Y-77172295D01*
X112977095Y-77172295D02*
X112862809Y-77134200D01*
X112862809Y-77134200D02*
X112786619Y-77058009D01*
X112786619Y-77058009D02*
X112748524Y-76981819D01*
X112748524Y-76981819D02*
X112710428Y-76829438D01*
X112710428Y-76829438D02*
X112710428Y-76715152D01*
X112710428Y-76715152D02*
X112748524Y-76562771D01*
X112748524Y-76562771D02*
X112786619Y-76486580D01*
X112786619Y-76486580D02*
X112862809Y-76410390D01*
X112862809Y-76410390D02*
X112977095Y-76372295D01*
X112977095Y-76372295D02*
X113053286Y-76372295D01*
X113053286Y-76372295D02*
X113167571Y-76410390D01*
X113167571Y-76410390D02*
X113205667Y-76448485D01*
X113891381Y-76372295D02*
X113739000Y-76372295D01*
X113739000Y-76372295D02*
X113662809Y-76410390D01*
X113662809Y-76410390D02*
X113624714Y-76448485D01*
X113624714Y-76448485D02*
X113548524Y-76562771D01*
X113548524Y-76562771D02*
X113510428Y-76715152D01*
X113510428Y-76715152D02*
X113510428Y-77019914D01*
X113510428Y-77019914D02*
X113548524Y-77096104D01*
X113548524Y-77096104D02*
X113586619Y-77134200D01*
X113586619Y-77134200D02*
X113662809Y-77172295D01*
X113662809Y-77172295D02*
X113815190Y-77172295D01*
X113815190Y-77172295D02*
X113891381Y-77134200D01*
X113891381Y-77134200D02*
X113929476Y-77096104D01*
X113929476Y-77096104D02*
X113967571Y-77019914D01*
X113967571Y-77019914D02*
X113967571Y-76829438D01*
X113967571Y-76829438D02*
X113929476Y-76753247D01*
X113929476Y-76753247D02*
X113891381Y-76715152D01*
X113891381Y-76715152D02*
X113815190Y-76677057D01*
X113815190Y-76677057D02*
X113662809Y-76677057D01*
X113662809Y-76677057D02*
X113586619Y-76715152D01*
X113586619Y-76715152D02*
X113548524Y-76753247D01*
X113548524Y-76753247D02*
X113510428Y-76829438D01*
X113015190Y-86913247D02*
X113129476Y-86951342D01*
X113129476Y-86951342D02*
X113167571Y-86989438D01*
X113167571Y-86989438D02*
X113205667Y-87065628D01*
X113205667Y-87065628D02*
X113205667Y-87179914D01*
X113205667Y-87179914D02*
X113167571Y-87256104D01*
X113167571Y-87256104D02*
X113129476Y-87294200D01*
X113129476Y-87294200D02*
X113053286Y-87332295D01*
X113053286Y-87332295D02*
X112748524Y-87332295D01*
X112748524Y-87332295D02*
X112748524Y-86532295D01*
X112748524Y-86532295D02*
X113015190Y-86532295D01*
X113015190Y-86532295D02*
X113091381Y-86570390D01*
X113091381Y-86570390D02*
X113129476Y-86608485D01*
X113129476Y-86608485D02*
X113167571Y-86684676D01*
X113167571Y-86684676D02*
X113167571Y-86760866D01*
X113167571Y-86760866D02*
X113129476Y-86837057D01*
X113129476Y-86837057D02*
X113091381Y-86875152D01*
X113091381Y-86875152D02*
X113015190Y-86913247D01*
X113015190Y-86913247D02*
X112748524Y-86913247D01*
X113929476Y-86532295D02*
X113548524Y-86532295D01*
X113548524Y-86532295D02*
X113510428Y-86913247D01*
X113510428Y-86913247D02*
X113548524Y-86875152D01*
X113548524Y-86875152D02*
X113624714Y-86837057D01*
X113624714Y-86837057D02*
X113815190Y-86837057D01*
X113815190Y-86837057D02*
X113891381Y-86875152D01*
X113891381Y-86875152D02*
X113929476Y-86913247D01*
X113929476Y-86913247D02*
X113967571Y-86989438D01*
X113967571Y-86989438D02*
X113967571Y-87179914D01*
X113967571Y-87179914D02*
X113929476Y-87256104D01*
X113929476Y-87256104D02*
X113891381Y-87294200D01*
X113891381Y-87294200D02*
X113815190Y-87332295D01*
X113815190Y-87332295D02*
X113624714Y-87332295D01*
X113624714Y-87332295D02*
X113548524Y-87294200D01*
X113548524Y-87294200D02*
X113510428Y-87256104D01*
X112748524Y-72092295D02*
X112748524Y-71292295D01*
X112748524Y-71292295D02*
X112939000Y-71292295D01*
X112939000Y-71292295D02*
X113053286Y-71330390D01*
X113053286Y-71330390D02*
X113129476Y-71406580D01*
X113129476Y-71406580D02*
X113167571Y-71482771D01*
X113167571Y-71482771D02*
X113205667Y-71635152D01*
X113205667Y-71635152D02*
X113205667Y-71749438D01*
X113205667Y-71749438D02*
X113167571Y-71901819D01*
X113167571Y-71901819D02*
X113129476Y-71978009D01*
X113129476Y-71978009D02*
X113053286Y-72054200D01*
X113053286Y-72054200D02*
X112939000Y-72092295D01*
X112939000Y-72092295D02*
X112748524Y-72092295D01*
X113700905Y-71292295D02*
X113777095Y-71292295D01*
X113777095Y-71292295D02*
X113853286Y-71330390D01*
X113853286Y-71330390D02*
X113891381Y-71368485D01*
X113891381Y-71368485D02*
X113929476Y-71444676D01*
X113929476Y-71444676D02*
X113967571Y-71597057D01*
X113967571Y-71597057D02*
X113967571Y-71787533D01*
X113967571Y-71787533D02*
X113929476Y-71939914D01*
X113929476Y-71939914D02*
X113891381Y-72016104D01*
X113891381Y-72016104D02*
X113853286Y-72054200D01*
X113853286Y-72054200D02*
X113777095Y-72092295D01*
X113777095Y-72092295D02*
X113700905Y-72092295D01*
X113700905Y-72092295D02*
X113624714Y-72054200D01*
X113624714Y-72054200D02*
X113586619Y-72016104D01*
X113586619Y-72016104D02*
X113548524Y-71939914D01*
X113548524Y-71939914D02*
X113510428Y-71787533D01*
X113510428Y-71787533D02*
X113510428Y-71597057D01*
X113510428Y-71597057D02*
X113548524Y-71444676D01*
X113548524Y-71444676D02*
X113586619Y-71368485D01*
X113586619Y-71368485D02*
X113624714Y-71330390D01*
X113624714Y-71330390D02*
X113700905Y-71292295D01*
X112809524Y-59862295D02*
X112809524Y-59062295D01*
X112809524Y-59062295D02*
X113000000Y-59062295D01*
X113000000Y-59062295D02*
X113114286Y-59100390D01*
X113114286Y-59100390D02*
X113190476Y-59176580D01*
X113190476Y-59176580D02*
X113228571Y-59252771D01*
X113228571Y-59252771D02*
X113266667Y-59405152D01*
X113266667Y-59405152D02*
X113266667Y-59519438D01*
X113266667Y-59519438D02*
X113228571Y-59671819D01*
X113228571Y-59671819D02*
X113190476Y-59748009D01*
X113190476Y-59748009D02*
X113114286Y-59824200D01*
X113114286Y-59824200D02*
X113000000Y-59862295D01*
X113000000Y-59862295D02*
X112809524Y-59862295D01*
X113533333Y-59062295D02*
X114028571Y-59062295D01*
X114028571Y-59062295D02*
X113761905Y-59367057D01*
X113761905Y-59367057D02*
X113876190Y-59367057D01*
X113876190Y-59367057D02*
X113952381Y-59405152D01*
X113952381Y-59405152D02*
X113990476Y-59443247D01*
X113990476Y-59443247D02*
X114028571Y-59519438D01*
X114028571Y-59519438D02*
X114028571Y-59709914D01*
X114028571Y-59709914D02*
X113990476Y-59786104D01*
X113990476Y-59786104D02*
X113952381Y-59824200D01*
X113952381Y-59824200D02*
X113876190Y-59862295D01*
X113876190Y-59862295D02*
X113647619Y-59862295D01*
X113647619Y-59862295D02*
X113571428Y-59824200D01*
X113571428Y-59824200D02*
X113533333Y-59786104D01*
X123994333Y-69133247D02*
X123727667Y-69133247D01*
X123727667Y-69552295D02*
X123727667Y-68752295D01*
X123727667Y-68752295D02*
X124108619Y-68752295D01*
X124756238Y-69018961D02*
X124756238Y-69552295D01*
X124565762Y-68714200D02*
X124375285Y-69285628D01*
X124375285Y-69285628D02*
X124870524Y-69285628D01*
X113015190Y-84373247D02*
X113129476Y-84411342D01*
X113129476Y-84411342D02*
X113167571Y-84449438D01*
X113167571Y-84449438D02*
X113205667Y-84525628D01*
X113205667Y-84525628D02*
X113205667Y-84639914D01*
X113205667Y-84639914D02*
X113167571Y-84716104D01*
X113167571Y-84716104D02*
X113129476Y-84754200D01*
X113129476Y-84754200D02*
X113053286Y-84792295D01*
X113053286Y-84792295D02*
X112748524Y-84792295D01*
X112748524Y-84792295D02*
X112748524Y-83992295D01*
X112748524Y-83992295D02*
X113015190Y-83992295D01*
X113015190Y-83992295D02*
X113091381Y-84030390D01*
X113091381Y-84030390D02*
X113129476Y-84068485D01*
X113129476Y-84068485D02*
X113167571Y-84144676D01*
X113167571Y-84144676D02*
X113167571Y-84220866D01*
X113167571Y-84220866D02*
X113129476Y-84297057D01*
X113129476Y-84297057D02*
X113091381Y-84335152D01*
X113091381Y-84335152D02*
X113015190Y-84373247D01*
X113015190Y-84373247D02*
X112748524Y-84373247D01*
X113891381Y-84258961D02*
X113891381Y-84792295D01*
X113700905Y-83954200D02*
X113510428Y-84525628D01*
X113510428Y-84525628D02*
X114005667Y-84525628D01*
X123937190Y-86913247D02*
X124051476Y-86951342D01*
X124051476Y-86951342D02*
X124089571Y-86989438D01*
X124089571Y-86989438D02*
X124127667Y-87065628D01*
X124127667Y-87065628D02*
X124127667Y-87179914D01*
X124127667Y-87179914D02*
X124089571Y-87256104D01*
X124089571Y-87256104D02*
X124051476Y-87294200D01*
X124051476Y-87294200D02*
X123975286Y-87332295D01*
X123975286Y-87332295D02*
X123670524Y-87332295D01*
X123670524Y-87332295D02*
X123670524Y-86532295D01*
X123670524Y-86532295D02*
X123937190Y-86532295D01*
X123937190Y-86532295D02*
X124013381Y-86570390D01*
X124013381Y-86570390D02*
X124051476Y-86608485D01*
X124051476Y-86608485D02*
X124089571Y-86684676D01*
X124089571Y-86684676D02*
X124089571Y-86760866D01*
X124089571Y-86760866D02*
X124051476Y-86837057D01*
X124051476Y-86837057D02*
X124013381Y-86875152D01*
X124013381Y-86875152D02*
X123937190Y-86913247D01*
X123937190Y-86913247D02*
X123670524Y-86913247D01*
X124813381Y-86532295D02*
X124661000Y-86532295D01*
X124661000Y-86532295D02*
X124584809Y-86570390D01*
X124584809Y-86570390D02*
X124546714Y-86608485D01*
X124546714Y-86608485D02*
X124470524Y-86722771D01*
X124470524Y-86722771D02*
X124432428Y-86875152D01*
X124432428Y-86875152D02*
X124432428Y-87179914D01*
X124432428Y-87179914D02*
X124470524Y-87256104D01*
X124470524Y-87256104D02*
X124508619Y-87294200D01*
X124508619Y-87294200D02*
X124584809Y-87332295D01*
X124584809Y-87332295D02*
X124737190Y-87332295D01*
X124737190Y-87332295D02*
X124813381Y-87294200D01*
X124813381Y-87294200D02*
X124851476Y-87256104D01*
X124851476Y-87256104D02*
X124889571Y-87179914D01*
X124889571Y-87179914D02*
X124889571Y-86989438D01*
X124889571Y-86989438D02*
X124851476Y-86913247D01*
X124851476Y-86913247D02*
X124813381Y-86875152D01*
X124813381Y-86875152D02*
X124737190Y-86837057D01*
X124737190Y-86837057D02*
X124584809Y-86837057D01*
X124584809Y-86837057D02*
X124508619Y-86875152D01*
X124508619Y-86875152D02*
X124470524Y-86913247D01*
X124470524Y-86913247D02*
X124432428Y-86989438D01*
X123937190Y-79293247D02*
X124051476Y-79331342D01*
X124051476Y-79331342D02*
X124089571Y-79369438D01*
X124089571Y-79369438D02*
X124127667Y-79445628D01*
X124127667Y-79445628D02*
X124127667Y-79559914D01*
X124127667Y-79559914D02*
X124089571Y-79636104D01*
X124089571Y-79636104D02*
X124051476Y-79674200D01*
X124051476Y-79674200D02*
X123975286Y-79712295D01*
X123975286Y-79712295D02*
X123670524Y-79712295D01*
X123670524Y-79712295D02*
X123670524Y-78912295D01*
X123670524Y-78912295D02*
X123937190Y-78912295D01*
X123937190Y-78912295D02*
X124013381Y-78950390D01*
X124013381Y-78950390D02*
X124051476Y-78988485D01*
X124051476Y-78988485D02*
X124089571Y-79064676D01*
X124089571Y-79064676D02*
X124089571Y-79140866D01*
X124089571Y-79140866D02*
X124051476Y-79217057D01*
X124051476Y-79217057D02*
X124013381Y-79255152D01*
X124013381Y-79255152D02*
X123937190Y-79293247D01*
X123937190Y-79293247D02*
X123670524Y-79293247D01*
X124889571Y-79712295D02*
X124432428Y-79712295D01*
X124661000Y-79712295D02*
X124661000Y-78912295D01*
X124661000Y-78912295D02*
X124584809Y-79026580D01*
X124584809Y-79026580D02*
X124508619Y-79102771D01*
X124508619Y-79102771D02*
X124432428Y-79140866D01*
%TO.C,D14*%
X88400000Y-96103631D02*
X89400000Y-96103631D01*
X88900000Y-96003631D02*
X88400000Y-95103631D01*
X88400000Y-95103631D02*
X89400000Y-95103631D01*
X89400000Y-95103631D02*
X88900000Y-96003631D01*
%TO.C,D4*%
X88400000Y-58103631D02*
X89400000Y-58103631D01*
X88900000Y-58003631D02*
X88400000Y-57103631D01*
X88400000Y-57103631D02*
X89400000Y-57103631D01*
X89400000Y-57103631D02*
X88900000Y-58003631D01*
D12*
%TO.C,S8*%
X54747381Y-63503631D02*
X54747381Y-77703631D01*
X54747381Y-77703631D02*
X68947381Y-77703631D01*
X68947381Y-63503631D02*
X54747381Y-63503631D01*
X68947381Y-77703631D02*
X68947381Y-63503631D01*
%TO.C,S11*%
X73747381Y-69503631D02*
X73747381Y-83703631D01*
X73747381Y-83703631D02*
X87947381Y-83703631D01*
X87947381Y-69503631D02*
X73747381Y-69503631D01*
X87947381Y-83703631D02*
X87947381Y-69503631D01*
D11*
%TO.C,D6*%
X28928438Y-86119413D02*
X29924632Y-86032257D01*
X29417819Y-85976216D02*
X28841282Y-85123219D01*
X28841282Y-85123219D02*
X29837476Y-85036063D01*
X29837476Y-85036063D02*
X29417819Y-85976216D01*
%TO.C,D16*%
X91304124Y-131879060D02*
X92298646Y-131983588D01*
X91811838Y-131831872D02*
X91408652Y-130884538D01*
X91408652Y-130884538D02*
X92403174Y-130989066D01*
X92403174Y-130989066D02*
X91811838Y-131831872D01*
D12*
%TO.C,S2*%
X13719382Y-79821002D02*
X14956993Y-93966967D01*
X14956993Y-93966967D02*
X29102958Y-92729356D01*
X27865347Y-78583391D02*
X13719382Y-79821002D01*
X29102958Y-92729356D02*
X27865347Y-78583391D01*
D11*
%TO.C,D7*%
X50400000Y-76103631D02*
X51400000Y-76103631D01*
X50900000Y-76003631D02*
X50400000Y-75103631D01*
X50400000Y-75103631D02*
X51400000Y-75103631D01*
X51400000Y-75103631D02*
X50900000Y-76003631D01*
D12*
%TO.C,S5*%
X35747381Y-68503631D02*
X35747381Y-82703631D01*
X35747381Y-82703631D02*
X49947381Y-82703631D01*
X49947381Y-68503631D02*
X35747381Y-68503631D01*
X49947381Y-82703631D02*
X49947381Y-68503631D01*
D11*
%TO.C,D13*%
X69400000Y-90103631D02*
X70400000Y-90103631D01*
X69900000Y-90003631D02*
X69400000Y-89103631D01*
X69400000Y-89103631D02*
X70400000Y-89103631D01*
X70400000Y-89103631D02*
X69900000Y-90003631D01*
%TO.C,D1*%
X27445481Y-67141675D02*
X28441675Y-67054519D01*
X27934862Y-66998478D02*
X27358325Y-66145481D01*
X27358325Y-66145481D02*
X28354519Y-66058325D01*
X28354519Y-66058325D02*
X27934862Y-66998478D01*
D12*
%TO.C,S6*%
X35747381Y-87503631D02*
X35747381Y-101703631D01*
X35747381Y-101703631D02*
X49947381Y-101703631D01*
X49947381Y-87503631D02*
X35747381Y-87503631D01*
X49947381Y-101703631D02*
X49947381Y-87503631D01*
D11*
%TO.C,D17*%
X113275433Y-138585275D02*
X114220951Y-138910843D01*
X113780749Y-138653507D02*
X113601001Y-137639757D01*
X113601001Y-137639757D02*
X114546519Y-137965325D01*
X114546519Y-137965325D02*
X113780749Y-138653507D01*
%TO.C,D10*%
X107323227Y-83499079D02*
X108323227Y-83499079D01*
X107823227Y-83399079D02*
X107323227Y-82499079D01*
X107323227Y-82499079D02*
X108323227Y-82499079D01*
X108323227Y-82499079D02*
X107823227Y-83399079D01*
%TO.C,D5*%
X107400000Y-64100000D02*
X108400000Y-64100000D01*
X107900000Y-64000000D02*
X107400000Y-63100000D01*
X107400000Y-63100000D02*
X108400000Y-63100000D01*
X108400000Y-63100000D02*
X107900000Y-64000000D01*
D12*
%TO.C,S1*%
X12082105Y-60851237D02*
X13319716Y-74997202D01*
X13319716Y-74997202D02*
X27465681Y-73759591D01*
X26228070Y-59613626D02*
X12082105Y-60851237D01*
X27465681Y-73759591D02*
X26228070Y-59613626D01*
%TO.C,S7*%
X54747381Y-44503631D02*
X54747381Y-58703631D01*
X54747381Y-58703631D02*
X68947381Y-58703631D01*
X68947381Y-44503631D02*
X54747381Y-44503631D01*
X68947381Y-58703631D02*
X68947381Y-44503631D01*
%TO.C,S16*%
X77523375Y-122788781D02*
X76039070Y-136910992D01*
X76039070Y-136910992D02*
X90161281Y-138395297D01*
X91645586Y-124273086D02*
X77523375Y-122788781D01*
X90161281Y-138395297D02*
X91645586Y-124273086D01*
%TO.C,S10*%
X73747381Y-50503631D02*
X73747381Y-64703631D01*
X73747381Y-64703631D02*
X87947381Y-64703631D01*
X87947381Y-50503631D02*
X73747381Y-50503631D01*
X87947381Y-64703631D02*
X87947381Y-50503631D01*
%TO.C,S18*%
X125217261Y-135551472D02*
X117692408Y-147593755D01*
X117692408Y-147593755D02*
X129734691Y-155118608D01*
X137259544Y-143076325D02*
X125217261Y-135551472D01*
X129734691Y-155118608D02*
X137259544Y-143076325D01*
%TO.C,S4*%
X35747381Y-49503631D02*
X35747381Y-63703631D01*
X35747381Y-63703631D02*
X49947381Y-63703631D01*
X49947381Y-49503631D02*
X35747381Y-49503631D01*
X49947381Y-63703631D02*
X49947381Y-49503631D01*
D11*
%TO.C,D15*%
X107400000Y-102103631D02*
X108400000Y-102103631D01*
X107900000Y-102003631D02*
X107400000Y-101103631D01*
X107400000Y-101103631D02*
X108400000Y-101103631D01*
X108400000Y-101103631D02*
X107900000Y-102003631D01*
D12*
%TO.C,S17*%
X101859304Y-126616469D02*
X97236236Y-140042833D01*
X97236236Y-140042833D02*
X110662600Y-144665901D01*
X115285668Y-131239537D02*
X101859304Y-126616469D01*
X110662600Y-144665901D02*
X115285668Y-131239537D01*
%TO.C,J1*%
X110670000Y-90670000D02*
X112000000Y-90670000D01*
X110670000Y-92000000D02*
X110670000Y-90670000D01*
X110670000Y-92000000D02*
X110670000Y-125000000D01*
X110670000Y-92000000D02*
X113330000Y-92000000D01*
X110670000Y-125000000D02*
X113330000Y-125000000D01*
X113330000Y-92000000D02*
X113330000Y-125000000D01*
D11*
%TO.C,D12*%
X50400000Y-95100000D02*
X51400000Y-95100000D01*
X50900000Y-95000000D02*
X50400000Y-94100000D01*
X50400000Y-94100000D02*
X51400000Y-94100000D01*
X51400000Y-94100000D02*
X50900000Y-95000000D01*
%TO.C,D8*%
X69400000Y-71103631D02*
X70400000Y-71103631D01*
X69900000Y-71003631D02*
X69400000Y-70103631D01*
X69400000Y-70103631D02*
X70400000Y-70103631D01*
X70400000Y-70103631D02*
X69900000Y-71003631D01*
D12*
%TO.C,S3*%
X15368013Y-98809542D02*
X16605624Y-112955507D01*
X16605624Y-112955507D02*
X30751589Y-111717896D01*
X29513978Y-97571931D02*
X15368013Y-98809542D01*
X30751589Y-111717896D02*
X29513978Y-97571931D01*
%TO.C,S14*%
X92747381Y-75503631D02*
X92747381Y-89703631D01*
X92747381Y-89703631D02*
X106947381Y-89703631D01*
X106947381Y-75503631D02*
X92747381Y-75503631D01*
X106947381Y-89703631D02*
X106947381Y-75503631D01*
D11*
%TO.C,D2*%
X50400000Y-57100000D02*
X51400000Y-57100000D01*
X50900000Y-57000000D02*
X50400000Y-56100000D01*
X50400000Y-56100000D02*
X51400000Y-56100000D01*
X51400000Y-56100000D02*
X50900000Y-57000000D01*
%TO.C,D9*%
X88400000Y-77103631D02*
X89400000Y-77103631D01*
X88900000Y-77003631D02*
X88400000Y-76103631D01*
X88400000Y-76103631D02*
X89400000Y-76103631D01*
X89400000Y-76103631D02*
X88900000Y-77003631D01*
D12*
%TO.C,S13*%
X92747381Y-56503631D02*
X92747381Y-70703631D01*
X92747381Y-70703631D02*
X106947381Y-70703631D01*
X106947381Y-56503631D02*
X92747381Y-56503631D01*
X106947381Y-70703631D02*
X106947381Y-56503631D01*
D11*
%TO.C,D18*%
X133571377Y-149733458D02*
X134419425Y-150263378D01*
X134048393Y-149913613D02*
X134101297Y-148885410D01*
X134101297Y-148885410D02*
X134949345Y-149415330D01*
X134949345Y-149415330D02*
X134048393Y-149913613D01*
%TO.C,D11*%
X30924774Y-105077533D02*
X31920968Y-104990377D01*
X31414155Y-104934336D02*
X30837618Y-104081339D01*
X30837618Y-104081339D02*
X31833812Y-103994183D01*
X31833812Y-103994183D02*
X31414155Y-104934336D01*
%TO.C,D3*%
X69400000Y-52103631D02*
X70400000Y-52103631D01*
X69900000Y-52003631D02*
X69400000Y-51103631D01*
X69400000Y-51103631D02*
X70400000Y-51103631D01*
X70400000Y-51103631D02*
X69900000Y-52003631D01*
D12*
%TO.C,S12*%
X73747381Y-88503631D02*
X73747381Y-102703631D01*
X73747381Y-102703631D02*
X87947381Y-102703631D01*
X87947381Y-88503631D02*
X73747381Y-88503631D01*
X87947381Y-102703631D02*
X87947381Y-88503631D01*
%TO.C,S9*%
X54747381Y-82503631D02*
X54747381Y-96703631D01*
X54747381Y-96703631D02*
X68947381Y-96703631D01*
X68947381Y-82503631D02*
X54747381Y-82503631D01*
X68947381Y-96703631D02*
X68947381Y-82503631D01*
%TO.C,S15*%
X92747381Y-94503631D02*
X92747381Y-108703631D01*
X92747381Y-108703631D02*
X106947381Y-108703631D01*
X106947381Y-94503631D02*
X92747381Y-94503631D01*
X106947381Y-108703631D02*
X106947381Y-94503631D01*
D13*
%TO.C,U2*%
X112450000Y-57760000D02*
X109910000Y-57760000D01*
X112450000Y-57760000D02*
X112450000Y-60300000D01*
X109910000Y-57760000D02*
X109910000Y-60300000D01*
X112450000Y-60300000D02*
X109910000Y-60300000D01*
D11*
X123731568Y-63739360D02*
X123231568Y-63739360D01*
X123231568Y-63639360D01*
X123731568Y-63639360D01*
X123731568Y-63739360D01*
G36*
X123731568Y-63739360D02*
G01*
X123231568Y-63739360D01*
X123231568Y-63639360D01*
X123731568Y-63639360D01*
X123731568Y-63739360D01*
G37*
X123731568Y-63939360D02*
X123631568Y-63939360D01*
X123631568Y-63639360D01*
X123731568Y-63639360D01*
X123731568Y-63939360D01*
G36*
X123731568Y-63939360D02*
G01*
X123631568Y-63939360D01*
X123631568Y-63639360D01*
X123731568Y-63639360D01*
X123731568Y-63939360D01*
G37*
X123331568Y-64439360D02*
X123231568Y-64439360D01*
X123231568Y-63639360D01*
X123331568Y-63639360D01*
X123331568Y-64439360D01*
G36*
X123331568Y-64439360D02*
G01*
X123231568Y-64439360D01*
X123231568Y-63639360D01*
X123331568Y-63639360D01*
X123331568Y-64439360D01*
G37*
X123531568Y-64139360D02*
X123431568Y-64139360D01*
X123431568Y-64039360D01*
X123531568Y-64039360D01*
X123531568Y-64139360D01*
G36*
X123531568Y-64139360D02*
G01*
X123431568Y-64139360D01*
X123431568Y-64039360D01*
X123531568Y-64039360D01*
X123531568Y-64139360D01*
G37*
X123731568Y-64439360D02*
X123631568Y-64439360D01*
X123631568Y-64239360D01*
X123731568Y-64239360D01*
X123731568Y-64439360D01*
G36*
X123731568Y-64439360D02*
G01*
X123631568Y-64439360D01*
X123631568Y-64239360D01*
X123731568Y-64239360D01*
X123731568Y-64439360D01*
G37*
%TD*%
D14*
%TO.C,U2*%
X111180000Y-59030000D03*
D15*
X111180000Y-61570000D03*
X111180000Y-64110000D03*
X111180000Y-66650000D03*
X111180000Y-69190000D03*
X111180000Y-71730000D03*
X111180000Y-74270000D03*
X111180000Y-76810000D03*
X111180000Y-79350000D03*
X111180000Y-81890000D03*
X111180000Y-84430000D03*
X111180000Y-86970000D03*
X126420000Y-86970000D03*
X126420000Y-84430000D03*
X126420000Y-81890000D03*
X126420000Y-79350000D03*
X126420000Y-76810000D03*
X126420000Y-74270000D03*
X126420000Y-71730000D03*
X126420000Y-69190000D03*
X126420000Y-66650000D03*
X126420000Y-64110000D03*
X126420000Y-61570000D03*
X126420000Y-59030000D03*
%TD*%
M02*
