M48
; DRILL file {KiCad 7.0.7} date Thu Nov 23 18:26:14 2023
; FORMAT={-:-/ absolute / metric / decimal}
; #@! TF.CreationDate,2023-11-23T18:26:14-07:00
; #@! TF.GenerationSoftware,Kicad,Pcbnew,7.0.7
; #@! TF.FileFunction,Plated,1,2,PTH
FMAT,2
METRIC
; #@! TA.AperFunction,Plated,PTH,ViaDrill
T1C0.400
; #@! TA.AperFunction,Plated,PTH,ComponentDrill
T2C0.813
; #@! TA.AperFunction,Plated,PTH,ComponentDrill
T3C1.000
; #@! TA.AperFunction,Plated,PTH,ComponentDrill
T4C1.092
; #@! TA.AperFunction,Plated,PTH,ComponentDrill
T5C1.500
%
G90
G05
T1
X38.313Y-67.199
X39.762Y-66.499
X57.313Y-62.899
X57.313Y-63.999
X58.762Y-63.899
X58.823Y-62.899
X76.223Y-68.099
X76.223Y-69.199
X76.313Y-66.899
X77.823Y-66.899
X77.823Y-68.099
X77.823Y-69.199
X95.313Y-67.499
X95.313Y-68.699
X95.313Y-70.399
X95.313Y-76.499
X96.762Y-70.399
X96.762Y-71.799
X96.823Y-67.499
X96.823Y-68.699
X113.023Y-85.599
X114.341Y-86.517
X115.223Y-93.299
T2
X27.639Y-63.611
X28.161Y-69.589
X29.121Y-82.589
X29.644Y-88.566
X31.118Y-101.547
X31.641Y-107.524
X50.9Y-53.6
X50.9Y-59.6
X50.9Y-72.604
X50.9Y-78.604
X50.9Y-91.6
X50.9Y-97.6
X69.9Y-48.604
X69.9Y-54.604
X69.9Y-67.604
X69.9Y-73.604
X69.9Y-86.604
X69.9Y-92.604
X88.9Y-54.604
X88.9Y-60.604
X88.9Y-73.604
X88.9Y-79.604
X88.9Y-92.604
X88.9Y-98.604
X91.54Y-134.418
X92.167Y-128.45
X107.823Y-79.999
X107.823Y-85.999
X107.9Y-60.6
X107.9Y-66.6
X107.9Y-98.604
X107.9Y-104.604
X112.934Y-141.112
X114.888Y-135.439
X132.671Y-152.119
X135.85Y-147.03
T3
X112.0Y-92.0
X112.0Y-96.0
X112.0Y-100.0
X112.0Y-104.0
X112.0Y-108.0
X112.0Y-112.0
X112.0Y-116.0
X112.0Y-120.0
X112.0Y-124.0
T4
X111.18Y-59.03
X111.18Y-61.57
X111.18Y-64.11
X111.18Y-66.65
X111.18Y-69.19
X111.18Y-71.73
X111.18Y-74.27
X111.18Y-76.81
X111.18Y-79.35
X111.18Y-81.89
X111.18Y-84.43
X111.18Y-86.97
X126.42Y-59.03
X126.42Y-61.57
X126.42Y-64.11
X126.42Y-66.65
X126.42Y-69.19
X126.42Y-71.73
X126.42Y-74.27
X126.42Y-76.81
X126.42Y-79.35
X126.42Y-81.89
X126.42Y-84.43
X126.42Y-86.97
T5
X15.757Y-65.107
X17.394Y-84.077
X19.043Y-103.065
X21.861Y-62.023
X23.499Y-80.993
X25.147Y-99.982
X39.037Y-54.064
X39.037Y-73.064
X39.037Y-92.064
X45.387Y-51.524
X45.387Y-70.524
X45.387Y-89.524
X58.037Y-49.064
X58.037Y-68.064
X58.037Y-87.064
X64.387Y-46.524
X64.387Y-65.524
X64.387Y-84.524
X77.037Y-55.064
X77.037Y-74.064
X77.037Y-93.064
X80.319Y-127.668
X83.387Y-52.524
X83.387Y-71.524
X83.387Y-90.524
X86.899Y-125.805
X96.037Y-61.064
X96.037Y-80.064
X96.037Y-99.064
X102.387Y-58.524
X102.387Y-77.524
X102.387Y-96.524
X103.485Y-131.999
X110.316Y-131.665
X125.591Y-141.162
X132.322Y-142.373
T0
M30
