%TF.GenerationSoftware,KiCad,Pcbnew,7.0.7*%
%TF.CreationDate,2023-11-26T11:13:58-07:00*%
%TF.ProjectId,TypeStationX,54797065-5374-4617-9469-6f6e582e6b69,rev?*%
%TF.SameCoordinates,Original*%
%TF.FileFunction,Drillmap*%
%TF.FilePolarity,Positive*%
%FSLAX45Y45*%
G04 Gerber Fmt 4.5, Leading zero omitted, Abs format (unit mm)*
G04 Created by KiCad (PCBNEW 7.0.7) date 2023-11-26 11:13:58*
%MOMM*%
%LPD*%
G01*
G04 APERTURE LIST*
%ADD10C,0.100000*%
%ADD11C,0.200000*%
%ADD12C,0.175000*%
%ADD13C,0.400000*%
G04 APERTURE END LIST*
D10*
X8150000Y-4800000D02*
X9045000Y-4800000D01*
X11900000Y-13200000D02*
X12425000Y-13200000D01*
X11270000Y-14850000D02*
X9300000Y-14140000D01*
X1400000Y-11610000D02*
X880000Y-5840000D01*
X11900000Y-9040000D02*
X11900000Y-13200000D01*
X12425000Y-13200000D02*
X14080000Y-14230000D01*
X7145000Y-4195000D02*
X7145000Y-4800000D01*
X3290000Y-10670000D02*
X5680000Y-10670000D01*
X12260000Y-5900000D02*
X12260000Y-5510000D01*
X11495000Y-5900000D02*
X12260000Y-5900000D01*
X3360000Y-11410000D02*
X3290000Y-10670000D01*
X10945000Y-5400000D02*
X10945000Y-5510000D01*
X3320000Y-5620000D02*
X3320000Y-4690000D01*
X9045000Y-4800000D02*
X9045000Y-5400000D01*
X12805000Y-8860000D02*
X11900000Y-8860000D01*
X5680000Y-10670000D02*
X7660000Y-10670000D01*
X1400000Y-11610000D02*
X3360000Y-11410000D01*
X10945000Y-5510000D02*
X11495000Y-5510000D01*
X13030000Y-15890000D02*
X14080000Y-14230000D01*
X5220000Y-4195000D02*
X7145000Y-4195000D01*
X3320000Y-4690000D02*
X5220000Y-4690000D01*
X9300000Y-14140000D02*
X7320000Y-13920000D01*
X12805000Y-5510000D02*
X12805000Y-8860000D01*
X13030000Y-15890000D02*
X11270000Y-14850000D01*
X11900000Y-8860000D02*
X11900000Y-9040000D01*
X880000Y-5840000D02*
X3320000Y-5620000D01*
X7145000Y-4800000D02*
X8150000Y-4800000D01*
X7320000Y-13920000D02*
X7660000Y-10670000D01*
X5220000Y-4690000D02*
X5220000Y-4195000D01*
X12260000Y-5510000D02*
X12805000Y-5510000D01*
X11495000Y-5510000D02*
X11495000Y-5900000D01*
X9045000Y-5400000D02*
X10945000Y-5400000D01*
D11*
D12*
X1383822Y-6687316D02*
X1558822Y-6862316D01*
X1558822Y-6687316D02*
X1383822Y-6862316D01*
X1547550Y-8584293D02*
X1722550Y-8759293D01*
X1722550Y-8584293D02*
X1547550Y-8759293D01*
X1712413Y-10483147D02*
X1887413Y-10658147D01*
X1887413Y-10483147D02*
X1712413Y-10658147D01*
X2395956Y-6598766D02*
X2570956Y-6773766D01*
X2570956Y-6598766D02*
X2395956Y-6773766D01*
X2559684Y-8495743D02*
X2734684Y-8670743D01*
X2734684Y-8495743D02*
X2559684Y-8670743D01*
X2724547Y-10394597D02*
X2899547Y-10569597D01*
X2899547Y-10394597D02*
X2724547Y-10569597D01*
X3689238Y-5572863D02*
X3864238Y-5747863D01*
X3864238Y-5572863D02*
X3689238Y-5747863D01*
X3689238Y-7472863D02*
X3864238Y-7647863D01*
X3864238Y-7472863D02*
X3689238Y-7647863D01*
X3689238Y-9372863D02*
X3864238Y-9547863D01*
X3864238Y-9372863D02*
X3689238Y-9547863D01*
X4705238Y-5572863D02*
X4880238Y-5747863D01*
X4880238Y-5572863D02*
X4705238Y-5747863D01*
X4705238Y-7472863D02*
X4880238Y-7647863D01*
X4880238Y-7472863D02*
X4705238Y-7647863D01*
X4705238Y-9372863D02*
X4880238Y-9547863D01*
X4880238Y-9372863D02*
X4705238Y-9547863D01*
X5589238Y-5072863D02*
X5764238Y-5247863D01*
X5764238Y-5072863D02*
X5589238Y-5247863D01*
X5589238Y-6972863D02*
X5764238Y-7147863D01*
X5764238Y-6972863D02*
X5589238Y-7147863D01*
X5589238Y-8872863D02*
X5764238Y-9047863D01*
X5764238Y-8872863D02*
X5589238Y-9047863D01*
X6605238Y-5072863D02*
X6780238Y-5247863D01*
X6780238Y-5072863D02*
X6605238Y-5247863D01*
X6605238Y-6972863D02*
X6780238Y-7147863D01*
X6780238Y-6972863D02*
X6605238Y-7147863D01*
X6605238Y-8872863D02*
X6780238Y-9047863D01*
X6780238Y-8872863D02*
X6605238Y-9047863D01*
X7489238Y-5672863D02*
X7664238Y-5847863D01*
X7664238Y-5672863D02*
X7489238Y-5847863D01*
X7489238Y-7572863D02*
X7664238Y-7747863D01*
X7664238Y-7572863D02*
X7489238Y-7747863D01*
X7489238Y-9472863D02*
X7664238Y-9647863D01*
X7664238Y-9472863D02*
X7489238Y-9647863D01*
X7791516Y-12918603D02*
X7966516Y-13093603D01*
X7966516Y-12918603D02*
X7791516Y-13093603D01*
X8505238Y-5672863D02*
X8680238Y-5847863D01*
X8680238Y-5672863D02*
X8505238Y-5847863D01*
X8505238Y-7572863D02*
X8680238Y-7747863D01*
X8680238Y-7572863D02*
X8505238Y-7747863D01*
X8505238Y-9472863D02*
X8680238Y-9647863D01*
X8680238Y-9472863D02*
X8505238Y-9647863D01*
X8801950Y-13024804D02*
X8976950Y-13199804D01*
X8976950Y-13024804D02*
X8801950Y-13199804D01*
X9389238Y-6272863D02*
X9564238Y-6447863D01*
X9564238Y-6272863D02*
X9389238Y-6447863D01*
X9389238Y-8172863D02*
X9564238Y-8347863D01*
X9564238Y-8172863D02*
X9389238Y-8347863D01*
X9389238Y-10072863D02*
X9564238Y-10247863D01*
X9564238Y-10072863D02*
X9389238Y-10247863D01*
X10058272Y-13311230D02*
X10233272Y-13486230D01*
X10233272Y-13311230D02*
X10058272Y-13486230D01*
X10405238Y-6272863D02*
X10580238Y-6447863D01*
X10580238Y-6272863D02*
X10405238Y-6447863D01*
X10405238Y-8172863D02*
X10580238Y-8347863D01*
X10580238Y-8172863D02*
X10405238Y-8347863D01*
X10405238Y-10072863D02*
X10580238Y-10247863D01*
X10580238Y-10072863D02*
X10405238Y-10247863D01*
X11018919Y-13642007D02*
X11193919Y-13817007D01*
X11193919Y-13642007D02*
X11018919Y-13817007D01*
X12229289Y-14176805D02*
X12404289Y-14351805D01*
X12404289Y-14176805D02*
X12229289Y-14351805D01*
X13090906Y-14715203D02*
X13265906Y-14890203D01*
X13265906Y-14715203D02*
X13090906Y-14890203D01*
D13*
X2177389Y-6730541D02*
G75*
G03*
X2177389Y-6730541I-200000J0D01*
G01*
X2341117Y-8627518D02*
G75*
G03*
X2341117Y-8627518I-200000J0D01*
G01*
X2505980Y-10526372D02*
G75*
G03*
X2505980Y-10526372I-200000J0D01*
G01*
X4484738Y-5660363D02*
G75*
G03*
X4484738Y-5660363I-200000J0D01*
G01*
X4484738Y-7560363D02*
G75*
G03*
X4484738Y-7560363I-200000J0D01*
G01*
X4484738Y-9460363D02*
G75*
G03*
X4484738Y-9460363I-200000J0D01*
G01*
X6384738Y-5160363D02*
G75*
G03*
X6384738Y-5160363I-200000J0D01*
G01*
X6384738Y-7060363D02*
G75*
G03*
X6384738Y-7060363I-200000J0D01*
G01*
X6384738Y-8960363D02*
G75*
G03*
X6384738Y-8960363I-200000J0D01*
G01*
X8284738Y-5760363D02*
G75*
G03*
X8284738Y-5760363I-200000J0D01*
G01*
X8284738Y-7660363D02*
G75*
G03*
X8284738Y-7660363I-200000J0D01*
G01*
X8284738Y-9560363D02*
G75*
G03*
X8284738Y-9560363I-200000J0D01*
G01*
X8584233Y-13059204D02*
G75*
G03*
X8584233Y-13059204I-200000J0D01*
G01*
X10184738Y-6360363D02*
G75*
G03*
X10184738Y-6360363I-200000J0D01*
G01*
X10184738Y-8260363D02*
G75*
G03*
X10184738Y-8260363I-200000J0D01*
G01*
X10184738Y-10160363D02*
G75*
G03*
X10184738Y-10160363I-200000J0D01*
G01*
X10826095Y-13564118D02*
G75*
G03*
X10826095Y-13564118I-200000J0D01*
G01*
X12947598Y-14533504D02*
G75*
G03*
X12947598Y-14533504I-200000J0D01*
G01*
D11*
X1135777Y-16206484D02*
X1135777Y-16006484D01*
X1135777Y-16006484D02*
X1183396Y-16006484D01*
X1183396Y-16006484D02*
X1211967Y-16016008D01*
X1211967Y-16016008D02*
X1231015Y-16035055D01*
X1231015Y-16035055D02*
X1240539Y-16054103D01*
X1240539Y-16054103D02*
X1250063Y-16092198D01*
X1250063Y-16092198D02*
X1250063Y-16120769D01*
X1250063Y-16120769D02*
X1240539Y-16158865D01*
X1240539Y-16158865D02*
X1231015Y-16177912D01*
X1231015Y-16177912D02*
X1211967Y-16196960D01*
X1211967Y-16196960D02*
X1183396Y-16206484D01*
X1183396Y-16206484D02*
X1135777Y-16206484D01*
X1335777Y-16206484D02*
X1335777Y-16073150D01*
X1335777Y-16111246D02*
X1345301Y-16092198D01*
X1345301Y-16092198D02*
X1354824Y-16082674D01*
X1354824Y-16082674D02*
X1373872Y-16073150D01*
X1373872Y-16073150D02*
X1392920Y-16073150D01*
X1459586Y-16206484D02*
X1459586Y-16073150D01*
X1459586Y-16006484D02*
X1450062Y-16016008D01*
X1450062Y-16016008D02*
X1459586Y-16025531D01*
X1459586Y-16025531D02*
X1469110Y-16016008D01*
X1469110Y-16016008D02*
X1459586Y-16006484D01*
X1459586Y-16006484D02*
X1459586Y-16025531D01*
X1583396Y-16206484D02*
X1564348Y-16196960D01*
X1564348Y-16196960D02*
X1554824Y-16177912D01*
X1554824Y-16177912D02*
X1554824Y-16006484D01*
X1688158Y-16206484D02*
X1669110Y-16196960D01*
X1669110Y-16196960D02*
X1659586Y-16177912D01*
X1659586Y-16177912D02*
X1659586Y-16006484D01*
X1916729Y-16206484D02*
X1916729Y-16006484D01*
X1916729Y-16006484D02*
X1983396Y-16149341D01*
X1983396Y-16149341D02*
X2050062Y-16006484D01*
X2050062Y-16006484D02*
X2050062Y-16206484D01*
X2231015Y-16206484D02*
X2231015Y-16101722D01*
X2231015Y-16101722D02*
X2221491Y-16082674D01*
X2221491Y-16082674D02*
X2202444Y-16073150D01*
X2202444Y-16073150D02*
X2164348Y-16073150D01*
X2164348Y-16073150D02*
X2145301Y-16082674D01*
X2231015Y-16196960D02*
X2211967Y-16206484D01*
X2211967Y-16206484D02*
X2164348Y-16206484D01*
X2164348Y-16206484D02*
X2145301Y-16196960D01*
X2145301Y-16196960D02*
X2135777Y-16177912D01*
X2135777Y-16177912D02*
X2135777Y-16158865D01*
X2135777Y-16158865D02*
X2145301Y-16139817D01*
X2145301Y-16139817D02*
X2164348Y-16130293D01*
X2164348Y-16130293D02*
X2211967Y-16130293D01*
X2211967Y-16130293D02*
X2231015Y-16120769D01*
X2326253Y-16073150D02*
X2326253Y-16273150D01*
X2326253Y-16082674D02*
X2345301Y-16073150D01*
X2345301Y-16073150D02*
X2383396Y-16073150D01*
X2383396Y-16073150D02*
X2402444Y-16082674D01*
X2402444Y-16082674D02*
X2411967Y-16092198D01*
X2411967Y-16092198D02*
X2421491Y-16111246D01*
X2421491Y-16111246D02*
X2421491Y-16168388D01*
X2421491Y-16168388D02*
X2411967Y-16187436D01*
X2411967Y-16187436D02*
X2402444Y-16196960D01*
X2402444Y-16196960D02*
X2383396Y-16206484D01*
X2383396Y-16206484D02*
X2345301Y-16206484D01*
X2345301Y-16206484D02*
X2326253Y-16196960D01*
X2507205Y-16187436D02*
X2516729Y-16196960D01*
X2516729Y-16196960D02*
X2507205Y-16206484D01*
X2507205Y-16206484D02*
X2497682Y-16196960D01*
X2497682Y-16196960D02*
X2507205Y-16187436D01*
X2507205Y-16187436D02*
X2507205Y-16206484D01*
X2507205Y-16082674D02*
X2516729Y-16092198D01*
X2516729Y-16092198D02*
X2507205Y-16101722D01*
X2507205Y-16101722D02*
X2497682Y-16092198D01*
X2497682Y-16092198D02*
X2507205Y-16082674D01*
X2507205Y-16082674D02*
X2507205Y-16101722D01*
D12*
X700000Y-16447500D02*
X875000Y-16622500D01*
X875000Y-16447500D02*
X700000Y-16622500D01*
D11*
X1240539Y-16626484D02*
X1126253Y-16626484D01*
X1183396Y-16626484D02*
X1183396Y-16426484D01*
X1183396Y-16426484D02*
X1164348Y-16455055D01*
X1164348Y-16455055D02*
X1145301Y-16474103D01*
X1145301Y-16474103D02*
X1126253Y-16483627D01*
X1326253Y-16607436D02*
X1335777Y-16616960D01*
X1335777Y-16616960D02*
X1326253Y-16626484D01*
X1326253Y-16626484D02*
X1316729Y-16616960D01*
X1316729Y-16616960D02*
X1326253Y-16607436D01*
X1326253Y-16607436D02*
X1326253Y-16626484D01*
X1402443Y-16426484D02*
X1535777Y-16426484D01*
X1535777Y-16426484D02*
X1450062Y-16626484D01*
X1707205Y-16426484D02*
X1611967Y-16426484D01*
X1611967Y-16426484D02*
X1602443Y-16521722D01*
X1602443Y-16521722D02*
X1611967Y-16512198D01*
X1611967Y-16512198D02*
X1631015Y-16502674D01*
X1631015Y-16502674D02*
X1678634Y-16502674D01*
X1678634Y-16502674D02*
X1697682Y-16512198D01*
X1697682Y-16512198D02*
X1707205Y-16521722D01*
X1707205Y-16521722D02*
X1716729Y-16540769D01*
X1716729Y-16540769D02*
X1716729Y-16588388D01*
X1716729Y-16588388D02*
X1707205Y-16607436D01*
X1707205Y-16607436D02*
X1697682Y-16616960D01*
X1697682Y-16616960D02*
X1678634Y-16626484D01*
X1678634Y-16626484D02*
X1631015Y-16626484D01*
X1631015Y-16626484D02*
X1611967Y-16616960D01*
X1611967Y-16616960D02*
X1602443Y-16607436D01*
X1840539Y-16426484D02*
X1859586Y-16426484D01*
X1859586Y-16426484D02*
X1878634Y-16436008D01*
X1878634Y-16436008D02*
X1888158Y-16445531D01*
X1888158Y-16445531D02*
X1897682Y-16464579D01*
X1897682Y-16464579D02*
X1907205Y-16502674D01*
X1907205Y-16502674D02*
X1907205Y-16550293D01*
X1907205Y-16550293D02*
X1897682Y-16588388D01*
X1897682Y-16588388D02*
X1888158Y-16607436D01*
X1888158Y-16607436D02*
X1878634Y-16616960D01*
X1878634Y-16616960D02*
X1859586Y-16626484D01*
X1859586Y-16626484D02*
X1840539Y-16626484D01*
X1840539Y-16626484D02*
X1821491Y-16616960D01*
X1821491Y-16616960D02*
X1811967Y-16607436D01*
X1811967Y-16607436D02*
X1802443Y-16588388D01*
X1802443Y-16588388D02*
X1792920Y-16550293D01*
X1792920Y-16550293D02*
X1792920Y-16502674D01*
X1792920Y-16502674D02*
X1802443Y-16464579D01*
X1802443Y-16464579D02*
X1811967Y-16445531D01*
X1811967Y-16445531D02*
X1821491Y-16436008D01*
X1821491Y-16436008D02*
X1840539Y-16426484D01*
X1992920Y-16626484D02*
X1992920Y-16493150D01*
X1992920Y-16512198D02*
X2002443Y-16502674D01*
X2002443Y-16502674D02*
X2021491Y-16493150D01*
X2021491Y-16493150D02*
X2050063Y-16493150D01*
X2050063Y-16493150D02*
X2069110Y-16502674D01*
X2069110Y-16502674D02*
X2078634Y-16521722D01*
X2078634Y-16521722D02*
X2078634Y-16626484D01*
X2078634Y-16521722D02*
X2088158Y-16502674D01*
X2088158Y-16502674D02*
X2107205Y-16493150D01*
X2107205Y-16493150D02*
X2135777Y-16493150D01*
X2135777Y-16493150D02*
X2154825Y-16502674D01*
X2154825Y-16502674D02*
X2164348Y-16521722D01*
X2164348Y-16521722D02*
X2164348Y-16626484D01*
X2259586Y-16626484D02*
X2259586Y-16493150D01*
X2259586Y-16512198D02*
X2269110Y-16502674D01*
X2269110Y-16502674D02*
X2288158Y-16493150D01*
X2288158Y-16493150D02*
X2316729Y-16493150D01*
X2316729Y-16493150D02*
X2335777Y-16502674D01*
X2335777Y-16502674D02*
X2345301Y-16521722D01*
X2345301Y-16521722D02*
X2345301Y-16626484D01*
X2345301Y-16521722D02*
X2354825Y-16502674D01*
X2354825Y-16502674D02*
X2373872Y-16493150D01*
X2373872Y-16493150D02*
X2402444Y-16493150D01*
X2402444Y-16493150D02*
X2421491Y-16502674D01*
X2421491Y-16502674D02*
X2431015Y-16521722D01*
X2431015Y-16521722D02*
X2431015Y-16626484D01*
X2821491Y-16416960D02*
X2650063Y-16674103D01*
X3078634Y-16426484D02*
X3097682Y-16426484D01*
X3097682Y-16426484D02*
X3116729Y-16436008D01*
X3116729Y-16436008D02*
X3126253Y-16445531D01*
X3126253Y-16445531D02*
X3135777Y-16464579D01*
X3135777Y-16464579D02*
X3145301Y-16502674D01*
X3145301Y-16502674D02*
X3145301Y-16550293D01*
X3145301Y-16550293D02*
X3135777Y-16588388D01*
X3135777Y-16588388D02*
X3126253Y-16607436D01*
X3126253Y-16607436D02*
X3116729Y-16616960D01*
X3116729Y-16616960D02*
X3097682Y-16626484D01*
X3097682Y-16626484D02*
X3078634Y-16626484D01*
X3078634Y-16626484D02*
X3059586Y-16616960D01*
X3059586Y-16616960D02*
X3050063Y-16607436D01*
X3050063Y-16607436D02*
X3040539Y-16588388D01*
X3040539Y-16588388D02*
X3031015Y-16550293D01*
X3031015Y-16550293D02*
X3031015Y-16502674D01*
X3031015Y-16502674D02*
X3040539Y-16464579D01*
X3040539Y-16464579D02*
X3050063Y-16445531D01*
X3050063Y-16445531D02*
X3059586Y-16436008D01*
X3059586Y-16436008D02*
X3078634Y-16426484D01*
X3231015Y-16607436D02*
X3240539Y-16616960D01*
X3240539Y-16616960D02*
X3231015Y-16626484D01*
X3231015Y-16626484D02*
X3221491Y-16616960D01*
X3221491Y-16616960D02*
X3231015Y-16607436D01*
X3231015Y-16607436D02*
X3231015Y-16626484D01*
X3364348Y-16426484D02*
X3383396Y-16426484D01*
X3383396Y-16426484D02*
X3402444Y-16436008D01*
X3402444Y-16436008D02*
X3411967Y-16445531D01*
X3411967Y-16445531D02*
X3421491Y-16464579D01*
X3421491Y-16464579D02*
X3431015Y-16502674D01*
X3431015Y-16502674D02*
X3431015Y-16550293D01*
X3431015Y-16550293D02*
X3421491Y-16588388D01*
X3421491Y-16588388D02*
X3411967Y-16607436D01*
X3411967Y-16607436D02*
X3402444Y-16616960D01*
X3402444Y-16616960D02*
X3383396Y-16626484D01*
X3383396Y-16626484D02*
X3364348Y-16626484D01*
X3364348Y-16626484D02*
X3345301Y-16616960D01*
X3345301Y-16616960D02*
X3335777Y-16607436D01*
X3335777Y-16607436D02*
X3326253Y-16588388D01*
X3326253Y-16588388D02*
X3316729Y-16550293D01*
X3316729Y-16550293D02*
X3316729Y-16502674D01*
X3316729Y-16502674D02*
X3326253Y-16464579D01*
X3326253Y-16464579D02*
X3335777Y-16445531D01*
X3335777Y-16445531D02*
X3345301Y-16436008D01*
X3345301Y-16436008D02*
X3364348Y-16426484D01*
X3602444Y-16426484D02*
X3564348Y-16426484D01*
X3564348Y-16426484D02*
X3545301Y-16436008D01*
X3545301Y-16436008D02*
X3535777Y-16445531D01*
X3535777Y-16445531D02*
X3516729Y-16474103D01*
X3516729Y-16474103D02*
X3507206Y-16512198D01*
X3507206Y-16512198D02*
X3507206Y-16588388D01*
X3507206Y-16588388D02*
X3516729Y-16607436D01*
X3516729Y-16607436D02*
X3526253Y-16616960D01*
X3526253Y-16616960D02*
X3545301Y-16626484D01*
X3545301Y-16626484D02*
X3583396Y-16626484D01*
X3583396Y-16626484D02*
X3602444Y-16616960D01*
X3602444Y-16616960D02*
X3611967Y-16607436D01*
X3611967Y-16607436D02*
X3621491Y-16588388D01*
X3621491Y-16588388D02*
X3621491Y-16540769D01*
X3621491Y-16540769D02*
X3611967Y-16521722D01*
X3611967Y-16521722D02*
X3602444Y-16512198D01*
X3602444Y-16512198D02*
X3583396Y-16502674D01*
X3583396Y-16502674D02*
X3545301Y-16502674D01*
X3545301Y-16502674D02*
X3526253Y-16512198D01*
X3526253Y-16512198D02*
X3516729Y-16521722D01*
X3516729Y-16521722D02*
X3507206Y-16540769D01*
X3735777Y-16512198D02*
X3716729Y-16502674D01*
X3716729Y-16502674D02*
X3707206Y-16493150D01*
X3707206Y-16493150D02*
X3697682Y-16474103D01*
X3697682Y-16474103D02*
X3697682Y-16464579D01*
X3697682Y-16464579D02*
X3707206Y-16445531D01*
X3707206Y-16445531D02*
X3716729Y-16436008D01*
X3716729Y-16436008D02*
X3735777Y-16426484D01*
X3735777Y-16426484D02*
X3773872Y-16426484D01*
X3773872Y-16426484D02*
X3792920Y-16436008D01*
X3792920Y-16436008D02*
X3802444Y-16445531D01*
X3802444Y-16445531D02*
X3811967Y-16464579D01*
X3811967Y-16464579D02*
X3811967Y-16474103D01*
X3811967Y-16474103D02*
X3802444Y-16493150D01*
X3802444Y-16493150D02*
X3792920Y-16502674D01*
X3792920Y-16502674D02*
X3773872Y-16512198D01*
X3773872Y-16512198D02*
X3735777Y-16512198D01*
X3735777Y-16512198D02*
X3716729Y-16521722D01*
X3716729Y-16521722D02*
X3707206Y-16531246D01*
X3707206Y-16531246D02*
X3697682Y-16550293D01*
X3697682Y-16550293D02*
X3697682Y-16588388D01*
X3697682Y-16588388D02*
X3707206Y-16607436D01*
X3707206Y-16607436D02*
X3716729Y-16616960D01*
X3716729Y-16616960D02*
X3735777Y-16626484D01*
X3735777Y-16626484D02*
X3773872Y-16626484D01*
X3773872Y-16626484D02*
X3792920Y-16616960D01*
X3792920Y-16616960D02*
X3802444Y-16607436D01*
X3802444Y-16607436D02*
X3811967Y-16588388D01*
X3811967Y-16588388D02*
X3811967Y-16550293D01*
X3811967Y-16550293D02*
X3802444Y-16531246D01*
X3802444Y-16531246D02*
X3792920Y-16521722D01*
X3792920Y-16521722D02*
X3773872Y-16512198D01*
X3907206Y-16626484D02*
X3945301Y-16626484D01*
X3945301Y-16626484D02*
X3964348Y-16616960D01*
X3964348Y-16616960D02*
X3973872Y-16607436D01*
X3973872Y-16607436D02*
X3992920Y-16578865D01*
X3992920Y-16578865D02*
X4002444Y-16540769D01*
X4002444Y-16540769D02*
X4002444Y-16464579D01*
X4002444Y-16464579D02*
X3992920Y-16445531D01*
X3992920Y-16445531D02*
X3983396Y-16436008D01*
X3983396Y-16436008D02*
X3964348Y-16426484D01*
X3964348Y-16426484D02*
X3926253Y-16426484D01*
X3926253Y-16426484D02*
X3907206Y-16436008D01*
X3907206Y-16436008D02*
X3897682Y-16445531D01*
X3897682Y-16445531D02*
X3888158Y-16464579D01*
X3888158Y-16464579D02*
X3888158Y-16512198D01*
X3888158Y-16512198D02*
X3897682Y-16531246D01*
X3897682Y-16531246D02*
X3907206Y-16540769D01*
X3907206Y-16540769D02*
X3926253Y-16550293D01*
X3926253Y-16550293D02*
X3964348Y-16550293D01*
X3964348Y-16550293D02*
X3983396Y-16540769D01*
X3983396Y-16540769D02*
X3992920Y-16531246D01*
X3992920Y-16531246D02*
X4002444Y-16512198D01*
X4078634Y-16426484D02*
X4078634Y-16464579D01*
X4154825Y-16426484D02*
X4154825Y-16464579D01*
X4450063Y-16702674D02*
X4440539Y-16693150D01*
X4440539Y-16693150D02*
X4421491Y-16664579D01*
X4421491Y-16664579D02*
X4411968Y-16645531D01*
X4411968Y-16645531D02*
X4402444Y-16616960D01*
X4402444Y-16616960D02*
X4392920Y-16569341D01*
X4392920Y-16569341D02*
X4392920Y-16531246D01*
X4392920Y-16531246D02*
X4402444Y-16483627D01*
X4402444Y-16483627D02*
X4411968Y-16455055D01*
X4411968Y-16455055D02*
X4421491Y-16436008D01*
X4421491Y-16436008D02*
X4440539Y-16407436D01*
X4440539Y-16407436D02*
X4450063Y-16397912D01*
X4507206Y-16426484D02*
X4631015Y-16426484D01*
X4631015Y-16426484D02*
X4564349Y-16502674D01*
X4564349Y-16502674D02*
X4592920Y-16502674D01*
X4592920Y-16502674D02*
X4611968Y-16512198D01*
X4611968Y-16512198D02*
X4621491Y-16521722D01*
X4621491Y-16521722D02*
X4631015Y-16540769D01*
X4631015Y-16540769D02*
X4631015Y-16588388D01*
X4631015Y-16588388D02*
X4621491Y-16607436D01*
X4621491Y-16607436D02*
X4611968Y-16616960D01*
X4611968Y-16616960D02*
X4592920Y-16626484D01*
X4592920Y-16626484D02*
X4535777Y-16626484D01*
X4535777Y-16626484D02*
X4516730Y-16616960D01*
X4516730Y-16616960D02*
X4507206Y-16607436D01*
X4802444Y-16426484D02*
X4764349Y-16426484D01*
X4764349Y-16426484D02*
X4745301Y-16436008D01*
X4745301Y-16436008D02*
X4735777Y-16445531D01*
X4735777Y-16445531D02*
X4716730Y-16474103D01*
X4716730Y-16474103D02*
X4707206Y-16512198D01*
X4707206Y-16512198D02*
X4707206Y-16588388D01*
X4707206Y-16588388D02*
X4716730Y-16607436D01*
X4716730Y-16607436D02*
X4726253Y-16616960D01*
X4726253Y-16616960D02*
X4745301Y-16626484D01*
X4745301Y-16626484D02*
X4783396Y-16626484D01*
X4783396Y-16626484D02*
X4802444Y-16616960D01*
X4802444Y-16616960D02*
X4811968Y-16607436D01*
X4811968Y-16607436D02*
X4821491Y-16588388D01*
X4821491Y-16588388D02*
X4821491Y-16540769D01*
X4821491Y-16540769D02*
X4811968Y-16521722D01*
X4811968Y-16521722D02*
X4802444Y-16512198D01*
X4802444Y-16512198D02*
X4783396Y-16502674D01*
X4783396Y-16502674D02*
X4745301Y-16502674D01*
X4745301Y-16502674D02*
X4726253Y-16512198D01*
X4726253Y-16512198D02*
X4716730Y-16521722D01*
X4716730Y-16521722D02*
X4707206Y-16540769D01*
X5059587Y-16626484D02*
X5059587Y-16426484D01*
X5145301Y-16626484D02*
X5145301Y-16521722D01*
X5145301Y-16521722D02*
X5135777Y-16502674D01*
X5135777Y-16502674D02*
X5116730Y-16493150D01*
X5116730Y-16493150D02*
X5088158Y-16493150D01*
X5088158Y-16493150D02*
X5069111Y-16502674D01*
X5069111Y-16502674D02*
X5059587Y-16512198D01*
X5269111Y-16626484D02*
X5250063Y-16616960D01*
X5250063Y-16616960D02*
X5240539Y-16607436D01*
X5240539Y-16607436D02*
X5231015Y-16588388D01*
X5231015Y-16588388D02*
X5231015Y-16531246D01*
X5231015Y-16531246D02*
X5240539Y-16512198D01*
X5240539Y-16512198D02*
X5250063Y-16502674D01*
X5250063Y-16502674D02*
X5269111Y-16493150D01*
X5269111Y-16493150D02*
X5297682Y-16493150D01*
X5297682Y-16493150D02*
X5316730Y-16502674D01*
X5316730Y-16502674D02*
X5326253Y-16512198D01*
X5326253Y-16512198D02*
X5335777Y-16531246D01*
X5335777Y-16531246D02*
X5335777Y-16588388D01*
X5335777Y-16588388D02*
X5326253Y-16607436D01*
X5326253Y-16607436D02*
X5316730Y-16616960D01*
X5316730Y-16616960D02*
X5297682Y-16626484D01*
X5297682Y-16626484D02*
X5269111Y-16626484D01*
X5450063Y-16626484D02*
X5431015Y-16616960D01*
X5431015Y-16616960D02*
X5421492Y-16597912D01*
X5421492Y-16597912D02*
X5421492Y-16426484D01*
X5602444Y-16616960D02*
X5583396Y-16626484D01*
X5583396Y-16626484D02*
X5545301Y-16626484D01*
X5545301Y-16626484D02*
X5526253Y-16616960D01*
X5526253Y-16616960D02*
X5516730Y-16597912D01*
X5516730Y-16597912D02*
X5516730Y-16521722D01*
X5516730Y-16521722D02*
X5526253Y-16502674D01*
X5526253Y-16502674D02*
X5545301Y-16493150D01*
X5545301Y-16493150D02*
X5583396Y-16493150D01*
X5583396Y-16493150D02*
X5602444Y-16502674D01*
X5602444Y-16502674D02*
X5611968Y-16521722D01*
X5611968Y-16521722D02*
X5611968Y-16540769D01*
X5611968Y-16540769D02*
X5516730Y-16559817D01*
X5688158Y-16616960D02*
X5707206Y-16626484D01*
X5707206Y-16626484D02*
X5745301Y-16626484D01*
X5745301Y-16626484D02*
X5764349Y-16616960D01*
X5764349Y-16616960D02*
X5773872Y-16597912D01*
X5773872Y-16597912D02*
X5773872Y-16588388D01*
X5773872Y-16588388D02*
X5764349Y-16569341D01*
X5764349Y-16569341D02*
X5745301Y-16559817D01*
X5745301Y-16559817D02*
X5716730Y-16559817D01*
X5716730Y-16559817D02*
X5697682Y-16550293D01*
X5697682Y-16550293D02*
X5688158Y-16531246D01*
X5688158Y-16531246D02*
X5688158Y-16521722D01*
X5688158Y-16521722D02*
X5697682Y-16502674D01*
X5697682Y-16502674D02*
X5716730Y-16493150D01*
X5716730Y-16493150D02*
X5745301Y-16493150D01*
X5745301Y-16493150D02*
X5764349Y-16502674D01*
X5840539Y-16702674D02*
X5850063Y-16693150D01*
X5850063Y-16693150D02*
X5869111Y-16664579D01*
X5869111Y-16664579D02*
X5878634Y-16645531D01*
X5878634Y-16645531D02*
X5888158Y-16616960D01*
X5888158Y-16616960D02*
X5897682Y-16569341D01*
X5897682Y-16569341D02*
X5897682Y-16531246D01*
X5897682Y-16531246D02*
X5888158Y-16483627D01*
X5888158Y-16483627D02*
X5878634Y-16455055D01*
X5878634Y-16455055D02*
X5869111Y-16436008D01*
X5869111Y-16436008D02*
X5850063Y-16407436D01*
X5850063Y-16407436D02*
X5840539Y-16397912D01*
X6202444Y-16702674D02*
X6192920Y-16693150D01*
X6192920Y-16693150D02*
X6173872Y-16664579D01*
X6173872Y-16664579D02*
X6164349Y-16645531D01*
X6164349Y-16645531D02*
X6154825Y-16616960D01*
X6154825Y-16616960D02*
X6145301Y-16569341D01*
X6145301Y-16569341D02*
X6145301Y-16531246D01*
X6145301Y-16531246D02*
X6154825Y-16483627D01*
X6154825Y-16483627D02*
X6164349Y-16455055D01*
X6164349Y-16455055D02*
X6173872Y-16436008D01*
X6173872Y-16436008D02*
X6192920Y-16407436D01*
X6192920Y-16407436D02*
X6202444Y-16397912D01*
X6278634Y-16493150D02*
X6278634Y-16626484D01*
X6278634Y-16512198D02*
X6288158Y-16502674D01*
X6288158Y-16502674D02*
X6307206Y-16493150D01*
X6307206Y-16493150D02*
X6335777Y-16493150D01*
X6335777Y-16493150D02*
X6354825Y-16502674D01*
X6354825Y-16502674D02*
X6364349Y-16521722D01*
X6364349Y-16521722D02*
X6364349Y-16626484D01*
X6488158Y-16626484D02*
X6469111Y-16616960D01*
X6469111Y-16616960D02*
X6459587Y-16607436D01*
X6459587Y-16607436D02*
X6450063Y-16588388D01*
X6450063Y-16588388D02*
X6450063Y-16531246D01*
X6450063Y-16531246D02*
X6459587Y-16512198D01*
X6459587Y-16512198D02*
X6469111Y-16502674D01*
X6469111Y-16502674D02*
X6488158Y-16493150D01*
X6488158Y-16493150D02*
X6516730Y-16493150D01*
X6516730Y-16493150D02*
X6535777Y-16502674D01*
X6535777Y-16502674D02*
X6545301Y-16512198D01*
X6545301Y-16512198D02*
X6554825Y-16531246D01*
X6554825Y-16531246D02*
X6554825Y-16588388D01*
X6554825Y-16588388D02*
X6545301Y-16607436D01*
X6545301Y-16607436D02*
X6535777Y-16616960D01*
X6535777Y-16616960D02*
X6516730Y-16626484D01*
X6516730Y-16626484D02*
X6488158Y-16626484D01*
X6611968Y-16493150D02*
X6688158Y-16493150D01*
X6640539Y-16426484D02*
X6640539Y-16597912D01*
X6640539Y-16597912D02*
X6650063Y-16616960D01*
X6650063Y-16616960D02*
X6669111Y-16626484D01*
X6669111Y-16626484D02*
X6688158Y-16626484D01*
X6907206Y-16493150D02*
X6907206Y-16693150D01*
X6907206Y-16502674D02*
X6926253Y-16493150D01*
X6926253Y-16493150D02*
X6964349Y-16493150D01*
X6964349Y-16493150D02*
X6983396Y-16502674D01*
X6983396Y-16502674D02*
X6992920Y-16512198D01*
X6992920Y-16512198D02*
X7002444Y-16531246D01*
X7002444Y-16531246D02*
X7002444Y-16588388D01*
X7002444Y-16588388D02*
X6992920Y-16607436D01*
X6992920Y-16607436D02*
X6983396Y-16616960D01*
X6983396Y-16616960D02*
X6964349Y-16626484D01*
X6964349Y-16626484D02*
X6926253Y-16626484D01*
X6926253Y-16626484D02*
X6907206Y-16616960D01*
X7116730Y-16626484D02*
X7097682Y-16616960D01*
X7097682Y-16616960D02*
X7088158Y-16597912D01*
X7088158Y-16597912D02*
X7088158Y-16426484D01*
X7278634Y-16626484D02*
X7278634Y-16521722D01*
X7278634Y-16521722D02*
X7269111Y-16502674D01*
X7269111Y-16502674D02*
X7250063Y-16493150D01*
X7250063Y-16493150D02*
X7211968Y-16493150D01*
X7211968Y-16493150D02*
X7192920Y-16502674D01*
X7278634Y-16616960D02*
X7259587Y-16626484D01*
X7259587Y-16626484D02*
X7211968Y-16626484D01*
X7211968Y-16626484D02*
X7192920Y-16616960D01*
X7192920Y-16616960D02*
X7183396Y-16597912D01*
X7183396Y-16597912D02*
X7183396Y-16578865D01*
X7183396Y-16578865D02*
X7192920Y-16559817D01*
X7192920Y-16559817D02*
X7211968Y-16550293D01*
X7211968Y-16550293D02*
X7259587Y-16550293D01*
X7259587Y-16550293D02*
X7278634Y-16540769D01*
X7345301Y-16493150D02*
X7421492Y-16493150D01*
X7373873Y-16426484D02*
X7373873Y-16597912D01*
X7373873Y-16597912D02*
X7383396Y-16616960D01*
X7383396Y-16616960D02*
X7402444Y-16626484D01*
X7402444Y-16626484D02*
X7421492Y-16626484D01*
X7564349Y-16616960D02*
X7545301Y-16626484D01*
X7545301Y-16626484D02*
X7507206Y-16626484D01*
X7507206Y-16626484D02*
X7488158Y-16616960D01*
X7488158Y-16616960D02*
X7478634Y-16597912D01*
X7478634Y-16597912D02*
X7478634Y-16521722D01*
X7478634Y-16521722D02*
X7488158Y-16502674D01*
X7488158Y-16502674D02*
X7507206Y-16493150D01*
X7507206Y-16493150D02*
X7545301Y-16493150D01*
X7545301Y-16493150D02*
X7564349Y-16502674D01*
X7564349Y-16502674D02*
X7573873Y-16521722D01*
X7573873Y-16521722D02*
X7573873Y-16540769D01*
X7573873Y-16540769D02*
X7478634Y-16559817D01*
X7745301Y-16626484D02*
X7745301Y-16426484D01*
X7745301Y-16616960D02*
X7726254Y-16626484D01*
X7726254Y-16626484D02*
X7688158Y-16626484D01*
X7688158Y-16626484D02*
X7669111Y-16616960D01*
X7669111Y-16616960D02*
X7659587Y-16607436D01*
X7659587Y-16607436D02*
X7650063Y-16588388D01*
X7650063Y-16588388D02*
X7650063Y-16531246D01*
X7650063Y-16531246D02*
X7659587Y-16512198D01*
X7659587Y-16512198D02*
X7669111Y-16502674D01*
X7669111Y-16502674D02*
X7688158Y-16493150D01*
X7688158Y-16493150D02*
X7726254Y-16493150D01*
X7726254Y-16493150D02*
X7745301Y-16502674D01*
X7821492Y-16702674D02*
X7831015Y-16693150D01*
X7831015Y-16693150D02*
X7850063Y-16664579D01*
X7850063Y-16664579D02*
X7859587Y-16645531D01*
X7859587Y-16645531D02*
X7869111Y-16616960D01*
X7869111Y-16616960D02*
X7878634Y-16569341D01*
X7878634Y-16569341D02*
X7878634Y-16531246D01*
X7878634Y-16531246D02*
X7869111Y-16483627D01*
X7869111Y-16483627D02*
X7859587Y-16455055D01*
X7859587Y-16455055D02*
X7850063Y-16436008D01*
X7850063Y-16436008D02*
X7831015Y-16407436D01*
X7831015Y-16407436D02*
X7821492Y-16397912D01*
X875000Y-16830000D02*
G75*
G03*
X875000Y-16830000I-100000J0D01*
G01*
X1221491Y-16788150D02*
X1221491Y-16921484D01*
X1173872Y-16711960D02*
X1126253Y-16854817D01*
X1126253Y-16854817D02*
X1250063Y-16854817D01*
X1326253Y-16902436D02*
X1335777Y-16911960D01*
X1335777Y-16911960D02*
X1326253Y-16921484D01*
X1326253Y-16921484D02*
X1316729Y-16911960D01*
X1316729Y-16911960D02*
X1326253Y-16902436D01*
X1326253Y-16902436D02*
X1326253Y-16921484D01*
X1459586Y-16721484D02*
X1478634Y-16721484D01*
X1478634Y-16721484D02*
X1497682Y-16731008D01*
X1497682Y-16731008D02*
X1507205Y-16740531D01*
X1507205Y-16740531D02*
X1516729Y-16759579D01*
X1516729Y-16759579D02*
X1526253Y-16797674D01*
X1526253Y-16797674D02*
X1526253Y-16845293D01*
X1526253Y-16845293D02*
X1516729Y-16883389D01*
X1516729Y-16883389D02*
X1507205Y-16902436D01*
X1507205Y-16902436D02*
X1497682Y-16911960D01*
X1497682Y-16911960D02*
X1478634Y-16921484D01*
X1478634Y-16921484D02*
X1459586Y-16921484D01*
X1459586Y-16921484D02*
X1440539Y-16911960D01*
X1440539Y-16911960D02*
X1431015Y-16902436D01*
X1431015Y-16902436D02*
X1421491Y-16883389D01*
X1421491Y-16883389D02*
X1411967Y-16845293D01*
X1411967Y-16845293D02*
X1411967Y-16797674D01*
X1411967Y-16797674D02*
X1421491Y-16759579D01*
X1421491Y-16759579D02*
X1431015Y-16740531D01*
X1431015Y-16740531D02*
X1440539Y-16731008D01*
X1440539Y-16731008D02*
X1459586Y-16721484D01*
X1650062Y-16721484D02*
X1669110Y-16721484D01*
X1669110Y-16721484D02*
X1688158Y-16731008D01*
X1688158Y-16731008D02*
X1697682Y-16740531D01*
X1697682Y-16740531D02*
X1707205Y-16759579D01*
X1707205Y-16759579D02*
X1716729Y-16797674D01*
X1716729Y-16797674D02*
X1716729Y-16845293D01*
X1716729Y-16845293D02*
X1707205Y-16883389D01*
X1707205Y-16883389D02*
X1697682Y-16902436D01*
X1697682Y-16902436D02*
X1688158Y-16911960D01*
X1688158Y-16911960D02*
X1669110Y-16921484D01*
X1669110Y-16921484D02*
X1650062Y-16921484D01*
X1650062Y-16921484D02*
X1631015Y-16911960D01*
X1631015Y-16911960D02*
X1621491Y-16902436D01*
X1621491Y-16902436D02*
X1611967Y-16883389D01*
X1611967Y-16883389D02*
X1602443Y-16845293D01*
X1602443Y-16845293D02*
X1602443Y-16797674D01*
X1602443Y-16797674D02*
X1611967Y-16759579D01*
X1611967Y-16759579D02*
X1621491Y-16740531D01*
X1621491Y-16740531D02*
X1631015Y-16731008D01*
X1631015Y-16731008D02*
X1650062Y-16721484D01*
X1840539Y-16721484D02*
X1859586Y-16721484D01*
X1859586Y-16721484D02*
X1878634Y-16731008D01*
X1878634Y-16731008D02*
X1888158Y-16740531D01*
X1888158Y-16740531D02*
X1897682Y-16759579D01*
X1897682Y-16759579D02*
X1907205Y-16797674D01*
X1907205Y-16797674D02*
X1907205Y-16845293D01*
X1907205Y-16845293D02*
X1897682Y-16883389D01*
X1897682Y-16883389D02*
X1888158Y-16902436D01*
X1888158Y-16902436D02*
X1878634Y-16911960D01*
X1878634Y-16911960D02*
X1859586Y-16921484D01*
X1859586Y-16921484D02*
X1840539Y-16921484D01*
X1840539Y-16921484D02*
X1821491Y-16911960D01*
X1821491Y-16911960D02*
X1811967Y-16902436D01*
X1811967Y-16902436D02*
X1802443Y-16883389D01*
X1802443Y-16883389D02*
X1792920Y-16845293D01*
X1792920Y-16845293D02*
X1792920Y-16797674D01*
X1792920Y-16797674D02*
X1802443Y-16759579D01*
X1802443Y-16759579D02*
X1811967Y-16740531D01*
X1811967Y-16740531D02*
X1821491Y-16731008D01*
X1821491Y-16731008D02*
X1840539Y-16721484D01*
X1992920Y-16921484D02*
X1992920Y-16788150D01*
X1992920Y-16807198D02*
X2002443Y-16797674D01*
X2002443Y-16797674D02*
X2021491Y-16788150D01*
X2021491Y-16788150D02*
X2050063Y-16788150D01*
X2050063Y-16788150D02*
X2069110Y-16797674D01*
X2069110Y-16797674D02*
X2078634Y-16816722D01*
X2078634Y-16816722D02*
X2078634Y-16921484D01*
X2078634Y-16816722D02*
X2088158Y-16797674D01*
X2088158Y-16797674D02*
X2107205Y-16788150D01*
X2107205Y-16788150D02*
X2135777Y-16788150D01*
X2135777Y-16788150D02*
X2154825Y-16797674D01*
X2154825Y-16797674D02*
X2164348Y-16816722D01*
X2164348Y-16816722D02*
X2164348Y-16921484D01*
X2259586Y-16921484D02*
X2259586Y-16788150D01*
X2259586Y-16807198D02*
X2269110Y-16797674D01*
X2269110Y-16797674D02*
X2288158Y-16788150D01*
X2288158Y-16788150D02*
X2316729Y-16788150D01*
X2316729Y-16788150D02*
X2335777Y-16797674D01*
X2335777Y-16797674D02*
X2345301Y-16816722D01*
X2345301Y-16816722D02*
X2345301Y-16921484D01*
X2345301Y-16816722D02*
X2354825Y-16797674D01*
X2354825Y-16797674D02*
X2373872Y-16788150D01*
X2373872Y-16788150D02*
X2402444Y-16788150D01*
X2402444Y-16788150D02*
X2421491Y-16797674D01*
X2421491Y-16797674D02*
X2431015Y-16816722D01*
X2431015Y-16816722D02*
X2431015Y-16921484D01*
X2821491Y-16711960D02*
X2650063Y-16969103D01*
X3078634Y-16721484D02*
X3097682Y-16721484D01*
X3097682Y-16721484D02*
X3116729Y-16731008D01*
X3116729Y-16731008D02*
X3126253Y-16740531D01*
X3126253Y-16740531D02*
X3135777Y-16759579D01*
X3135777Y-16759579D02*
X3145301Y-16797674D01*
X3145301Y-16797674D02*
X3145301Y-16845293D01*
X3145301Y-16845293D02*
X3135777Y-16883389D01*
X3135777Y-16883389D02*
X3126253Y-16902436D01*
X3126253Y-16902436D02*
X3116729Y-16911960D01*
X3116729Y-16911960D02*
X3097682Y-16921484D01*
X3097682Y-16921484D02*
X3078634Y-16921484D01*
X3078634Y-16921484D02*
X3059586Y-16911960D01*
X3059586Y-16911960D02*
X3050063Y-16902436D01*
X3050063Y-16902436D02*
X3040539Y-16883389D01*
X3040539Y-16883389D02*
X3031015Y-16845293D01*
X3031015Y-16845293D02*
X3031015Y-16797674D01*
X3031015Y-16797674D02*
X3040539Y-16759579D01*
X3040539Y-16759579D02*
X3050063Y-16740531D01*
X3050063Y-16740531D02*
X3059586Y-16731008D01*
X3059586Y-16731008D02*
X3078634Y-16721484D01*
X3231015Y-16902436D02*
X3240539Y-16911960D01*
X3240539Y-16911960D02*
X3231015Y-16921484D01*
X3231015Y-16921484D02*
X3221491Y-16911960D01*
X3221491Y-16911960D02*
X3231015Y-16902436D01*
X3231015Y-16902436D02*
X3231015Y-16921484D01*
X3431015Y-16921484D02*
X3316729Y-16921484D01*
X3373872Y-16921484D02*
X3373872Y-16721484D01*
X3373872Y-16721484D02*
X3354825Y-16750055D01*
X3354825Y-16750055D02*
X3335777Y-16769103D01*
X3335777Y-16769103D02*
X3316729Y-16778627D01*
X3611967Y-16721484D02*
X3516729Y-16721484D01*
X3516729Y-16721484D02*
X3507206Y-16816722D01*
X3507206Y-16816722D02*
X3516729Y-16807198D01*
X3516729Y-16807198D02*
X3535777Y-16797674D01*
X3535777Y-16797674D02*
X3583396Y-16797674D01*
X3583396Y-16797674D02*
X3602444Y-16807198D01*
X3602444Y-16807198D02*
X3611967Y-16816722D01*
X3611967Y-16816722D02*
X3621491Y-16835770D01*
X3621491Y-16835770D02*
X3621491Y-16883389D01*
X3621491Y-16883389D02*
X3611967Y-16902436D01*
X3611967Y-16902436D02*
X3602444Y-16911960D01*
X3602444Y-16911960D02*
X3583396Y-16921484D01*
X3583396Y-16921484D02*
X3535777Y-16921484D01*
X3535777Y-16921484D02*
X3516729Y-16911960D01*
X3516729Y-16911960D02*
X3507206Y-16902436D01*
X3688158Y-16721484D02*
X3821491Y-16721484D01*
X3821491Y-16721484D02*
X3735777Y-16921484D01*
X3992920Y-16721484D02*
X3897682Y-16721484D01*
X3897682Y-16721484D02*
X3888158Y-16816722D01*
X3888158Y-16816722D02*
X3897682Y-16807198D01*
X3897682Y-16807198D02*
X3916729Y-16797674D01*
X3916729Y-16797674D02*
X3964348Y-16797674D01*
X3964348Y-16797674D02*
X3983396Y-16807198D01*
X3983396Y-16807198D02*
X3992920Y-16816722D01*
X3992920Y-16816722D02*
X4002444Y-16835770D01*
X4002444Y-16835770D02*
X4002444Y-16883389D01*
X4002444Y-16883389D02*
X3992920Y-16902436D01*
X3992920Y-16902436D02*
X3983396Y-16911960D01*
X3983396Y-16911960D02*
X3964348Y-16921484D01*
X3964348Y-16921484D02*
X3916729Y-16921484D01*
X3916729Y-16921484D02*
X3897682Y-16911960D01*
X3897682Y-16911960D02*
X3888158Y-16902436D01*
X4078634Y-16721484D02*
X4078634Y-16759579D01*
X4154825Y-16721484D02*
X4154825Y-16759579D01*
X4450063Y-16997674D02*
X4440539Y-16988150D01*
X4440539Y-16988150D02*
X4421491Y-16959579D01*
X4421491Y-16959579D02*
X4411968Y-16940531D01*
X4411968Y-16940531D02*
X4402444Y-16911960D01*
X4402444Y-16911960D02*
X4392920Y-16864341D01*
X4392920Y-16864341D02*
X4392920Y-16826246D01*
X4392920Y-16826246D02*
X4402444Y-16778627D01*
X4402444Y-16778627D02*
X4411968Y-16750055D01*
X4411968Y-16750055D02*
X4421491Y-16731008D01*
X4421491Y-16731008D02*
X4440539Y-16702436D01*
X4440539Y-16702436D02*
X4450063Y-16692912D01*
X4631015Y-16921484D02*
X4516730Y-16921484D01*
X4573872Y-16921484D02*
X4573872Y-16721484D01*
X4573872Y-16721484D02*
X4554825Y-16750055D01*
X4554825Y-16750055D02*
X4535777Y-16769103D01*
X4535777Y-16769103D02*
X4516730Y-16778627D01*
X4745301Y-16807198D02*
X4726253Y-16797674D01*
X4726253Y-16797674D02*
X4716730Y-16788150D01*
X4716730Y-16788150D02*
X4707206Y-16769103D01*
X4707206Y-16769103D02*
X4707206Y-16759579D01*
X4707206Y-16759579D02*
X4716730Y-16740531D01*
X4716730Y-16740531D02*
X4726253Y-16731008D01*
X4726253Y-16731008D02*
X4745301Y-16721484D01*
X4745301Y-16721484D02*
X4783396Y-16721484D01*
X4783396Y-16721484D02*
X4802444Y-16731008D01*
X4802444Y-16731008D02*
X4811968Y-16740531D01*
X4811968Y-16740531D02*
X4821491Y-16759579D01*
X4821491Y-16759579D02*
X4821491Y-16769103D01*
X4821491Y-16769103D02*
X4811968Y-16788150D01*
X4811968Y-16788150D02*
X4802444Y-16797674D01*
X4802444Y-16797674D02*
X4783396Y-16807198D01*
X4783396Y-16807198D02*
X4745301Y-16807198D01*
X4745301Y-16807198D02*
X4726253Y-16816722D01*
X4726253Y-16816722D02*
X4716730Y-16826246D01*
X4716730Y-16826246D02*
X4707206Y-16845293D01*
X4707206Y-16845293D02*
X4707206Y-16883389D01*
X4707206Y-16883389D02*
X4716730Y-16902436D01*
X4716730Y-16902436D02*
X4726253Y-16911960D01*
X4726253Y-16911960D02*
X4745301Y-16921484D01*
X4745301Y-16921484D02*
X4783396Y-16921484D01*
X4783396Y-16921484D02*
X4802444Y-16911960D01*
X4802444Y-16911960D02*
X4811968Y-16902436D01*
X4811968Y-16902436D02*
X4821491Y-16883389D01*
X4821491Y-16883389D02*
X4821491Y-16845293D01*
X4821491Y-16845293D02*
X4811968Y-16826246D01*
X4811968Y-16826246D02*
X4802444Y-16816722D01*
X4802444Y-16816722D02*
X4783396Y-16807198D01*
X5059587Y-16921484D02*
X5059587Y-16721484D01*
X5145301Y-16921484D02*
X5145301Y-16816722D01*
X5145301Y-16816722D02*
X5135777Y-16797674D01*
X5135777Y-16797674D02*
X5116730Y-16788150D01*
X5116730Y-16788150D02*
X5088158Y-16788150D01*
X5088158Y-16788150D02*
X5069111Y-16797674D01*
X5069111Y-16797674D02*
X5059587Y-16807198D01*
X5269111Y-16921484D02*
X5250063Y-16911960D01*
X5250063Y-16911960D02*
X5240539Y-16902436D01*
X5240539Y-16902436D02*
X5231015Y-16883389D01*
X5231015Y-16883389D02*
X5231015Y-16826246D01*
X5231015Y-16826246D02*
X5240539Y-16807198D01*
X5240539Y-16807198D02*
X5250063Y-16797674D01*
X5250063Y-16797674D02*
X5269111Y-16788150D01*
X5269111Y-16788150D02*
X5297682Y-16788150D01*
X5297682Y-16788150D02*
X5316730Y-16797674D01*
X5316730Y-16797674D02*
X5326253Y-16807198D01*
X5326253Y-16807198D02*
X5335777Y-16826246D01*
X5335777Y-16826246D02*
X5335777Y-16883389D01*
X5335777Y-16883389D02*
X5326253Y-16902436D01*
X5326253Y-16902436D02*
X5316730Y-16911960D01*
X5316730Y-16911960D02*
X5297682Y-16921484D01*
X5297682Y-16921484D02*
X5269111Y-16921484D01*
X5450063Y-16921484D02*
X5431015Y-16911960D01*
X5431015Y-16911960D02*
X5421492Y-16892912D01*
X5421492Y-16892912D02*
X5421492Y-16721484D01*
X5602444Y-16911960D02*
X5583396Y-16921484D01*
X5583396Y-16921484D02*
X5545301Y-16921484D01*
X5545301Y-16921484D02*
X5526253Y-16911960D01*
X5526253Y-16911960D02*
X5516730Y-16892912D01*
X5516730Y-16892912D02*
X5516730Y-16816722D01*
X5516730Y-16816722D02*
X5526253Y-16797674D01*
X5526253Y-16797674D02*
X5545301Y-16788150D01*
X5545301Y-16788150D02*
X5583396Y-16788150D01*
X5583396Y-16788150D02*
X5602444Y-16797674D01*
X5602444Y-16797674D02*
X5611968Y-16816722D01*
X5611968Y-16816722D02*
X5611968Y-16835770D01*
X5611968Y-16835770D02*
X5516730Y-16854817D01*
X5688158Y-16911960D02*
X5707206Y-16921484D01*
X5707206Y-16921484D02*
X5745301Y-16921484D01*
X5745301Y-16921484D02*
X5764349Y-16911960D01*
X5764349Y-16911960D02*
X5773872Y-16892912D01*
X5773872Y-16892912D02*
X5773872Y-16883389D01*
X5773872Y-16883389D02*
X5764349Y-16864341D01*
X5764349Y-16864341D02*
X5745301Y-16854817D01*
X5745301Y-16854817D02*
X5716730Y-16854817D01*
X5716730Y-16854817D02*
X5697682Y-16845293D01*
X5697682Y-16845293D02*
X5688158Y-16826246D01*
X5688158Y-16826246D02*
X5688158Y-16816722D01*
X5688158Y-16816722D02*
X5697682Y-16797674D01*
X5697682Y-16797674D02*
X5716730Y-16788150D01*
X5716730Y-16788150D02*
X5745301Y-16788150D01*
X5745301Y-16788150D02*
X5764349Y-16797674D01*
X5840539Y-16997674D02*
X5850063Y-16988150D01*
X5850063Y-16988150D02*
X5869111Y-16959579D01*
X5869111Y-16959579D02*
X5878634Y-16940531D01*
X5878634Y-16940531D02*
X5888158Y-16911960D01*
X5888158Y-16911960D02*
X5897682Y-16864341D01*
X5897682Y-16864341D02*
X5897682Y-16826246D01*
X5897682Y-16826246D02*
X5888158Y-16778627D01*
X5888158Y-16778627D02*
X5878634Y-16750055D01*
X5878634Y-16750055D02*
X5869111Y-16731008D01*
X5869111Y-16731008D02*
X5850063Y-16702436D01*
X5850063Y-16702436D02*
X5840539Y-16692912D01*
X6202444Y-16997674D02*
X6192920Y-16988150D01*
X6192920Y-16988150D02*
X6173872Y-16959579D01*
X6173872Y-16959579D02*
X6164349Y-16940531D01*
X6164349Y-16940531D02*
X6154825Y-16911960D01*
X6154825Y-16911960D02*
X6145301Y-16864341D01*
X6145301Y-16864341D02*
X6145301Y-16826246D01*
X6145301Y-16826246D02*
X6154825Y-16778627D01*
X6154825Y-16778627D02*
X6164349Y-16750055D01*
X6164349Y-16750055D02*
X6173872Y-16731008D01*
X6173872Y-16731008D02*
X6192920Y-16702436D01*
X6192920Y-16702436D02*
X6202444Y-16692912D01*
X6278634Y-16788150D02*
X6278634Y-16921484D01*
X6278634Y-16807198D02*
X6288158Y-16797674D01*
X6288158Y-16797674D02*
X6307206Y-16788150D01*
X6307206Y-16788150D02*
X6335777Y-16788150D01*
X6335777Y-16788150D02*
X6354825Y-16797674D01*
X6354825Y-16797674D02*
X6364349Y-16816722D01*
X6364349Y-16816722D02*
X6364349Y-16921484D01*
X6488158Y-16921484D02*
X6469111Y-16911960D01*
X6469111Y-16911960D02*
X6459587Y-16902436D01*
X6459587Y-16902436D02*
X6450063Y-16883389D01*
X6450063Y-16883389D02*
X6450063Y-16826246D01*
X6450063Y-16826246D02*
X6459587Y-16807198D01*
X6459587Y-16807198D02*
X6469111Y-16797674D01*
X6469111Y-16797674D02*
X6488158Y-16788150D01*
X6488158Y-16788150D02*
X6516730Y-16788150D01*
X6516730Y-16788150D02*
X6535777Y-16797674D01*
X6535777Y-16797674D02*
X6545301Y-16807198D01*
X6545301Y-16807198D02*
X6554825Y-16826246D01*
X6554825Y-16826246D02*
X6554825Y-16883389D01*
X6554825Y-16883389D02*
X6545301Y-16902436D01*
X6545301Y-16902436D02*
X6535777Y-16911960D01*
X6535777Y-16911960D02*
X6516730Y-16921484D01*
X6516730Y-16921484D02*
X6488158Y-16921484D01*
X6611968Y-16788150D02*
X6688158Y-16788150D01*
X6640539Y-16721484D02*
X6640539Y-16892912D01*
X6640539Y-16892912D02*
X6650063Y-16911960D01*
X6650063Y-16911960D02*
X6669111Y-16921484D01*
X6669111Y-16921484D02*
X6688158Y-16921484D01*
X6907206Y-16788150D02*
X6907206Y-16988150D01*
X6907206Y-16797674D02*
X6926253Y-16788150D01*
X6926253Y-16788150D02*
X6964349Y-16788150D01*
X6964349Y-16788150D02*
X6983396Y-16797674D01*
X6983396Y-16797674D02*
X6992920Y-16807198D01*
X6992920Y-16807198D02*
X7002444Y-16826246D01*
X7002444Y-16826246D02*
X7002444Y-16883389D01*
X7002444Y-16883389D02*
X6992920Y-16902436D01*
X6992920Y-16902436D02*
X6983396Y-16911960D01*
X6983396Y-16911960D02*
X6964349Y-16921484D01*
X6964349Y-16921484D02*
X6926253Y-16921484D01*
X6926253Y-16921484D02*
X6907206Y-16911960D01*
X7116730Y-16921484D02*
X7097682Y-16911960D01*
X7097682Y-16911960D02*
X7088158Y-16892912D01*
X7088158Y-16892912D02*
X7088158Y-16721484D01*
X7278634Y-16921484D02*
X7278634Y-16816722D01*
X7278634Y-16816722D02*
X7269111Y-16797674D01*
X7269111Y-16797674D02*
X7250063Y-16788150D01*
X7250063Y-16788150D02*
X7211968Y-16788150D01*
X7211968Y-16788150D02*
X7192920Y-16797674D01*
X7278634Y-16911960D02*
X7259587Y-16921484D01*
X7259587Y-16921484D02*
X7211968Y-16921484D01*
X7211968Y-16921484D02*
X7192920Y-16911960D01*
X7192920Y-16911960D02*
X7183396Y-16892912D01*
X7183396Y-16892912D02*
X7183396Y-16873865D01*
X7183396Y-16873865D02*
X7192920Y-16854817D01*
X7192920Y-16854817D02*
X7211968Y-16845293D01*
X7211968Y-16845293D02*
X7259587Y-16845293D01*
X7259587Y-16845293D02*
X7278634Y-16835770D01*
X7345301Y-16788150D02*
X7421492Y-16788150D01*
X7373873Y-16721484D02*
X7373873Y-16892912D01*
X7373873Y-16892912D02*
X7383396Y-16911960D01*
X7383396Y-16911960D02*
X7402444Y-16921484D01*
X7402444Y-16921484D02*
X7421492Y-16921484D01*
X7564349Y-16911960D02*
X7545301Y-16921484D01*
X7545301Y-16921484D02*
X7507206Y-16921484D01*
X7507206Y-16921484D02*
X7488158Y-16911960D01*
X7488158Y-16911960D02*
X7478634Y-16892912D01*
X7478634Y-16892912D02*
X7478634Y-16816722D01*
X7478634Y-16816722D02*
X7488158Y-16797674D01*
X7488158Y-16797674D02*
X7507206Y-16788150D01*
X7507206Y-16788150D02*
X7545301Y-16788150D01*
X7545301Y-16788150D02*
X7564349Y-16797674D01*
X7564349Y-16797674D02*
X7573873Y-16816722D01*
X7573873Y-16816722D02*
X7573873Y-16835770D01*
X7573873Y-16835770D02*
X7478634Y-16854817D01*
X7745301Y-16921484D02*
X7745301Y-16721484D01*
X7745301Y-16911960D02*
X7726254Y-16921484D01*
X7726254Y-16921484D02*
X7688158Y-16921484D01*
X7688158Y-16921484D02*
X7669111Y-16911960D01*
X7669111Y-16911960D02*
X7659587Y-16902436D01*
X7659587Y-16902436D02*
X7650063Y-16883389D01*
X7650063Y-16883389D02*
X7650063Y-16826246D01*
X7650063Y-16826246D02*
X7659587Y-16807198D01*
X7659587Y-16807198D02*
X7669111Y-16797674D01*
X7669111Y-16797674D02*
X7688158Y-16788150D01*
X7688158Y-16788150D02*
X7726254Y-16788150D01*
X7726254Y-16788150D02*
X7745301Y-16797674D01*
X7821492Y-16997674D02*
X7831015Y-16988150D01*
X7831015Y-16988150D02*
X7850063Y-16959579D01*
X7850063Y-16959579D02*
X7859587Y-16940531D01*
X7859587Y-16940531D02*
X7869111Y-16911960D01*
X7869111Y-16911960D02*
X7878634Y-16864341D01*
X7878634Y-16864341D02*
X7878634Y-16826246D01*
X7878634Y-16826246D02*
X7869111Y-16778627D01*
X7869111Y-16778627D02*
X7859587Y-16750055D01*
X7859587Y-16750055D02*
X7850063Y-16731008D01*
X7850063Y-16731008D02*
X7831015Y-16702436D01*
X7831015Y-16702436D02*
X7821492Y-16692912D01*
M02*
