%TF.GenerationSoftware,KiCad,Pcbnew,7.0.7*%
%TF.CreationDate,2023-09-26T18:04:07-06:00*%
%TF.ProjectId,keyboard,6b657962-6f61-4726-942e-6b696361645f,rev?*%
%TF.SameCoordinates,Original*%
%TF.FileFunction,Legend,Bot*%
%TF.FilePolarity,Positive*%
%FSLAX46Y46*%
G04 Gerber Fmt 4.6, Leading zero omitted, Abs format (unit mm)*
G04 Created by KiCad (PCBNEW 7.0.7) date 2023-09-26 18:04:07*
%MOMM*%
%LPD*%
G01*
G04 APERTURE LIST*
%ADD10C,0.300000*%
%ADD11C,0.150000*%
%ADD12C,0.381000*%
%ADD13C,0.120000*%
%ADD14C,1.752600*%
%ADD15R,1.752600X1.752600*%
G04 APERTURE END LIST*
D10*
X190614171Y-120445489D02*
X192114171Y-120445489D01*
X192114171Y-120445489D02*
X192114171Y-119874060D01*
X192114171Y-119874060D02*
X192042742Y-119731203D01*
X192042742Y-119731203D02*
X191971314Y-119659774D01*
X191971314Y-119659774D02*
X191828457Y-119588346D01*
X191828457Y-119588346D02*
X191614171Y-119588346D01*
X191614171Y-119588346D02*
X191471314Y-119659774D01*
X191471314Y-119659774D02*
X191399885Y-119731203D01*
X191399885Y-119731203D02*
X191328457Y-119874060D01*
X191328457Y-119874060D02*
X191328457Y-120445489D01*
X190685600Y-119016917D02*
X190614171Y-118802632D01*
X190614171Y-118802632D02*
X190614171Y-118445489D01*
X190614171Y-118445489D02*
X190685600Y-118302632D01*
X190685600Y-118302632D02*
X190757028Y-118231203D01*
X190757028Y-118231203D02*
X190899885Y-118159774D01*
X190899885Y-118159774D02*
X191042742Y-118159774D01*
X191042742Y-118159774D02*
X191185600Y-118231203D01*
X191185600Y-118231203D02*
X191257028Y-118302632D01*
X191257028Y-118302632D02*
X191328457Y-118445489D01*
X191328457Y-118445489D02*
X191399885Y-118731203D01*
X191399885Y-118731203D02*
X191471314Y-118874060D01*
X191471314Y-118874060D02*
X191542742Y-118945489D01*
X191542742Y-118945489D02*
X191685600Y-119016917D01*
X191685600Y-119016917D02*
X191828457Y-119016917D01*
X191828457Y-119016917D02*
X191971314Y-118945489D01*
X191971314Y-118945489D02*
X192042742Y-118874060D01*
X192042742Y-118874060D02*
X192114171Y-118731203D01*
X192114171Y-118731203D02*
X192114171Y-118374060D01*
X192114171Y-118374060D02*
X192042742Y-118159774D01*
X191971314Y-117588346D02*
X192042742Y-117516918D01*
X192042742Y-117516918D02*
X192114171Y-117374061D01*
X192114171Y-117374061D02*
X192114171Y-117016918D01*
X192114171Y-117016918D02*
X192042742Y-116874061D01*
X192042742Y-116874061D02*
X191971314Y-116802632D01*
X191971314Y-116802632D02*
X191828457Y-116731203D01*
X191828457Y-116731203D02*
X191685600Y-116731203D01*
X191685600Y-116731203D02*
X191471314Y-116802632D01*
X191471314Y-116802632D02*
X190614171Y-117659775D01*
X190614171Y-117659775D02*
X190614171Y-116731203D01*
X191399885Y-114445490D02*
X191399885Y-114945490D01*
X190614171Y-114945490D02*
X192114171Y-114945490D01*
X192114171Y-114945490D02*
X192114171Y-114231204D01*
X190685600Y-113088347D02*
X190614171Y-113231204D01*
X190614171Y-113231204D02*
X190614171Y-113516919D01*
X190614171Y-113516919D02*
X190685600Y-113659776D01*
X190685600Y-113659776D02*
X190828457Y-113731204D01*
X190828457Y-113731204D02*
X191399885Y-113731204D01*
X191399885Y-113731204D02*
X191542742Y-113659776D01*
X191542742Y-113659776D02*
X191614171Y-113516919D01*
X191614171Y-113516919D02*
X191614171Y-113231204D01*
X191614171Y-113231204D02*
X191542742Y-113088347D01*
X191542742Y-113088347D02*
X191399885Y-113016919D01*
X191399885Y-113016919D02*
X191257028Y-113016919D01*
X191257028Y-113016919D02*
X191114171Y-113731204D01*
X190614171Y-112374062D02*
X191614171Y-112374062D01*
X191471314Y-112374062D02*
X191542742Y-112302633D01*
X191542742Y-112302633D02*
X191614171Y-112159776D01*
X191614171Y-112159776D02*
X191614171Y-111945490D01*
X191614171Y-111945490D02*
X191542742Y-111802633D01*
X191542742Y-111802633D02*
X191399885Y-111731205D01*
X191399885Y-111731205D02*
X190614171Y-111731205D01*
X191399885Y-111731205D02*
X191542742Y-111659776D01*
X191542742Y-111659776D02*
X191614171Y-111516919D01*
X191614171Y-111516919D02*
X191614171Y-111302633D01*
X191614171Y-111302633D02*
X191542742Y-111159776D01*
X191542742Y-111159776D02*
X191399885Y-111088347D01*
X191399885Y-111088347D02*
X190614171Y-111088347D01*
X190614171Y-109731205D02*
X191399885Y-109731205D01*
X191399885Y-109731205D02*
X191542742Y-109802633D01*
X191542742Y-109802633D02*
X191614171Y-109945490D01*
X191614171Y-109945490D02*
X191614171Y-110231205D01*
X191614171Y-110231205D02*
X191542742Y-110374062D01*
X190685600Y-109731205D02*
X190614171Y-109874062D01*
X190614171Y-109874062D02*
X190614171Y-110231205D01*
X190614171Y-110231205D02*
X190685600Y-110374062D01*
X190685600Y-110374062D02*
X190828457Y-110445490D01*
X190828457Y-110445490D02*
X190971314Y-110445490D01*
X190971314Y-110445490D02*
X191114171Y-110374062D01*
X191114171Y-110374062D02*
X191185600Y-110231205D01*
X191185600Y-110231205D02*
X191185600Y-109874062D01*
X191185600Y-109874062D02*
X191257028Y-109731205D01*
X190614171Y-108802633D02*
X190685600Y-108945490D01*
X190685600Y-108945490D02*
X190828457Y-109016919D01*
X190828457Y-109016919D02*
X192114171Y-109016919D01*
X190685600Y-107659776D02*
X190614171Y-107802633D01*
X190614171Y-107802633D02*
X190614171Y-108088348D01*
X190614171Y-108088348D02*
X190685600Y-108231205D01*
X190685600Y-108231205D02*
X190828457Y-108302633D01*
X190828457Y-108302633D02*
X191399885Y-108302633D01*
X191399885Y-108302633D02*
X191542742Y-108231205D01*
X191542742Y-108231205D02*
X191614171Y-108088348D01*
X191614171Y-108088348D02*
X191614171Y-107802633D01*
X191614171Y-107802633D02*
X191542742Y-107659776D01*
X191542742Y-107659776D02*
X191399885Y-107588348D01*
X191399885Y-107588348D02*
X191257028Y-107588348D01*
X191257028Y-107588348D02*
X191114171Y-108302633D01*
X190685600Y-105159777D02*
X190614171Y-105302634D01*
X190614171Y-105302634D02*
X190614171Y-105588348D01*
X190614171Y-105588348D02*
X190685600Y-105731205D01*
X190685600Y-105731205D02*
X190757028Y-105802634D01*
X190757028Y-105802634D02*
X190899885Y-105874062D01*
X190899885Y-105874062D02*
X191328457Y-105874062D01*
X191328457Y-105874062D02*
X191471314Y-105802634D01*
X191471314Y-105802634D02*
X191542742Y-105731205D01*
X191542742Y-105731205D02*
X191614171Y-105588348D01*
X191614171Y-105588348D02*
X191614171Y-105302634D01*
X191614171Y-105302634D02*
X191542742Y-105159777D01*
X190614171Y-104302634D02*
X190685600Y-104445491D01*
X190685600Y-104445491D02*
X190757028Y-104516920D01*
X190757028Y-104516920D02*
X190899885Y-104588348D01*
X190899885Y-104588348D02*
X191328457Y-104588348D01*
X191328457Y-104588348D02*
X191471314Y-104516920D01*
X191471314Y-104516920D02*
X191542742Y-104445491D01*
X191542742Y-104445491D02*
X191614171Y-104302634D01*
X191614171Y-104302634D02*
X191614171Y-104088348D01*
X191614171Y-104088348D02*
X191542742Y-103945491D01*
X191542742Y-103945491D02*
X191471314Y-103874063D01*
X191471314Y-103874063D02*
X191328457Y-103802634D01*
X191328457Y-103802634D02*
X190899885Y-103802634D01*
X190899885Y-103802634D02*
X190757028Y-103874063D01*
X190757028Y-103874063D02*
X190685600Y-103945491D01*
X190685600Y-103945491D02*
X190614171Y-104088348D01*
X190614171Y-104088348D02*
X190614171Y-104302634D01*
X191614171Y-103159777D02*
X190614171Y-103159777D01*
X191471314Y-103159777D02*
X191542742Y-103088348D01*
X191542742Y-103088348D02*
X191614171Y-102945491D01*
X191614171Y-102945491D02*
X191614171Y-102731205D01*
X191614171Y-102731205D02*
X191542742Y-102588348D01*
X191542742Y-102588348D02*
X191399885Y-102516920D01*
X191399885Y-102516920D02*
X190614171Y-102516920D01*
X191614171Y-101802634D02*
X190614171Y-101802634D01*
X191471314Y-101802634D02*
X191542742Y-101731205D01*
X191542742Y-101731205D02*
X191614171Y-101588348D01*
X191614171Y-101588348D02*
X191614171Y-101374062D01*
X191614171Y-101374062D02*
X191542742Y-101231205D01*
X191542742Y-101231205D02*
X191399885Y-101159777D01*
X191399885Y-101159777D02*
X190614171Y-101159777D01*
X190685600Y-99874062D02*
X190614171Y-100016919D01*
X190614171Y-100016919D02*
X190614171Y-100302634D01*
X190614171Y-100302634D02*
X190685600Y-100445491D01*
X190685600Y-100445491D02*
X190828457Y-100516919D01*
X190828457Y-100516919D02*
X191399885Y-100516919D01*
X191399885Y-100516919D02*
X191542742Y-100445491D01*
X191542742Y-100445491D02*
X191614171Y-100302634D01*
X191614171Y-100302634D02*
X191614171Y-100016919D01*
X191614171Y-100016919D02*
X191542742Y-99874062D01*
X191542742Y-99874062D02*
X191399885Y-99802634D01*
X191399885Y-99802634D02*
X191257028Y-99802634D01*
X191257028Y-99802634D02*
X191114171Y-100516919D01*
X190685600Y-98516920D02*
X190614171Y-98659777D01*
X190614171Y-98659777D02*
X190614171Y-98945491D01*
X190614171Y-98945491D02*
X190685600Y-99088348D01*
X190685600Y-99088348D02*
X190757028Y-99159777D01*
X190757028Y-99159777D02*
X190899885Y-99231205D01*
X190899885Y-99231205D02*
X191328457Y-99231205D01*
X191328457Y-99231205D02*
X191471314Y-99159777D01*
X191471314Y-99159777D02*
X191542742Y-99088348D01*
X191542742Y-99088348D02*
X191614171Y-98945491D01*
X191614171Y-98945491D02*
X191614171Y-98659777D01*
X191614171Y-98659777D02*
X191542742Y-98516920D01*
X191614171Y-98088348D02*
X191614171Y-97516920D01*
X192114171Y-97874063D02*
X190828457Y-97874063D01*
X190828457Y-97874063D02*
X190685600Y-97802634D01*
X190685600Y-97802634D02*
X190614171Y-97659777D01*
X190614171Y-97659777D02*
X190614171Y-97516920D01*
X190614171Y-96802634D02*
X190685600Y-96945491D01*
X190685600Y-96945491D02*
X190757028Y-97016920D01*
X190757028Y-97016920D02*
X190899885Y-97088348D01*
X190899885Y-97088348D02*
X191328457Y-97088348D01*
X191328457Y-97088348D02*
X191471314Y-97016920D01*
X191471314Y-97016920D02*
X191542742Y-96945491D01*
X191542742Y-96945491D02*
X191614171Y-96802634D01*
X191614171Y-96802634D02*
X191614171Y-96588348D01*
X191614171Y-96588348D02*
X191542742Y-96445491D01*
X191542742Y-96445491D02*
X191471314Y-96374063D01*
X191471314Y-96374063D02*
X191328457Y-96302634D01*
X191328457Y-96302634D02*
X190899885Y-96302634D01*
X190899885Y-96302634D02*
X190757028Y-96374063D01*
X190757028Y-96374063D02*
X190685600Y-96445491D01*
X190685600Y-96445491D02*
X190614171Y-96588348D01*
X190614171Y-96588348D02*
X190614171Y-96802634D01*
X190614171Y-95659777D02*
X191614171Y-95659777D01*
X191328457Y-95659777D02*
X191471314Y-95588348D01*
X191471314Y-95588348D02*
X191542742Y-95516920D01*
X191542742Y-95516920D02*
X191614171Y-95374062D01*
X191614171Y-95374062D02*
X191614171Y-95231205D01*
X189699171Y-120159774D02*
X189699171Y-119874060D01*
X189699171Y-119874060D02*
X189627742Y-119731203D01*
X189627742Y-119731203D02*
X189484885Y-119588346D01*
X189484885Y-119588346D02*
X189199171Y-119516917D01*
X189199171Y-119516917D02*
X188699171Y-119516917D01*
X188699171Y-119516917D02*
X188413457Y-119588346D01*
X188413457Y-119588346D02*
X188270600Y-119731203D01*
X188270600Y-119731203D02*
X188199171Y-119874060D01*
X188199171Y-119874060D02*
X188199171Y-120159774D01*
X188199171Y-120159774D02*
X188270600Y-120302632D01*
X188270600Y-120302632D02*
X188413457Y-120445489D01*
X188413457Y-120445489D02*
X188699171Y-120516917D01*
X188699171Y-120516917D02*
X189199171Y-120516917D01*
X189199171Y-120516917D02*
X189484885Y-120445489D01*
X189484885Y-120445489D02*
X189627742Y-120302632D01*
X189627742Y-120302632D02*
X189699171Y-120159774D01*
X189199171Y-118874060D02*
X188199171Y-118874060D01*
X189056314Y-118874060D02*
X189127742Y-118802631D01*
X189127742Y-118802631D02*
X189199171Y-118659774D01*
X189199171Y-118659774D02*
X189199171Y-118445488D01*
X189199171Y-118445488D02*
X189127742Y-118302631D01*
X189127742Y-118302631D02*
X188984885Y-118231203D01*
X188984885Y-118231203D02*
X188199171Y-118231203D01*
X188199171Y-116374060D02*
X189699171Y-116374060D01*
X189127742Y-116374060D02*
X189199171Y-116231203D01*
X189199171Y-116231203D02*
X189199171Y-115945488D01*
X189199171Y-115945488D02*
X189127742Y-115802631D01*
X189127742Y-115802631D02*
X189056314Y-115731203D01*
X189056314Y-115731203D02*
X188913457Y-115659774D01*
X188913457Y-115659774D02*
X188484885Y-115659774D01*
X188484885Y-115659774D02*
X188342028Y-115731203D01*
X188342028Y-115731203D02*
X188270600Y-115802631D01*
X188270600Y-115802631D02*
X188199171Y-115945488D01*
X188199171Y-115945488D02*
X188199171Y-116231203D01*
X188199171Y-116231203D02*
X188270600Y-116374060D01*
X188199171Y-114374060D02*
X188984885Y-114374060D01*
X188984885Y-114374060D02*
X189127742Y-114445488D01*
X189127742Y-114445488D02*
X189199171Y-114588345D01*
X189199171Y-114588345D02*
X189199171Y-114874060D01*
X189199171Y-114874060D02*
X189127742Y-115016917D01*
X188270600Y-114374060D02*
X188199171Y-114516917D01*
X188199171Y-114516917D02*
X188199171Y-114874060D01*
X188199171Y-114874060D02*
X188270600Y-115016917D01*
X188270600Y-115016917D02*
X188413457Y-115088345D01*
X188413457Y-115088345D02*
X188556314Y-115088345D01*
X188556314Y-115088345D02*
X188699171Y-115016917D01*
X188699171Y-115016917D02*
X188770600Y-114874060D01*
X188770600Y-114874060D02*
X188770600Y-114516917D01*
X188770600Y-114516917D02*
X188842028Y-114374060D01*
X188270600Y-113016917D02*
X188199171Y-113159774D01*
X188199171Y-113159774D02*
X188199171Y-113445488D01*
X188199171Y-113445488D02*
X188270600Y-113588345D01*
X188270600Y-113588345D02*
X188342028Y-113659774D01*
X188342028Y-113659774D02*
X188484885Y-113731202D01*
X188484885Y-113731202D02*
X188913457Y-113731202D01*
X188913457Y-113731202D02*
X189056314Y-113659774D01*
X189056314Y-113659774D02*
X189127742Y-113588345D01*
X189127742Y-113588345D02*
X189199171Y-113445488D01*
X189199171Y-113445488D02*
X189199171Y-113159774D01*
X189199171Y-113159774D02*
X189127742Y-113016917D01*
X188199171Y-112374060D02*
X189699171Y-112374060D01*
X188770600Y-112231203D02*
X188199171Y-111802631D01*
X189199171Y-111802631D02*
X188627742Y-112374060D01*
X188270600Y-110088345D02*
X188199171Y-109945488D01*
X188199171Y-109945488D02*
X188199171Y-109659774D01*
X188199171Y-109659774D02*
X188270600Y-109516917D01*
X188270600Y-109516917D02*
X188413457Y-109445488D01*
X188413457Y-109445488D02*
X188484885Y-109445488D01*
X188484885Y-109445488D02*
X188627742Y-109516917D01*
X188627742Y-109516917D02*
X188699171Y-109659774D01*
X188699171Y-109659774D02*
X188699171Y-109874060D01*
X188699171Y-109874060D02*
X188770600Y-110016917D01*
X188770600Y-110016917D02*
X188913457Y-110088345D01*
X188913457Y-110088345D02*
X188984885Y-110088345D01*
X188984885Y-110088345D02*
X189127742Y-110016917D01*
X189127742Y-110016917D02*
X189199171Y-109874060D01*
X189199171Y-109874060D02*
X189199171Y-109659774D01*
X189199171Y-109659774D02*
X189127742Y-109516917D01*
X188199171Y-108802631D02*
X189199171Y-108802631D01*
X189699171Y-108802631D02*
X189627742Y-108874059D01*
X189627742Y-108874059D02*
X189556314Y-108802631D01*
X189556314Y-108802631D02*
X189627742Y-108731202D01*
X189627742Y-108731202D02*
X189699171Y-108802631D01*
X189699171Y-108802631D02*
X189556314Y-108802631D01*
X188199171Y-107445488D02*
X189699171Y-107445488D01*
X188270600Y-107445488D02*
X188199171Y-107588345D01*
X188199171Y-107588345D02*
X188199171Y-107874059D01*
X188199171Y-107874059D02*
X188270600Y-108016916D01*
X188270600Y-108016916D02*
X188342028Y-108088345D01*
X188342028Y-108088345D02*
X188484885Y-108159773D01*
X188484885Y-108159773D02*
X188913457Y-108159773D01*
X188913457Y-108159773D02*
X189056314Y-108088345D01*
X189056314Y-108088345D02*
X189127742Y-108016916D01*
X189127742Y-108016916D02*
X189199171Y-107874059D01*
X189199171Y-107874059D02*
X189199171Y-107588345D01*
X189199171Y-107588345D02*
X189127742Y-107445488D01*
X188270600Y-106159773D02*
X188199171Y-106302630D01*
X188199171Y-106302630D02*
X188199171Y-106588345D01*
X188199171Y-106588345D02*
X188270600Y-106731202D01*
X188270600Y-106731202D02*
X188413457Y-106802630D01*
X188413457Y-106802630D02*
X188984885Y-106802630D01*
X188984885Y-106802630D02*
X189127742Y-106731202D01*
X189127742Y-106731202D02*
X189199171Y-106588345D01*
X189199171Y-106588345D02*
X189199171Y-106302630D01*
X189199171Y-106302630D02*
X189127742Y-106159773D01*
X189127742Y-106159773D02*
X188984885Y-106088345D01*
X188984885Y-106088345D02*
X188842028Y-106088345D01*
X188842028Y-106088345D02*
X188699171Y-106802630D01*
D11*
X124584809Y-84373247D02*
X124470523Y-84411342D01*
X124470523Y-84411342D02*
X124432428Y-84449438D01*
X124432428Y-84449438D02*
X124394332Y-84525628D01*
X124394332Y-84525628D02*
X124394332Y-84639914D01*
X124394332Y-84639914D02*
X124432428Y-84716104D01*
X124432428Y-84716104D02*
X124470523Y-84754200D01*
X124470523Y-84754200D02*
X124546713Y-84792295D01*
X124546713Y-84792295D02*
X124851475Y-84792295D01*
X124851475Y-84792295D02*
X124851475Y-83992295D01*
X124851475Y-83992295D02*
X124584809Y-83992295D01*
X124584809Y-83992295D02*
X124508618Y-84030390D01*
X124508618Y-84030390D02*
X124470523Y-84068485D01*
X124470523Y-84068485D02*
X124432428Y-84144676D01*
X124432428Y-84144676D02*
X124432428Y-84220866D01*
X124432428Y-84220866D02*
X124470523Y-84297057D01*
X124470523Y-84297057D02*
X124508618Y-84335152D01*
X124508618Y-84335152D02*
X124584809Y-84373247D01*
X124584809Y-84373247D02*
X124851475Y-84373247D01*
X124089571Y-84068485D02*
X124051475Y-84030390D01*
X124051475Y-84030390D02*
X123975285Y-83992295D01*
X123975285Y-83992295D02*
X123784809Y-83992295D01*
X123784809Y-83992295D02*
X123708618Y-84030390D01*
X123708618Y-84030390D02*
X123670523Y-84068485D01*
X123670523Y-84068485D02*
X123632428Y-84144676D01*
X123632428Y-84144676D02*
X123632428Y-84220866D01*
X123632428Y-84220866D02*
X123670523Y-84335152D01*
X123670523Y-84335152D02*
X124127666Y-84792295D01*
X124127666Y-84792295D02*
X123632428Y-84792295D01*
X113929475Y-61932295D02*
X113929475Y-61132295D01*
X113929475Y-61132295D02*
X113738999Y-61132295D01*
X113738999Y-61132295D02*
X113624713Y-61170390D01*
X113624713Y-61170390D02*
X113548523Y-61246580D01*
X113548523Y-61246580D02*
X113510428Y-61322771D01*
X113510428Y-61322771D02*
X113472332Y-61475152D01*
X113472332Y-61475152D02*
X113472332Y-61589438D01*
X113472332Y-61589438D02*
X113510428Y-61741819D01*
X113510428Y-61741819D02*
X113548523Y-61818009D01*
X113548523Y-61818009D02*
X113624713Y-61894200D01*
X113624713Y-61894200D02*
X113738999Y-61932295D01*
X113738999Y-61932295D02*
X113929475Y-61932295D01*
X113167571Y-61208485D02*
X113129475Y-61170390D01*
X113129475Y-61170390D02*
X113053285Y-61132295D01*
X113053285Y-61132295D02*
X112862809Y-61132295D01*
X112862809Y-61132295D02*
X112786618Y-61170390D01*
X112786618Y-61170390D02*
X112748523Y-61208485D01*
X112748523Y-61208485D02*
X112710428Y-61284676D01*
X112710428Y-61284676D02*
X112710428Y-61360866D01*
X112710428Y-61360866D02*
X112748523Y-61475152D01*
X112748523Y-61475152D02*
X113205666Y-61932295D01*
X113205666Y-61932295D02*
X112710428Y-61932295D01*
X124584809Y-86913247D02*
X124470523Y-86951342D01*
X124470523Y-86951342D02*
X124432428Y-86989438D01*
X124432428Y-86989438D02*
X124394332Y-87065628D01*
X124394332Y-87065628D02*
X124394332Y-87179914D01*
X124394332Y-87179914D02*
X124432428Y-87256104D01*
X124432428Y-87256104D02*
X124470523Y-87294200D01*
X124470523Y-87294200D02*
X124546713Y-87332295D01*
X124546713Y-87332295D02*
X124851475Y-87332295D01*
X124851475Y-87332295D02*
X124851475Y-86532295D01*
X124851475Y-86532295D02*
X124584809Y-86532295D01*
X124584809Y-86532295D02*
X124508618Y-86570390D01*
X124508618Y-86570390D02*
X124470523Y-86608485D01*
X124470523Y-86608485D02*
X124432428Y-86684676D01*
X124432428Y-86684676D02*
X124432428Y-86760866D01*
X124432428Y-86760866D02*
X124470523Y-86837057D01*
X124470523Y-86837057D02*
X124508618Y-86875152D01*
X124508618Y-86875152D02*
X124584809Y-86913247D01*
X124584809Y-86913247D02*
X124851475Y-86913247D01*
X123708618Y-86532295D02*
X123860999Y-86532295D01*
X123860999Y-86532295D02*
X123937190Y-86570390D01*
X123937190Y-86570390D02*
X123975285Y-86608485D01*
X123975285Y-86608485D02*
X124051475Y-86722771D01*
X124051475Y-86722771D02*
X124089571Y-86875152D01*
X124089571Y-86875152D02*
X124089571Y-87179914D01*
X124089571Y-87179914D02*
X124051475Y-87256104D01*
X124051475Y-87256104D02*
X124013380Y-87294200D01*
X124013380Y-87294200D02*
X123937190Y-87332295D01*
X123937190Y-87332295D02*
X123784809Y-87332295D01*
X123784809Y-87332295D02*
X123708618Y-87294200D01*
X123708618Y-87294200D02*
X123670523Y-87256104D01*
X123670523Y-87256104D02*
X123632428Y-87179914D01*
X123632428Y-87179914D02*
X123632428Y-86989438D01*
X123632428Y-86989438D02*
X123670523Y-86913247D01*
X123670523Y-86913247D02*
X123708618Y-86875152D01*
X123708618Y-86875152D02*
X123784809Y-86837057D01*
X123784809Y-86837057D02*
X123937190Y-86837057D01*
X123937190Y-86837057D02*
X124013380Y-86875152D01*
X124013380Y-86875152D02*
X124051475Y-86913247D01*
X124051475Y-86913247D02*
X124089571Y-86989438D01*
X113948523Y-63710390D02*
X114024713Y-63672295D01*
X114024713Y-63672295D02*
X114138999Y-63672295D01*
X114138999Y-63672295D02*
X114253285Y-63710390D01*
X114253285Y-63710390D02*
X114329475Y-63786580D01*
X114329475Y-63786580D02*
X114367570Y-63862771D01*
X114367570Y-63862771D02*
X114405666Y-64015152D01*
X114405666Y-64015152D02*
X114405666Y-64129438D01*
X114405666Y-64129438D02*
X114367570Y-64281819D01*
X114367570Y-64281819D02*
X114329475Y-64358009D01*
X114329475Y-64358009D02*
X114253285Y-64434200D01*
X114253285Y-64434200D02*
X114138999Y-64472295D01*
X114138999Y-64472295D02*
X114062808Y-64472295D01*
X114062808Y-64472295D02*
X113948523Y-64434200D01*
X113948523Y-64434200D02*
X113910427Y-64396104D01*
X113910427Y-64396104D02*
X113910427Y-64129438D01*
X113910427Y-64129438D02*
X114062808Y-64129438D01*
X113567570Y-64472295D02*
X113567570Y-63672295D01*
X113567570Y-63672295D02*
X113110427Y-64472295D01*
X113110427Y-64472295D02*
X113110427Y-63672295D01*
X112729475Y-64472295D02*
X112729475Y-63672295D01*
X112729475Y-63672295D02*
X112538999Y-63672295D01*
X112538999Y-63672295D02*
X112424713Y-63710390D01*
X112424713Y-63710390D02*
X112348523Y-63786580D01*
X112348523Y-63786580D02*
X112310428Y-63862771D01*
X112310428Y-63862771D02*
X112272332Y-64015152D01*
X112272332Y-64015152D02*
X112272332Y-64129438D01*
X112272332Y-64129438D02*
X112310428Y-64281819D01*
X112310428Y-64281819D02*
X112348523Y-64358009D01*
X112348523Y-64358009D02*
X112424713Y-64434200D01*
X112424713Y-64434200D02*
X112538999Y-64472295D01*
X112538999Y-64472295D02*
X112729475Y-64472295D01*
X124870523Y-61170390D02*
X124946713Y-61132295D01*
X124946713Y-61132295D02*
X125060999Y-61132295D01*
X125060999Y-61132295D02*
X125175285Y-61170390D01*
X125175285Y-61170390D02*
X125251475Y-61246580D01*
X125251475Y-61246580D02*
X125289570Y-61322771D01*
X125289570Y-61322771D02*
X125327666Y-61475152D01*
X125327666Y-61475152D02*
X125327666Y-61589438D01*
X125327666Y-61589438D02*
X125289570Y-61741819D01*
X125289570Y-61741819D02*
X125251475Y-61818009D01*
X125251475Y-61818009D02*
X125175285Y-61894200D01*
X125175285Y-61894200D02*
X125060999Y-61932295D01*
X125060999Y-61932295D02*
X124984808Y-61932295D01*
X124984808Y-61932295D02*
X124870523Y-61894200D01*
X124870523Y-61894200D02*
X124832427Y-61856104D01*
X124832427Y-61856104D02*
X124832427Y-61589438D01*
X124832427Y-61589438D02*
X124984808Y-61589438D01*
X124489570Y-61932295D02*
X124489570Y-61132295D01*
X124489570Y-61132295D02*
X124032427Y-61932295D01*
X124032427Y-61932295D02*
X124032427Y-61132295D01*
X123651475Y-61932295D02*
X123651475Y-61132295D01*
X123651475Y-61132295D02*
X123460999Y-61132295D01*
X123460999Y-61132295D02*
X123346713Y-61170390D01*
X123346713Y-61170390D02*
X123270523Y-61246580D01*
X123270523Y-61246580D02*
X123232428Y-61322771D01*
X123232428Y-61322771D02*
X123194332Y-61475152D01*
X123194332Y-61475152D02*
X123194332Y-61589438D01*
X123194332Y-61589438D02*
X123232428Y-61741819D01*
X123232428Y-61741819D02*
X123270523Y-61818009D01*
X123270523Y-61818009D02*
X123346713Y-61894200D01*
X123346713Y-61894200D02*
X123460999Y-61932295D01*
X123460999Y-61932295D02*
X123651475Y-61932295D01*
X117418604Y-58592295D02*
X116961461Y-58592295D01*
X117190033Y-59392295D02*
X117190033Y-58592295D01*
X116770985Y-58592295D02*
X116237651Y-59392295D01*
X116237651Y-58592295D02*
X116770985Y-59392295D01*
X115780508Y-58592295D02*
X115704318Y-58592295D01*
X115704318Y-58592295D02*
X115628127Y-58630390D01*
X115628127Y-58630390D02*
X115590032Y-58668485D01*
X115590032Y-58668485D02*
X115551937Y-58744676D01*
X115551937Y-58744676D02*
X115513842Y-58897057D01*
X115513842Y-58897057D02*
X115513842Y-59087533D01*
X115513842Y-59087533D02*
X115551937Y-59239914D01*
X115551937Y-59239914D02*
X115590032Y-59316104D01*
X115590032Y-59316104D02*
X115628127Y-59354200D01*
X115628127Y-59354200D02*
X115704318Y-59392295D01*
X115704318Y-59392295D02*
X115780508Y-59392295D01*
X115780508Y-59392295D02*
X115856699Y-59354200D01*
X115856699Y-59354200D02*
X115894794Y-59316104D01*
X115894794Y-59316104D02*
X115932889Y-59239914D01*
X115932889Y-59239914D02*
X115970985Y-59087533D01*
X115970985Y-59087533D02*
X115970985Y-58897057D01*
X115970985Y-58897057D02*
X115932889Y-58744676D01*
X115932889Y-58744676D02*
X115894794Y-58668485D01*
X115894794Y-58668485D02*
X115856699Y-58630390D01*
X115856699Y-58630390D02*
X115780508Y-58592295D01*
X114599556Y-58554200D02*
X115285270Y-59582771D01*
X114332889Y-59392295D02*
X114332889Y-58592295D01*
X114332889Y-58592295D02*
X114142413Y-58592295D01*
X114142413Y-58592295D02*
X114028127Y-58630390D01*
X114028127Y-58630390D02*
X113951937Y-58706580D01*
X113951937Y-58706580D02*
X113913842Y-58782771D01*
X113913842Y-58782771D02*
X113875746Y-58935152D01*
X113875746Y-58935152D02*
X113875746Y-59049438D01*
X113875746Y-59049438D02*
X113913842Y-59201819D01*
X113913842Y-59201819D02*
X113951937Y-59278009D01*
X113951937Y-59278009D02*
X114028127Y-59354200D01*
X114028127Y-59354200D02*
X114142413Y-59392295D01*
X114142413Y-59392295D02*
X114332889Y-59392295D01*
X113609080Y-58592295D02*
X113113842Y-58592295D01*
X113113842Y-58592295D02*
X113380508Y-58897057D01*
X113380508Y-58897057D02*
X113266223Y-58897057D01*
X113266223Y-58897057D02*
X113190032Y-58935152D01*
X113190032Y-58935152D02*
X113151937Y-58973247D01*
X113151937Y-58973247D02*
X113113842Y-59049438D01*
X113113842Y-59049438D02*
X113113842Y-59239914D01*
X113113842Y-59239914D02*
X113151937Y-59316104D01*
X113151937Y-59316104D02*
X113190032Y-59354200D01*
X113190032Y-59354200D02*
X113266223Y-59392295D01*
X113266223Y-59392295D02*
X113494794Y-59392295D01*
X113494794Y-59392295D02*
X113570985Y-59354200D01*
X113570985Y-59354200D02*
X113609080Y-59316104D01*
X113929475Y-69552295D02*
X113929475Y-68752295D01*
X113929475Y-68752295D02*
X113738999Y-68752295D01*
X113738999Y-68752295D02*
X113624713Y-68790390D01*
X113624713Y-68790390D02*
X113548523Y-68866580D01*
X113548523Y-68866580D02*
X113510428Y-68942771D01*
X113510428Y-68942771D02*
X113472332Y-69095152D01*
X113472332Y-69095152D02*
X113472332Y-69209438D01*
X113472332Y-69209438D02*
X113510428Y-69361819D01*
X113510428Y-69361819D02*
X113548523Y-69438009D01*
X113548523Y-69438009D02*
X113624713Y-69514200D01*
X113624713Y-69514200D02*
X113738999Y-69552295D01*
X113738999Y-69552295D02*
X113929475Y-69552295D01*
X112710428Y-69552295D02*
X113167571Y-69552295D01*
X112938999Y-69552295D02*
X112938999Y-68752295D01*
X112938999Y-68752295D02*
X113015190Y-68866580D01*
X113015190Y-68866580D02*
X113091380Y-68942771D01*
X113091380Y-68942771D02*
X113167571Y-68980866D01*
X124584809Y-79293247D02*
X124470523Y-79331342D01*
X124470523Y-79331342D02*
X124432428Y-79369438D01*
X124432428Y-79369438D02*
X124394332Y-79445628D01*
X124394332Y-79445628D02*
X124394332Y-79559914D01*
X124394332Y-79559914D02*
X124432428Y-79636104D01*
X124432428Y-79636104D02*
X124470523Y-79674200D01*
X124470523Y-79674200D02*
X124546713Y-79712295D01*
X124546713Y-79712295D02*
X124851475Y-79712295D01*
X124851475Y-79712295D02*
X124851475Y-78912295D01*
X124851475Y-78912295D02*
X124584809Y-78912295D01*
X124584809Y-78912295D02*
X124508618Y-78950390D01*
X124508618Y-78950390D02*
X124470523Y-78988485D01*
X124470523Y-78988485D02*
X124432428Y-79064676D01*
X124432428Y-79064676D02*
X124432428Y-79140866D01*
X124432428Y-79140866D02*
X124470523Y-79217057D01*
X124470523Y-79217057D02*
X124508618Y-79255152D01*
X124508618Y-79255152D02*
X124584809Y-79293247D01*
X124584809Y-79293247D02*
X124851475Y-79293247D01*
X123632428Y-79712295D02*
X124089571Y-79712295D01*
X123860999Y-79712295D02*
X123860999Y-78912295D01*
X123860999Y-78912295D02*
X123937190Y-79026580D01*
X123937190Y-79026580D02*
X124013380Y-79102771D01*
X124013380Y-79102771D02*
X124089571Y-79140866D01*
X113948523Y-66250390D02*
X114024713Y-66212295D01*
X114024713Y-66212295D02*
X114138999Y-66212295D01*
X114138999Y-66212295D02*
X114253285Y-66250390D01*
X114253285Y-66250390D02*
X114329475Y-66326580D01*
X114329475Y-66326580D02*
X114367570Y-66402771D01*
X114367570Y-66402771D02*
X114405666Y-66555152D01*
X114405666Y-66555152D02*
X114405666Y-66669438D01*
X114405666Y-66669438D02*
X114367570Y-66821819D01*
X114367570Y-66821819D02*
X114329475Y-66898009D01*
X114329475Y-66898009D02*
X114253285Y-66974200D01*
X114253285Y-66974200D02*
X114138999Y-67012295D01*
X114138999Y-67012295D02*
X114062808Y-67012295D01*
X114062808Y-67012295D02*
X113948523Y-66974200D01*
X113948523Y-66974200D02*
X113910427Y-66936104D01*
X113910427Y-66936104D02*
X113910427Y-66669438D01*
X113910427Y-66669438D02*
X114062808Y-66669438D01*
X113567570Y-67012295D02*
X113567570Y-66212295D01*
X113567570Y-66212295D02*
X113110427Y-67012295D01*
X113110427Y-67012295D02*
X113110427Y-66212295D01*
X112729475Y-67012295D02*
X112729475Y-66212295D01*
X112729475Y-66212295D02*
X112538999Y-66212295D01*
X112538999Y-66212295D02*
X112424713Y-66250390D01*
X112424713Y-66250390D02*
X112348523Y-66326580D01*
X112348523Y-66326580D02*
X112310428Y-66402771D01*
X112310428Y-66402771D02*
X112272332Y-66555152D01*
X112272332Y-66555152D02*
X112272332Y-66669438D01*
X112272332Y-66669438D02*
X112310428Y-66821819D01*
X112310428Y-66821819D02*
X112348523Y-66898009D01*
X112348523Y-66898009D02*
X112424713Y-66974200D01*
X112424713Y-66974200D02*
X112538999Y-67012295D01*
X112538999Y-67012295D02*
X112729475Y-67012295D01*
X113662809Y-86913247D02*
X113548523Y-86951342D01*
X113548523Y-86951342D02*
X113510428Y-86989438D01*
X113510428Y-86989438D02*
X113472332Y-87065628D01*
X113472332Y-87065628D02*
X113472332Y-87179914D01*
X113472332Y-87179914D02*
X113510428Y-87256104D01*
X113510428Y-87256104D02*
X113548523Y-87294200D01*
X113548523Y-87294200D02*
X113624713Y-87332295D01*
X113624713Y-87332295D02*
X113929475Y-87332295D01*
X113929475Y-87332295D02*
X113929475Y-86532295D01*
X113929475Y-86532295D02*
X113662809Y-86532295D01*
X113662809Y-86532295D02*
X113586618Y-86570390D01*
X113586618Y-86570390D02*
X113548523Y-86608485D01*
X113548523Y-86608485D02*
X113510428Y-86684676D01*
X113510428Y-86684676D02*
X113510428Y-86760866D01*
X113510428Y-86760866D02*
X113548523Y-86837057D01*
X113548523Y-86837057D02*
X113586618Y-86875152D01*
X113586618Y-86875152D02*
X113662809Y-86913247D01*
X113662809Y-86913247D02*
X113929475Y-86913247D01*
X112748523Y-86532295D02*
X113129475Y-86532295D01*
X113129475Y-86532295D02*
X113167571Y-86913247D01*
X113167571Y-86913247D02*
X113129475Y-86875152D01*
X113129475Y-86875152D02*
X113053285Y-86837057D01*
X113053285Y-86837057D02*
X112862809Y-86837057D01*
X112862809Y-86837057D02*
X112786618Y-86875152D01*
X112786618Y-86875152D02*
X112748523Y-86913247D01*
X112748523Y-86913247D02*
X112710428Y-86989438D01*
X112710428Y-86989438D02*
X112710428Y-87179914D01*
X112710428Y-87179914D02*
X112748523Y-87256104D01*
X112748523Y-87256104D02*
X112786618Y-87294200D01*
X112786618Y-87294200D02*
X112862809Y-87332295D01*
X112862809Y-87332295D02*
X113053285Y-87332295D01*
X113053285Y-87332295D02*
X113129475Y-87294200D01*
X113129475Y-87294200D02*
X113167571Y-87256104D01*
X113929475Y-79712295D02*
X113929475Y-78912295D01*
X113929475Y-78912295D02*
X113738999Y-78912295D01*
X113738999Y-78912295D02*
X113624713Y-78950390D01*
X113624713Y-78950390D02*
X113548523Y-79026580D01*
X113548523Y-79026580D02*
X113510428Y-79102771D01*
X113510428Y-79102771D02*
X113472332Y-79255152D01*
X113472332Y-79255152D02*
X113472332Y-79369438D01*
X113472332Y-79369438D02*
X113510428Y-79521819D01*
X113510428Y-79521819D02*
X113548523Y-79598009D01*
X113548523Y-79598009D02*
X113624713Y-79674200D01*
X113624713Y-79674200D02*
X113738999Y-79712295D01*
X113738999Y-79712295D02*
X113929475Y-79712295D01*
X113205666Y-78912295D02*
X112672332Y-78912295D01*
X112672332Y-78912295D02*
X113015190Y-79712295D01*
X113929475Y-72092295D02*
X113929475Y-71292295D01*
X113929475Y-71292295D02*
X113738999Y-71292295D01*
X113738999Y-71292295D02*
X113624713Y-71330390D01*
X113624713Y-71330390D02*
X113548523Y-71406580D01*
X113548523Y-71406580D02*
X113510428Y-71482771D01*
X113510428Y-71482771D02*
X113472332Y-71635152D01*
X113472332Y-71635152D02*
X113472332Y-71749438D01*
X113472332Y-71749438D02*
X113510428Y-71901819D01*
X113510428Y-71901819D02*
X113548523Y-71978009D01*
X113548523Y-71978009D02*
X113624713Y-72054200D01*
X113624713Y-72054200D02*
X113738999Y-72092295D01*
X113738999Y-72092295D02*
X113929475Y-72092295D01*
X112977094Y-71292295D02*
X112900904Y-71292295D01*
X112900904Y-71292295D02*
X112824713Y-71330390D01*
X112824713Y-71330390D02*
X112786618Y-71368485D01*
X112786618Y-71368485D02*
X112748523Y-71444676D01*
X112748523Y-71444676D02*
X112710428Y-71597057D01*
X112710428Y-71597057D02*
X112710428Y-71787533D01*
X112710428Y-71787533D02*
X112748523Y-71939914D01*
X112748523Y-71939914D02*
X112786618Y-72016104D01*
X112786618Y-72016104D02*
X112824713Y-72054200D01*
X112824713Y-72054200D02*
X112900904Y-72092295D01*
X112900904Y-72092295D02*
X112977094Y-72092295D01*
X112977094Y-72092295D02*
X113053285Y-72054200D01*
X113053285Y-72054200D02*
X113091380Y-72016104D01*
X113091380Y-72016104D02*
X113129475Y-71939914D01*
X113129475Y-71939914D02*
X113167571Y-71787533D01*
X113167571Y-71787533D02*
X113167571Y-71597057D01*
X113167571Y-71597057D02*
X113129475Y-71444676D01*
X113129475Y-71444676D02*
X113091380Y-71368485D01*
X113091380Y-71368485D02*
X113053285Y-71330390D01*
X113053285Y-71330390D02*
X112977094Y-71292295D01*
X124813380Y-59392295D02*
X125080047Y-59011342D01*
X125270523Y-59392295D02*
X125270523Y-58592295D01*
X125270523Y-58592295D02*
X124965761Y-58592295D01*
X124965761Y-58592295D02*
X124889571Y-58630390D01*
X124889571Y-58630390D02*
X124851476Y-58668485D01*
X124851476Y-58668485D02*
X124813380Y-58744676D01*
X124813380Y-58744676D02*
X124813380Y-58858961D01*
X124813380Y-58858961D02*
X124851476Y-58935152D01*
X124851476Y-58935152D02*
X124889571Y-58973247D01*
X124889571Y-58973247D02*
X124965761Y-59011342D01*
X124965761Y-59011342D02*
X125270523Y-59011342D01*
X124508619Y-59163723D02*
X124127666Y-59163723D01*
X124584809Y-59392295D02*
X124318142Y-58592295D01*
X124318142Y-58592295D02*
X124051476Y-59392295D01*
X123861000Y-58592295D02*
X123670524Y-59392295D01*
X123670524Y-59392295D02*
X123518143Y-58820866D01*
X123518143Y-58820866D02*
X123365762Y-59392295D01*
X123365762Y-59392295D02*
X123175286Y-58592295D01*
X113929475Y-74632295D02*
X113929475Y-73832295D01*
X113929475Y-73832295D02*
X113738999Y-73832295D01*
X113738999Y-73832295D02*
X113624713Y-73870390D01*
X113624713Y-73870390D02*
X113548523Y-73946580D01*
X113548523Y-73946580D02*
X113510428Y-74022771D01*
X113510428Y-74022771D02*
X113472332Y-74175152D01*
X113472332Y-74175152D02*
X113472332Y-74289438D01*
X113472332Y-74289438D02*
X113510428Y-74441819D01*
X113510428Y-74441819D02*
X113548523Y-74518009D01*
X113548523Y-74518009D02*
X113624713Y-74594200D01*
X113624713Y-74594200D02*
X113738999Y-74632295D01*
X113738999Y-74632295D02*
X113929475Y-74632295D01*
X112786618Y-74098961D02*
X112786618Y-74632295D01*
X112977094Y-73794200D02*
X113167571Y-74365628D01*
X113167571Y-74365628D02*
X112672332Y-74365628D01*
X124527666Y-74213247D02*
X124794332Y-74213247D01*
X124794332Y-74632295D02*
X124794332Y-73832295D01*
X124794332Y-73832295D02*
X124413380Y-73832295D01*
X123765761Y-73832295D02*
X123918142Y-73832295D01*
X123918142Y-73832295D02*
X123994333Y-73870390D01*
X123994333Y-73870390D02*
X124032428Y-73908485D01*
X124032428Y-73908485D02*
X124108618Y-74022771D01*
X124108618Y-74022771D02*
X124146714Y-74175152D01*
X124146714Y-74175152D02*
X124146714Y-74479914D01*
X124146714Y-74479914D02*
X124108618Y-74556104D01*
X124108618Y-74556104D02*
X124070523Y-74594200D01*
X124070523Y-74594200D02*
X123994333Y-74632295D01*
X123994333Y-74632295D02*
X123841952Y-74632295D01*
X123841952Y-74632295D02*
X123765761Y-74594200D01*
X123765761Y-74594200D02*
X123727666Y-74556104D01*
X123727666Y-74556104D02*
X123689571Y-74479914D01*
X123689571Y-74479914D02*
X123689571Y-74289438D01*
X123689571Y-74289438D02*
X123727666Y-74213247D01*
X123727666Y-74213247D02*
X123765761Y-74175152D01*
X123765761Y-74175152D02*
X123841952Y-74137057D01*
X123841952Y-74137057D02*
X123994333Y-74137057D01*
X123994333Y-74137057D02*
X124070523Y-74175152D01*
X124070523Y-74175152D02*
X124108618Y-74213247D01*
X124108618Y-74213247D02*
X124146714Y-74289438D01*
X113662809Y-84373247D02*
X113548523Y-84411342D01*
X113548523Y-84411342D02*
X113510428Y-84449438D01*
X113510428Y-84449438D02*
X113472332Y-84525628D01*
X113472332Y-84525628D02*
X113472332Y-84639914D01*
X113472332Y-84639914D02*
X113510428Y-84716104D01*
X113510428Y-84716104D02*
X113548523Y-84754200D01*
X113548523Y-84754200D02*
X113624713Y-84792295D01*
X113624713Y-84792295D02*
X113929475Y-84792295D01*
X113929475Y-84792295D02*
X113929475Y-83992295D01*
X113929475Y-83992295D02*
X113662809Y-83992295D01*
X113662809Y-83992295D02*
X113586618Y-84030390D01*
X113586618Y-84030390D02*
X113548523Y-84068485D01*
X113548523Y-84068485D02*
X113510428Y-84144676D01*
X113510428Y-84144676D02*
X113510428Y-84220866D01*
X113510428Y-84220866D02*
X113548523Y-84297057D01*
X113548523Y-84297057D02*
X113586618Y-84335152D01*
X113586618Y-84335152D02*
X113662809Y-84373247D01*
X113662809Y-84373247D02*
X113929475Y-84373247D01*
X112786618Y-84258961D02*
X112786618Y-84792295D01*
X112977094Y-83954200D02*
X113167571Y-84525628D01*
X113167571Y-84525628D02*
X112672332Y-84525628D01*
X124584809Y-81833247D02*
X124470523Y-81871342D01*
X124470523Y-81871342D02*
X124432428Y-81909438D01*
X124432428Y-81909438D02*
X124394332Y-81985628D01*
X124394332Y-81985628D02*
X124394332Y-82099914D01*
X124394332Y-82099914D02*
X124432428Y-82176104D01*
X124432428Y-82176104D02*
X124470523Y-82214200D01*
X124470523Y-82214200D02*
X124546713Y-82252295D01*
X124546713Y-82252295D02*
X124851475Y-82252295D01*
X124851475Y-82252295D02*
X124851475Y-81452295D01*
X124851475Y-81452295D02*
X124584809Y-81452295D01*
X124584809Y-81452295D02*
X124508618Y-81490390D01*
X124508618Y-81490390D02*
X124470523Y-81528485D01*
X124470523Y-81528485D02*
X124432428Y-81604676D01*
X124432428Y-81604676D02*
X124432428Y-81680866D01*
X124432428Y-81680866D02*
X124470523Y-81757057D01*
X124470523Y-81757057D02*
X124508618Y-81795152D01*
X124508618Y-81795152D02*
X124584809Y-81833247D01*
X124584809Y-81833247D02*
X124851475Y-81833247D01*
X124127666Y-81452295D02*
X123632428Y-81452295D01*
X123632428Y-81452295D02*
X123899094Y-81757057D01*
X123899094Y-81757057D02*
X123784809Y-81757057D01*
X123784809Y-81757057D02*
X123708618Y-81795152D01*
X123708618Y-81795152D02*
X123670523Y-81833247D01*
X123670523Y-81833247D02*
X123632428Y-81909438D01*
X123632428Y-81909438D02*
X123632428Y-82099914D01*
X123632428Y-82099914D02*
X123670523Y-82176104D01*
X123670523Y-82176104D02*
X123708618Y-82214200D01*
X123708618Y-82214200D02*
X123784809Y-82252295D01*
X123784809Y-82252295D02*
X124013380Y-82252295D01*
X124013380Y-82252295D02*
X124089571Y-82214200D01*
X124089571Y-82214200D02*
X124127666Y-82176104D01*
X124373333Y-64414200D02*
X124259047Y-64452295D01*
X124259047Y-64452295D02*
X124068571Y-64452295D01*
X124068571Y-64452295D02*
X123992380Y-64414200D01*
X123992380Y-64414200D02*
X123954285Y-64376104D01*
X123954285Y-64376104D02*
X123916190Y-64299914D01*
X123916190Y-64299914D02*
X123916190Y-64223723D01*
X123916190Y-64223723D02*
X123954285Y-64147533D01*
X123954285Y-64147533D02*
X123992380Y-64109438D01*
X123992380Y-64109438D02*
X124068571Y-64071342D01*
X124068571Y-64071342D02*
X124220952Y-64033247D01*
X124220952Y-64033247D02*
X124297142Y-63995152D01*
X124297142Y-63995152D02*
X124335237Y-63957057D01*
X124335237Y-63957057D02*
X124373333Y-63880866D01*
X124373333Y-63880866D02*
X124373333Y-63804676D01*
X124373333Y-63804676D02*
X124335237Y-63728485D01*
X124335237Y-63728485D02*
X124297142Y-63690390D01*
X124297142Y-63690390D02*
X124220952Y-63652295D01*
X124220952Y-63652295D02*
X124030475Y-63652295D01*
X124030475Y-63652295D02*
X123916190Y-63690390D01*
X123687618Y-63652295D02*
X123230475Y-63652295D01*
X123459047Y-64452295D02*
X123459047Y-63652295D01*
X113472332Y-77096104D02*
X113510428Y-77134200D01*
X113510428Y-77134200D02*
X113624713Y-77172295D01*
X113624713Y-77172295D02*
X113700904Y-77172295D01*
X113700904Y-77172295D02*
X113815190Y-77134200D01*
X113815190Y-77134200D02*
X113891380Y-77058009D01*
X113891380Y-77058009D02*
X113929475Y-76981819D01*
X113929475Y-76981819D02*
X113967571Y-76829438D01*
X113967571Y-76829438D02*
X113967571Y-76715152D01*
X113967571Y-76715152D02*
X113929475Y-76562771D01*
X113929475Y-76562771D02*
X113891380Y-76486580D01*
X113891380Y-76486580D02*
X113815190Y-76410390D01*
X113815190Y-76410390D02*
X113700904Y-76372295D01*
X113700904Y-76372295D02*
X113624713Y-76372295D01*
X113624713Y-76372295D02*
X113510428Y-76410390D01*
X113510428Y-76410390D02*
X113472332Y-76448485D01*
X112786618Y-76372295D02*
X112938999Y-76372295D01*
X112938999Y-76372295D02*
X113015190Y-76410390D01*
X113015190Y-76410390D02*
X113053285Y-76448485D01*
X113053285Y-76448485D02*
X113129475Y-76562771D01*
X113129475Y-76562771D02*
X113167571Y-76715152D01*
X113167571Y-76715152D02*
X113167571Y-77019914D01*
X113167571Y-77019914D02*
X113129475Y-77096104D01*
X113129475Y-77096104D02*
X113091380Y-77134200D01*
X113091380Y-77134200D02*
X113015190Y-77172295D01*
X113015190Y-77172295D02*
X112862809Y-77172295D01*
X112862809Y-77172295D02*
X112786618Y-77134200D01*
X112786618Y-77134200D02*
X112748523Y-77096104D01*
X112748523Y-77096104D02*
X112710428Y-77019914D01*
X112710428Y-77019914D02*
X112710428Y-76829438D01*
X112710428Y-76829438D02*
X112748523Y-76753247D01*
X112748523Y-76753247D02*
X112786618Y-76715152D01*
X112786618Y-76715152D02*
X112862809Y-76677057D01*
X112862809Y-76677057D02*
X113015190Y-76677057D01*
X113015190Y-76677057D02*
X113091380Y-76715152D01*
X113091380Y-76715152D02*
X113129475Y-76753247D01*
X113129475Y-76753247D02*
X113167571Y-76829438D01*
X124527666Y-76753247D02*
X124794332Y-76753247D01*
X124794332Y-77172295D02*
X124794332Y-76372295D01*
X124794332Y-76372295D02*
X124413380Y-76372295D01*
X124184809Y-76372295D02*
X123651475Y-76372295D01*
X123651475Y-76372295D02*
X123994333Y-77172295D01*
X124527666Y-69133247D02*
X124794332Y-69133247D01*
X124794332Y-69552295D02*
X124794332Y-68752295D01*
X124794332Y-68752295D02*
X124413380Y-68752295D01*
X123765761Y-69018961D02*
X123765761Y-69552295D01*
X123956237Y-68714200D02*
X124146714Y-69285628D01*
X124146714Y-69285628D02*
X123651475Y-69285628D01*
X113891380Y-81833247D02*
X113624714Y-81833247D01*
X113510428Y-82252295D02*
X113891380Y-82252295D01*
X113891380Y-82252295D02*
X113891380Y-81452295D01*
X113891380Y-81452295D02*
X113510428Y-81452295D01*
X112824713Y-81452295D02*
X112977094Y-81452295D01*
X112977094Y-81452295D02*
X113053285Y-81490390D01*
X113053285Y-81490390D02*
X113091380Y-81528485D01*
X113091380Y-81528485D02*
X113167570Y-81642771D01*
X113167570Y-81642771D02*
X113205666Y-81795152D01*
X113205666Y-81795152D02*
X113205666Y-82099914D01*
X113205666Y-82099914D02*
X113167570Y-82176104D01*
X113167570Y-82176104D02*
X113129475Y-82214200D01*
X113129475Y-82214200D02*
X113053285Y-82252295D01*
X113053285Y-82252295D02*
X112900904Y-82252295D01*
X112900904Y-82252295D02*
X112824713Y-82214200D01*
X112824713Y-82214200D02*
X112786618Y-82176104D01*
X112786618Y-82176104D02*
X112748523Y-82099914D01*
X112748523Y-82099914D02*
X112748523Y-81909438D01*
X112748523Y-81909438D02*
X112786618Y-81833247D01*
X112786618Y-81833247D02*
X112824713Y-81795152D01*
X112824713Y-81795152D02*
X112900904Y-81757057D01*
X112900904Y-81757057D02*
X113053285Y-81757057D01*
X113053285Y-81757057D02*
X113129475Y-81795152D01*
X113129475Y-81795152D02*
X113167570Y-81833247D01*
X113167570Y-81833247D02*
X113205666Y-81909438D01*
X125327666Y-66212295D02*
X125060999Y-67012295D01*
X125060999Y-67012295D02*
X124794333Y-66212295D01*
X124070523Y-66936104D02*
X124108619Y-66974200D01*
X124108619Y-66974200D02*
X124222904Y-67012295D01*
X124222904Y-67012295D02*
X124299095Y-67012295D01*
X124299095Y-67012295D02*
X124413381Y-66974200D01*
X124413381Y-66974200D02*
X124489571Y-66898009D01*
X124489571Y-66898009D02*
X124527666Y-66821819D01*
X124527666Y-66821819D02*
X124565762Y-66669438D01*
X124565762Y-66669438D02*
X124565762Y-66555152D01*
X124565762Y-66555152D02*
X124527666Y-66402771D01*
X124527666Y-66402771D02*
X124489571Y-66326580D01*
X124489571Y-66326580D02*
X124413381Y-66250390D01*
X124413381Y-66250390D02*
X124299095Y-66212295D01*
X124299095Y-66212295D02*
X124222904Y-66212295D01*
X124222904Y-66212295D02*
X124108619Y-66250390D01*
X124108619Y-66250390D02*
X124070523Y-66288485D01*
X123270523Y-66936104D02*
X123308619Y-66974200D01*
X123308619Y-66974200D02*
X123422904Y-67012295D01*
X123422904Y-67012295D02*
X123499095Y-67012295D01*
X123499095Y-67012295D02*
X123613381Y-66974200D01*
X123613381Y-66974200D02*
X123689571Y-66898009D01*
X123689571Y-66898009D02*
X123727666Y-66821819D01*
X123727666Y-66821819D02*
X123765762Y-66669438D01*
X123765762Y-66669438D02*
X123765762Y-66555152D01*
X123765762Y-66555152D02*
X123727666Y-66402771D01*
X123727666Y-66402771D02*
X123689571Y-66326580D01*
X123689571Y-66326580D02*
X123613381Y-66250390D01*
X123613381Y-66250390D02*
X123499095Y-66212295D01*
X123499095Y-66212295D02*
X123422904Y-66212295D01*
X123422904Y-66212295D02*
X123308619Y-66250390D01*
X123308619Y-66250390D02*
X123270523Y-66288485D01*
X124527666Y-71673247D02*
X124794332Y-71673247D01*
X124794332Y-72092295D02*
X124794332Y-71292295D01*
X124794332Y-71292295D02*
X124413380Y-71292295D01*
X123727666Y-71292295D02*
X124108618Y-71292295D01*
X124108618Y-71292295D02*
X124146714Y-71673247D01*
X124146714Y-71673247D02*
X124108618Y-71635152D01*
X124108618Y-71635152D02*
X124032428Y-71597057D01*
X124032428Y-71597057D02*
X123841952Y-71597057D01*
X123841952Y-71597057D02*
X123765761Y-71635152D01*
X123765761Y-71635152D02*
X123727666Y-71673247D01*
X123727666Y-71673247D02*
X123689571Y-71749438D01*
X123689571Y-71749438D02*
X123689571Y-71939914D01*
X123689571Y-71939914D02*
X123727666Y-72016104D01*
X123727666Y-72016104D02*
X123765761Y-72054200D01*
X123765761Y-72054200D02*
X123841952Y-72092295D01*
X123841952Y-72092295D02*
X124032428Y-72092295D01*
X124032428Y-72092295D02*
X124108618Y-72054200D01*
X124108618Y-72054200D02*
X124146714Y-72016104D01*
X200526094Y-62146122D02*
X199526094Y-62146122D01*
X199526094Y-62146122D02*
X199526094Y-62384217D01*
X199526094Y-62384217D02*
X199573713Y-62527074D01*
X199573713Y-62527074D02*
X199668951Y-62622312D01*
X199668951Y-62622312D02*
X199764189Y-62669931D01*
X199764189Y-62669931D02*
X199954665Y-62717550D01*
X199954665Y-62717550D02*
X200097522Y-62717550D01*
X200097522Y-62717550D02*
X200287998Y-62669931D01*
X200287998Y-62669931D02*
X200383236Y-62622312D01*
X200383236Y-62622312D02*
X200478475Y-62527074D01*
X200478475Y-62527074D02*
X200526094Y-62384217D01*
X200526094Y-62384217D02*
X200526094Y-62146122D01*
X200526094Y-63669931D02*
X200526094Y-63098503D01*
X200526094Y-63384217D02*
X199526094Y-63384217D01*
X199526094Y-63384217D02*
X199668951Y-63288979D01*
X199668951Y-63288979D02*
X199764189Y-63193741D01*
X199764189Y-63193741D02*
X199811808Y-63098503D01*
X200526094Y-64146122D02*
X200526094Y-64336598D01*
X200526094Y-64336598D02*
X200478475Y-64431836D01*
X200478475Y-64431836D02*
X200430855Y-64479455D01*
X200430855Y-64479455D02*
X200287998Y-64574693D01*
X200287998Y-64574693D02*
X200097522Y-64622312D01*
X200097522Y-64622312D02*
X199716570Y-64622312D01*
X199716570Y-64622312D02*
X199621332Y-64574693D01*
X199621332Y-64574693D02*
X199573713Y-64527074D01*
X199573713Y-64527074D02*
X199526094Y-64431836D01*
X199526094Y-64431836D02*
X199526094Y-64241360D01*
X199526094Y-64241360D02*
X199573713Y-64146122D01*
X199573713Y-64146122D02*
X199621332Y-64098503D01*
X199621332Y-64098503D02*
X199716570Y-64050884D01*
X199716570Y-64050884D02*
X199954665Y-64050884D01*
X199954665Y-64050884D02*
X200049903Y-64098503D01*
X200049903Y-64098503D02*
X200097522Y-64146122D01*
X200097522Y-64146122D02*
X200145141Y-64241360D01*
X200145141Y-64241360D02*
X200145141Y-64431836D01*
X200145141Y-64431836D02*
X200097522Y-64527074D01*
X200097522Y-64527074D02*
X200049903Y-64574693D01*
X200049903Y-64574693D02*
X199954665Y-64622312D01*
X219526094Y-94149753D02*
X218526094Y-94149753D01*
X218526094Y-94149753D02*
X218526094Y-94387848D01*
X218526094Y-94387848D02*
X218573713Y-94530705D01*
X218573713Y-94530705D02*
X218668951Y-94625943D01*
X218668951Y-94625943D02*
X218764189Y-94673562D01*
X218764189Y-94673562D02*
X218954665Y-94721181D01*
X218954665Y-94721181D02*
X219097522Y-94721181D01*
X219097522Y-94721181D02*
X219287998Y-94673562D01*
X219287998Y-94673562D02*
X219383236Y-94625943D01*
X219383236Y-94625943D02*
X219478475Y-94530705D01*
X219478475Y-94530705D02*
X219526094Y-94387848D01*
X219526094Y-94387848D02*
X219526094Y-94149753D01*
X218621332Y-95102134D02*
X218573713Y-95149753D01*
X218573713Y-95149753D02*
X218526094Y-95244991D01*
X218526094Y-95244991D02*
X218526094Y-95483086D01*
X218526094Y-95483086D02*
X218573713Y-95578324D01*
X218573713Y-95578324D02*
X218621332Y-95625943D01*
X218621332Y-95625943D02*
X218716570Y-95673562D01*
X218716570Y-95673562D02*
X218811808Y-95673562D01*
X218811808Y-95673562D02*
X218954665Y-95625943D01*
X218954665Y-95625943D02*
X219526094Y-95054515D01*
X219526094Y-95054515D02*
X219526094Y-95673562D01*
X218526094Y-96006896D02*
X218526094Y-96625943D01*
X218526094Y-96625943D02*
X218907046Y-96292610D01*
X218907046Y-96292610D02*
X218907046Y-96435467D01*
X218907046Y-96435467D02*
X218954665Y-96530705D01*
X218954665Y-96530705D02*
X219002284Y-96578324D01*
X219002284Y-96578324D02*
X219097522Y-96625943D01*
X219097522Y-96625943D02*
X219335617Y-96625943D01*
X219335617Y-96625943D02*
X219430855Y-96578324D01*
X219430855Y-96578324D02*
X219478475Y-96530705D01*
X219478475Y-96530705D02*
X219526094Y-96435467D01*
X219526094Y-96435467D02*
X219526094Y-96149753D01*
X219526094Y-96149753D02*
X219478475Y-96054515D01*
X219478475Y-96054515D02*
X219430855Y-96006896D01*
X257526094Y-55146122D02*
X256526094Y-55146122D01*
X256526094Y-55146122D02*
X256526094Y-55384217D01*
X256526094Y-55384217D02*
X256573713Y-55527074D01*
X256573713Y-55527074D02*
X256668951Y-55622312D01*
X256668951Y-55622312D02*
X256764189Y-55669931D01*
X256764189Y-55669931D02*
X256954665Y-55717550D01*
X256954665Y-55717550D02*
X257097522Y-55717550D01*
X257097522Y-55717550D02*
X257287998Y-55669931D01*
X257287998Y-55669931D02*
X257383236Y-55622312D01*
X257383236Y-55622312D02*
X257478475Y-55527074D01*
X257478475Y-55527074D02*
X257526094Y-55384217D01*
X257526094Y-55384217D02*
X257526094Y-55146122D01*
X256621332Y-56098503D02*
X256573713Y-56146122D01*
X256573713Y-56146122D02*
X256526094Y-56241360D01*
X256526094Y-56241360D02*
X256526094Y-56479455D01*
X256526094Y-56479455D02*
X256573713Y-56574693D01*
X256573713Y-56574693D02*
X256621332Y-56622312D01*
X256621332Y-56622312D02*
X256716570Y-56669931D01*
X256716570Y-56669931D02*
X256811808Y-56669931D01*
X256811808Y-56669931D02*
X256954665Y-56622312D01*
X256954665Y-56622312D02*
X257526094Y-56050884D01*
X257526094Y-56050884D02*
X257526094Y-56669931D01*
X256954665Y-57241360D02*
X256907046Y-57146122D01*
X256907046Y-57146122D02*
X256859427Y-57098503D01*
X256859427Y-57098503D02*
X256764189Y-57050884D01*
X256764189Y-57050884D02*
X256716570Y-57050884D01*
X256716570Y-57050884D02*
X256621332Y-57098503D01*
X256621332Y-57098503D02*
X256573713Y-57146122D01*
X256573713Y-57146122D02*
X256526094Y-57241360D01*
X256526094Y-57241360D02*
X256526094Y-57431836D01*
X256526094Y-57431836D02*
X256573713Y-57527074D01*
X256573713Y-57527074D02*
X256621332Y-57574693D01*
X256621332Y-57574693D02*
X256716570Y-57622312D01*
X256716570Y-57622312D02*
X256764189Y-57622312D01*
X256764189Y-57622312D02*
X256859427Y-57574693D01*
X256859427Y-57574693D02*
X256907046Y-57527074D01*
X256907046Y-57527074D02*
X256954665Y-57431836D01*
X256954665Y-57431836D02*
X256954665Y-57241360D01*
X256954665Y-57241360D02*
X257002284Y-57146122D01*
X257002284Y-57146122D02*
X257049903Y-57098503D01*
X257049903Y-57098503D02*
X257145141Y-57050884D01*
X257145141Y-57050884D02*
X257335617Y-57050884D01*
X257335617Y-57050884D02*
X257430855Y-57098503D01*
X257430855Y-57098503D02*
X257478475Y-57146122D01*
X257478475Y-57146122D02*
X257526094Y-57241360D01*
X257526094Y-57241360D02*
X257526094Y-57431836D01*
X257526094Y-57431836D02*
X257478475Y-57527074D01*
X257478475Y-57527074D02*
X257430855Y-57574693D01*
X257430855Y-57574693D02*
X257335617Y-57622312D01*
X257335617Y-57622312D02*
X257145141Y-57622312D01*
X257145141Y-57622312D02*
X257049903Y-57574693D01*
X257049903Y-57574693D02*
X257002284Y-57527074D01*
X257002284Y-57527074D02*
X256954665Y-57431836D01*
X200526094Y-81146122D02*
X199526094Y-81146122D01*
X199526094Y-81146122D02*
X199526094Y-81384217D01*
X199526094Y-81384217D02*
X199573713Y-81527074D01*
X199573713Y-81527074D02*
X199668951Y-81622312D01*
X199668951Y-81622312D02*
X199764189Y-81669931D01*
X199764189Y-81669931D02*
X199954665Y-81717550D01*
X199954665Y-81717550D02*
X200097522Y-81717550D01*
X200097522Y-81717550D02*
X200287998Y-81669931D01*
X200287998Y-81669931D02*
X200383236Y-81622312D01*
X200383236Y-81622312D02*
X200478475Y-81527074D01*
X200478475Y-81527074D02*
X200526094Y-81384217D01*
X200526094Y-81384217D02*
X200526094Y-81146122D01*
X199621332Y-82098503D02*
X199573713Y-82146122D01*
X199573713Y-82146122D02*
X199526094Y-82241360D01*
X199526094Y-82241360D02*
X199526094Y-82479455D01*
X199526094Y-82479455D02*
X199573713Y-82574693D01*
X199573713Y-82574693D02*
X199621332Y-82622312D01*
X199621332Y-82622312D02*
X199716570Y-82669931D01*
X199716570Y-82669931D02*
X199811808Y-82669931D01*
X199811808Y-82669931D02*
X199954665Y-82622312D01*
X199954665Y-82622312D02*
X200526094Y-82050884D01*
X200526094Y-82050884D02*
X200526094Y-82669931D01*
X199526094Y-83288979D02*
X199526094Y-83384217D01*
X199526094Y-83384217D02*
X199573713Y-83479455D01*
X199573713Y-83479455D02*
X199621332Y-83527074D01*
X199621332Y-83527074D02*
X199716570Y-83574693D01*
X199716570Y-83574693D02*
X199907046Y-83622312D01*
X199907046Y-83622312D02*
X200145141Y-83622312D01*
X200145141Y-83622312D02*
X200335617Y-83574693D01*
X200335617Y-83574693D02*
X200430855Y-83527074D01*
X200430855Y-83527074D02*
X200478475Y-83479455D01*
X200478475Y-83479455D02*
X200526094Y-83384217D01*
X200526094Y-83384217D02*
X200526094Y-83288979D01*
X200526094Y-83288979D02*
X200478475Y-83193741D01*
X200478475Y-83193741D02*
X200430855Y-83146122D01*
X200430855Y-83146122D02*
X200335617Y-83098503D01*
X200335617Y-83098503D02*
X200145141Y-83050884D01*
X200145141Y-83050884D02*
X199907046Y-83050884D01*
X199907046Y-83050884D02*
X199716570Y-83098503D01*
X199716570Y-83098503D02*
X199621332Y-83146122D01*
X199621332Y-83146122D02*
X199573713Y-83193741D01*
X199573713Y-83193741D02*
X199526094Y-83288979D01*
X257526094Y-74146122D02*
X256526094Y-74146122D01*
X256526094Y-74146122D02*
X256526094Y-74384217D01*
X256526094Y-74384217D02*
X256573713Y-74527074D01*
X256573713Y-74527074D02*
X256668951Y-74622312D01*
X256668951Y-74622312D02*
X256764189Y-74669931D01*
X256764189Y-74669931D02*
X256954665Y-74717550D01*
X256954665Y-74717550D02*
X257097522Y-74717550D01*
X257097522Y-74717550D02*
X257287998Y-74669931D01*
X257287998Y-74669931D02*
X257383236Y-74622312D01*
X257383236Y-74622312D02*
X257478475Y-74527074D01*
X257478475Y-74527074D02*
X257526094Y-74384217D01*
X257526094Y-74384217D02*
X257526094Y-74146122D01*
X256621332Y-75098503D02*
X256573713Y-75146122D01*
X256573713Y-75146122D02*
X256526094Y-75241360D01*
X256526094Y-75241360D02*
X256526094Y-75479455D01*
X256526094Y-75479455D02*
X256573713Y-75574693D01*
X256573713Y-75574693D02*
X256621332Y-75622312D01*
X256621332Y-75622312D02*
X256716570Y-75669931D01*
X256716570Y-75669931D02*
X256811808Y-75669931D01*
X256811808Y-75669931D02*
X256954665Y-75622312D01*
X256954665Y-75622312D02*
X257526094Y-75050884D01*
X257526094Y-75050884D02*
X257526094Y-75669931D01*
X257526094Y-76146122D02*
X257526094Y-76336598D01*
X257526094Y-76336598D02*
X257478475Y-76431836D01*
X257478475Y-76431836D02*
X257430855Y-76479455D01*
X257430855Y-76479455D02*
X257287998Y-76574693D01*
X257287998Y-76574693D02*
X257097522Y-76622312D01*
X257097522Y-76622312D02*
X256716570Y-76622312D01*
X256716570Y-76622312D02*
X256621332Y-76574693D01*
X256621332Y-76574693D02*
X256573713Y-76527074D01*
X256573713Y-76527074D02*
X256526094Y-76431836D01*
X256526094Y-76431836D02*
X256526094Y-76241360D01*
X256526094Y-76241360D02*
X256573713Y-76146122D01*
X256573713Y-76146122D02*
X256621332Y-76098503D01*
X256621332Y-76098503D02*
X256716570Y-76050884D01*
X256716570Y-76050884D02*
X256954665Y-76050884D01*
X256954665Y-76050884D02*
X257049903Y-76098503D01*
X257049903Y-76098503D02*
X257097522Y-76146122D01*
X257097522Y-76146122D02*
X257145141Y-76241360D01*
X257145141Y-76241360D02*
X257145141Y-76431836D01*
X257145141Y-76431836D02*
X257097522Y-76527074D01*
X257097522Y-76527074D02*
X257049903Y-76574693D01*
X257049903Y-76574693D02*
X256954665Y-76622312D01*
X200526094Y-100146122D02*
X199526094Y-100146122D01*
X199526094Y-100146122D02*
X199526094Y-100384217D01*
X199526094Y-100384217D02*
X199573713Y-100527074D01*
X199573713Y-100527074D02*
X199668951Y-100622312D01*
X199668951Y-100622312D02*
X199764189Y-100669931D01*
X199764189Y-100669931D02*
X199954665Y-100717550D01*
X199954665Y-100717550D02*
X200097522Y-100717550D01*
X200097522Y-100717550D02*
X200287998Y-100669931D01*
X200287998Y-100669931D02*
X200383236Y-100622312D01*
X200383236Y-100622312D02*
X200478475Y-100527074D01*
X200478475Y-100527074D02*
X200526094Y-100384217D01*
X200526094Y-100384217D02*
X200526094Y-100146122D01*
X199526094Y-101050884D02*
X199526094Y-101669931D01*
X199526094Y-101669931D02*
X199907046Y-101336598D01*
X199907046Y-101336598D02*
X199907046Y-101479455D01*
X199907046Y-101479455D02*
X199954665Y-101574693D01*
X199954665Y-101574693D02*
X200002284Y-101622312D01*
X200002284Y-101622312D02*
X200097522Y-101669931D01*
X200097522Y-101669931D02*
X200335617Y-101669931D01*
X200335617Y-101669931D02*
X200430855Y-101622312D01*
X200430855Y-101622312D02*
X200478475Y-101574693D01*
X200478475Y-101574693D02*
X200526094Y-101479455D01*
X200526094Y-101479455D02*
X200526094Y-101193741D01*
X200526094Y-101193741D02*
X200478475Y-101098503D01*
X200478475Y-101098503D02*
X200430855Y-101050884D01*
X199526094Y-102527074D02*
X199526094Y-102336598D01*
X199526094Y-102336598D02*
X199573713Y-102241360D01*
X199573713Y-102241360D02*
X199621332Y-102193741D01*
X199621332Y-102193741D02*
X199764189Y-102098503D01*
X199764189Y-102098503D02*
X199954665Y-102050884D01*
X199954665Y-102050884D02*
X200335617Y-102050884D01*
X200335617Y-102050884D02*
X200430855Y-102098503D01*
X200430855Y-102098503D02*
X200478475Y-102146122D01*
X200478475Y-102146122D02*
X200526094Y-102241360D01*
X200526094Y-102241360D02*
X200526094Y-102431836D01*
X200526094Y-102431836D02*
X200478475Y-102527074D01*
X200478475Y-102527074D02*
X200430855Y-102574693D01*
X200430855Y-102574693D02*
X200335617Y-102622312D01*
X200335617Y-102622312D02*
X200097522Y-102622312D01*
X200097522Y-102622312D02*
X200002284Y-102574693D01*
X200002284Y-102574693D02*
X199954665Y-102527074D01*
X199954665Y-102527074D02*
X199907046Y-102431836D01*
X199907046Y-102431836D02*
X199907046Y-102241360D01*
X199907046Y-102241360D02*
X199954665Y-102146122D01*
X199954665Y-102146122D02*
X200002284Y-102098503D01*
X200002284Y-102098503D02*
X200097522Y-102050884D01*
X215781269Y-132240589D02*
X216775791Y-132136060D01*
X216775791Y-132136060D02*
X216750904Y-131899269D01*
X216750904Y-131899269D02*
X216688613Y-131762172D01*
X216688613Y-131762172D02*
X216583941Y-131677411D01*
X216583941Y-131677411D02*
X216484247Y-131640008D01*
X216484247Y-131640008D02*
X216289837Y-131612560D01*
X216289837Y-131612560D02*
X216147763Y-131627493D01*
X216147763Y-131627493D02*
X215963307Y-131694761D01*
X215963307Y-131694761D02*
X215873569Y-131752074D01*
X215873569Y-131752074D02*
X215788807Y-131856746D01*
X215788807Y-131856746D02*
X215756382Y-132003798D01*
X215756382Y-132003798D02*
X215781269Y-132240589D01*
X216681218Y-131236255D02*
X216616510Y-130620598D01*
X216616510Y-130620598D02*
X216272487Y-130991926D01*
X216272487Y-130991926D02*
X216257555Y-130849852D01*
X216257555Y-130849852D02*
X216200241Y-130760113D01*
X216200241Y-130760113D02*
X216147906Y-130717732D01*
X216147906Y-130717732D02*
X216048212Y-130680329D01*
X216048212Y-130680329D02*
X215811421Y-130705217D01*
X215811421Y-130705217D02*
X215721682Y-130762530D01*
X215721682Y-130762530D02*
X215679301Y-130814866D01*
X215679301Y-130814866D02*
X215641898Y-130914560D01*
X215641898Y-130914560D02*
X215671763Y-131198709D01*
X215671763Y-131198709D02*
X215729077Y-131288448D01*
X215729077Y-131288448D02*
X215781412Y-131330828D01*
X216521936Y-129720793D02*
X216571712Y-130194375D01*
X216571712Y-130194375D02*
X216103108Y-130291508D01*
X216103108Y-130291508D02*
X216145488Y-130239173D01*
X216145488Y-130239173D02*
X216182891Y-130139479D01*
X216182891Y-130139479D02*
X216158004Y-129902688D01*
X216158004Y-129902688D02*
X216100690Y-129812949D01*
X216100690Y-129812949D02*
X216048355Y-129770568D01*
X216048355Y-129770568D02*
X215948661Y-129733165D01*
X215948661Y-129733165D02*
X215711870Y-129758053D01*
X215711870Y-129758053D02*
X215622131Y-129815366D01*
X215622131Y-129815366D02*
X215579750Y-129867702D01*
X215579750Y-129867702D02*
X215542347Y-129967396D01*
X215542347Y-129967396D02*
X215567235Y-130204187D01*
X215567235Y-130204187D02*
X215624548Y-130293926D01*
X215624548Y-130293926D02*
X215676884Y-130336306D01*
X277143291Y-103300552D02*
X276147096Y-103213396D01*
X276147096Y-103213396D02*
X276126345Y-103450585D01*
X276126345Y-103450585D02*
X276161332Y-103597049D01*
X276161332Y-103597049D02*
X276247907Y-103700225D01*
X276247907Y-103700225D02*
X276338632Y-103755963D01*
X276338632Y-103755963D02*
X276524233Y-103820002D01*
X276524233Y-103820002D02*
X276666547Y-103832453D01*
X276666547Y-103832453D02*
X276860449Y-103801616D01*
X276860449Y-103801616D02*
X276959475Y-103762479D01*
X276959475Y-103762479D02*
X277062651Y-103675904D01*
X277062651Y-103675904D02*
X277122539Y-103537741D01*
X277122539Y-103537741D02*
X277143291Y-103300552D01*
X276068241Y-104114715D02*
X276014287Y-104731407D01*
X276014287Y-104731407D02*
X276422842Y-104432544D01*
X276422842Y-104432544D02*
X276410391Y-104574858D01*
X276410391Y-104574858D02*
X276449528Y-104673884D01*
X276449528Y-104673884D02*
X276492816Y-104725472D01*
X276492816Y-104725472D02*
X276583541Y-104781210D01*
X276583541Y-104781210D02*
X276820731Y-104801961D01*
X276820731Y-104801961D02*
X276919757Y-104762824D01*
X276919757Y-104762824D02*
X276971345Y-104719537D01*
X276971345Y-104719537D02*
X277027083Y-104628811D01*
X277027083Y-104628811D02*
X277051985Y-104344184D01*
X277051985Y-104344184D02*
X277012847Y-104245158D01*
X277012847Y-104245158D02*
X276969560Y-104193570D01*
X276271647Y-105614340D02*
X276935777Y-105672444D01*
X275912896Y-105343949D02*
X276645215Y-105169013D01*
X276645215Y-105169013D02*
X276591261Y-105785705D01*
X280633221Y-65415658D02*
X279637026Y-65328502D01*
X279637026Y-65328502D02*
X279616275Y-65565691D01*
X279616275Y-65565691D02*
X279651262Y-65712155D01*
X279651262Y-65712155D02*
X279737837Y-65815331D01*
X279737837Y-65815331D02*
X279828562Y-65871069D01*
X279828562Y-65871069D02*
X280014163Y-65935108D01*
X280014163Y-65935108D02*
X280156477Y-65947559D01*
X280156477Y-65947559D02*
X280350379Y-65916722D01*
X280350379Y-65916722D02*
X280449405Y-65877585D01*
X280449405Y-65877585D02*
X280552581Y-65791010D01*
X280552581Y-65791010D02*
X280612469Y-65652847D01*
X280612469Y-65652847D02*
X280633221Y-65415658D01*
X279558171Y-66229821D02*
X279504217Y-66846513D01*
X279504217Y-66846513D02*
X279912772Y-66547650D01*
X279912772Y-66547650D02*
X279900321Y-66689964D01*
X279900321Y-66689964D02*
X279939458Y-66788990D01*
X279939458Y-66788990D02*
X279982746Y-66840578D01*
X279982746Y-66840578D02*
X280073471Y-66896316D01*
X280073471Y-66896316D02*
X280310661Y-66917067D01*
X280310661Y-66917067D02*
X280409687Y-66877930D01*
X280409687Y-66877930D02*
X280461275Y-66834643D01*
X280461275Y-66834643D02*
X280517013Y-66743917D01*
X280517013Y-66743917D02*
X280541915Y-66459290D01*
X280541915Y-66459290D02*
X280502777Y-66360264D01*
X280502777Y-66360264D02*
X280459490Y-66308676D01*
X279565891Y-67234316D02*
X279514303Y-67277604D01*
X279514303Y-67277604D02*
X279458564Y-67368329D01*
X279458564Y-67368329D02*
X279437813Y-67605518D01*
X279437813Y-67605518D02*
X279476950Y-67704544D01*
X279476950Y-67704544D02*
X279520238Y-67756132D01*
X279520238Y-67756132D02*
X279610963Y-67811871D01*
X279610963Y-67811871D02*
X279705839Y-67820171D01*
X279705839Y-67820171D02*
X279852303Y-67785184D01*
X279852303Y-67785184D02*
X280471360Y-67265733D01*
X280471360Y-67265733D02*
X280417407Y-67882425D01*
X193916628Y-138680776D02*
X194862147Y-138355208D01*
X194862147Y-138355208D02*
X194784631Y-138130084D01*
X194784631Y-138130084D02*
X194693096Y-138010513D01*
X194693096Y-138010513D02*
X194572040Y-137951470D01*
X194572040Y-137951470D02*
X194466488Y-137937452D01*
X194466488Y-137937452D02*
X194270886Y-137954441D01*
X194270886Y-137954441D02*
X194135812Y-138000950D01*
X194135812Y-138000950D02*
X193971216Y-138107988D01*
X193971216Y-138107988D02*
X193896670Y-138184019D01*
X193896670Y-138184019D02*
X193837627Y-138305075D01*
X193837627Y-138305075D02*
X193839112Y-138455652D01*
X193839112Y-138455652D02*
X193916628Y-138680776D01*
X194567585Y-137499739D02*
X194366043Y-136914417D01*
X194366043Y-136914417D02*
X194114368Y-137353616D01*
X194114368Y-137353616D02*
X194067859Y-137218542D01*
X194067859Y-137218542D02*
X193991827Y-137143996D01*
X193991827Y-137143996D02*
X193931299Y-137114475D01*
X193931299Y-137114475D02*
X193825747Y-137100456D01*
X193825747Y-137100456D02*
X193600623Y-137177973D01*
X193600623Y-137177973D02*
X193526077Y-137254004D01*
X193526077Y-137254004D02*
X193496556Y-137314532D01*
X193496556Y-137314532D02*
X193482538Y-137420084D01*
X193482538Y-137420084D02*
X193575557Y-137690233D01*
X193575557Y-137690233D02*
X193651588Y-137764779D01*
X193651588Y-137764779D02*
X193712116Y-137794300D01*
X193110460Y-136339492D02*
X193296499Y-136879788D01*
X193203479Y-136609640D02*
X194148998Y-136284072D01*
X194148998Y-136284072D02*
X194044930Y-136420631D01*
X194044930Y-136420631D02*
X193985887Y-136541687D01*
X193985887Y-136541687D02*
X193971869Y-136647239D01*
X219526094Y-75146122D02*
X218526094Y-75146122D01*
X218526094Y-75146122D02*
X218526094Y-75384217D01*
X218526094Y-75384217D02*
X218573713Y-75527074D01*
X218573713Y-75527074D02*
X218668951Y-75622312D01*
X218668951Y-75622312D02*
X218764189Y-75669931D01*
X218764189Y-75669931D02*
X218954665Y-75717550D01*
X218954665Y-75717550D02*
X219097522Y-75717550D01*
X219097522Y-75717550D02*
X219287998Y-75669931D01*
X219287998Y-75669931D02*
X219383236Y-75622312D01*
X219383236Y-75622312D02*
X219478475Y-75527074D01*
X219478475Y-75527074D02*
X219526094Y-75384217D01*
X219526094Y-75384217D02*
X219526094Y-75146122D01*
X218621332Y-76098503D02*
X218573713Y-76146122D01*
X218573713Y-76146122D02*
X218526094Y-76241360D01*
X218526094Y-76241360D02*
X218526094Y-76479455D01*
X218526094Y-76479455D02*
X218573713Y-76574693D01*
X218573713Y-76574693D02*
X218621332Y-76622312D01*
X218621332Y-76622312D02*
X218716570Y-76669931D01*
X218716570Y-76669931D02*
X218811808Y-76669931D01*
X218811808Y-76669931D02*
X218954665Y-76622312D01*
X218954665Y-76622312D02*
X219526094Y-76050884D01*
X219526094Y-76050884D02*
X219526094Y-76669931D01*
X218621332Y-77050884D02*
X218573713Y-77098503D01*
X218573713Y-77098503D02*
X218526094Y-77193741D01*
X218526094Y-77193741D02*
X218526094Y-77431836D01*
X218526094Y-77431836D02*
X218573713Y-77527074D01*
X218573713Y-77527074D02*
X218621332Y-77574693D01*
X218621332Y-77574693D02*
X218716570Y-77622312D01*
X218716570Y-77622312D02*
X218811808Y-77622312D01*
X218811808Y-77622312D02*
X218954665Y-77574693D01*
X218954665Y-77574693D02*
X219526094Y-77003265D01*
X219526094Y-77003265D02*
X219526094Y-77622312D01*
X279139627Y-84342432D02*
X278143432Y-84255276D01*
X278143432Y-84255276D02*
X278122681Y-84492465D01*
X278122681Y-84492465D02*
X278157668Y-84638929D01*
X278157668Y-84638929D02*
X278244243Y-84742105D01*
X278244243Y-84742105D02*
X278334968Y-84797843D01*
X278334968Y-84797843D02*
X278520569Y-84861882D01*
X278520569Y-84861882D02*
X278662883Y-84874333D01*
X278662883Y-84874333D02*
X278856785Y-84843496D01*
X278856785Y-84843496D02*
X278955811Y-84804359D01*
X278955811Y-84804359D02*
X279058987Y-84717784D01*
X279058987Y-84717784D02*
X279118875Y-84579621D01*
X279118875Y-84579621D02*
X279139627Y-84342432D01*
X278064577Y-85156595D02*
X278010623Y-85773287D01*
X278010623Y-85773287D02*
X278419178Y-85474424D01*
X278419178Y-85474424D02*
X278406727Y-85616738D01*
X278406727Y-85616738D02*
X278445864Y-85715764D01*
X278445864Y-85715764D02*
X278489152Y-85767352D01*
X278489152Y-85767352D02*
X278579877Y-85823090D01*
X278579877Y-85823090D02*
X278817067Y-85843841D01*
X278817067Y-85843841D02*
X278916093Y-85804704D01*
X278916093Y-85804704D02*
X278967681Y-85761417D01*
X278967681Y-85761417D02*
X279023419Y-85670691D01*
X279023419Y-85670691D02*
X279048321Y-85386064D01*
X279048321Y-85386064D02*
X279009183Y-85287038D01*
X279009183Y-85287038D02*
X278965896Y-85235450D01*
X277981571Y-86105352D02*
X277927618Y-86722044D01*
X277927618Y-86722044D02*
X278336173Y-86423181D01*
X278336173Y-86423181D02*
X278323722Y-86565494D01*
X278323722Y-86565494D02*
X278362859Y-86664520D01*
X278362859Y-86664520D02*
X278406147Y-86716109D01*
X278406147Y-86716109D02*
X278496872Y-86771847D01*
X278496872Y-86771847D02*
X278734061Y-86792598D01*
X278734061Y-86792598D02*
X278833087Y-86753461D01*
X278833087Y-86753461D02*
X278884675Y-86710173D01*
X278884675Y-86710173D02*
X278940414Y-86619448D01*
X278940414Y-86619448D02*
X278965315Y-86334821D01*
X278965315Y-86334821D02*
X278926178Y-86235795D01*
X278926178Y-86235795D02*
X278882890Y-86184207D01*
X219526094Y-56149753D02*
X218526094Y-56149753D01*
X218526094Y-56149753D02*
X218526094Y-56387848D01*
X218526094Y-56387848D02*
X218573713Y-56530705D01*
X218573713Y-56530705D02*
X218668951Y-56625943D01*
X218668951Y-56625943D02*
X218764189Y-56673562D01*
X218764189Y-56673562D02*
X218954665Y-56721181D01*
X218954665Y-56721181D02*
X219097522Y-56721181D01*
X219097522Y-56721181D02*
X219287998Y-56673562D01*
X219287998Y-56673562D02*
X219383236Y-56625943D01*
X219383236Y-56625943D02*
X219478475Y-56530705D01*
X219478475Y-56530705D02*
X219526094Y-56387848D01*
X219526094Y-56387848D02*
X219526094Y-56149753D01*
X218621332Y-57102134D02*
X218573713Y-57149753D01*
X218573713Y-57149753D02*
X218526094Y-57244991D01*
X218526094Y-57244991D02*
X218526094Y-57483086D01*
X218526094Y-57483086D02*
X218573713Y-57578324D01*
X218573713Y-57578324D02*
X218621332Y-57625943D01*
X218621332Y-57625943D02*
X218716570Y-57673562D01*
X218716570Y-57673562D02*
X218811808Y-57673562D01*
X218811808Y-57673562D02*
X218954665Y-57625943D01*
X218954665Y-57625943D02*
X219526094Y-57054515D01*
X219526094Y-57054515D02*
X219526094Y-57673562D01*
X219526094Y-58625943D02*
X219526094Y-58054515D01*
X219526094Y-58340229D02*
X218526094Y-58340229D01*
X218526094Y-58340229D02*
X218668951Y-58244991D01*
X218668951Y-58244991D02*
X218764189Y-58149753D01*
X218764189Y-58149753D02*
X218811808Y-58054515D01*
X194457357Y-125449779D02*
X194457357Y-126164064D01*
X194457357Y-126164064D02*
X194504976Y-126306921D01*
X194504976Y-126306921D02*
X194600214Y-126402160D01*
X194600214Y-126402160D02*
X194743071Y-126449779D01*
X194743071Y-126449779D02*
X194838309Y-126449779D01*
X194028785Y-125545017D02*
X193981166Y-125497398D01*
X193981166Y-125497398D02*
X193885928Y-125449779D01*
X193885928Y-125449779D02*
X193647833Y-125449779D01*
X193647833Y-125449779D02*
X193552595Y-125497398D01*
X193552595Y-125497398D02*
X193504976Y-125545017D01*
X193504976Y-125545017D02*
X193457357Y-125640255D01*
X193457357Y-125640255D02*
X193457357Y-125735493D01*
X193457357Y-125735493D02*
X193504976Y-125878350D01*
X193504976Y-125878350D02*
X194076404Y-126449779D01*
X194076404Y-126449779D02*
X193457357Y-126449779D01*
X238526094Y-69149753D02*
X237526094Y-69149753D01*
X237526094Y-69149753D02*
X237526094Y-69387848D01*
X237526094Y-69387848D02*
X237573713Y-69530705D01*
X237573713Y-69530705D02*
X237668951Y-69625943D01*
X237668951Y-69625943D02*
X237764189Y-69673562D01*
X237764189Y-69673562D02*
X237954665Y-69721181D01*
X237954665Y-69721181D02*
X238097522Y-69721181D01*
X238097522Y-69721181D02*
X238287998Y-69673562D01*
X238287998Y-69673562D02*
X238383236Y-69625943D01*
X238383236Y-69625943D02*
X238478475Y-69530705D01*
X238478475Y-69530705D02*
X238526094Y-69387848D01*
X238526094Y-69387848D02*
X238526094Y-69149753D01*
X237621332Y-70102134D02*
X237573713Y-70149753D01*
X237573713Y-70149753D02*
X237526094Y-70244991D01*
X237526094Y-70244991D02*
X237526094Y-70483086D01*
X237526094Y-70483086D02*
X237573713Y-70578324D01*
X237573713Y-70578324D02*
X237621332Y-70625943D01*
X237621332Y-70625943D02*
X237716570Y-70673562D01*
X237716570Y-70673562D02*
X237811808Y-70673562D01*
X237811808Y-70673562D02*
X237954665Y-70625943D01*
X237954665Y-70625943D02*
X238526094Y-70054515D01*
X238526094Y-70054515D02*
X238526094Y-70673562D01*
X237526094Y-71578324D02*
X237526094Y-71102134D01*
X237526094Y-71102134D02*
X238002284Y-71054515D01*
X238002284Y-71054515D02*
X237954665Y-71102134D01*
X237954665Y-71102134D02*
X237907046Y-71197372D01*
X237907046Y-71197372D02*
X237907046Y-71435467D01*
X237907046Y-71435467D02*
X237954665Y-71530705D01*
X237954665Y-71530705D02*
X238002284Y-71578324D01*
X238002284Y-71578324D02*
X238097522Y-71625943D01*
X238097522Y-71625943D02*
X238335617Y-71625943D01*
X238335617Y-71625943D02*
X238430855Y-71578324D01*
X238430855Y-71578324D02*
X238478475Y-71530705D01*
X238478475Y-71530705D02*
X238526094Y-71435467D01*
X238526094Y-71435467D02*
X238526094Y-71197372D01*
X238526094Y-71197372D02*
X238478475Y-71102134D01*
X238478475Y-71102134D02*
X238430855Y-71054515D01*
X173664774Y-149545753D02*
X174512823Y-149015833D01*
X174512823Y-149015833D02*
X174386651Y-148813917D01*
X174386651Y-148813917D02*
X174270565Y-148718002D01*
X174270565Y-148718002D02*
X174139330Y-148687704D01*
X174139330Y-148687704D02*
X174033330Y-148697789D01*
X174033330Y-148697789D02*
X173846562Y-148758343D01*
X173846562Y-148758343D02*
X173725413Y-148834045D01*
X173725413Y-148834045D02*
X173589114Y-148975366D01*
X173589114Y-148975366D02*
X173533582Y-149066217D01*
X173533582Y-149066217D02*
X173503284Y-149197452D01*
X173503284Y-149197452D02*
X173538603Y-149343836D01*
X173538603Y-149343836D02*
X173664774Y-149545753D01*
X173927371Y-148258637D02*
X173942520Y-148193019D01*
X173942520Y-148193019D02*
X173932435Y-148087019D01*
X173932435Y-148087019D02*
X173806264Y-147885103D01*
X173806264Y-147885103D02*
X173715412Y-147829570D01*
X173715412Y-147829570D02*
X173649794Y-147814421D01*
X173649794Y-147814421D02*
X173543794Y-147824507D01*
X173543794Y-147824507D02*
X173463027Y-147874975D01*
X173463027Y-147874975D02*
X173367112Y-147991061D01*
X173367112Y-147991061D02*
X173185324Y-148778471D01*
X173185324Y-148778471D02*
X172857278Y-148253489D01*
X173528687Y-147440887D02*
X173175407Y-146875521D01*
X173175407Y-146875521D02*
X172554467Y-147768890D01*
X238526094Y-50149753D02*
X237526094Y-50149753D01*
X237526094Y-50149753D02*
X237526094Y-50387848D01*
X237526094Y-50387848D02*
X237573713Y-50530705D01*
X237573713Y-50530705D02*
X237668951Y-50625943D01*
X237668951Y-50625943D02*
X237764189Y-50673562D01*
X237764189Y-50673562D02*
X237954665Y-50721181D01*
X237954665Y-50721181D02*
X238097522Y-50721181D01*
X238097522Y-50721181D02*
X238287998Y-50673562D01*
X238287998Y-50673562D02*
X238383236Y-50625943D01*
X238383236Y-50625943D02*
X238478475Y-50530705D01*
X238478475Y-50530705D02*
X238526094Y-50387848D01*
X238526094Y-50387848D02*
X238526094Y-50149753D01*
X237621332Y-51102134D02*
X237573713Y-51149753D01*
X237573713Y-51149753D02*
X237526094Y-51244991D01*
X237526094Y-51244991D02*
X237526094Y-51483086D01*
X237526094Y-51483086D02*
X237573713Y-51578324D01*
X237573713Y-51578324D02*
X237621332Y-51625943D01*
X237621332Y-51625943D02*
X237716570Y-51673562D01*
X237716570Y-51673562D02*
X237811808Y-51673562D01*
X237811808Y-51673562D02*
X237954665Y-51625943D01*
X237954665Y-51625943D02*
X238526094Y-51054515D01*
X238526094Y-51054515D02*
X238526094Y-51673562D01*
X237859427Y-52530705D02*
X238526094Y-52530705D01*
X237478475Y-52292610D02*
X238192760Y-52054515D01*
X238192760Y-52054515D02*
X238192760Y-52673562D01*
X238526094Y-88149753D02*
X237526094Y-88149753D01*
X237526094Y-88149753D02*
X237526094Y-88387848D01*
X237526094Y-88387848D02*
X237573713Y-88530705D01*
X237573713Y-88530705D02*
X237668951Y-88625943D01*
X237668951Y-88625943D02*
X237764189Y-88673562D01*
X237764189Y-88673562D02*
X237954665Y-88721181D01*
X237954665Y-88721181D02*
X238097522Y-88721181D01*
X238097522Y-88721181D02*
X238287998Y-88673562D01*
X238287998Y-88673562D02*
X238383236Y-88625943D01*
X238383236Y-88625943D02*
X238478475Y-88530705D01*
X238478475Y-88530705D02*
X238526094Y-88387848D01*
X238526094Y-88387848D02*
X238526094Y-88149753D01*
X237621332Y-89102134D02*
X237573713Y-89149753D01*
X237573713Y-89149753D02*
X237526094Y-89244991D01*
X237526094Y-89244991D02*
X237526094Y-89483086D01*
X237526094Y-89483086D02*
X237573713Y-89578324D01*
X237573713Y-89578324D02*
X237621332Y-89625943D01*
X237621332Y-89625943D02*
X237716570Y-89673562D01*
X237716570Y-89673562D02*
X237811808Y-89673562D01*
X237811808Y-89673562D02*
X237954665Y-89625943D01*
X237954665Y-89625943D02*
X238526094Y-89054515D01*
X238526094Y-89054515D02*
X238526094Y-89673562D01*
X237526094Y-90530705D02*
X237526094Y-90340229D01*
X237526094Y-90340229D02*
X237573713Y-90244991D01*
X237573713Y-90244991D02*
X237621332Y-90197372D01*
X237621332Y-90197372D02*
X237764189Y-90102134D01*
X237764189Y-90102134D02*
X237954665Y-90054515D01*
X237954665Y-90054515D02*
X238335617Y-90054515D01*
X238335617Y-90054515D02*
X238430855Y-90102134D01*
X238430855Y-90102134D02*
X238478475Y-90149753D01*
X238478475Y-90149753D02*
X238526094Y-90244991D01*
X238526094Y-90244991D02*
X238526094Y-90435467D01*
X238526094Y-90435467D02*
X238478475Y-90530705D01*
X238478475Y-90530705D02*
X238430855Y-90578324D01*
X238430855Y-90578324D02*
X238335617Y-90625943D01*
X238335617Y-90625943D02*
X238097522Y-90625943D01*
X238097522Y-90625943D02*
X238002284Y-90578324D01*
X238002284Y-90578324D02*
X237954665Y-90530705D01*
X237954665Y-90530705D02*
X237907046Y-90435467D01*
X237907046Y-90435467D02*
X237907046Y-90244991D01*
X237907046Y-90244991D02*
X237954665Y-90149753D01*
X237954665Y-90149753D02*
X238002284Y-90102134D01*
X238002284Y-90102134D02*
X238097522Y-90054515D01*
X257526094Y-93149753D02*
X256526094Y-93149753D01*
X256526094Y-93149753D02*
X256526094Y-93387848D01*
X256526094Y-93387848D02*
X256573713Y-93530705D01*
X256573713Y-93530705D02*
X256668951Y-93625943D01*
X256668951Y-93625943D02*
X256764189Y-93673562D01*
X256764189Y-93673562D02*
X256954665Y-93721181D01*
X256954665Y-93721181D02*
X257097522Y-93721181D01*
X257097522Y-93721181D02*
X257287998Y-93673562D01*
X257287998Y-93673562D02*
X257383236Y-93625943D01*
X257383236Y-93625943D02*
X257478475Y-93530705D01*
X257478475Y-93530705D02*
X257526094Y-93387848D01*
X257526094Y-93387848D02*
X257526094Y-93149753D01*
X256526094Y-94054515D02*
X256526094Y-94673562D01*
X256526094Y-94673562D02*
X256907046Y-94340229D01*
X256907046Y-94340229D02*
X256907046Y-94483086D01*
X256907046Y-94483086D02*
X256954665Y-94578324D01*
X256954665Y-94578324D02*
X257002284Y-94625943D01*
X257002284Y-94625943D02*
X257097522Y-94673562D01*
X257097522Y-94673562D02*
X257335617Y-94673562D01*
X257335617Y-94673562D02*
X257430855Y-94625943D01*
X257430855Y-94625943D02*
X257478475Y-94578324D01*
X257478475Y-94578324D02*
X257526094Y-94483086D01*
X257526094Y-94483086D02*
X257526094Y-94197372D01*
X257526094Y-94197372D02*
X257478475Y-94102134D01*
X257478475Y-94102134D02*
X257430855Y-94054515D01*
X256526094Y-95292610D02*
X256526094Y-95387848D01*
X256526094Y-95387848D02*
X256573713Y-95483086D01*
X256573713Y-95483086D02*
X256621332Y-95530705D01*
X256621332Y-95530705D02*
X256716570Y-95578324D01*
X256716570Y-95578324D02*
X256907046Y-95625943D01*
X256907046Y-95625943D02*
X257145141Y-95625943D01*
X257145141Y-95625943D02*
X257335617Y-95578324D01*
X257335617Y-95578324D02*
X257430855Y-95530705D01*
X257430855Y-95530705D02*
X257478475Y-95483086D01*
X257478475Y-95483086D02*
X257526094Y-95387848D01*
X257526094Y-95387848D02*
X257526094Y-95292610D01*
X257526094Y-95292610D02*
X257478475Y-95197372D01*
X257478475Y-95197372D02*
X257430855Y-95149753D01*
X257430855Y-95149753D02*
X257335617Y-95102134D01*
X257335617Y-95102134D02*
X257145141Y-95054515D01*
X257145141Y-95054515D02*
X256907046Y-95054515D01*
X256907046Y-95054515D02*
X256716570Y-95102134D01*
X256716570Y-95102134D02*
X256621332Y-95149753D01*
X256621332Y-95149753D02*
X256573713Y-95197372D01*
X256573713Y-95197372D02*
X256526094Y-95292610D01*
%TO.C,U2*%
X124744635Y-64449030D02*
X124644635Y-64449030D01*
X124644635Y-64249030D01*
X124744635Y-64249030D01*
X124744635Y-64449030D01*
G36*
X124744635Y-64449030D02*
G01*
X124644635Y-64449030D01*
X124644635Y-64249030D01*
X124744635Y-64249030D01*
X124744635Y-64449030D01*
G37*
X124944635Y-64149030D02*
X124844635Y-64149030D01*
X124844635Y-64049030D01*
X124944635Y-64049030D01*
X124944635Y-64149030D01*
G36*
X124944635Y-64149030D02*
G01*
X124844635Y-64149030D01*
X124844635Y-64049030D01*
X124944635Y-64049030D01*
X124944635Y-64149030D01*
G37*
X124744635Y-63949030D02*
X124644635Y-63949030D01*
X124644635Y-63649030D01*
X124744635Y-63649030D01*
X124744635Y-63949030D01*
G36*
X124744635Y-63949030D02*
G01*
X124644635Y-63949030D01*
X124644635Y-63649030D01*
X124744635Y-63649030D01*
X124744635Y-63949030D01*
G37*
X125144635Y-63749030D02*
X124644635Y-63749030D01*
X124644635Y-63649030D01*
X125144635Y-63649030D01*
X125144635Y-63749030D01*
G36*
X125144635Y-63749030D02*
G01*
X124644635Y-63749030D01*
X124644635Y-63649030D01*
X125144635Y-63649030D01*
X125144635Y-63749030D01*
G37*
X125144635Y-64449030D02*
X125044635Y-64449030D01*
X125044635Y-63649030D01*
X125144635Y-63649030D01*
X125144635Y-64449030D01*
G36*
X125144635Y-64449030D02*
G01*
X125044635Y-64449030D01*
X125044635Y-63649030D01*
X125144635Y-63649030D01*
X125144635Y-64449030D01*
G37*
D12*
X109910000Y-88240000D02*
X127690000Y-88240000D01*
X127690000Y-88240000D02*
X127690000Y-55220000D01*
X112450000Y-60300000D02*
X109910000Y-60300000D01*
X112450000Y-57760000D02*
X112450000Y-60300000D01*
X112450000Y-57760000D02*
X109910000Y-57760000D01*
X109910000Y-55220000D02*
X109910000Y-88240000D01*
X127690000Y-55220000D02*
X109910000Y-55220000D01*
D13*
%TO.C,S31*%
X270404012Y-101464039D02*
X256204012Y-101464039D01*
X270404012Y-87264039D02*
X270404012Y-101464039D01*
X256204012Y-101464039D02*
X256204012Y-87264039D01*
X256204012Y-87264039D02*
X270404012Y-87264039D01*
%TO.C,S22*%
X232404012Y-64464039D02*
X218204012Y-64464039D01*
X232404012Y-50264039D02*
X232404012Y-64464039D01*
X218204012Y-64464039D02*
X218204012Y-50264039D01*
X218204012Y-50264039D02*
X232404012Y-50264039D01*
%TO.C,S25*%
X251404012Y-58464039D02*
X237204012Y-58464039D01*
X251404012Y-44264039D02*
X251404012Y-58464039D01*
X237204012Y-58464039D02*
X237204012Y-44264039D01*
X237204012Y-44264039D02*
X251404012Y-44264039D01*
%TO.C,D19*%
X197071275Y-65720408D02*
X197071275Y-61710408D01*
X199071275Y-65720408D02*
X197071275Y-65720408D01*
X199071275Y-65720408D02*
X199071275Y-61710408D01*
%TO.C,S28*%
X188431616Y-147258715D02*
X176389333Y-154783568D01*
X180906763Y-135216432D02*
X188431616Y-147258715D01*
X176389333Y-154783568D02*
X168864480Y-142741285D01*
X168864480Y-142741285D02*
X180906763Y-135216432D01*
%TO.C,S34*%
X291193715Y-93743073D02*
X277047750Y-92505462D01*
X292431326Y-79597108D02*
X291193715Y-93743073D01*
X277047750Y-92505462D02*
X278285361Y-78359497D01*
X278285361Y-78359497D02*
X292431326Y-79597108D01*
%TO.C,D23*%
X216071275Y-97724039D02*
X216071275Y-93714039D01*
X218071275Y-97724039D02*
X216071275Y-97724039D01*
X218071275Y-97724039D02*
X218071275Y-93714039D01*
%TO.C,D28*%
X254071275Y-58720408D02*
X254071275Y-54710408D01*
X256071275Y-58720408D02*
X254071275Y-58720408D01*
X256071275Y-58720408D02*
X256071275Y-54710408D01*
%TO.C,D20*%
X197071275Y-84720408D02*
X197071275Y-80710408D01*
X199071275Y-84720408D02*
X197071275Y-84720408D01*
X199071275Y-84720408D02*
X199071275Y-80710408D01*
%TO.C,S23*%
X232404012Y-83464039D02*
X218204012Y-83464039D01*
X232404012Y-69264039D02*
X232404012Y-83464039D01*
X218204012Y-83464039D02*
X218204012Y-69264039D01*
X218204012Y-69264039D02*
X232404012Y-69264039D01*
%TO.C,S30*%
X270404012Y-82464039D02*
X256204012Y-82464039D01*
X270404012Y-68264039D02*
X270404012Y-82464039D01*
X256204012Y-82464039D02*
X256204012Y-68264039D01*
X256204012Y-68264039D02*
X270404012Y-68264039D01*
%TO.C,D29*%
X254071275Y-77720408D02*
X254071275Y-73710408D01*
X256071275Y-77720408D02*
X254071275Y-77720408D01*
X256071275Y-77720408D02*
X256071275Y-73710408D01*
%TO.C,D36*%
X197071275Y-103720408D02*
X197071275Y-99710408D01*
X199071275Y-103720408D02*
X197071275Y-103720408D01*
X199071275Y-103720408D02*
X199071275Y-99710408D01*
%TO.C,S19*%
X213404012Y-70464039D02*
X199204012Y-70464039D01*
X213404012Y-56264039D02*
X213404012Y-70464039D01*
X199204012Y-70464039D02*
X199204012Y-56264039D01*
X199204012Y-56264039D02*
X213404012Y-56264039D01*
%TO.C,D35*%
X213369791Y-133646071D02*
X212950632Y-129658038D01*
X215358835Y-133437014D02*
X213369791Y-133646071D01*
X215358835Y-133437014D02*
X214939676Y-129448981D01*
%TO.C,D34*%
X273390100Y-106560130D02*
X273739594Y-102565389D01*
X275382489Y-106734441D02*
X273390100Y-106560130D01*
X275382489Y-106734441D02*
X275731984Y-102739700D01*
%TO.C,D32*%
X276880030Y-68675236D02*
X277229524Y-64680495D01*
X278872419Y-68849547D02*
X276880030Y-68675236D01*
X278872419Y-68849547D02*
X279221914Y-64854806D01*
%TO.C,D31*%
X191883121Y-140592700D02*
X190577593Y-136801171D01*
X193774158Y-139941564D02*
X191883121Y-140592700D01*
X193774158Y-139941564D02*
X192468630Y-136150034D01*
%TO.C,D22*%
X216071275Y-78720408D02*
X216071275Y-74710408D01*
X218071275Y-78720408D02*
X216071275Y-78720408D01*
X218071275Y-78720408D02*
X218071275Y-74710408D01*
%TO.C,S26*%
X251404012Y-77464039D02*
X237204012Y-77464039D01*
X251404012Y-63264039D02*
X251404012Y-77464039D01*
X237204012Y-77464039D02*
X237204012Y-63264039D01*
X237204012Y-63264039D02*
X251404012Y-63264039D01*
%TO.C,S21*%
X213404012Y-108464039D02*
X199204012Y-108464039D01*
X213404012Y-94264039D02*
X213404012Y-108464039D01*
X199204012Y-108464039D02*
X199204012Y-94264039D01*
X199204012Y-94264039D02*
X213404012Y-94264039D01*
%TO.C,S32*%
X208905344Y-139744601D02*
X195478980Y-144367669D01*
X204282276Y-126318237D02*
X208905344Y-139744601D01*
X195478980Y-144367669D02*
X190855912Y-130941305D01*
X190855912Y-130941305D02*
X204282276Y-126318237D01*
%TO.C,D33*%
X275386436Y-87602010D02*
X275735930Y-83607269D01*
X277378825Y-87776321D02*
X275386436Y-87602010D01*
X277378825Y-87776321D02*
X277728320Y-83781580D01*
%TO.C,D21*%
X216071275Y-59724039D02*
X216071275Y-55714039D01*
X218071275Y-59724039D02*
X216071275Y-59724039D01*
X218071275Y-59724039D02*
X218071275Y-55714039D01*
%TO.C,J2*%
X192794024Y-90664960D02*
X195454024Y-90664960D01*
X192794024Y-123664960D02*
X192794024Y-90664960D01*
X192794024Y-123664960D02*
X192794024Y-124994960D01*
X192794024Y-123664960D02*
X195454024Y-123664960D01*
X192794024Y-124994960D02*
X194124024Y-124994960D01*
X195454024Y-123664960D02*
X195454024Y-90664960D01*
%TO.C,S27*%
X251404012Y-96464039D02*
X237204012Y-96464039D01*
X251404012Y-82264039D02*
X251404012Y-96464039D01*
X237204012Y-96464039D02*
X237204012Y-82264039D01*
X237204012Y-82264039D02*
X251404012Y-82264039D01*
%TO.C,D25*%
X235071275Y-72724039D02*
X235071275Y-68714039D01*
X237071275Y-72724039D02*
X235071275Y-72724039D01*
X237071275Y-72724039D02*
X237071275Y-68714039D01*
%TO.C,S35*%
X289545084Y-112731613D02*
X275399119Y-111494002D01*
X290782695Y-98585648D02*
X289545084Y-112731613D01*
X275399119Y-111494002D02*
X276636730Y-97348037D01*
X276636730Y-97348037D02*
X290782695Y-98585648D01*
%TO.C,S20*%
X213404012Y-89464039D02*
X199204012Y-89464039D01*
X213404012Y-75264039D02*
X213404012Y-89464039D01*
X199204012Y-89464039D02*
X199204012Y-75264039D01*
X199204012Y-75264039D02*
X213404012Y-75264039D01*
%TO.C,S29*%
X270404012Y-63464039D02*
X256204012Y-63464039D01*
X270404012Y-49264039D02*
X270404012Y-63464039D01*
X256204012Y-63464039D02*
X256204012Y-49264039D01*
X256204012Y-49264039D02*
X270404012Y-49264039D01*
%TO.C,S33*%
X292810706Y-74827095D02*
X278664741Y-73589484D01*
X294048317Y-60681130D02*
X292810706Y-74827095D01*
X278664741Y-73589484D02*
X279902352Y-59443519D01*
X279902352Y-59443519D02*
X294048317Y-60681130D01*
%TO.C,D27*%
X173809572Y-150806276D02*
X171684595Y-147405603D01*
X173809572Y-150806276D02*
X172113475Y-151866115D01*
X172113475Y-151866115D02*
X169988499Y-148465442D01*
%TO.C,S36*%
X230111336Y-136652572D02*
X215989125Y-138136877D01*
X228627031Y-122530361D02*
X230111336Y-136652572D01*
X215989125Y-138136877D02*
X214504820Y-124014666D01*
X214504820Y-124014666D02*
X228627031Y-122530361D01*
%TO.C,D24*%
X235071275Y-53724039D02*
X235071275Y-49714039D01*
X237071275Y-53724039D02*
X235071275Y-53724039D01*
X237071275Y-53724039D02*
X237071275Y-49714039D01*
%TO.C,D26*%
X235071275Y-91724039D02*
X235071275Y-87714039D01*
X237071275Y-91724039D02*
X235071275Y-91724039D01*
X237071275Y-91724039D02*
X237071275Y-87714039D01*
%TO.C,S24*%
X232404012Y-102464039D02*
X218204012Y-102464039D01*
X232404012Y-88264039D02*
X232404012Y-102464039D01*
X218204012Y-102464039D02*
X218204012Y-88264039D01*
X218204012Y-88264039D02*
X232404012Y-88264039D01*
%TO.C,D30*%
X254071275Y-96724039D02*
X254071275Y-92714039D01*
X256071275Y-96724039D02*
X254071275Y-96724039D01*
X256071275Y-96724039D02*
X256071275Y-92714039D01*
%TD*%
D14*
%TO.C,U2*%
X126420000Y-59030000D03*
X126420000Y-61570000D03*
X126420000Y-64110000D03*
X126420000Y-66650000D03*
X126420000Y-69190000D03*
X126420000Y-71730000D03*
X126420000Y-74270000D03*
X126420000Y-76810000D03*
X126420000Y-79350000D03*
X126420000Y-81890000D03*
X126420000Y-84430000D03*
X126420000Y-86970000D03*
X111180000Y-86970000D03*
X111180000Y-84430000D03*
X111180000Y-81890000D03*
X111180000Y-79350000D03*
X111180000Y-76810000D03*
X111180000Y-74270000D03*
X111180000Y-71730000D03*
X111180000Y-69190000D03*
X111180000Y-66650000D03*
X111180000Y-64110000D03*
X111180000Y-61570000D03*
D15*
X111180000Y-59030000D03*
%TD*%
M02*
