%TF.GenerationSoftware,KiCad,Pcbnew,7.0.7*%
%TF.CreationDate,2023-09-26T18:04:07-06:00*%
%TF.ProjectId,keyboard,6b657962-6f61-4726-942e-6b696361645f,rev?*%
%TF.SameCoordinates,Original*%
%TF.FileFunction,Soldermask,Bot*%
%TF.FilePolarity,Negative*%
%FSLAX46Y46*%
G04 Gerber Fmt 4.6, Leading zero omitted, Abs format (unit mm)*
G04 Created by KiCad (PCBNEW 7.0.7) date 2023-09-26 18:04:07*
%MOMM*%
%LPD*%
G01*
G04 APERTURE LIST*
G04 Aperture macros list*
%AMRoundRect*
0 Rectangle with rounded corners*
0 $1 Rounding radius*
0 $2 $3 $4 $5 $6 $7 $8 $9 X,Y pos of 4 corners*
0 Add a 4 corners polygon primitive as box body*
4,1,4,$2,$3,$4,$5,$6,$7,$8,$9,$2,$3,0*
0 Add four circle primitives for the rounded corners*
1,1,$1+$1,$2,$3*
1,1,$1+$1,$4,$5*
1,1,$1+$1,$6,$7*
1,1,$1+$1,$8,$9*
0 Add four rect primitives between the rounded corners*
20,1,$1+$1,$2,$3,$4,$5,0*
20,1,$1+$1,$4,$5,$6,$7,0*
20,1,$1+$1,$6,$7,$8,$9,0*
20,1,$1+$1,$8,$9,$2,$3,0*%
G04 Aperture macros list end*
%ADD10C,0.500000*%
%ADD11C,2.500000*%
%ADD12C,1.750000*%
%ADD13C,4.000000*%
%ADD14O,1.700000X1.700000*%
%ADD15R,1.700000X1.700000*%
%ADD16C,1.752600*%
%ADD17R,1.752600X1.752600*%
%ADD18C,1.550000*%
%ADD19RoundRect,0.225000X0.375000X-0.225000X0.375000X0.225000X-0.375000X0.225000X-0.375000X-0.225000X0*%
%ADD20RoundRect,0.225000X0.396465X-0.184569X0.349427X0.262966X-0.396465X0.184569X-0.349427X-0.262966X0*%
%ADD21RoundRect,0.225000X0.353963X-0.256827X0.393183X0.191460X-0.353963X0.256827X-0.393183X-0.191460X0*%
%ADD22RoundRect,0.225000X0.427822X-0.090654X0.281317X0.334830X-0.427822X0.090654X-0.281317X-0.334830X0*%
%ADD23RoundRect,0.225000X0.437250X0.007909X0.198786X0.389531X-0.437250X-0.007909X-0.198786X-0.389531X0*%
G04 APERTURE END LIST*
D10*
%TO.C,mouse-bite-3mm-slot*%
X175074512Y-80138480D03*
X178074512Y-80138480D03*
X178074512Y-79388480D03*
X175074512Y-79376480D03*
X175074512Y-78626480D03*
X178074512Y-78626480D03*
X175074512Y-77876480D03*
X178074512Y-77876480D03*
X175074512Y-77102480D03*
X178074512Y-77102480D03*
%TD*%
D11*
%TO.C,S8*%
X64387381Y-65523631D03*
X58037381Y-68063631D03*
D12*
X66927381Y-70603631D03*
D13*
X61847381Y-70603631D03*
D12*
X56767381Y-70603631D03*
%TD*%
D11*
%TO.C,S11*%
X83387381Y-71523631D03*
X77037381Y-74063631D03*
D12*
X85927381Y-76603631D03*
D13*
X80847381Y-76603631D03*
D12*
X75767381Y-76603631D03*
%TD*%
D10*
%TO.C,mouse-bite-3mm-slot*%
X175075000Y-61012000D03*
X178075000Y-61012000D03*
X178075000Y-60262000D03*
X175075000Y-60250000D03*
X175075000Y-59500000D03*
X178075000Y-59500000D03*
X175075000Y-58750000D03*
X178075000Y-58750000D03*
X175075000Y-57976000D03*
X178075000Y-57976000D03*
%TD*%
D11*
%TO.C,S2*%
X23498753Y-80993134D03*
X17394293Y-84076908D03*
D12*
X26471839Y-85832428D03*
D13*
X21411170Y-86275179D03*
D12*
X16350501Y-86717930D03*
%TD*%
D11*
%TO.C,S5*%
X45387381Y-70523631D03*
X39037381Y-73063631D03*
D12*
X47927381Y-75603631D03*
D13*
X42847381Y-75603631D03*
D12*
X37767381Y-75603631D03*
%TD*%
D11*
%TO.C,S6*%
X45387381Y-89523631D03*
X39037381Y-92063631D03*
D12*
X47927381Y-94603631D03*
D13*
X42847381Y-94603631D03*
D12*
X37767381Y-94603631D03*
%TD*%
D10*
%TO.C,mouse-bite-3mm-slot*%
X184125000Y-105897520D03*
X187125000Y-105897520D03*
X187125000Y-105147520D03*
X184125000Y-105135520D03*
X184125000Y-104385520D03*
X187125000Y-104385520D03*
X184125000Y-103635520D03*
X187125000Y-103635520D03*
X184125000Y-102861520D03*
X187125000Y-102861520D03*
%TD*%
%TO.C,mouse-bite-3mm-slot*%
X184125000Y-96385520D03*
X187125000Y-96385520D03*
X187125000Y-95635520D03*
X184125000Y-95623520D03*
X184125000Y-94873520D03*
X187125000Y-94873520D03*
X184125000Y-94123520D03*
X187125000Y-94123520D03*
X184125000Y-93349520D03*
X187125000Y-93349520D03*
%TD*%
%TO.C,mouse-bite-3mm-slot*%
X184125488Y-125000000D03*
X187125488Y-125000000D03*
X187125488Y-124250000D03*
X184125488Y-124238000D03*
X184125488Y-123488000D03*
X187125488Y-123488000D03*
X184125488Y-122738000D03*
X187125488Y-122738000D03*
X184125488Y-121964000D03*
X187125488Y-121964000D03*
%TD*%
D11*
%TO.C,S1*%
X21861476Y-62023369D03*
X15757016Y-65107143D03*
D12*
X24834562Y-66862663D03*
D13*
X19773893Y-67305414D03*
D12*
X14713224Y-67748165D03*
%TD*%
D11*
%TO.C,S7*%
X64387381Y-46523631D03*
X58037381Y-49063631D03*
D12*
X66927381Y-51603631D03*
D13*
X61847381Y-51603631D03*
D12*
X56767381Y-51603631D03*
%TD*%
D11*
%TO.C,S16*%
X86899418Y-125805370D03*
X80318702Y-127667700D03*
D12*
X88894499Y-131123044D03*
D13*
X83842328Y-130592039D03*
D12*
X78790157Y-130061034D03*
%TD*%
D11*
%TO.C,S10*%
X83387381Y-52523631D03*
X77037381Y-55063631D03*
D12*
X85927381Y-57603631D03*
D13*
X80847381Y-57603631D03*
D12*
X75767381Y-57603631D03*
%TD*%
D11*
%TO.C,S18*%
X132322008Y-142372951D03*
X125590908Y-141162005D03*
D12*
X131784060Y-148027030D03*
D13*
X127475976Y-145335040D03*
D12*
X123167892Y-142643050D03*
%TD*%
D11*
%TO.C,S4*%
X45387381Y-51523631D03*
X39037381Y-54063631D03*
D12*
X47927381Y-56603631D03*
D13*
X42847381Y-56603631D03*
D12*
X37767381Y-56603631D03*
%TD*%
D11*
%TO.C,S17*%
X110316455Y-131664894D03*
X103485469Y-131999153D03*
D12*
X111064186Y-137295071D03*
D13*
X106260952Y-135641185D03*
D12*
X101457718Y-133987299D03*
%TD*%
D14*
%TO.C,J1*%
X112000000Y-124000000D03*
X112000000Y-120000000D03*
X112000000Y-116000000D03*
X112000000Y-112000000D03*
X112000000Y-108000000D03*
X112000000Y-104000000D03*
X112000000Y-100000000D03*
X112000000Y-96000000D03*
D15*
X112000000Y-92000000D03*
%TD*%
D11*
%TO.C,S3*%
X25147384Y-99981674D03*
X19042924Y-103065448D03*
D12*
X28120470Y-104820968D03*
D13*
X23059801Y-105263719D03*
D12*
X17999132Y-105706470D03*
%TD*%
D11*
%TO.C,S14*%
X102387381Y-77523631D03*
X96037381Y-80063631D03*
D12*
X104927381Y-82603631D03*
D13*
X99847381Y-82603631D03*
D12*
X94767381Y-82603631D03*
%TD*%
D10*
%TO.C,mouse-bite-3mm-slot*%
X184125488Y-115512000D03*
X187125488Y-115512000D03*
X187125488Y-114762000D03*
X184125488Y-114750000D03*
X184125488Y-114000000D03*
X187125488Y-114000000D03*
X184125488Y-113250000D03*
X187125488Y-113250000D03*
X184125488Y-112476000D03*
X187125488Y-112476000D03*
%TD*%
D16*
%TO.C,U2*%
X126420000Y-59030000D03*
X126420000Y-61570000D03*
X126420000Y-64110000D03*
X126420000Y-66650000D03*
X126420000Y-69190000D03*
X126420000Y-71730000D03*
X126420000Y-74270000D03*
X126420000Y-76810000D03*
X126420000Y-79350000D03*
X126420000Y-81890000D03*
X126420000Y-84430000D03*
X126420000Y-86970000D03*
X111180000Y-86970000D03*
X111180000Y-84430000D03*
X111180000Y-81890000D03*
X111180000Y-79350000D03*
X111180000Y-76810000D03*
X111180000Y-74270000D03*
X111180000Y-71730000D03*
X111180000Y-69190000D03*
X111180000Y-66650000D03*
X111180000Y-64110000D03*
X111180000Y-61570000D03*
D17*
X111180000Y-59030000D03*
%TD*%
D11*
%TO.C,S13*%
X102387381Y-58523631D03*
X96037381Y-61063631D03*
D12*
X104927381Y-63603631D03*
D13*
X99847381Y-63603631D03*
D12*
X94767381Y-63603631D03*
%TD*%
D10*
%TO.C,mouse-bite-3mm-slot*%
X175075000Y-70524000D03*
X178075000Y-70524000D03*
X178075000Y-69774000D03*
X175075000Y-69762000D03*
X175075000Y-69012000D03*
X178075000Y-69012000D03*
X175075000Y-68262000D03*
X178075000Y-68262000D03*
X175075000Y-67488000D03*
X178075000Y-67488000D03*
%TD*%
D11*
%TO.C,S12*%
X83387381Y-90523631D03*
X77037381Y-93063631D03*
D12*
X85927381Y-95603631D03*
D13*
X80847381Y-95603631D03*
D12*
X75767381Y-95603631D03*
%TD*%
D11*
%TO.C,S9*%
X64387381Y-84523631D03*
X58037381Y-87063631D03*
D12*
X66927381Y-89603631D03*
D13*
X61847381Y-89603631D03*
D12*
X56767381Y-89603631D03*
%TD*%
D11*
%TO.C,S15*%
X102387381Y-96523631D03*
X96037381Y-99063631D03*
D12*
X104927381Y-101603631D03*
D13*
X99847381Y-101603631D03*
D12*
X94767381Y-101603631D03*
%TD*%
%TO.C,S31*%
X268384012Y-94364039D03*
D18*
X267114012Y-91824039D03*
D13*
X263304012Y-94364039D03*
D18*
X260764012Y-89284039D03*
D12*
X258224012Y-94364039D03*
%TD*%
%TO.C,S22*%
X230384012Y-57364039D03*
D18*
X229114012Y-54824039D03*
D13*
X225304012Y-57364039D03*
D18*
X222764012Y-52284039D03*
D12*
X220224012Y-57364039D03*
%TD*%
%TO.C,S25*%
X249384012Y-51364039D03*
D18*
X248114012Y-48824039D03*
D13*
X244304012Y-51364039D03*
D18*
X241764012Y-46284039D03*
D12*
X239224012Y-51364039D03*
%TD*%
D19*
%TO.C,D19*%
X198071275Y-65010408D03*
X198071275Y-61710408D03*
%TD*%
D10*
%TO.C,mouse-bite-3mm-slot*%
X131049024Y-67500000D03*
X128049024Y-67500000D03*
X131049024Y-68274000D03*
X128049024Y-68274000D03*
X131049024Y-69024000D03*
X128049024Y-69024000D03*
X131049024Y-69774000D03*
X128049024Y-69786000D03*
X131049024Y-70536000D03*
X128049024Y-70536000D03*
%TD*%
D12*
%TO.C,S28*%
X182956132Y-142308010D03*
D18*
X180533116Y-140826965D03*
D13*
X178648048Y-145000000D03*
D18*
X173802016Y-142037911D03*
D12*
X174339964Y-147691990D03*
%TD*%
%TO.C,S34*%
X289800207Y-86494036D03*
D18*
X288756415Y-83853014D03*
D13*
X284739538Y-86051285D03*
D18*
X282651955Y-80769240D03*
D12*
X279678869Y-85608534D03*
%TD*%
D19*
%TO.C,D23*%
X217071275Y-97014039D03*
X217071275Y-93714039D03*
%TD*%
%TO.C,D28*%
X255071275Y-58010408D03*
X255071275Y-54710408D03*
%TD*%
%TO.C,D20*%
X198071275Y-84010408D03*
X198071275Y-80710408D03*
%TD*%
D12*
%TO.C,S23*%
X230384012Y-76364039D03*
D18*
X229114012Y-73824039D03*
D13*
X225304012Y-76364039D03*
D18*
X222764012Y-71284039D03*
D12*
X220224012Y-76364039D03*
%TD*%
%TO.C,S30*%
X268384012Y-75364039D03*
D18*
X267114012Y-72824039D03*
D13*
X263304012Y-75364039D03*
D18*
X260764012Y-70284039D03*
D12*
X258224012Y-75364039D03*
%TD*%
D19*
%TO.C,D29*%
X255071275Y-77010408D03*
X255071275Y-73710408D03*
%TD*%
%TO.C,D36*%
X198071275Y-103010408D03*
X198071275Y-99710408D03*
%TD*%
D12*
%TO.C,S19*%
X211384012Y-63364039D03*
D18*
X210114012Y-60824039D03*
D13*
X206304012Y-63364039D03*
D18*
X203764012Y-58284039D03*
D12*
X201224012Y-63364039D03*
%TD*%
D20*
%TO.C,D35*%
X214290098Y-132835432D03*
X213945154Y-129553510D03*
%TD*%
D21*
%TO.C,D34*%
X274448175Y-105939987D03*
X274735789Y-102652545D03*
%TD*%
%TO.C,D32*%
X277938105Y-68055093D03*
X278225719Y-64767651D03*
%TD*%
D22*
%TO.C,D31*%
X192597486Y-139595814D03*
X191523112Y-136475602D03*
%TD*%
D19*
%TO.C,D22*%
X217071275Y-78010408D03*
X217071275Y-74710408D03*
%TD*%
D12*
%TO.C,S26*%
X249384012Y-70364039D03*
D18*
X248114012Y-67824039D03*
D13*
X244304012Y-70364039D03*
D18*
X241764012Y-65284039D03*
D12*
X239224012Y-70364039D03*
%TD*%
D10*
%TO.C,mouse-bite-3mm-slot*%
X121999512Y-112476000D03*
X118999512Y-112476000D03*
X121999512Y-113250000D03*
X118999512Y-113250000D03*
X121999512Y-114000000D03*
X118999512Y-114000000D03*
X121999512Y-114750000D03*
X118999512Y-114762000D03*
X121999512Y-115512000D03*
X118999512Y-115512000D03*
%TD*%
%TO.C,mouse-bite-3mm-slot*%
X131048536Y-77114480D03*
X128048536Y-77114480D03*
X131048536Y-77888480D03*
X128048536Y-77888480D03*
X131048536Y-78638480D03*
X128048536Y-78638480D03*
X131048536Y-79388480D03*
X128048536Y-79400480D03*
X131048536Y-80150480D03*
X128048536Y-80150480D03*
%TD*%
D12*
%TO.C,S21*%
X211384012Y-101364039D03*
D18*
X210114012Y-98824039D03*
D13*
X206304012Y-101364039D03*
D18*
X203764012Y-96284039D03*
D12*
X201224012Y-101364039D03*
%TD*%
%TO.C,S32*%
X204683862Y-133689067D03*
D18*
X202656111Y-131700921D03*
D13*
X199880628Y-135342953D03*
D18*
X195825125Y-131366662D03*
D12*
X195077394Y-136996839D03*
%TD*%
D21*
%TO.C,D33*%
X276444511Y-86981867D03*
X276732125Y-83694425D03*
%TD*%
D19*
%TO.C,D21*%
X217071275Y-59014039D03*
X217071275Y-55714039D03*
%TD*%
D15*
%TO.C,J2*%
X194124024Y-123664960D03*
D14*
X194124024Y-119664960D03*
X194124024Y-115664960D03*
X194124024Y-111664960D03*
X194124024Y-107664960D03*
X194124024Y-103664960D03*
X194124024Y-99664960D03*
X194124024Y-95664960D03*
X194124024Y-91664960D03*
%TD*%
D12*
%TO.C,S27*%
X249384012Y-89364039D03*
D18*
X248114012Y-86824039D03*
D13*
X244304012Y-89364039D03*
D18*
X241764012Y-84284039D03*
D12*
X239224012Y-89364039D03*
%TD*%
D19*
%TO.C,D25*%
X236071275Y-72014039D03*
X236071275Y-68714039D03*
%TD*%
D12*
%TO.C,S35*%
X288151576Y-105482576D03*
D18*
X287107784Y-102841554D03*
D13*
X283090907Y-105039825D03*
D18*
X281003324Y-99757780D03*
D12*
X278030238Y-104597074D03*
%TD*%
D10*
%TO.C,mouse-bite-3mm-slot*%
X131049024Y-57988000D03*
X128049024Y-57988000D03*
X131049024Y-58762000D03*
X128049024Y-58762000D03*
X131049024Y-59512000D03*
X128049024Y-59512000D03*
X131049024Y-60262000D03*
X128049024Y-60274000D03*
X131049024Y-61024000D03*
X128049024Y-61024000D03*
%TD*%
D12*
%TO.C,S20*%
X211384012Y-82364039D03*
D18*
X210114012Y-79824039D03*
D13*
X206304012Y-82364039D03*
D18*
X203764012Y-77284039D03*
D12*
X201224012Y-82364039D03*
%TD*%
%TO.C,S29*%
X268384012Y-56364039D03*
D18*
X267114012Y-53824039D03*
D13*
X263304012Y-56364039D03*
D18*
X260764012Y-51284039D03*
D12*
X258224012Y-56364039D03*
%TD*%
D10*
%TO.C,mouse-bite-3mm-slot*%
X121999512Y-121964000D03*
X118999512Y-121964000D03*
X121999512Y-122738000D03*
X118999512Y-122738000D03*
X121999512Y-123488000D03*
X118999512Y-123488000D03*
X121999512Y-124238000D03*
X118999512Y-124250000D03*
X121999512Y-125000000D03*
X118999512Y-125000000D03*
%TD*%
D12*
%TO.C,S33*%
X291417198Y-67578058D03*
D18*
X290373406Y-64937036D03*
D13*
X286356529Y-67135307D03*
D18*
X284268946Y-61853262D03*
D12*
X281295860Y-66692556D03*
%TD*%
D23*
%TO.C,D27*%
X170836547Y-147935523D03*
X172585281Y-150734081D03*
%TD*%
D12*
%TO.C,S36*%
X227360249Y-129802614D03*
D18*
X225831704Y-127409280D03*
D13*
X222308078Y-130333619D03*
D18*
X219250988Y-125546950D03*
D12*
X217255907Y-130864624D03*
%TD*%
D10*
%TO.C,mouse-bite-3mm-slot*%
X122000000Y-93349520D03*
X119000000Y-93349520D03*
X122000000Y-94123520D03*
X119000000Y-94123520D03*
X122000000Y-94873520D03*
X119000000Y-94873520D03*
X122000000Y-95623520D03*
X119000000Y-95635520D03*
X122000000Y-96385520D03*
X119000000Y-96385520D03*
%TD*%
%TO.C,mouse-bite-3mm-slot*%
X122000000Y-102861520D03*
X119000000Y-102861520D03*
X122000000Y-103635520D03*
X119000000Y-103635520D03*
X122000000Y-104385520D03*
X119000000Y-104385520D03*
X122000000Y-105135520D03*
X119000000Y-105147520D03*
X122000000Y-105897520D03*
X119000000Y-105897520D03*
%TD*%
D19*
%TO.C,D24*%
X236071275Y-53014039D03*
X236071275Y-49714039D03*
%TD*%
%TO.C,D26*%
X236071275Y-91014039D03*
X236071275Y-87714039D03*
%TD*%
D12*
%TO.C,S24*%
X230384012Y-95364039D03*
D18*
X229114012Y-92824039D03*
D13*
X225304012Y-95364039D03*
D18*
X222764012Y-90284039D03*
D12*
X220224012Y-95364039D03*
%TD*%
D19*
%TO.C,D30*%
X255071275Y-96014039D03*
X255071275Y-92714039D03*
%TD*%
M02*
