M48
; DRILL file {KiCad 7.0.7} date Tue Sep 26 18:04:09 2023
; FORMAT={-:-/ absolute / metric / decimal}
; #@! TF.CreationDate,2023-09-26T18:04:09-06:00
; #@! TF.GenerationSoftware,Kicad,Pcbnew,7.0.7
; #@! TF.FileFunction,Plated,1,2,PTH
FMAT,2
METRIC
; #@! TA.AperFunction,Plated,PTH,ViaDrill
T1C0.400
; #@! TA.AperFunction,Plated,PTH,ComponentDrill
T2C1.000
; #@! TA.AperFunction,Plated,PTH,ComponentDrill
T3C1.092
; #@! TA.AperFunction,Plated,PTH,ComponentDrill
T4C1.500
%
G90
G05
T1
X66.971Y-64.371
X89.872Y-61.796
X90.721Y-60.446
X107.898Y-65.247
X109.224Y-102.949
X109.971Y-99.196
X113.721Y-83.813
X114.792Y-83.813
X114.874Y-79.479
X115.796Y-92.021
X116.471Y-82.196
X116.521Y-88.196
X116.971Y-83.813
X117.221Y-81.446
X117.471Y-90.446
X118.647Y-87.122
X198.045Y-64.927
X199.295Y-123.531
X200.795Y-118.281
X209.298Y-110.768
X211.032Y-110.768
X225.201Y-106.437
X226.545Y-104.781
X228.045Y-106.281
X229.545Y-104.806
T2
X112.0Y-92.0
X112.0Y-96.0
X112.0Y-100.0
X112.0Y-104.0
X112.0Y-108.0
X112.0Y-112.0
X112.0Y-116.0
X112.0Y-120.0
X112.0Y-124.0
X194.124Y-91.665
X194.124Y-95.665
X194.124Y-99.665
X194.124Y-103.665
X194.124Y-107.665
X194.124Y-111.665
X194.124Y-115.665
X194.124Y-119.665
X194.124Y-123.665
T3
X111.18Y-59.03
X111.18Y-61.57
X111.18Y-64.11
X111.18Y-66.65
X111.18Y-69.19
X111.18Y-71.73
X111.18Y-74.27
X111.18Y-76.81
X111.18Y-79.35
X111.18Y-81.89
X111.18Y-84.43
X111.18Y-86.97
X126.42Y-59.03
X126.42Y-61.57
X126.42Y-64.11
X126.42Y-66.65
X126.42Y-69.19
X126.42Y-71.73
X126.42Y-74.27
X126.42Y-76.81
X126.42Y-79.35
X126.42Y-81.89
X126.42Y-84.43
X126.42Y-86.97
T4
X15.757Y-65.107
X17.394Y-84.077
X19.043Y-103.065
X21.861Y-62.023
X23.499Y-80.993
X25.147Y-99.982
X39.037Y-54.064
X39.037Y-73.064
X39.037Y-92.064
X45.387Y-51.524
X45.387Y-70.524
X45.387Y-89.524
X58.037Y-49.064
X58.037Y-68.064
X58.037Y-87.064
X64.387Y-46.524
X64.387Y-65.524
X64.387Y-84.524
X77.037Y-55.064
X77.037Y-74.064
X77.037Y-93.064
X80.319Y-127.668
X83.387Y-52.524
X83.387Y-71.524
X83.387Y-90.524
X86.899Y-125.805
X96.037Y-61.064
X96.037Y-80.064
X96.037Y-99.064
X102.387Y-58.524
X102.387Y-77.524
X102.387Y-96.524
X103.485Y-131.999
X110.316Y-131.665
X125.591Y-141.162
X132.322Y-142.373
X173.802Y-142.038
X180.533Y-140.827
X195.825Y-131.367
X202.656Y-131.701
X203.764Y-58.284
X203.764Y-77.284
X203.764Y-96.284
X210.114Y-60.824
X210.114Y-79.824
X210.114Y-98.824
X219.251Y-125.547
X222.764Y-52.284
X222.764Y-71.284
X222.764Y-90.284
X225.832Y-127.409
X229.114Y-54.824
X229.114Y-73.824
X229.114Y-92.824
X241.764Y-46.284
X241.764Y-65.284
X241.764Y-84.284
X248.114Y-48.824
X248.114Y-67.824
X248.114Y-86.824
X260.764Y-51.284
X260.764Y-70.284
X260.764Y-89.284
X267.114Y-53.824
X267.114Y-72.824
X267.114Y-91.824
X281.003Y-99.758
X282.652Y-80.769
X284.269Y-61.853
X287.108Y-102.842
X288.756Y-83.853
X290.373Y-64.937
T0
M30
