%TF.GenerationSoftware,KiCad,Pcbnew,7.0.7*%
%TF.CreationDate,2023-09-26T18:04:07-06:00*%
%TF.ProjectId,keyboard,6b657962-6f61-4726-942e-6b696361645f,rev?*%
%TF.SameCoordinates,Original*%
%TF.FileFunction,Copper,L1,Top*%
%TF.FilePolarity,Positive*%
%FSLAX46Y46*%
G04 Gerber Fmt 4.6, Leading zero omitted, Abs format (unit mm)*
G04 Created by KiCad (PCBNEW 7.0.7) date 2023-09-26 18:04:07*
%MOMM*%
%LPD*%
G01*
G04 APERTURE LIST*
G04 Aperture macros list*
%AMRoundRect*
0 Rectangle with rounded corners*
0 $1 Rounding radius*
0 $2 $3 $4 $5 $6 $7 $8 $9 X,Y pos of 4 corners*
0 Add a 4 corners polygon primitive as box body*
4,1,4,$2,$3,$4,$5,$6,$7,$8,$9,$2,$3,0*
0 Add four circle primitives for the rounded corners*
1,1,$1+$1,$2,$3*
1,1,$1+$1,$4,$5*
1,1,$1+$1,$6,$7*
1,1,$1+$1,$8,$9*
0 Add four rect primitives between the rounded corners*
20,1,$1+$1,$2,$3,$4,$5,0*
20,1,$1+$1,$4,$5,$6,$7,0*
20,1,$1+$1,$6,$7,$8,$9,0*
20,1,$1+$1,$8,$9,$2,$3,0*%
G04 Aperture macros list end*
%TA.AperFunction,SMDPad,CuDef*%
%ADD10RoundRect,0.225000X0.375000X-0.225000X0.375000X0.225000X-0.375000X0.225000X-0.375000X-0.225000X0*%
%TD*%
%TA.AperFunction,ComponentPad*%
%ADD11C,2.500000*%
%TD*%
%TA.AperFunction,SMDPad,CuDef*%
%ADD12RoundRect,0.225000X0.393183X-0.191460X0.353963X0.256827X-0.393183X0.191460X-0.353963X-0.256827X0*%
%TD*%
%TA.AperFunction,SMDPad,CuDef*%
%ADD13RoundRect,0.225000X0.349427X-0.262966X0.396465X0.184569X-0.349427X0.262966X-0.396465X-0.184569X0*%
%TD*%
%TA.AperFunction,SMDPad,CuDef*%
%ADD14RoundRect,0.225000X0.281317X-0.334830X0.427822X0.090654X-0.281317X0.334830X-0.427822X-0.090654X0*%
%TD*%
%TA.AperFunction,ComponentPad*%
%ADD15O,1.700000X1.700000*%
%TD*%
%TA.AperFunction,ComponentPad*%
%ADD16R,1.700000X1.700000*%
%TD*%
%TA.AperFunction,ComponentPad*%
%ADD17C,1.752600*%
%TD*%
%TA.AperFunction,ComponentPad*%
%ADD18R,1.752600X1.752600*%
%TD*%
%TA.AperFunction,SMDPad,CuDef*%
%ADD19RoundRect,0.225000X0.198786X-0.389531X0.437250X-0.007909X-0.198786X0.389531X-0.437250X0.007909X0*%
%TD*%
%TA.AperFunction,ViaPad*%
%ADD20C,0.800000*%
%TD*%
%TA.AperFunction,Conductor*%
%ADD21C,0.250000*%
%TD*%
G04 APERTURE END LIST*
D10*
%TO.P,D14,2,A*%
%TO.N,Net-(D14-A)*%
X88900000Y-93953631D03*
%TO.P,D14,1,K*%
%TO.N,R2*%
X88900000Y-97253631D03*
%TD*%
%TO.P,D4,2,A*%
%TO.N,Net-(D4-A)*%
X88900000Y-55953631D03*
%TO.P,D4,1,K*%
%TO.N,R4*%
X88900000Y-59253631D03*
%TD*%
D11*
%TO.P,S8,2,2*%
%TO.N,Net-(D8-A)*%
X64387381Y-65523631D03*
%TO.P,S8,1,1*%
%TO.N,C3*%
X58037381Y-68063631D03*
%TD*%
%TO.P,S11,2,2*%
%TO.N,Net-(D9-A)*%
X83387381Y-71523631D03*
%TO.P,S11,1,1*%
%TO.N,C4*%
X77037381Y-74063631D03*
%TD*%
D12*
%TO.P,D6,2,A*%
%TO.N,Net-(D6-A)*%
X29239150Y-83934017D03*
%TO.P,D6,1,K*%
%TO.N,R3*%
X29526764Y-87221459D03*
%TD*%
D13*
%TO.P,D16,2,A*%
%TO.N,Net-(D16-A)*%
X92026121Y-129793102D03*
%TO.P,D16,1,K*%
%TO.N,R1*%
X91681177Y-133075024D03*
%TD*%
D11*
%TO.P,S2,2,2*%
%TO.N,Net-(D6-A)*%
X23498753Y-80993134D03*
%TO.P,S2,1,1*%
%TO.N,C1*%
X17394293Y-84076908D03*
%TD*%
D10*
%TO.P,D7,2,A*%
%TO.N,Net-(D7-A)*%
X50900000Y-73953631D03*
%TO.P,D7,1,K*%
%TO.N,R3*%
X50900000Y-77253631D03*
%TD*%
D11*
%TO.P,S5,2,2*%
%TO.N,Net-(D7-A)*%
X45387381Y-70523631D03*
%TO.P,S5,1,1*%
%TO.N,C2*%
X39037381Y-73063631D03*
%TD*%
D10*
%TO.P,D13,2,A*%
%TO.N,Net-(D13-A)*%
X69900000Y-87953631D03*
%TO.P,D13,1,K*%
%TO.N,R2*%
X69900000Y-91253631D03*
%TD*%
D12*
%TO.P,D1,2,A*%
%TO.N,Net-(D1-A)*%
X27756193Y-64956279D03*
%TO.P,D1,1,K*%
%TO.N,R4*%
X28043807Y-68243721D03*
%TD*%
D11*
%TO.P,S6,2,2*%
%TO.N,Net-(D12-A)*%
X45387381Y-89523631D03*
%TO.P,S6,1,1*%
%TO.N,C2*%
X39037381Y-92063631D03*
%TD*%
D14*
%TO.P,D17,2,A*%
%TO.N,Net-(D17-A)*%
X114448163Y-136715194D03*
%TO.P,D17,1,K*%
%TO.N,R1*%
X113373789Y-139835406D03*
%TD*%
D10*
%TO.P,D5,2,A*%
%TO.N,Net-(D5-A)*%
X107900000Y-61950000D03*
%TO.P,D5,1,K*%
%TO.N,R4*%
X107900000Y-65250000D03*
%TD*%
D11*
%TO.P,S1,2,2*%
%TO.N,Net-(D1-A)*%
X21861476Y-62023369D03*
%TO.P,S1,1,1*%
%TO.N,C1*%
X15757016Y-65107143D03*
%TD*%
%TO.P,S7,2,2*%
%TO.N,Net-(D3-A)*%
X64387381Y-46523631D03*
%TO.P,S7,1,1*%
%TO.N,C3*%
X58037381Y-49063631D03*
%TD*%
%TO.P,S16,2,2*%
%TO.N,Net-(D16-A)*%
X86899418Y-125805370D03*
%TO.P,S16,1,1*%
%TO.N,C3*%
X80318702Y-127667700D03*
%TD*%
%TO.P,S10,2,2*%
%TO.N,Net-(D4-A)*%
X83387381Y-52523631D03*
%TO.P,S10,1,1*%
%TO.N,C4*%
X77037381Y-55063631D03*
%TD*%
%TO.P,S18,2,2*%
%TO.N,Net-(D18-A)*%
X132322008Y-142372951D03*
%TO.P,S18,1,1*%
%TO.N,C5*%
X125590908Y-141162005D03*
%TD*%
%TO.P,S4,2,2*%
%TO.N,Net-(D2-A)*%
X45387381Y-51523631D03*
%TO.P,S4,1,1*%
%TO.N,C2*%
X39037381Y-54063631D03*
%TD*%
D10*
%TO.P,D15,2,A*%
%TO.N,Net-(D15-A)*%
X107900000Y-99953631D03*
%TO.P,D15,1,K*%
%TO.N,R2*%
X107900000Y-103253631D03*
%TD*%
%TO.P,D10,2,A*%
%TO.N,Net-(D10-A)*%
X108000000Y-81350000D03*
%TO.P,D10,1,K*%
%TO.N,R3*%
X108000000Y-84650000D03*
%TD*%
D11*
%TO.P,S17,2,2*%
%TO.N,Net-(D17-A)*%
X110316455Y-131664894D03*
%TO.P,S17,1,1*%
%TO.N,C4*%
X103485469Y-131999153D03*
%TD*%
D15*
%TO.P,J1,9,Pin_9*%
%TO.N,C10*%
X112000000Y-124000000D03*
%TO.P,J1,8,Pin_8*%
%TO.N,C9*%
X112000000Y-120000000D03*
%TO.P,J1,7,Pin_7*%
%TO.N,C8*%
X112000000Y-116000000D03*
%TO.P,J1,6,Pin_6*%
%TO.N,C7*%
X112000000Y-112000000D03*
%TO.P,J1,5,Pin_5*%
%TO.N,C6*%
X112000000Y-108000000D03*
%TO.P,J1,4,Pin_4*%
%TO.N,R4*%
X112000000Y-104000000D03*
%TO.P,J1,3,Pin_3*%
%TO.N,R3*%
X112000000Y-100000000D03*
%TO.P,J1,2,Pin_2*%
%TO.N,R2*%
X112000000Y-96000000D03*
D16*
%TO.P,J1,1,Pin_1*%
%TO.N,R1*%
X112000000Y-92000000D03*
%TD*%
D10*
%TO.P,D12,2,A*%
%TO.N,Net-(D12-A)*%
X50900000Y-92950000D03*
%TO.P,D12,1,K*%
%TO.N,R2*%
X50900000Y-96250000D03*
%TD*%
%TO.P,D8,2,A*%
%TO.N,Net-(D8-A)*%
X69900000Y-68953631D03*
%TO.P,D8,1,K*%
%TO.N,R3*%
X69900000Y-72253631D03*
%TD*%
D11*
%TO.P,S3,2,2*%
%TO.N,Net-(D11-A)*%
X25147384Y-99981674D03*
%TO.P,S3,1,1*%
%TO.N,C1*%
X19042924Y-103065448D03*
%TD*%
%TO.P,S14,2,2*%
%TO.N,Net-(D10-A)*%
X102387381Y-77523631D03*
%TO.P,S14,1,1*%
%TO.N,C5*%
X96037381Y-80063631D03*
%TD*%
D10*
%TO.P,D2,2,A*%
%TO.N,Net-(D2-A)*%
X50900000Y-54950000D03*
%TO.P,D2,1,K*%
%TO.N,R4*%
X50900000Y-58250000D03*
%TD*%
%TO.P,D9,2,A*%
%TO.N,Net-(D9-A)*%
X88900000Y-74953631D03*
%TO.P,D9,1,K*%
%TO.N,R3*%
X88900000Y-78253631D03*
%TD*%
D17*
%TO.P,U2,24,B0*%
%TO.N,N/C*%
X126420000Y-59030000D03*
%TO.P,U2,23,GND*%
X126420000Y-61570000D03*
%TO.P,U2,22,RST*%
%TO.N,unconnected-(U2-RST-Pad22)*%
X126420000Y-64110000D03*
%TO.P,U2,21,VCC*%
%TO.N,N/C*%
X126420000Y-66650000D03*
%TO.P,U2,20,A3/PF4*%
X126420000Y-69190000D03*
%TO.P,U2,19,A2/PF5*%
X126420000Y-71730000D03*
%TO.P,U2,18,A1/PF6*%
X126420000Y-74270000D03*
%TO.P,U2,17,A0/PF7*%
X126420000Y-76810000D03*
%TO.P,U2,16,15/PB1*%
%TO.N,R4*%
X126420000Y-79350000D03*
%TO.P,U2,15,14/PB3*%
%TO.N,R3*%
X126420000Y-81890000D03*
%TO.P,U2,14,16/PB2*%
%TO.N,R2*%
X126420000Y-84430000D03*
%TO.P,U2,13,10/PB6*%
%TO.N,R1*%
X126420000Y-86970000D03*
%TO.P,U2,12,9/PB5*%
%TO.N,C10*%
X111180000Y-86970000D03*
%TO.P,U2,11,8/PB4*%
%TO.N,C9*%
X111180000Y-84430000D03*
%TO.P,U2,10,7/PE6*%
%TO.N,C8*%
X111180000Y-81890000D03*
%TO.P,U2,9,6/PD7*%
%TO.N,C7*%
X111180000Y-79350000D03*
%TO.P,U2,8,5/PC6*%
%TO.N,C6*%
X111180000Y-76810000D03*
%TO.P,U2,7,4/PD4*%
%TO.N,C5*%
X111180000Y-74270000D03*
%TO.P,U2,6,3/PD0*%
%TO.N,C4*%
X111180000Y-71730000D03*
%TO.P,U2,5,2/PD1*%
%TO.N,C3*%
X111180000Y-69190000D03*
%TO.P,U2,4,GND*%
%TO.N,N/C*%
X111180000Y-66650000D03*
%TO.P,U2,3,GND*%
X111180000Y-64110000D03*
%TO.P,U2,2,RX1/PD2*%
%TO.N,C2*%
X111180000Y-61570000D03*
D18*
%TO.P,U2,1,TX0/PD3*%
%TO.N,C1*%
X111180000Y-59030000D03*
%TD*%
D11*
%TO.P,S13,2,2*%
%TO.N,Net-(D5-A)*%
X102387381Y-58523631D03*
%TO.P,S13,1,1*%
%TO.N,C5*%
X96037381Y-61063631D03*
%TD*%
D19*
%TO.P,D18,2,A*%
%TO.N,Net-(D18-A)*%
X135134728Y-148175115D03*
%TO.P,D18,1,K*%
%TO.N,R1*%
X133385994Y-150973673D03*
%TD*%
D12*
%TO.P,D11,2,A*%
%TO.N,Net-(D11-A)*%
X31235486Y-102892137D03*
%TO.P,D11,1,K*%
%TO.N,R2*%
X31523100Y-106179579D03*
%TD*%
D10*
%TO.P,D3,2,A*%
%TO.N,Net-(D3-A)*%
X69900000Y-49953631D03*
%TO.P,D3,1,K*%
%TO.N,R4*%
X69900000Y-53253631D03*
%TD*%
D11*
%TO.P,S12,2,2*%
%TO.N,Net-(D14-A)*%
X83387381Y-90523631D03*
%TO.P,S12,1,1*%
%TO.N,C4*%
X77037381Y-93063631D03*
%TD*%
%TO.P,S9,2,2*%
%TO.N,Net-(D13-A)*%
X64387381Y-84523631D03*
%TO.P,S9,1,1*%
%TO.N,C3*%
X58037381Y-87063631D03*
%TD*%
%TO.P,S15,2,2*%
%TO.N,Net-(D15-A)*%
X102387381Y-96523631D03*
%TO.P,S15,1,1*%
%TO.N,C5*%
X96037381Y-99063631D03*
%TD*%
%TO.P,S31,1,1*%
%TO.N,C9*%
X267114012Y-91824039D03*
%TO.P,S31,2,2*%
%TO.N,Net-(D30-A)*%
X260764012Y-89284039D03*
%TD*%
%TO.P,S22,1,1*%
%TO.N,C7*%
X229114012Y-54824039D03*
%TO.P,S22,2,2*%
%TO.N,Net-(D21-A)*%
X222764012Y-52284039D03*
%TD*%
%TO.P,S25,1,1*%
%TO.N,C8*%
X248114012Y-48824039D03*
%TO.P,S25,2,2*%
%TO.N,Net-(D24-A)*%
X241764012Y-46284039D03*
%TD*%
%TO.P,S28,1,1*%
%TO.N,C6*%
X180533116Y-140826965D03*
%TO.P,S28,2,2*%
%TO.N,Net-(D27-A)*%
X173802016Y-142037911D03*
%TD*%
%TO.P,S34,1,1*%
%TO.N,C10*%
X288756415Y-83853014D03*
%TO.P,S34,2,2*%
%TO.N,Net-(D33-A)*%
X282651955Y-80769240D03*
%TD*%
%TO.P,S23,1,1*%
%TO.N,C7*%
X229114012Y-73824039D03*
%TO.P,S23,2,2*%
%TO.N,Net-(D22-A)*%
X222764012Y-71284039D03*
%TD*%
%TO.P,S30,1,1*%
%TO.N,C9*%
X267114012Y-72824039D03*
%TO.P,S30,2,2*%
%TO.N,Net-(D29-A)*%
X260764012Y-70284039D03*
%TD*%
%TO.P,S19,1,1*%
%TO.N,C6*%
X210114012Y-60824039D03*
%TO.P,S19,2,2*%
%TO.N,Net-(D19-A)*%
X203764012Y-58284039D03*
%TD*%
%TO.P,S26,1,1*%
%TO.N,C8*%
X248114012Y-67824039D03*
%TO.P,S26,2,2*%
%TO.N,Net-(D25-A)*%
X241764012Y-65284039D03*
%TD*%
%TO.P,S21,1,1*%
%TO.N,C6*%
X210114012Y-98824039D03*
%TO.P,S21,2,2*%
%TO.N,Net-(D36-A)*%
X203764012Y-96284039D03*
%TD*%
%TO.P,S32,1,1*%
%TO.N,C7*%
X202656111Y-131700921D03*
%TO.P,S32,2,2*%
%TO.N,Net-(D31-A)*%
X195825125Y-131366662D03*
%TD*%
D16*
%TO.P,J2,1,Pin_1*%
%TO.N,C10*%
X194124024Y-123664960D03*
D15*
%TO.P,J2,2,Pin_2*%
%TO.N,C9*%
X194124024Y-119664960D03*
%TO.P,J2,3,Pin_3*%
%TO.N,C8*%
X194124024Y-115664960D03*
%TO.P,J2,4,Pin_4*%
%TO.N,C7*%
X194124024Y-111664960D03*
%TO.P,J2,5,Pin_5*%
%TO.N,C6*%
X194124024Y-107664960D03*
%TO.P,J2,6,Pin_6*%
%TO.N,R4*%
X194124024Y-103664960D03*
%TO.P,J2,7,Pin_7*%
%TO.N,R3*%
X194124024Y-99664960D03*
%TO.P,J2,8,Pin_8*%
%TO.N,R2*%
X194124024Y-95664960D03*
%TO.P,J2,9,Pin_9*%
%TO.N,R1*%
X194124024Y-91664960D03*
%TD*%
D11*
%TO.P,S27,1,1*%
%TO.N,C8*%
X248114012Y-86824039D03*
%TO.P,S27,2,2*%
%TO.N,Net-(D26-A)*%
X241764012Y-84284039D03*
%TD*%
%TO.P,S35,1,1*%
%TO.N,C10*%
X287107784Y-102841554D03*
%TO.P,S35,2,2*%
%TO.N,Net-(D34-A)*%
X281003324Y-99757780D03*
%TD*%
%TO.P,S20,1,1*%
%TO.N,C6*%
X210114012Y-79824039D03*
%TO.P,S20,2,2*%
%TO.N,Net-(D20-A)*%
X203764012Y-77284039D03*
%TD*%
%TO.P,S29,1,1*%
%TO.N,C9*%
X267114012Y-53824039D03*
%TO.P,S29,2,2*%
%TO.N,Net-(D28-A)*%
X260764012Y-51284039D03*
%TD*%
%TO.P,S33,1,1*%
%TO.N,C10*%
X290373406Y-64937036D03*
%TO.P,S33,2,2*%
%TO.N,Net-(D32-A)*%
X284268946Y-61853262D03*
%TD*%
%TO.P,S36,1,1*%
%TO.N,C8*%
X225831704Y-127409280D03*
%TO.P,S36,2,2*%
%TO.N,Net-(D35-A)*%
X219250988Y-125546950D03*
%TD*%
%TO.P,S24,1,1*%
%TO.N,C7*%
X229114012Y-92824039D03*
%TO.P,S24,2,2*%
%TO.N,Net-(D23-A)*%
X222764012Y-90284039D03*
%TD*%
D20*
%TO.N,C10*%
X225201005Y-106437058D03*
%TO.N,R4*%
X198044627Y-64927049D03*
%TO.N,C10*%
X228044627Y-106280680D03*
X199294627Y-123530680D03*
%TO.N,C9*%
X229544627Y-104806180D03*
X211032328Y-110768381D03*
X209297508Y-110768381D03*
X226544627Y-104780680D03*
%TO.N,C7*%
X200794627Y-118280680D03*
%TO.N,C1*%
X90721219Y-60446128D03*
X89871846Y-61795501D03*
%TO.N,C3*%
X66971219Y-64370628D03*
%TO.N,C10*%
X117471219Y-90446128D03*
X116520825Y-88196128D03*
%TO.N,R2*%
X109971219Y-99196128D03*
%TO.N,C7*%
X115796325Y-92021234D03*
%TO.N,R1*%
X118646726Y-87121635D03*
%TO.N,R4*%
X107897992Y-65247049D03*
%TO.N,C6*%
X114791879Y-83812849D03*
%TO.N,C7*%
X116971219Y-83812849D03*
X117221219Y-81446128D03*
%TO.N,C6*%
X116471219Y-82196128D03*
%TO.N,R4*%
X113721219Y-83812849D03*
%TO.N,C7*%
X114874057Y-79478516D03*
%TO.N,R1*%
X109224181Y-102949090D03*
%TD*%
D21*
%TO.N,C10*%
X285831137Y-101508196D02*
X277317111Y-101508196D01*
%TO.N,C9*%
X261794627Y-105080680D02*
X261520127Y-104806180D01*
X226544627Y-104780680D02*
X225001005Y-104780680D01*
X209297508Y-110777799D02*
X201519627Y-118555680D01*
%TO.N,C10*%
X273294627Y-105530680D02*
X263794627Y-105530680D01*
X290364992Y-64784192D02*
X288727715Y-66421469D01*
%TO.N,C8*%
X248084627Y-86740680D02*
X248084627Y-89414430D01*
X225803306Y-107495751D02*
X229322008Y-103977049D01*
%TO.N,C9*%
X212838227Y-108962482D02*
X211032328Y-110768381D01*
%TO.N,C10*%
X228794627Y-105530680D02*
X228044627Y-106280680D01*
X225201005Y-106437058D02*
X216388249Y-106437058D01*
X263794627Y-105530680D02*
X228794627Y-105530680D01*
%TO.N,C9*%
X225001005Y-104780680D02*
X223794627Y-105987058D01*
%TO.N,C10*%
X287081136Y-102758195D02*
X285831137Y-101508196D01*
X288727715Y-66421469D02*
X288727715Y-83753957D01*
%TO.N,C9*%
X201519627Y-118555680D02*
X201519627Y-118580985D01*
X213226429Y-108962482D02*
X212838227Y-108962482D01*
X216201853Y-105987058D02*
X213226429Y-108962482D01*
X267084627Y-53740680D02*
X267084627Y-91740680D01*
X200519011Y-119581601D02*
X194097376Y-119581601D01*
X261520127Y-104806180D02*
X229544627Y-104806180D01*
%TO.N,C8*%
X248084627Y-86740680D02*
X248084627Y-48740680D01*
%TO.N,C10*%
X288521507Y-83960165D02*
X288521507Y-101300074D01*
%TO.N,C8*%
X248084627Y-89414430D02*
X233522008Y-103977049D01*
%TO.N,C9*%
X267087364Y-99787943D02*
X261794627Y-105080680D01*
X223794627Y-105987058D02*
X216201853Y-105987058D01*
%TO.N,C10*%
X288521507Y-101300074D02*
X287079084Y-102742497D01*
X216388249Y-106437058D02*
X199294627Y-123530680D01*
%TO.N,C9*%
X209297508Y-110768381D02*
X209297508Y-110777799D01*
X267087364Y-91740680D02*
X267087364Y-99787943D01*
%TO.N,C10*%
X288727715Y-83753957D02*
X288521507Y-83960165D01*
%TO.N,C9*%
X201519627Y-118580985D02*
X200519011Y-119581601D01*
%TO.N,C8*%
X225803306Y-127344749D02*
X225803306Y-107495751D01*
%TO.N,C10*%
X277317111Y-101508196D02*
X273294627Y-105530680D01*
%TO.N,C7*%
X229084627Y-92740680D02*
X229084627Y-103578034D01*
%TO.N,C6*%
X210022008Y-98803299D02*
X210084627Y-98740680D01*
X209971087Y-107581601D02*
X210022008Y-107530680D01*
X180531100Y-140839054D02*
X210022008Y-111348146D01*
%TO.N,C8*%
X233522008Y-103977049D02*
X229322008Y-103977049D01*
%TO.N,C6*%
X194097376Y-107581601D02*
X209971087Y-107581601D01*
%TO.N,C7*%
X229084627Y-103578034D02*
X202636539Y-130026122D01*
%TO.N,C6*%
X210022008Y-111348146D02*
X210022008Y-107530680D01*
%TO.N,C7*%
X202636539Y-130026122D02*
X202636539Y-131676202D01*
X229084627Y-54740680D02*
X229084627Y-92740680D01*
X200794627Y-118278852D02*
X194097376Y-111581601D01*
%TO.N,C6*%
X210022008Y-107530680D02*
X210022008Y-98803299D01*
X210084627Y-98740680D02*
X210084627Y-60740680D01*
%TO.N,C7*%
X200794627Y-118280680D02*
X200794627Y-118278852D01*
%TO.N,R4*%
X194097376Y-103581601D02*
X198044627Y-99634350D01*
X198044627Y-99634350D02*
X198044627Y-64927049D01*
%TO.N,C1*%
X39585309Y-70196128D02*
X41778264Y-68003173D01*
X108847071Y-56696128D02*
X111177992Y-59027049D01*
X94471219Y-56696128D02*
X108847071Y-56696128D01*
X16721219Y-68946128D02*
X17452554Y-69677463D01*
X88471219Y-63196128D02*
X89871846Y-61795501D01*
X41778264Y-68003173D02*
X46585309Y-63196128D01*
X46585309Y-63196128D02*
X69221219Y-63196128D01*
%TO.N,C10*%
X117471219Y-89146522D02*
X116520825Y-88196128D01*
X117471219Y-90446128D02*
X117471219Y-89146522D01*
%TO.N,C1*%
X16721219Y-67838169D02*
X16721219Y-68946128D01*
%TO.N,C7*%
X115253607Y-79478516D02*
X117221219Y-81446128D01*
X115796325Y-92021234D02*
X115796325Y-84987743D01*
%TO.N,C6*%
X116471219Y-82100276D02*
X111177992Y-76807049D01*
X114791879Y-105203162D02*
X114791879Y-83812849D01*
%TO.N,C7*%
X115796325Y-84987743D02*
X116971219Y-83812849D01*
X114874057Y-79478516D02*
X115253607Y-79478516D01*
%TO.N,C6*%
X111997992Y-107997049D02*
X114791879Y-105203162D01*
X116471219Y-82196128D02*
X116471219Y-82100276D01*
%TO.N,R1*%
X113371781Y-139832455D02*
X113371781Y-137833956D01*
%TO.N,Net-(D11-A)*%
X28323015Y-99978723D02*
X31233478Y-102889186D01*
%TO.N,R1*%
X124510048Y-150970722D02*
X133383986Y-150970722D01*
%TO.N,Net-(D13-A)*%
X64385373Y-84470680D02*
X66467992Y-84470680D01*
%TO.N,Net-(D18-A)*%
X132320000Y-142370000D02*
X132320000Y-145359444D01*
X132320000Y-145359444D02*
X135132720Y-148172164D01*
%TO.N,R1*%
X108739447Y-103787042D02*
X109224181Y-103302308D01*
X113371781Y-137833956D02*
X108739447Y-133201622D01*
X91679169Y-133072073D02*
X98439551Y-139832455D01*
X109224181Y-103302308D02*
X109224181Y-102949090D01*
X113371781Y-139832455D02*
X124510048Y-150970722D01*
X108739447Y-133201622D02*
X108739447Y-103787042D01*
%TO.N,Net-(D13-A)*%
X66467992Y-84470680D02*
X69897992Y-87900680D01*
%TO.N,Net-(D12-A)*%
X47471623Y-89470680D02*
X50897992Y-92897049D01*
%TO.N,Net-(D15-A)*%
X104471623Y-96470680D02*
X107897992Y-99897049D01*
%TO.N,Net-(D17-A)*%
X110314447Y-131661943D02*
X114446155Y-135793651D01*
%TO.N,Net-(D15-A)*%
X102385373Y-96470680D02*
X104471623Y-96470680D01*
%TO.N,R1*%
X118646726Y-87121635D02*
X118801312Y-86967049D01*
%TO.N,Net-(D14-A)*%
X85467992Y-90470680D02*
X88897992Y-93900680D01*
%TO.N,Net-(D17-A)*%
X114446155Y-135793651D02*
X114446155Y-136712243D01*
%TO.N,Net-(D16-A)*%
X90885142Y-129790151D02*
X92024113Y-129790151D01*
%TO.N,Net-(D14-A)*%
X83385373Y-90470680D02*
X85467992Y-90470680D01*
%TO.N,Net-(D12-A)*%
X45385373Y-89470680D02*
X47471623Y-89470680D01*
%TO.N,Net-(D16-A)*%
X86897410Y-125802419D02*
X90885142Y-129790151D01*
%TO.N,R1*%
X118801312Y-86967049D02*
X126417992Y-86967049D01*
%TO.N,Net-(D11-A)*%
X25145376Y-99978723D02*
X28323015Y-99978723D01*
%TO.N,R1*%
X98439551Y-139832455D02*
X113371781Y-139832455D01*
%TO.N,R2*%
X88897992Y-97797049D02*
X95076623Y-103975680D01*
%TO.N,R3*%
X88897992Y-78797049D02*
X95076623Y-84975680D01*
X88897992Y-78250680D02*
X88897992Y-78797049D01*
%TO.N,Net-(D8-A)*%
X66567992Y-65870680D02*
X69997992Y-69300680D01*
%TO.N,R3*%
X107669361Y-84975680D02*
X107997992Y-84647049D01*
%TO.N,Net-(D10-A)*%
X102485373Y-77870680D02*
X104571623Y-77870680D01*
%TO.N,R3*%
X107997992Y-84647049D02*
X107997992Y-95997049D01*
X69897992Y-72250680D02*
X69897992Y-72697049D01*
%TO.N,R2*%
X88897992Y-97250680D02*
X88897992Y-97797049D01*
%TO.N,R3*%
X69897992Y-72697049D02*
X76176623Y-78975680D01*
X50897992Y-77250680D02*
X64897992Y-77250680D01*
X40930164Y-87218508D02*
X50897992Y-77250680D01*
%TO.N,R2*%
X109971219Y-101177453D02*
X109971219Y-99196128D01*
X64901623Y-96247049D02*
X69897992Y-91250680D01*
%TO.N,R3*%
X95076623Y-84975680D02*
X107669361Y-84975680D01*
X29524756Y-87218508D02*
X40930164Y-87218508D01*
X107997992Y-84647049D02*
X109556692Y-83088349D01*
%TO.N,R2*%
X107897992Y-103250680D02*
X109971219Y-101177453D01*
%TO.N,R3*%
X88172992Y-78975680D02*
X88897992Y-78250680D01*
%TO.N,R2*%
X50897992Y-96247049D02*
X64901623Y-96247049D01*
%TO.N,Net-(D9-A)*%
X85567992Y-71870680D02*
X88997992Y-75300680D01*
%TO.N,R3*%
X76176623Y-78975680D02*
X88172992Y-78975680D01*
%TO.N,Net-(D5-A)*%
X102385373Y-58520680D02*
X104471623Y-58520680D01*
%TO.N,Net-(D4-A)*%
X85467992Y-52520680D02*
X88897992Y-55950680D01*
%TO.N,R3*%
X107997992Y-95997049D02*
X111997992Y-99997049D01*
%TO.N,R2*%
X95076623Y-103975680D02*
X107172992Y-103975680D01*
%TO.N,R3*%
X125216692Y-83088349D02*
X126417992Y-81887049D01*
%TO.N,R2*%
X107172992Y-103975680D02*
X107897992Y-103250680D01*
%TO.N,Net-(D6-A)*%
X23496745Y-80990183D02*
X26296259Y-80990183D01*
%TO.N,Net-(D8-A)*%
X64485373Y-65870680D02*
X66567992Y-65870680D01*
%TO.N,Net-(D4-A)*%
X83385373Y-52520680D02*
X85467992Y-52520680D01*
%TO.N,Net-(D9-A)*%
X83485373Y-71870680D02*
X85567992Y-71870680D01*
%TO.N,Net-(D3-A)*%
X66467992Y-46520680D02*
X69897992Y-49950680D01*
%TO.N,Net-(D5-A)*%
X104471623Y-58520680D02*
X107897992Y-61947049D01*
%TO.N,R2*%
X69897992Y-91250680D02*
X69897992Y-91697049D01*
%TO.N,Net-(D10-A)*%
X104571623Y-77870680D02*
X107997992Y-81297049D01*
%TO.N,R2*%
X49147992Y-96247049D02*
X50897992Y-96247049D01*
%TO.N,Net-(D7-A)*%
X47571623Y-70870680D02*
X50997992Y-74297049D01*
%TO.N,R2*%
X88172992Y-97975680D02*
X88897992Y-97250680D01*
X31521092Y-106176628D02*
X39218413Y-106176628D01*
X39218413Y-106176628D02*
X49147992Y-96247049D01*
%TO.N,R3*%
X109556692Y-83088349D02*
X125216692Y-83088349D01*
%TO.N,Net-(D3-A)*%
X64385373Y-46520680D02*
X66467992Y-46520680D01*
%TO.N,Net-(D6-A)*%
X26296259Y-80990183D02*
X29237142Y-83931066D01*
%TO.N,R2*%
X76176623Y-97975680D02*
X88172992Y-97975680D01*
%TO.N,Net-(D7-A)*%
X45485373Y-70870680D02*
X47571623Y-70870680D01*
%TO.N,R3*%
X64897992Y-77250680D02*
X69897992Y-72250680D01*
%TO.N,R2*%
X69897992Y-91697049D02*
X76176623Y-97975680D01*
%TO.N,R4*%
X64901623Y-58247049D02*
X69897992Y-53250680D01*
X76124615Y-59975680D02*
X88172992Y-59975680D01*
X69897992Y-53749057D02*
X76124615Y-59975680D01*
X88897992Y-59250680D02*
X88897992Y-59797049D01*
X50897992Y-58247049D02*
X64901623Y-58247049D01*
X113721219Y-84696128D02*
X113721219Y-83812849D01*
X28041799Y-68240770D02*
X40904271Y-68240770D01*
X69897992Y-53250680D02*
X69897992Y-53749057D01*
X40904271Y-68240770D02*
X50897992Y-58247049D01*
X107169361Y-65975680D02*
X107897992Y-65247049D01*
%TO.N,Net-(D2-A)*%
X47471623Y-51520680D02*
X50897992Y-54947049D01*
X45385373Y-51520680D02*
X47471623Y-51520680D01*
%TO.N,Net-(D1-A)*%
X24821275Y-62020418D02*
X27754185Y-64953328D01*
X21859468Y-62020418D02*
X24821275Y-62020418D01*
%TO.N,R4*%
X111997992Y-103997049D02*
X113721219Y-102273822D01*
X113721219Y-102273822D02*
X113721219Y-84696128D01*
X88897992Y-59797049D02*
X95076623Y-65975680D01*
X88172992Y-59975680D02*
X88897992Y-59250680D01*
X95076623Y-65975680D02*
X107169361Y-65975680D01*
%TO.N,C2*%
X108221219Y-66946128D02*
X109221219Y-65946128D01*
%TO.N,C1*%
X69221219Y-63196128D02*
X88471219Y-63196128D01*
%TO.N,C2*%
X94471219Y-66946128D02*
X108221219Y-66946128D01*
X48449925Y-63646128D02*
X91171219Y-63646128D01*
%TO.N,C5*%
X96035373Y-80060680D02*
X101829004Y-74267049D01*
%TO.N,C1*%
X15755008Y-66871958D02*
X16721219Y-67838169D01*
%TO.N,C3*%
X89645719Y-64370628D02*
X94462140Y-69187049D01*
X94462140Y-69187049D02*
X111177992Y-69187049D01*
%TO.N,C1*%
X15755008Y-65104192D02*
X15755008Y-66871958D01*
%TO.N,C4*%
X77035373Y-74060680D02*
X81399925Y-69696128D01*
%TO.N,C1*%
X90721219Y-60446128D02*
X94471219Y-56696128D01*
%TO.N,C2*%
X109221219Y-65946128D02*
X109221219Y-63523822D01*
%TO.N,C5*%
X101829004Y-74267049D02*
X111177992Y-74267049D01*
%TO.N,C4*%
X109147071Y-69696128D02*
X111177992Y-71727049D01*
%TO.N,C3*%
X66971219Y-64370628D02*
X89645719Y-64370628D01*
%TO.N,C2*%
X39035373Y-73060680D02*
X48449925Y-63646128D01*
%TO.N,C1*%
X17452554Y-69677463D02*
X17971219Y-70196128D01*
%TO.N,C2*%
X91171219Y-63646128D02*
X94471219Y-66946128D01*
%TO.N,C1*%
X17971219Y-70196128D02*
X39585309Y-70196128D01*
%TO.N,C4*%
X81399925Y-69696128D02*
X109147071Y-69696128D01*
%TO.N,C2*%
X109221219Y-63523822D02*
X111177992Y-61567049D01*
%TD*%
M02*
