%TF.GenerationSoftware,KiCad,Pcbnew,7.0.7*%
%TF.CreationDate,2023-09-26T18:04:07-06:00*%
%TF.ProjectId,keyboard,6b657962-6f61-4726-942e-6b696361645f,rev?*%
%TF.SameCoordinates,Original*%
%TF.FileFunction,Profile,NP*%
%FSLAX46Y46*%
G04 Gerber Fmt 4.6, Leading zero omitted, Abs format (unit mm)*
G04 Created by KiCad (PCBNEW 7.0.7) date 2023-09-26 18:04:07*
%MOMM*%
%LPD*%
G01*
G04 APERTURE LIST*
%TA.AperFunction,Profile*%
%ADD10C,0.100000*%
%TD*%
G04 APERTURE END LIST*
D10*
X81500000Y-48000000D02*
X90450000Y-48000000D01*
X187124024Y-88264960D02*
X178074024Y-88264960D01*
X272924024Y-46564960D02*
X272924024Y-55864960D01*
X119000000Y-132000000D02*
X124250000Y-132000000D01*
X112700000Y-148500000D02*
X93000000Y-141400000D01*
X165324024Y-141964960D02*
X181874024Y-131664960D01*
X253924024Y-46564960D02*
X272924024Y-46564960D01*
X191174024Y-58664960D02*
X191174024Y-54764960D01*
X215674024Y-53664960D02*
X215674024Y-47664960D01*
X272524024Y-113764960D02*
X292124024Y-115764960D01*
X131049024Y-62512000D02*
X175075000Y-62500000D01*
X178075000Y-66012000D02*
X178075000Y-62500000D01*
X229524024Y-106364960D02*
X232924024Y-138864960D01*
X14000000Y-116100000D02*
X8800000Y-58400000D01*
X119000000Y-90400000D02*
X119000000Y-91873520D01*
X187125000Y-91873520D02*
X187124024Y-88264960D01*
X178074512Y-75626480D02*
X178075000Y-72012000D01*
X272924024Y-55864960D02*
X297324024Y-58064960D01*
X184125488Y-111000000D02*
X121999512Y-111000000D01*
X131048536Y-75638480D02*
X175074512Y-75626480D01*
X234674024Y-47664960D02*
X234674024Y-41614960D01*
X124250000Y-132000000D02*
X140800000Y-142300000D01*
X71450000Y-41950000D02*
X71450000Y-48000000D01*
X187125488Y-120488000D02*
X187125488Y-117000000D01*
X297324024Y-58064960D02*
X292124024Y-115764960D01*
X32900000Y-106700000D02*
X56800000Y-106700000D01*
X122600000Y-59000000D02*
X122600000Y-55100000D01*
X184125000Y-107385520D02*
X121999024Y-107385520D01*
X128049024Y-62512000D02*
X128049024Y-66024000D01*
X183524024Y-54764960D02*
X183524024Y-58664960D01*
X114950000Y-59000000D02*
X122600000Y-59000000D01*
X33600000Y-114100000D02*
X32900000Y-106700000D01*
X109450000Y-54000000D02*
X109450000Y-55100000D01*
X196674024Y-53664960D02*
X215674024Y-53664960D01*
X178074024Y-54764960D02*
X183524024Y-54764960D01*
X131049024Y-72024000D02*
X175075000Y-72012000D01*
X118999512Y-126488000D02*
X119000000Y-132000000D01*
X33200000Y-56200000D02*
X33200000Y-46900000D01*
X215674024Y-47664960D02*
X224624024Y-47664960D01*
X229524024Y-106364960D02*
X249324024Y-106364960D01*
X90450000Y-48000000D02*
X90450000Y-54000000D01*
X128050000Y-88600000D02*
X119000000Y-88600000D01*
X184125488Y-126488000D02*
X121999512Y-126488000D01*
X56800000Y-106700000D02*
X76600000Y-106700000D01*
X14000000Y-116100000D02*
X33600000Y-114100000D01*
X109450000Y-55100000D02*
X114950000Y-55100000D01*
X184125000Y-97873520D02*
X121999024Y-97873520D01*
X193424024Y-148164960D02*
X175824024Y-158564960D01*
X249324024Y-106364960D02*
X273224024Y-106364960D01*
X130300000Y-158900000D02*
X140800000Y-142300000D01*
X184125000Y-101385520D02*
X121999024Y-101385520D01*
X52200000Y-41950000D02*
X71450000Y-41950000D01*
X118999512Y-117000000D02*
X118999512Y-120488000D01*
X119000000Y-97873520D02*
X119000000Y-101385520D01*
X128050000Y-55100000D02*
X128049024Y-56512000D01*
X119000000Y-107385520D02*
X118999512Y-111000000D01*
X187125000Y-101385520D02*
X187125000Y-97873520D01*
X184125488Y-117000000D02*
X121999512Y-117000000D01*
X33200000Y-46900000D02*
X52200000Y-46900000D01*
X181874024Y-131664960D02*
X187124024Y-131664960D01*
X93000000Y-141400000D02*
X73200000Y-139200000D01*
X184125000Y-91873520D02*
X121999024Y-91873520D01*
X213124024Y-141064960D02*
X193424024Y-148164960D01*
X131049024Y-56512000D02*
X175075000Y-56500000D01*
X131049024Y-66024000D02*
X175075000Y-66012000D01*
X224624024Y-47664960D02*
X234674024Y-47664960D01*
X183524024Y-58664960D02*
X191174024Y-58664960D01*
X165324024Y-141964960D02*
X175824024Y-158564960D01*
X130300000Y-158900000D02*
X112700000Y-148500000D01*
X119000000Y-88600000D02*
X119000000Y-90400000D01*
X187125488Y-111000000D02*
X187125000Y-107385520D01*
X196674024Y-54764960D02*
X196674024Y-53664960D01*
X8800000Y-58400000D02*
X33200000Y-56200000D01*
X71450000Y-48000000D02*
X81500000Y-48000000D01*
X128048536Y-81638480D02*
X128050000Y-88600000D01*
X73200000Y-139200000D02*
X76600000Y-106700000D01*
X52200000Y-46900000D02*
X52200000Y-41950000D01*
X187124024Y-131664960D02*
X187125488Y-126488000D01*
X191174024Y-54764960D02*
X196674024Y-54764960D01*
X273224024Y-106364960D02*
X272524024Y-113764960D01*
X178075000Y-56500000D02*
X178074024Y-54764960D01*
X178074024Y-88264960D02*
X178074512Y-81626480D01*
X131048536Y-81638480D02*
X175074512Y-81626480D01*
X232924024Y-138864960D02*
X213124024Y-141064960D01*
X128049024Y-72024000D02*
X128048536Y-75638480D01*
X122600000Y-55100000D02*
X128050000Y-55100000D01*
X184125488Y-120488000D02*
X121999512Y-120488000D01*
X114950000Y-55100000D02*
X114950000Y-59000000D01*
X90450000Y-54000000D02*
X109450000Y-54000000D01*
X234674024Y-41614960D02*
X253924024Y-41614960D01*
X253924024Y-41614960D02*
X253924024Y-46564960D01*
%TO.C,mouse-bite-3mm-slot*%
X178074512Y-81626480D02*
G75*
G03*
X175074512Y-81626480I-1500000J0D01*
G01*
X175074512Y-75626480D02*
G75*
G03*
X178074512Y-75626480I1500000J0D01*
G01*
X178075000Y-62500000D02*
G75*
G03*
X175075000Y-62500000I-1500000J0D01*
G01*
X175075000Y-56500000D02*
G75*
G03*
X178075000Y-56500000I1500000J0D01*
G01*
X187125000Y-107385520D02*
G75*
G03*
X184125000Y-107385520I-1500000J0D01*
G01*
X184125000Y-101385520D02*
G75*
G03*
X187125000Y-101385520I1500000J0D01*
G01*
X187125000Y-97873520D02*
G75*
G03*
X184125000Y-97873520I-1500000J0D01*
G01*
X184125000Y-91873520D02*
G75*
G03*
X187125000Y-91873520I1500000J0D01*
G01*
X187125488Y-126488000D02*
G75*
G03*
X184125488Y-126488000I-1500000J0D01*
G01*
X184125488Y-120488000D02*
G75*
G03*
X187125488Y-120488000I1500000J0D01*
G01*
X187125488Y-117000000D02*
G75*
G03*
X184125488Y-117000000I-1500000J0D01*
G01*
X184125488Y-111000000D02*
G75*
G03*
X187125488Y-111000000I1500000J0D01*
G01*
X178075000Y-72012000D02*
G75*
G03*
X175075000Y-72012000I-1500000J0D01*
G01*
X175075000Y-66012000D02*
G75*
G03*
X178075000Y-66012000I1500000J0D01*
G01*
X128049024Y-66024000D02*
G75*
G03*
X131049024Y-66024000I1500000J0D01*
G01*
X131049024Y-72024000D02*
G75*
G03*
X128049024Y-72024000I-1500000J0D01*
G01*
X118999512Y-111000000D02*
G75*
G03*
X121999512Y-111000000I1500000J0D01*
G01*
X121999512Y-117000000D02*
G75*
G03*
X118999512Y-117000000I-1500000J0D01*
G01*
X128048536Y-75638480D02*
G75*
G03*
X131048536Y-75638480I1500000J0D01*
G01*
X131048536Y-81638480D02*
G75*
G03*
X128048536Y-81638480I-1500000J0D01*
G01*
X128049024Y-56512000D02*
G75*
G03*
X131049024Y-56512000I1500000J0D01*
G01*
X131049024Y-62512000D02*
G75*
G03*
X128049024Y-62512000I-1500000J0D01*
G01*
X118999512Y-120488000D02*
G75*
G03*
X121999512Y-120488000I1500000J0D01*
G01*
X121999512Y-126488000D02*
G75*
G03*
X118999512Y-126488000I-1500000J0D01*
G01*
X119000000Y-91873520D02*
G75*
G03*
X122000000Y-91873520I1500000J0D01*
G01*
X122000000Y-97873520D02*
G75*
G03*
X119000000Y-97873520I-1500000J0D01*
G01*
X119000000Y-101385520D02*
G75*
G03*
X122000000Y-101385520I1500000J0D01*
G01*
X122000000Y-107385520D02*
G75*
G03*
X119000000Y-107385520I-1500000J0D01*
G01*
%TD*%
M02*
