M48
; DRILL file {KiCad 7.0.7} date Tue Sep 26 18:04:09 2023
; FORMAT={-:-/ absolute / metric / decimal}
; #@! TF.CreationDate,2023-09-26T18:04:09-06:00
; #@! TF.GenerationSoftware,Kicad,Pcbnew,7.0.7
; #@! TF.FileFunction,NonPlated,1,2,NPTH
FMAT,2
METRIC
; #@! TA.AperFunction,NonPlated,NPTH,ComponentDrill
T1C0.500
; #@! TA.AperFunction,NonPlated,NPTH,ComponentDrill
T2C1.750
; #@! TA.AperFunction,NonPlated,NPTH,ComponentDrill
T3C4.000
%
G90
G05
T1
X119.0Y-112.476
X119.0Y-113.25
X119.0Y-114.0
X119.0Y-114.762
X119.0Y-115.512
X119.0Y-121.964
X119.0Y-122.738
X119.0Y-123.488
X119.0Y-124.25
X119.0Y-125.0
X119.0Y-93.35
X119.0Y-94.124
X119.0Y-94.874
X119.0Y-95.636
X119.0Y-96.386
X119.0Y-102.862
X119.0Y-103.636
X119.0Y-104.386
X119.0Y-105.148
X119.0Y-105.898
X122.0Y-112.476
X122.0Y-113.25
X122.0Y-114.0
X122.0Y-114.75
X122.0Y-115.512
X122.0Y-121.964
X122.0Y-122.738
X122.0Y-123.488
X122.0Y-124.238
X122.0Y-125.0
X122.0Y-93.35
X122.0Y-94.124
X122.0Y-94.874
X122.0Y-95.624
X122.0Y-96.386
X122.0Y-102.862
X122.0Y-103.636
X122.0Y-104.386
X122.0Y-105.136
X122.0Y-105.898
X128.049Y-77.114
X128.049Y-77.888
X128.049Y-78.638
X128.049Y-79.4
X128.049Y-80.15
X128.049Y-57.988
X128.049Y-58.762
X128.049Y-59.512
X128.049Y-60.274
X128.049Y-61.024
X128.049Y-67.5
X128.049Y-68.274
X128.049Y-69.024
X128.049Y-69.786
X128.049Y-70.536
X131.049Y-77.114
X131.049Y-77.888
X131.049Y-78.638
X131.049Y-79.388
X131.049Y-80.15
X131.049Y-57.988
X131.049Y-58.762
X131.049Y-59.512
X131.049Y-60.262
X131.049Y-61.024
X131.049Y-67.5
X131.049Y-68.274
X131.049Y-69.024
X131.049Y-69.774
X131.049Y-70.536
X175.075Y-77.102
X175.075Y-77.876
X175.075Y-78.626
X175.075Y-79.376
X175.075Y-80.138
X175.075Y-57.976
X175.075Y-58.75
X175.075Y-59.5
X175.075Y-60.25
X175.075Y-61.012
X175.075Y-67.488
X175.075Y-68.262
X175.075Y-69.012
X175.075Y-69.762
X175.075Y-70.524
X178.075Y-77.102
X178.075Y-77.876
X178.075Y-78.626
X178.075Y-79.388
X178.075Y-80.138
X178.075Y-57.976
X178.075Y-58.75
X178.075Y-59.5
X178.075Y-60.262
X178.075Y-61.012
X178.075Y-67.488
X178.075Y-68.262
X178.075Y-69.012
X178.075Y-69.774
X178.075Y-70.524
X184.125Y-93.35
X184.125Y-94.124
X184.125Y-94.874
X184.125Y-95.624
X184.125Y-96.386
X184.125Y-102.862
X184.125Y-103.636
X184.125Y-104.386
X184.125Y-105.136
X184.125Y-105.898
X184.125Y-112.476
X184.125Y-113.25
X184.125Y-114.0
X184.125Y-114.75
X184.125Y-115.512
X184.125Y-121.964
X184.125Y-122.738
X184.125Y-123.488
X184.125Y-124.238
X184.125Y-125.0
X187.125Y-93.35
X187.125Y-94.124
X187.125Y-94.874
X187.125Y-95.636
X187.125Y-96.386
X187.125Y-102.862
X187.125Y-103.636
X187.125Y-104.386
X187.125Y-105.148
X187.125Y-105.898
X187.125Y-112.476
X187.125Y-113.25
X187.125Y-114.0
X187.125Y-114.762
X187.125Y-115.512
X187.125Y-121.964
X187.125Y-122.738
X187.125Y-123.488
X187.125Y-124.25
X187.125Y-125.0
T2
X14.713Y-67.748
X16.351Y-86.718
X17.999Y-105.706
X24.835Y-66.863
X26.472Y-85.832
X28.12Y-104.821
X37.767Y-56.604
X37.767Y-75.604
X37.767Y-94.604
X47.927Y-56.604
X47.927Y-75.604
X47.927Y-94.604
X56.767Y-51.604
X56.767Y-70.604
X56.767Y-89.604
X66.927Y-51.604
X66.927Y-70.604
X66.927Y-89.604
X75.767Y-57.604
X75.767Y-76.604
X75.767Y-95.604
X78.79Y-130.061
X85.927Y-57.604
X85.927Y-76.604
X85.927Y-95.604
X88.894Y-131.123
X94.767Y-63.604
X94.767Y-82.604
X94.767Y-101.604
X101.458Y-133.987
X104.927Y-63.604
X104.927Y-82.604
X104.927Y-101.604
X111.064Y-137.295
X123.168Y-142.643
X131.784Y-148.027
X174.34Y-147.692
X182.956Y-142.308
X195.077Y-136.997
X201.224Y-63.364
X201.224Y-82.364
X201.224Y-101.364
X204.684Y-133.689
X211.384Y-63.364
X211.384Y-82.364
X211.384Y-101.364
X217.256Y-130.865
X220.224Y-57.364
X220.224Y-76.364
X220.224Y-95.364
X227.36Y-129.803
X230.384Y-57.364
X230.384Y-76.364
X230.384Y-95.364
X239.224Y-51.364
X239.224Y-70.364
X239.224Y-89.364
X249.384Y-51.364
X249.384Y-70.364
X249.384Y-89.364
X258.224Y-56.364
X258.224Y-75.364
X258.224Y-94.364
X268.384Y-56.364
X268.384Y-75.364
X268.384Y-94.364
X278.03Y-104.597
X279.679Y-85.609
X281.296Y-66.693
X288.152Y-105.483
X289.8Y-86.494
X291.417Y-67.578
T3
X19.774Y-67.305
X21.411Y-86.275
X23.06Y-105.264
X42.847Y-56.604
X42.847Y-75.604
X42.847Y-94.604
X61.847Y-51.604
X61.847Y-70.604
X61.847Y-89.604
X80.847Y-57.604
X80.847Y-76.604
X80.847Y-95.604
X83.842Y-130.592
X99.847Y-63.604
X99.847Y-82.604
X99.847Y-101.604
X106.261Y-135.641
X127.476Y-145.335
X178.648Y-145.0
X199.881Y-135.343
X206.304Y-63.364
X206.304Y-82.364
X206.304Y-101.364
X222.308Y-130.334
X225.304Y-57.364
X225.304Y-76.364
X225.304Y-95.364
X244.304Y-51.364
X244.304Y-70.364
X244.304Y-89.364
X263.304Y-56.364
X263.304Y-75.364
X263.304Y-94.364
X283.091Y-105.04
X284.74Y-86.051
X286.357Y-67.135
T0
M30
