%TF.GenerationSoftware,KiCad,Pcbnew,7.0.7*%
%TF.CreationDate,2023-09-26T18:04:07-06:00*%
%TF.ProjectId,keyboard,6b657962-6f61-4726-942e-6b696361645f,rev?*%
%TF.SameCoordinates,Original*%
%TF.FileFunction,Copper,L2,Bot*%
%TF.FilePolarity,Positive*%
%FSLAX46Y46*%
G04 Gerber Fmt 4.6, Leading zero omitted, Abs format (unit mm)*
G04 Created by KiCad (PCBNEW 7.0.7) date 2023-09-26 18:04:07*
%MOMM*%
%LPD*%
G01*
G04 APERTURE LIST*
G04 Aperture macros list*
%AMRoundRect*
0 Rectangle with rounded corners*
0 $1 Rounding radius*
0 $2 $3 $4 $5 $6 $7 $8 $9 X,Y pos of 4 corners*
0 Add a 4 corners polygon primitive as box body*
4,1,4,$2,$3,$4,$5,$6,$7,$8,$9,$2,$3,0*
0 Add four circle primitives for the rounded corners*
1,1,$1+$1,$2,$3*
1,1,$1+$1,$4,$5*
1,1,$1+$1,$6,$7*
1,1,$1+$1,$8,$9*
0 Add four rect primitives between the rounded corners*
20,1,$1+$1,$2,$3,$4,$5,0*
20,1,$1+$1,$4,$5,$6,$7,0*
20,1,$1+$1,$6,$7,$8,$9,0*
20,1,$1+$1,$8,$9,$2,$3,0*%
G04 Aperture macros list end*
%TA.AperFunction,ComponentPad*%
%ADD10C,2.500000*%
%TD*%
%TA.AperFunction,ComponentPad*%
%ADD11O,1.700000X1.700000*%
%TD*%
%TA.AperFunction,ComponentPad*%
%ADD12R,1.700000X1.700000*%
%TD*%
%TA.AperFunction,ComponentPad*%
%ADD13C,1.752600*%
%TD*%
%TA.AperFunction,ComponentPad*%
%ADD14R,1.752600X1.752600*%
%TD*%
%TA.AperFunction,SMDPad,CuDef*%
%ADD15RoundRect,0.225000X0.375000X-0.225000X0.375000X0.225000X-0.375000X0.225000X-0.375000X-0.225000X0*%
%TD*%
%TA.AperFunction,SMDPad,CuDef*%
%ADD16RoundRect,0.225000X0.396465X-0.184569X0.349427X0.262966X-0.396465X0.184569X-0.349427X-0.262966X0*%
%TD*%
%TA.AperFunction,SMDPad,CuDef*%
%ADD17RoundRect,0.225000X0.353963X-0.256827X0.393183X0.191460X-0.353963X0.256827X-0.393183X-0.191460X0*%
%TD*%
%TA.AperFunction,SMDPad,CuDef*%
%ADD18RoundRect,0.225000X0.427822X-0.090654X0.281317X0.334830X-0.427822X0.090654X-0.281317X-0.334830X0*%
%TD*%
%TA.AperFunction,SMDPad,CuDef*%
%ADD19RoundRect,0.225000X0.437250X0.007909X0.198786X0.389531X-0.437250X-0.007909X-0.198786X-0.389531X0*%
%TD*%
%TA.AperFunction,ViaPad*%
%ADD20C,0.800000*%
%TD*%
%TA.AperFunction,Conductor*%
%ADD21C,0.250000*%
%TD*%
G04 APERTURE END LIST*
D10*
%TO.P,S8,2,2*%
%TO.N,Net-(D8-A)*%
X64387381Y-65523631D03*
%TO.P,S8,1,1*%
%TO.N,C3*%
X58037381Y-68063631D03*
%TD*%
%TO.P,S11,2,2*%
%TO.N,Net-(D9-A)*%
X83387381Y-71523631D03*
%TO.P,S11,1,1*%
%TO.N,C4*%
X77037381Y-74063631D03*
%TD*%
%TO.P,S2,2,2*%
%TO.N,Net-(D6-A)*%
X23498753Y-80993134D03*
%TO.P,S2,1,1*%
%TO.N,C1*%
X17394293Y-84076908D03*
%TD*%
%TO.P,S5,2,2*%
%TO.N,Net-(D7-A)*%
X45387381Y-70523631D03*
%TO.P,S5,1,1*%
%TO.N,C2*%
X39037381Y-73063631D03*
%TD*%
%TO.P,S6,2,2*%
%TO.N,Net-(D12-A)*%
X45387381Y-89523631D03*
%TO.P,S6,1,1*%
%TO.N,C2*%
X39037381Y-92063631D03*
%TD*%
%TO.P,S1,2,2*%
%TO.N,Net-(D1-A)*%
X21861476Y-62023369D03*
%TO.P,S1,1,1*%
%TO.N,C1*%
X15757016Y-65107143D03*
%TD*%
%TO.P,S7,2,2*%
%TO.N,Net-(D3-A)*%
X64387381Y-46523631D03*
%TO.P,S7,1,1*%
%TO.N,C3*%
X58037381Y-49063631D03*
%TD*%
%TO.P,S16,2,2*%
%TO.N,Net-(D16-A)*%
X86899418Y-125805370D03*
%TO.P,S16,1,1*%
%TO.N,C3*%
X80318702Y-127667700D03*
%TD*%
%TO.P,S10,2,2*%
%TO.N,Net-(D4-A)*%
X83387381Y-52523631D03*
%TO.P,S10,1,1*%
%TO.N,C4*%
X77037381Y-55063631D03*
%TD*%
%TO.P,S18,2,2*%
%TO.N,Net-(D18-A)*%
X132322008Y-142372951D03*
%TO.P,S18,1,1*%
%TO.N,C5*%
X125590908Y-141162005D03*
%TD*%
%TO.P,S4,2,2*%
%TO.N,Net-(D2-A)*%
X45387381Y-51523631D03*
%TO.P,S4,1,1*%
%TO.N,C2*%
X39037381Y-54063631D03*
%TD*%
%TO.P,S17,2,2*%
%TO.N,Net-(D17-A)*%
X110316455Y-131664894D03*
%TO.P,S17,1,1*%
%TO.N,C4*%
X103485469Y-131999153D03*
%TD*%
D11*
%TO.P,J1,9,Pin_9*%
%TO.N,C10*%
X112000000Y-124000000D03*
%TO.P,J1,8,Pin_8*%
%TO.N,C9*%
X112000000Y-120000000D03*
%TO.P,J1,7,Pin_7*%
%TO.N,C8*%
X112000000Y-116000000D03*
%TO.P,J1,6,Pin_6*%
%TO.N,C7*%
X112000000Y-112000000D03*
%TO.P,J1,5,Pin_5*%
%TO.N,C6*%
X112000000Y-108000000D03*
%TO.P,J1,4,Pin_4*%
%TO.N,R4*%
X112000000Y-104000000D03*
%TO.P,J1,3,Pin_3*%
%TO.N,R3*%
X112000000Y-100000000D03*
%TO.P,J1,2,Pin_2*%
%TO.N,R2*%
X112000000Y-96000000D03*
D12*
%TO.P,J1,1,Pin_1*%
%TO.N,R1*%
X112000000Y-92000000D03*
%TD*%
D10*
%TO.P,S3,2,2*%
%TO.N,Net-(D11-A)*%
X25147384Y-99981674D03*
%TO.P,S3,1,1*%
%TO.N,C1*%
X19042924Y-103065448D03*
%TD*%
%TO.P,S14,2,2*%
%TO.N,Net-(D10-A)*%
X102387381Y-77523631D03*
%TO.P,S14,1,1*%
%TO.N,C5*%
X96037381Y-80063631D03*
%TD*%
D13*
%TO.P,U2,24,B0*%
%TO.N,N/C*%
X126420000Y-59030000D03*
%TO.P,U2,23,GND*%
X126420000Y-61570000D03*
%TO.P,U2,22,RST*%
%TO.N,unconnected-(U2-RST-Pad22)*%
X126420000Y-64110000D03*
%TO.P,U2,21,VCC*%
%TO.N,N/C*%
X126420000Y-66650000D03*
%TO.P,U2,20,A3/PF4*%
X126420000Y-69190000D03*
%TO.P,U2,19,A2/PF5*%
X126420000Y-71730000D03*
%TO.P,U2,18,A1/PF6*%
X126420000Y-74270000D03*
%TO.P,U2,17,A0/PF7*%
X126420000Y-76810000D03*
%TO.P,U2,16,15/PB1*%
%TO.N,R4*%
X126420000Y-79350000D03*
%TO.P,U2,15,14/PB3*%
%TO.N,R3*%
X126420000Y-81890000D03*
%TO.P,U2,14,16/PB2*%
%TO.N,R2*%
X126420000Y-84430000D03*
%TO.P,U2,13,10/PB6*%
%TO.N,R1*%
X126420000Y-86970000D03*
%TO.P,U2,12,9/PB5*%
%TO.N,C10*%
X111180000Y-86970000D03*
%TO.P,U2,11,8/PB4*%
%TO.N,C9*%
X111180000Y-84430000D03*
%TO.P,U2,10,7/PE6*%
%TO.N,C8*%
X111180000Y-81890000D03*
%TO.P,U2,9,6/PD7*%
%TO.N,C7*%
X111180000Y-79350000D03*
%TO.P,U2,8,5/PC6*%
%TO.N,C6*%
X111180000Y-76810000D03*
%TO.P,U2,7,4/PD4*%
%TO.N,C5*%
X111180000Y-74270000D03*
%TO.P,U2,6,3/PD0*%
%TO.N,C4*%
X111180000Y-71730000D03*
%TO.P,U2,5,2/PD1*%
%TO.N,C3*%
X111180000Y-69190000D03*
%TO.P,U2,4,GND*%
%TO.N,N/C*%
X111180000Y-66650000D03*
%TO.P,U2,3,GND*%
X111180000Y-64110000D03*
%TO.P,U2,2,RX1/PD2*%
%TO.N,C2*%
X111180000Y-61570000D03*
D14*
%TO.P,U2,1,TX0/PD3*%
%TO.N,C1*%
X111180000Y-59030000D03*
%TD*%
D10*
%TO.P,S13,2,2*%
%TO.N,Net-(D5-A)*%
X102387381Y-58523631D03*
%TO.P,S13,1,1*%
%TO.N,C5*%
X96037381Y-61063631D03*
%TD*%
%TO.P,S12,2,2*%
%TO.N,Net-(D14-A)*%
X83387381Y-90523631D03*
%TO.P,S12,1,1*%
%TO.N,C4*%
X77037381Y-93063631D03*
%TD*%
%TO.P,S9,2,2*%
%TO.N,Net-(D13-A)*%
X64387381Y-84523631D03*
%TO.P,S9,1,1*%
%TO.N,C3*%
X58037381Y-87063631D03*
%TD*%
%TO.P,S15,2,2*%
%TO.N,Net-(D15-A)*%
X102387381Y-96523631D03*
%TO.P,S15,1,1*%
%TO.N,C5*%
X96037381Y-99063631D03*
%TD*%
%TO.P,S31,1,1*%
%TO.N,C9*%
X267114012Y-91824039D03*
%TO.P,S31,2,2*%
%TO.N,Net-(D30-A)*%
X260764012Y-89284039D03*
%TD*%
%TO.P,S22,1,1*%
%TO.N,C7*%
X229114012Y-54824039D03*
%TO.P,S22,2,2*%
%TO.N,Net-(D21-A)*%
X222764012Y-52284039D03*
%TD*%
%TO.P,S25,1,1*%
%TO.N,C8*%
X248114012Y-48824039D03*
%TO.P,S25,2,2*%
%TO.N,Net-(D24-A)*%
X241764012Y-46284039D03*
%TD*%
D15*
%TO.P,D19,1,K*%
%TO.N,R4*%
X198071275Y-65010408D03*
%TO.P,D19,2,A*%
%TO.N,Net-(D19-A)*%
X198071275Y-61710408D03*
%TD*%
D10*
%TO.P,S28,1,1*%
%TO.N,C6*%
X180533116Y-140826965D03*
%TO.P,S28,2,2*%
%TO.N,Net-(D27-A)*%
X173802016Y-142037911D03*
%TD*%
%TO.P,S34,1,1*%
%TO.N,C10*%
X288756415Y-83853014D03*
%TO.P,S34,2,2*%
%TO.N,Net-(D33-A)*%
X282651955Y-80769240D03*
%TD*%
D15*
%TO.P,D23,1,K*%
%TO.N,R2*%
X217071275Y-97014039D03*
%TO.P,D23,2,A*%
%TO.N,Net-(D23-A)*%
X217071275Y-93714039D03*
%TD*%
%TO.P,D28,1,K*%
%TO.N,R4*%
X255071275Y-58010408D03*
%TO.P,D28,2,A*%
%TO.N,Net-(D28-A)*%
X255071275Y-54710408D03*
%TD*%
%TO.P,D20,1,K*%
%TO.N,R3*%
X198071275Y-84010408D03*
%TO.P,D20,2,A*%
%TO.N,Net-(D20-A)*%
X198071275Y-80710408D03*
%TD*%
D10*
%TO.P,S23,1,1*%
%TO.N,C7*%
X229114012Y-73824039D03*
%TO.P,S23,2,2*%
%TO.N,Net-(D22-A)*%
X222764012Y-71284039D03*
%TD*%
%TO.P,S30,1,1*%
%TO.N,C9*%
X267114012Y-72824039D03*
%TO.P,S30,2,2*%
%TO.N,Net-(D29-A)*%
X260764012Y-70284039D03*
%TD*%
D15*
%TO.P,D29,1,K*%
%TO.N,R3*%
X255071275Y-77010408D03*
%TO.P,D29,2,A*%
%TO.N,Net-(D29-A)*%
X255071275Y-73710408D03*
%TD*%
%TO.P,D36,1,K*%
%TO.N,R2*%
X198071275Y-103010408D03*
%TO.P,D36,2,A*%
%TO.N,Net-(D36-A)*%
X198071275Y-99710408D03*
%TD*%
D10*
%TO.P,S19,1,1*%
%TO.N,C6*%
X210114012Y-60824039D03*
%TO.P,S19,2,2*%
%TO.N,Net-(D19-A)*%
X203764012Y-58284039D03*
%TD*%
D16*
%TO.P,D35,1,K*%
%TO.N,R1*%
X214290098Y-132835432D03*
%TO.P,D35,2,A*%
%TO.N,Net-(D35-A)*%
X213945154Y-129553510D03*
%TD*%
D17*
%TO.P,D34,1,K*%
%TO.N,R2*%
X274448175Y-105939987D03*
%TO.P,D34,2,A*%
%TO.N,Net-(D34-A)*%
X274735789Y-102652545D03*
%TD*%
%TO.P,D32,1,K*%
%TO.N,R4*%
X277938105Y-68055093D03*
%TO.P,D32,2,A*%
%TO.N,Net-(D32-A)*%
X278225719Y-64767651D03*
%TD*%
D18*
%TO.P,D31,1,K*%
%TO.N,R1*%
X192597486Y-139595814D03*
%TO.P,D31,2,A*%
%TO.N,Net-(D31-A)*%
X191523112Y-136475602D03*
%TD*%
D15*
%TO.P,D22,1,K*%
%TO.N,R3*%
X217071275Y-78010408D03*
%TO.P,D22,2,A*%
%TO.N,Net-(D22-A)*%
X217071275Y-74710408D03*
%TD*%
D10*
%TO.P,S26,1,1*%
%TO.N,C8*%
X248114012Y-67824039D03*
%TO.P,S26,2,2*%
%TO.N,Net-(D25-A)*%
X241764012Y-65284039D03*
%TD*%
%TO.P,S21,1,1*%
%TO.N,C6*%
X210114012Y-98824039D03*
%TO.P,S21,2,2*%
%TO.N,Net-(D36-A)*%
X203764012Y-96284039D03*
%TD*%
%TO.P,S32,1,1*%
%TO.N,C7*%
X202656111Y-131700921D03*
%TO.P,S32,2,2*%
%TO.N,Net-(D31-A)*%
X195825125Y-131366662D03*
%TD*%
D17*
%TO.P,D33,1,K*%
%TO.N,R3*%
X276444511Y-86981867D03*
%TO.P,D33,2,A*%
%TO.N,Net-(D33-A)*%
X276732125Y-83694425D03*
%TD*%
D15*
%TO.P,D21,1,K*%
%TO.N,R4*%
X217071275Y-59014039D03*
%TO.P,D21,2,A*%
%TO.N,Net-(D21-A)*%
X217071275Y-55714039D03*
%TD*%
D12*
%TO.P,J2,1,Pin_1*%
%TO.N,C10*%
X194124024Y-123664960D03*
D11*
%TO.P,J2,2,Pin_2*%
%TO.N,C9*%
X194124024Y-119664960D03*
%TO.P,J2,3,Pin_3*%
%TO.N,C8*%
X194124024Y-115664960D03*
%TO.P,J2,4,Pin_4*%
%TO.N,C7*%
X194124024Y-111664960D03*
%TO.P,J2,5,Pin_5*%
%TO.N,C6*%
X194124024Y-107664960D03*
%TO.P,J2,6,Pin_6*%
%TO.N,R4*%
X194124024Y-103664960D03*
%TO.P,J2,7,Pin_7*%
%TO.N,R3*%
X194124024Y-99664960D03*
%TO.P,J2,8,Pin_8*%
%TO.N,R2*%
X194124024Y-95664960D03*
%TO.P,J2,9,Pin_9*%
%TO.N,R1*%
X194124024Y-91664960D03*
%TD*%
D10*
%TO.P,S27,1,1*%
%TO.N,C8*%
X248114012Y-86824039D03*
%TO.P,S27,2,2*%
%TO.N,Net-(D26-A)*%
X241764012Y-84284039D03*
%TD*%
D15*
%TO.P,D25,1,K*%
%TO.N,R3*%
X236071275Y-72014039D03*
%TO.P,D25,2,A*%
%TO.N,Net-(D25-A)*%
X236071275Y-68714039D03*
%TD*%
D10*
%TO.P,S35,1,1*%
%TO.N,C10*%
X287107784Y-102841554D03*
%TO.P,S35,2,2*%
%TO.N,Net-(D34-A)*%
X281003324Y-99757780D03*
%TD*%
%TO.P,S20,1,1*%
%TO.N,C6*%
X210114012Y-79824039D03*
%TO.P,S20,2,2*%
%TO.N,Net-(D20-A)*%
X203764012Y-77284039D03*
%TD*%
%TO.P,S29,1,1*%
%TO.N,C9*%
X267114012Y-53824039D03*
%TO.P,S29,2,2*%
%TO.N,Net-(D28-A)*%
X260764012Y-51284039D03*
%TD*%
%TO.P,S33,1,1*%
%TO.N,C10*%
X290373406Y-64937036D03*
%TO.P,S33,2,2*%
%TO.N,Net-(D32-A)*%
X284268946Y-61853262D03*
%TD*%
D19*
%TO.P,D27,2,A*%
%TO.N,Net-(D27-A)*%
X170836547Y-147935523D03*
%TO.P,D27,1,K*%
%TO.N,R1*%
X172585281Y-150734081D03*
%TD*%
D10*
%TO.P,S36,1,1*%
%TO.N,C8*%
X225831704Y-127409280D03*
%TO.P,S36,2,2*%
%TO.N,Net-(D35-A)*%
X219250988Y-125546950D03*
%TD*%
D15*
%TO.P,D24,1,K*%
%TO.N,R4*%
X236071275Y-53014039D03*
%TO.P,D24,2,A*%
%TO.N,Net-(D24-A)*%
X236071275Y-49714039D03*
%TD*%
%TO.P,D26,1,K*%
%TO.N,R2*%
X236071275Y-91014039D03*
%TO.P,D26,2,A*%
%TO.N,Net-(D26-A)*%
X236071275Y-87714039D03*
%TD*%
D10*
%TO.P,S24,1,1*%
%TO.N,C7*%
X229114012Y-92824039D03*
%TO.P,S24,2,2*%
%TO.N,Net-(D23-A)*%
X222764012Y-90284039D03*
%TD*%
D15*
%TO.P,D30,1,K*%
%TO.N,R2*%
X255071275Y-96014039D03*
%TO.P,D30,2,A*%
%TO.N,Net-(D30-A)*%
X255071275Y-92714039D03*
%TD*%
D20*
%TO.N,C10*%
X225201005Y-106437058D03*
%TO.N,R4*%
X198044627Y-64927049D03*
%TO.N,C10*%
X228044627Y-106280680D03*
X199294627Y-123530680D03*
%TO.N,C9*%
X229544627Y-104806180D03*
X211032328Y-110768381D03*
X209297508Y-110768381D03*
X226544627Y-104780680D03*
%TO.N,C7*%
X200794627Y-118280680D03*
%TO.N,C1*%
X90721219Y-60446128D03*
X89871846Y-61795501D03*
%TO.N,C3*%
X66971219Y-64370628D03*
%TO.N,C10*%
X117471219Y-90446128D03*
X116520825Y-88196128D03*
%TO.N,R2*%
X109971219Y-99196128D03*
%TO.N,C7*%
X115796325Y-92021234D03*
%TO.N,R1*%
X118646726Y-87121635D03*
%TO.N,R4*%
X107897992Y-65247049D03*
%TO.N,C6*%
X114791879Y-83812849D03*
%TO.N,C7*%
X116971219Y-83812849D03*
X117221219Y-81446128D03*
%TO.N,C6*%
X116471219Y-82196128D03*
%TO.N,R4*%
X113721219Y-83812849D03*
%TO.N,C7*%
X114874057Y-79478516D03*
%TO.N,R1*%
X109224181Y-102949090D03*
%TD*%
D21*
%TO.N,C10*%
X228044627Y-106280680D02*
X225357383Y-106280680D01*
X199294627Y-123530680D02*
X199243706Y-123581601D01*
X199243706Y-123581601D02*
X194097376Y-123581601D01*
%TO.N,C8*%
X214060736Y-115581601D02*
X225805056Y-127325921D01*
X194097376Y-115581601D02*
X214060736Y-115581601D01*
%TO.N,C10*%
X225357383Y-106280680D02*
X225201005Y-106437058D01*
%TO.N,C9*%
X209297508Y-110768381D02*
X211032328Y-110768381D01*
X226570127Y-104806180D02*
X226544627Y-104780680D01*
X229544627Y-104806180D02*
X226570127Y-104806180D01*
%TO.N,Net-(D26-A)*%
X239652008Y-84150680D02*
X236222008Y-87580680D01*
%TO.N,Net-(D34-A)*%
X280974624Y-99658723D02*
X277796985Y-99658723D01*
%TO.N,Net-(D27-A)*%
X173820000Y-142070000D02*
X173820000Y-145059444D01*
%TO.N,Net-(D31-A)*%
X191673845Y-135473651D02*
X191673845Y-136392243D01*
%TO.N,Net-(D21-A)*%
X222734627Y-52200680D02*
X220652008Y-52200680D01*
%TO.N,C7*%
X202629463Y-120115516D02*
X202629463Y-131617562D01*
%TO.N,Net-(D30-A)*%
X258648377Y-89150680D02*
X255222008Y-92577049D01*
%TO.N,Net-(D36-A)*%
X203734627Y-96150680D02*
X201648377Y-96150680D01*
%TO.N,Net-(D24-A)*%
X241734627Y-46200680D02*
X239652008Y-46200680D01*
%TO.N,Net-(D23-A)*%
X222734627Y-90150680D02*
X220652008Y-90150680D01*
%TO.N,Net-(D25-A)*%
X239552008Y-65550680D02*
X236122008Y-68980680D01*
X241634627Y-65550680D02*
X239552008Y-65550680D01*
%TO.N,Net-(D35-A)*%
X219222590Y-125482419D02*
X215234858Y-129470151D01*
%TO.N,Net-(D33-A)*%
X279823741Y-80670183D02*
X276882858Y-83611066D01*
%TO.N,Net-(D29-A)*%
X260634627Y-70550680D02*
X258548377Y-70550680D01*
%TO.N,Net-(D32-A)*%
X284260532Y-61700418D02*
X281298725Y-61700418D01*
%TO.N,Net-(D24-A)*%
X239652008Y-46200680D02*
X236222008Y-49630680D01*
%TO.N,Net-(D30-A)*%
X260734627Y-89150680D02*
X258648377Y-89150680D01*
%TO.N,Net-(D21-A)*%
X220652008Y-52200680D02*
X217222008Y-55630680D01*
%TO.N,Net-(D35-A)*%
X215234858Y-129470151D02*
X214095887Y-129470151D01*
%TO.N,Net-(D27-A)*%
X173820000Y-145059444D02*
X171007280Y-147872164D01*
%TO.N,Net-(D33-A)*%
X282623255Y-80670183D02*
X279823741Y-80670183D01*
%TO.N,C7*%
X200794627Y-118280680D02*
X202629463Y-120115516D01*
%TO.N,Net-(D29-A)*%
X258548377Y-70550680D02*
X255122008Y-73977049D01*
%TO.N,Net-(D26-A)*%
X241734627Y-84150680D02*
X239652008Y-84150680D01*
%TO.N,Net-(D34-A)*%
X277796985Y-99658723D02*
X274886522Y-102569186D01*
%TO.N,Net-(D23-A)*%
X220652008Y-90150680D02*
X217222008Y-93580680D01*
%TO.N,Net-(D22-A)*%
X222634627Y-71550680D02*
X220552008Y-71550680D01*
%TO.N,Net-(D32-A)*%
X281298725Y-61700418D02*
X278365815Y-64633328D01*
%TO.N,Net-(D31-A)*%
X195805553Y-131341943D02*
X191673845Y-135473651D01*
%TO.N,Net-(D28-A)*%
X260734627Y-51200680D02*
X258648377Y-51200680D01*
%TO.N,Net-(D22-A)*%
X220552008Y-71550680D02*
X217122008Y-74980680D01*
%TO.N,Net-(D28-A)*%
X258648377Y-51200680D02*
X255222008Y-54627049D01*
%TO.N,Net-(D36-A)*%
X201648377Y-96150680D02*
X198222008Y-99577049D01*
%TO.N,R2*%
X274598908Y-105856628D02*
X266901587Y-105856628D01*
X217947008Y-97655680D02*
X217222008Y-96930680D01*
X196544627Y-105280680D02*
X198044627Y-103780680D01*
%TO.N,R1*%
X187794627Y-134736244D02*
X187794627Y-97884350D01*
%TO.N,R2*%
X198947008Y-103655680D02*
X198222008Y-102930680D01*
X256972008Y-95927049D02*
X255222008Y-95927049D01*
X194097376Y-95581601D02*
X192294627Y-97384350D01*
X255222008Y-95927049D02*
X241218377Y-95927049D01*
%TO.N,R1*%
X214440831Y-132752073D02*
X207680449Y-139512455D01*
%TO.N,R2*%
X211043377Y-103655680D02*
X198947008Y-103655680D01*
%TO.N,Net-(D20-A)*%
X203634627Y-77550680D02*
X201548377Y-77550680D01*
%TO.N,R1*%
X192570838Y-139512455D02*
X187794627Y-134736244D01*
%TO.N,Net-(D20-A)*%
X201548377Y-77550680D02*
X198122008Y-80977049D01*
%TO.N,R1*%
X181609952Y-150650722D02*
X172736014Y-150650722D01*
X192748219Y-139512455D02*
X181609952Y-150650722D01*
%TO.N,Net-(D19-A)*%
X203734627Y-58200680D02*
X201648377Y-58200680D01*
X201648377Y-58200680D02*
X198222008Y-61627049D01*
%TO.N,R2*%
X192544627Y-105280680D02*
X196544627Y-105280680D01*
X241218377Y-95927049D02*
X236222008Y-90930680D01*
X217222008Y-96930680D02*
X217222008Y-97477049D01*
X198044627Y-103780680D02*
X198044627Y-102927049D01*
X192294627Y-105030680D02*
X192544627Y-105280680D01*
%TO.N,R1*%
X187794627Y-97884350D02*
X194097376Y-91581601D01*
%TO.N,R2*%
X229943377Y-97655680D02*
X217947008Y-97655680D01*
X266901587Y-105856628D02*
X256972008Y-95927049D01*
X192294627Y-97384350D02*
X192294627Y-105030680D01*
X217222008Y-97477049D02*
X211043377Y-103655680D01*
X236222008Y-91377049D02*
X229943377Y-97655680D01*
%TO.N,R1*%
X207680449Y-139512455D02*
X192748219Y-139512455D01*
%TO.N,R3*%
X265189836Y-86898508D02*
X255222008Y-76930680D01*
X217222008Y-77930680D02*
X217222008Y-78477049D01*
X198450639Y-84655680D02*
X198122008Y-84327049D01*
X229943377Y-78655680D02*
X217947008Y-78655680D01*
X217222008Y-78477049D02*
X211043377Y-84655680D01*
X194097376Y-99581601D02*
X198044627Y-95634350D01*
X255222008Y-76930680D02*
X241222008Y-76930680D01*
X236222008Y-72377049D02*
X229943377Y-78655680D01*
X236222008Y-71930680D02*
X236222008Y-72377049D01*
X211043377Y-84655680D02*
X198450639Y-84655680D01*
X241222008Y-76930680D02*
X236222008Y-71930680D01*
%TO.N,R2*%
X236222008Y-90930680D02*
X236222008Y-91377049D01*
%TO.N,R3*%
X198044627Y-95634350D02*
X198044627Y-83927049D01*
X276595244Y-86898508D02*
X265189836Y-86898508D01*
X217947008Y-78655680D02*
X217222008Y-77930680D01*
%TO.N,R4*%
X236222008Y-53429057D02*
X229995385Y-59655680D01*
X236222008Y-52930680D02*
X236222008Y-53429057D01*
X265215729Y-67920770D02*
X255222008Y-57927049D01*
X278078201Y-67920770D02*
X265215729Y-67920770D01*
X217222008Y-59477049D02*
X211043377Y-65655680D01*
X198950639Y-65655680D02*
X198222008Y-64927049D01*
X229995385Y-59655680D02*
X217947008Y-59655680D01*
X217947008Y-59655680D02*
X217222008Y-58930680D01*
X211043377Y-65655680D02*
X198950639Y-65655680D01*
X255222008Y-57927049D02*
X241218377Y-57927049D01*
X241218377Y-57927049D02*
X236222008Y-52930680D01*
X217222008Y-58930680D02*
X217222008Y-59477049D01*
%TO.N,C10*%
X111997992Y-123997049D02*
X117471219Y-118523822D01*
%TO.N,C9*%
X113172992Y-118822049D02*
X113470298Y-118822049D01*
%TO.N,C8*%
X107971219Y-85093822D02*
X107971219Y-115696128D01*
%TO.N,C9*%
X113470298Y-118822049D02*
X113846219Y-118446128D01*
%TO.N,C8*%
X108272140Y-115997049D02*
X111997992Y-115997049D01*
%TO.N,C10*%
X115291746Y-86967049D02*
X111177992Y-86967049D01*
X117471219Y-118523822D02*
X117471219Y-90446128D01*
X116520825Y-88196128D02*
X115291746Y-86967049D01*
%TO.N,C9*%
X113846219Y-118446128D02*
X113846219Y-114821128D01*
X108421219Y-110081977D02*
X108421219Y-87183822D01*
%TO.N,C8*%
X107971219Y-115696128D02*
X108272140Y-115997049D01*
%TO.N,C9*%
X112971219Y-113946128D02*
X112285370Y-113946128D01*
%TO.N,C8*%
X111177992Y-81887049D02*
X107971219Y-85093822D01*
%TO.N,C9*%
X111997992Y-119997049D02*
X113172992Y-118822049D01*
X112285370Y-113946128D02*
X108421219Y-110081977D01*
X113846219Y-114821128D02*
X112971219Y-113946128D01*
X108421219Y-87183822D02*
X111177992Y-84427049D01*
%TO.N,C7*%
X111997992Y-111997049D02*
X115796325Y-108198716D01*
%TO.N,C6*%
X114854498Y-83812849D02*
X116471219Y-82196128D01*
%TO.N,C7*%
X116971219Y-83812849D02*
X117221219Y-83562849D01*
X117221219Y-83562849D02*
X117221219Y-81446128D01*
X115796325Y-108198716D02*
X115796325Y-92021234D01*
%TO.N,C6*%
X114791879Y-83812849D02*
X114854498Y-83812849D01*
%TO.N,C7*%
X114742590Y-79347049D02*
X111177992Y-79347049D01*
X114874057Y-79478516D02*
X114742590Y-79347049D01*
%TO.N,R2*%
X109971219Y-98023822D02*
X111997992Y-95997049D01*
%TO.N,R1*%
X109224181Y-94770860D02*
X111997992Y-91997049D01*
X113771313Y-91997049D02*
X111997992Y-91997049D01*
%TO.N,R2*%
X111997992Y-94794968D02*
X122365911Y-84427049D01*
%TO.N,R1*%
X109224181Y-102949090D02*
X109224181Y-94770860D01*
X118646726Y-87121635D02*
X113771313Y-91997049D01*
%TO.N,R2*%
X111997992Y-95997049D02*
X111997992Y-94794968D01*
X122365911Y-84427049D02*
X126417992Y-84427049D01*
X109971219Y-99196128D02*
X109971219Y-98023822D01*
%TO.N,R4*%
X113721219Y-83812849D02*
X118187019Y-79347049D01*
X107959292Y-65308349D02*
X112379292Y-65308349D01*
X107897992Y-65247049D02*
X107959292Y-65308349D01*
X112379292Y-65308349D02*
X126417992Y-79347049D01*
X118187019Y-79347049D02*
X126417992Y-79347049D01*
%TO.N,C3*%
X58035373Y-68060680D02*
X62399925Y-63696128D01*
%TO.N,C4*%
X77035373Y-93060680D02*
X77035373Y-103898034D01*
%TO.N,C3*%
X80316694Y-127664749D02*
X80316694Y-107815751D01*
%TO.N,C1*%
X89871846Y-61795501D02*
X89871846Y-61295501D01*
%TO.N,C3*%
X72597992Y-104297049D02*
X76797992Y-104297049D01*
X66296719Y-63696128D02*
X66971219Y-64370628D01*
%TO.N,C1*%
X17392285Y-84073957D02*
X17598493Y-84280165D01*
%TO.N,C5*%
X96035373Y-99060680D02*
X96035373Y-61060680D01*
X96097992Y-99123299D02*
X96035373Y-99060680D01*
%TO.N,C2*%
X39035373Y-54060680D02*
X39035373Y-92060680D01*
%TO.N,C4*%
X77035373Y-103898034D02*
X103483461Y-130346122D01*
%TO.N,C1*%
X17392285Y-66741469D02*
X17392285Y-84073957D01*
%TO.N,C4*%
X103483461Y-130346122D02*
X103483461Y-131996202D01*
%TO.N,C1*%
X89871846Y-61295501D02*
X90721219Y-60446128D01*
%TO.N,C3*%
X62399925Y-63696128D02*
X63971219Y-63696128D01*
X58035373Y-89734430D02*
X72597992Y-104297049D01*
X58035373Y-87060680D02*
X58035373Y-89734430D01*
%TO.N,C5*%
X125588900Y-141159054D02*
X96097992Y-111668146D01*
%TO.N,C4*%
X77035373Y-55060680D02*
X77035373Y-93060680D01*
%TO.N,C1*%
X17598493Y-84280165D02*
X17598493Y-101620074D01*
X17598493Y-101620074D02*
X19040916Y-103062497D01*
%TO.N,C3*%
X58035373Y-87060680D02*
X58035373Y-49060680D01*
X63971219Y-63696128D02*
X66296719Y-63696128D01*
%TO.N,C5*%
X96097992Y-111668146D02*
X96097992Y-99123299D01*
%TO.N,C1*%
X15755008Y-65104192D02*
X17392285Y-66741469D01*
%TO.N,C3*%
X80316694Y-107815751D02*
X76797992Y-104297049D01*
%TD*%
M02*
