<?xml version="1.0" encoding="UTF-8" standalone="no"?>
<svg
   version="1.1"
   width="132.8928mm"
   height="120.4722mm"
   viewBox="0.0000 0.0000 132.8928 120.4722"
   id="svg168"
   sodipodi:docname="keyboard-brd.svg"
   inkscape:version="1.3 (0e150ed6c4, 2023-07-21)"
   xmlns:inkscape="http://www.inkscape.org/namespaces/inkscape"
   xmlns:sodipodi="http://sodipodi.sourceforge.net/DTD/sodipodi-0.dtd"
   xmlns="http://www.w3.org/2000/svg"
   xmlns:svg="http://www.w3.org/2000/svg">
  <defs
     id="defs168" />
  <sodipodi:namedview
     id="namedview168"
     pagecolor="#ffffff"
     bordercolor="#000000"
     borderopacity="0.25"
     inkscape:showpageshadow="2"
     inkscape:pageopacity="0.0"
     inkscape:pagecheckerboard="0"
     inkscape:deskcolor="#d1d1d1"
     inkscape:document-units="mm"
     inkscape:zoom="1.7855261"
     inkscape:cx="266.30807"
     inkscape:cy="262.94772"
     inkscape:window-width="1920"
     inkscape:window-height="1009"
     inkscape:window-x="-8"
     inkscape:window-y="-8"
     inkscape:window-maximized="1"
     inkscape:current-layer="svg168" />
  <title
     id="title1">SVG Image created as keyboard-brd.svg date 2023/09/21 17:40:10 </title>
  <desc
     id="desc1">Image generated by PCBNEW </desc>
  <g
     style="fill:#000000; fill-opacity:1.0000;stroke:#000000; stroke-opacity:1.0000; stroke-linecap:round; stroke-linejoin:round;"
     transform="translate(0 0) scale(1 1)"
     id="g1" />
  <g
     style="fill:#000000; fill-opacity:0.0;  stroke:#000000; stroke-width:0.0000; stroke-opacity:1;  stroke-linecap:round; stroke-linejoin:round;"
     id="g2" />
  <g
     style="fill:#FFFFFF; fill-opacity:1.0000;  stroke:#FFFFFF; stroke-width:0.0212; stroke-opacity:1;  stroke-linecap:round; stroke-linejoin:round;"
     id="g4" />
  <g
     style="fill:#D91600; fill-opacity:1.0000;  stroke:#D91600; stroke-width:0.0212; stroke-opacity:1;  stroke-linecap:round; stroke-linejoin:round;"
     id="g5" />
  <g
     style="fill:#D91600; fill-opacity:1.0000;  stroke:#D91600; stroke-width:0.2000; stroke-opacity:1;  stroke-linecap:round; stroke-linejoin:round;"
     id="g6" />
  <g
     style="fill:#D91600; fill-opacity:0.0;  stroke:#D91600; stroke-width:0.2000; stroke-opacity:1;  stroke-linecap:round; stroke-linejoin:round;"
     id="g7">
    <path
       d="M106.8205 19.4770 L106.8205 14.3970 "
       id="path6" />
    <path
       d="M114.1865 14.3970 L114.1865 19.4770 "
       id="path7" />
  </g>
  <g
     style="fill:#D91600; fill-opacity:0.0;  stroke:#D91600; stroke-width:0.1200; stroke-opacity:1;  stroke-linecap:round; stroke-linejoin:round;"
     id="g8">
    <path
       d="M128.3805 91.7010 L107.8305 91.7010 "
       id="path8" />
  </g>
  <g
     style="fill:#D91600; fill-opacity:0.0;  stroke:#D91600; stroke-width:0.0500; stroke-opacity:1;  stroke-linecap:round; stroke-linejoin:round;"
     id="g34">
    <path
       d="M128.3805 46.1010 L128.3805 91.7010 "
       id="path9" />
    <path
       d="M107.8305 91.7010 L107.8305 46.1010 "
       id="path10" />
    <path
       d="M107.8305 46.1010 L128.3805 46.1010 "
       id="path11" />
    <g
       id="g11" />
    <g
       id="g12" />
    <g
       id="g13" />
    <g
       id="g14" />
    <g
       id="g15" />
    <g
       id="g16" />
    <g
       id="g17" />
    <g
       id="g18" />
    <g
       id="g19" />
    <g
       id="g20" />
    <g
       id="g21" />
    <g
       id="g22" />
    <g
       id="g23" />
    <g
       id="g24" />
    <g
       id="g25" />
    <g
       id="g26" />
    <g
       id="g27" />
    <g
       id="g28" />
    <g
       id="g29" />
    <g
       id="g30" />
    <g
       id="g31" />
    <g
       id="g32" />
    <g
       id="g33" />
  </g>
  <g
     style="fill:#FFFFFF; fill-opacity:0.0;  stroke:#FFFFFF; stroke-width:0.0500; stroke-opacity:1;  stroke-linecap:round; stroke-linejoin:round;"
     id="g35" />
  <g
     style="fill:#4A242D; fill-opacity:0.0;  stroke:#4A242D; stroke-width:0.0500; stroke-opacity:1;  stroke-linecap:round; stroke-linejoin:round;"
     id="g36" />
  <g
     style="fill:#4A242D; fill-opacity:0.0;  stroke:#4A242D; stroke-width:0.1000; stroke-opacity:1;  stroke-linecap:round; stroke-linejoin:round;"
     id="g130">
    <path
       d="M46.6778 24.3046 L46.6778 38.3046 "
       id="path36" />
    <path
       d="M46.6778 38.3046 L60.6778 38.3046 "
       id="path37" />
    <path
       d="M60.6778 24.3046 L46.6778 24.3046 "
       id="path38" />
    <path
       d="M60.6778 38.3046 L60.6778 24.3046 "
       id="path39" />
    <path
       d="M65.6778 30.3046 L65.6778 44.3046 "
       id="path40" />
    <path
       d="M65.6778 44.3046 L79.6778 44.3046 "
       id="path41" />
    <path
       d="M79.6778 30.3046 L65.6778 30.3046 "
       id="path42" />
    <path
       d="M79.6778 44.3046 L79.6778 30.3046 "
       id="path43" />
    <path
       d="M5.6582 40.6129 L6.8784 54.5596 "
       id="path44" />
    <path
       d="M6.8784 54.5596 L20.8251 53.3394 "
       id="path45" />
    <path
       d="M19.6049 39.3927 L5.6582 40.6129 "
       id="path46" />
    <path
       d="M20.8251 53.3394 L19.6049 39.3927 "
       id="path47" />
    <path
       d="M27.6778 29.3046 L27.6778 43.3046 "
       id="path48" />
    <path
       d="M27.6778 43.3046 L41.6778 43.3046 "
       id="path49" />
    <path
       d="M41.6778 29.3046 L27.6778 29.3046 "
       id="path50" />
    <path
       d="M41.6778 43.3046 L41.6778 29.3046 "
       id="path51" />
    <path
       d="M27.6778 48.3046 L27.6778 62.3046 "
       id="path52" />
    <path
       d="M27.6778 62.3046 L41.6778 62.3046 "
       id="path53" />
    <path
       d="M41.6778 48.3046 L27.6778 48.3046 "
       id="path54" />
    <path
       d="M41.6778 62.3046 L41.6778 48.3046 "
       id="path55" />
    <path
       d="M4.0209 21.6431 L5.2411 35.5898 "
       id="path56" />
    <path
       d="M5.2411 35.5898 L19.1878 34.3696 "
       id="path57" />
    <path
       d="M17.9676 20.4229 L4.0209 21.6431 "
       id="path58" />
    <path
       d="M19.1878 34.3696 L17.9676 20.4229 "
       id="path59" />
    <path
       d="M46.6778 5.3046 L46.6778 19.3046 "
       id="path60" />
    <path
       d="M46.6778 19.3046 L60.6778 19.3046 "
       id="path61" />
    <path
       d="M60.6778 5.3046 L46.6778 5.3046 "
       id="path62" />
    <path
       d="M60.6778 19.3046 L60.6778 5.3046 "
       id="path63" />
    <path
       d="M69.4428 83.5996 L67.9794 97.5229 "
       id="path64" />
    <path
       d="M67.9794 97.5229 L81.9027 98.9863 "
       id="path65" />
    <path
       d="M83.3661 85.0630 L69.4428 83.5996 "
       id="path66" />
    <path
       d="M81.9027 98.9863 L83.3661 85.0630 "
       id="path67" />
    <path
       d="M65.6778 11.3046 L65.6778 25.3046 "
       id="path68" />
    <path
       d="M65.6778 25.3046 L79.6778 25.3046 "
       id="path69" />
    <path
       d="M79.6778 11.3046 L65.6778 11.3046 "
       id="path70" />
    <path
       d="M79.6778 25.3046 L79.6778 11.3046 "
       id="path71" />
    <path
       d="M117.0795 96.3902 L109.6607 108.2629 "
       id="path72" />
    <path
       d="M109.6607 108.2629 L121.5333 115.6818 "
       id="path73" />
    <path
       d="M128.9522 103.8091 L117.0795 96.3902 "
       id="path74" />
    <path
       d="M121.5333 115.6818 L128.9522 103.8091 "
       id="path75" />
    <path
       d="M27.6778 10.3046 L27.6778 24.3046 "
       id="path76" />
    <path
       d="M27.6778 24.3046 L41.6778 24.3046 "
       id="path77" />
    <path
       d="M41.6778 10.3046 L27.6778 10.3046 "
       id="path78" />
    <path
       d="M41.6778 24.3046 L41.6778 10.3046 "
       id="path79" />
    <path
       d="M93.7518 87.4445 L89.1938 100.6818 "
       id="path80" />
    <path
       d="M89.1938 100.6818 L102.4311 105.2397 "
       id="path81" />
    <path
       d="M106.9890 92.0025 L93.7518 87.4445 "
       id="path82" />
    <path
       d="M102.4311 105.2397 L106.9890 92.0025 "
       id="path83" />
    <path
       d="M7.3068 59.6014 L8.5270 73.5481 "
       id="path84" />
    <path
       d="M8.5270 73.5481 L22.4737 72.3279 "
       id="path85" />
    <path
       d="M21.2535 58.3812 L7.3068 59.6014 "
       id="path86" />
    <path
       d="M22.4737 72.3279 L21.2535 58.3812 "
       id="path87" />
    <path
       d="M84.6778 36.3046 L84.6778 50.3046 "
       id="path88" />
    <path
       d="M84.6778 50.3046 L98.6778 50.3046 "
       id="path89" />
    <path
       d="M98.6778 36.3046 L84.6778 36.3046 "
       id="path90" />
    <path
       d="M98.6778 50.3046 L98.6778 36.3046 "
       id="path91" />
    <path
       d="M84.6778 17.3046 L84.6778 31.3046 "
       id="path92" />
    <path
       d="M84.6778 31.3046 L98.6778 31.3046 "
       id="path93" />
    <path
       d="M98.6778 17.3046 L84.6778 17.3046 "
       id="path94" />
    <path
       d="M98.6778 31.3046 L98.6778 17.3046 "
       id="path95" />
    <path
       d="M65.6778 49.3046 L65.6778 63.3046 "
       id="path96" />
    <path
       d="M65.6778 63.3046 L79.6778 63.3046 "
       id="path97" />
    <path
       d="M79.6778 49.3046 L65.6778 49.3046 "
       id="path98" />
    <path
       d="M79.6778 63.3046 L79.6778 49.3046 "
       id="path99" />
    <path
       d="M46.6778 43.3046 L46.6778 57.3046 "
       id="path100" />
    <path
       d="M46.6778 57.3046 L60.6778 57.3046 "
       id="path101" />
    <path
       d="M60.6778 43.3046 L46.6778 43.3046 "
       id="path102" />
    <path
       d="M60.6778 57.3046 L60.6778 43.3046 "
       id="path103" />
    <path
       d="M84.6778 55.3046 L84.6778 69.3046 "
       id="path104" />
    <path
       d="M84.6778 69.3046 L98.6778 69.3046 "
       id="path105" />
    <path
       d="M98.6778 55.3046 L84.6778 55.3046 "
       id="path106" />
    <path
       d="M98.6778 69.3046 L98.6778 55.3046 "
       id="path107" />
    <g
       id="g107" />
    <g
       id="g108" />
    <g
       id="g109" />
    <g
       id="g110" />
    <g
       id="g111" />
    <g
       id="g112" />
    <g
       id="g113" />
    <g
       id="g114" />
    <g
       id="g115" />
    <g
       id="g116" />
    <g
       id="g117" />
    <g
       id="g118" />
    <g
       id="g119" />
    <g
       id="g120" />
    <g
       id="g121" />
    <g
       id="g122" />
    <g
       id="g123" />
    <g
       id="g124" />
    <g
       id="g125" />
    <g
       id="g126" />
    <g
       id="g127" />
    <g
       id="g128" />
    <g
       id="g129" />
  </g>
  <g
     style="fill:#FFFFFF; fill-opacity:0.0;  stroke:#FFFFFF; stroke-width:0.1000; stroke-opacity:1;  stroke-linecap:round; stroke-linejoin:round;"
     id="g131" />
  <g
     style="fill:#2F2D31; fill-opacity:0.0;  stroke:#2F2D31; stroke-width:0.1000; stroke-opacity:1;  stroke-linecap:round; stroke-linejoin:round;"
     id="g132" />
  <g
     style="fill:#2F2D31; fill-opacity:0.0;  stroke:#2F2D31; stroke-width:0.0500; stroke-opacity:1;  stroke-linecap:round; stroke-linejoin:round;"
     id="g135">
    <path
       d="M132.7305 103.3010 L122.3305 119.7010 "
       id="path132" />
    <path
       d="M121.0305 95.5010 L132.6305 102.6010 "
       id="path133" />
    <path
       d="M0.0305 15.2010 L5.8305 77.1010 "
       id="path134" />
    <path
       d="M1.3305 13.2010 A1.9685 1.9685 0.0 0 0 0.0305 15.2010"
       id="path135" />
  </g>
  <g
     style="fill:#2F2D31; fill-opacity:0.0;  stroke:#2F2D31; stroke-width:0.1000; stroke-opacity:1;  stroke-linecap:round; stroke-linejoin:round;"
     id="g168">
    <path
       d="M100.1305 7.5510 A125.8283 125.8283 0.0 0 0 1.3305 13.2010"
       id="path136" />
    <path
       d="M101.3944 9.2010 A1.5797 1.5797 0.0 0 0 100.1305 7.5510"
       id="path137" />
    <path
       d="M101.3944 9.2010 L101.3944 14.4510 "
       id="path138" />
    <path
       d="M121.0305 95.5010 L121.0305 16.1010 "
       id="path139" />
    <path
       d="M101.3944 14.4510 A1.5865 1.5865 0.0 0 0 102.6305 16.1010"
       id="path140" />
    <path
       d="M102.6305 16.1010 L121.0305 16.1010 "
       id="path141" />
    <path
       d="M120.1305 120.0010 A100.8906 100.8906 0.0 0 0 64.3305 100.9510"
       id="path142" />
    <path
       d="M120.1305 120.0010 A1.3598 1.3598 0.0 0 0 122.3305 119.7010"
       id="path143" />
    <path
       d="M64.3305 100.9510 A66.5383 66.5383 0.0 0 0 5.8305 77.1010"
       id="path144" />
    <path
       d="M132.7305 103.3010 A0.4532 0.4532 0.0 0 0 132.6305 102.6010"
       id="path145" />
    <g
       id="g145" />
    <g
       id="g146" />
    <g
       id="g147" />
    <g
       id="g148" />
    <g
       id="g149" />
    <g
       id="g150" />
    <g
       id="g151" />
    <g
       id="g152" />
    <g
       id="g153" />
    <g
       id="g154" />
    <g
       id="g155" />
    <g
       id="g156" />
    <g
       id="g157" />
    <g
       id="g158" />
    <g
       id="g159" />
    <g
       id="g160" />
    <g
       id="g161" />
    <g
       id="g162" />
    <g
       id="g163" />
    <g
       id="g164" />
    <g
       id="g165" />
    <g
       id="g166" />
    <g
       id="g167" />
  </g>
</svg>
